<svg width="26" height="26" viewBox="0 0 26 26" fill="none" xmlns="http://www.w3.org/2000/svg">
<g opacity="0.85">
<path d="M25.5668 0.433411C25.5668 0.433411 25.5666 0.433411 25.5666 0.433411H19.0666C18.8273 0.433411 18.6333 0.627381 18.6333 0.86669C18.6333 0.981631 18.679 1.09186 18.7602 1.17311L20.6205 3.03341L19.6986 3.95533C17.7657 2.50789 15.4147 1.72805 12.9999 1.73341C6.78663 1.72426 1.74241 6.75374 1.73326 12.967C1.73169 14.0304 1.88092 15.0886 2.17645 16.1101L0.148882 17.8732C-0.0288388 18.0279 -0.0504513 18.2963 0.10024 18.4775L2.26691 21.0775C2.34214 21.1677 2.45069 21.2234 2.5678 21.2321C2.57837 21.233 2.58936 21.2334 2.59992 21.2334C2.70598 21.2334 2.80841 21.1945 2.88771 21.124L4.16837 19.9856C8.00765 24.8757 15.0843 25.7276 19.9744 21.8883C24.5909 18.2638 25.6479 11.7006 22.4028 6.80991L23.3999 5.81287L25.2602 7.67317C25.4294 7.84238 25.7038 7.84238 25.873 7.67322C25.9543 7.59197 25.9999 7.48174 25.9999 7.3668V0.866744C26 0.62749 25.8061 0.433465 25.5668 0.433411ZM12.9999 2.60008C13.7283 2.6023 14.4545 2.68046 15.1666 2.83337V3.68341C15.1664 3.80301 15.0695 3.89992 14.9499 3.90008H13.2166C12.6185 3.90073 12.1339 4.38536 12.1333 4.98341V5.85008C12.1331 5.96968 12.0362 6.06658 11.9166 6.06674H10.1833C10.0637 6.06658 9.96675 5.96968 9.96659 5.85008C9.96594 5.25202 9.48131 4.76739 8.88326 4.76674H8.44992C7.85187 4.76739 7.36724 5.25202 7.36659 5.85008V7.15008C7.36643 7.26968 7.26952 7.36658 7.14992 7.36674H4.26468C6.17774 4.39722 9.46755 2.60208 12.9999 2.60008ZM3.05238 9.96674H5.84992C5.96952 9.96691 6.06643 10.0638 6.06659 10.1834V10.6167C6.06643 10.7363 5.96952 10.8332 5.84992 10.8334H5.41659C4.81854 10.8341 4.33391 11.3187 4.33326 11.9167C4.33309 12.0363 4.23619 12.1332 4.11659 12.1334H2.63882C2.69899 11.3985 2.83761 10.6722 3.05238 9.96674ZM4.11659 13.0001C4.71464 12.9994 5.19927 12.5148 5.19992 11.9167C5.20009 11.7971 5.29699 11.7002 5.41659 11.7001H5.84992C6.44798 11.6994 6.93261 11.2148 6.93326 10.6167V10.1834C6.93261 9.58536 6.44798 9.10073 5.84992 9.10008H3.36151C3.4817 8.80406 3.61501 8.51519 3.76131 8.23341H7.14992C7.74798 8.23276 8.23261 7.74813 8.23326 7.15008V5.85008C8.23342 5.73048 8.33032 5.63357 8.44992 5.63341H8.88326C9.00286 5.63357 9.09976 5.73048 9.09992 5.85008C9.10057 6.44813 9.5852 6.93276 10.1833 6.93341H11.9166C12.5146 6.93276 12.9993 6.44813 12.9999 5.85008V4.98341C13.0001 4.86381 13.097 4.76691 13.2166 4.76674H14.9499C15.548 4.76609 16.0326 4.28147 16.0333 3.68341V3.05627C17.1257 3.38994 18.155 3.90322 19.0789 4.57505L12.5666 11.0873L10.7063 9.22704C10.5454 9.06584 10.2872 9.05691 10.1155 9.20652L2.90196 15.4792C2.70219 14.6679 2.60079 13.8356 2.59992 13.0001H4.11659ZM7.86395 22.0332C6.68772 21.3644 5.65297 20.473 4.81751 19.4086L7.63981 16.9001H9.96659C10.2058 16.9003 10.3997 17.0942 10.3999 17.3334C10.4033 18.05 10.9834 18.6301 11.6999 18.6334C11.8168 18.6332 11.9286 18.6812 12.0088 18.7661C12.0894 18.8453 12.1342 18.9538 12.1333 19.0667V19.9334C12.133 20.1726 11.9391 20.3665 11.6999 20.3667H9.96659C8.96472 20.3693 8.09524 21.0583 7.86395 22.0332ZM13.0439 23.3989C13.2515 22.3914 14.1379 21.6681 15.1666 21.6667H16.4666C17.1846 21.6667 17.7666 21.0847 17.7666 20.3667C17.7666 19.6488 17.1846 19.0667 16.4666 19.0667H15.3833C15.2636 19.0667 15.1666 18.9697 15.1666 18.8501C15.1666 18.7304 15.2636 18.6334 15.3833 18.6334H21.7352C19.8303 21.5894 16.5604 23.3824 13.0439 23.3989ZM22.2385 17.7667H15.3833C14.7849 17.7667 14.2999 18.2518 14.2999 18.8501C14.2999 19.4484 14.7849 19.9334 15.3833 19.9334H16.4666C16.7059 19.9334 16.8999 20.1274 16.8999 20.3667C16.8999 20.6061 16.7059 20.8001 16.4666 20.8001H15.1666C13.6748 20.8028 12.406 21.8891 12.1736 23.3627C10.963 23.2647 9.77896 22.9553 8.6752 22.4485C8.7187 21.7667 9.28339 21.2354 9.96659 21.2334H11.6999C12.4176 21.2327 12.9992 20.6511 12.9999 19.9334V19.0667C12.9966 18.3502 12.4165 17.7701 11.6999 17.7667C11.5831 17.767 11.4713 17.719 11.391 17.6341C11.3105 17.5549 11.2656 17.4463 11.2666 17.3334C11.2658 16.6158 10.6842 16.0342 9.96659 16.0334H8.61481L10.3826 14.4621L12.2602 16.3398C12.4293 16.509 12.7036 16.509 12.8728 16.3399C12.8728 16.3399 12.8729 16.3398 12.873 16.3398L17.946 11.2667H19.7166C20.0756 11.2667 20.3666 11.5578 20.3666 11.9167C20.3666 12.2757 20.0756 12.5667 19.7166 12.5667H18.1999C17.4834 12.5703 16.9035 13.1502 16.8999 13.8667C16.9007 14.5844 17.4823 15.166 18.1999 15.1667H23.1713C22.9783 16.0713 22.6646 16.9458 22.2385 17.7667ZM22.8545 9.67224C23.3581 11.1597 23.5159 12.7425 23.3158 14.3001H18.1999C17.9607 14.2999 17.7668 14.106 17.7666 13.8668C17.7663 13.7501 17.8143 13.6385 17.899 13.5583C17.9782 13.4776 18.0868 13.4324 18.1999 13.4335H19.7166C20.5542 13.4335 21.2333 12.7544 21.2333 11.9168C21.2333 11.0792 20.5542 10.4001 19.7166 10.4001H18.8127L19.6793 9.53347H22.8018C22.8183 9.58005 22.8386 9.62528 22.8545 9.67224ZM22.4471 8.66674H20.546L21.7773 7.43554C22.0279 7.83041 22.2517 8.24175 22.4471 8.66674ZM25.1333 6.32068L23.7063 4.89371C23.5372 4.72449 23.2629 4.72444 23.0937 4.89355C23.0937 4.8936 23.0936 4.89366 23.0936 4.89371L12.5666 15.4207L10.7063 13.5604C10.5441 13.3981 10.2836 13.3905 10.1121 13.5428L2.64645 20.1791L1.03797 18.2487L10.3792 10.1256L12.2602 12.0064C12.4293 12.1756 12.7036 12.1757 12.8728 12.0066C12.8728 12.0065 12.8729 12.0064 12.873 12.0064L21.5396 3.33972C21.7088 3.17061 21.7089 2.89632 21.5398 2.72715C21.5397 2.7271 21.5397 2.72704 21.5396 2.72699L20.1127 1.30008H25.1333V6.32068Z" fill="#00A7AC"/>
<path d="M23.8325 23.8335H22.9658V24.7002H23.8325V23.8335Z" fill="#00A7AC"/>
<path d="M25.9985 25.1335H25.1318V26.0002H25.9985V25.1335Z" fill="#00A7AC"/>
<path d="M25.1352 21.6665H24.2686V22.5332H25.1352V21.6665Z" fill="#00A7AC"/>
<path d="M21.6665 25.1334H20.7998V26H21.6665V25.1334Z" fill="#00A7AC"/>
<path d="M25.9985 19.0665H25.1318V19.9332H25.9985V19.0665Z" fill="#00A7AC"/>
<path d="M0.866667 0H0V0.866667H0.866667V0Z" fill="#00A7AC"/>
<path d="M3.03561 0.866516H2.16895V1.73318H3.03561V0.866516Z" fill="#00A7AC"/>
<path d="M1.30026 2.60004H0.433594V3.4667H1.30026V2.60004Z" fill="#00A7AC"/>
<path d="M5.63229 0H4.76562V0.866667H5.63229V0Z" fill="#00A7AC"/>
<path d="M3.03561 3.46674H2.16895V4.3334H3.03561V3.46674Z" fill="#00A7AC"/>
<path d="M0.866667 5.19989H0V6.06656H0.866667V5.19989Z" fill="#00A7AC"/>
</g>
</svg>
