<svg width="40" height="40" viewBox="0 0 40 40" fill="none" xmlns="http://www.w3.org/2000/svg">
<g opacity="0.85">
<path d="M39.3335 0.666809C39.3335 0.666809 39.3333 0.666809 39.3332 0.666809H29.3332C28.965 0.666809 28.6666 0.965226 28.6666 1.33339C28.6666 1.51023 28.7369 1.67981 28.8619 1.80481L31.7239 4.66681L30.3055 6.08514C27.3319 3.85831 23.7149 2.65856 19.9999 2.66681C10.441 2.65273 2.68063 10.3904 2.66655 19.9493C2.66413 21.5853 2.89372 23.2133 3.34838 24.7848L0.229049 27.4972C-0.0443674 27.7353 -0.0776174 28.1481 0.154216 28.4269L3.48755 32.4269C3.6033 32.5656 3.7703 32.6515 3.95047 32.6648C3.96672 32.6661 3.98363 32.6668 3.99988 32.6668C4.16305 32.6668 4.32063 32.6069 4.44263 32.4985L6.41288 30.7471C12.3195 38.2704 23.2065 39.581 30.7298 33.6743C37.8321 28.0981 39.4584 18.0009 34.4659 10.4768L35.9999 8.94289L38.8619 11.8049C39.1222 12.0652 39.5443 12.0652 39.8046 11.805C39.9297 11.68 39.9999 11.5104 39.9999 11.3336V1.33348C40 0.965392 39.7016 0.666892 39.3335 0.666809ZM19.9999 4.00014C21.1205 4.00356 22.2376 4.12381 23.3332 4.35906V5.66681C23.333 5.85081 23.1839 5.99989 22.9999 6.00014H20.3332C19.4131 6.00114 18.6675 6.74673 18.6665 7.66681V9.00014C18.6663 9.18414 18.5172 9.33323 18.3332 9.33348H15.6665C15.4825 9.33323 15.3335 9.18414 15.3332 9.00014C15.3322 8.08006 14.5866 7.33448 13.6665 7.33348H12.9999C12.0798 7.33448 11.3342 8.08006 11.3332 9.00014V11.0001C11.333 11.1841 11.1839 11.3332 10.9999 11.3335H6.56105C9.50422 6.76498 14.5655 4.00323 19.9999 4.00014ZM4.69597 15.3335H8.99988C9.18388 15.3337 9.33296 15.4828 9.33321 15.6668V16.3335C9.33296 16.5175 9.18388 16.6666 8.99988 16.6668H8.33321C7.41313 16.6678 6.66755 17.4134 6.66655 18.3335C6.6663 18.5175 6.51722 18.6666 6.33322 18.6668H4.05972C4.1523 17.5361 4.36555 16.4187 4.69597 15.3335ZM6.33322 20.0001C7.2533 19.9991 7.99888 19.2536 7.99988 18.3335C8.00013 18.1495 8.14922 18.0004 8.33321 18.0001H8.99988C9.91996 17.9991 10.6655 17.2536 10.6665 16.3335V15.6668C10.6655 14.7467 9.91996 14.0011 8.99988 14.0001H5.17155C5.35647 13.5447 5.56155 13.1003 5.78663 12.6668H10.9999C11.92 12.6658 12.6655 11.9202 12.6665 11.0001V9.00014C12.6668 8.81614 12.8159 8.66706 12.9999 8.66681H13.6665C13.8505 8.66706 13.9996 8.81614 13.9999 9.00014C14.0009 9.92023 14.7465 10.6658 15.6665 10.6668H18.3332C19.2533 10.6658 19.9989 9.92023 19.9999 9.00014V7.66681C20.0001 7.48281 20.1492 7.33373 20.3332 7.33348H22.9999C23.92 7.33248 24.6655 6.58689 24.6665 5.66681V4.70198C26.3473 5.21531 27.9308 6.00498 29.3521 7.03856L19.3332 17.0575L16.4712 14.1955C16.2237 13.9475 15.8265 13.9337 15.5624 14.1639L4.46455 23.8142C4.15722 22.5661 4.00122 21.2856 3.99988 20.0001H6.33322ZM12.0984 33.8972C10.2888 32.8683 8.69688 31.4969 7.41155 29.8595L11.7535 26.0001H15.3332C15.7012 26.0005 15.9995 26.2988 15.9999 26.6668C16.005 27.7692 16.8975 28.6616 17.9999 28.6668C18.1796 28.6665 18.3516 28.7403 18.4751 28.8709C18.599 28.9927 18.668 29.1597 18.6665 29.3335V30.6668C18.6662 31.0348 18.3679 31.3331 17.9999 31.3335H15.3332C13.7919 31.3374 12.4542 32.3975 12.0984 33.8972ZM20.0675 35.9984C20.387 34.4484 21.7506 33.3356 23.3332 33.3335H25.3332C26.4378 33.3335 27.3332 32.4381 27.3332 31.3335C27.3332 30.2289 26.4378 29.3335 25.3332 29.3335H23.6665C23.4825 29.3335 23.3332 29.1842 23.3332 29.0001C23.3332 28.8161 23.4825 28.6668 23.6665 28.6668H33.4387C30.5082 33.2146 25.4775 35.973 20.0675 35.9984ZM34.2131 27.3335H23.6665C22.746 27.3335 21.9999 28.0796 21.9999 29.0001C21.9999 29.9206 22.746 30.6668 23.6665 30.6668H25.3332C25.7014 30.6668 25.9999 30.9653 25.9999 31.3335C25.9999 31.7016 25.7014 32.0001 25.3332 32.0001H23.3332C21.0381 32.0043 19.0862 33.6756 18.7286 35.9426C16.8662 35.7919 15.0445 35.3159 13.3465 34.5361C13.4134 33.4872 14.2821 32.6698 15.3332 32.6668H17.9999C19.104 32.6656 19.9987 31.7709 19.9999 30.6668V29.3335C19.9947 28.2311 19.1023 27.3386 17.9999 27.3335C17.8201 27.3338 17.6481 27.26 17.5246 27.1294C17.4007 27.0076 17.3317 26.8406 17.3332 26.6668C17.332 25.5627 16.4373 24.668 15.3332 24.6668H13.2535L15.9732 22.2495L18.8619 25.1381C19.122 25.3985 19.544 25.3986 19.8043 25.1384C19.8044 25.1383 19.8045 25.1382 19.8045 25.1381L27.6093 17.3335H30.3332C30.8855 17.3335 31.3332 17.7812 31.3332 18.3335C31.3332 18.8857 30.8855 19.3335 30.3332 19.3335H27.9999C26.8975 19.339 26.0054 20.2311 25.9999 21.3335C26.001 22.4376 26.8958 23.3323 27.9999 23.3335H35.6481C35.3512 24.7251 34.8685 26.0705 34.2131 27.3335ZM35.1607 14.8804C35.9355 17.1688 36.1783 19.6038 35.8705 22.0002H27.9999C27.6319 21.9999 27.3335 21.7016 27.3332 21.3336C27.3328 21.1541 27.4065 20.9823 27.537 20.859C27.6587 20.7347 27.8259 20.6653 27.9999 20.6669H30.3332C31.6219 20.6669 32.6665 19.6222 32.6665 18.3336C32.6665 17.0449 31.6219 16.0002 30.3332 16.0002H28.9425L30.2759 14.6669H35.0796C35.1051 14.7386 35.1363 14.8081 35.1607 14.8804ZM34.534 13.3335H31.6093L33.5035 11.4393C33.8891 12.0468 34.2334 12.6796 34.534 13.3335ZM38.6665 9.72414L36.4712 7.52881C36.211 7.26848 35.789 7.26839 35.5288 7.52856C35.5287 7.52864 35.5286 7.52873 35.5285 7.52881L19.3332 23.7241L16.4712 20.8621C16.2217 20.6126 15.821 20.6007 15.5571 20.8351L4.07147 31.0447L1.59688 28.075L15.968 15.5779L18.8619 18.4714C19.122 18.7317 19.544 18.7318 19.8043 18.4716C19.8044 18.4716 19.8045 18.4715 19.8045 18.4714L33.1379 5.13806C33.3982 4.87789 33.3983 4.45589 33.1381 4.19564C33.138 4.19556 33.138 4.19548 33.1379 4.19539L30.9426 2.00014H38.6665V9.72414Z" fill="#00A7AC"/>
<path d="M36.6663 36.6667H35.333V38H36.6663V36.6667Z" fill="#00A7AC"/>
<path d="M39.9993 38.6667H38.666V40H39.9993V38.6667Z" fill="#00A7AC"/>
<path d="M38.6673 33.3333H37.334V34.6666H38.6673V33.3333Z" fill="#00A7AC"/>
<path d="M33.3333 38.6667H32V40H33.3333V38.6667Z" fill="#00A7AC"/>
<path d="M39.9993 29.3332H38.666V30.6665H39.9993V29.3332Z" fill="#00A7AC"/>
<path d="M1.33333 0H0V1.33333H1.33333V0Z" fill="#00A7AC"/>
<path d="M4.66732 1.33331H3.33398V2.66665H4.66732V1.33331Z" fill="#00A7AC"/>
<path d="M2.00033 4.00012H0.666992V5.33346H2.00033V4.00012Z" fill="#00A7AC"/>
<path d="M8.66634 0H7.33301V1.33333H8.66634V0Z" fill="#00A7AC"/>
<path d="M4.66732 5.33337H3.33398V6.66671H4.66732V5.33337Z" fill="#00A7AC"/>
<path d="M1.33333 7.99994H0V9.33327H1.33333V7.99994Z" fill="#00A7AC"/>
</g>
</svg>
