<svg width="40" height="40" viewBox="0 0 40 40" fill="none" xmlns="http://www.w3.org/2000/svg">
<path d="M7.402 35.4389C7.04508 35.4389 6.75684 35.1504 6.75684 34.7938V31.6832C6.75684 31.3266 7.04508 31.0381 7.402 31.0381C7.75861 31.0381 8.04717 31.3266 8.04717 31.6832V34.7938C8.04717 35.1497 7.75798 35.4389 7.402 35.4389Z" fill="#00A7AC"/>
<path d="M20.9839 36.3878H0.645166C0.288245 36.3878 0 36.0995 0 35.7426V29.4239C0 23.6039 3.5692 18.3969 8.88079 16.4684C9.10068 16.3877 9.34513 16.4337 9.5206 16.5852C10.9858 17.84 12.8343 18.5317 14.7267 18.5317C16.6278 18.5317 18.482 17.8362 19.9478 16.5723C20.1246 16.4208 20.3712 16.3748 20.5899 16.4548C21.9615 16.9538 23.2395 17.6796 24.3884 18.613C24.5459 18.74 24.6344 18.9343 24.6265 19.1369C24.6196 19.3388 24.5182 19.5266 24.3525 19.6422L24.2744 19.697L23.9196 19.1911L23.5756 19.6151C22.6343 18.8505 21.5982 18.2407 20.4903 17.7981C18.8408 19.106 16.8093 19.8227 14.7267 19.8227C12.6535 19.8227 10.6279 19.1111 8.98065 17.8116C4.36589 19.651 1.29033 24.2705 1.29033 29.4239V35.0974H20.9839V36.3878Z" fill="#00A7AC"/>
<path d="M14.7268 19.8221C9.47883 19.8221 5.20996 15.3756 5.20996 9.9112C5.20996 4.44652 9.47883 0 14.7268 0C19.9744 0 24.2442 4.44589 24.2442 9.91025C24.2442 15.3749 19.9744 19.8221 14.7268 19.8221ZM14.7268 1.29033C10.1905 1.29033 6.50029 5.15753 6.50029 9.91025C6.50029 14.6639 10.1905 18.5311 14.7268 18.5311C19.2628 18.5311 22.9539 14.6639 22.9539 9.91025C22.9539 5.15753 19.2628 1.29033 14.7268 1.29033Z" fill="#00A7AC"/>
<path d="M28.7785 33.162C28.5095 33.162 28.2392 33.1377 27.9702 33.0879C26.7863 32.8681 25.7521 32.1854 25.0566 31.1641C24.3651 30.1453 24.1023 28.9246 24.3172 27.7285C24.5333 26.5298 25.2049 25.4814 26.2083 24.7755C27.2154 24.0679 28.4232 23.8014 29.6083 24.0188C30.7928 24.239 31.8264 24.922 32.5204 25.9433L32.5257 25.9505C33.2103 26.9866 33.4708 28.2048 33.2607 29.3783C33.0443 30.5763 32.3736 31.6247 31.3696 32.3306C30.5909 32.8775 29.6927 33.162 28.7785 33.162ZM28.8012 25.2345C28.1494 25.2345 27.5084 25.4383 26.9508 25.8311C26.2269 26.3396 25.743 27.0943 25.5883 27.9569C25.4333 28.8188 25.6242 29.7002 26.1251 30.4389C26.6244 31.1729 27.3638 31.6628 28.2065 31.8197C29.045 31.9743 29.9063 31.7822 30.6277 31.275C31.3516 30.7665 31.8355 30.0118 31.9902 29.1499C32.1417 28.3053 31.9502 27.4226 31.4509 26.6647C30.9528 25.9325 30.2147 25.4433 29.3727 25.2874C29.1818 25.2524 28.9915 25.2345 28.8012 25.2345Z" fill="#00A7AC"/>
<path d="M28.9419 40.0001C28.86 40.0001 28.7768 39.9926 28.6943 39.9774L24.9128 39.2768C24.1904 39.1426 23.727 38.4666 23.8581 37.7376L24.1599 36.0576C24.118 36.0299 24.078 36.0016 24.0408 35.9732L23.9923 35.9414L22.5967 36.9227C22.3444 37.1158 21.9922 37.2027 21.6504 37.1454C21.2973 37.0878 20.98 36.8846 20.7787 36.5878L18.5994 33.3828C18.4091 33.1242 18.3279 32.7795 18.3852 32.4324C18.4425 32.0821 18.6407 31.7652 18.9296 31.5626L20.2955 30.5769C20.2845 30.524 20.2753 30.4736 20.2671 30.4266C20.2624 30.4027 20.2586 30.3781 20.2549 30.3529L18.6057 30.0473C18.2677 29.984 17.9637 29.7815 17.7728 29.4904C17.5768 29.1911 17.5142 28.8336 17.5948 28.4833L18.28 24.6706C18.3439 24.3143 18.5367 24.009 18.8243 23.8099C19.1104 23.6118 19.4601 23.5387 19.8097 23.6033L21.4466 23.9073C21.4721 23.8666 21.4986 23.8279 21.525 23.7917L21.5657 23.7258L20.5922 22.2944C20.4026 22.037 20.3213 21.693 20.3774 21.3458C20.4347 20.9955 20.6329 20.6783 20.9211 20.4748L24.0767 18.2567C24.3297 18.0646 24.6825 17.9795 25.0233 18.0343C25.3762 18.0917 25.6937 18.2949 25.895 18.5916L26.8634 20.0155C26.8813 20.0111 26.8993 20.006 26.9169 20.0013C26.938 19.995 26.9601 19.9897 26.9825 19.9859C27.0051 19.9815 27.0285 19.9774 27.0518 19.9742L27.3542 18.2911C27.4194 17.9335 27.6122 17.6292 27.9001 17.4298C28.1852 17.2323 28.5343 17.1601 28.8846 17.2241L32.6478 17.9216C33.3705 18.0554 33.8336 18.7318 33.7025 19.4607L33.4001 21.1408C33.4426 21.1685 33.4826 21.1968 33.5201 21.2252L33.5683 21.257L34.9639 20.2757C35.2168 20.0832 35.5697 19.9975 35.9105 20.053C36.2633 20.1103 36.5809 20.3135 36.7822 20.6106L38.9445 23.8143C39.1329 24.0698 39.2141 24.4138 39.1581 24.7607C39.1007 25.111 38.9026 25.4285 38.6143 25.6317L37.2053 26.6215C37.2109 26.6473 37.2169 26.6725 37.2232 26.6962C37.2292 26.7169 37.2342 26.7374 37.2374 26.7595C37.2421 26.7847 37.2465 26.8099 37.2503 26.8357L38.8988 27.1413C39.5594 27.2641 40.0222 27.8756 40.0001 28.5938C39.9989 28.6253 39.9957 28.6568 39.9897 28.688L39.2989 32.5326C39.2343 32.8892 39.0415 33.1944 38.753 33.3938C38.4666 33.591 38.1182 33.6616 37.7679 33.5989L36.1323 33.2949C36.1065 33.3355 36.08 33.3743 36.0535 33.4105L36.0129 33.4757L36.9866 34.9078C37.1769 35.1668 37.2582 35.5111 37.2008 35.8582C37.1432 36.2085 36.9454 36.5254 36.6562 36.728L33.5019 38.9454C33.2492 39.1382 32.8976 39.2245 32.5555 39.1685C32.2033 39.1105 31.8858 38.908 31.6839 38.6118L30.7202 37.1936C30.678 37.2021 30.6367 37.21 30.5967 37.2175C30.5737 37.2213 30.551 37.2261 30.5271 37.2292L30.2247 38.9117C30.1607 39.268 29.9679 39.573 29.68 39.7724C29.4614 39.922 29.2065 40.0001 28.9419 40.0001ZM23.9973 34.504C24.1555 34.504 24.313 34.5622 24.4361 34.6763C24.502 34.7371 24.5776 34.7827 24.6529 34.8325L24.8006 34.9305C24.8652 34.9784 24.9607 35.0433 25.1478 35.1299C25.4143 35.2531 25.5646 35.5407 25.5123 35.8299L25.1286 37.966L28.9296 38.7085L29.3388 36.5459C29.3839 36.2942 29.5723 36.0945 29.8208 36.0331C29.9534 36.0009 30.0839 35.9833 30.2099 35.9679C30.2625 35.9609 30.3141 35.9549 30.3639 35.9461C30.442 35.9316 30.6317 35.8963 30.7536 35.8478C31.0362 35.7351 31.3581 35.8337 31.5279 36.0835L32.7518 37.8841L35.9143 35.6705L34.6942 33.8317C34.5279 33.5866 34.549 33.2596 34.7471 33.0388C34.8073 32.9717 34.8524 32.8942 34.9015 32.817L34.9982 32.6674C35.0451 32.6022 35.1097 32.5033 35.197 32.3105C35.3183 32.0395 35.6053 31.8886 35.9033 31.94L38.0038 32.3297L38.7092 28.5182C38.7032 28.4524 38.6755 28.413 38.6632 28.4105L36.5626 28.0208C36.3118 27.9742 36.1118 27.7839 36.0529 27.5351C36.0208 27.4015 36.0047 27.2711 35.9893 27.146C35.9839 27.1 35.9789 27.0543 35.9723 27.0112C35.9549 26.9447 35.9395 26.8751 35.9253 26.8033C35.9099 26.7299 35.897 26.653 35.8705 26.584C35.7615 26.3071 35.857 25.9924 36.0995 25.8207L37.8712 24.5757L35.713 21.3335L33.9344 22.5769C33.6846 22.7518 33.3478 22.7291 33.1245 22.5221C33.0589 22.4613 32.9833 22.4156 32.9077 22.3659L32.76 22.2679C32.6954 22.22 32.5993 22.1542 32.4128 22.0685C32.146 21.9466 31.9954 21.6574 32.0477 21.3685L32.4324 19.2324L28.6496 18.493L28.2407 20.6556C28.1956 20.9061 28.0079 21.1064 27.7612 21.1678C27.6276 21.2006 27.4982 21.2182 27.3721 21.2337C27.3284 21.2394 27.2852 21.2447 27.2439 21.251C27.1775 21.2687 27.1078 21.2847 27.0376 21.2995C26.967 21.3143 26.8936 21.3272 26.8291 21.3531C26.5477 21.47 26.2239 21.3704 26.0522 21.1187L24.8283 19.318L21.6658 21.5311L22.8859 23.3698C23.0529 23.6156 23.0308 23.9435 22.8317 24.164C22.7722 24.2305 22.7278 24.3067 22.6793 24.3833L22.5819 24.5345C22.535 24.5994 22.4704 24.6983 22.3831 24.8911C22.2619 25.162 21.9768 25.3129 21.6769 25.2615L19.576 24.8719L18.8606 28.7428L20.9438 29.1672C21.1942 29.2138 21.3937 29.4034 21.4535 29.6511C21.4856 29.7859 21.5027 29.9169 21.5181 30.0433C21.5244 30.0974 21.531 30.1504 21.5392 30.2014C21.5527 30.2783 21.5871 30.4748 21.6369 30.6034C21.7446 30.8774 21.6523 31.1893 21.4135 31.3613L19.6787 32.6132L21.847 35.8614L23.6272 34.6202C23.7387 34.5427 23.8685 34.504 23.9973 34.504Z" fill="#00A7AC"/>
</svg>
