<svg width="12" height="14" viewBox="0 0 12 14" fill="none" xmlns="http://www.w3.org/2000/svg">
<g clip-path="url(#clip0_909_119)">
<path fill-rule="evenodd" clip-rule="evenodd" d="M5.99898 2.77267C4.91833 2.77309 3.86691 3.13087 3.00219 3.79241C2.13746 4.45395 1.50599 5.38364 1.20234 6.44223C0.898701 7.50083 0.939232 8.63135 1.31787 9.66446C1.6965 10.6975 2.39286 11.5776 3.30264 12.1729C4.21242 12.7681 5.28666 13.0465 6.36444 12.9663C7.44222 12.8861 8.46554 12.4517 9.28113 11.728C10.0967 11.0044 10.6607 10.0305 10.8885 8.9523C11.1163 7.87406 10.9958 6.7495 10.545 5.74704C10.4959 5.62516 10.4949 5.48864 10.5422 5.36603C10.5895 5.24343 10.6815 5.14425 10.7988 5.08926C10.9161 5.03426 11.0497 5.02772 11.1716 5.07099C11.2936 5.11426 11.3944 5.20399 11.453 5.3214C11.994 6.52441 12.1385 7.87395 11.865 9.16786C11.5915 10.4617 10.9147 11.6304 9.9359 12.4987C8.9571 13.367 7.72902 13.8883 6.43562 13.9844C5.14222 14.0805 3.85313 13.7463 2.76145 13.0318C1.66976 12.3173 0.83424 11.2611 0.380042 10.0212C-0.0741567 8.7814 -0.122584 7.42472 0.242014 6.15442C0.606612 4.88413 1.36461 3.7686 2.40246 2.97493C3.44032 2.18126 4.70216 1.75218 5.99898 1.75195V2.77267Z" fill="#00A7AC"/>
<path d="M6 4.26855V0.255084C6.00002 0.206596 6.01357 0.159117 6.03907 0.118207C6.06457 0.0772964 6.10096 0.0446479 6.14398 0.0240845C6.187 0.0035211 6.23487 -0.00410592 6.28198 0.00209649C6.32909 0.00829889 6.3735 0.028074 6.41 0.0591062L8.77 2.06584C8.89 2.16791 8.89 2.35572 8.77 2.4578L6.41 4.46453C6.3735 4.49556 6.32909 4.51534 6.28198 4.52154C6.23487 4.52774 6.187 4.52011 6.14398 4.49955C6.10096 4.47899 6.06457 4.44634 6.03907 4.40543C6.01357 4.36452 6.00002 4.31704 6 4.26855Z" fill="#00A7AC"/>
</g>
<defs>
<clipPath id="clip0_909_119">
<rect width="12" height="14" fill="white"/>
</clipPath>
</defs>
</svg>
