<svg width="30" height="40" viewBox="0 0 30 40" fill="none" xmlns="http://www.w3.org/2000/svg">
<path d="M29.999 37.6622C29.9942 37.4759 29.9822 37.4174 29.0528 32.858C29.0371 32.7825 29.0062 32.7107 28.9617 32.6467C28.9172 32.5827 28.86 32.5278 28.7934 32.4851C28.7268 32.4423 28.6522 32.4126 28.5736 32.3976C28.4951 32.3826 28.4143 32.3826 28.3357 32.3977C28.2572 32.4127 28.1825 32.4424 28.116 32.4852C28.0494 32.528 27.9923 32.5829 27.9478 32.6469C27.9033 32.7109 27.8724 32.7827 27.8568 32.8582C27.8412 32.9337 27.8412 33.0114 27.8569 33.0869C28.7444 37.4871 28.7901 37.3599 28.7799 37.7902C28.7634 38.452 28.4386 38.8277 27.4928 38.8277H24.4275C24.4267 38.8277 24.426 38.8274 24.4254 38.8269C24.4249 38.8264 24.4246 38.8257 24.4246 38.8249V32.4475C24.4246 32.1251 24.1661 31.8428 23.8309 31.8345C23.7495 31.8325 23.6685 31.8461 23.5927 31.8746C23.5169 31.9031 23.4478 31.9459 23.3895 32.0005C23.3312 32.0551 23.2848 32.1204 23.2532 32.1925C23.2215 32.2646 23.2052 32.3421 23.2052 32.4203V38.8248C23.2052 38.8264 23.2039 38.8277 23.2023 38.8277C16.0578 38.8277 16.3519 38.8308 16.3591 38.823C18.3065 36.7202 18.2637 36.8096 18.3909 36.6031C18.5969 36.2687 18.6527 35.8589 18.5335 35.4814C16.5872 29.3123 16.5744 29.2957 16.5801 29.2878C16.9284 28.8069 16.9459 28.7728 16.954 28.7744C17.5417 28.8895 18.1214 28.641 18.4127 28.2357C20.593 25.2195 20.5443 25.2751 20.5525 25.2777C24.9442 26.7687 24.6749 26.6784 24.7055 26.687C24.9774 26.7667 25.4425 26.8539 25.9878 27.2734V27.2734C27.067 28.1552 26.9758 28.9998 27.3013 30.4043C27.3329 30.5567 27.4261 30.6909 27.5606 30.7772C27.695 30.8635 27.8596 30.895 28.0182 30.8647C28.1768 30.8344 28.3163 30.7447 28.4061 30.6155C28.496 30.4863 28.5287 30.3281 28.4972 30.1756C28.2293 29.02 28.2043 28.3683 27.8262 27.6398C27.8259 27.6391 27.8253 27.6386 27.8245 27.6383C27.8238 27.6381 27.8229 27.6381 27.8222 27.6384L27.8177 27.6295C27.8291 27.6238 27.2389 26.4 25.8106 25.8091C25.8024 25.8058 20.6263 24.0625 20.6181 24.0598C19.0312 22.7668 18.9855 22.7362 18.9855 22.7283C18.9855 22.0539 18.9788 21.984 18.9869 21.9795C21.2691 20.7202 22.7306 18.5104 22.9945 16.1017C22.9946 16.101 22.9949 16.1004 22.9955 16.1C22.996 16.0995 22.9967 16.0993 22.9974 16.0993C24.8513 16.1802 26.1423 14.4767 25.3657 12.9855L25.3654 12.9848V8.20726C25.3654 4.7532 23.4116 3.55109 22.8138 3.26406C22.8135 3.2639 22.8132 3.26369 22.8129 3.26344C20.5991 0.723826 16.971 -0.373518 13.4937 0.112341C10.2722 0.562654 8.15604 2.49812 8.11979 2.52109C7.69089 2.8764 7.95659 3.55109 8.51804 3.55109C8.78544 3.55109 8.91451 3.41203 9.13582 3.22656C13.1327 0.0312474 19.1313 0.759217 21.9583 4.11C22.0267 4.19101 22.1101 4.25078 22.2118 4.28734C22.2908 4.31781 24.146 5.06828 24.146 8.20773V11.9024C24.146 11.9029 24.1459 11.9033 24.1457 11.9037C24.1455 11.9041 24.1452 11.9045 24.1448 11.9047C24.1444 11.905 24.144 11.9051 24.1435 11.9051C24.143 11.9052 24.1425 11.9051 24.1421 11.9049C23.8071 11.7691 23.4387 11.6986 23.0446 11.7088C23.0442 11.7088 23.0438 11.7088 23.0434 11.7087C23.0431 11.7085 23.0427 11.7083 23.0425 11.7081C23.0422 11.7078 23.042 11.7075 23.0418 11.7072C23.0417 11.7068 23.0416 11.7065 23.0416 11.7061V9.79203C23.0416 9.30578 22.6605 8.90383 22.1553 8.85695C21.1308 8.76195 20.5566 8.12031 20.2553 7.59875C19.8792 6.94758 18.9794 6.78859 18.388 7.27453C15.6695 9.5082 12.5392 9.62172 10.3921 9.32406C8.77081 9.09906 7.26322 10.1599 6.99964 11.7074C6.99647 11.7262 6.50662 11.6428 5.85974 11.9049C5.85931 11.9051 5.85884 11.9052 5.85837 11.9051C5.85791 11.9051 5.85745 11.905 5.85706 11.9047C5.85667 11.9045 5.85636 11.9041 5.85614 11.9037C5.85593 11.9033 5.85582 11.9029 5.85584 11.9024C5.85811 9.69773 5.66077 7.79875 7.19308 5.39164C7.36766 5.11734 7.30386 4.74804 7.02443 4.5714C6.95625 4.52824 6.87974 4.49867 6.79945 4.48446C6.71916 4.47025 6.63671 4.47168 6.55701 4.48867C6.4773 4.50566 6.40196 4.53787 6.33545 4.58337C6.26894 4.62888 6.21261 4.68677 6.16981 4.75359C5.1541 6.33914 4.65514 8.19976 4.64531 9.57797C4.63206 9.90469 4.63669 13.1956 4.6362 12.9859C3.85985 14.4766 5.14914 16.1809 7.00435 16.0998C7.00507 16.0998 7.00577 16.1001 7.00631 16.1005C7.00685 16.101 7.0072 16.1016 7.00728 16.1023C7.27492 18.5498 8.7891 20.7546 11.014 21.9795C11.0158 21.9805 11.0214 22.7781 11.0147 22.7832C8.23951 24.9239 10.5746 23.1227 9.33495 24.0788L4.93888 25.5667C4.88353 25.5931 3.05863 25.8946 2.17776 27.636L2.17369 27.6439C1.78454 28.3933 1.82355 28.6379 0.0429507 37.2324C0.0407443 37.2432 0.0388202 37.254 0.0371802 37.2648C-0.19527 38.8447 0.666259 40 2.50879 40H8.18326C8.51869 40 8.81234 39.7516 8.82096 39.4294C8.82311 39.3512 8.80894 39.2733 8.77927 39.2004C8.74962 39.1276 8.70507 39.0611 8.64827 39.0051C8.59147 38.949 8.52356 38.9045 8.44855 38.8741C8.37354 38.8436 8.29296 38.828 8.21155 38.828H6.79929C6.78669 38.828 6.79637 32.4366 6.79637 32.4477C6.79637 32.1254 6.53799 31.843 6.2028 31.8348C6.12142 31.8327 6.04042 31.8463 5.9646 31.8748C5.88878 31.9033 5.81966 31.9461 5.76134 32.0007C5.70301 32.0553 5.65665 32.1206 5.625 32.1927C5.59335 32.2648 5.57705 32.3423 5.57706 32.4205C5.57568 39.0964 5.58234 38.8279 5.57413 38.8279H2.50863C1.57436 38.8279 1.10141 38.4509 1.2421 37.4443V37.4441L3.01352 28.8923C3.08212 28.3874 3.43242 27.7243 4.00371 27.2816C4.60052 26.8183 5.09728 26.7566 5.3303 26.6766L9.39428 25.2984C9.40241 25.2956 11.474 28.1797 11.5358 28.2578C12.1387 29.0153 13.0087 28.7598 13.0157 28.7691C13.3579 29.2255 13.4119 29.2883 13.4095 29.2961L11.4576 35.4817C11.311 35.9464 11.4293 36.4598 11.7664 36.8216C13.6896 38.8895 13.6437 38.8279 13.6298 38.8279H11.0851C10.7496 38.8279 10.456 39.0763 10.4474 39.3985C10.4452 39.4767 10.4594 39.5546 10.4891 39.6275C10.5187 39.7003 10.5633 39.7668 10.6201 39.8228C10.6769 39.8789 10.7448 39.9234 10.8198 39.9538C10.8948 39.9843 10.9754 39.9999 11.0568 39.9999H27.4932C29.1514 39.9999 30.0343 39.0689 29.999 37.6622ZM23.0416 12.8814C23.7447 12.8457 24.374 13.3009 24.374 13.9048C24.374 14.5148 23.7381 14.9637 23.0416 14.9284V12.8814ZM6.9603 14.9284C6.25791 14.9642 5.62786 14.5096 5.62786 13.9049C5.62786 13.2951 6.26392 12.846 6.9603 12.8814V14.9284ZM17.251 35.4552C17.313 35.7259 17.456 35.8896 17.3165 36.0395L16.9209 36.464L13.4688 33.1458L13.7899 32.1283L17.251 35.4552ZM15.0583 22.9943C15.1116 22.9897 15.999 23.0102 17.0629 22.7381L17.0884 22.7313V22.7312L17.0981 22.7287V22.7288C17.1473 22.7138 17.4043 22.6527 17.7659 22.5249V22.7541L14.972 25.3684L12.2351 22.8166V22.5248C13.1979 22.8637 14.273 23.0134 15.0587 22.9943H15.0583ZM15.9503 28.1066L15.5919 28.6015H14.3929L14.0048 28.0839L14.971 27.06L15.9503 28.1066ZM16.5003 33.0759L14.1912 30.8564L14.533 29.7734H15.4581L16.5003 33.0759ZM19.4957 24.6823L17.4217 27.553C17.4007 27.5775 17.3743 27.5973 17.3445 27.6109C17.3146 27.6245 17.282 27.6316 17.2489 27.6317C17.1082 27.6281 17.1927 27.692 15.8183 26.2125L18.4041 23.7928L19.4957 24.6823ZM8.18928 15.6021C8.17628 15.3535 8.17953 15.5943 8.17953 12.173C8.17953 11.1277 9.14647 10.3348 10.2178 10.484C12.6145 10.8164 16.1146 10.6842 19.1801 8.16547L19.1891 8.16765C19.7778 9.18703 20.7071 9.83055 21.8222 9.99742C21.8267 15.6396 21.8663 15.8083 21.6576 16.7056C21.1734 18.5995 20.0557 20.0413 18.3778 20.9645C16.4948 21.9997 14.6334 21.8219 14.9188 21.822C13.7196 21.8104 12.8054 21.4762 12.8803 21.4991C10.2548 20.6705 8.33233 18.3652 8.18928 15.6021ZM12.8642 27.5495C12.766 27.6671 12.5955 27.6518 12.5103 27.5529L10.4595 24.7144L11.5864 23.8459L14.1251 26.2117C13.1523 27.243 12.8822 27.5279 12.8642 27.5495ZM14.9955 38.5298L12.6745 36.0394C12.5185 35.872 12.6776 35.7788 13.0675 34.4175L16.106 37.3382L14.9955 38.5298Z" fill="#00A7AC"/>
</svg>
