<svg width="26" height="26" viewBox="0 0 26 26" fill="none" xmlns="http://www.w3.org/2000/svg">
<path d="M25.5664 13.0129H18.6337C18.5245 13.0126 18.4193 13.0534 18.3389 13.1272C18.2586 13.2011 18.2091 13.3025 18.2004 13.4112C18.1099 14.6111 17.599 15.7408 16.7575 16.6017L13.4341 14.4025V11.606L14.4957 12.2294C14.8982 12.459 15.3537 12.5798 15.8173 12.5798C16.2808 12.5798 16.7363 12.459 17.1388 12.2294L18.872 11.2207C18.9367 11.1824 18.9902 11.1279 19.0274 11.0626C19.0646 10.9973 19.0842 10.9235 19.0842 10.8484C19.0842 10.7733 19.0646 10.6995 19.0274 10.6342C18.9902 10.5689 18.9367 10.5144 18.872 10.4761L17.1388 9.46745C16.7356 9.23984 16.2804 9.12023 15.8173 9.12023C15.3542 9.12023 14.8989 9.23984 14.4957 9.46745L13.4341 10.0908V8.14277L14.4957 8.76615C14.8982 8.99582 15.3537 9.11662 15.8173 9.11662C16.2808 9.11662 16.7363 8.99582 17.1388 8.76615L18.872 7.75749C18.9367 7.71916 18.9902 7.66468 19.0274 7.5994C19.0646 7.53413 19.0842 7.4603 19.0842 7.38519C19.0842 7.31008 19.0646 7.23625 19.0274 7.17098C18.9902 7.1057 18.9367 7.05122 18.872 7.01289L17.1388 6.00423C16.7356 5.77662 16.2804 5.65701 15.8173 5.65701C15.3542 5.65701 14.8989 5.77662 14.4957 6.00423L13.4341 6.62761V6.19471L14.3831 4.58431C14.6109 4.18148 14.7306 3.72665 14.7306 3.26396C14.7306 2.80127 14.6109 2.34644 14.3831 1.94361L13.3735 0.211995C13.3351 0.147396 13.2806 0.0938826 13.2153 0.0567138C13.1499 0.0195449 13.076 0 13.0008 0C12.9257 0 12.8518 0.0195449 12.7864 0.0567138C12.7211 0.0938826 12.6666 0.147396 12.6282 0.211995L11.6186 1.94361C11.3908 2.34644 11.2711 2.80127 11.2711 3.26396C11.2711 3.72665 11.3908 4.18148 11.6186 4.58431L12.5676 6.20337V6.63627L11.506 6.01289C11.1028 5.78528 10.6475 5.66566 10.1844 5.66566C9.72131 5.66566 9.26607 5.78528 8.86287 6.01289L7.12968 7.02155C7.06502 7.05988 7.01146 7.11436 6.97426 7.17964C6.93706 7.24491 6.91749 7.31873 6.91749 7.39385C6.91749 7.46896 6.93706 7.54279 6.97426 7.60806C7.01146 7.67333 7.06502 7.72781 7.12968 7.76614L8.86287 8.77481C9.26538 9.00448 9.72089 9.12528 10.1844 9.12528C10.648 9.12528 11.1035 9.00448 11.506 8.77481L12.5676 8.14277V10.0908L11.506 9.46745C11.1028 9.23984 10.6475 9.12023 10.1844 9.12023C9.72131 9.12023 9.26607 9.23984 8.86287 9.46745L7.12968 10.4761C7.06502 10.5144 7.01146 10.5689 6.97426 10.6342C6.93706 10.6995 6.91749 10.7733 6.91749 10.8484C6.91749 10.9235 6.93706 10.9973 6.97426 11.0626C7.01146 11.1279 7.06502 11.1824 7.12968 11.2207L8.86287 12.2294C9.26538 12.459 9.72089 12.5798 10.1844 12.5798C10.648 12.5798 11.1035 12.459 11.506 12.2294L12.5676 11.606V14.4025L9.2615 16.6017C8.42407 15.7402 7.91509 14.6129 7.82295 13.4155C7.81527 13.306 7.76624 13.2036 7.6858 13.1288C7.60536 13.0541 7.49951 13.0127 7.38966 13.0129H0.43525C0.320332 13.0129 0.210122 13.0585 0.128863 13.1397C0.0476039 13.2209 0.00195313 13.331 0.00195312 13.4458V15.6103C0.00195313 15.7252 0.0476039 15.8353 0.128863 15.9164C0.210122 15.9976 0.320332 16.0432 0.43525 16.0432H2.16844C2.40975 16.9131 2.75604 17.7504 3.19968 18.5368L1.98645 19.7446C1.94584 19.7848 1.9136 19.8327 1.89161 19.8854C1.86961 19.9382 1.85828 19.9948 1.85828 20.0519C1.85828 20.1091 1.86961 20.1657 1.89161 20.2184C1.9136 20.2712 1.94584 20.319 1.98645 20.3593L5.63481 24.0346C5.67509 24.0752 5.72301 24.1074 5.77581 24.1294C5.82861 24.1514 5.88525 24.1627 5.94245 24.1627C5.99965 24.1627 6.05628 24.1514 6.10908 24.1294C6.16188 24.1074 6.20981 24.0752 6.25009 24.0346L7.45899 22.8225C8.25096 23.2607 9.09343 23.6009 9.96777 23.8355V25.5671C9.96777 25.6819 10.0134 25.792 10.0947 25.8732C10.1759 25.9544 10.2862 26 10.4011 26H15.6006C15.7155 26 15.8258 25.9544 15.907 25.8732C15.9883 25.792 16.0339 25.6819 16.0339 25.5671V23.8355C16.9046 23.5944 17.7427 23.2484 18.5297 22.8052L19.7386 24.0173C19.7789 24.0579 19.8268 24.0901 19.8796 24.1121C19.9324 24.134 19.989 24.1454 20.0462 24.1454C20.1034 24.1454 20.1601 24.134 20.2129 24.1121C20.2657 24.0901 20.3136 24.0579 20.3539 24.0173L24.0326 20.3723C24.0732 20.332 24.1054 20.2841 24.1274 20.2314C24.1494 20.1786 24.1607 20.1221 24.1607 20.0649C24.1607 20.0078 24.1494 19.9512 24.1274 19.8984C24.1054 19.8457 24.0732 19.7978 24.0326 19.7575L22.8193 18.5497C23.258 17.7585 23.5984 16.9168 23.8333 16.0432H25.5664C25.6814 16.0432 25.7916 15.9976 25.8728 15.9164C25.9541 15.8353 25.9997 15.7252 25.9997 15.6103V13.4458C25.9997 13.331 25.9541 13.2209 25.8728 13.1397C25.7916 13.0585 25.6814 13.0129 25.5664 13.0129ZM16.0686 17.1948C15.1813 17.8526 14.1058 18.2078 13.0008 18.2078C11.8959 18.2078 10.8204 17.8526 9.93311 17.1948L13.0008 15.1515L16.0686 17.1948ZM14.9377 10.212C15.2062 10.0611 15.5092 9.9818 15.8173 9.9818C16.1254 9.9818 16.4283 10.0611 16.6969 10.212L17.7671 10.8484L16.6839 11.4848C16.4153 11.6357 16.1124 11.715 15.8043 11.715C15.4962 11.715 15.1932 11.6357 14.9247 11.4848L13.8674 10.8484L14.9377 10.212ZM14.9377 6.74882C15.2062 6.59788 15.5092 6.51858 15.8173 6.51858C16.1254 6.51858 16.4283 6.59788 16.6969 6.74882L17.7671 7.38519L16.6839 8.02156C16.4153 8.1725 16.1124 8.2518 15.8043 8.2518C15.4962 8.2518 15.1932 8.1725 14.9247 8.02156L13.8674 7.38519L14.9377 6.74882ZM12.3639 2.39382L13.0008 1.32455L13.6378 2.40681C13.7869 2.67576 13.8651 2.97816 13.8651 3.2856C13.8651 3.59305 13.7869 3.89544 13.6378 4.1644L13.0008 5.22068L12.3639 4.13842C12.2171 3.87107 12.1402 3.57105 12.1402 3.26612C12.1402 2.96119 12.2171 2.66118 12.3639 2.39382ZM11.064 8.02156C10.7955 8.1725 10.4925 8.2518 10.1844 8.2518C9.8763 8.2518 9.57337 8.1725 9.30483 8.02156L8.23459 7.38519L9.31783 6.74882C9.58637 6.59788 9.8893 6.51858 10.1974 6.51858C10.5055 6.51858 10.8085 6.59788 11.077 6.74882L12.1343 7.38519L11.064 8.02156ZM11.064 11.4848C10.7955 11.6357 10.4925 11.715 10.1844 11.715C9.8763 11.715 9.57337 11.6357 9.30483 11.4848L8.23459 10.8484L9.31783 10.212C9.58637 10.0611 9.8893 9.9818 10.1974 9.9818C10.5055 9.9818 10.8085 10.0611 11.077 10.212L12.1343 10.8484L11.064 11.4848ZM25.1332 15.1774H23.517C23.418 15.1746 23.321 15.2056 23.2422 15.2655C23.1633 15.3254 23.1074 15.4104 23.0837 15.5064C22.8338 16.5191 22.432 17.4882 21.8921 18.3809C21.8414 18.4641 21.8203 18.5618 21.8321 18.6584C21.8439 18.755 21.8879 18.8449 21.9571 18.9134L23.101 20.0519L20.0333 23.1169L18.9067 21.974C18.8381 21.9049 18.7482 21.8609 18.6515 21.8491C18.5548 21.8373 18.4569 21.8585 18.3737 21.9091C17.4802 22.4485 16.5102 22.8499 15.4966 23.0996C15.4005 23.1233 15.3154 23.1791 15.2555 23.2579C15.1956 23.3367 15.1644 23.4336 15.1673 23.5325V25.1342H10.8344V23.5195C10.8372 23.4206 10.8061 23.3237 10.7462 23.2449C10.6863 23.1662 10.6012 23.1103 10.5051 23.0866C9.49145 22.8369 8.52146 22.4355 7.62797 21.8961C7.54476 21.8455 7.44691 21.8244 7.35021 21.8361C7.25352 21.8479 7.16361 21.8919 7.09502 21.961L5.95545 23.1039L2.88771 20.0519L4.03161 18.9134C4.10078 18.8449 4.14481 18.755 4.1566 18.6584C4.16839 18.5618 4.14726 18.4641 4.0966 18.3809C3.55667 17.4882 3.15494 16.5191 2.90504 15.5064C2.88132 15.4104 2.82538 15.3254 2.74654 15.2655C2.6677 15.2056 2.57072 15.1746 2.47174 15.1774H0.868546V13.8787H6.99969C7.20898 15.3203 7.93094 16.6383 9.03339 17.5915C10.1358 18.5447 11.545 19.0694 13.003 19.0694C14.461 19.0694 15.8702 18.5447 16.9726 17.5915C18.0751 16.6383 18.797 15.3203 19.0063 13.8787H25.1332V15.1774ZM22.1001 3.6276L22.451 2.57564C22.7482 2.50087 23.0094 2.32359 23.1885 2.07512C23.3675 1.82665 23.453 1.52295 23.4297 1.21765C23.4065 0.912356 23.276 0.625089 23.0613 0.406569C22.8466 0.188049 22.5616 0.05233 22.2565 0.0233731C21.9514 -0.00558377 21.6459 0.0740836 21.3939 0.24831C21.1419 0.422537 20.9596 0.680117 20.8792 0.975577C20.7988 1.27104 20.8255 1.58537 20.9545 1.86309C21.0836 2.14081 21.3067 2.36405 21.5845 2.49339L21.3548 3.05616H18.2004V3.92197H21.6668C21.7613 3.9269 21.8548 3.90079 21.933 3.84763C22.0112 3.79448 22.0699 3.7172 22.1001 3.6276ZM22.1001 0.891652C22.1858 0.891652 22.2695 0.917041 22.3408 0.964609C22.4121 1.01218 22.4676 1.07979 22.5004 1.15889C22.5332 1.23799 22.5418 1.32503 22.525 1.40901C22.5083 1.49298 22.4671 1.57012 22.4065 1.63066C22.3459 1.69121 22.2687 1.73244 22.1846 1.74914C22.1006 1.76584 22.0134 1.75727 21.9343 1.7245C21.8551 1.69174 21.7874 1.63625 21.7398 1.56506C21.6922 1.49387 21.6668 1.41017 21.6668 1.32455C21.6668 1.20974 21.7124 1.09963 21.7937 1.01845C21.8749 0.937261 21.9852 0.891652 22.1001 0.891652ZM25.0292 6.1341L24.6999 5.08215C24.6697 4.99255 24.611 4.91527 24.5328 4.86211C24.4545 4.80896 24.361 4.78285 24.2666 4.78777H20.3669V5.65358H23.9546L24.1409 6.21635C23.8631 6.3457 23.64 6.56894 23.511 6.84665C23.382 7.12437 23.3553 7.43871 23.4357 7.73417C23.5161 8.02963 23.6984 8.28721 23.9504 8.46143C24.2024 8.63566 24.5079 8.71533 24.813 8.68637C25.1181 8.65741 25.4031 8.5217 25.6178 8.30318C25.8324 8.08466 25.9629 7.79739 25.9862 7.49209C26.0094 7.18679 25.924 6.8831 25.7449 6.63462C25.5659 6.38615 25.3047 6.20888 25.0075 6.1341H25.0292ZM24.6999 7.81809C24.6142 7.81809 24.5304 7.7927 24.4591 7.74514C24.3879 7.69757 24.3323 7.62996 24.2995 7.55085C24.2667 7.47175 24.2582 7.38471 24.2749 7.30073C24.2916 7.21676 24.3329 7.13962 24.3935 7.07908C24.4541 7.01854 24.5313 6.97731 24.6153 6.96061C24.6994 6.9439 24.7865 6.95247 24.8657 6.98524C24.9448 7.01801 25.0125 7.07349 25.0601 7.14468C25.1077 7.21587 25.1332 7.29957 25.1332 7.38519C25.1332 7.5 25.0875 7.61011 25.0062 7.6913C24.925 7.77248 24.8148 7.81809 24.6999 7.81809Z" fill="#00A7AC"/>
<path d="M15.6009 3.05619H17.3341V3.922H15.6009V3.05619ZM18.2007 4.7878H19.5006V5.65361H18.2007V4.7878ZM7.80155 3.05619H4.64715L4.46083 2.49342C4.7386 2.36407 4.9617 2.14084 5.09074 1.86312C5.21978 1.5854 5.24645 1.27106 5.16606 0.975605C5.08567 0.680146 4.90338 0.422565 4.65137 0.248338C4.39936 0.0741119 4.09385 -0.00555556 3.78876 0.0234013C3.48367 0.0523582 3.19864 0.188077 2.98397 0.406597C2.76931 0.625117 2.63883 0.912384 2.61556 1.21768C2.59229 1.52298 2.67773 1.82668 2.8568 2.07515C3.03588 2.32362 3.29706 2.5009 3.59424 2.57567L3.94521 3.62762C3.97301 3.7102 4.02511 3.78247 4.09468 3.83499C4.16426 3.88751 4.24807 3.91783 4.33518 3.922H7.80155V3.05619ZM3.90188 0.89168C3.98758 0.89168 4.07135 0.917069 4.14261 0.964637C4.21386 1.01221 4.2694 1.07982 4.30219 1.15892C4.33499 1.23802 4.34357 1.32506 4.32685 1.40904C4.31013 1.49301 4.26886 1.57015 4.20827 1.63069C4.14767 1.69123 4.07046 1.73246 3.98641 1.74917C3.90236 1.76587 3.81524 1.7573 3.73606 1.72453C3.65689 1.69177 3.58922 1.63628 3.54161 1.56509C3.49399 1.4939 3.46858 1.4102 3.46858 1.32458C3.46858 1.20977 3.51423 1.09966 3.59549 1.01847C3.67675 0.937289 3.78696 0.89168 3.90188 0.89168ZM1.3021 8.68392C1.59568 8.68221 1.88003 8.58125 2.10886 8.39749C2.33769 8.21373 2.49751 7.95799 2.56232 7.67191C2.62712 7.38583 2.59308 7.08625 2.46575 6.82196C2.33842 6.55767 2.12528 6.34422 1.86105 6.21638L2.04737 5.65361H5.63506V4.7878H1.7354C1.64091 4.78288 1.5474 4.80898 1.46916 4.86214C1.39092 4.91529 1.33225 4.99257 1.3021 5.08218L0.951129 6.13413C0.648205 6.21842 0.386133 6.40956 0.213476 6.67214C0.0408185 6.93471 -0.0307175 7.25092 0.0121233 7.56215C0.0549642 7.87339 0.209277 8.15856 0.446468 8.36483C0.683659 8.57109 0.987646 8.68446 1.3021 8.68392ZM1.3021 6.95231C1.3878 6.95231 1.47157 6.9777 1.54283 7.02527C1.61408 7.07284 1.66962 7.14045 1.70241 7.21955C1.73521 7.29866 1.74379 7.3857 1.72707 7.46967C1.71035 7.55365 1.66908 7.63078 1.60849 7.69133C1.54789 7.75187 1.47068 7.7931 1.38663 7.8098C1.30258 7.82651 1.21546 7.81793 1.13628 7.78517C1.05711 7.7524 0.989438 7.69692 0.941827 7.62573C0.894215 7.55453 0.868803 7.47084 0.868803 7.38522C0.868803 7.2704 0.914454 7.16029 0.995713 7.07911C1.07697 6.99792 1.18718 6.95231 1.3021 6.95231ZM8.66814 3.05619H10.4013V3.922H8.66814V3.05619ZM6.50166 4.7878H7.80155V5.65361H6.50166V4.7878Z" fill="#00A7AC"/>
</svg>
