<svg width="157" height="49" viewBox="0 0 157 49" fill="none" xmlns="http://www.w3.org/2000/svg">
<rect width="157" height="49" rx="5" fill="black"/>
<rect x="0.5" y="0.5" width="156" height="48" rx="4.5" stroke="#00AB62" stroke-opacity="0.2"/>
<path d="M55.334 27.34C55.4833 27.34 55.614 27.382 55.726 27.466C55.838 27.55 55.9173 27.662 55.964 27.802L58.89 37H57.098L54.886 29.552C54.8487 29.4027 54.8113 29.2533 54.774 29.104C54.7367 28.9547 54.704 28.81 54.676 28.67H54.284C54.256 28.81 54.2233 28.9547 54.186 29.104C54.1487 29.2533 54.1067 29.4027 54.06 29.552L51.862 37H50.07L52.996 27.802C53.0333 27.662 53.108 27.55 53.22 27.466C53.3413 27.382 53.4767 27.34 53.626 27.34H55.334ZM56.958 32.87V34.242H51.988V32.87H56.958ZM64.1771 29.958C65.0264 29.958 65.6377 30.2707 66.0111 30.896C66.3844 31.5213 66.5711 32.4267 66.5711 33.612C66.5711 34.5173 66.4731 35.2313 66.2771 35.754C66.0904 36.2673 65.8057 36.636 65.4231 36.86C65.0404 37.0747 64.5551 37.182 63.9671 37.182C63.5004 37.182 63.0431 37.1167 62.5951 36.986C62.1564 36.846 61.7504 36.6313 61.3771 36.342L61.4891 35.502C61.8531 35.6047 62.1797 35.6933 62.4691 35.768C62.7584 35.8427 63.0757 35.88 63.4211 35.88C63.7664 35.88 64.0371 35.824 64.2331 35.712C64.4384 35.5907 64.5877 35.3667 64.6811 35.04C64.7744 34.7133 64.8211 34.242 64.8211 33.626C64.8211 33.0193 64.7791 32.548 64.6951 32.212C64.6111 31.876 64.4711 31.6427 64.2751 31.512C64.0884 31.372 63.8411 31.302 63.5331 31.302C63.1971 31.302 62.8797 31.3767 62.5811 31.526C62.2824 31.666 61.9371 31.876 61.5451 32.156L61.3491 31.26C61.5637 31.008 61.8204 30.784 62.1191 30.588C62.4271 30.392 62.7584 30.238 63.1131 30.126C63.4677 30.014 63.8224 29.958 64.1771 29.958ZM61.2791 30.126L61.4471 31.456L61.6011 31.652V36.09L61.5311 36.258C61.5591 36.5287 61.5777 36.7993 61.5871 37.07C61.5964 37.35 61.6011 37.6347 61.6011 37.924V39.73H59.9071V30.126H61.2791ZM72.4622 29.958C73.3116 29.958 73.9229 30.2707 74.2962 30.896C74.6696 31.5213 74.8562 32.4267 74.8562 33.612C74.8562 34.5173 74.7582 35.2313 74.5622 35.754C74.3756 36.2673 74.0909 36.636 73.7082 36.86C73.3256 37.0747 72.8402 37.182 72.2522 37.182C71.7856 37.182 71.3282 37.1167 70.8802 36.986C70.4416 36.846 70.0356 36.6313 69.6622 36.342L69.7742 35.502C70.1382 35.6047 70.4649 35.6933 70.7542 35.768C71.0436 35.8427 71.3609 35.88 71.7062 35.88C72.0516 35.88 72.3222 35.824 72.5182 35.712C72.7236 35.5907 72.8729 35.3667 72.9662 35.04C73.0596 34.7133 73.1062 34.242 73.1062 33.626C73.1062 33.0193 73.0642 32.548 72.9802 32.212C72.8962 31.876 72.7562 31.6427 72.5602 31.512C72.3736 31.372 72.1262 31.302 71.8182 31.302C71.4822 31.302 71.1649 31.3767 70.8662 31.526C70.5676 31.666 70.2222 31.876 69.8302 32.156L69.6342 31.26C69.8489 31.008 70.1056 30.784 70.4042 30.588C70.7122 30.392 71.0436 30.238 71.3982 30.126C71.7529 30.014 72.1076 29.958 72.4622 29.958ZM69.5642 30.126L69.7322 31.456L69.8862 31.652V36.09L69.8162 36.258C69.8442 36.5287 69.8629 36.7993 69.8722 37.07C69.8816 37.35 69.8862 37.6347 69.8862 37.924V39.73H68.1922V30.126H69.5642ZM82.6339 27.158C83.1099 27.1673 83.6092 27.1953 84.1319 27.242C84.6639 27.2887 85.1819 27.3773 85.6859 27.508L85.5739 28.698C85.1726 28.6887 84.7059 28.6793 84.1739 28.67C83.6512 28.6513 83.1472 28.642 82.6619 28.642C82.3632 28.642 82.1066 28.6513 81.8919 28.67C81.6866 28.6887 81.5186 28.7353 81.3879 28.81C81.2572 28.8847 81.1592 29.0013 81.0939 29.16C81.0379 29.3093 81.0099 29.5193 81.0099 29.79C81.0099 30.21 81.0939 30.5087 81.2619 30.686C81.4392 30.8633 81.7239 31.0033 82.1159 31.106L84.0199 31.666C84.7852 31.8993 85.3126 32.24 85.6019 32.688C85.8912 33.1267 86.0359 33.7147 86.0359 34.452C86.0359 35.0027 85.9706 35.4553 85.8399 35.81C85.7092 36.1647 85.5086 36.44 85.2379 36.636C84.9672 36.832 84.6126 36.972 84.1739 37.056C83.7352 37.14 83.2079 37.182 82.5919 37.182C82.2746 37.182 81.8359 37.1633 81.2759 37.126C80.7252 37.0887 80.0952 36.9953 79.3859 36.846L79.4979 35.586C80.0486 35.6047 80.5106 35.6233 80.8839 35.642C81.2572 35.6513 81.5792 35.656 81.8499 35.656C82.1206 35.656 82.3726 35.656 82.6059 35.656C83.0352 35.656 83.3712 35.628 83.6139 35.572C83.8566 35.516 84.0246 35.3993 84.1179 35.222C84.2206 35.0447 84.2719 34.788 84.2719 34.452C84.2719 34.1627 84.2346 33.9387 84.1599 33.78C84.0946 33.612 83.9826 33.4813 83.8239 33.388C83.6652 33.2947 83.4599 33.2153 83.2079 33.15L81.2339 32.548C80.5059 32.324 79.9926 31.9927 79.6939 31.554C79.4046 31.1153 79.2599 30.5273 79.2599 29.79C79.2599 29.2393 79.3252 28.7913 79.4559 28.446C79.5866 28.0913 79.7872 27.8253 80.0579 27.648C80.3286 27.4613 80.6739 27.3353 81.0939 27.27C81.5232 27.1953 82.0366 27.158 82.6339 27.158ZM89.8059 28.166V34.928C89.8059 35.2173 89.8666 35.4227 89.9879 35.544C90.1186 35.6653 90.3379 35.726 90.6459 35.726H91.5979L91.7799 36.916C91.6213 36.9627 91.4299 37.0047 91.2059 37.042C90.9819 37.0793 90.7626 37.1027 90.5479 37.112C90.3333 37.1307 90.1513 37.14 90.0019 37.14C89.4046 37.14 88.9379 36.9813 88.6019 36.664C88.2753 36.3373 88.1119 35.8707 88.1119 35.264V28.166H89.8059ZM91.8499 30.126V31.302H86.8939V30.196L88.2379 30.126H91.8499ZM96.2104 29.958C97.0504 29.958 97.7177 30.0747 98.2124 30.308C98.7164 30.5413 99.0757 30.924 99.2904 31.456C99.5144 31.988 99.6264 32.6927 99.6264 33.57C99.6264 34.4473 99.5144 35.152 99.2904 35.684C99.0757 36.2067 98.7164 36.5893 98.2124 36.832C97.7177 37.0653 97.0504 37.182 96.2104 37.182C95.3891 37.182 94.7264 37.0653 94.2224 36.832C93.7277 36.5893 93.3684 36.2067 93.1444 35.684C92.9204 35.152 92.8084 34.4473 92.8084 33.57C92.8084 32.6927 92.9204 31.988 93.1444 31.456C93.3684 30.924 93.7277 30.5413 94.2224 30.308C94.7264 30.0747 95.3891 29.958 96.2104 29.958ZM96.2104 31.246C95.7997 31.246 95.4731 31.316 95.2304 31.456C94.9971 31.5867 94.8291 31.82 94.7264 32.156C94.6237 32.492 94.5724 32.9633 94.5724 33.57C94.5724 34.1767 94.6237 34.648 94.7264 34.984C94.8291 35.32 94.9971 35.5533 95.2304 35.684C95.4731 35.8147 95.7997 35.88 96.2104 35.88C96.6304 35.88 96.9617 35.8147 97.2044 35.684C97.4471 35.5533 97.6151 35.32 97.7084 34.984C97.8111 34.648 97.8624 34.1767 97.8624 33.57C97.8624 32.9633 97.8111 32.492 97.7084 32.156C97.6151 31.82 97.4471 31.5867 97.2044 31.456C96.9617 31.316 96.6304 31.246 96.2104 31.246ZM102.539 30.126L102.763 31.47L102.917 31.666V37H101.223V30.126H102.539ZM105.899 29.958L105.731 31.526H105.241C104.877 31.526 104.509 31.5867 104.135 31.708C103.762 31.8293 103.295 32.0113 102.735 32.254L102.623 31.26C103.109 30.8493 103.603 30.532 104.107 30.308C104.611 30.0747 105.097 29.958 105.563 29.958H105.899ZM109.977 29.958C111.088 29.958 111.886 30.154 112.371 30.546C112.856 30.9287 113.104 31.498 113.113 32.254C113.122 32.8793 112.973 33.3553 112.665 33.682C112.366 33.9993 111.867 34.158 111.167 34.158H107.247V33.108H110.705C111.022 33.108 111.223 33.024 111.307 32.856C111.4 32.688 111.447 32.4827 111.447 32.24C111.438 31.8573 111.326 31.5913 111.111 31.442C110.906 31.2927 110.551 31.218 110.047 31.218C109.608 31.218 109.268 31.2787 109.025 31.4C108.782 31.5213 108.61 31.7407 108.507 32.058C108.414 32.3753 108.367 32.8327 108.367 33.43C108.367 34.0647 108.428 34.5547 108.549 34.9C108.67 35.2453 108.871 35.4833 109.151 35.614C109.431 35.7353 109.804 35.796 110.271 35.796C110.616 35.796 111.013 35.782 111.461 35.754C111.918 35.726 112.357 35.6887 112.777 35.642L112.945 36.72C112.693 36.8227 112.404 36.9067 112.077 36.972C111.75 37.0373 111.41 37.084 111.055 37.112C110.71 37.1493 110.383 37.168 110.075 37.168C109.235 37.168 108.558 37.0467 108.045 36.804C107.541 36.552 107.172 36.16 106.939 35.628C106.715 35.096 106.603 34.41 106.603 33.57C106.603 32.6647 106.715 31.9507 106.939 31.428C107.172 30.896 107.536 30.518 108.031 30.294C108.535 30.07 109.184 29.958 109.977 29.958Z" fill="white"/>
<path d="M53.31 11.4C54.3433 11.4 55.1467 11.6867 55.72 12.26C56.3 12.8267 56.59 13.64 56.59 14.7C56.59 15.76 56.3 16.5767 55.72 17.15C55.1467 17.7167 54.3433 18 53.31 18H50.98V11.4H53.31ZM53.31 17.09C54.01 17.09 54.5433 16.8833 54.91 16.47C55.2833 16.05 55.47 15.46 55.47 14.7C55.47 13.94 55.2833 13.3533 54.91 12.94C54.5433 12.52 54.01 12.31 53.31 12.31H52.05V17.09H53.31ZM60.1973 12.9C60.6839 12.9 61.1139 13.0033 61.4873 13.21C61.8606 13.4167 62.1506 13.7167 62.3573 14.11C62.5706 14.4967 62.6773 14.96 62.6773 15.5C62.6773 16.04 62.5706 16.5067 62.3573 16.9C62.1506 17.2867 61.8606 17.5833 61.4873 17.79C61.1139 17.9967 60.6839 18.1 60.1973 18.1C59.7106 18.1 59.2806 17.9967 58.9073 17.79C58.5339 17.5833 58.2406 17.2867 58.0273 16.9C57.8139 16.5067 57.7073 16.04 57.7073 15.5C57.7073 14.96 57.8139 14.4967 58.0273 14.11C58.2406 13.7167 58.5339 13.4167 58.9073 13.21C59.2806 13.0033 59.7106 12.9 60.1973 12.9ZM60.1973 13.74C59.8973 13.74 59.6406 13.81 59.4273 13.95C59.2206 14.0833 59.0606 14.28 58.9473 14.54C58.8339 14.8 58.7773 15.12 58.7773 15.5C58.7773 15.8733 58.8339 16.1933 58.9473 16.46C59.0606 16.72 59.2206 16.92 59.4273 17.06C59.6406 17.1933 59.8973 17.26 60.1973 17.26C60.4973 17.26 60.7506 17.1933 60.9573 17.06C61.1639 16.92 61.3239 16.72 61.4373 16.46C61.5506 16.1933 61.6073 15.8733 61.6073 15.5C61.6073 15.12 61.5506 14.8 61.4373 14.54C61.3239 14.28 61.1639 14.0833 60.9573 13.95C60.7506 13.81 60.4973 13.74 60.1973 13.74ZM70.2369 13H71.3969L69.7169 18H68.5469L67.2869 14.29L66.0969 18H64.9269L63.2569 13H64.4069L65.5469 16.95L66.7869 13H67.8569L69.0969 16.95L70.2369 13ZM72.4316 18V13H73.3816L73.4516 14.3L73.3116 14.16C73.4049 13.8733 73.5382 13.6367 73.7116 13.45C73.8916 13.2567 74.1016 13.1167 74.3416 13.03C74.5882 12.9433 74.8482 12.9 75.1216 12.9C75.4749 12.9 75.7916 12.97 76.0716 13.11C76.3582 13.2433 76.5849 13.4467 76.7516 13.72C76.9182 13.9933 77.0016 14.34 77.0016 14.76V18H75.9316V15.09C75.9316 14.5967 75.8282 14.2567 75.6216 14.07C75.4216 13.8767 75.1682 13.78 74.8616 13.78C74.6416 13.78 74.4282 13.8333 74.2216 13.94C74.0149 14.04 73.8416 14.2033 73.7016 14.43C73.5682 14.6567 73.5016 14.96 73.5016 15.34V18H72.4316ZM79.663 10.75V16.6C79.663 16.8467 79.7063 17.0167 79.793 17.11C79.8796 17.2033 80.023 17.25 80.223 17.25C80.343 17.25 80.443 17.2433 80.523 17.23C80.6096 17.21 80.7163 17.1767 80.843 17.13L80.723 17.93C80.6096 17.9833 80.4796 18.0233 80.333 18.05C80.1863 18.0833 80.0396 18.1 79.893 18.1C79.4463 18.1 79.1163 17.9867 78.903 17.76C78.6963 17.5267 78.593 17.17 78.593 16.69V10.75H79.663ZM83.9082 12.9C84.3949 12.9 84.8249 13.0033 85.1982 13.21C85.5715 13.4167 85.8615 13.7167 86.0682 14.11C86.2815 14.4967 86.3882 14.96 86.3882 15.5C86.3882 16.04 86.2815 16.5067 86.0682 16.9C85.8615 17.2867 85.5715 17.5833 85.1982 17.79C84.8249 17.9967 84.3949 18.1 83.9082 18.1C83.4215 18.1 82.9915 17.9967 82.6182 17.79C82.2449 17.5833 81.9515 17.2867 81.7382 16.9C81.5249 16.5067 81.4182 16.04 81.4182 15.5C81.4182 14.96 81.5249 14.4967 81.7382 14.11C81.9515 13.7167 82.2449 13.4167 82.6182 13.21C82.9915 13.0033 83.4215 12.9 83.9082 12.9ZM83.9082 13.74C83.6082 13.74 83.3515 13.81 83.1382 13.95C82.9315 14.0833 82.7715 14.28 82.6582 14.54C82.5449 14.8 82.4882 15.12 82.4882 15.5C82.4882 15.8733 82.5449 16.1933 82.6582 16.46C82.7715 16.72 82.9315 16.92 83.1382 17.06C83.3515 17.1933 83.6082 17.26 83.9082 17.26C84.2082 17.26 84.4615 17.1933 84.6682 17.06C84.8749 16.92 85.0349 16.72 85.1482 16.46C85.2615 16.1933 85.3182 15.8733 85.3182 15.5C85.3182 15.12 85.2615 14.8 85.1482 14.54C85.0349 14.28 84.8749 14.0833 84.6682 13.95C84.4615 13.81 84.2082 13.74 83.9082 13.74ZM90.6145 14.79C90.6145 14.4567 90.5212 14.2 90.3345 14.02C90.1545 13.8333 89.9045 13.74 89.5845 13.74C89.2845 13.74 89.0279 13.81 88.8145 13.95C88.6012 14.09 88.4445 14.3167 88.3445 14.63L87.4445 14.25C87.5712 13.8433 87.8179 13.5167 88.1845 13.27C88.5579 13.0233 89.0379 12.9 89.6245 12.9C90.0245 12.9 90.3779 12.9667 90.6845 13.1C90.9912 13.2267 91.2312 13.42 91.4045 13.68C91.5845 13.94 91.6745 14.2733 91.6745 14.68V16.91C91.6745 17.1567 91.7979 17.28 92.0445 17.28C92.1645 17.28 92.2812 17.2633 92.3945 17.23L92.3345 17.97C92.1812 18.0433 91.9879 18.08 91.7545 18.08C91.5412 18.08 91.3479 18.0433 91.1745 17.97C91.0079 17.89 90.8745 17.7733 90.7745 17.62C90.6812 17.46 90.6345 17.2633 90.6345 17.03V16.96L90.8545 16.95C90.7945 17.21 90.6712 17.4267 90.4845 17.6C90.2979 17.7667 90.0812 17.8933 89.8345 17.98C89.5879 18.06 89.3379 18.1 89.0845 18.1C88.7712 18.1 88.4879 18.05 88.2345 17.95C87.9879 17.85 87.7912 17.7 87.6445 17.5C87.5045 17.2933 87.4345 17.04 87.4345 16.74C87.4345 16.3667 87.5545 16.06 87.7945 15.82C88.0412 15.58 88.3879 15.4167 88.8345 15.33L90.7745 14.95L90.7645 15.7L89.3545 15.99C89.0745 16.0433 88.8645 16.12 88.7245 16.22C88.5845 16.32 88.5145 16.4667 88.5145 16.66C88.5145 16.8467 88.5845 16.9967 88.7245 17.11C88.8712 17.2167 89.0645 17.27 89.3045 17.27C89.4712 17.27 89.6312 17.25 89.7845 17.21C89.9445 17.17 90.0879 17.1067 90.2145 17.02C90.3412 16.9267 90.4379 16.81 90.5045 16.67C90.5779 16.5233 90.6145 16.35 90.6145 16.15V14.79ZM95.3379 18.1C94.9246 18.1 94.5479 17.9967 94.2079 17.79C93.8746 17.5833 93.6112 17.2867 93.4179 16.9C93.2246 16.5133 93.1279 16.05 93.1279 15.51C93.1279 14.95 93.2312 14.4767 93.4379 14.09C93.6446 13.7033 93.9212 13.41 94.2679 13.21C94.6146 13.0033 94.9946 12.9 95.4079 12.9C95.8346 12.9 96.1946 13.0167 96.4879 13.25C96.7812 13.4833 96.9779 13.7867 97.0779 14.16L96.9579 14.27V10.75H98.0279V18H97.0779L96.9979 16.64L97.1379 16.65C97.0912 16.95 96.9812 17.21 96.8079 17.43C96.6346 17.6433 96.4179 17.81 96.1579 17.93C95.9046 18.0433 95.6312 18.1 95.3379 18.1ZM95.5679 17.24C95.8546 17.24 96.1012 17.1667 96.3079 17.02C96.5146 16.8733 96.6746 16.6667 96.7879 16.4C96.9012 16.1333 96.9579 15.8133 96.9579 15.44C96.9579 15.0933 96.9012 14.7967 96.7879 14.55C96.6746 14.2967 96.5146 14.1033 96.3079 13.97C96.1079 13.8367 95.8746 13.77 95.6079 13.77C95.1612 13.77 94.8146 13.9233 94.5679 14.23C94.3212 14.5367 94.1979 14.96 94.1979 15.5C94.1979 16.04 94.3179 16.4667 94.5579 16.78C94.7979 17.0867 95.1346 17.24 95.5679 17.24ZM105.109 12.9C105.596 12.9 106.026 13.0033 106.399 13.21C106.773 13.4167 107.063 13.7167 107.269 14.11C107.483 14.4967 107.589 14.96 107.589 15.5C107.589 16.04 107.483 16.5067 107.269 16.9C107.063 17.2867 106.773 17.5833 106.399 17.79C106.026 17.9967 105.596 18.1 105.109 18.1C104.623 18.1 104.193 17.9967 103.819 17.79C103.446 17.5833 103.153 17.2867 102.939 16.9C102.726 16.5067 102.619 16.04 102.619 15.5C102.619 14.96 102.726 14.4967 102.939 14.11C103.153 13.7167 103.446 13.4167 103.819 13.21C104.193 13.0033 104.623 12.9 105.109 12.9ZM105.109 13.74C104.809 13.74 104.553 13.81 104.339 13.95C104.133 14.0833 103.973 14.28 103.859 14.54C103.746 14.8 103.689 15.12 103.689 15.5C103.689 15.8733 103.746 16.1933 103.859 16.46C103.973 16.72 104.133 16.92 104.339 17.06C104.553 17.1933 104.809 17.26 105.109 17.26C105.409 17.26 105.663 17.1933 105.869 17.06C106.076 16.92 106.236 16.72 106.349 16.46C106.463 16.1933 106.519 15.8733 106.519 15.5C106.519 15.12 106.463 14.8 106.349 14.54C106.236 14.28 106.076 14.0833 105.869 13.95C105.663 13.81 105.409 13.74 105.109 13.74ZM108.935 18V13H109.885L109.955 14.3L109.815 14.16C109.909 13.8733 110.042 13.6367 110.215 13.45C110.395 13.2567 110.605 13.1167 110.845 13.03C111.092 12.9433 111.352 12.9 111.625 12.9C111.979 12.9 112.295 12.97 112.575 13.11C112.862 13.2433 113.089 13.4467 113.255 13.72C113.422 13.9933 113.505 14.34 113.505 14.76V18H112.435V15.09C112.435 14.5967 112.332 14.2567 112.125 14.07C111.925 13.8767 111.672 13.78 111.365 13.78C111.145 13.78 110.932 13.8333 110.725 13.94C110.519 14.04 110.345 14.2033 110.205 14.43C110.072 14.6567 110.005 14.96 110.005 15.34V18H108.935ZM119.683 11.53V16.5C119.683 16.7467 119.746 16.9267 119.873 17.04C120.006 17.1533 120.183 17.21 120.403 17.21C120.583 17.21 120.739 17.1833 120.873 17.13C121.006 17.07 121.129 16.99 121.243 16.89L121.483 17.67C121.329 17.8033 121.139 17.91 120.913 17.99C120.693 18.0633 120.446 18.1 120.173 18.1C119.886 18.1 119.623 18.0533 119.383 17.96C119.143 17.8667 118.956 17.7167 118.823 17.51C118.689 17.2967 118.619 17.02 118.613 16.68V11.83L119.683 11.53ZM121.403 13V13.84H117.653V13H121.403ZM122.5 18V10.75H123.57V13.8C123.737 13.4867 123.96 13.26 124.24 13.12C124.527 12.9733 124.843 12.9 125.19 12.9C125.543 12.9 125.86 12.97 126.14 13.11C126.427 13.2433 126.653 13.4467 126.82 13.72C126.987 13.9933 127.07 14.34 127.07 14.76V18H126V15.1C126 14.6067 125.897 14.2633 125.69 14.07C125.49 13.8767 125.237 13.78 124.93 13.78C124.717 13.78 124.503 13.8333 124.29 13.94C124.083 14.04 123.91 14.2067 123.77 14.44C123.637 14.6667 123.57 14.9733 123.57 15.36V18H122.5ZM130.891 18.1C130.391 18.1 129.951 17.9967 129.571 17.79C129.191 17.5833 128.895 17.2867 128.681 16.9C128.475 16.5067 128.371 16.04 128.371 15.5C128.371 14.96 128.475 14.4967 128.681 14.11C128.895 13.7167 129.188 13.4167 129.561 13.21C129.935 13.0033 130.358 12.9 130.831 12.9C131.318 12.9 131.731 13 132.071 13.2C132.411 13.4 132.671 13.6733 132.851 14.02C133.031 14.3667 133.121 14.76 133.121 15.2C133.121 15.32 133.118 15.4333 133.111 15.54C133.105 15.6467 133.095 15.74 133.081 15.82H129.061V15H132.611L132.081 15.16C132.081 14.7067 131.968 14.36 131.741 14.12C131.515 13.8733 131.205 13.75 130.811 13.75C130.525 13.75 130.275 13.8167 130.061 13.95C129.848 14.0833 129.685 14.2833 129.571 14.55C129.458 14.81 129.401 15.13 129.401 15.51C129.401 15.8833 129.461 16.2 129.581 16.46C129.701 16.72 129.871 16.9167 130.091 17.05C130.311 17.1833 130.571 17.25 130.871 17.25C131.205 17.25 131.475 17.1867 131.681 17.06C131.888 16.9333 132.051 16.7567 132.171 16.53L133.021 16.93C132.901 17.17 132.738 17.38 132.531 17.56C132.331 17.7333 132.091 17.8667 131.811 17.96C131.531 18.0533 131.225 18.1 130.891 18.1Z" fill="white"/>
<path d="M31.0351 15.1755C32.647 13.0106 34.8879 13 34.8879 13C34.8879 13 35.2212 15.0354 33.6199 16.9961C31.91 19.0897 29.9666 18.7472 29.9666 18.7472C29.9666 18.7472 29.6016 17.1006 31.0351 15.1755ZM30.1716 20.1729C31.0008 20.1729 32.5399 19.0114 34.5432 19.0114C37.9915 19.0114 39.348 21.5117 39.348 21.5117C39.348 21.5117 36.6948 22.894 36.6948 26.2481C36.6948 30.0318 40 31.3357 40 31.3357C40 31.3357 37.6896 37.9623 34.5688 37.9623C33.1355 37.9623 32.0212 36.978 30.5109 36.978C28.9719 36.978 27.4446 37.999 26.4499 37.999C23.6002 37.9991 20 31.7131 20 26.6602C20 21.6889 23.0473 19.081 25.9056 19.081C27.7637 19.081 29.2056 20.1729 30.1716 20.1729Z" fill="white"/>
</svg>
