<svg width="26" height="26" viewBox="0 0 26 26" fill="none" xmlns="http://www.w3.org/2000/svg">
<path d="M22.9667 2.6C22.2379 2.60085 21.5337 2.86408 20.9831 3.34151C20.4325 3.81895 20.0721 4.47867 19.968 5.2H14.7333V6.06667H19.9333V22.9667C19.9333 23.0816 19.979 23.1918 20.0603 23.2731C20.1415 23.3543 20.2517 23.4 20.3667 23.4C20.4816 23.4 20.5918 23.3543 20.6731 23.2731C20.7543 23.1918 20.8 23.0816 20.8 22.9667C20.8 22.392 21.0283 21.8409 21.4346 21.4346C21.8409 21.0283 22.392 20.8 22.9667 20.8C23.5413 20.8 24.0924 21.0283 24.4987 21.4346C24.9051 21.8409 25.1333 22.392 25.1333 22.9667V23.0577C25.1322 23.6078 24.9131 24.1351 24.5241 24.5241C24.1351 24.9131 23.6078 25.1322 23.0577 25.1333H0.866667V16.1707C1.8517 18.0816 3.3424 19.6855 5.17628 20.8074C7.01015 21.9293 9.11683 22.5264 11.2667 22.5333C11.3816 22.5333 11.4918 22.4877 11.5731 22.4064C11.6543 22.3251 11.7 22.2149 11.7 22.1C11.7 21.9851 11.6543 21.8749 11.5731 21.7936C11.4918 21.7123 11.3816 21.6667 11.2667 21.6667C9.64046 21.6635 8.03611 21.292 6.5741 20.5799L6.8432 19.5763C7.11115 19.5596 7.36691 19.4584 7.5736 19.287C7.78029 19.1157 7.92724 18.8832 7.99327 18.6229L9.4198 13.3033C9.74371 13.3632 10.0711 13.4025 10.4 13.4208V13.8667C10.4 13.9816 10.4457 14.0918 10.5269 14.1731C10.6082 14.2543 10.7184 14.3 10.8333 14.3C10.9483 14.3 11.0585 14.2543 11.1397 14.1731C11.221 14.0918 11.2667 13.9816 11.2667 13.8667V13.4208C11.5955 13.4028 11.9229 13.3638 12.2469 13.3042L13.673 18.6216C13.7388 18.8821 13.8857 19.1148 14.0925 19.2862C14.2994 19.4575 14.5554 19.5587 14.8235 19.575L15.1814 20.9114C15.2059 21.0037 15.2603 21.0853 15.336 21.1435C15.4117 21.2017 15.5045 21.2333 15.6 21.2333C15.6379 21.2333 15.6756 21.2283 15.7122 21.2186C15.7672 21.2039 15.8187 21.1784 15.8639 21.1438C15.909 21.1091 15.9469 21.0659 15.9754 21.0166C16.0038 20.9674 16.0223 20.9129 16.0297 20.8565C16.0371 20.8001 16.0333 20.7427 16.0186 20.6878L15.6611 19.3544C15.881 19.2024 16.0488 18.9864 16.1418 18.7358C16.2348 18.4852 16.2485 18.2121 16.1811 17.9534L13.3376 7.34197C13.789 6.68275 13.9613 5.87172 13.8169 5.08591C13.6724 4.3001 13.223 3.60335 12.5667 3.14773V1.73333C12.5667 1.27362 12.384 0.832745 12.059 0.507682C11.7339 0.182619 11.293 0 10.8333 0C10.3736 0 9.93274 0.182619 9.60768 0.507682C9.28262 0.832745 9.1 1.27362 9.1 1.73333V3.14773C8.44367 3.60335 7.99424 4.3001 7.84981 5.08591C7.70538 5.87172 7.87768 6.68275 8.3291 7.34197L5.48297 17.9552C5.41577 18.2138 5.42989 18.4868 5.5234 18.7371C5.61691 18.9874 5.78527 19.2028 6.00557 19.354L5.7889 20.16C3.40299 18.764 1.64179 16.5079 0.866667 13.8545V6.06667H6.93333V5.2H0V26H23.0577C23.838 25.9989 24.586 25.6883 25.1376 25.1363C25.6892 24.5844 25.9993 23.8362 26 23.0559V5.63333C25.9991 4.82912 25.6792 4.05812 25.1105 3.48946C24.5419 2.92079 23.7709 2.60092 22.9667 2.6ZM11.2667 12.5407V12.1333C11.2667 12.0184 11.221 11.9082 11.1397 11.8269C11.0585 11.7457 10.9483 11.7 10.8333 11.7C10.7184 11.7 10.6082 11.7457 10.5269 11.8269C10.4457 11.9082 10.4 12.0184 10.4 12.1333V12.5407C10.148 12.5256 9.897 12.4966 9.64817 12.454L10.6656 8.65887C10.7215 8.6619 10.7766 8.66753 10.8333 8.66753C10.8901 8.66753 10.9451 8.6619 11.001 8.65887L12.0185 12.454C11.7697 12.4966 11.5187 12.5256 11.2667 12.5407ZM15.3456 18.1762C15.3745 18.2867 15.3589 18.4042 15.3022 18.5034C15.2455 18.6026 15.1522 18.6757 15.0423 18.707H15.0397C14.9292 18.7363 14.8116 18.7207 14.7125 18.6637C14.6635 18.6352 14.6207 18.5972 14.5865 18.552C14.5524 18.5067 14.5276 18.4551 14.5136 18.4002L11.8521 8.48683C12.1323 8.38644 12.3962 8.24524 12.6351 8.0678L15.3456 18.1762ZM9.96667 1.73333C9.96667 1.50348 10.058 1.28304 10.2205 1.12051C10.383 0.957976 10.6035 0.866667 10.8333 0.866667C11.0632 0.866667 11.2836 0.957976 11.4462 1.12051C11.6087 1.28304 11.7 1.50348 11.7 1.73333V2.73C11.1348 2.55955 10.5319 2.55955 9.96667 2.73V1.73333ZM10.8333 3.46667C11.2619 3.46667 11.6808 3.59374 12.0371 3.83182C12.3934 4.06989 12.6711 4.40828 12.8351 4.80419C12.9991 5.20009 13.042 5.63574 12.9584 6.05603C12.8748 6.47632 12.6684 6.86238 12.3654 7.1654C12.0624 7.46841 11.6763 7.67477 11.256 7.75837C10.8357 7.84197 10.4001 7.79906 10.0042 7.63507C9.60828 7.47108 9.26989 7.19338 9.03182 6.83707C8.79374 6.48076 8.66667 6.06186 8.66667 5.63333C8.66735 5.05891 8.89585 4.50821 9.30203 4.10203C9.70821 3.69585 10.2589 3.46735 10.8333 3.46667ZM6.3206 18.1779L9.03153 8.0678C9.2705 8.24524 9.53436 8.38644 9.81457 8.48683L7.15563 18.4024C7.12591 18.512 7.0543 18.6056 6.95623 18.663C6.85816 18.7204 6.74147 18.737 6.6313 18.7092H6.6274C6.51677 18.6786 6.42258 18.6058 6.36519 18.5064C6.30779 18.407 6.29177 18.289 6.3206 18.1779ZM25.1333 20.8455C24.8512 20.5568 24.5142 20.3273 24.1421 20.1707C23.77 20.0141 23.3704 19.9334 22.9667 19.9334C22.563 19.9334 22.1633 20.0141 21.7913 20.1707C21.4192 20.3273 21.0822 20.5568 20.8 20.8455V5.63333C20.8 5.0587 21.0283 4.5076 21.4346 4.10127C21.8409 3.69494 22.392 3.46667 22.9667 3.46667C23.5413 3.46667 24.0924 3.69494 24.4987 4.10127C24.9051 4.5076 25.1333 5.0587 25.1333 5.63333V20.8455Z" fill="#00A7AC"/>
<path d="M10.8332 6.93337C11.0903 6.93337 11.3417 6.85713 11.5554 6.71429C11.7692 6.57144 11.9359 6.36841 12.0342 6.13086C12.1326 5.89332 12.1584 5.63193 12.1082 5.37976C12.0581 5.12758 11.9343 4.89594 11.7524 4.71414C11.5706 4.53233 11.339 4.40851 11.0868 4.35835C10.8346 4.30819 10.5733 4.33394 10.3357 4.43233C10.0982 4.53073 9.89514 4.69735 9.75229 4.91113C9.60945 5.12492 9.5332 5.37626 9.5332 5.63337C9.5332 5.97816 9.67017 6.30882 9.91396 6.55261C10.1578 6.79641 10.4884 6.93337 10.8332 6.93337ZM10.8332 5.20004C10.9189 5.20004 11.0027 5.22546 11.074 5.27307C11.1452 5.32069 11.2008 5.38836 11.2336 5.46755C11.2663 5.54673 11.2749 5.63386 11.2582 5.71791C11.2415 5.80197 11.2002 5.87918 11.1396 5.93979C11.079 6.00039 11.0018 6.04166 10.9177 6.05838C10.8337 6.0751 10.7466 6.06652 10.6674 6.03372C10.5882 6.00092 10.5205 5.94538 10.4729 5.87412C10.4253 5.80286 10.3999 5.71908 10.3999 5.63337C10.3999 5.51845 10.4455 5.40823 10.5268 5.32696C10.6081 5.2457 10.7183 5.20004 10.8332 5.20004Z" fill="#00A7AC"/>
</svg>
