<svg width="40" height="40" viewBox="0 0 40 40" fill="none" xmlns="http://www.w3.org/2000/svg">
<path d="M35.3333 4C34.2121 4.00131 33.1288 4.40627 32.2817 5.14079C31.4345 5.8753 30.8802 6.89027 30.72 8H22.6667V9.33333H30.6667V35.3333C30.6667 35.5101 30.7369 35.6797 30.8619 35.8047C30.987 35.9298 31.1565 36 31.3333 36C31.5101 36 31.6797 35.9298 31.8047 35.8047C31.9298 35.6797 32 35.5101 32 35.3333C32 34.4493 32.3512 33.6014 32.9763 32.9763C33.6014 32.3512 34.4493 32 35.3333 32C36.2174 32 37.0652 32.3512 37.6904 32.9763C38.3155 33.6014 38.6667 34.4493 38.6667 35.3333V35.4733C38.6649 36.3197 38.3279 37.1309 37.7294 37.7294C37.1309 38.3279 36.3197 38.6649 35.4733 38.6667H1.33333V24.878C2.84877 27.8179 5.14215 30.2853 7.9635 32.0114C10.7848 33.7375 14.0259 34.6559 17.3333 34.6667C17.5101 34.6667 17.6797 34.5964 17.8047 34.4714C17.9298 34.3464 18 34.1768 18 34C18 33.8232 17.9298 33.6536 17.8047 33.5286C17.6797 33.4036 17.5101 33.3333 17.3333 33.3333C14.8315 33.3285 12.3632 32.7569 10.114 31.6613L10.528 30.1173C10.9402 30.0918 11.3337 29.9359 11.6517 29.6723C11.9697 29.4088 12.1958 29.051 12.2973 28.6507L14.492 20.4667C14.9903 20.5588 15.494 20.6192 16 20.6473V21.3333C16 21.5101 16.0702 21.6797 16.1953 21.8047C16.3203 21.9298 16.4899 22 16.6667 22C16.8435 22 17.013 21.9298 17.1381 21.8047C17.2631 21.6797 17.3333 21.5101 17.3333 21.3333V20.6473C17.8393 20.6196 18.343 20.5597 18.8413 20.468L21.0353 28.6487C21.1366 29.0493 21.3626 29.4074 21.6808 29.671C21.999 29.9347 22.3929 30.0903 22.8053 30.1153L23.356 32.1713C23.3938 32.3133 23.4774 32.4389 23.5938 32.5284C23.7103 32.618 23.8531 32.6666 24 32.6667C24.0583 32.6666 24.1163 32.659 24.1727 32.644C24.2572 32.6213 24.3365 32.5822 24.406 32.5289C24.4755 32.4756 24.5337 32.4091 24.5775 32.3333C24.6213 32.2575 24.6497 32.1737 24.6611 32.0869C24.6725 32.0001 24.6667 31.9119 24.644 31.8273L24.094 29.776C24.4323 29.5421 24.6904 29.2099 24.8335 28.8244C24.9766 28.4388 24.9977 28.0186 24.894 27.6207L20.5193 11.2953C21.2138 10.2812 21.4789 9.03341 21.2567 7.82448C21.0345 6.61555 20.3431 5.54361 19.3333 4.84267V2.66667C19.3333 1.95942 19.0524 1.28115 18.5523 0.781049C18.0522 0.280952 17.3739 0 16.6667 0C15.9594 0 15.2811 0.280952 14.781 0.781049C14.281 1.28115 14 1.95942 14 2.66667V4.84267C12.9903 5.54361 12.2988 6.61555 12.0766 7.82448C11.8544 9.03341 12.1195 10.2812 12.814 11.2953L8.43533 27.6233C8.33195 28.0212 8.35367 28.4412 8.49753 28.8263C8.6414 29.2113 8.90041 29.5427 9.23933 29.7753L8.906 31.0153C5.23537 28.8677 2.52583 25.3968 1.33333 21.3147V9.33333H10.6667V8H0V40H35.4733C36.6738 39.9982 37.8246 39.5204 38.6732 38.6713C39.5218 37.8222 39.9989 36.6711 40 35.4707V8.66667C39.9986 7.42942 39.5065 6.24326 38.6316 5.36839C37.7567 4.49353 36.5706 4.00141 35.3333 4ZM17.3333 19.2933V18.6667C17.3333 18.4899 17.2631 18.3203 17.1381 18.1953C17.013 18.0702 16.8435 18 16.6667 18C16.4899 18 16.3203 18.0702 16.1953 18.1953C16.0702 18.3203 16 18.4899 16 18.6667V19.2933C15.6123 19.2701 15.2262 19.2256 14.8433 19.16L16.4087 13.3213C16.4947 13.326 16.5793 13.3347 16.6667 13.3347C16.754 13.3347 16.8387 13.326 16.9247 13.3213L18.49 19.16C18.1072 19.2256 17.721 19.2701 17.3333 19.2933ZM23.6087 27.9633C23.653 28.1334 23.629 28.3142 23.5418 28.4668C23.4546 28.6194 23.3111 28.7319 23.142 28.78H23.138C22.968 28.825 22.7871 28.8011 22.6347 28.7133C22.5593 28.6695 22.4934 28.6111 22.4408 28.5415C22.3883 28.4719 22.3501 28.3925 22.3287 28.308L18.234 13.0567C18.6651 12.9022 19.071 12.685 19.4387 12.412L23.6087 27.9633ZM15.3333 2.66667C15.3333 2.31304 15.4738 1.97391 15.7239 1.72386C15.9739 1.47381 16.313 1.33333 16.6667 1.33333C17.0203 1.33333 17.3594 1.47381 17.6095 1.72386C17.8595 1.97391 18 2.31304 18 2.66667V4.2C17.1305 3.93777 16.2029 3.93777 15.3333 4.2V2.66667ZM16.6667 5.33333C17.3259 5.33333 17.9704 5.52883 18.5186 5.8951C19.0667 6.26137 19.494 6.78197 19.7463 7.39106C19.9986 8.00014 20.0646 8.67036 19.936 9.31697C19.8073 9.96357 19.4899 10.5575 19.0237 11.0237C18.5575 11.4899 17.9636 11.8073 17.317 11.936C16.6704 12.0646 16.0001 11.9986 15.3911 11.7463C14.782 11.494 14.2614 11.0667 13.8951 10.5186C13.5288 9.9704 13.3333 9.32594 13.3333 8.66667C13.3344 7.78294 13.6859 6.93571 14.3108 6.31081C14.9357 5.68592 15.7829 5.33439 16.6667 5.33333ZM9.724 27.966L13.8947 12.412C14.2623 12.685 14.6682 12.9022 15.0993 13.0567L11.0087 28.3113C10.9629 28.4801 10.8528 28.6241 10.7019 28.7124C10.551 28.8006 10.3715 28.8261 10.202 28.7833H10.196C10.0258 28.7363 9.8809 28.6243 9.79259 28.4713C9.70429 28.3184 9.67965 28.1369 9.724 27.966ZM38.6667 32.07C38.2326 31.6258 37.7141 31.2728 37.1417 31.0319C36.5692 30.7909 35.9544 30.6667 35.3333 30.6667C34.7122 30.6667 34.0974 30.7909 33.525 31.0319C32.9526 31.2728 32.4341 31.6258 32 32.07V8.66667C32 7.78261 32.3512 6.93477 32.9763 6.30964C33.6014 5.68452 34.4493 5.33333 35.3333 5.33333C36.2174 5.33333 37.0652 5.68452 37.6904 6.30964C38.3155 6.93477 38.6667 7.78261 38.6667 8.66667V32.07Z" fill="#00A7AC"/>
<path d="M16.667 10.6667C17.0626 10.6667 17.4492 10.5494 17.7781 10.3296C18.107 10.1099 18.3634 9.79751 18.5148 9.43205C18.6661 9.0666 18.7057 8.66447 18.6286 8.27651C18.5514 7.88855 18.3609 7.53218 18.0812 7.25247C17.8015 6.97277 17.4451 6.78229 17.0572 6.70512C16.6692 6.62795 16.2671 6.66755 15.9016 6.81893C15.5362 6.9703 15.2238 7.22665 15.0041 7.55555C14.7843 7.88445 14.667 8.27113 14.667 8.66669C14.667 9.19712 14.8777 9.70583 15.2528 10.0809C15.6279 10.456 16.1366 10.6667 16.667 10.6667ZM16.667 8.00002C16.7988 8.00002 16.9277 8.03912 17.0374 8.11238C17.147 8.18563 17.2325 8.28975 17.2829 8.41157C17.3334 8.53338 17.3466 8.66743 17.3208 8.79675C17.2951 8.92607 17.2316 9.04486 17.1384 9.13809C17.0452 9.23133 16.9264 9.29482 16.7971 9.32055C16.6677 9.34627 16.5337 9.33307 16.4119 9.28261C16.2901 9.23215 16.1859 9.1467 16.1127 9.03707C16.0394 8.92744 16.0003 8.79854 16.0003 8.66669C16.0003 8.48988 16.0706 8.32031 16.1956 8.19528C16.3206 8.07026 16.4902 8.00002 16.667 8.00002Z" fill="#00A7AC"/>
</svg>
