<svg width="11" height="11" viewBox="0 0 11 11" fill="none" xmlns="http://www.w3.org/2000/svg">
<path d="M11 5.5C11 8.53288 8.53288 11 5.5 11C2.46712 11 0 8.53288 0 5.5C0 2.46712 2.46754 0 5.5 0C8.53246 0 11 2.46712 11 5.5ZM0.852049 5.5C0.852049 8.06255 2.93702 10.148 5.5 10.148C8.06298 10.148 10.148 8.06255 10.148 5.5C10.148 2.93702 8.06298 0.852049 5.5 0.852049C2.93702 0.852049 0.852049 2.93745 0.852049 5.5Z" fill="#00A7AC"/>
<path d="M4.91191 3.06735L7.04204 5.19749C7.20734 5.36365 7.20734 5.63203 7.04204 5.79819L4.91191 7.92832C4.75258 8.06507 4.51698 8.06507 4.35765 7.92832C4.17914 7.77538 4.15828 7.50613 4.31123 7.32762L6.13886 5.49997L4.3112 3.66806C4.1459 3.5019 4.1459 3.23351 4.3112 3.06735C4.47736 2.90205 4.74577 2.90205 4.91191 3.06735Z" fill="#00A7AC"/>
</svg>
