<svg width="55" height="55" viewBox="0 0 55 55" fill="none" xmlns="http://www.w3.org/2000/svg">
<path d="M51.0678 27.6329C50.9137 27.6719 50.7561 27.7128 50.5952 27.7555C48.0018 28.4442 44.5383 29.621 41.07 31.5748C35.0055 34.991 28.9077 40.7995 27.4553 50.5062C26.893 47.8925 25.8734 44.4217 24.0387 40.9455C20.7504 34.7152 14.839 28.4717 4.31523 27.1243C4.35364 27.1155 4.39225 27.1065 4.43105 27.0974C7.05002 26.4856 10.5482 25.4045 14.0517 23.5259C20.2127 20.2222 26.4006 14.4395 27.8255 4.44307C28.3968 7.03085 29.4247 10.4696 31.2557 13.9136C34.5666 20.1411 40.5101 26.3846 51.0678 27.6329Z" stroke="#00A7AC" stroke-miterlimit="10"/>
</svg>
