<svg width="12" height="9" viewBox="0 0 12 9" fill="none" xmlns="http://www.w3.org/2000/svg">
<path d="M5.07841 3.78118C5.28615 3.38779 5.4048 2.91868 5.3979 2.41563C5.3796 1.0696 4.45863 0 3.35196 0H0.262043C0.117297 0 0 0.142686 0 0.318763V8.58452C0 8.7606 0.117297 8.90329 0.262043 8.90329H3.7136C4.99456 8.90329 6.05578 7.65414 6.06088 6.09591C6.06418 5.1409 5.67464 4.29427 5.07841 3.78118ZM1.35551 1.64892H3.37836C3.74465 1.64892 4.04269 2.01147 4.04269 2.45705C4.04269 2.90262 3.74465 3.26518 3.37836 3.26518H1.35551V1.64892ZM3.7436 7.25437H1.35551V4.9141H3.7436C4.27398 4.9141 4.70552 5.43922 4.70552 6.08423C4.70537 6.72942 4.27398 7.25437 3.7436 7.25437Z" fill="#3A67FA"/>
<path d="M11.9992 5.50956C11.9992 3.58494 10.7521 2.01904 9.21933 2.01904C7.68637 2.01904 6.43945 3.58494 6.43945 5.50956C6.43945 7.43436 7.68652 9.00008 9.21933 9.00008C10.1493 9.00008 11.0136 8.42021 11.5312 7.4486C11.5957 7.32744 11.6544 7.20081 11.7064 7.07035C11.7441 6.97565 11.6869 6.86544 11.6004 6.86526L10.2339 6.86106C10.2038 6.86106 10.175 6.87603 10.1534 6.90157C9.89521 7.20683 9.57902 7.35116 9.21948 7.35116C8.5403 7.35116 7.97106 6.73334 7.82932 5.9097H11.7273C11.8774 5.9097 11.9992 5.76154 11.9992 5.57871V5.50956ZM9.21933 3.66796C9.71656 3.66796 10.155 3.99968 10.4098 4.50054H8.02866C8.2835 3.99968 8.72194 3.66796 9.21933 3.66796Z" fill="#3A67FA"/>
<path d="M10.3751 1.60976H7.90952C7.79447 1.60976 7.70117 1.49627 7.70117 1.35632V0.604027C7.70117 0.464078 7.79447 0.350586 7.90952 0.350586H10.3751C10.4902 0.350586 10.5833 0.464078 10.5833 0.604027V1.35632C10.5833 1.49645 10.4902 1.60976 10.3751 1.60976Z" fill="#3A67FA"/>
</svg>
