<svg width="10" height="12" viewBox="0 0 10 12" fill="none" xmlns="http://www.w3.org/2000/svg">
<path d="M5 12C3.57292 12 2.38281 11.53 1.42969 10.59C0.476562 9.65 0 8.48 0 7.08C0 6.08 0.414063 4.9925 1.24219 3.8175C2.07031 2.6425 3.32292 1.37 5 0C6.67708 1.37 7.92969 2.6425 8.75781 3.8175C9.58594 4.9925 10 6.08 10 7.08C10 8.48 9.52344 9.65 8.57031 10.59C7.61719 11.53 6.42708 12 5 12ZM5 11.1C6.16667 11.1 7.13542 10.7175 7.90625 9.9525C8.67708 9.1875 9.0625 8.23 9.0625 7.08C9.0625 6.29 8.71615 5.3925 8.02344 4.3875C7.33073 3.3825 6.32292 2.32 5 1.2C3.67708 2.32 2.66927 3.3825 1.97656 4.3875C1.28385 5.3925 0.9375 6.29 0.9375 7.08C0.9375 8.23 1.32292 9.1875 2.09375 9.9525C2.86458 10.7175 3.83333 11.1 5 11.1ZM3.125 9.3H6.875V8.4H3.125V9.3ZM4.53125 7.8H5.46875V6.45H6.875V5.55H5.46875V4.2H4.53125V5.55H3.125V6.45H4.53125V7.8Z" fill="#00A7AC"/>
</svg>
