<svg width="12" height="12" viewBox="0 0 12 12" fill="none" xmlns="http://www.w3.org/2000/svg">
<path d="M2.625 0C2.72446 0 2.81984 0.0395088 2.89016 0.109835C2.96049 0.180161 3 0.275544 3 0.375V0.75H9V0.375C9 0.275544 9.03951 0.180161 9.10983 0.109835C9.18016 0.0395088 9.27554 0 9.375 0C9.47446 0 9.56984 0.0395088 9.64017 0.109835C9.71049 0.180161 9.75 0.275544 9.75 0.375V0.75H10.5C10.8978 0.75 11.2794 0.908035 11.5607 1.18934C11.842 1.47064 12 1.85218 12 2.25V10.5C12 10.8978 11.842 11.2794 11.5607 11.5607C11.2794 11.842 10.8978 12 10.5 12H1.5C1.10218 12 0.720644 11.842 0.43934 11.5607C0.158035 11.2794 0 10.8978 0 10.5V2.25C0 1.85218 0.158035 1.47064 0.43934 1.18934C0.720644 0.908035 1.10218 0.75 1.5 0.75H2.25V0.375C2.25 0.275544 2.28951 0.180161 2.35984 0.109835C2.43016 0.0395088 2.52554 0 2.625 0V0ZM0.75 3V10.5C0.75 10.6989 0.829018 10.8897 0.96967 11.0303C1.11032 11.171 1.30109 11.25 1.5 11.25H10.5C10.6989 11.25 10.8897 11.171 11.0303 11.0303C11.171 10.8897 11.25 10.6989 11.25 10.5V3H0.75Z" fill="#00A7AC"/>
</svg>
