<svg width="34" height="34" viewBox="0 0 34 34" fill="none" xmlns="http://www.w3.org/2000/svg">
<path d="M15.3074 0.127283C12.8997 0.124596 10.5254 0.683834 8.37785 1.75947C6.23026 2.8351 4.37006 4.39673 2.94871 6.31721C1.52735 8.23769 0.585011 10.4627 0.198406 12.8112C-0.188199 15.1597 -0.00814014 17.5651 0.723924 19.8318C1.45599 22.0985 2.71936 24.1623 4.41119 25.8552C6.10302 27.5481 8.17548 28.8223 10.4598 29.5739C12.7442 30.3256 15.1759 30.5335 17.557 30.1807C19.938 29.828 22.2011 28.9245 24.162 27.5439L29.6506 32.9724C30.1289 33.4444 30.7773 33.7093 31.4532 33.7088C32.1292 33.7083 32.7772 33.4425 33.2548 32.9699C33.7324 32.4972 34.0005 31.8564 34 31.1885C33.9995 30.5205 33.7306 29.8801 33.2523 29.4081L27.7592 23.9869C29.388 21.7283 30.3558 19.0699 30.5564 16.3035C30.7569 13.537 30.1825 10.7695 28.8961 8.30447C27.6096 5.83947 25.6609 3.7723 23.2639 2.32982C20.8668 0.887336 18.1139 0.125282 15.3074 0.127283ZM32.4498 30.1988C32.713 30.4627 32.8605 30.8183 32.8605 31.1888C32.8605 31.5593 32.713 31.915 32.4498 32.1788C32.1791 32.4315 31.8209 32.5722 31.4486 32.5722C31.0763 32.5722 30.7181 32.4315 30.4474 32.1788L25.0675 26.8572C25.7931 26.2611 26.4617 25.6004 27.0649 24.8834L32.4498 30.1988ZM15.3074 29.2284C12.5073 29.2284 9.77007 28.4079 7.44188 26.8705C5.1137 25.3332 3.29909 23.1481 2.22755 20.5916C1.156 18.0351 0.875634 15.222 1.4219 12.508C1.96817 9.79402 3.31654 7.30107 5.2965 5.34441C7.27647 3.38774 9.79909 2.05523 12.5454 1.51539C15.2917 0.975546 18.1383 1.25261 20.7252 2.31155C23.3121 3.3705 25.5232 5.16375 27.0789 7.46455C28.6345 9.76534 29.4649 12.4703 29.4649 15.2375C29.4607 18.9468 27.9677 22.5031 25.3136 25.126C22.6595 27.7489 19.0609 29.2243 15.3074 29.2284Z" fill="#00A7AC"/>
<path d="M18.4086 2.7324C18.2625 2.69707 18.1082 2.72053 17.9797 2.79762C17.8511 2.87471 17.7588 2.99911 17.7231 3.14345C17.6873 3.28779 17.7111 3.44026 17.7891 3.5673C17.8671 3.69435 17.993 3.78557 18.139 3.82089C20.2819 4.33963 22.2365 5.43736 23.784 6.99128C25.3316 8.54519 26.4111 10.494 26.9019 12.6196C27.3926 14.7453 27.2751 16.964 26.5627 19.0274C25.8502 21.0909 24.5708 22.9178 22.8676 24.3036C22.4881 23.0281 21.8103 21.8587 20.889 20.8898C21.6413 20.7103 22.3318 20.3364 22.8897 19.8064C23.1335 19.5232 23.2569 19.1578 23.2341 18.7867C23.2113 18.4156 23.0441 18.0677 22.7674 17.8157C22.3081 17.4094 21.5368 16.3209 21.5368 13.5586V11.32C21.5368 9.68735 20.8805 8.12155 19.7123 6.96707C18.5441 5.8126 16.9596 5.16402 15.3075 5.16402C13.6554 5.16402 12.071 5.8126 10.9027 6.96707C9.73453 8.12155 9.07823 9.68735 9.07823 11.32V13.5586C9.07823 16.3209 8.30693 17.4094 7.85162 17.809C7.5732 18.0612 7.40458 18.4102 7.38124 18.7827C7.3579 19.1553 7.48165 19.5222 7.72647 19.8064C8.28459 20.3347 8.97431 20.7075 9.72551 20.887C8.8042 21.8559 8.1264 23.0253 7.74686 24.3008C5.85651 22.7621 4.49321 20.6839 3.84334 18.3504C3.19347 16.0169 3.28874 13.542 4.11613 11.2641C4.94352 8.98614 6.46265 7.01633 8.46583 5.62395C10.469 4.23157 12.8585 3.48458 15.3075 3.48511C15.4577 3.48511 15.6018 3.42615 15.708 3.32119C15.8142 3.21624 15.8738 3.0739 15.8738 2.92547C15.8738 2.77705 15.8142 2.6347 15.708 2.52975C15.6018 2.4248 15.4577 2.36583 15.3075 2.36583C11.993 2.37006 8.80517 3.62451 6.39496 5.87301C3.98475 8.1215 2.534 11.1944 2.33896 14.4643C2.14393 17.7341 3.21932 20.9542 5.34553 23.4669C7.47174 25.9797 10.4884 27.5956 13.7794 27.9846C17.0705 28.3736 20.3877 27.5064 23.0536 25.5601C25.7195 23.6138 27.533 20.7352 28.1239 17.5122C28.7147 14.2891 28.0383 10.9648 26.2327 8.21794C24.4271 5.47111 21.6286 3.50904 18.4086 2.7324ZM22.0204 18.6513C22.0722 18.7088 22.1017 18.7825 22.1036 18.8595C22.1056 18.9364 22.0799 19.0115 22.0312 19.0716C21.3906 19.5733 20.6259 19.8967 19.8164 20.0084C19.1432 19.5666 18.3749 19.286 17.5727 19.1891V18.883C18.7394 17.8731 19.6519 16.6085 20.2377 15.1894C20.3242 15.1682 20.4089 15.1404 20.4909 15.106C20.7293 17.1011 21.4202 18.1275 22.0204 18.6513ZM10.2108 11.32C10.2108 9.9842 10.7478 8.70309 11.7036 7.75852C12.6594 6.81395 13.9558 6.28329 15.3075 6.28329C16.6593 6.28329 17.9556 6.81395 18.9114 7.75852C19.8672 8.70309 20.4042 9.9842 20.4042 11.32V11.9793C20.3884 11.9737 20.3736 11.9653 20.3572 11.9603C20.0945 11.015 19.4919 10.197 18.6623 9.65959C18.3804 9.45834 18.0487 9.33614 17.7023 9.30589C17.3559 9.27565 17.0076 9.33849 16.6944 9.48778C15.3955 9.98959 14.0145 10.2516 12.6199 10.2606L12.2801 10.2802C11.8066 10.3074 11.3546 10.4853 10.9919 10.7873C10.6291 11.0893 10.375 11.4992 10.2675 11.9558C10.2476 11.9619 10.2312 11.9737 10.2108 11.9804V11.32ZM10.3847 13.1596C10.4358 13.1081 10.4969 13.0674 10.5644 13.0398C10.6318 13.0122 10.7041 12.9983 10.7771 12.9989C10.9273 12.9989 11.0714 12.94 11.1776 12.835C11.2838 12.7301 11.3434 12.5877 11.3434 12.4393C11.3449 12.1716 11.4499 11.9146 11.6369 11.7209C11.8238 11.5272 12.0787 11.4114 12.3492 11.3973L12.6782 11.3782C14.2199 11.3657 15.7456 11.0679 17.1763 10.5002C17.2903 10.4472 17.4145 10.4195 17.5404 10.419C17.7021 10.4178 17.8599 10.4678 17.9907 10.5617C18.4692 10.9098 19.2716 11.6161 19.2716 12.4393C19.2716 12.5877 19.3313 12.7301 19.4375 12.835C19.5437 12.94 19.6877 12.9989 19.8379 12.9989C19.9881 12.9989 20.1322 13.0579 20.2384 13.1629C20.3446 13.2678 20.4042 13.4102 20.4042 13.5586C20.4042 13.707 20.3446 13.8494 20.2384 13.9543C20.1322 14.0593 19.9881 14.1182 19.8379 14.1182C19.7226 14.1181 19.6101 14.1528 19.5152 14.2176C19.4204 14.2824 19.3479 14.3742 19.3073 14.4809C18.8752 15.6253 17.3083 18.5953 15.3075 18.5953C13.3068 18.5953 11.7432 15.6253 11.3078 14.4809C11.2672 14.3742 11.1946 14.2824 11.0998 14.2176C11.005 14.1528 10.8924 14.1181 10.7771 14.1182C10.6269 14.1182 10.4829 14.0593 10.3767 13.9543C10.2705 13.8494 10.2108 13.707 10.2108 13.5586C10.2107 13.4839 10.226 13.4099 10.2559 13.3413C10.2858 13.2726 10.3297 13.2108 10.3847 13.1596ZM16.4401 19.5058V19.7146C16.4401 20.0114 16.3208 20.2961 16.1084 20.506C15.896 20.7159 15.6079 20.8339 15.3075 20.8339C15.0071 20.8339 14.7191 20.7159 14.5067 20.506C14.2943 20.2961 14.1749 20.0114 14.1749 19.7146V19.5058C14.9037 19.7842 15.7113 19.7842 16.4401 19.5058ZM8.58555 19.0766C8.53574 19.0157 8.50972 18.9392 8.51222 18.8609C8.51471 18.7826 8.54556 18.7078 8.59914 18.6502C9.19602 18.1263 9.88577 17.1005 10.1242 15.1071C10.2062 15.1415 10.2908 15.1694 10.3773 15.1905C10.9633 16.6092 11.8758 17.8734 13.0423 18.883V19.1891C12.2398 19.2866 11.4715 19.5681 10.7986 20.0112C9.99007 19.8994 9.22621 19.5768 8.58555 19.0766ZM15.3075 26.9899C12.9612 26.9919 10.6674 26.3038 8.71806 25.0132C9.42084 22.4132 11.1616 20.5669 13.1352 20.3084C13.2642 20.7807 13.5472 21.1978 13.9402 21.4952C14.3332 21.7927 14.8145 21.9539 15.3095 21.9539C15.8045 21.9539 16.2858 21.7927 16.6788 21.4952C17.0719 21.1978 17.3548 20.7807 17.4838 20.3084C19.4557 20.5675 21.1965 22.4137 21.901 25.0138C19.9505 26.3049 17.6551 26.9928 15.3075 26.9899Z" fill="#00A7AC"/>
</svg>
