<svg width="40" height="40" viewBox="0 0 40 40" fill="none" xmlns="http://www.w3.org/2000/svg">
<path d="M20 18C17.7943 18 16 19.7943 16 22C16 24.2058 17.7943 26 20 26C22.2058 26 24 24.2058 24 22C24 19.7943 22.2058 18 20 18ZM20 24.6667C18.5296 24.6667 17.3333 23.4707 17.3333 22C17.3333 20.5293 18.5296 19.3333 20 19.3333C21.4704 19.3333 22.6667 20.5293 22.6667 22C22.6667 23.4707 21.4704 24.6667 20 24.6667Z" fill="#00A7AC"/>
<path d="M20 0C8.972 0 0 8.972 0 20C0 31.028 8.972 40 20 40C31.028 40 40 31.028 40 20C40 8.972 31.028 0 20 0ZM20 38.6667C9.707 38.6667 1.33333 30.293 1.33333 20C1.33333 9.707 9.707 1.33333 20 1.33333C30.293 1.33333 38.6667 9.707 38.6667 20C38.6667 30.293 30.293 38.6667 20 38.6667Z" fill="#00A7AC"/>
<path d="M20 4C11.1778 4 4 11.1778 4 20C4 28.8223 11.1778 36 20 36C28.8223 36 36 28.8223 36 20C36 11.1778 28.8223 4 20 4ZM20 5.33333C26.2321 5.33333 31.5651 9.24208 33.6857 14.7354L28.6908 16.4003C26.9776 16.9713 25.1254 16.8821 23.474 16.1478C21.2663 15.166 18.7334 15.166 16.5264 16.1478L16.2738 16.2598C14.7725 16.9278 13.0704 17.0625 11.4812 16.6387L6.13933 15.2142C8.12833 9.4705 13.5884 5.33333 20 5.33333ZM5.33333 20C5.33333 19.8642 5.33992 19.7299 5.34367 19.595L5.80667 19.7493C12.3797 21.9403 17.0281 27.6829 17.8549 34.5083C10.7811 33.4669 5.33333 27.3585 5.33333 20ZM20 34.6667C19.7353 34.6667 19.4723 34.6588 19.211 34.6448C18.4232 27.178 13.3882 20.8712 6.2285 18.485L5.44467 18.2238C5.51494 17.6409 5.62036 17.0628 5.76033 16.4926L11.1373 17.9265C11.855 18.1176 12.5945 18.2144 13.3372 18.2143C14.5286 18.2143 15.7171 17.9668 16.815 17.4786L17.0676 17.3666C18.9308 16.5372 21.0683 16.5378 22.9341 17.3673C24.8888 18.2351 27.0828 18.3418 29.1125 17.6648L34.1074 15.9998C34.3143 16.7283 34.464 17.4719 34.5552 18.2238L33.7713 18.485C26.6116 20.8712 21.5767 27.178 20.7888 34.6448C20.5277 34.6588 20.2648 34.6667 20 34.6667ZM22.1452 34.5083C22.972 27.6829 27.6203 21.9403 34.1934 19.7493L34.6564 19.595C34.6601 19.7299 34.6668 19.8642 34.6668 20C34.6667 27.3585 29.2189 33.4669 22.1452 34.5083Z" fill="#00A7AC"/>
</svg>
