<svg width="11" height="12" viewBox="0 0 11 12" fill="none" xmlns="http://www.w3.org/2000/svg">
<path d="M2.04079 5.31L5.225 0L8.40921 5.31H2.04079ZM8.48158 12C7.76754 12 7.1693 11.75 6.68684 11.25C6.20439 10.75 5.96316 10.13 5.96316 9.39C5.96316 8.65 6.20439 8.03 6.68684 7.53C7.1693 7.03 7.76754 6.78 8.48158 6.78C9.19561 6.78 9.79386 7.03 10.2763 7.53C10.7588 8.03 11 8.65 11 9.39C11 10.13 10.7588 10.75 10.2763 11.25C9.79386 11.75 9.19561 12 8.48158 12ZM0 11.625V7.065H4.4V11.625H0ZM8.48158 11.1C8.94474 11.1 9.33553 10.935 9.65395 10.605C9.97237 10.275 10.1316 9.87 10.1316 9.39C10.1316 8.91 9.97237 8.505 9.65395 8.175C9.33553 7.845 8.94474 7.68 8.48158 7.68C8.01842 7.68 7.62763 7.845 7.30921 8.175C6.99079 8.505 6.83158 8.91 6.83158 9.39C6.83158 9.87 6.99079 10.275 7.30921 10.605C7.62763 10.935 8.01842 11.1 8.48158 11.1ZM0.868421 10.725H3.53158V7.965H0.868421V10.725ZM3.60395 4.41H6.84605L5.225 1.695L3.60395 4.41Z" fill="#00A7AC"/>
</svg>
