<svg width="16" height="16" viewBox="0 0 16 16" fill="none" xmlns="http://www.w3.org/2000/svg">
<path d="M5.28814 0H1.62712C1.19558 0 0.781716 0.171428 0.476572 0.476572C0.171428 0.781716 0 1.19558 0 1.62712V5.28814C0 5.71967 0.171428 6.13354 0.476572 6.43868C0.781716 6.74383 1.19558 6.91525 1.62712 6.91525H5.28814C5.71967 6.91525 6.13354 6.74383 6.43868 6.43868C6.74383 6.13354 6.91525 5.71967 6.91525 5.28814V1.62712C6.91525 1.19558 6.74383 0.781716 6.43868 0.476572C6.13354 0.171428 5.71967 0 5.28814 0ZM6.1017 5.28814C6.1017 5.5039 6.01598 5.71084 5.86341 5.86341C5.71084 6.01598 5.5039 6.1017 5.28814 6.1017H1.62712C1.41135 6.1017 1.20442 6.01598 1.05185 5.86341C0.899273 5.71084 0.813559 5.5039 0.813559 5.28814V1.62712C0.813559 1.41135 0.899273 1.20442 1.05185 1.05185C1.20442 0.899273 1.41135 0.813559 1.62712 0.813559H5.28814C5.5039 0.813559 5.71084 0.899273 5.86341 1.05185C6.01598 1.20442 6.1017 1.41135 6.1017 1.62712V5.28814Z" fill="#00A7AC"/>
<path d="M14.3729 0H10.7118C10.2803 0 9.86643 0.171428 9.56129 0.476572C9.25614 0.781716 9.08472 1.19558 9.08472 1.62712V5.28814C9.08472 5.71967 9.25614 6.13354 9.56129 6.43868C9.86643 6.74383 10.2803 6.91525 10.7118 6.91525H14.3729C14.8044 6.91525 15.2183 6.74383 15.5234 6.43868C15.8285 6.13354 16 5.71967 16 5.28814V1.62712C16 1.19558 15.8285 0.781716 15.5234 0.476572C15.2183 0.171428 14.8044 0 14.3729 0ZM15.1864 5.28814C15.1864 5.5039 15.1007 5.71084 14.9481 5.86341C14.7956 6.01598 14.5886 6.1017 14.3729 6.1017H10.7118C10.4961 6.1017 10.2891 6.01598 10.1366 5.86341C9.98399 5.71084 9.89828 5.5039 9.89828 5.28814V1.62712C9.89828 1.41135 9.98399 1.20442 10.1366 1.05185C10.2891 0.899273 10.4961 0.813559 10.7118 0.813559H14.3729C14.5886 0.813559 14.7956 0.899273 14.9481 1.05185C15.1007 1.20442 15.1864 1.41135 15.1864 1.62712V5.28814Z" fill="#00A7AC"/>
<path d="M5.28814 9.08475H1.62712C1.19558 9.08475 0.781716 9.25618 0.476572 9.56132C0.171428 9.86646 0 10.2803 0 10.7119V14.3729C0 14.8044 0.171428 15.2183 0.476572 15.5234C0.781716 15.8286 1.19558 16 1.62712 16H5.28814C5.71967 16 6.13354 15.8286 6.43868 15.5234C6.74383 15.2183 6.91525 14.8044 6.91525 14.3729V10.7119C6.91525 10.2803 6.74383 9.86646 6.43868 9.56132C6.13354 9.25618 5.71967 9.08475 5.28814 9.08475ZM6.1017 14.3729C6.1017 14.5887 6.01598 14.7956 5.86341 14.9482C5.71084 15.1007 5.5039 15.1864 5.28814 15.1864H1.62712C1.41135 15.1864 1.20442 15.1007 1.05185 14.9482C0.899273 14.7956 0.813559 14.5887 0.813559 14.3729V10.7119C0.813559 10.4961 0.899273 10.2892 1.05185 10.1366C1.20442 9.98402 1.41135 9.89831 1.62712 9.89831H5.28814C5.5039 9.89831 5.71084 9.98402 5.86341 10.1366C6.01598 10.2892 6.1017 10.4961 6.1017 10.7119V14.3729Z" fill="#00A7AC"/>
<path d="M14.7796 11.322H13.7627V10.3051C13.7627 9.98143 13.6341 9.67103 13.4053 9.44218C13.1764 9.21332 12.866 9.08475 12.5423 9.08475C12.2187 9.08475 11.9083 9.21332 11.6794 9.44218C11.4506 9.67103 11.322 9.98143 11.322 10.3051V11.322H10.3051C9.9814 11.322 9.671 11.4506 9.44215 11.6795C9.21329 11.9083 9.08472 12.2187 9.08472 12.5424C9.08472 12.866 9.21329 13.1764 9.44215 13.4053C9.671 13.6341 9.9814 13.7627 10.3051 13.7627H11.322V14.7797C11.322 15.1033 11.4506 15.4137 11.6794 15.6426C11.9083 15.8714 12.2187 16 12.5423 16C12.866 16 13.1764 15.8714 13.4053 15.6426C13.6341 15.4137 13.7627 15.1033 13.7627 14.7797V13.7627H14.7796C15.1033 13.7627 15.4137 13.6341 15.6425 13.4053C15.8714 13.1764 16 12.866 16 12.5424C16 12.2187 15.8714 11.9083 15.6425 11.6795C15.4137 11.4506 15.1033 11.322 14.7796 11.322ZM14.7796 12.9492H13.3559C13.248 12.9492 13.1446 12.992 13.0683 13.0683C12.992 13.1446 12.9491 13.248 12.9491 13.3559V14.7797C12.9491 14.8875 12.9063 14.991 12.83 15.0673C12.7537 15.1436 12.6502 15.1864 12.5423 15.1864C12.4345 15.1864 12.331 15.1436 12.2547 15.0673C12.1784 14.991 12.1356 14.8875 12.1356 14.7797V13.3559C12.1356 13.248 12.0927 13.1446 12.0164 13.0683C11.9401 12.992 11.8367 12.9492 11.7288 12.9492H10.3051C10.1972 12.9492 10.0937 12.9063 10.0174 12.83C9.94113 12.7537 9.89828 12.6503 9.89828 12.5424C9.89828 12.4345 9.94113 12.331 10.0174 12.2547C10.0937 12.1785 10.1972 12.1356 10.3051 12.1356H11.7288C11.8367 12.1356 11.9401 12.0927 12.0164 12.0165C12.0927 11.9402 12.1356 11.8367 12.1356 11.7288V10.3051C12.1356 10.1972 12.1784 10.0937 12.2547 10.0174C12.331 9.94116 12.4345 9.89831 12.5423 9.89831C12.6502 9.89831 12.7537 9.94116 12.83 10.0174C12.9063 10.0937 12.9491 10.1972 12.9491 10.3051V11.7288C12.9491 11.8367 12.992 11.9402 13.0683 12.0165C13.1446 12.0927 13.248 12.1356 13.3559 12.1356H14.7796C14.8875 12.1356 14.991 12.1785 15.0673 12.2547C15.1436 12.331 15.1864 12.4345 15.1864 12.5424C15.1864 12.6503 15.1436 12.7537 15.0673 12.83C14.991 12.9063 14.8875 12.9492 14.7796 12.9492Z" fill="#00A7AC"/>
</svg>
