<svg width="16" height="16" viewBox="0 0 16 16" fill="none" xmlns="http://www.w3.org/2000/svg">
<path d="M5.28814 0H1.62712C1.19558 0 0.781716 0.171428 0.476572 0.476572C0.171428 0.781716 0 1.19558 0 1.62712V5.28814C0 5.71967 0.171428 6.13354 0.476572 6.43868C0.781716 6.74383 1.19558 6.91525 1.62712 6.91525H5.28814C5.71967 6.91525 6.13354 6.74383 6.43868 6.43868C6.74383 6.13354 6.91525 5.71967 6.91525 5.28814V1.62712C6.91525 1.19558 6.74383 0.781716 6.43868 0.476572C6.13354 0.171428 5.71967 0 5.28814 0ZM6.1017 5.28814C6.1017 5.5039 6.01598 5.71084 5.86341 5.86341C5.71084 6.01598 5.5039 6.1017 5.28814 6.1017H1.62712C1.41135 6.1017 1.20442 6.01598 1.05185 5.86341C0.899273 5.71084 0.813559 5.5039 0.813559 5.28814V1.62712C0.813559 1.41135 0.899273 1.20442 1.05185 1.05185C1.20442 0.899273 1.41135 0.813559 1.62712 0.813559H5.28814C5.5039 0.813559 5.71084 0.899273 5.86341 1.05185C6.01598 1.20442 6.1017 1.41135 6.1017 1.62712V5.28814Z" fill="black"/>
<path d="M14.3731 0H10.7121C10.2805 0 9.86668 0.171428 9.56153 0.476572C9.25639 0.781716 9.08496 1.19558 9.08496 1.62712V5.28814C9.08496 5.71967 9.25639 6.13354 9.56153 6.43868C9.86668 6.74383 10.2805 6.91525 10.7121 6.91525H14.3731C14.8046 6.91525 15.2185 6.74383 15.5236 6.43868C15.8288 6.13354 16.0002 5.71967 16.0002 5.28814V1.62712C16.0002 1.19558 15.8288 0.781716 15.5236 0.476572C15.2185 0.171428 14.8046 0 14.3731 0ZM15.1867 5.28814C15.1867 5.5039 15.1009 5.71084 14.9484 5.86341C14.7958 6.01598 14.5889 6.1017 14.3731 6.1017H10.7121C10.4963 6.1017 10.2894 6.01598 10.1368 5.86341C9.98423 5.71084 9.89852 5.5039 9.89852 5.28814V1.62712C9.89852 1.41135 9.98423 1.20442 10.1368 1.05185C10.2894 0.899273 10.4963 0.813559 10.7121 0.813559H14.3731C14.5889 0.813559 14.7958 0.899273 14.9484 1.05185C15.1009 1.20442 15.1867 1.41135 15.1867 1.62712V5.28814Z" fill="black"/>
<path d="M5.28814 9.08475H1.62712C1.19558 9.08475 0.781716 9.25618 0.476572 9.56132C0.171428 9.86646 0 10.2803 0 10.7119V14.3729C0 14.8044 0.171428 15.2183 0.476572 15.5234C0.781716 15.8286 1.19558 16 1.62712 16H5.28814C5.71967 16 6.13354 15.8286 6.43868 15.5234C6.74383 15.2183 6.91525 14.8044 6.91525 14.3729V10.7119C6.91525 10.2803 6.74383 9.86646 6.43868 9.56132C6.13354 9.25618 5.71967 9.08475 5.28814 9.08475ZM6.1017 14.3729C6.1017 14.5887 6.01598 14.7956 5.86341 14.9482C5.71084 15.1007 5.5039 15.1864 5.28814 15.1864H1.62712C1.41135 15.1864 1.20442 15.1007 1.05185 14.9482C0.899273 14.7956 0.813559 14.5887 0.813559 14.3729V10.7119C0.813559 10.4961 0.899273 10.2892 1.05185 10.1366C1.20442 9.98402 1.41135 9.89831 1.62712 9.89831H5.28814C5.5039 9.89831 5.71084 9.98402 5.86341 10.1366C6.01598 10.2892 6.1017 10.4961 6.1017 10.7119V14.3729Z" fill="black"/>
<path d="M14.7799 11.322H13.7629V10.3051C13.7629 9.98143 13.6344 9.67103 13.4055 9.44218C13.1766 9.21332 12.8662 9.08475 12.5426 9.08475C12.2189 9.08475 11.9085 9.21332 11.6797 9.44218C11.4508 9.67103 11.3222 9.98143 11.3222 10.3051V11.322H10.3053C9.98165 11.322 9.67125 11.4506 9.44239 11.6795C9.21353 11.9083 9.08496 12.2187 9.08496 12.5424C9.08496 12.866 9.21353 13.1764 9.44239 13.4053C9.67125 13.6341 9.98165 13.7627 10.3053 13.7627H11.3222V14.7797C11.3222 15.1033 11.4508 15.4137 11.6797 15.6426C11.9085 15.8714 12.2189 16 12.5426 16C12.8662 16 13.1766 15.8714 13.4055 15.6426C13.6344 15.4137 13.7629 15.1033 13.7629 14.7797V13.7627H14.7799C15.1035 13.7627 15.4139 13.6341 15.6428 13.4053C15.8716 13.1764 16.0002 12.866 16.0002 12.5424C16.0002 12.2187 15.8716 11.9083 15.6428 11.6795C15.4139 11.4506 15.1035 11.322 14.7799 11.322ZM14.7799 12.9492H13.3561C13.2483 12.9492 13.1448 12.992 13.0685 13.0683C12.9922 13.1446 12.9494 13.248 12.9494 13.3559V14.7797C12.9494 14.8875 12.9065 14.991 12.8302 15.0673C12.7539 15.1436 12.6505 15.1864 12.5426 15.1864C12.4347 15.1864 12.3312 15.1436 12.255 15.0673C12.1787 14.991 12.1358 14.8875 12.1358 14.7797V13.3559C12.1358 13.248 12.093 13.1446 12.0167 13.0683C11.9404 12.992 11.8369 12.9492 11.729 12.9492H10.3053C10.1974 12.9492 10.0939 12.9063 10.0177 12.83C9.94138 12.7537 9.89852 12.6503 9.89852 12.5424C9.89852 12.4345 9.94138 12.331 10.0177 12.2547C10.0939 12.1785 10.1974 12.1356 10.3053 12.1356H11.729C11.8369 12.1356 11.9404 12.0927 12.0167 12.0165C12.093 11.9402 12.1358 11.8367 12.1358 11.7288V10.3051C12.1358 10.1972 12.1787 10.0937 12.255 10.0174C12.3312 9.94116 12.4347 9.89831 12.5426 9.89831C12.6505 9.89831 12.7539 9.94116 12.8302 10.0174C12.9065 10.0937 12.9494 10.1972 12.9494 10.3051V11.7288C12.9494 11.8367 12.9922 11.9402 13.0685 12.0165C13.1448 12.0927 13.2483 12.1356 13.3561 12.1356H14.7799C14.8878 12.1356 14.9912 12.1785 15.0675 12.2547C15.1438 12.331 15.1867 12.4345 15.1867 12.5424C15.1867 12.6503 15.1438 12.7537 15.0675 12.83C14.9912 12.9063 14.8878 12.9492 14.7799 12.9492Z" fill="black"/>
</svg>
