<svg width="7" height="6" viewBox="0 0 7 6" fill="none" xmlns="http://www.w3.org/2000/svg">
<path d="M5.9119 0.191292C6.03287 0.0672398 6.19384 -0.00134136 6.36085 1.98831e-05C6.52786 0.00138113 6.68785 0.0725785 6.80705 0.198588C6.92626 0.324598 6.99536 0.495564 6.99977 0.675411C7.00419 0.855259 6.94357 1.02992 6.83071 1.16254L3.4045 5.77827C3.34558 5.84663 3.27448 5.90148 3.19543 5.93956C3.11639 5.97764 3.03102 5.99815 2.94445 5.99988C2.85788 6.00161 2.77187 5.98451 2.69157 5.94961C2.61127 5.91471 2.53832 5.86273 2.4771 5.79677L0.204979 3.34923C0.141704 3.28572 0.0909531 3.20913 0.0557533 3.12403C0.0205534 3.03893 0.00162595 2.94707 0.000100227 2.85392C-0.0014255 2.76077 0.0144818 2.66824 0.0468729 2.58186C0.0792639 2.49547 0.127475 2.417 0.188631 2.35112C0.249787 2.28525 0.322633 2.23331 0.402826 2.19842C0.483018 2.16353 0.568913 2.14639 0.655387 2.14804C0.741861 2.14968 0.827141 2.17007 0.906141 2.20799C0.985141 2.24591 1.05624 2.30057 1.1152 2.36873L2.91332 4.30475L5.89559 0.211642C5.90096 0.204521 5.90669 0.197726 5.91276 0.191292H5.9119Z" fill="white"/>
</svg>
