<svg width="36" height="40" viewBox="0 0 36 40" fill="none" xmlns="http://www.w3.org/2000/svg">
<path d="M33.8628 16.9213H33.6213C33.6039 16.9213 33.5346 16.9324 33.5212 16.9213C33.51 16.912 33.5149 16.868 33.5139 16.8506C33.5111 16.7953 33.5083 16.7401 33.5051 16.6848C33.4833 16.3019 33.4458 15.92 33.3926 15.5402C33.2631 14.6037 33.0409 13.682 32.7291 12.7881C32.6738 12.6375 32.5606 12.5143 32.4138 12.4452C32.2671 12.376 32.0986 12.3664 31.9447 12.4184C31.7908 12.4704 31.6639 12.5799 31.5913 12.7232C31.5187 12.8666 31.5063 13.0322 31.5568 13.1845C31.6939 13.5794 31.8121 13.9805 31.9108 14.3864H29.9785C29.2415 14.3864 28.6418 14.9765 28.6418 15.7018V16.9213H21.2711V15.7018C21.2711 14.9765 20.6715 14.3864 19.9345 14.3864H15.4588C14.7218 14.3864 14.1222 14.9765 14.1222 15.7018V16.9213H7.37125V15.7018C7.37125 14.9765 6.77164 14.3864 6.03461 14.3864H4.10733C5.02695 10.6624 7.54781 7.44625 11.0719 5.65039L11.5652 7.23945C11.604 7.36438 11.6825 7.47375 11.7891 7.5515C11.8958 7.62924 12.025 7.67124 12.1577 7.67133C12.2547 7.67136 12.3502 7.64901 12.4368 7.6061C12.5234 7.56319 12.5985 7.5009 12.6561 7.42423C12.7138 7.34757 12.7524 7.25867 12.7688 7.16466C12.7852 7.07066 12.779 6.97418 12.7507 6.88297L11.7645 3.70586C11.7622 3.69852 11.7552 3.67625 11.774 3.65133C11.7928 3.62633 11.8165 3.62633 11.8243 3.62633C11.8707 3.62633 11.9168 3.62125 11.9619 3.61109C12.4971 3.49162 13.0358 3.38798 13.5773 3.30031V9.4675C13.5773 9.80437 13.8547 10.0774 14.197 10.0774C14.5394 10.0774 14.8168 9.80437 14.8168 9.4675V1.55797C14.8169 1.46834 14.8531 1.38242 14.9175 1.31905C14.9819 1.25567 15.0692 1.22003 15.1603 1.21992H20.8529C20.9439 1.22003 21.0312 1.25567 21.0956 1.31905C21.16 1.38242 21.1963 1.46834 21.1964 1.55797V9.4675C21.1964 9.80437 21.4738 10.0774 21.8161 10.0774C22.1585 10.0774 22.4359 9.80437 22.4359 9.4675V3.30039C22.9774 3.38796 23.5161 3.49158 24.0512 3.61109C24.0937 3.62063 24.1369 3.6257 24.1804 3.62625C24.1884 3.62719 24.225 3.63234 24.2393 3.65133C24.258 3.67625 24.251 3.69867 24.2488 3.70594L23.3106 6.72852C23.2651 6.88249 23.283 7.04792 23.3605 7.18899C23.438 7.33006 23.5688 7.43543 23.7246 7.4823C23.8805 7.52916 24.0488 7.51374 24.1932 7.43939C24.3376 7.36503 24.4464 7.23772 24.4961 7.085L24.9417 5.64945C27.2285 6.81813 29.1748 8.63984 30.4687 10.8378C30.5095 10.9072 30.5637 10.9679 30.6284 11.0166C30.693 11.0653 30.7668 11.101 30.8454 11.1216C30.9241 11.1422 31.0061 11.1473 31.0868 11.1367C31.1675 11.1261 31.2453 11.1 31.3157 11.0598C31.3861 11.0196 31.4478 10.9662 31.4973 10.9026C31.5467 10.839 31.583 10.7664 31.6039 10.689C31.6248 10.6116 31.6301 10.5309 31.6193 10.4515C31.6086 10.3721 31.582 10.2956 31.5412 10.2262C30.0918 7.76406 27.8918 5.7343 25.3094 4.46461L25.4343 4.06234C25.5561 3.66977 25.4837 3.25539 25.2357 2.9257C24.9721 2.57508 24.5795 2.43109 24.2716 2.4093C23.6636 2.27462 23.0514 2.15951 22.4358 2.06414V1.55781C22.4361 0.698906 21.7259 0 20.8529 0H15.1604C14.2875 0 13.5773 0.698906 13.5773 1.55797V2.06437C12.9627 2.15957 12.3515 2.27445 11.7445 2.40883C11.3588 2.43141 11.0097 2.61688 10.7775 2.9257C10.5294 3.2557 10.457 3.67 10.5789 4.0625L10.7036 4.46414C6.52268 6.515 3.59687 10.3843 2.74163 14.8259C2.73562 14.8458 2.73067 14.866 2.72679 14.8865C2.63507 15.3816 2.56931 15.881 2.52975 16.3828C2.51533 16.5622 2.50424 16.7417 2.49649 16.9215H2.1506C0.964792 16.9215 0 17.8656 0 19.0261V24.3032C0 24.8912 0.422736 25.3984 1.0052 25.5094L4.11654 26.102C4.42655 27.1936 4.86912 28.2443 5.43468 29.2316L3.65983 31.8166C3.32569 32.3032 3.38959 32.9579 3.81146 33.3731L6.7279 36.2432C7.15008 36.6585 7.81519 36.7212 8.30969 36.3924L10.9364 34.6459C11.9396 35.2024 13.0073 35.6379 14.1165 35.943L14.7187 39.0048C14.8321 39.5815 15.3475 40 15.9443 40H20.0688C20.6657 40 21.1811 39.5815 21.2945 39.0049L21.5523 37.6938C21.5678 37.6152 21.5674 37.5343 21.5511 37.4558C21.5348 37.3774 21.5029 37.3028 21.4574 37.2365C21.4118 37.1701 21.3534 37.1132 21.2855 37.0691C21.2176 37.0249 21.1415 36.9944 21.0616 36.9791C20.7249 36.9146 20.4003 37.1314 20.3353 37.4621L20.0775 38.7731C20.0771 38.7751 20.076 38.7769 20.0744 38.7782C20.0728 38.7795 20.0708 38.7802 20.0687 38.7802H15.9443C15.9422 38.7802 15.9402 38.7795 15.9386 38.7782C15.937 38.7769 15.9359 38.7751 15.9355 38.7731L15.2594 35.3354C15.237 35.2214 15.182 35.116 15.1008 35.0317C15.0196 34.9474 14.9156 34.8877 14.8011 34.8595C13.5443 34.5506 12.3411 34.0598 11.2307 33.4031C11.1295 33.3434 11.0131 33.3133 10.8951 33.3164C10.7771 33.3195 10.6624 33.3556 10.5646 33.4206L7.61545 35.3816C7.61378 35.3828 7.61173 35.3834 7.60968 35.3832C7.60763 35.383 7.60573 35.382 7.60433 35.3805L4.68789 32.5105C4.68642 32.5091 4.68551 32.5072 4.68532 32.5052C4.68513 32.5032 4.68567 32.5012 4.68686 32.4995L6.67947 29.5973C6.74553 29.5011 6.7823 29.3882 6.78545 29.2721C6.7886 29.156 6.758 29.0414 6.69726 28.9418C6.03011 27.849 5.53137 26.6649 5.21732 25.4281C5.18873 25.3154 5.12804 25.2131 5.04238 25.1332C4.95671 25.0533 4.84965 24.9992 4.73378 24.9771L1.24177 24.3127C1.24154 24.3125 1.23947 24.3101 1.23947 24.3032V22.8836H7.53019C7.85202 28.2955 12.428 32.6012 18.0066 32.6012C23.5852 32.6012 28.1612 28.2955 28.4831 22.8836H34.7604V24.303C34.7605 24.3067 34.7602 24.3104 34.7596 24.3141L31.2795 24.977C31.1636 24.999 31.0565 25.0532 30.9709 25.1331C30.8852 25.213 30.8245 25.3153 30.7959 25.428C30.4819 26.6648 29.9832 27.8489 29.316 28.9416C29.2553 29.0412 29.2247 29.1558 29.2278 29.272C29.231 29.3881 29.2677 29.5009 29.3338 29.5972L31.3264 32.4993C31.3275 32.501 31.3281 32.503 31.3279 32.505C31.3277 32.507 31.3268 32.5089 31.3254 32.5103L28.4089 35.3804C28.4075 35.3819 28.4056 35.3828 28.4035 35.383C28.4015 35.3832 28.3994 35.3826 28.3977 35.3814L25.4487 33.4205C25.3508 33.3555 25.2362 33.3193 25.1182 33.3162C25.0002 33.3131 24.8837 33.3432 24.7825 33.403C23.6722 34.0596 22.4689 34.5504 21.2122 34.8594C21.0527 34.8986 20.9156 34.9985 20.8309 35.1372C20.7463 35.2759 20.7212 35.442 20.761 35.5989C20.8008 35.7558 20.9024 35.8908 21.0433 35.9741C21.1842 36.0573 21.353 36.0821 21.5125 36.0429C22.7589 35.7365 23.9578 35.2666 25.077 34.6457L27.7036 36.3922C28.198 36.721 28.8633 36.6584 29.2855 36.243L32.202 33.373C32.6239 32.9577 32.6877 32.303 32.3536 31.8164L30.5787 29.2314C31.1443 28.2442 31.5869 27.1934 31.8969 26.1019L35.0082 25.5092C35.5922 25.398 36 24.902 36 24.303V19.0259C36 17.8655 35.0413 16.9213 33.8628 16.9213ZM29.8815 15.7018C29.8815 15.6491 29.9251 15.6062 29.9786 15.6062H32.1496C32.1634 15.7005 32.1766 15.795 32.1883 15.8897C32.1966 15.957 32.204 16.0245 32.2113 16.0919C32.2268 16.2336 32.2401 16.3756 32.2511 16.5177C32.2605 16.6412 32.2687 16.7647 32.2747 16.8886C32.2752 16.8995 32.2761 16.9104 32.2766 16.9212H29.8815V15.7018ZM15.3619 15.7018C15.3619 15.6491 15.4055 15.6062 15.459 15.6062H19.9347C19.9882 15.6062 20.0318 15.6491 20.0318 15.7018V16.9213H15.3619V15.7018ZM3.76509 16.4827C3.76668 16.4624 3.76851 16.4421 3.77017 16.4217C3.79343 16.148 3.82575 15.8762 3.86584 15.6062H6.03469C6.0882 15.6062 6.13178 15.6491 6.13178 15.7018V16.9213H3.73683C3.74366 16.7747 3.75342 16.6285 3.76509 16.4827ZM34.7604 21.6637H13.9752C13.6329 21.6637 13.3555 21.9368 13.3555 22.2737C13.3555 22.6105 13.6329 22.8836 13.9752 22.8836H27.2403C26.9203 27.6223 22.9015 31.3813 18.0067 31.3813C13.1118 31.3813 9.093 27.6223 8.77299 22.8836H10.7936C11.136 22.8836 11.4134 22.6105 11.4134 22.2737C11.4134 21.9368 11.136 21.6637 10.7936 21.6637H1.23955V19.0259C1.23955 18.538 1.64824 18.1412 2.1506 18.1412H33.8628C34.3578 18.1412 34.7604 18.5381 34.7604 19.0259V21.6637Z" fill="#00A7AC"/>
</svg>
