<svg width="30" height="30" viewBox="0 0 30 30" fill="none" xmlns="http://www.w3.org/2000/svg">
<path d="M4.3862 25.6115C7.31268 28.5345 11.1555 30 14.9982 30C18.841 30 22.6838 28.5385 25.6103 25.6115C31.4632 19.7574 31.4632 10.2375 25.6103 4.38751C19.7613 -1.4625 10.2392 -1.4625 4.39023 4.38751C-1.46274 10.2375 -1.46274 19.7574 4.3862 25.6115ZM5.24194 5.23938C7.93027 2.55055 11.4622 1.20614 14.9982 1.20614C18.5342 1.20614 22.0622 2.55055 24.7545 5.23938C30.1352 10.6211 30.1352 19.3739 24.7545 24.7515C19.3738 30.1292 10.6226 30.1292 5.24598 24.7515C-0.134719 19.3739 -0.134719 10.6211 5.24194 5.23938Z" fill="#02AFA5"/>
<path d="M9.4794 20.5164C9.59646 20.6334 9.75388 20.694 9.90727 20.694C10.0607 20.694 10.2181 20.6334 10.3351 20.5164L14.9973 15.8533L19.6595 20.5164C19.7766 20.6334 19.934 20.694 20.0874 20.694C20.2408 20.694 20.3982 20.6334 20.5153 20.5164C20.7534 20.2782 20.7534 19.8946 20.5153 19.6605L15.8531 14.9974L20.5153 10.3344C20.7534 10.0962 20.7534 9.71262 20.5153 9.47845C20.2771 9.24429 19.8936 9.24025 19.6595 9.47845L14.9973 14.1415L10.3351 9.47845C10.097 9.24025 9.71352 9.24025 9.4794 9.47845C9.24528 9.71665 9.24124 10.1002 9.4794 10.3344L14.1416 14.9974L9.4794 19.6605C9.24124 19.8987 9.24124 20.2822 9.4794 20.5164Z" fill="#02AFA5"/>
</svg>
