<svg width="13" height="13" viewBox="0 0 13 13" fill="none" xmlns="http://www.w3.org/2000/svg">
<path d="M4.0625 6.09478C4.0625 6.32569 3.9769 6.54714 3.82452 6.71042C3.67215 6.8737 3.46549 6.96543 3.25 6.96543C3.03451 6.96543 2.82785 6.8737 2.67548 6.71042C2.5231 6.54714 2.4375 6.32569 2.4375 6.09478C2.4375 5.86386 2.5231 5.64241 2.67548 5.47913C2.82785 5.31585 3.03451 5.22412 3.25 5.22412C3.46549 5.22412 3.67215 5.31585 3.82452 5.47913C3.9769 5.64241 4.0625 5.86386 4.0625 6.09478ZM7.3125 6.09478C7.3125 6.32569 7.2269 6.54714 7.07452 6.71042C6.92215 6.8737 6.71549 6.96543 6.5 6.96543C6.28451 6.96543 6.07785 6.8737 5.92548 6.71042C5.7731 6.54714 5.6875 6.32569 5.6875 6.09478C5.6875 5.86386 5.7731 5.64241 5.92548 5.47913C6.07785 5.31585 6.28451 5.22412 6.5 5.22412C6.71549 5.22412 6.92215 5.31585 7.07452 5.47913C7.2269 5.64241 7.3125 5.86386 7.3125 6.09478ZM9.75 6.96543C9.96549 6.96543 10.1722 6.8737 10.3245 6.71042C10.4769 6.54714 10.5625 6.32569 10.5625 6.09478C10.5625 5.86386 10.4769 5.64241 10.3245 5.47913C10.1722 5.31585 9.96549 5.22412 9.75 5.22412C9.53451 5.22412 9.32785 5.31585 9.17548 5.47913C9.0231 5.64241 8.9375 5.86386 8.9375 6.09478C8.9375 6.32569 9.0231 6.54714 9.17548 6.71042C9.32785 6.8737 9.53451 6.96543 9.75 6.96543Z" fill="#00A7AC"/>
<path d="M1.75906 12.8883L1.77531 12.8848C3.26219 12.5688 4.17056 12.1517 4.59306 11.9228C5.2151 12.1005 5.85622 12.1901 6.5 12.1892C10.0896 12.1892 13 9.46054 13 6.09459C13 2.72863 10.0896 0 6.5 0C2.91037 0 0 2.72863 0 6.09459C0 7.62694 0.603688 9.0287 1.60063 10.0996C1.53088 10.7875 1.38804 11.4646 1.17488 12.1178L1.17244 12.1274C1.11186 12.3144 1.04574 12.4994 0.974187 12.682C0.91 12.8439 1.03431 13.025 1.196 12.9971C1.38423 12.9641 1.57194 12.9279 1.75906 12.8883ZM2.40906 10.1823C2.42044 10.0548 2.40545 9.92626 2.36514 9.80571C2.32483 9.68517 2.26021 9.57563 2.17587 9.48492C1.31463 8.55854 0.8125 7.37271 0.8125 6.09459C0.8125 3.31546 3.25325 0.870655 6.5 0.870655C9.74675 0.870655 12.1875 3.31546 12.1875 6.09459C12.1875 8.87459 9.74675 11.3185 6.5 11.3185C5.92727 11.3194 5.3569 11.2398 4.8035 11.0817C4.61011 11.0262 4.40439 11.0491 4.22581 11.1461C3.91138 11.3168 3.21831 11.6424 2.08569 11.9236C2.2437 11.3552 2.35196 10.7722 2.40906 10.1823Z" fill="#00A7AC"/>
</svg>
