<svg width="16" height="14" viewBox="0 0 16 14" fill="none" xmlns="http://www.w3.org/2000/svg">
<path d="M10.8125 0H5.18751C4.98042 0 4.81251 0.162818 4.81251 0.363636V1.93164H1.52713C0.685064 1.93161 0 2.59591 0 3.41242V12.5192C0 13.3357 0.685064 14 1.52713 14H14.4729C15.3149 14 16 13.3357 16 12.5192V3.41242C16 2.59591 15.3149 1.93161 14.4729 1.93161H11.1875V0.363636C11.1875 0.162788 11.0196 0 10.8125 0ZM5.56251 0.727273H10.4375V1.93164H5.56251V0.727273ZM14.4729 13.2728H1.52713C1.09863 13.2728 0.750002 12.9347 0.750002 12.5192V5.72352L6.06251 7.66661V8.7727C6.06251 8.97352 6.23042 9.13633 6.43751 9.13633H9.56252C9.76961 9.13633 9.93752 8.97352 9.93752 8.7727V7.66661L15.25 5.72355V12.5192C15.25 12.9347 14.9014 13.2728 14.4729 13.2728ZM6.81251 8.40906V7.31815H9.18752V8.40906H6.81251ZM15.25 3.41242V4.94624L9.93152 6.89152C9.90071 6.72079 9.74743 6.59088 9.56252 6.59088H6.43751C6.25261 6.59088 6.09932 6.72076 6.06851 6.89152L0.750002 4.94627V3.41242C0.750002 2.99691 1.0986 2.65888 1.52713 2.65888H14.4729C14.9014 2.65888 15.25 2.99691 15.25 3.41242ZM14.3009 11.8939C14.3009 12.0947 14.133 12.2575 13.9259 12.2575H10.8477C10.6406 12.2575 10.4727 12.0947 10.4727 11.8939C10.4727 11.6931 10.6406 11.5302 10.8477 11.5302H13.9259C14.133 11.5302 14.3009 11.6931 14.3009 11.8939ZM2.0196 3.95448C2.0196 3.75367 2.1875 3.59085 2.3946 3.59085H4.36335C4.57045 3.59085 4.73835 3.75367 4.73835 3.95448C4.73835 4.1553 4.57045 4.31812 4.36335 4.31812H2.3946C2.1875 4.31812 2.0196 4.1553 2.0196 3.95448Z" fill="#00A7AC"/>
</svg>
