<svg width="35" height="34" viewBox="0 0 35 34" fill="none" xmlns="http://www.w3.org/2000/svg">
<path d="M19.9107 12.7604L32.4132 15.2333C33.4208 15.4452 34.102 16.2931 34.102 17.2964V31.7095C34.102 32.8824 33.1512 33.8291 31.9733 33.8291H19.2012C19.5985 33.8291 19.9107 33.5183 19.9107 33.1226V32.4161H31.9733C32.3565 32.4161 32.6828 32.1052 32.6828 31.7095V17.2964C32.6828 16.9713 32.4558 16.6746 32.1294 16.604L19.9107 14.2018V12.7604Z" fill="#00A7AC"/>
<path d="M27.7158 19.6985C28.1131 19.6985 28.4253 20.0094 28.4253 20.4051C28.4253 20.8007 28.1131 21.1116 27.7158 21.1116H24.8775C24.4802 21.1116 24.168 20.8007 24.168 20.4051C24.168 20.0094 24.4802 19.6985 24.8775 19.6985H27.7158Z" fill="#00A7AC"/>
<path d="M27.7158 23.9377C28.1131 23.9377 28.4253 24.2486 28.4253 24.6442C28.4253 25.0399 28.1131 25.3508 27.7158 25.3508H24.8775C24.4802 25.3508 24.168 25.0399 24.168 24.6442C24.168 24.2486 24.4802 23.9377 24.8775 23.9377H27.7158Z" fill="#00A7AC"/>
<path d="M27.7158 28.1769C28.1131 28.1769 28.4253 28.4878 28.4253 28.8834C28.4253 29.2791 28.1131 29.59 27.7158 29.59H24.8775C24.4802 29.59 24.168 29.2791 24.168 28.8834C24.168 28.4878 24.4802 28.1769 24.8775 28.1769H27.7158Z" fill="#00A7AC"/>
<path d="M19.9103 33.1226C19.9103 33.5183 19.5981 33.8291 19.2008 33.8291C18.8034 33.8291 18.4912 33.5183 18.4912 33.1226V32.4161V13.3398C18.4912 13.1278 18.5906 12.93 18.7467 12.7887C18.9169 12.6615 19.1298 12.605 19.3427 12.6474L19.9103 12.7604V14.2018V32.4161V33.1226Z" fill="#00A7AC"/>
<path d="M18.4923 32.4161V33.1226C18.4923 33.5183 18.8045 33.8292 19.2019 33.8292H13.5254C13.9227 33.8292 14.235 33.5183 14.235 33.1226V32.4161H18.4923Z" fill="#00A7AC"/>
<path d="M14.9433 6.98102C15.3407 6.98102 15.6529 7.29189 15.6529 7.68755C15.6529 8.0832 15.3407 8.39408 14.9433 8.39408H12.1051C11.7077 8.39408 11.3955 8.0832 11.3955 7.68755C11.3955 7.29189 11.7077 6.98102 12.1051 6.98102H14.9433Z" fill="#00A7AC"/>
<path d="M15.6529 11.9267C15.6529 12.3224 15.3407 12.6333 14.9433 12.6333H12.1051C11.7077 12.6333 11.3955 12.3224 11.3955 11.9267C11.3955 11.5311 11.7077 11.2202 12.1051 11.2202H14.9433C15.3407 11.2202 15.6529 11.5311 15.6529 11.9267Z" fill="#00A7AC"/>
<path d="M14.9433 15.4594C15.3407 15.4594 15.6529 15.7702 15.6529 16.1659C15.6529 16.5616 15.3407 16.8724 14.9433 16.8724H12.1051C11.7077 16.8724 11.3955 16.5616 11.3955 16.1659C11.3955 15.7702 11.7077 15.4594 12.1051 15.4594H14.9433Z" fill="#00A7AC"/>
<path d="M14.9433 19.6985C15.3407 19.6985 15.6529 20.0094 15.6529 20.4051C15.6529 20.8007 15.3407 21.1116 14.9433 21.1116H12.1051C11.7077 21.1116 11.3955 20.8007 11.3955 20.4051C11.3955 20.0094 11.7077 19.6985 12.1051 19.6985H14.9433Z" fill="#00A7AC"/>
<path d="M8.55815 20.4051C8.55815 20.8007 8.24595 21.1116 7.84859 21.1116H5.01034C4.61299 21.1116 4.30078 20.8007 4.30078 20.4051C4.30078 20.0094 4.61299 19.6985 5.01034 19.6985H7.84859C8.24595 19.6985 8.55815 20.0094 8.55815 20.4051Z" fill="#00A7AC"/>
<path d="M7.84859 6.98102C8.24595 6.98102 8.55815 7.29189 8.55815 7.68755C8.55815 8.0832 8.24595 8.39408 7.84859 8.39408H5.01034C4.61299 8.39408 4.30078 8.0832 4.30078 7.68755C4.30078 7.29189 4.61299 6.98102 5.01034 6.98102H7.84859Z" fill="#00A7AC"/>
<path d="M7.84859 11.2202C8.24595 11.2202 8.55815 11.5311 8.55815 11.9267C8.55815 12.3224 8.24595 12.6333 7.84859 12.6333H5.01034C4.61299 12.6333 4.30078 12.3224 4.30078 11.9267C4.30078 11.5311 4.61299 11.2202 5.01034 11.2202H7.84859Z" fill="#00A7AC"/>
<path d="M7.84859 15.4594C8.24595 15.4594 8.55815 15.7702 8.55815 16.1659C8.55815 16.5616 8.24595 16.8724 7.84859 16.8724H5.01034C4.61299 16.8724 4.30078 16.5616 4.30078 16.1659C4.30078 15.7702 4.61299 15.4594 5.01034 15.4594H7.84859Z" fill="#00A7AC"/>
<path d="M12.8153 26.0573C12.8153 25.6617 12.4889 25.3508 12.1058 25.3508H7.84841C7.45106 25.3508 7.13885 25.6617 7.13885 26.0573V32.4161H5.71973V26.0573C5.71973 24.8845 6.67054 23.9377 7.84841 23.9377H12.1058C13.2837 23.9377 14.2345 24.8845 14.2345 26.0573V32.4161H12.8153V26.0573Z" fill="#00A7AC"/>
<path d="M7.13885 32.4161H12.8153H14.2345V33.1226C14.2345 33.5183 13.9223 33.8292 13.5249 33.8292H6.42929C6.03193 33.8292 5.71973 33.5183 5.71973 33.1226V32.4161H7.13885Z" fill="#00A7AC"/>
<path d="M2.52644 0.198369L18.1226 2.55818C19.1586 2.72774 19.9107 3.60384 19.9107 4.6495V12.7604L19.3431 12.6474C19.1302 12.605 18.9173 12.6615 18.747 12.7887C18.5909 12.93 18.4916 13.1278 18.4916 13.3398V4.6495C18.4916 4.29624 18.2361 3.99949 17.8955 3.94297L2.29938 1.5973C2.2568 1.58317 2.21423 1.58317 2.17165 1.58317C2.00136 1.58317 1.84526 1.63969 1.71754 1.75273C1.54724 1.89404 1.46209 2.07774 1.46209 2.28969V31.7096C1.46209 32.1052 1.78849 32.4161 2.17165 32.4161H5.71946V33.1226C5.71946 33.5183 6.03167 33.8291 6.42903 33.8291H2.17165C0.993782 33.8291 0.0429688 32.8824 0.0429688 31.7096V2.28969C0.0429688 1.66795 0.312602 1.07446 0.795104 0.678809C1.27761 0.269022 1.90202 0.0994551 2.52644 0.198369Z" fill="#00A7AC"/>
</svg>
