<svg width="12" height="11" viewBox="0 0 12 11" fill="none" xmlns="http://www.w3.org/2000/svg">
<path d="M8.10939 0H3.89063C3.73531 0 3.60938 0.127929 3.60938 0.285714V1.51771H1.14535C0.513798 1.51769 0 2.03964 0 2.68119V9.83648C0 10.478 0.513798 11 1.14535 11H10.8547C11.4862 11 12 10.478 12 9.83648V2.68119C12 2.03964 11.4862 1.51769 10.8547 1.51769H8.39064V0.285714C8.39064 0.127905 8.26474 0 8.10939 0ZM4.17188 0.571429H7.82814V1.51771H4.17188V0.571429ZM10.8547 10.4286H1.14535C0.82397 10.4286 0.562501 10.163 0.562501 9.8365V4.49705L4.54688 6.02376V6.89283C4.54688 7.05062 4.67281 7.17855 4.82813 7.17855H7.17189C7.32721 7.17855 7.45314 7.05062 7.45314 6.89283V6.02376L11.4375 4.49707V9.8365C11.4375 10.163 11.1761 10.4286 10.8547 10.4286ZM5.10939 6.60712V5.74998H6.89064V6.60712H5.10939ZM11.4375 2.68119V3.88633L7.44864 5.41476C7.42553 5.28062 7.31057 5.17855 7.17189 5.17855H4.82813C4.68945 5.17855 4.57449 5.2806 4.55138 5.41476L0.562501 3.88636V2.68119C0.562501 2.35471 0.823947 2.08912 1.14535 2.08912H10.8547C11.1761 2.08912 11.4375 2.35471 11.4375 2.68119ZM10.7257 9.34519C10.7257 9.50298 10.5997 9.6309 10.4444 9.6309H8.13578C7.98046 9.6309 7.85453 9.50298 7.85453 9.34519C7.85453 9.1874 7.98046 9.05948 8.13578 9.05948H10.4444C10.5997 9.05948 10.7257 9.1874 10.7257 9.34519ZM1.5147 3.1071C1.5147 2.94931 1.64063 2.82138 1.79595 2.82138H3.27251C3.42783 2.82138 3.55376 2.94931 3.55376 3.1071C3.55376 3.26488 3.42783 3.39281 3.27251 3.39281H1.79595C1.64063 3.39281 1.5147 3.26488 1.5147 3.1071Z" fill="#00A7AC"/>
</svg>
