<svg width="40" height="40" viewBox="0 0 40 40" fill="none" xmlns="http://www.w3.org/2000/svg">
<path d="M32.3446 11.6214C32.776 11.6214 33.1259 11.2716 33.1259 10.8401V2.34381C33.1259 1.05143 32.0745 0 30.7821 0H2.34381C1.05143 0 0 1.05143 0 2.34381V37.6573C0 38.9496 1.05143 40.0011 2.34381 40.0011H30.7821C32.0745 40.0011 33.1259 38.9496 33.1259 37.6573V31.9015C33.1259 31.47 32.776 31.1202 32.3446 31.1202C31.9132 31.1202 31.5634 31.47 31.5634 31.9015V37.6573C31.5634 38.0881 31.2129 38.4385 30.7821 38.4385H2.34381C1.91302 38.4385 1.56254 38.0881 1.56254 37.6573V2.34381C1.56254 1.91302 1.91302 1.56254 2.34381 1.56254H30.7821C31.2129 1.56254 31.5634 1.91302 31.5634 2.34381V10.8401C31.5634 11.2716 31.9132 11.6214 32.3446 11.6214Z" fill="#00A7AC"/>
<path d="M16.5627 4.21875C12.5994 4.21875 9.375 7.44313 9.375 11.4064C9.375 13.4625 10.243 15.3194 11.6315 16.6307C11.6575 16.6585 11.6851 16.6849 11.7154 16.7089C12.9944 17.8791 14.6965 18.5941 16.5626 18.5941C18.4287 18.5941 20.1308 17.879 21.4099 16.7089C21.4401 16.6849 21.4677 16.6585 21.4938 16.6307C22.8824 15.3194 23.7504 13.4625 23.7504 11.4064C23.7504 7.44313 20.526 4.21875 16.5627 4.21875ZM16.5627 17.0316C15.287 17.0316 14.1096 16.6041 13.1649 15.8856C13.8515 14.668 15.1329 13.9065 16.5627 13.9065C17.9925 13.9065 19.2739 14.668 19.9605 15.8856C19.0157 16.6041 17.8384 17.0316 16.5627 17.0316ZM15.3127 11.0939V10.5861C15.3127 9.89687 15.8735 9.33608 16.5627 9.33608C17.2519 9.33608 17.8127 9.89687 17.8127 10.5861V11.0939C17.8127 11.7832 17.2519 12.344 16.5627 12.344C15.8735 12.344 15.3127 11.7832 15.3127 11.0939ZM21.0894 14.7411C20.5132 13.8866 19.7147 13.222 18.7875 12.8116C19.1555 12.3361 19.3753 11.7404 19.3753 11.0939V10.5861C19.3753 9.03521 18.1136 7.77353 16.5627 7.77353C15.0118 7.77353 13.7501 9.03521 13.7501 10.5861V11.0939C13.7501 11.7404 13.9699 12.3361 14.3379 12.8116C13.4107 13.222 12.6122 13.8866 12.036 14.7411C11.3462 13.8073 10.9375 12.6539 10.9375 11.4064C10.9375 8.30472 13.461 5.78129 16.5627 5.78129C19.6644 5.78129 22.1878 8.30472 22.1878 11.4064C22.1878 12.6539 21.7792 13.8073 21.0894 14.7411Z" fill="#00A7AC"/>
<path d="M20.7814 34.2197H16.5625C16.1311 34.2197 15.7812 34.5695 15.7812 35.001C15.7812 35.4325 16.1311 35.7823 16.5625 35.7823H20.7814C21.2128 35.7823 21.5627 35.4325 21.5627 35.001C21.5627 34.5695 21.2128 34.2197 20.7814 34.2197Z" fill="#00A7AC"/>
<path d="M20.7816 29.8445H9.68752C9.2561 29.8445 8.90625 30.1943 8.90625 30.6258C8.90625 31.0572 9.2561 31.407 9.68752 31.407H20.7816C21.213 31.407 21.5628 31.0572 21.5628 30.6258C21.5628 30.1943 21.213 29.8445 20.7816 29.8445Z" fill="#00A7AC"/>
<path d="M20.7816 25.4695H9.68752C9.2561 25.4695 8.90625 25.8193 8.90625 26.2508C8.90625 26.6822 9.2561 27.032 9.68752 27.032H20.7816C21.213 27.032 21.5628 26.6822 21.5628 26.2508C21.5628 25.8193 21.213 25.4695 20.7816 25.4695Z" fill="#00A7AC"/>
<path d="M6.90367 21.3232C6.75843 21.1778 6.55686 21.0942 6.35061 21.0942C6.14505 21.0942 5.94349 21.1778 5.79825 21.3232C5.65293 21.4685 5.56934 21.67 5.56934 21.8755C5.56934 22.081 5.65285 22.2826 5.79825 22.4279C5.94435 22.5732 6.14505 22.6568 6.35061 22.6568C6.55686 22.6568 6.75765 22.5732 6.90367 22.4279C7.04898 22.2826 7.13266 22.081 7.13266 21.8755C7.13266 21.67 7.04906 21.4685 6.90367 21.3232Z" fill="#00A7AC"/>
<path d="M6.90367 25.6984C6.75765 25.5531 6.55686 25.4695 6.35061 25.4695C6.14505 25.4695 5.94435 25.5531 5.79825 25.6984C5.65293 25.8437 5.56934 26.0453 5.56934 26.2508C5.56934 26.4562 5.65285 26.6578 5.79825 26.8031C5.94435 26.9484 6.14505 27.032 6.35061 27.032C6.55686 27.032 6.75765 26.9484 6.90367 26.8031C7.04898 26.6578 7.13266 26.4562 7.13266 26.2508C7.13266 26.0453 7.04906 25.8437 6.90367 25.6984Z" fill="#00A7AC"/>
<path d="M6.90367 30.0734C6.75765 29.9281 6.55686 29.8445 6.35061 29.8445C6.14505 29.8445 5.94435 29.9281 5.79825 30.0734C5.65293 30.2187 5.56934 30.4203 5.56934 30.6258C5.56934 30.8312 5.65285 31.0328 5.79825 31.1781C5.94349 31.3234 6.14505 31.407 6.35061 31.407C6.55686 31.407 6.75843 31.3234 6.90367 31.1781C7.04898 31.0328 7.13266 30.8312 7.13266 30.6258C7.13266 30.4203 7.04906 30.2187 6.90367 30.0734Z" fill="#00A7AC"/>
<path d="M20.7816 21.0942H9.68752C9.2561 21.0942 8.90625 21.444 8.90625 21.8755C8.90625 22.307 9.2561 22.6568 9.68752 22.6568H20.7816C21.213 22.6568 21.5628 22.307 21.5628 21.8755C21.5628 21.444 21.213 21.0942 20.7816 21.0942Z" fill="#00A7AC"/>
<path d="M38.3598 10.1815C37.6008 9.74328 36.7166 9.62687 35.8698 9.85367C35.0232 10.0806 34.3156 10.6235 33.8774 11.3825L24.0457 28.4114C23.9919 28.5047 23.9579 28.6082 23.9459 28.7153L23.2538 34.9143C23.2195 35.2227 23.3709 35.5223 23.6396 35.6776C23.761 35.7476 23.8957 35.7823 24.0302 35.7823C24.1936 35.7823 24.3565 35.7311 24.4936 35.6301L29.5159 31.9312C29.6027 31.8673 29.6754 31.7861 29.7292 31.6928L39.5608 14.664C40.4655 13.097 39.9267 11.0862 38.3598 10.1815ZM25.0048 33.3129L25.3662 30.0759L27.6274 31.3814L25.0048 33.3129ZM28.7667 30.2348L25.7896 28.516L33.6793 14.8508L36.6563 16.5696L28.7667 30.2348ZM38.2076 13.8826L37.4375 15.2165L34.4605 13.4977L35.2306 12.1638C35.4601 11.7662 35.8308 11.4818 36.2742 11.363C36.7178 11.2441 37.1809 11.3052 37.5785 11.5347C37.976 11.7643 38.2604 12.1349 38.3793 12.5784C38.4981 13.0218 38.4371 13.485 38.2076 13.8826Z" fill="#00A7AC"/>
</svg>
