<svg width="26" height="26" viewBox="0 0 26 26" fill="none" xmlns="http://www.w3.org/2000/svg">
<g opacity="0.85">
<path d="M23.4936 3.53472C24.0417 3.53472 24.4852 3.09754 24.4852 2.55725C24.4852 2.01696 24.0417 1.57977 23.4936 1.57977C22.9455 1.57977 22.502 2.01696 22.502 2.55725C22.502 3.09754 22.9497 3.53472 23.4936 3.53472ZM23.4936 2.27679C23.6526 2.27679 23.7823 2.40465 23.7823 2.56137C23.7823 2.7181 23.6526 2.84595 23.4936 2.84595C23.3304 2.84595 23.2049 2.72222 23.2049 2.56137C23.2049 2.40052 23.3346 2.27679 23.4936 2.27679Z" fill="#00A7AC"/>
<path d="M24.5941 0H4.2092C3.43515 0 2.80335 0.622779 2.80335 1.38579V3.50159H1.40586C0.631799 3.50159 0 4.12437 0 4.88737V22.2633C0 23.0263 0.631799 23.6491 1.40586 23.6491H10.749V25.6536C10.749 25.8433 10.9079 26 11.1004 26H17.7029C17.8954 26 18.0544 25.8433 18.0544 25.6536V23.6491H21.7908C22.5649 23.6491 23.1967 23.0263 23.1967 22.2633V20.1475H24.5941C25.3682 20.1475 26 19.5247 26 18.7617V1.38579C26 0.622779 25.3682 0 24.5941 0ZM3.50628 1.38579C3.50628 1.00222 3.82427 0.692893 4.2092 0.692893H24.5941C24.9833 0.692893 25.2971 1.00635 25.2971 1.38579V4.42544H11.9582L10.3891 2.82107C10.2678 2.69734 10.1004 2.62722 9.92887 2.62722H6.4728C6.12134 2.62722 5.83264 2.9118 5.83264 3.25825V4.42544H3.50628V1.38579ZM1.40586 22.9603C1.01674 22.9603 0.702929 22.6469 0.702929 22.2675V4.88737C0.702929 4.50381 1.02092 4.19448 1.40586 4.19448H2.80335V18.7659C2.80335 19.5289 3.43515 20.1517 4.2092 20.1517H11.841C11.9791 20.4156 12.0418 20.7126 12.0167 21.0178H11.4728C11.0711 21.0178 10.749 21.3395 10.749 21.7313V22.9603H1.40586ZM14.0544 15.7056C14.1255 15.5819 14.2552 15.5035 14.4017 15.5035C14.6192 15.5035 14.795 15.6767 14.795 15.8912C14.795 16.0314 14.7197 16.1593 14.5983 16.2294C14.4644 16.3077 14.3054 16.2995 14.1423 16.2088C14.1213 16.1964 14.1004 16.1799 14.092 16.1593C13.9582 15.9489 14.0126 15.7839 14.0544 15.7056ZM14.0502 14.8766C13.795 14.9632 13.5774 15.1323 13.4435 15.3715C13.2427 15.7262 13.2678 16.1593 13.5021 16.5305C13.5774 16.6459 13.6778 16.7408 13.7992 16.8109C13.9916 16.9181 14.2008 16.9759 14.4059 16.9759C14.5983 16.9759 14.7866 16.9264 14.954 16.8315C15.2887 16.6377 15.4979 16.2789 15.4979 15.8953C15.4979 15.421 15.1841 15.0209 14.7531 14.8766V13.0949L17.8619 18.6256C17.8577 18.6298 17.8536 18.638 17.841 18.6421C16.7406 18.9226 16.0209 19.9372 16.0795 21.0178H12.728C12.7908 19.9331 12.0669 18.9185 10.9456 18.6091L14.0502 13.0949V14.8766ZM17.3515 25.3071H11.4519L11.4728 21.7065H17.3305C17.3431 21.7065 17.3515 21.7148 17.3515 21.7272V25.3071ZM22.4937 22.2633C22.4937 22.6469 22.1757 22.9562 21.7908 22.9562H18.0544V21.7272C18.0544 21.3312 17.728 21.0136 17.3305 21.0136H16.7866C16.7615 20.7084 16.8285 20.4115 16.9623 20.1475H22.4937V22.2633ZM24.5941 19.4588H17.6444C17.7573 19.3969 17.8787 19.3433 18.0126 19.3103C18.2343 19.2525 18.4142 19.0999 18.5063 18.8937C18.5941 18.6916 18.5816 18.4648 18.4728 18.2709L14.8745 11.8823C14.7824 11.7132 14.6025 11.606 14.4059 11.606C14.205 11.6101 14.0251 11.7091 13.9289 11.8782L10.3264 18.2709C10.2176 18.4648 10.2092 18.6957 10.2971 18.8978C10.3849 19.1041 10.5649 19.2525 10.7866 19.3103C10.9205 19.3433 11.0377 19.3969 11.1548 19.4588H4.2092C3.82008 19.4588 3.50628 19.1453 3.50628 18.7659V5.11834H5.89121C6.24268 5.11834 6.53138 4.83376 6.53138 4.48731V3.32011H9.89958L11.4686 4.92449C11.59 5.04822 11.7573 5.11834 11.9289 5.11834H25.2971V18.7617C25.2971 19.1453 24.9833 19.4588 24.5941 19.4588Z" fill="#00A7AC"/>
<path d="M21.1 3.53466C21.6481 3.53466 22.0917 3.09748 22.0917 2.55719C22.0917 2.01689 21.6481 1.57971 21.1 1.57971C20.5519 1.57971 20.1084 2.01689 20.1084 2.55719C20.1084 3.09748 20.5519 3.53466 21.1 3.53466ZM21.1 2.27673C21.259 2.27673 21.3887 2.40459 21.3887 2.56131C21.3887 2.71804 21.259 2.84589 21.1 2.84589C20.9368 2.84589 20.8113 2.72216 20.8113 2.56131C20.8113 2.40046 20.941 2.27673 21.1 2.27673Z" fill="#00A7AC"/>
<path d="M18.7026 3.53472C19.2507 3.53472 19.6942 3.09754 19.6942 2.55725C19.6942 2.01696 19.2507 1.57977 18.7026 1.57977C18.1545 1.57977 17.7109 2.01696 17.7109 2.55725C17.7109 3.09754 18.1545 3.53472 18.7026 3.53472ZM18.7026 2.27679C18.8616 2.27679 18.9913 2.40465 18.9913 2.56137C18.9913 2.7181 18.8616 2.84595 18.7026 2.84595C18.5394 2.84595 18.4139 2.72222 18.4139 2.56137C18.4139 2.40052 18.5436 2.27679 18.7026 2.27679Z" fill="#00A7AC"/>
<path d="M21.1758 8.13737C20.9708 8.33946 20.8411 8.59518 20.7909 8.86738H15.8745V8.32297C15.8745 7.95177 15.5691 7.6507 15.1925 7.6507H13.6068C13.2302 7.6507 12.9248 7.95177 12.9248 8.32297V8.86738H8.01263C7.9666 8.5993 7.83689 8.34359 7.62769 8.13325C7.09631 7.6177 6.18836 7.62595 5.66953 8.13737C5.40593 8.39721 5.26367 8.73953 5.26367 9.10247C5.26367 9.46954 5.41012 9.81599 5.66953 10.0676C5.93313 10.3357 6.28459 10.4718 6.64861 10.4718C6.87873 10.4718 7.11304 10.4181 7.3348 10.3068C7.57329 10.1872 7.76995 9.98921 7.8871 9.74587C7.91639 9.68401 7.9415 9.62214 7.96242 9.56028H11.3725C9.5189 10.4511 8.12141 12.1256 7.63606 14.1466H7.09212C6.71555 14.1466 6.41012 14.4476 6.41012 14.8188V16.382C6.41012 16.7532 6.71555 17.0542 7.09212 17.0542H8.6779C9.05447 17.0542 9.35991 16.7532 9.35991 16.382V14.8188C9.35991 14.4476 9.05447 14.1466 8.6779 14.1466H8.35991C8.94568 11.9689 10.7156 10.2614 12.9373 9.7335V9.88198C12.9373 10.2532 13.2428 10.5542 13.6193 10.5542H15.2051C15.5817 10.5542 15.8871 10.2532 15.8871 9.88198V9.7335C18.1047 10.2614 19.8746 11.9689 20.4645 14.1466H20.1758C19.7992 14.1466 19.4938 14.4476 19.4938 14.8188V16.382C19.4938 16.7532 19.7992 17.0542 20.1758 17.0542H21.7616C22.1381 17.0542 22.4436 16.7532 22.4436 16.382V14.8188C22.4436 14.4476 22.1381 14.1466 21.7616 14.1466H21.1884C20.6988 12.1256 19.3013 10.447 17.452 9.56028H20.8704C20.9373 9.75 21.0461 9.92322 21.1925 10.0676C21.4561 10.3357 21.8076 10.4718 22.1716 10.4718C22.4017 10.4718 22.6361 10.4181 22.8578 10.3068C23.0963 10.1872 23.293 9.98921 23.4101 9.74587C23.6821 9.18084 23.5858 8.5663 23.1549 8.13325C22.6068 7.62183 21.6988 7.62595 21.1758 8.13737ZM7.24694 9.45304C7.19673 9.55203 7.11304 9.63864 7.01263 9.68813C6.64861 9.8696 6.3348 9.75412 6.16325 9.57677C6.03355 9.45304 5.96242 9.28394 5.96242 9.10247C5.96242 8.92512 6.03355 8.75603 6.16325 8.62405C6.29296 8.49619 6.46451 8.42608 6.64861 8.42608C6.82853 8.42608 7.00426 8.49619 7.12978 8.61992C7.34735 8.84264 7.38919 9.15196 7.24694 9.45304ZM8.66953 16.3614L7.10468 16.382L7.08376 14.8395H8.64861L8.66953 16.3614ZM21.749 16.3614L20.1842 16.382L20.1633 14.8395H21.7281L21.749 16.3614ZM13.6319 9.8861L13.6235 9.36643C13.6319 9.32931 13.6319 9.29219 13.6277 9.25095V9.24682C13.6277 9.23445 13.6361 9.2262 13.6361 9.21383C13.6361 9.19321 13.6277 9.17671 13.6235 9.16021L13.611 8.34771H15.1758L15.1884 9.16021C15.1842 9.18084 15.1758 9.19733 15.1758 9.21795C15.1758 9.23033 15.18 9.23858 15.1842 9.25095V9.25507C15.1758 9.30869 15.18 9.35818 15.1925 9.40355L15.2009 9.8696L13.6319 9.8861ZM22.7574 9.45304C22.7072 9.55203 22.6235 9.63864 22.5231 9.68813C22.1591 9.8696 21.8453 9.75412 21.6737 9.57677C21.544 9.45304 21.4729 9.28394 21.4729 9.10247C21.4729 8.92512 21.544 8.75603 21.6737 8.62405C21.8034 8.49619 21.975 8.42608 22.1591 8.42608C22.339 8.42608 22.5147 8.49619 22.6402 8.61992C22.8578 8.84264 22.8997 9.15196 22.7574 9.45304Z" fill="#00A7AC"/>
</g>
</svg>
