<svg width="38" height="40" viewBox="0 0 38 40" fill="none" xmlns="http://www.w3.org/2000/svg">
<path d="M22.3627 20.3944C22.5208 20.3153 22.7039 20.3023 22.8716 20.3582C23.0393 20.4141 23.178 20.5343 23.257 20.6924L23.3456 20.8696C23.5156 21.2097 23.777 21.4957 24.1005 21.6956C24.4239 21.8955 24.7966 22.0013 25.1768 22.0013C25.557 22.0013 25.9297 21.8955 26.2532 21.6956C26.5766 21.4957 26.838 21.2097 27.008 20.8696L27.0965 20.6925C27.1756 20.5344 27.3142 20.4141 27.4819 20.3582C27.6497 20.3023 27.8327 20.3153 27.9909 20.3944C28.149 20.4735 28.2693 20.6121 28.3252 20.7799C28.3811 20.9476 28.3681 21.1307 28.289 21.2888L28.2004 21.4658C27.9196 22.0273 27.4881 22.4996 26.954 22.8296C26.42 23.1597 25.8046 23.3345 25.1768 23.3345C24.549 23.3345 23.9335 23.1597 23.3995 22.8296C22.8655 22.4996 22.4339 22.0273 22.1531 21.4658L22.0646 21.2887C21.9855 21.1306 21.9725 20.9475 22.0284 20.7798C22.0843 20.6121 22.2046 20.4734 22.3627 20.3944Z" fill="#061421"/>
<path d="M2.21879 14.8084C2.45997 14.1856 2.88199 13.6492 3.43055 13.2683C3.43894 13.244 3.4487 13.2203 3.45979 13.1971C3.94633 12.1942 4.63798 11.3045 5.49 10.5857C6.34201 9.86683 7.33543 9.33484 8.40599 9.02412C7.80056 8.03568 6.88765 7.27309 5.80724 6.85325C5.60719 7.27832 5.26388 7.61939 4.83751 7.81666C4.41115 8.01393 3.92895 8.0548 3.47546 7.93211C3.02197 7.80942 2.62615 7.531 2.35741 7.14567C2.08867 6.76034 1.96415 6.2927 2.0057 5.82476C2.04725 5.35681 2.25222 4.91842 2.58465 4.58648C2.91708 4.25453 3.35577 4.05021 3.82377 4.00934C4.29178 3.96847 4.75924 4.09367 5.14417 4.36297C5.52911 4.63228 5.80695 5.02851 5.92898 5.48217C7.59562 6.02109 8.98135 7.19753 9.78358 8.75464C11.3881 8.58484 13.0063 8.90677 14.4236 9.67774C15.8409 10.4487 16.9904 11.6323 17.7197 13.0715L17.9697 11.7633L16.4011 10.291C16.3088 10.2044 16.2431 10.0933 16.2116 9.97075C16.1801 9.8482 16.1841 9.71921 16.2232 9.59886C16.2623 9.47852 16.3349 9.37178 16.4324 9.29114C16.5299 9.21049 16.6484 9.15927 16.7739 9.14345L17.4971 9.05229V5.84765C16.9881 5.65266 16.5635 5.28563 16.2968 4.81024C16.0302 4.33486 15.9384 3.78112 16.0374 3.24513C16.1364 2.70914 16.4199 2.22471 16.8387 1.87593C17.2576 1.52714 17.7853 1.336 18.3304 1.33567H18.3554C18.5892 0.93041 18.9257 0.593862 19.3309 0.359869C19.736 0.125876 20.1957 0.00268555 20.6636 0.00268555C21.1315 0.00268555 21.5911 0.125876 21.9963 0.359869C22.4015 0.593862 22.7379 0.93041 22.9718 1.33567H22.9968C23.5864 1.33608 24.1539 1.55969 24.5854 1.96154C25.0168 2.36339 25.2801 2.91369 25.3224 3.50177C25.3646 4.08985 25.1826 4.67211 24.813 5.13148C24.4434 5.59085 23.9136 5.89325 23.3301 5.97789V9.04895L24.08 9.14353C24.2056 9.15934 24.324 9.21055 24.4216 9.29119C24.5191 9.37183 24.5916 9.47856 24.6308 9.59891C24.6699 9.71926 24.6739 9.84826 24.6424 9.97082C24.6109 10.0934 24.5452 10.2044 24.4529 10.291L22.8843 11.7634L23.288 13.8766C23.3118 14.0009 23.2996 14.1293 23.2531 14.247C23.2065 14.3647 23.1274 14.4666 23.0251 14.541C22.9227 14.6154 22.8013 14.6591 22.675 14.667C22.5487 14.675 22.4228 14.6468 22.3119 14.5858L20.4268 13.5488L18.5419 14.5858C18.4737 14.6228 18.3995 14.6475 18.3227 14.6588C18.4375 15.0989 18.5141 15.5481 18.5517 16.0014H29.7042C29.8643 16.0014 30.0191 16.0591 30.1402 16.1638C30.2613 16.2685 30.3407 16.4133 30.3638 16.5717L30.6326 18.4119L33.8719 22.9469C33.9673 23.0805 34.0101 23.2446 33.992 23.4077C33.974 23.5708 33.8964 23.7216 33.7741 23.831L31.3296 26.0193V35.3336C31.3296 35.4976 31.2691 35.6559 31.1597 35.7782C31.0503 35.9004 30.8997 35.978 30.7366 35.9961L25.33 36.5969V39.3334C25.33 39.5102 25.2597 39.6797 25.1347 39.8047C25.0097 39.9297 24.8401 40 24.6633 40H9.99756C9.82076 40 9.6512 39.9297 9.52619 39.8047C9.40117 39.6797 9.33094 39.5102 9.33094 39.3334V33.417L8.52149 30.2349C7.67032 26.8947 7.35688 23.4401 7.59296 20.0012H2.6091C1.95056 20.0011 1.31639 19.7521 0.833645 19.3042C0.350899 18.8563 0.0552254 18.2425 0.005867 17.5858C-0.0434914 16.9291 0.157108 16.278 0.567474 15.763C0.977844 15.248 1.56767 14.907 2.21879 14.8084ZM18.8304 6.00205V8.88413L18.9081 8.87438L19.8236 6.92758C19.8775 6.8131 19.9628 6.71631 20.0696 6.64852C20.1764 6.58072 20.3003 6.54472 20.4268 6.54472C20.5534 6.54472 20.6773 6.58072 20.7841 6.64852C20.8909 6.71631 20.9762 6.8131 21.0301 6.92758L21.9457 8.87438L21.9968 8.8808V6.00205H18.8304ZM23.9967 3.66886C23.9964 3.40375 23.891 3.14958 23.7035 2.96212C23.5161 2.77465 23.2619 2.66921 22.9968 2.66892H22.5484C22.4105 2.66892 22.2761 2.6262 22.1636 2.54663C22.051 2.46706 21.9659 2.35456 21.9199 2.22462C21.8282 1.96468 21.6581 1.73959 21.4331 1.58037C21.2081 1.42116 20.9392 1.33565 20.6636 1.33565C20.3879 1.33565 20.1191 1.42116 19.8941 1.58037C19.669 1.73959 19.499 1.96468 19.4072 2.22462C19.3613 2.35456 19.2762 2.46706 19.1636 2.54663C19.0511 2.6262 18.9166 2.66892 18.7788 2.66892H18.3304C18.0652 2.66892 17.8108 2.77427 17.6233 2.9618C17.4358 3.14932 17.3305 3.40366 17.3305 3.66886C17.3305 3.93406 17.4358 4.1884 17.6233 4.37593C17.8108 4.56345 18.0652 4.6688 18.3304 4.6688H22.9968C23.2619 4.66852 23.5161 4.56307 23.7035 4.37561C23.891 4.18815 23.9964 3.93398 23.9967 3.66886ZM19.1492 11.0422C19.2311 11.119 19.2922 11.2154 19.327 11.3222C19.3617 11.4291 19.3688 11.5429 19.3477 11.6533L19.1413 12.7343L20.1053 12.2039C20.2037 12.1498 20.3142 12.1214 20.4266 12.1214C20.5389 12.1214 20.6494 12.1498 20.7478 12.2039L21.7122 12.7343L21.5056 11.6533C21.4846 11.5429 21.4917 11.4291 21.5265 11.3222C21.5612 11.2154 21.6223 11.1191 21.7042 11.0422L22.5066 10.289L21.415 10.1513C21.3036 10.1372 21.1975 10.0953 21.1066 10.0292C21.0157 9.96318 20.943 9.87524 20.8951 9.77357L20.4268 8.77772L19.9584 9.77357C19.9106 9.87523 19.8379 9.96316 19.747 10.0292C19.6561 10.0952 19.55 10.1372 19.4386 10.1513L18.347 10.289L19.1492 11.0422ZM3.99793 5.33543C3.86608 5.33543 3.7372 5.37453 3.62757 5.44777C3.51795 5.52102 3.4325 5.62514 3.38205 5.74695C3.33159 5.86876 3.31839 6.00279 3.34411 6.13211C3.36983 6.26142 3.43332 6.3802 3.52655 6.47343C3.61978 6.56666 3.73856 6.63015 3.86788 6.65587C3.99719 6.68159 4.13123 6.66839 4.25304 6.61794C4.37485 6.56748 4.47896 6.48204 4.55221 6.37241C4.62546 6.26279 4.66456 6.1339 4.66456 6.00205C4.66436 5.82531 4.59406 5.65587 4.46909 5.5309C4.34411 5.40592 4.17467 5.33563 3.99793 5.33543ZM10.6225 10.0435C9.59809 10.0389 8.58677 10.2739 7.66928 10.7296C6.75179 11.1854 5.95353 11.8493 5.33818 12.6683C5.83023 12.6696 6.31581 12.7806 6.75951 12.9933C7.45467 12.2617 8.34323 11.7426 9.32185 11.4961C10.3005 11.2497 11.3289 11.2862 12.2877 11.6013C13.2464 11.9164 14.096 12.4972 14.7376 13.2761C15.3792 14.055 15.7865 15.0001 15.9121 16.0014H17.2131C17.046 14.3691 16.2798 12.8566 15.0626 11.7562C13.8453 10.6558 12.2634 10.0456 10.6225 10.0435ZM10.263 16.0014H11.7754C11.6854 15.845 11.5645 15.7086 11.4201 15.6004C11.2757 15.4921 11.1108 15.4145 10.9354 15.372C10.76 15.3295 10.5778 15.3232 10.3999 15.3534C10.222 15.3836 10.052 15.4497 9.90049 15.5476C10.0376 15.6851 10.1591 15.8373 10.2627 16.0014H10.263ZM8.44382 14.8084C8.52049 14.8199 8.59607 14.8348 8.67056 14.8531C8.9961 14.5026 9.40995 14.2463 9.8687 14.1108C10.3274 13.9754 10.8142 13.9659 11.2779 14.0833C11.7415 14.2008 12.1651 14.4408 12.504 14.7783C12.843 15.1158 13.0849 15.5383 13.2044 16.0014H14.5655C14.444 15.282 14.1281 14.6095 13.6518 14.0567C13.1756 13.504 12.5571 13.0921 11.8635 12.8657C11.1699 12.6393 10.4276 12.607 9.71697 12.7723C9.00632 12.9376 8.35444 13.2942 7.83195 13.8034C8.09402 14.0993 8.30115 14.4397 8.44358 14.8084H8.44382ZM9.81357 29.9064L10.6436 33.1693C10.6573 33.223 10.6642 33.2783 10.6642 33.3337V38.6667H23.9967V36.0002C23.9967 35.8362 24.0572 35.6779 24.1666 35.5557C24.276 35.4334 24.4266 35.3558 24.5897 35.3377L29.9963 34.737V29.506H28.6449C28.1812 29.5072 27.7218 29.4165 27.2933 29.239C26.8648 29.0616 26.4758 28.8009 26.1487 28.4721C26.0237 28.3471 25.9535 28.1775 25.9535 28.0007C25.9535 27.8239 26.0238 27.6543 26.1488 27.5293C26.2738 27.4043 26.4434 27.334 26.6202 27.334C26.797 27.334 26.9666 27.4043 27.0916 27.5293C27.2951 27.7339 27.5372 27.8962 27.8038 28.0066C28.0704 28.1171 28.3563 28.1735 28.6449 28.1727H29.9963V25.7213C29.9963 25.6276 30.0161 25.5349 30.0544 25.4493C30.0926 25.3637 30.1485 25.2872 30.2183 25.2246L32.4399 23.2358L29.4539 19.0553C29.3922 18.969 29.352 18.8692 29.3367 18.7643L29.1279 17.3347H10.6629C10.6629 17.3532 10.6642 17.3716 10.6642 17.3902C10.6636 17.9267 10.498 18.4499 10.1899 18.8891C9.88178 19.3283 9.44609 19.6621 8.94188 19.8453C8.68276 23.2241 8.9772 26.6225 9.81357 29.9064ZM2.6091 18.6679H8.05326C8.39035 18.6652 8.7127 18.5294 8.9501 18.2901C9.18749 18.0508 9.3207 17.7273 9.3207 17.3902C9.3207 17.0531 9.18749 16.7297 8.9501 16.4904C8.7127 16.2511 8.39035 16.1152 8.05326 16.1125H7.93936C7.78656 16.1125 7.63841 16.06 7.5197 15.9638C7.40098 15.8677 7.31891 15.7336 7.28723 15.5841C7.19185 15.1361 6.94555 14.7344 6.5895 14.4461C6.23346 14.1579 5.78926 14.0007 5.33118 14.0007C4.8731 14.0007 4.4289 14.1579 4.07286 14.4461C3.71682 14.7344 3.47051 15.1361 3.37514 15.5841C3.34345 15.7336 3.26138 15.8677 3.14267 15.9638C3.02395 16.06 2.8758 16.1125 2.72301 16.1125H2.6091C2.27201 16.1152 1.94967 16.2511 1.71227 16.4904C1.47487 16.7297 1.34166 17.0531 1.34166 17.3902C1.34166 17.7273 1.47487 18.0508 1.71227 18.2901C1.94967 18.5294 2.27201 18.6652 2.6091 18.6679Z" fill="#061421"/>
<path d="M13.9974 7.33539C13.8206 7.33539 13.6511 7.26516 13.526 7.14014C13.401 7.01512 13.3308 6.84557 13.3308 6.66877V6.55436C13.333 5.67425 13.0341 4.81988 12.4836 4.13317C12.0532 4.48888 11.5095 4.67849 10.9512 4.66761C10.393 4.65672 9.85708 4.44605 9.44086 4.07383C9.02464 3.7016 8.75565 3.1925 8.68271 2.6389C8.60977 2.08531 8.73772 1.52391 9.04333 1.05658C9.34894 0.589257 9.81196 0.24698 10.3484 0.0918661C10.8848 -0.0632479 11.459 -0.0209196 11.9669 0.211169C12.4747 0.443258 12.8826 0.849727 13.1163 1.35681C13.3501 1.86389 13.3944 2.43799 13.2411 2.97491C14.1577 3.94086 14.6673 5.22267 14.664 6.55436V6.66877C14.664 6.84557 14.5938 7.01512 14.4688 7.14014C14.3438 7.26516 14.1742 7.33539 13.9974 7.33539ZM10.9976 1.33576C10.7998 1.33576 10.6065 1.3944 10.4421 1.50428C10.2776 1.61415 10.1495 1.77032 10.0738 1.95304C9.9981 2.13575 9.9783 2.33681 10.0169 2.53077C10.0555 2.72474 10.1507 2.90292 10.2905 3.04276C10.4304 3.1826 10.6086 3.27784 10.8025 3.31642C10.9965 3.355 11.1975 3.3352 11.3803 3.25952C11.563 3.18384 11.7191 3.05567 11.829 2.89123C11.9389 2.72679 11.9975 2.53347 11.9975 2.3357C11.9973 2.07058 11.8918 1.81641 11.7044 1.62895C11.5169 1.44149 11.2627 1.33604 10.9976 1.33576Z" fill="#061421"/>
<path d="M28.6642 8.66851C28.3846 8.66869 28.1081 8.60985 27.8528 8.49586C27.0839 9.50305 26.6664 10.7345 26.6643 12.0016C26.6643 12.1784 26.5941 12.348 26.469 12.473C26.344 12.598 26.1745 12.6683 25.9977 12.6683C25.8209 12.6683 25.6513 12.598 25.5263 12.473C25.4013 12.348 25.331 12.1784 25.331 12.0016C25.3332 10.3994 25.8748 8.84451 26.8686 7.58766C26.8727 7.58258 26.877 7.57808 26.8815 7.57308C26.6846 7.18465 26.6199 6.74256 26.6973 6.31401C26.7747 5.88546 26.9898 5.49389 27.3101 5.19882C27.6304 4.90376 28.0382 4.72133 28.4717 4.67927C28.9051 4.63721 29.3404 4.73782 29.7115 4.96581C30.0825 5.1938 30.3689 5.53669 30.5273 5.94237C30.6856 6.34805 30.7071 6.79432 30.5886 7.21336C30.4701 7.6324 30.218 8.00128 29.8706 8.26393C29.5233 8.52658 29.0997 8.66864 28.6642 8.66851ZM28.6642 6.00201C28.5323 6.00201 28.4034 6.04111 28.2938 6.11436C28.1842 6.18761 28.0987 6.29172 28.0483 6.41353C27.9978 6.53534 27.9846 6.66937 28.0104 6.79869C28.0361 6.928 28.0996 7.04678 28.1928 7.14001C28.286 7.23324 28.4048 7.29673 28.5341 7.32245C28.6634 7.34817 28.7975 7.33497 28.9193 7.28452C29.0411 7.23406 29.1452 7.14862 29.2185 7.03899C29.2917 6.92937 29.3308 6.80048 29.3308 6.66864C29.3306 6.4919 29.2603 6.32245 29.1353 6.19748C29.0104 6.07251 28.8409 6.00221 28.6642 6.00201Z" fill="#061421"/>
<path d="M30.7356 12.927C30.2928 13.0092 29.871 13.1794 29.4952 13.4276C29.1193 13.6757 28.7971 13.9967 28.5475 14.3715C28.449 14.5176 28.2966 14.6187 28.1238 14.6528C27.9509 14.6869 27.7716 14.6512 27.625 14.5534C27.4784 14.4557 27.3765 14.3039 27.3415 14.1312C27.3065 13.9585 27.3413 13.779 27.4382 13.6319C27.8146 13.0668 28.309 12.5899 28.8873 12.2342C29.4657 11.8784 30.1143 11.6523 30.7884 11.5713C30.9718 11.043 31.3388 10.5982 31.8226 10.3179C32.3064 10.0376 32.8749 9.94043 33.4243 10.0441C33.9738 10.1478 34.4677 10.4454 34.8161 10.8828C35.1645 11.3201 35.3442 11.8681 35.3224 12.4268C35.3007 12.9856 35.0789 13.5179 34.6975 13.9268C34.3161 14.3357 33.8005 14.594 33.2447 14.6546C32.6888 14.7152 32.1297 14.5741 31.6691 14.257C31.2086 13.9399 30.8773 13.4679 30.7356 12.927ZM33.9925 12.3353C33.9925 12.1376 33.9338 11.9442 33.824 11.7798C33.7141 11.6154 33.5579 11.4872 33.3752 11.4115C33.1925 11.3358 32.9914 11.316 32.7975 11.3546C32.6035 11.3932 32.4253 11.4884 32.2855 11.6283C32.1456 11.7681 32.0504 11.9463 32.0118 12.1403C31.9732 12.3342 31.993 12.5353 32.0687 12.718C32.1444 12.9007 32.2726 13.0569 32.437 13.1667C32.6015 13.2766 32.7948 13.3353 32.9926 13.3353C33.2577 13.335 33.5118 13.2295 33.6993 13.0421C33.8868 12.8546 33.9922 12.6004 33.9925 12.3353Z" fill="#061421"/>
<path d="M34.0007 7.06348C33.9903 6.97653 33.9972 6.88839 34.0209 6.8041C34.0446 6.7198 34.0847 6.64101 34.1388 6.57221C34.193 6.50341 34.2602 6.44595 34.3366 6.40313C34.4129 6.3603 34.497 6.33294 34.584 6.32261C35.5989 6.20235 36.6278 6.33781 37.577 6.71667C37.6583 6.74918 37.7324 6.79738 37.795 6.85852C37.8577 6.91967 37.9077 6.99255 37.9422 7.07302C37.9767 7.15348 37.995 7.23995 37.996 7.32749C37.9971 7.41503 37.9809 7.50192 37.9484 7.5832C37.9159 7.66448 37.8677 7.73857 37.8066 7.80122C37.7454 7.86388 37.6725 7.91387 37.5921 7.94836C37.5116 7.98285 37.4251 8.00115 37.3376 8.00222C37.2501 8.00329 37.1632 7.9871 37.0819 7.95459C36.3398 7.6584 35.5354 7.55242 34.7419 7.64628C34.655 7.65686 34.5668 7.65017 34.4824 7.62658C34.398 7.603 34.3191 7.56298 34.2503 7.50883C34.1814 7.45469 34.1239 7.38747 34.0811 7.31105C34.0382 7.23462 34.0109 7.15049 34.0007 7.06348Z" fill="#061421"/>
<path d="M32.4775 8.5396C32.2825 8.68299 32.0986 8.84099 31.9275 9.01224L31.7995 9.14031C31.6744 9.26533 31.5049 9.33557 31.3281 9.33557C31.1513 9.33557 30.9817 9.26533 30.8567 9.14031C30.7317 9.01529 30.6614 8.84573 30.6614 8.66892C30.6614 8.49212 30.7317 8.32256 30.8567 8.19754L30.9848 8.06946C31.2038 7.85049 31.4391 7.64842 31.6886 7.465C31.8312 7.36034 32.0095 7.3166 32.1843 7.34339C32.359 7.37019 32.516 7.46532 32.6207 7.60786C32.7254 7.75041 32.7691 7.92869 32.7423 8.10349C32.7155 8.27828 32.6204 8.43528 32.4778 8.53993L32.4775 8.5396Z" fill="#061421"/>
</svg>
