<svg width="30" height="30" viewBox="0 0 30 30" fill="none" xmlns="http://www.w3.org/2000/svg">
<path d="M30 15C30 6.70992 23.2912 0 15 0C6.70998 0 0 6.70875 0 15C0 23.0775 6.4592 29.8673 14.7592 29.9971C14.9002 30.0034 15.2064 29.9975 15.2123 29.9974C15.2148 29.9975 15.2252 29.9973 15.228 29.9972C23.4162 29.876 30 23.2034 30 15ZM15 0.878906C22.8043 0.878906 29.1211 7.19461 29.1211 15C29.1211 18.2536 28.0273 21.3387 26.0151 23.8371C25.9801 22.2625 24.9591 20.8946 23.4512 20.4171L20.6082 19.517C20.4473 19.3793 20.4896 19.4386 17.8723 18.1418V16.9238C19.0134 16.1136 19.8036 14.8345 19.9489 13.3597C20.4908 13.2679 20.9047 12.7951 20.9047 12.2276C20.9047 11.3858 20.9047 8.6185 20.9047 7.75506C20.9047 6.77027 20.1036 5.96912 19.1188 5.96912H19.0734C19.065 5.96912 19.0581 5.96227 19.0581 5.95383C19.0581 4.96904 18.257 4.16789 17.2722 4.16789H12.6321C10.6809 4.16789 9.09363 5.7552 9.09363 7.70631C9.09363 7.949 9.29039 8.14576 9.53309 8.14576C9.77578 8.14576 9.97254 7.949 9.97254 7.70631C9.97254 6.23982 11.1656 5.0468 12.6321 5.0468H17.2722C17.7724 5.0468 18.1792 5.45367 18.1792 5.95383C18.1792 6.44689 18.5804 6.84803 19.0734 6.84803H19.1188C19.6189 6.84803 20.0258 7.2549 20.0258 7.75506V10.256H19.5349C19.2605 10.256 19.0373 10.0328 19.0373 9.7585V9.24574C19.0373 8.27109 18.0858 7.5835 17.1605 7.88936C15.7673 8.34984 14.2326 8.34996 12.8375 7.88912C11.9121 7.5835 10.9609 8.27109 10.9609 9.24557V9.7585C10.9609 10.0328 10.7377 10.256 10.4634 10.256H9.97248V9.73728C9.97248 9.49459 9.77572 9.29783 9.53303 9.29783C9.29033 9.29783 9.09357 9.49459 9.09357 9.73728V12.2276C9.09357 12.7952 9.50748 13.2679 10.0494 13.3598C10.1946 14.8347 10.9849 16.1137 12.1259 16.9239V18.1424C9.51398 19.4366 9.5485 19.3821 9.39047 19.5176L6.54885 20.4172C5.04094 20.8947 4.01994 22.2626 3.98496 23.8372C1.97268 21.3387 0.878906 18.2536 0.878906 15C0.878906 7.19566 7.19461 0.878906 15 0.878906ZM9.96176 22.9148L10.3033 22.5739C10.6598 22.2181 10.7441 21.6782 10.5132 21.2306L9.97137 20.18L11.7471 19.3076C11.5581 20.098 11.5643 20.9666 11.6553 21.7807C11.6554 21.7813 11.6555 21.782 11.6555 21.7826C11.8828 23.8124 12.7114 26.1148 13.5394 27.9814C12.1758 26.6092 10.3534 24.5906 9.89443 23.1913C9.8625 23.0941 9.88834 22.9881 9.96176 22.9148ZM9.97242 11.1349H10.4634C11.2223 11.1349 11.8397 10.5174 11.8397 9.75844V9.24551C11.8397 8.87221 12.2034 8.60537 12.5636 8.7242C14.1347 9.24316 15.8652 9.2431 17.4363 8.72385C17.7923 8.60625 18.1584 8.87063 18.1584 9.24574V9.7585C18.1584 10.5175 18.7759 11.1349 19.5349 11.1349H20.0258V12.2276C20.0258 12.3762 19.9049 12.497 19.7563 12.497C19.4028 12.497 19.1083 12.7745 19.086 13.1288C18.9504 15.2789 17.1553 16.9631 14.9991 16.9631C12.843 16.9631 11.0479 15.2789 10.9123 13.1288C10.8899 12.7746 10.5954 12.497 10.2419 12.497C10.0933 12.497 9.97248 12.3762 9.97248 12.2276V11.1349H9.97242ZM14.9996 29.0206C14.7144 28.4486 14.3293 27.6338 13.9441 26.6882L14.6658 23.8499H15.3342L16.0553 26.6873C15.6694 27.6348 15.2839 28.4505 14.9996 29.0206ZM14.4219 21.1712C14.1732 21.3789 13.6629 21.8051 13.264 22.1383C13.1808 22.2079 13.0615 22.2074 12.9792 22.1398L12.5147 21.5655C12.4379 20.7952 12.4455 19.9436 12.6861 19.2144L14.4219 21.1712ZM13.1207 23.0701C13.2327 23.0701 13.3447 23.052 13.4529 23.0177L13.8446 23.5128L13.4021 25.2534C13.1486 24.5226 12.9201 23.7606 12.7521 23.0053C12.8711 23.0477 12.9956 23.0701 13.1207 23.0701ZM15.4557 22.9711H14.5368L14.1792 22.5192L15.0478 21.7935L15.8336 22.4654L15.4557 22.9711ZM16.7515 22.0939L15.6698 21.169L17.3181 19.2305C17.553 19.9546 17.5598 20.7935 17.486 21.5479L17.0369 22.0982C16.9536 22.1654 16.8342 22.1646 16.7515 22.0939ZM14.9991 17.842C15.7063 17.842 16.3812 17.6922 16.9934 17.423V18.2555L15.0441 20.548L13.0048 18.2491V17.4229C13.617 17.6922 14.2919 17.842 14.9991 17.842ZM16.5974 25.2521L16.1535 23.5055L16.5526 22.9713C16.6645 23.0084 16.7806 23.0277 16.8969 23.0277C17.0183 23.0277 17.1392 23.0064 17.2552 22.9663C17.0875 23.7299 16.8577 24.5016 16.5974 25.2521ZM4.86211 24.8286V23.9205C4.86211 22.6959 5.64656 21.6247 6.81404 21.2551L9.15691 20.5134C9.18035 20.5681 9.15627 20.5153 9.73207 21.6335C9.78685 21.7397 9.76688 21.8677 9.68238 21.952L9.34084 22.2929C9.03129 22.6018 8.92336 23.0511 9.0593 23.4653C9.62021 25.1752 11.8269 27.5429 13.3413 29.0246C10.1258 28.6506 7.15793 27.1948 4.86211 24.8286ZM16.6577 29.0246C17.4744 28.2257 18.4981 27.1642 19.3533 26.0892C19.5044 25.8992 19.4729 25.6228 19.2829 25.4716C19.0929 25.3206 18.8166 25.3521 18.6654 25.542C17.9753 26.4095 17.1686 27.2712 16.4578 27.9854C17.2883 26.1139 18.12 23.8038 18.3452 21.7677C18.3452 21.7669 18.3454 21.7662 18.3454 21.7655C18.4346 20.9568 18.4399 20.0956 18.252 19.3077L20.0277 20.1801L19.4859 21.2306C19.255 21.6783 19.3393 22.2182 19.6958 22.5741L20.0373 22.9149C20.1107 22.9882 20.1365 23.0941 20.1046 23.1914C20.0358 23.4013 19.931 23.637 19.7933 23.8921C19.6779 24.1056 19.7575 24.3722 19.971 24.4876C20.1846 24.6029 20.4512 24.5233 20.5665 24.3098C20.7291 24.0088 20.8547 23.7247 20.9398 23.4653C21.0756 23.0511 20.9678 22.6018 20.6582 22.2928L20.3167 21.952C20.2322 21.8676 20.2123 21.7396 20.267 21.6335C20.8386 20.5234 20.8191 20.5672 20.8423 20.5131L23.1859 21.2551C24.3534 21.6247 25.1378 22.6959 25.1378 23.9205V24.8286C22.8472 27.1896 19.8812 28.6501 16.6577 29.0246Z" fill="#02AFA5"/>
</svg>
