<svg width="40" height="40" viewBox="0 0 40 40" fill="none" xmlns="http://www.w3.org/2000/svg">
<g opacity="0.85">
<path d="M36.1438 5.43797C36.987 5.43797 37.6693 4.76538 37.6693 3.93417C37.6693 3.10295 36.987 2.43036 36.1438 2.43036C35.3005 2.43036 34.6182 3.10295 34.6182 3.93417C34.6182 4.76538 35.3069 5.43797 36.1438 5.43797ZM36.1438 3.50269C36.3884 3.50269 36.5879 3.69939 36.5879 3.94051C36.5879 4.18163 36.3884 4.37833 36.1438 4.37833C35.8927 4.37833 35.6996 4.18797 35.6996 3.94051C35.6996 3.69305 35.8991 3.50269 36.1438 3.50269Z" fill="#00A7AC"/>
<path d="M37.8371 0H6.4757C5.28484 0 4.31284 0.958122 4.31284 2.13198V5.38706H2.16286C0.971999 5.38706 0 6.34518 0 7.51904V34.2513C0 35.4251 0.971999 36.3833 2.16286 36.3833H16.5369V39.467C16.5369 39.7589 16.7815 40 17.0776 40H27.2353C27.5314 40 27.776 39.7589 27.776 39.467V36.3833H33.5243C34.7152 36.3833 35.6872 35.4251 35.6872 34.2513V30.9962H37.8371C39.028 30.9962 40 30.0381 40 28.8642V2.13198C40 0.958122 39.028 0 37.8371 0ZM5.39427 2.13198C5.39427 1.54188 5.88349 1.06599 6.4757 1.06599H37.8371C38.4358 1.06599 38.9186 1.54822 38.9186 2.13198V6.80838H18.3972L15.9833 4.3401C15.7966 4.14975 15.5391 4.04188 15.2752 4.04188H9.95816C9.41744 4.04188 8.97329 4.4797 8.97329 5.01269V6.80838H5.39427V2.13198ZM2.16286 35.3236C1.56421 35.3236 1.08143 34.8414 1.08143 34.2576V7.51904C1.08143 6.92893 1.57065 6.45305 2.16286 6.45305H4.31284V28.8706C4.31284 30.0444 5.28484 31.0025 6.4757 31.0025H18.2169C18.4294 31.4086 18.5259 31.8655 18.4873 32.335H17.6505C17.0325 32.335 16.5369 32.8299 16.5369 33.4327V35.3236H2.16286ZM21.6221 24.1624C21.7316 23.9721 21.9311 23.8515 22.1564 23.8515C22.4911 23.8515 22.7615 24.118 22.7615 24.448C22.7615 24.6637 22.6456 24.8604 22.459 24.9683C22.253 25.0888 22.0084 25.0761 21.7573 24.9365C21.7251 24.9175 21.693 24.8921 21.6801 24.8604C21.4741 24.5368 21.5578 24.283 21.6221 24.1624ZM21.6157 22.8871C21.223 23.0203 20.8883 23.2805 20.6823 23.6485C20.3734 24.1942 20.412 24.8604 20.7724 25.4315C20.8883 25.6091 21.0428 25.7551 21.2295 25.8629C21.5256 26.0279 21.8474 26.1168 22.1629 26.1168C22.459 26.1168 22.7486 26.0406 23.0061 25.8947C23.5211 25.5964 23.8429 25.0444 23.8429 24.4543C23.8429 23.7246 23.3602 23.1091 22.6971 22.8871V20.1459L27.4799 28.6548C27.4734 28.6612 27.467 28.6739 27.4477 28.6802C25.7547 29.1117 24.6476 30.6726 24.7377 32.335H19.5816C19.6781 30.6662 18.5645 29.1053 16.8394 28.6294L21.6157 20.1459V22.8871ZM26.6946 38.934H17.6183L17.6505 33.3947H26.6624C26.6817 33.3947 26.6946 33.4074 26.6946 33.4264V38.934ZM34.6057 34.2513C34.6057 34.8414 34.1165 35.3173 33.5243 35.3173H27.776V33.4264C27.776 32.8173 27.2739 32.3287 26.6624 32.3287H25.8256C25.7869 31.8591 25.8899 31.4023 26.0959 30.9962H34.6057V34.2513ZM37.8371 29.9366H27.1452C27.319 29.8414 27.5056 29.7589 27.7116 29.7081C28.0528 29.6193 28.3296 29.3845 28.4712 29.0673C28.6064 28.7563 28.5871 28.4074 28.4197 28.1091L22.8838 18.2805C22.7422 18.0203 22.4654 17.8553 22.1629 17.8553C21.8539 17.8617 21.5771 18.014 21.429 18.2741L15.8867 28.1091C15.7193 28.4074 15.7065 28.7627 15.8416 29.0736C15.9768 29.3909 16.2536 29.6193 16.5948 29.7081C16.8008 29.7589 16.981 29.8414 17.1612 29.9366H6.4757C5.87705 29.9366 5.39427 29.4543 5.39427 28.8706V7.87437H9.06341C9.60412 7.87437 10.0483 7.43655 10.0483 6.90355V5.10787H15.2301L17.644 7.57614C17.8307 7.7665 18.0882 7.87437 18.3521 7.87437H38.9186V28.8642C38.9186 29.4543 38.4358 29.9366 37.8371 29.9366Z" fill="#00A7AC"/>
<path d="M32.4621 5.43797C33.3054 5.43797 33.9877 4.76538 33.9877 3.93417C33.9877 3.10295 33.3054 2.43036 32.4621 2.43036C31.6189 2.43036 30.9365 3.10295 30.9365 3.93417C30.9365 4.76538 31.6189 5.43797 32.4621 5.43797ZM32.4621 3.50269C32.7067 3.50269 32.9063 3.69939 32.9063 3.94051C32.9063 4.18163 32.7067 4.37833 32.4621 4.37833C32.2111 4.37833 32.018 4.18797 32.018 3.94051C32.018 3.69305 32.2175 3.50269 32.4621 3.50269Z" fill="#00A7AC"/>
<path d="M28.7736 5.43797C29.6169 5.43797 30.2992 4.76538 30.2992 3.93417C30.2992 3.10295 29.6169 2.43036 28.7736 2.43036C27.9304 2.43036 27.248 3.10295 27.248 3.93417C27.248 4.76538 27.9304 5.43797 28.7736 5.43797ZM28.7736 3.50269C29.0182 3.50269 29.2178 3.69939 29.2178 3.94051C29.2178 4.18163 29.0182 4.37833 28.7736 4.37833C28.5226 4.37833 28.3295 4.18797 28.3295 3.94051C28.3295 3.69305 28.529 3.50269 28.7736 3.50269Z" fill="#00A7AC"/>
<path d="M32.5779 12.5191C32.2624 12.83 32.0629 13.2234 31.9857 13.6422H24.4221V12.8046C24.4221 12.2335 23.9522 11.7703 23.3728 11.7703H20.9332C20.3539 11.7703 19.8839 12.2335 19.8839 12.8046V13.6422H12.3268C12.256 13.2297 12.0565 12.8363 11.7346 12.5127C10.9171 11.7196 9.52025 11.7323 8.72205 12.5191C8.31652 12.9188 8.09766 13.4455 8.09766 14.0038C8.09766 14.5685 8.32295 15.1015 8.72205 15.4886C9.12759 15.901 9.6683 16.1104 10.2283 16.1104C10.5824 16.1104 10.9428 16.0279 11.284 15.8566C11.6509 15.6726 11.9535 15.368 12.1337 14.9937C12.1788 14.8985 12.2174 14.8033 12.2496 14.7081H17.4958C14.6442 16.0787 12.4942 18.6548 11.7475 21.764H10.9107C10.3313 21.764 9.86142 22.2272 9.86142 22.7982V25.2031C9.86142 25.7741 10.3313 26.2373 10.9107 26.2373H13.3503C13.9296 26.2373 14.3996 25.7741 14.3996 25.2031V22.7982C14.3996 22.2272 13.9296 21.764 13.3503 21.764H12.8611C13.7623 18.4137 16.4852 15.7868 19.9033 14.9746V15.2031C19.9033 15.7741 20.3732 16.2373 20.9525 16.2373H23.3922C23.9715 16.2373 24.4414 15.7741 24.4414 15.2031V14.9746C27.853 15.7868 30.5759 18.4137 31.4836 21.764H31.0394C30.4601 21.764 29.9902 22.2272 29.9902 22.7982V25.2031C29.9902 25.7741 30.4601 26.2373 31.0394 26.2373H33.4791C34.0584 26.2373 34.5283 25.7741 34.5283 25.2031V22.7982C34.5283 22.2272 34.0584 21.764 33.4791 21.764H32.5972C31.844 18.6548 29.6941 16.0724 26.8489 14.7081H32.108C32.211 15 32.3783 15.2665 32.6036 15.4886C33.0091 15.901 33.5499 16.1104 34.1099 16.1104C34.4639 16.1104 34.8244 16.0279 35.1656 15.8566C35.5325 15.6726 35.835 15.368 36.0153 14.9937C36.4337 14.1244 36.2856 13.179 35.6226 12.5127C34.7793 11.7259 33.3825 11.7323 32.5779 12.5191ZM11.1488 14.5432C11.0716 14.6955 10.9428 14.8287 10.7884 14.9048C10.2283 15.184 9.74555 15.0064 9.48163 14.7335C9.28208 14.5432 9.17265 14.283 9.17265 14.0038C9.17265 13.731 9.28208 13.4708 9.48163 13.2678C9.68118 13.0711 9.9451 12.9632 10.2283 12.9632C10.5051 12.9632 10.7755 13.0711 10.9686 13.2614C11.3033 13.6041 11.3677 14.08 11.1488 14.5432ZM13.3374 25.1713L10.93 25.2031L10.8978 22.83H13.3053L13.3374 25.1713ZM33.4597 25.1713L31.0523 25.2031L31.0201 22.83H33.4276L33.4597 25.1713ZM20.9718 15.2094L20.9589 14.4099C20.9718 14.3528 20.9718 14.2957 20.9654 14.2323V14.2259C20.9654 14.2069 20.9782 14.1942 20.9782 14.1751C20.9782 14.1434 20.9654 14.118 20.9589 14.0927L20.9396 12.8427H23.3471L23.3664 14.0927C23.36 14.1244 23.3471 14.1498 23.3471 14.1815C23.3471 14.2005 23.3535 14.2132 23.36 14.2323V14.2386C23.3471 14.3211 23.3535 14.3972 23.3728 14.467L23.3857 15.184L20.9718 15.2094ZM35.0111 14.5432C34.9338 14.6955 34.8051 14.8287 34.6506 14.9048C34.0906 15.184 33.6078 15.0064 33.3439 14.7335C33.1443 14.5432 33.0349 14.283 33.0349 14.0038C33.0349 13.731 33.1443 13.4708 33.3439 13.2678C33.5434 13.0711 33.8073 12.9632 34.0906 12.9632C34.3674 12.9632 34.6377 13.0711 34.8308 13.2614C35.1656 13.6041 35.2299 14.08 35.0111 14.5432Z" fill="#00A7AC"/>
</g>
</svg>
