<svg width="38" height="40" viewBox="0 0 38 40" fill="none" xmlns="http://www.w3.org/2000/svg">
<path d="M21.6301 10.1924C21.308 10.1924 21.0469 10.4553 21.0469 10.7796V12.0102C21.0469 12.3344 21.308 12.5973 21.6301 12.5973C21.9522 12.5973 22.2133 12.3344 22.2133 12.0102V10.7796C22.2133 10.4553 21.9522 10.1924 21.6301 10.1924Z" fill="#00A7AC"/>
<path d="M26.9143 12.5973C27.2364 12.5973 27.4975 12.3344 27.4975 12.0102V10.7796C27.4975 10.4553 27.2364 10.1924 26.9143 10.1924C26.5922 10.1924 26.3311 10.4553 26.3311 10.7796V12.0102C26.3311 12.3344 26.5922 12.5973 26.9143 12.5973Z" fill="#00A7AC"/>
<path d="M25.4673 13.6146C25.2262 13.6146 25.0192 13.762 24.9304 13.9721C24.9064 14.0164 24.7531 14.2599 24.2723 14.2599C23.7915 14.2599 23.6382 14.0164 23.6143 13.9721C23.5255 13.762 23.3186 13.6146 23.0774 13.6146C22.7553 13.6146 22.4941 13.8774 22.4941 14.2017C22.4941 14.2839 22.511 14.3622 22.5413 14.4332C22.6934 14.8049 23.229 15.4341 24.2723 15.4341C25.3156 15.4341 25.8512 14.8049 26.0033 14.4332C26.0336 14.3622 26.0505 14.2839 26.0505 14.2017C26.0505 13.8774 25.7894 13.6146 25.4673 13.6146Z" fill="#00A7AC"/>
<path d="M36.6391 24.7816H33.5674V24.7195C33.5674 23.1977 33.1056 21.7824 32.3156 20.6082C33.2935 18.646 33.8068 16.116 33.7641 13.4326C33.72 10.6589 33.0918 7.88513 31.9954 5.62217C31.8542 5.33068 31.505 5.20982 31.2156 5.35185C30.9261 5.49396 30.8059 5.84545 30.947 6.13693C32.9314 10.2325 33.1285 15.8378 31.4981 19.5984C30.4765 18.5409 29.1426 17.7912 27.6478 17.5016C29.2518 16.4083 30.3083 14.5594 30.3083 12.4667V9.23395C30.3083 9.04598 30.2188 8.86942 30.0678 8.75895C27.9715 7.22599 26.6143 4.80826 26.601 4.78436C26.5068 4.61428 26.3351 4.50225 26.1425 4.48529C25.9499 4.46795 25.7613 4.54858 25.6393 4.69959C22.9351 8.04489 18.783 8.64637 18.7421 8.652C18.4523 8.69075 18.2358 8.93957 18.2358 9.23395V12.4667C18.2358 14.5594 19.2922 16.4083 20.8962 17.5016C19.4007 17.7913 18.0663 18.5416 17.0446 19.5997C16.2297 17.7295 15.8481 15.381 15.9639 12.882C16.0954 10.0419 16.8504 7.31911 18.0898 5.21498C20.057 1.87523 22.5376 1.17421 24.272 1.17421C26.9671 1.17421 28.7639 2.83085 29.7967 4.22061C29.9897 4.48029 30.3551 4.53334 30.6131 4.33905C30.871 4.14483 30.9237 3.77686 30.7308 3.51725C29.0207 1.21625 26.7872 0 24.272 0C21.3917 0 18.8398 1.63937 17.0864 4.61608C14.3671 9.23246 14.0144 16.1677 16.2287 20.6075C15.4385 21.7819 14.9765 23.1973 14.9765 24.7194V24.7815H12.5611C12.3032 22.9296 10.8442 21.4609 9.00457 21.2012V20.4887H9.61597C9.93804 20.4887 10.1992 20.2259 10.1992 19.9016C10.1992 19.5773 9.93804 19.3145 9.61597 19.3145H7.2268C6.90472 19.3145 6.64357 19.5773 6.64357 19.9016C6.64357 20.2258 6.90472 20.4887 7.2268 20.4887H7.8382V21.2012C5.99857 21.4609 4.53961 22.9296 4.28164 24.7815H1.36078C0.610466 24.7815 0 25.3961 0 26.1514V27.3551C0 28.1104 0.610466 28.725 1.36078 28.725H2.20702V38.6299C2.20702 39.3852 2.81749 39.9998 3.5678 39.9998H25.2051C25.5272 39.9998 25.7884 39.7369 25.7884 39.4127C25.7884 39.0884 25.5272 38.8256 25.2051 38.8256H3.5678C3.46063 38.8256 3.3734 38.7377 3.3734 38.6298V28.725H10.8531C11.1752 28.725 11.4363 28.4622 11.4363 28.1379C11.4363 27.8137 11.1752 27.5508 10.8531 27.5508H1.36078C1.25361 27.5508 1.16637 27.463 1.16637 27.3551V26.1515C1.16637 26.0436 1.25361 25.9558 1.36078 25.9558H36.6391C36.7463 25.9558 36.8335 26.0436 36.8335 26.1515V27.3552C36.8335 27.4631 36.7463 27.5509 36.6391 27.5509H13.1859C12.8639 27.5509 12.6027 27.8138 12.6027 28.138C12.6027 28.4622 12.8638 28.7251 13.1859 28.7251H34.6266V38.6301C34.6266 38.738 34.5394 38.8258 34.4322 38.8258H27.538C27.2159 38.8258 26.9547 39.0887 26.9547 39.4129C26.9547 39.7371 27.2159 40 27.538 40H34.4322C35.1825 40 35.793 39.3855 35.793 38.6302V28.725H36.6392C37.3895 28.725 38 28.1105 38 27.3552V26.1515C37.9999 25.3961 37.3895 24.7816 36.6391 24.7816ZM32.401 24.7194V24.7815H30.1256V23.9607C30.1256 23.6365 29.8645 23.3736 29.5424 23.3736C29.2203 23.3736 28.9592 23.6364 28.9592 23.9607V24.7815H25.3475L26.3751 23.1926L26.4261 23.2293C26.5259 23.3012 26.6447 23.3387 26.7652 23.3387C26.8099 23.3387 26.8549 23.3335 26.8993 23.323C27.0631 23.284 27.2021 23.1758 27.2808 23.0261L29.2304 19.3143C31.1192 20.3685 32.401 22.3958 32.401 24.7194ZM21.6308 18.5777C22.2614 19.4516 22.8564 20.2166 23.4059 20.8594L21.9824 21.8835L20.3864 18.8449C20.7852 18.7145 21.2012 18.6234 21.6308 18.5777ZM28.1575 18.845L26.5615 21.8836L25.1381 20.8595C25.6876 20.2168 26.2825 19.4518 26.9132 18.5778C27.3428 18.6234 27.7588 18.7145 28.1575 18.845ZM25.4879 18.5431C25.0606 19.1131 24.6543 19.6241 24.272 20.0723C23.8897 19.6241 23.4832 19.113 23.056 18.5431H25.4879ZM24.272 21.6794L25.4253 22.5093L24.272 24.2926L23.1186 22.5093L24.272 21.6794ZM19.4021 12.4666V9.72371C20.5923 9.46996 23.6237 8.60465 26.0113 6.05271C26.5741 6.90724 27.6642 8.37965 29.1419 9.52754V12.4666C29.1419 15.1697 26.9572 17.3689 24.272 17.3689C21.5867 17.3689 19.4021 15.1698 19.4021 12.4666ZM8.42142 22.3337C9.88434 22.3337 11.1067 23.3881 11.3792 24.7816H5.46362C5.7361 23.3881 6.95851 22.3337 8.42142 22.3337ZM16.143 24.7194C16.143 22.3958 17.4248 20.3685 19.3136 19.3144L21.2632 23.0262C21.3419 23.1759 21.4809 23.2841 21.6447 23.3231C21.689 23.3337 21.734 23.3388 21.7788 23.3388C21.8992 23.3388 22.0181 23.3012 22.1179 23.2294L22.1689 23.1927L23.1965 24.7816H19.5849V23.9608C19.5849 23.6365 19.3237 23.3737 19.0017 23.3737C18.6796 23.3737 18.4184 23.6365 18.4184 23.9608V24.7816H16.143V24.7194H16.143Z" fill="#00A7AC"/>
</svg>
