<svg width="26" height="26" viewBox="0 0 26 26" fill="none" xmlns="http://www.w3.org/2000/svg">
<path d="M22.6452 18.4541V16.7742C22.6445 16.2183 22.4234 15.6854 22.0303 15.2923C21.6372 14.8992 21.1043 14.6781 20.5484 14.6774H17.0183C17.4064 13.9614 17.7195 13.2072 17.9526 12.4267L19.5461 11.1515C19.7938 10.9537 19.9749 10.6848 20.0649 10.3809C20.155 10.077 20.1496 9.75277 20.0496 9.45201C19.9495 9.15125 19.7597 8.88842 19.5056 8.69897C19.2515 8.50951 18.9454 8.40256 18.6286 8.39255L19.5629 5.82358C19.8013 5.16797 19.8782 4.46455 19.787 3.77292C19.6958 3.0813 19.4392 2.42184 19.039 1.85044C18.6388 1.27903 18.1068 0.812502 17.488 0.490387C16.8692 0.168273 16.1819 5.95348e-05 15.4843 4.4185e-07H11.9239C9.2599 -0.000663981 6.64939 0.748018 4.39065 2.16052C4.32278 2.20256 4.26832 2.26309 4.23368 2.33501C4.19903 2.40693 4.18563 2.48725 4.19505 2.56652C4.20448 2.6458 4.23634 2.72073 4.28688 2.78253C4.33742 2.84432 4.40456 2.8904 4.48039 2.91536L5.49145 3.25084C5.63061 3.29726 5.75882 3.37162 5.86821 3.46937C5.9776 3.56711 6.06586 3.68617 6.12759 3.81925C6.18932 3.95233 6.22321 4.09662 6.22718 4.24326C6.23115 4.3899 6.20512 4.53581 6.15068 4.67203C6.0502 4.92316 6.00404 5.19272 6.01525 5.46298C6.02645 5.73323 6.09476 5.99805 6.21568 6.24L7.29677 8.4001C6.9875 8.42472 6.69277 8.54176 6.45087 8.73603C6.20896 8.9303 6.03106 9.19282 5.94026 9.48949C5.84947 9.78616 5.84997 10.1033 5.94171 10.3997C6.03345 10.696 6.21219 10.958 6.45471 11.1515L8.04826 12.4267C8.28106 13.2071 8.59388 13.9614 8.98174 14.6774H5.45161C4.89572 14.6781 4.36278 14.8992 3.96971 15.2923C3.57663 15.6854 3.3555 16.2183 3.35484 16.7742V18.4541C2.36233 18.8687 1.51442 19.5673 0.917558 20.4622C0.320698 21.357 0.00148721 22.4082 0 23.4839V25.5806C0 25.6919 0.0441819 25.7985 0.122826 25.8772C0.20147 25.9558 0.308135 26 0.419355 26H25.5806C25.6919 26 25.7985 25.9558 25.8772 25.8772C25.9558 25.7985 26 25.6919 26 25.5806V23.4839C25.9985 22.4082 25.6793 21.357 25.0824 20.4622C24.4856 19.5673 23.6377 18.8687 22.6452 18.4541ZM16.3548 8.3871H13.8387C13.7275 8.3871 13.6208 8.43128 13.5422 8.50992C13.4635 8.58857 13.4194 8.69523 13.4194 8.80645V9.22581H12.5806V8.80645C12.5806 8.69523 12.5365 8.58857 12.4578 8.50992C12.3792 8.43128 12.2725 8.3871 12.1613 8.3871H8.3871V7.77274L11.0047 6.02781C11.568 5.6515 12.2303 5.45096 12.9077 5.45161C13.8769 5.45048 14.817 5.12065 15.5744 4.51603L16.2596 3.96794L16.9788 5.04736C17.3929 5.66694 17.6136 6.39556 17.6129 7.14077V8.3871H16.3548ZM15.9355 9.22581V10.4839C15.9355 10.5951 15.8913 10.7018 15.8127 10.7804C15.734 10.859 15.6273 10.9032 15.5161 10.9032H14.6774C14.5662 10.9032 14.4595 10.859 14.3809 10.7804C14.3022 10.7018 14.2581 10.5951 14.2581 10.4839V9.22581H15.9355ZM11.7419 9.22581V10.4839C11.7419 10.5951 11.6978 10.7018 11.6191 10.7804C11.5405 10.859 11.4338 10.9032 11.3226 10.9032H10.4839C10.3727 10.9032 10.266 10.859 10.1873 10.7804C10.1087 10.7018 10.0645 10.5951 10.0645 10.4839V9.22581H11.7419ZM19.2903 9.93871C19.2905 10.0457 19.2666 10.1513 19.2203 10.2478C19.1739 10.3442 19.1064 10.4289 19.0228 10.4956L18.2625 11.1037C18.3733 10.4836 18.4343 9.85563 18.4449 9.22581H18.5774C18.671 9.22581 18.7637 9.24425 18.8502 9.28007C18.9367 9.3159 19.0153 9.36841 19.0815 9.43461C19.1477 9.50081 19.2002 9.5794 19.2361 9.66589C19.2719 9.75239 19.2903 9.84509 19.2903 9.93871ZM6.929 4.98361C7.02589 4.74132 7.07225 4.48179 7.06524 4.22093C7.05824 3.96008 6.99801 3.70341 6.88826 3.46667C6.77851 3.22992 6.62154 3.0181 6.427 2.84419C6.23245 2.67028 6.00442 2.53795 5.7569 2.45532L5.62858 2.41339C7.56576 1.37916 9.72797 0.838322 11.9239 0.83871H15.4843C16.0469 0.838816 16.6012 0.974502 17.1003 1.23428C17.5994 1.49406 18.0285 1.87028 18.3514 2.33108C18.6742 2.79188 18.8813 3.32369 18.955 3.88149C19.0287 4.43928 18.967 5.00663 18.7749 5.53548L18.4105 6.53774C18.3194 5.83754 18.0683 5.16772 17.6766 4.58019L16.7037 3.12042C16.6715 3.07207 16.6295 3.03096 16.5805 2.9997C16.5314 2.96844 16.4765 2.94771 16.419 2.93884C16.3616 2.93017 16.303 2.9334 16.2468 2.94833C16.1907 2.96326 16.1383 2.98958 16.0927 3.02565L15.0506 3.86142C14.4418 4.34691 13.6864 4.6118 12.9077 4.6129C12.0646 4.61214 11.2403 4.86172 10.5392 5.33L7.735 7.19948C7.709 7.21713 7.68508 7.23767 7.66371 7.26071L6.9659 5.86468C6.8979 5.72875 6.85945 5.57996 6.85309 5.4281C6.84673 5.27624 6.8726 5.12475 6.929 4.98361ZM6.97764 10.4965C6.8619 10.4043 6.77769 10.2784 6.73669 10.1363C6.69568 9.99412 6.69993 9.84274 6.74882 9.7031C6.79772 9.56347 6.88884 9.44251 7.00957 9.35698C7.13029 9.27146 7.27463 9.22562 7.42258 9.22581H7.55426C7.5648 9.85591 7.62581 10.4842 7.73668 11.1045L6.97764 10.4965ZM8.39381 9.22581H9.22581V10.4839C9.22581 10.8175 9.35835 11.1375 9.59429 11.3735C9.83022 11.6094 10.1502 11.7419 10.4839 11.7419H11.3226C11.6562 11.7419 11.9762 11.6094 12.2122 11.3735C12.4481 11.1375 12.5806 10.8175 12.5806 10.4839V10.0645H13.4194V10.4839C13.4194 10.8175 13.5519 11.1375 13.7878 11.3735C14.0238 11.6094 14.3438 11.7419 14.6774 11.7419H15.5161C15.8498 11.7419 16.1698 11.6094 16.4057 11.3735C16.6416 11.1375 16.7742 10.8175 16.7742 10.4839V9.22581H17.6062C17.5736 11.1479 17.037 13.0278 16.05 14.6774H9.95003C8.963 13.0278 8.42637 11.1479 8.39381 9.22581ZM5.45161 15.5161H20.5484C20.882 15.5161 21.202 15.6487 21.438 15.8846C21.6739 16.1205 21.8065 16.4405 21.8065 16.7742V25.1613H4.19355V16.7742C4.19355 16.4405 4.32609 16.1205 4.56203 15.8846C4.79796 15.6487 5.11795 15.5161 5.45161 15.5161ZM0.83871 23.4839C0.839848 22.6341 1.07533 21.8012 1.51924 21.0767C1.96316 20.3521 2.59831 19.764 3.35484 19.3771V25.1613H0.83871V23.4839ZM25.1613 25.1613H22.6452V19.3771C23.4017 19.7641 24.0368 20.3522 24.4807 21.0767C24.9246 21.8012 25.1601 22.6342 25.1613 23.4839V25.1613Z" fill="#00A7AC"/>
<path d="M12.9997 23.9032C13.3314 23.9032 13.6558 23.8049 13.9316 23.6205C14.2075 23.4362 14.4225 23.1743 14.5494 22.8677C14.6764 22.5612 14.7096 22.224 14.6449 21.8986C14.5801 21.5732 14.4204 21.2743 14.1858 21.0397C13.9512 20.8051 13.6523 20.6454 13.3269 20.5806C13.0015 20.5159 12.6643 20.5491 12.3578 20.6761C12.0513 20.803 11.7893 21.018 11.605 21.2939C11.4206 21.5697 11.3223 21.8941 11.3223 22.2258C11.3223 22.6707 11.499 23.0974 11.8136 23.4119C12.1281 23.7265 12.5548 23.9032 12.9997 23.9032ZM12.9997 21.3871C13.1656 21.3871 13.3277 21.4363 13.4656 21.5285C13.6036 21.6206 13.7111 21.7516 13.7746 21.9049C13.838 22.0581 13.8546 22.2268 13.8223 22.3894C13.7899 22.5521 13.71 22.7016 13.5927 22.8189C13.4754 22.9362 13.326 23.0161 13.1633 23.0484C13.0006 23.0808 12.832 23.0642 12.6787 23.0007C12.5255 22.9372 12.3945 22.8297 12.3023 22.6918C12.2102 22.5539 12.161 22.3917 12.161 22.2258C12.161 22.0034 12.2493 21.7901 12.4066 21.6328C12.5639 21.4755 12.7772 21.3871 12.9997 21.3871Z" fill="#00A7AC"/>
<path d="M10.1879 20.0062L10.7809 19.4132L9.39993 18.0323L10.7809 16.6514L10.1879 16.0584L8.51048 17.7358C8.43186 17.8145 8.3877 17.9211 8.3877 18.0323C8.3877 18.1435 8.43186 18.2502 8.51048 18.3288L10.1879 20.0062Z" fill="#00A7AC"/>
<path d="M15.8127 20.0062L17.4901 18.3288C17.5687 18.2502 17.6129 18.1435 17.6129 18.0323C17.6129 17.9211 17.5687 17.8145 17.4901 17.7358L15.8127 16.0584L15.2197 16.6514L16.6007 18.0323L15.2197 19.4132L15.8127 20.0062Z" fill="#00A7AC"/>
<path d="M13.923 16.1032L11.4062 19.4576L12.0771 19.9609L14.5939 16.6066L13.923 16.1032Z" fill="#00A7AC"/>
</svg>
