<svg width="13" height="16" viewBox="0 0 13 16" fill="none" xmlns="http://www.w3.org/2000/svg">
<path d="M11.9975 4.38235V14.9693C11.9975 15.5386 11.5193 16 10.9303 16H1.06712C0.477668 16 1.64344e-09 15.5386 1.64344e-09 14.9693V1.03072C-3.23519e-05 0.461376 0.477636 0 1.06712 0H7.46035L11.9975 4.38235Z" fill="#518EF8"/>
<path d="M2.9375 8.03296H9.07258V8.69143H2.9375V8.03296ZM2.9375 9.50352H9.07258V10.162H2.9375V9.50352ZM2.9375 10.9741H9.07258V11.6326H2.9375V10.9741ZM2.9375 12.4447H7.30054V13.1032H2.9375V12.4447Z" fill="white"/>
<path d="M8.07812 4.28709L11.9962 5.84619V4.38231L9.77478 3.74878L8.07812 4.28709Z" fill="#3A5BBC"/>
<path d="M12.0059 4.38235H8.53587C7.94639 4.38235 7.46875 3.92098 7.46875 3.35163V0L12.0059 4.38235Z" fill="#ACD1FC"/>
</svg>
