<svg width="12" height="12" viewBox="0 0 12 12" fill="none" xmlns="http://www.w3.org/2000/svg">
<path d="M6 0C2.68612 0 0 2.68649 0 6C0 9.31351 2.68612 12 6 12C9.31388 12 12 9.31347 12 5.99996C12 2.68645 9.31384 0 6 0ZM9.93707 2.90398C10.5821 3.723 10.977 4.74596 11.0081 5.85933C9.66183 5.62347 8.50084 5.61634 7.49769 5.77534C7.37057 5.48358 7.23971 5.2001 7.10546 4.92559C8.18135 4.48311 9.14623 3.83772 9.93707 2.90398ZM9.2467 2.187C8.54022 3.04461 7.65332 3.63485 6.64984 4.03651C6.00746 2.84627 5.34674 1.85437 4.81874 1.13026C5.19787 1.03762 5.59274 0.98815 5.99963 0.98815C7.23823 0.987738 8.37145 1.44035 9.2467 2.187ZM3.84563 1.47561C4.35599 2.15697 5.03512 3.14397 5.69926 4.3541C4.29153 4.74072 2.71689 4.84498 1.12314 4.84947C1.47487 3.35849 2.4926 2.12249 3.84563 1.47561ZM0.98848 5.99955L0.992599 5.83754H1.01958C2.80533 5.83754 4.57831 5.72055 6.16794 5.25216C6.28645 5.4933 6.40306 5.74078 6.51708 5.99543C4.42573 6.60857 3.12185 7.98479 2.22823 9.29427C1.45724 8.41347 0.98848 7.26034 0.98848 5.99955ZM2.95873 9.97909C3.80472 8.70486 4.98372 7.4441 6.90222 6.91458C7.35035 8.06284 7.71597 9.31606 7.90949 10.6323C7.32073 10.8768 6.67612 11.0118 6.00037 11.0118C4.85697 11.0118 3.8025 10.6267 2.95873 9.97909ZM8.83124 10.1329C8.6261 8.93022 8.2901 7.78311 7.88547 6.71962C8.76224 6.60824 9.7702 6.63526 10.9387 6.85012C10.7051 8.20829 9.92435 9.38172 8.83124 10.1329Z" fill="#EA4C89"/>
</svg>
