<svg width="14" height="14" viewBox="0 0 14 14" fill="none" xmlns="http://www.w3.org/2000/svg">
<path d="M13.8588 1.39048C13.9481 1.48096 13.9983 1.6035 13.9983 1.73125C13.9983 1.859 13.9481 1.98154 13.8588 2.07202L12.8621 3.07984L10.9508 1.14914L11.9475 0.141321C12.0371 0.0508331 12.1586 0 12.2854 0C12.4121 0 12.5336 0.0508331 12.6232 0.141321L13.8588 1.38952V1.39048ZM12.1864 3.76138L10.2751 1.83068L3.76427 8.40857C3.71168 8.46169 3.67208 8.52647 3.64864 8.59777L2.87934 10.9281C2.86539 10.9706 2.86341 11.0162 2.87362 11.0597C2.88383 11.1033 2.90583 11.1431 2.93716 11.1748C2.9685 11.2064 3.00792 11.2286 3.05104 11.239C3.09416 11.2493 3.13927 11.2473 3.18133 11.2332L5.48827 10.4561C5.55876 10.4327 5.62289 10.393 5.67558 10.3402L12.1864 3.76138Z" fill="white"/>
<path fill-rule="evenodd" clip-rule="evenodd" d="M0 12.55C0 12.9341 0.151027 13.3024 0.419856 13.5739C0.688686 13.8455 1.0533 13.998 1.43348 13.998H11.9457C12.3258 13.998 12.6905 13.8455 12.9593 13.5739C13.2281 13.3024 13.3791 12.9341 13.3791 12.55V6.75792C13.3791 6.62991 13.3288 6.50714 13.2392 6.41662C13.1496 6.3261 13.028 6.27525 12.9013 6.27525C12.7746 6.27525 12.653 6.3261 12.5634 6.41662C12.4738 6.50714 12.4235 6.62991 12.4235 6.75792V12.55C12.4235 12.678 12.3731 12.8008 12.2835 12.8913C12.1939 12.9818 12.0724 13.0327 11.9457 13.0327H1.43348C1.30675 13.0327 1.18521 12.9818 1.0956 12.8913C1.006 12.8008 0.955653 12.678 0.955653 12.55V1.93118C0.955653 1.80316 1.006 1.68039 1.0956 1.58988C1.18521 1.49936 1.30675 1.4485 1.43348 1.4485H7.64522C7.77195 1.4485 7.89349 1.39765 7.9831 1.30713C8.07271 1.21661 8.12305 1.09384 8.12305 0.965829C8.12305 0.837815 8.07271 0.715045 7.9831 0.624526C7.89349 0.534007 7.77195 0.483154 7.64522 0.483154H1.43348C1.0533 0.483154 0.688686 0.635713 0.419856 0.90727C0.151027 1.17883 0 1.54714 0 1.93118V12.55Z" fill="white"/>
</svg>
