<svg width="40" height="40" viewBox="0 0 40 40" fill="none" xmlns="http://www.w3.org/2000/svg">
<path d="M39.1127 6.74467L20.4527 0.0780017C20.158 -0.0260006 19.8366 -0.0260006 19.542 0.0780017L0.886667 6.74467C0.628588 6.8377 0.405486 7.00806 0.247787 7.23254C0.0900877 7.45701 0.0054679 7.72467 0.0054679 7.999C0.0054679 8.27333 0.0900877 8.54099 0.247787 8.76546C0.405486 8.98994 0.628588 9.16031 0.886667 9.25333L10 12.5093V16.666C10 19.258 18.9767 19.3327 20 19.3327C21.0233 19.3327 30 19.258 30 16.666V12.5093L32 11.7993V13.3327C32 13.6863 32.1405 14.0254 32.3905 14.2755C32.6406 14.5255 32.9797 14.666 33.3333 14.666H34.6667C35.0203 14.666 35.3594 14.5255 35.6095 14.2755C35.8595 14.0254 36 13.6863 36 13.3327V11.3327C35.998 11.024 35.9236 10.72 35.7827 10.4453L39.116 9.25333C39.3741 9.16031 39.5972 8.98994 39.7549 8.76546C39.9126 8.54099 39.9972 8.27333 39.9972 7.999C39.9972 7.72467 39.9126 7.45701 39.7549 7.23254C39.5972 7.00806 39.3741 6.8377 39.116 6.74467H39.1127ZM28.6667 15.1993C26.1273 14.0433 20.7767 13.9993 20 13.9993C19.2233 13.9993 13.8727 14.0433 11.3333 15.1993V9.39134C11.7333 8.878 14.8773 7.99934 20 7.99934C25.1227 7.99934 28.2667 8.878 28.6667 9.39134V15.1993ZM20 17.9993C15.0667 17.9993 11.9687 17.1847 11.3893 16.666C11.9687 16.1473 15.068 15.3327 20 15.3327C24.932 15.3327 28.0313 16.1473 28.6107 16.666C28.0313 17.1847 24.9333 17.9993 20 17.9993ZM32.3127 10.2693L30 11.094V9.33267C30 6.74067 21.0233 6.666 20 6.666C18.9767 6.666 10 6.74067 10 9.33267V11.0933L1.33333 7.99934L20.0093 1.33267L33.3333 6.094V9.45534C32.9118 9.60514 32.5525 9.89168 32.3127 10.2693ZM34.6667 13.3327H33.3333V11.3327C33.3333 11.1559 33.4036 10.9863 33.5286 10.8613C33.6536 10.7362 33.8232 10.666 34 10.666C34.1768 10.666 34.3464 10.7362 34.4714 10.8613C34.5964 10.9863 34.6667 11.1559 34.6667 11.3327V13.3327ZM34.6667 9.42867V6.57067L38.6667 7.99934L34.6667 9.42867ZM38 20.666C37.96 20.666 37.92 20.6693 37.8807 20.6767C31.9656 21.5963 25.986 22.0386 20 21.9993C14.0133 22.0387 8.03467 21.596 2.11933 20.6767C2.0799 20.6699 2.04 20.6664 2 20.666C1.53333 20.666 0 21.1947 0 27.9993C0 34.804 1.53333 35.3327 2 35.3327C2.04 35.332 2.08 35.328 2.11933 35.3207C6.66447 34.6007 11.2523 34.1825 15.8527 34.0687L14.5513 37.19C14.4536 37.4344 14.4306 37.7023 14.4854 37.9597C14.5402 38.2172 14.6703 38.4525 14.8591 38.6359C15.0479 38.8193 15.2869 38.9424 15.5459 38.9897C15.8048 39.0369 16.0719 39.0062 16.3133 38.9013L16.8233 38.6833L17.044 39.1907C17.1459 39.4313 17.3167 39.6364 17.5348 39.7802C17.7529 39.9241 18.0087 40.0003 18.27 39.9993H18.2867C18.5499 39.9973 18.8065 39.9171 19.0241 39.769C19.2416 39.6209 19.4103 39.4115 19.5087 39.1673L20.6667 36.3953L21.8207 39.1567C21.9182 39.4031 22.0869 39.6148 22.3052 39.7649C22.5236 39.915 22.7817 39.9966 23.0467 39.9993H23.0667C23.3263 40.0004 23.5804 39.9251 23.7976 39.7829C24.0147 39.6407 24.1853 39.4377 24.288 39.1993L24.5107 38.688L25.0127 38.9033C25.2551 39.0103 25.5239 39.0424 25.7847 38.9955C26.0455 38.9485 26.2862 38.8247 26.4761 38.6398C26.6659 38.455 26.7962 38.2176 26.8501 37.9582C26.904 37.6988 26.8791 37.4292 26.7787 37.184L25.5027 34.124C29.6507 34.2707 33.7853 34.6713 37.884 35.324C37.922 35.3307 37.9613 35.3333 38 35.3327C38.4667 35.3327 40 34.804 40 27.9993C40 21.1947 38.4667 20.666 38 20.666ZM22.1333 23.3127C22.4102 24.3306 22.5714 25.3766 22.614 26.4307C21.8715 26.0854 21.0507 25.9434 20.2354 26.0192C19.4201 26.095 18.6395 26.3858 17.9733 26.862C17.9392 25.6648 17.7858 24.4741 17.5153 23.3073C19.0545 23.339 20.5941 23.3408 22.1333 23.3127ZM20.6667 33.9993C19.7826 33.9993 18.9348 33.6481 18.3096 33.023C17.6845 32.3979 17.3333 31.5501 17.3333 30.666C17.3333 29.7819 17.6845 28.9341 18.3096 28.309C18.9348 27.6839 19.7826 27.3327 20.6667 27.3327C21.5507 27.3327 22.3986 27.6839 23.0237 28.309C23.6488 28.9341 24 29.7819 24 30.666C24 31.5501 23.6488 32.3979 23.0237 33.023C22.3986 33.6481 21.5507 33.9993 20.6667 33.9993ZM2 22.3327C2.51081 24.1763 2.73565 26.0875 2.66667 27.9993C2.73565 29.9112 2.51081 31.8223 2 33.666C1.48919 31.8223 1.26435 29.9112 1.33333 27.9993C1.26435 26.0875 1.48919 24.1763 2 22.3327ZM3.34667 33.7793C3.71133 32.722 4 30.9527 4 27.9993C4 25.046 3.71133 23.2767 3.346 22.218C7.58239 22.8031 11.8477 23.1554 16.1227 23.2733C16.5227 24.816 16.7053 26.4067 16.6667 27.9993C16.6667 28.096 16.6667 28.188 16.6627 28.2807C16.2688 28.9343 16.043 29.6754 16.0056 30.4377C15.9681 31.1999 16.1201 31.9595 16.448 32.6487L16.4187 32.7193C12.0453 32.826 7.68067 33.1807 3.34667 33.7807V33.7793ZM18.2713 38.666L17.7847 37.546C17.7144 37.3845 17.583 37.2573 17.4192 37.1924C17.2554 37.1274 17.0726 37.1299 16.9107 37.1993L15.7887 37.6953L17.352 33.9473C17.9938 34.5977 18.8126 35.0451 19.7067 35.234L18.2713 38.666ZM24.4227 37.1993C24.2607 37.1299 24.0779 37.1274 23.9141 37.1924C23.7504 37.2573 23.619 37.3845 23.5487 37.546L23.0553 38.6547L21.626 35.2327C22.5207 35.0437 23.3402 34.5961 23.9827 33.9453L25.5427 37.6787L24.4227 37.1993ZM37.8667 33.966C33.5835 33.3068 29.2646 32.9061 24.9333 32.766L24.886 32.6513C25.2952 31.789 25.4285 30.8215 25.2677 29.8806C25.1069 28.9398 24.6598 28.0714 23.9873 27.394C23.9822 26.0114 23.8225 24.6338 23.5113 23.2867C28.318 23.1793 33.114 22.76 37.8667 22.032C38.176 22.5573 38.6667 24.6353 38.6667 27.9993C38.6667 31.3633 38.1727 33.4407 37.8667 33.966Z" fill="#00A7AC"/>
</svg>
