<svg width="36" height="40" viewBox="0 0 36 40" fill="none" xmlns="http://www.w3.org/2000/svg">
<path d="M34.128 28.4C33.48 26.5333 32.112 25 30.312 24L24.192 20.6C24.84 19.8 25.344 18.9333 25.632 17.9333L27.144 17.6C28.08 17.4 28.8 16.6 28.8 15.6667V15.3333C28.8 14.2 27.864 13.3333 26.64 13.3333H25.92V12H26.496C27.792 12 28.8 11 28.8 9.86667C28.8 8.86667 28.08 8 27 7.8L25.92 7.46667V7.4C25.92 4.33333 23.472 1.8 20.16 1.46667L19.512 1.4C19.224 0.6 18.36 0 17.424 0H17.064C16.128 0 15.264 0.6 14.976 1.4L14.4 1.46667C11.088 1.8 8.64 4.4 8.64 7.4V7.46667L7.56 7.73333C6.336 8 5.544 9.2 5.832 10.3333C6.12 11.2667 7.056 12 8.064 12H8.64V13.3333H7.92C6.696 13.3333 5.76 14.2 5.76 15.3333V15.6C5.76 16.5333 6.408 17.3333 7.416 17.5333L8.928 17.8667C9.216 18.8 9.648 19.7333 10.368 20.5333L4.248 23.9333C1.584 25.4 0 28 0 30.8V40H31.68C32.904 40 33.84 39.1333 33.84 38V36.3333C35.208 35.4667 36 34 36 32.5333V32C36 30.6 35.352 29.2667 34.128 28.4ZM32.112 27.4667C30.24 27.0667 28.296 27.6667 27.072 29C26.784 28.8 26.352 28.6667 25.92 28.6667V23.8L26.64 23.4667L29.664 25.1333C30.672 25.6667 31.536 26.4667 32.112 27.4667ZM28.224 38.6667H7.92V30.6667C7.92 30.2667 8.208 30 8.64 30H25.92C26.064 30 26.208 30.0667 26.352 30.1333C26.064 30.7333 25.92 31.3333 25.92 32V32.5333C25.92 34.0667 26.712 35.4667 28.08 36.3333V38C28.08 38.2 28.152 38.4667 28.224 38.6667ZM12.744 22.4667L14.184 23.2C16.128 24.2 18.432 24.2 20.376 23.2L21.816 22.4667C22.32 22.2 22.824 21.8667 23.256 21.5333L25.2 22.6667L22.104 24.2C19.152 25.6667 15.552 25.6667 12.528 24.2L9.36 22.6667L11.304 21.6C11.808 21.9333 12.24 22.2 12.744 22.4667ZM23.04 28.6667V25.2L24.48 24.4667V28.6667H23.04ZM12.96 25.8667C15.696 26.9333 18.864 26.9333 21.6 25.8667V28.6667H12.96V25.8667ZM11.52 25.2V28.6667H10.08V24.5333L11.52 25.2ZM26.64 14.6667C27.072 14.6667 27.36 14.9333 27.36 15.3333V15.6C27.36 15.9333 27.144 16.2 26.784 16.2667L25.92 16.4667V14.6667H26.64ZM14.544 2.8H14.832L14.4 5.93333L15.84 6.06667L16.416 1.93333C16.488 1.6 16.776 1.33333 17.136 1.33333H17.496C17.856 1.33333 18.144 1.6 18.216 1.93333L18.792 6.06667L20.232 5.93333L19.8 2.8H20.088C22.608 3.06667 24.48 5 24.552 7.33333H10.08C10.152 5 12.024 3.06667 14.544 2.8ZM8.064 10.6667C7.56 10.6667 7.2 10.2667 7.2 9.86667C7.2 9.46667 7.488 9.13333 7.848 9.06667L9.432 8.73333H25.128L26.712 9.06667C27.216 9.2 27.504 9.6 27.36 10.0667C27.288 10.4667 26.928 10.6667 26.496 10.6667H8.064ZM7.776 16.2667C7.488 16.2 7.2 15.9333 7.2 15.6V15.3333C7.2 14.9333 7.488 14.6667 7.92 14.6667H8.64V16.5333L7.776 16.2667ZM10.08 12H24.48V16.0667C24.48 18.2667 23.184 20.2667 21.096 21.3333L19.656 22.0667C18.144 22.8 16.344 22.8 14.832 22.0667L13.392 21.3333C11.304 20.2667 10.008 18.2667 10.008 16.0667V12H10.08ZM1.44 30.8C1.44 28.4667 2.808 26.2667 4.968 25.0667L7.992 23.4L8.712 23.7333V28.6667C7.488 28.6667 6.552 29.5333 6.552 30.6667V38.6667H1.512V30.8H1.44ZM31.68 38.6667H30.24C29.808 38.6667 29.52 38.4 29.52 38V36.6667H32.4V38C32.4 38.4 32.112 38.6667 31.68 38.6667ZM34.56 32.5333C34.56 33.6667 33.984 34.6667 32.976 35.3333H31.68V32.9333L32.904 31.8L31.896 30.8667L30.96 31.7333L30.024 30.8667L29.016 31.8L30.24 32.9333V35.3333H29.016L28.944 35.2667C27.936 34.6667 27.36 33.6667 27.36 32.5333V32C27.36 30.1333 28.944 28.6667 30.96 28.6667C32.976 28.6667 34.56 30.1333 34.56 32V32.5333Z" fill="#00A7AC"/>
<path d="M22.8897 31.7333L21.7377 30.9333L18.9297 34.4L21.8097 35.0667L20.2977 36.9333L21.4497 37.7333L24.2577 34.2667L21.3777 33.6L22.8897 31.7333Z" fill="#00A7AC"/>
</svg>
