<svg width="12" height="9" viewBox="0 0 12 9" fill="none" xmlns="http://www.w3.org/2000/svg">
<path d="M0 1.5C0 1.10218 0.158035 0.720644 0.43934 0.43934C0.720644 0.158035 1.10218 0 1.5 0H10.5C10.8978 0 11.2794 0.158035 11.5607 0.43934C11.842 0.720644 12 1.10218 12 1.5V7.5C12 7.89782 11.842 8.27936 11.5607 8.56066C11.2794 8.84196 10.8978 9 10.5 9H1.5C1.10218 9 0.720644 8.84196 0.43934 8.56066C0.158035 8.27936 0 7.89782 0 7.5V1.5ZM1.5 0.75C1.30109 0.75 1.11032 0.829018 0.96967 0.96967C0.829018 1.11032 0.75 1.30109 0.75 1.5V1.66275L6 4.81275L11.25 1.66275V1.5C11.25 1.30109 11.171 1.11032 11.0303 0.96967C10.8897 0.829018 10.6989 0.75 10.5 0.75H1.5ZM11.25 2.53725L7.719 4.656L11.25 6.82875V2.53725ZM11.2245 7.69425L6.9945 5.091L6 5.68725L5.0055 5.091L0.7755 7.6935C0.818119 7.8531 0.912237 7.99416 1.04324 8.09479C1.17425 8.19541 1.33481 8.24998 1.5 8.25H10.5C10.6651 8.25002 10.8256 8.19557 10.9566 8.09509C11.0876 7.9946 11.1817 7.85371 11.2245 7.69425ZM0.75 6.82875L4.281 4.656L0.75 2.53725V6.82875Z" fill="#00A7AC"/>
</svg>
