<svg width="14" height="10" viewBox="0 0 14 10" fill="none" xmlns="http://www.w3.org/2000/svg">
<path d="M0 1.66667C0 1.22464 0.184375 0.800716 0.512563 0.488155C0.840752 0.175595 1.28587 0 1.75 0H12.25C12.7141 0 13.1592 0.175595 13.4874 0.488155C13.8156 0.800716 14 1.22464 14 1.66667V8.33333C14 8.77536 13.8156 9.19928 13.4874 9.51184C13.1592 9.8244 12.7141 10 12.25 10H1.75C1.28587 10 0.840752 9.8244 0.512563 9.51184C0.184375 9.19928 0 8.77536 0 8.33333V1.66667ZM1.75 0.833333C1.51794 0.833333 1.29538 0.921131 1.13128 1.07741C0.967187 1.23369 0.875 1.44565 0.875 1.66667V1.8475L7 5.3475L13.125 1.8475V1.66667C13.125 1.44565 13.0328 1.23369 12.8687 1.07741C12.7046 0.921131 12.4821 0.833333 12.25 0.833333H1.75ZM13.125 2.81917L9.0055 5.17333L13.125 7.5875V2.81917ZM13.0952 8.54917L8.16025 5.65667L7 6.31917L5.83975 5.65667L0.90475 8.54833C0.954473 8.72567 1.06428 8.8824 1.21712 8.99421C1.36996 9.10602 1.55728 9.16664 1.75 9.16667H12.25C12.4426 9.16669 12.6298 9.10619 12.7827 8.99454C12.9355 8.88289 13.0454 8.72634 13.0952 8.54917ZM0.875 7.5875L4.9945 5.17333L0.875 2.81917V7.5875Z" fill="#00A7AC"/>
</svg>
