<svg width="16" height="15" viewBox="0 0 16 15" fill="none" xmlns="http://www.w3.org/2000/svg">
<path d="M15.5 13.0007H8.5C8.224 13.0007 8 12.7767 8 12.5007V2.50073C8 2.22473 8.224 2.00073 8.5 2.00073H15.5C15.776 2.00073 16 2.22473 16 2.50073V12.5007C16 12.7767 15.776 13.0007 15.5 13.0007Z" fill="#ECEFF1"/>
<path d="M10.5 5.00073H8.5C8.224 5.00073 8 4.77673 8 4.50073C8 4.22473 8.224 4.00073 8.5 4.00073H10.5C10.776 4.00073 11 4.22473 11 4.50073C11 4.77673 10.776 5.00073 10.5 5.00073ZM10.5 7.00073H8.5C8.224 7.00073 8 6.77673 8 6.50073C8 6.22473 8.224 6.00073 8.5 6.00073H10.5C10.776 6.00073 11 6.22473 11 6.50073C11 6.77673 10.776 7.00073 10.5 7.00073ZM10.5 9.00073H8.5C8.224 9.00073 8 8.77673 8 8.50073C8 8.22473 8.224 8.00073 8.5 8.00073H10.5C10.776 8.00073 11 8.22473 11 8.50073C11 8.77673 10.776 9.00073 10.5 9.00073ZM10.5 11.0007H8.5C8.224 11.0007 8 10.7767 8 10.5007C8 10.2247 8.224 10.0007 8.5 10.0007H10.5C10.776 10.0007 11 10.2247 11 10.5007C11 10.7767 10.776 11.0007 10.5 11.0007ZM13.5 5.00073H12.5C12.224 5.00073 12 4.77673 12 4.50073C12 4.22473 12.224 4.00073 12.5 4.00073H13.5C13.776 4.00073 14 4.22473 14 4.50073C14 4.77673 13.776 5.00073 13.5 5.00073ZM13.5 7.00073H12.5C12.224 7.00073 12 6.77673 12 6.50073C12 6.22473 12.224 6.00073 12.5 6.00073H13.5C13.776 6.00073 14 6.22473 14 6.50073C14 6.77673 13.776 7.00073 13.5 7.00073ZM13.5 9.00073H12.5C12.224 9.00073 12 8.77673 12 8.50073C12 8.22473 12.224 8.00073 12.5 8.00073H13.5C13.776 8.00073 14 8.22473 14 8.50073C14 8.77673 13.776 9.00073 13.5 9.00073ZM13.5 11.0007H12.5C12.224 11.0007 12 10.7767 12 10.5007C12 10.2247 12.224 10.0007 12.5 10.0007H13.5C13.776 10.0007 14 10.2247 14 10.5007C14 10.7767 13.776 11.0007 13.5 11.0007Z" fill="#388E3C"/>
<path d="M8.819 0.115674C8.705 0.0206738 8.552 -0.0203262 8.408 0.00967376L0.408 1.50967C0.293301 1.53087 0.189662 1.5916 0.115116 1.68131C0.0405697 1.77103 -0.000164571 1.88403 4.99728e-07 2.00067V13.0007C4.99728e-07 13.2407 0.171 13.4477 0.408 13.4917L8.408 14.9917C8.438 14.9977 8.469 15.0007 8.5 15.0007C8.616 15.0007 8.729 14.9607 8.819 14.8857C8.87562 14.8387 8.92119 14.7799 8.95247 14.7134C8.98376 14.6468 8.99999 14.5742 9 14.5007V0.500674C9 0.351674 8.934 0.210674 8.819 0.115674Z" fill="#2E7D32"/>
<path d="M6.87651 9.17173L5.29551 7.36473L6.89451 5.30874C7.06451 5.09074 7.02451 4.77673 6.80751 4.60673C6.59051 4.43673 6.27651 4.47673 6.10551 4.69373L4.62451 6.59774L3.37651 5.17173C3.19351 4.96174 2.87751 4.94274 2.67151 5.12474C2.46351 5.30674 2.44251 5.62273 2.62451 5.82973L3.99951 7.40174L2.60551 9.19374C2.43551 9.41174 2.47551 9.72573 2.69251 9.89573C2.78072 9.96388 2.88905 10.0008 3.00051 10.0007C3.14951 10.0007 3.29651 9.93473 3.39551 9.80773L4.67051 8.16774L6.12451 9.82873C6.17113 9.88276 6.22885 9.92609 6.29374 9.95578C6.35863 9.98546 6.42916 10.0008 6.50051 10.0007C6.61751 10.0007 6.73451 9.95973 6.82951 9.87673C7.03751 9.69473 7.05851 9.37873 6.87651 9.17173Z" fill="#FAFAFA"/>
</svg>
