<svg width="12" height="12" viewBox="0 0 12 12" fill="none" xmlns="http://www.w3.org/2000/svg">
<path fill-rule="evenodd" clip-rule="evenodd" d="M7.7654 4.60945C7.80033 4.64429 7.82804 4.68567 7.84694 4.73124C7.86585 4.7768 7.87558 4.82565 7.87558 4.87498C7.87558 4.92431 7.86585 4.97315 7.84694 5.01872C7.82804 5.06428 7.80033 5.10566 7.7654 5.1405L5.51517 7.39073C5.48034 7.42565 5.43895 7.45336 5.39339 7.47227C5.34782 7.49118 5.29898 7.50091 5.24965 7.50091C5.20032 7.50091 5.15147 7.49118 5.10591 7.47227C5.06035 7.45336 5.01896 7.42565 4.98412 7.39073L3.85901 6.26562C3.82414 6.23075 3.79648 6.18935 3.77761 6.14379C3.75874 6.09823 3.74902 6.0494 3.74902 6.00009C3.74902 5.95078 3.75874 5.90195 3.77761 5.85639C3.79648 5.81083 3.82414 5.76943 3.85901 5.73456C3.89388 5.69969 3.93527 5.67203 3.98083 5.65316C4.02639 5.63429 4.07522 5.62458 4.12454 5.62458C4.17385 5.62458 4.22268 5.63429 4.26824 5.65316C4.3138 5.67203 4.35519 5.69969 4.39006 5.73456L5.24965 6.5949L7.23435 4.60945C7.26919 4.57452 7.31057 4.54681 7.35614 4.52791C7.4017 4.509 7.45054 4.49927 7.49987 4.49927C7.54921 4.49927 7.59805 4.509 7.64361 4.52791C7.68918 4.54681 7.73056 4.57452 7.7654 4.60945Z" fill="#00A7AC"/>
<path d="M7.70492 1.88434L7.0141 1.17626L7.55041 0.652712L8.01695 1.13051L8.68452 1.12226C8.97349 1.11884 9.26022 1.17323 9.52786 1.28224C9.7955 1.39125 10.0386 1.55267 10.243 1.75702C10.4473 1.96136 10.6088 2.2045 10.7178 2.47214C10.8268 2.73978 10.8812 3.02651 10.8777 3.31548L10.8702 3.98305L11.3473 4.44959C11.5539 4.65149 11.7181 4.89265 11.8302 5.1589C11.9423 5.42515 12 5.71112 12 6C12 6.28888 11.9423 6.57485 11.8302 6.8411C11.7181 7.10735 11.5539 7.34851 11.3473 7.55041L10.8695 8.01695L10.8777 8.68452C10.8812 8.97349 10.8268 9.26022 10.7178 9.52786C10.6088 9.7955 10.4473 10.0386 10.243 10.243C10.0386 10.4473 9.7955 10.6088 9.52786 10.7178C9.26022 10.8268 8.97349 10.8812 8.68452 10.8777L8.01695 10.8702L7.55041 11.3473C7.34851 11.5539 7.10735 11.7181 6.8411 11.8302C6.57485 11.9423 6.28888 12 6 12C5.71112 12 5.42515 11.9423 5.1589 11.8302C4.89265 11.7181 4.65149 11.5539 4.44959 11.3473L3.98305 10.8695L3.31548 10.8777C3.02651 10.8812 2.73978 10.8268 2.47214 10.7178C2.2045 10.6088 1.96136 10.4473 1.75702 10.243C1.55267 10.0386 1.39125 9.7955 1.28224 9.52786C1.17323 9.26022 1.11884 8.97349 1.12226 8.68452L1.12976 8.01695L0.652712 7.55041C0.446097 7.34851 0.28192 7.10735 0.169831 6.8411C0.0577413 6.57485 0 6.28888 0 6C0 5.71112 0.0577413 5.42515 0.169831 5.1589C0.28192 4.89265 0.446097 4.65149 0.652712 4.44959L1.13051 3.98305L1.12226 3.31548C1.11884 3.02651 1.17323 2.73978 1.28224 2.47214C1.39125 2.2045 1.55267 1.96136 1.75702 1.75702C1.96136 1.55267 2.2045 1.39125 2.47214 1.28224C2.73978 1.17323 3.02651 1.11884 3.31548 1.12226L3.98305 1.12976L4.44959 0.652712C4.65149 0.446097 4.89265 0.28192 5.1589 0.169831C5.42515 0.0577413 5.71112 0 6 0C6.28888 0 6.57485 0.0577413 6.8411 0.169831C7.10735 0.28192 7.34851 0.446097 7.55041 0.652712L7.0141 1.17626C6.88206 1.04109 6.72433 0.933679 6.55017 0.860345C6.37602 0.78701 6.18896 0.749232 6 0.749232C5.81104 0.749232 5.62398 0.78701 5.44983 0.860345C5.27567 0.933679 5.11794 1.04109 4.9859 1.17626L4.29583 1.88434L3.30573 1.87233C3.11684 1.87022 2.92944 1.90588 2.75453 1.97722C2.57962 2.04855 2.42073 2.15412 2.28719 2.28773C2.15366 2.42133 2.04817 2.58028 1.97693 2.75523C1.90568 2.93017 1.87012 3.11759 1.87233 3.30648L1.88434 4.29508L1.17626 4.9859C1.04109 5.11794 0.933679 5.27567 0.860345 5.44983C0.78701 5.62398 0.749232 5.81104 0.749232 6C0.749232 6.18896 0.78701 6.37602 0.860345 6.55017C0.933679 6.72433 1.04109 6.88206 1.17626 7.0141L1.88434 7.70417L1.87233 8.69427C1.87022 8.88316 1.90588 9.07056 1.97722 9.24547C2.04855 9.42038 2.15412 9.57927 2.28773 9.71281C2.42133 9.84634 2.58028 9.95183 2.75523 10.0231C2.93017 10.0943 3.11759 10.1299 3.30648 10.1277L4.29508 10.1157L4.9859 10.8237C5.11794 10.9589 5.27567 11.0663 5.44983 11.1397C5.62398 11.213 5.81104 11.2508 6 11.2508C6.18896 11.2508 6.37602 11.213 6.55017 11.1397C6.72433 11.0663 6.88206 10.9589 7.0141 10.8237L7.70417 10.1157L8.69427 10.1277C8.88316 10.1298 9.07056 10.0941 9.24547 10.0228C9.42038 9.95145 9.57927 9.84588 9.71281 9.71227C9.84634 9.57867 9.95183 9.41972 10.0231 9.24477C10.0943 9.06983 10.1299 8.88241 10.1277 8.69352L10.1157 7.70492L10.8237 7.0141C10.9589 6.88206 11.0663 6.72433 11.1397 6.55017C11.213 6.37602 11.2508 6.18896 11.2508 6C11.2508 5.81104 11.213 5.62398 11.1397 5.44983C11.0663 5.27567 10.9589 5.11794 10.8237 4.9859L10.1157 4.29583L10.1277 3.30573C10.1298 3.11684 10.0941 2.92944 10.0228 2.75453C9.95145 2.57962 9.84588 2.42073 9.71227 2.28719C9.57867 2.15366 9.41972 2.04817 9.24477 1.97693C9.06983 1.90568 8.88241 1.87012 8.69352 1.87233L7.70492 1.88434Z" fill="#00A7AC"/>
</svg>
