<svg width="18" height="20" viewBox="0 0 18 20" fill="none" xmlns="http://www.w3.org/2000/svg">
<path d="M7.01362 7.86223C6.95726 7.82565 6.89031 7.80479 6.81871 7.80479C6.61799 7.80479 6.45508 7.96869 6.45508 8.17065C6.45508 8.2665 6.49177 8.35394 6.55181 8.41906C6.61835 8.4915 6.71322 8.5365 6.81871 8.5365C7.01941 8.5365 7.18235 8.3726 7.18235 8.17065C7.18235 8.04077 7.11508 7.92699 7.01362 7.86223Z" fill="white"/>
<path d="M9 1.00016V3.41479" stroke="white" stroke-linecap="round" stroke-linejoin="round"/>
<path d="M9 16.5854V19" stroke="white" stroke-linecap="round" stroke-linejoin="round"/>
<path d="M2.10156 3.79107L3.64447 5.34338" stroke="white" stroke-linecap="round" stroke-linejoin="round"/>
<path d="M14.3555 15.0225L15.8984 16.5748" stroke="white" stroke-linecap="round" stroke-linejoin="round"/>
<path d="M15.8984 3.79107L14.3555 5.34338" stroke="white" stroke-linecap="round" stroke-linejoin="round"/>
<path d="M3.64447 15.0225L2.10156 16.5748" stroke="white" stroke-linecap="round" stroke-linejoin="round"/>
<path d="M17 9.99988C17 9.99988 13.82 14.756 9 14.756C4.18 14.756 1 9.99988 1 9.99988C1 9.99988 4.18 5.24379 9 5.24379C13.82 5.24379 17 9.99988 17 9.99988Z" stroke="white" stroke-linecap="round" stroke-linejoin="round"/>
<path d="M7.96125 7.26578C7.97431 7.26066 7.98743 7.2559 8.00052 7.25115C8.01503 7.24566 8.02962 7.24054 8.04416 7.23542C8.05725 7.23066 8.07034 7.22627 8.0838 7.22188C8.10089 7.21603 8.11871 7.21017 8.13616 7.20468C8.15871 7.19773 8.18125 7.19078 8.20416 7.18456C8.22634 7.17798 8.24889 7.17176 8.2718 7.1659C8.2958 7.15968 8.31976 7.15383 8.3438 7.14834C8.36634 7.14322 8.38852 7.1381 8.41107 7.13371C8.42925 7.12968 8.44743 7.12603 8.46598 7.12273C8.48198 7.11981 8.49798 7.11688 8.51398 7.11432C8.52267 7.11249 8.53176 7.11103 8.54085 7.10993C8.55725 7.107 8.57362 7.10481 8.58998 7.10261C8.59434 7.10188 8.59834 7.10115 8.60271 7.10078C8.61652 7.09859 8.63071 7.09676 8.64489 7.09493C8.66016 7.0931 8.67543 7.09127 8.69071 7.08981L8.71252 7.08761C8.72816 7.08578 8.74416 7.08432 8.7598 7.08322C8.76812 7.08249 8.77652 7.08176 8.78485 7.08139C8.7954 7.08029 8.80634 7.07956 8.81689 7.0792C8.83252 7.0781 8.84849 7.07737 8.86416 7.07664C8.88452 7.07554 8.90489 7.07481 8.92562 7.07444C8.95034 7.07371 8.97576 7.07334 9.00089 7.07334C10.6074 7.07334 11.91 8.38383 11.91 10.0002C11.91 10.5054 11.7827 10.9807 11.5587 11.3952C11.5365 11.4361 11.5136 11.4768 11.4896 11.5163C11.4772 11.5371 11.4645 11.5572 11.4514 11.5777C11.4282 11.6143 11.4042 11.6502 11.3794 11.6857C11.3769 11.6893 11.3743 11.6926 11.3718 11.6963C11.3187 11.7716 11.262 11.8444 11.2016 11.914C11.1561 11.967 11.1085 12.0186 11.059 12.0683C11.0143 12.1133 10.9681 12.1572 10.9205 12.199C10.7209 12.3757 10.4973 12.5253 10.2547 12.6416C10.2147 12.661 10.1743 12.6793 10.1332 12.6969C10.0463 12.7338 9.95689 12.7668 9.86598 12.7953C9.77471 12.8238 9.68198 12.848 9.58707 12.8674C9.39762 12.9065 9.20158 12.927 9.00089 12.927C7.39434 12.927 6.0918 11.6165 6.0918 10.0002C6.0918 9.97493 6.09216 9.94968 6.09289 9.92481C6.09325 9.90432 6.09394 9.8842 6.09507 9.86371C6.0958 9.84468 6.09685 9.82566 6.09798 9.807C6.09834 9.80151 6.09871 9.79603 6.09907 9.79054C6.10052 9.77298 6.10158 9.75542 6.10343 9.73786C6.1038 9.73346 6.10416 9.72944 6.10449 9.72505C6.10634 9.7042 6.10852 9.68334 6.11107 9.66286V9.66212C6.11358 9.64017 6.11616 9.61822 6.11943 9.59627C6.12161 9.57981 6.1238 9.56334 6.12671 9.54688C6.12962 9.52493 6.13322 9.50371 6.13725 9.48212C6.13794 9.47627 6.13907 9.47078 6.14016 9.46493" stroke="white" stroke-linecap="round" stroke-linejoin="round"/>
<path d="M9.00107 11.0975C8.39961 11.0975 7.91016 10.6051 7.91016 9.99997C7.91016 9.39485 8.39961 8.90241 9.00107 8.90241C9.60252 8.90241 10.092 9.39485 10.092 9.99997C10.092 10.6051 9.60252 11.0975 9.00107 11.0975Z" fill="white"/>
</svg>
