<svg width="12" height="12" viewBox="0 0 12 12" fill="none" xmlns="http://www.w3.org/2000/svg">
<mask id="mask0_1180_1098" style="mask-type:alpha" maskUnits="userSpaceOnUse" x="0" y="0" width="12" height="12">
<rect width="12" height="12" fill="#D9D9D9"/>
</mask>
<g mask="url(#mask0_1180_1098)">
<path d="M4.67341 6.77499C4.62985 6.77499 3.71608 6.77529 3.29463 6.77484C3.07767 6.77469 3.00026 6.69039 3.00026 6.45429C2.99999 5.84784 2.99985 5.24139 3.00026 4.63494C3.0004 4.40184 3.08225 4.31289 3.29644 4.31274C3.71788 4.31244 4.62666 4.31259 4.67341 4.31259C4.67341 4.27104 4.67327 3.39549 4.67341 2.99229C4.67369 2.39619 4.77204 1.82559 5.05213 1.30314C5.33887 0.768392 5.75615 0.402092 6.29093 0.190292C6.63344 0.0545425 6.98899 0.000392557 7.35245 9.25572e-05C7.80718 -0.000207443 8.26192 0.000242552 8.71679 0.00114255C8.91226 0.00144255 8.99896 0.0948924 8.99938 0.307742C9.00021 0.878192 9.00021 1.44864 8.99938 2.01894C8.9991 2.23404 8.916 2.32044 8.7161 2.32284C8.34335 2.32719 7.97032 2.32449 7.59799 2.34069C7.22191 2.34069 7.02409 2.53929 7.02409 2.96019C7.01507 3.40539 7.02034 3.85104 7.02034 4.31244C7.05558 4.31244 8.12583 4.31229 8.62607 4.31244C8.8533 4.31244 8.93098 4.39689 8.93098 4.64394C8.93098 5.24709 8.93085 5.85039 8.93043 6.45354C8.93029 6.69699 8.85732 6.77469 8.6287 6.77484C8.12847 6.77514 7.06237 6.77499 7.01576 6.77499V11.6567C7.01576 11.917 6.94002 11.9999 6.70252 11.9999C6.12349 11.9999 5.54432 12.0001 4.96529 11.9999C4.7554 11.9999 4.67355 11.9117 4.67355 11.6848C4.67341 10.0949 4.67341 6.83079 4.67341 6.77499Z" fill="#3D6AD6"/>
</g>
</svg>
