<svg width="8" height="15" viewBox="0 0 8 15" fill="none" xmlns="http://www.w3.org/2000/svg">
<path d="M2.23121 8.46873C2.17314 8.46873 0.95477 8.46911 0.392846 8.46855C0.103561 8.46836 0.000350211 8.36298 0.000350211 8.06786C-1.9719e-05 7.3098 -0.000204684 6.55174 0.000350211 5.79367C0.000535176 5.5023 0.109665 5.39111 0.395251 5.39092C0.957175 5.39055 2.16888 5.39074 2.23121 5.39074C2.23121 5.3388 2.23103 4.24436 2.23121 3.74036C2.23158 2.99524 2.36272 2.28199 2.73617 1.62893C3.11849 0.96049 3.67487 0.502615 4.38791 0.237865C4.84459 0.0681781 5.31865 0.000490696 5.80326 0.000115696C6.40958 -0.000259303 7.01589 0.000303191 7.62239 0.00142819C7.88301 0.00180319 7.99861 0.118616 7.99917 0.384678C8.00028 1.09774 8.00028 1.8108 7.99917 2.52368C7.9988 2.79255 7.888 2.90055 7.62147 2.90355C7.12447 2.90899 6.6271 2.90561 6.13065 2.92586C5.62921 2.92586 5.36545 3.17411 5.36545 3.70024C5.35343 4.25674 5.36046 4.8138 5.36046 5.39055C5.40744 5.39055 6.83444 5.39036 7.50143 5.39055C7.8044 5.39055 7.90798 5.49611 7.90798 5.80492C7.90798 6.55886 7.90779 7.31298 7.90724 8.06692C7.90705 8.37123 7.80976 8.46836 7.50494 8.46855C6.83796 8.46892 5.4165 8.46873 5.35435 8.46873V14.5709C5.35435 14.8962 5.25336 14.9999 4.9367 14.9999C4.16466 14.9999 3.39243 15.0001 2.62038 14.9999C2.34053 14.9999 2.2314 14.8897 2.2314 14.606C2.23121 12.6187 2.23121 8.53848 2.23121 8.46873Z" fill="#3D6AD6"/>
</svg>
