<svg width="36" height="36" viewBox="0 0 36 36" fill="none" xmlns="http://www.w3.org/2000/svg">
<path d="M18 36C14.4399 36 10.9598 34.9443 7.99974 32.9665C5.03966 30.9886 2.73255 28.1774 1.37018 24.8883C0.00779921 21.5992 -0.348661 17.98 0.345873 14.4884C1.04041 10.9967 2.75474 7.78943 5.27209 5.27209C7.78943 2.75474 10.9967 1.04041 14.4884 0.345873C17.98 -0.348661 21.5992 0.00779921 24.8883 1.37018C28.1774 2.73255 30.9886 5.03966 32.9665 7.99974C34.9443 10.9598 36 14.4399 36 18C35.9946 22.7722 34.0964 27.3475 30.7219 30.7219C27.3475 34.0964 22.7722 35.9946 18 36ZM18 1.56523C14.7495 1.56523 11.572 2.52911 8.86933 4.33498C6.16664 6.14086 4.06016 8.70762 2.81625 11.7107C1.57234 14.7137 1.24688 18.0182 1.88101 21.2063C2.51515 24.3943 4.08042 27.3227 6.37886 29.6211C8.67731 31.9196 11.6057 33.4849 14.7937 34.119C17.9818 34.7531 21.2863 34.4277 24.2893 33.1838C27.2924 31.9398 29.8591 29.8334 31.665 27.1307C33.4709 24.428 34.4348 21.2505 34.4348 18C34.4299 13.6427 32.6968 9.46532 29.6157 6.38426C26.5347 3.3032 22.3573 1.57011 18 1.56523Z" fill="#00A7AC"/>
<path d="M15.6525 23.4785H20.3482C20.9706 23.4778 21.5674 23.2302 22.0076 22.7901C22.4477 22.3499 22.6953 21.7531 22.696 21.1307V18.0002C22.6945 17.5163 22.5432 17.0447 22.263 16.6501C21.9827 16.2555 21.5872 15.9574 21.1308 15.7966V15.6524C21.1308 14.8222 20.801 14.0259 20.2139 13.4389C19.6268 12.8518 18.8306 12.522 18.0003 12.522C17.1701 12.522 16.3739 12.8518 15.7868 13.4389C15.1997 14.0259 14.8699 14.8222 14.8699 15.6524V15.7966C14.4134 15.9574 14.018 16.2555 13.7377 16.6501C13.4575 17.0447 13.3062 17.5163 13.3047 18.0002V21.1307C13.3054 21.7531 13.553 22.3499 13.9931 22.7901C14.4333 23.2302 15.03 23.4778 15.6525 23.4785ZM18.0003 14.0872C18.4153 14.0876 18.8132 14.2526 19.1067 14.546C19.4002 14.8395 19.5652 15.2374 19.5656 15.6524H16.4351C16.4355 15.2374 16.6005 14.8395 16.894 14.546C17.1874 14.2526 17.5853 14.0876 18.0003 14.0872ZM14.8699 18.0002C14.8702 17.7927 14.9527 17.5938 15.0994 17.4471C15.2461 17.3004 15.445 17.2179 15.6525 17.2176H20.3482C20.5556 17.2179 20.7546 17.3004 20.9013 17.4471C21.048 17.5938 21.1305 17.7927 21.1308 18.0002V21.1307C21.1305 21.3382 21.048 21.5371 20.9013 21.6838C20.7546 21.8305 20.5556 21.913 20.3482 21.9133H15.6525C15.445 21.913 15.2461 21.8305 15.0994 21.6838C14.9527 21.5371 14.8702 21.3382 14.8699 21.1307V18.0002Z" fill="#00A7AC"/>
<path d="M18.0003 28.1739C20.4712 28.171 22.8401 27.1881 24.5872 25.4408C26.3343 23.6935 27.317 21.3246 27.3197 18.8537V12.0234C27.3197 11.8669 27.2728 11.714 27.1851 11.5845C27.0973 11.4549 26.9728 11.3547 26.8275 11.2966L18.2906 7.8818C18.1043 7.80698 17.8962 7.80698 17.7099 7.8818L9.17244 11.2966C9.02714 11.3547 8.90258 11.4549 8.81483 11.5845C8.72708 11.714 8.68018 11.8669 8.68018 12.0234V18.8537C8.68287 21.3247 9.66566 23.6937 11.4129 25.441C13.1602 27.1883 15.5292 28.1712 18.0003 28.1739ZM10.246 12.553L18.0003 9.45171L25.7545 12.553V18.8537C25.7545 20.9102 24.9375 22.8825 23.4833 24.3367C22.0291 25.7909 20.0568 26.6079 18.0003 26.6079C15.9437 26.6079 13.9714 25.7909 12.5172 24.3367C11.063 22.8825 10.246 20.9102 10.246 18.8537V12.553Z" fill="#00A7AC"/>
</svg>
