<svg width="37" height="36" viewBox="0 0 37 36" fill="none" xmlns="http://www.w3.org/2000/svg">
<path d="M7.53982 6.8095L7.51282 12.8097C7.51232 12.9212 7.48078 13.0303 7.42175 13.1248C7.36272 13.2194 7.27852 13.2956 7.17859 13.345C7.07866 13.3943 6.96696 13.4149 6.856 13.4043C6.74504 13.3938 6.63922 13.3525 6.55039 13.2852L5.98397 12.856C5.11431 14.8935 4.77601 17.1184 5.00076 19.3224C5.22551 21.5263 6.00595 23.6372 7.26898 25.4572L6.28368 26.1421C4.82742 24.0442 3.9601 21.5943 3.772 19.0474C3.5839 16.5006 4.08189 13.9498 5.21414 11.6607C5.25336 11.5816 5.30957 11.5121 5.37875 11.4572C5.44793 11.4023 5.52837 11.3633 5.61434 11.3431C5.70031 11.3229 5.78969 11.3219 5.87609 11.3402C5.96249 11.3585 6.04379 11.3957 6.11417 11.449L6.31825 11.6036L6.33625 7.60416L2.49208 8.70669L3.0981 9.16526C3.21287 9.25211 3.29259 9.37733 3.32273 9.51807C3.35287 9.65881 3.33142 9.80569 3.26228 9.93193C2.86218 10.6631 2.51726 11.4231 2.2304 12.2056L1.10363 11.7931C1.35147 11.117 1.63977 10.4565 1.96699 9.81508L0.81075 8.93987C0.721892 8.87263 0.653517 8.78196 0.613287 8.67804C0.573058 8.57412 0.562563 8.46104 0.58298 8.35149C0.603396 8.24194 0.653917 8.14024 0.728881 8.05779C0.803845 7.97534 0.900289 7.91539 1.00741 7.88466L6.77434 6.23004C6.86389 6.20435 6.95818 6.19986 7.04976 6.21693C7.14134 6.234 7.22768 6.27216 7.30196 6.32839C7.37623 6.38461 7.43639 6.45736 7.47768 6.54087C7.51897 6.62438 7.54024 6.71635 7.53982 6.8095ZM1.91284 26.0692L2.98537 25.5302C1.4484 22.479 0.88426 19.0299 1.36907 15.648C1.46575 14.9644 1.60389 14.2873 1.78271 13.6205L0.623694 13.3092C0.432318 14.0232 0.28454 14.7482 0.18118 15.4802C-0.33844 19.1039 0.265962 22.7997 1.91284 26.0692ZM15.1268 12.6596C14.7449 12.8454 14.3818 13.0674 14.0425 13.3227L14.7641 14.2816C15.0417 14.0727 15.3389 13.8909 15.6514 13.7389L15.1268 12.6596ZM11.4032 19.1995H12.6032V18.5994C12.6028 17.2615 13.1004 15.9713 13.9992 14.9802L13.1094 14.1751C12.0108 15.3867 11.4026 16.9639 11.4032 18.5994V19.1995ZM34.2039 35.4V29.9998H33.0039V34.8H27.0037V27.5997H27.6037V26.3997H26.5576C25.1962 25.6526 23.6687 25.2601 22.1157 25.2582C20.5628 25.2563 19.0343 25.6451 17.6711 26.3888L17.6509 26.3997H13.2033C12.8346 26.4001 12.4709 26.4853 12.1405 26.6488C11.81 26.8123 11.5216 27.0496 11.2976 27.3423C11.0735 27.6351 10.9198 27.9755 10.8484 28.3372C10.777 28.6989 10.7897 29.0722 10.8857 29.4281L8.54883 28.3573C8.59696 28.2729 8.65608 28.1953 8.72463 28.1265L10.0274 26.8237C10.1399 26.7112 10.2031 26.5587 10.2032 26.3997V18.5994C10.2062 16.8951 10.766 15.2384 11.7972 13.8814C12.8284 12.5244 14.2746 11.5414 15.9159 11.0819C16.0046 11.0573 16.0865 11.0126 16.1553 10.9512C16.224 10.8899 16.2776 10.8135 16.3121 10.7281C16.3465 10.6427 16.3609 10.5505 16.3539 10.4586C16.347 10.3667 16.3191 10.2777 16.2722 10.1984L14.8547 7.79909H21.1521L19.7345 10.1984C19.6877 10.2777 19.6597 10.3667 19.6528 10.4586C19.6459 10.5505 19.6602 10.6427 19.6947 10.7281C19.7291 10.8135 19.7828 10.8899 19.8515 10.9512C19.9202 11.0126 20.0021 11.0573 20.0909 11.0819C21.7321 11.5413 23.1784 12.5244 24.2096 13.8814C25.2408 15.2384 25.8006 16.8951 25.8037 18.5994V25.1996H27.0037V18.5994C27 16.7652 26.4378 14.9755 25.3918 13.4687C24.3458 11.9619 22.8657 10.8093 21.1485 10.1645L22.7202 7.50425C22.774 7.41313 22.8028 7.30939 22.8036 7.20356C22.8043 7.09773 22.7771 6.99357 22.7247 6.90165C22.6722 6.80973 22.5964 6.73333 22.5049 6.68018C22.4133 6.62704 22.3094 6.59905 22.2035 6.59905H13.8033C13.6974 6.59905 13.5935 6.62704 13.502 6.68018C13.4104 6.73333 13.3346 6.80973 13.2821 6.90165C13.2297 6.99357 13.2025 7.09773 13.2033 7.20356C13.2041 7.30939 13.2328 7.41313 13.2867 7.50425L14.8583 10.1645C13.1411 10.8093 11.661 11.9619 10.615 13.4687C9.56906 14.9755 9.00681 16.7652 9.00312 18.5994V26.1512L7.87605 27.2782C7.70633 27.4477 7.56429 27.6429 7.45514 27.8565L5.43007 26.9291C4.83791 26.6654 4.16837 26.6333 3.55374 26.8393C2.93911 27.0453 2.42408 27.4743 2.11039 28.0416C1.42037 29.3258 1.91066 31.0241 3.21833 31.6792L10.2147 35.1773C11.2983 35.717 12.4922 35.9986 13.7028 36H22.2035V34.8H13.7028C12.6784 34.7987 11.6682 34.5603 10.7513 34.1036L3.75527 30.6056C3.0648 30.2606 2.80484 29.2816 3.16695 28.6105C3.33349 28.309 3.6072 28.081 3.93387 27.9716C4.26054 27.8623 4.61636 27.8796 4.93086 28.0202L11.7533 31.1453C11.8317 31.1812 11.917 31.1998 12.0032 31.1998H18.6034V29.9998H13.2033C12.885 29.9998 12.5797 29.8734 12.3547 29.6483C12.1296 29.4233 12.0032 29.118 12.0032 28.7998C12.0032 28.4815 12.1296 28.1763 12.3547 27.9512C12.5797 27.7262 12.885 27.5997 13.2033 27.5997H17.8032C17.903 27.5997 18.0012 27.5748 18.089 27.5273L18.2442 27.4432C19.4012 26.8119 20.6953 26.4739 22.0131 26.4587C23.331 26.4436 24.6325 26.7518 25.8037 27.3564V34.8H23.4036V36H33.6039C33.7631 36 33.9157 35.9368 34.0282 35.8243C34.1407 35.7117 34.2039 35.5591 34.2039 35.4ZM30.6038 32.3999C30.6038 32.1625 30.5334 31.9305 30.4016 31.7332C30.2697 31.5358 30.0823 31.382 29.863 31.2912C29.6437 31.2004 29.4024 31.1766 29.1697 31.2229C28.9369 31.2692 28.723 31.3835 28.5552 31.5513C28.3874 31.7192 28.2731 31.933 28.2268 32.1658C28.1805 32.3986 28.2043 32.6398 28.2951 32.8591C28.3859 33.0784 28.5397 33.2658 28.7371 33.3977C28.9344 33.5295 29.1664 33.5999 29.4038 33.5999C29.7219 33.5995 30.0269 33.473 30.2519 33.248C30.4769 33.0231 30.6034 32.718 30.6038 32.3999ZM18.6034 16.1994V18.5994C19.24 18.5994 19.8504 18.8523 20.3005 19.3024C20.7506 19.7525 21.0035 20.363 21.0035 20.9995C21.0035 21.6361 20.7506 22.2465 20.3005 22.6966C19.8504 23.1467 19.24 23.3996 18.6034 23.3996V24.5996H17.4034V23.3996C16.7671 23.3989 16.157 23.1458 15.7071 22.6958C15.2571 22.2459 15.004 21.6358 15.0033 20.9995H16.2033C16.2037 21.3177 16.3303 21.6227 16.5552 21.8477C16.7802 22.0726 17.0852 22.1992 17.4034 22.1996V19.7995C16.7668 19.7995 16.1564 19.5466 15.7063 19.0965C15.2562 18.6464 15.0033 18.0359 15.0033 17.3994C15.0033 16.7629 15.2562 16.1524 15.7063 15.7023C16.1564 15.2522 16.7668 14.9993 17.4034 14.9993V13.7993H18.6034V14.9993C19.2397 15 19.8498 15.2531 20.2997 15.7031C20.7497 16.153 21.0028 16.7631 21.0035 17.3994H19.8035C19.8031 17.0812 19.6765 16.7762 19.4516 16.5513C19.2266 16.3263 18.9216 16.1997 18.6034 16.1994ZM17.4034 16.1994C17.0851 16.1994 16.7799 16.3258 16.5548 16.5508C16.3298 16.7759 16.2033 17.0811 16.2033 17.3994C16.2033 17.7177 16.3298 18.0229 16.5548 18.248C16.7799 18.473 17.0851 18.5994 17.4034 18.5994V16.1994ZM18.6034 19.7995V22.1996C18.9217 22.1996 19.2269 22.0731 19.452 21.8481C19.677 21.623 19.8035 21.3178 19.8035 20.9995C19.8035 20.6812 19.677 20.376 19.452 20.151C19.2269 19.9259 18.9217 19.7995 18.6034 19.7995ZM20.3533 1.36508C23.8679 1.86184 27.1349 3.45858 29.6862 5.92642C32.2374 8.39426 33.9418 11.6065 34.555 15.1026L35.7371 14.896C35.2158 11.921 33.9544 9.12494 32.069 6.76529C30.1836 4.40564 27.7348 2.55826 24.9482 1.39323C22.1616 0.228198 19.1266 -0.21703 16.1227 0.0985395C13.1189 0.414109 10.2427 1.48033 7.75905 3.19904C7.63159 3.28733 7.54325 3.42153 7.51256 3.57352C7.48186 3.72551 7.5112 3.88348 7.59442 4.01431L9.59736 7.16352C9.64099 7.23213 9.69811 7.29116 9.76525 7.33702C9.83239 7.38288 9.90815 7.41461 9.98794 7.4303C10.0677 7.44598 10.1499 7.44529 10.2294 7.42825C10.3089 7.41122 10.3841 7.37821 10.4504 7.33122C13.1706 5.39885 16.5289 4.5847 19.832 5.05685C26.9681 6.06518 31.9539 12.6914 30.9452 19.8277C30.7845 20.9712 30.4731 22.0885 30.0192 23.1503L29.4381 22.7104C29.3493 22.6432 29.2435 22.602 29.1326 22.5915C29.0216 22.581 28.91 22.6016 28.8101 22.6509C28.7102 22.7003 28.6261 22.7765 28.567 22.8711C28.508 22.9656 28.4765 23.0746 28.476 23.1861L28.4491 29.1857C28.4487 29.2789 28.47 29.3709 28.5113 29.4544C28.5526 29.5379 28.6128 29.6106 28.6871 29.6668C28.7613 29.723 28.8477 29.7612 28.9393 29.7783C29.0309 29.7953 29.1252 29.7908 29.2147 29.7651L34.9818 28.1109C35.0889 28.0802 35.1853 28.0203 35.2603 27.9378C35.3352 27.8554 35.3857 27.7537 35.4061 27.6441C35.4266 27.5346 35.4161 27.4215 35.3758 27.3176C35.3356 27.2137 35.2673 27.1231 35.1784 27.0558L34.035 26.1903C35.5163 23.2778 36.1824 20.0189 35.9626 16.7588L34.7653 16.8403C34.8442 18.0113 34.8011 19.1874 34.6365 20.3495C34.3559 22.3561 33.7132 24.2951 32.7398 26.0722C32.6706 26.1984 32.6491 26.3453 32.6793 26.486C32.7094 26.6268 32.7891 26.752 32.9038 26.8389L33.4973 27.2882L29.6528 28.3908L29.6707 24.3913L29.8892 24.5563C29.9596 24.6095 30.0408 24.6466 30.1272 24.6649C30.2135 24.6831 30.3029 24.6821 30.3888 24.6619C30.4747 24.6416 30.5551 24.6027 30.6242 24.5478C30.6934 24.493 30.7495 24.4235 30.7888 24.3445C31.4671 22.976 31.9211 21.5075 32.1334 19.995C33.2343 12.2041 27.7912 4.96954 19.9998 3.86896C16.6087 3.3838 13.1564 4.14026 10.2788 5.99903L8.92189 3.86543C12.3076 1.68427 16.3661 0.796569 20.3533 1.36508Z" fill="#00A7AC"/>
</svg>
