<svg width="36" height="36" viewBox="0 0 36 36" fill="none" xmlns="http://www.w3.org/2000/svg">
<path d="M28.1217 16.7708C28.1217 16.7059 28.125 7.13013 28.125 7.13013L14.0625 0L7.74931e-06 7.13069V16.5763C-0.00548541 22.4915 2.90974 28.0166 7.76542 31.294L14.0625 35.5495L18.9135 32.2725C21.5354 35.6785 26.0645 36.9122 30.0163 35.2969C33.9684 33.6816 36.3881 29.6079 35.9486 25.31C35.5089 21.0118 32.3163 17.5287 28.1217 16.7702V16.7708ZM14.0625 34.1805L8.38972 30.3458C3.8466 27.2799 1.11924 22.1104 1.12501 16.5763V7.83568L14.0625 1.27545L27 7.83568V16.6396C26.8132 16.6281 26.6281 16.6106 26.4375 16.6106C26.2469 16.6106 26.0612 16.6281 25.875 16.6396C25.875 16.6184 25.875 8.53927 25.875 8.53927L14.0625 2.55006L2.25001 8.53983V16.5763C2.24589 21.7285 4.7851 26.5406 9.01402 29.3954L14.0625 32.8067L17.7424 30.3202C17.8998 30.6684 18.0775 31.0068 18.2744 31.3335L14.0625 34.1805ZM17.3216 29.2341L14.0625 31.436L9.63859 28.4464C9.42023 28.2985 9.20875 28.1434 9.00001 27.9843V22.8856H7.87501V27.027C7.25758 26.4465 6.69288 25.8106 6.18751 25.1273V21.8124C6.18778 21.028 6.71375 20.3442 7.46384 20.1531L11.2786 19.1832C11.4011 20.4202 12.3 21.4336 13.5 21.6876V24.0265H14.625V21.6876C15.825 21.4338 16.7237 20.4202 16.8459 19.1832L19.35 19.8211C17.067 22.3672 16.2941 25.9537 17.3216 29.2336V29.2341ZM11.25 12.047H12.8048C13.673 12.0458 14.5305 11.8509 15.3163 11.4765H15.4688L16.875 13.3778V15.7549L15.0002 17.1811H13.1248L11.25 15.7549V12.047ZM10.1717 10.906C10.2857 10.1908 10.7347 9.57601 11.3766 9.25736C12.6208 8.69582 14.0227 8.6064 15.3265 9.00528L15.4558 9.19468H16.3125C16.6231 9.19468 16.875 9.45011 16.875 9.76514V11.4765L16.0313 10.3356H15.0548L14.9362 10.3955C14.274 10.73 13.5445 10.9049 12.8048 10.906H10.1717ZM15.75 18.0367V18.8924C15.75 19.8375 14.9944 20.6038 14.0625 20.6038C13.1306 20.6038 12.375 19.8375 12.375 18.8924V18.0367L12.7502 18.322H15.3748L15.75 18.0367ZM16.875 18.0145V17.1811L18 16.3254V9.76514C18 8.81977 17.2444 8.05377 16.3125 8.05377H15.9384C15.1246 7.55212 13.0985 7.45073 11.6634 7.90587C10.0541 8.30669 8.9426 9.79689 9.00001 11.4765V12.047H10.125V16.3254L11.25 17.1811V18.0117L7.19001 19.047C5.93867 19.3637 5.06113 20.5046 5.06251 21.8124V23.3527C3.95399 21.2712 3.37391 18.9423 3.37501 16.5763V9.24482L14.0625 3.8255L24.75 9.24482V16.5763C24.75 16.6418 24.7462 16.707 24.7456 16.7719C23.1051 17.0694 21.5706 17.7983 20.2951 18.886L16.875 18.0145ZM26.4375 34.8652C21.7777 34.8652 18 31.0341 18 26.3083C18 21.5823 21.7777 17.7515 26.4375 17.7515C31.0974 17.7515 34.875 21.5823 34.875 26.3083C34.8698 31.0319 31.0952 34.8596 26.4375 34.8652Z" fill="#00A7AC"/>
<path d="M29.2505 9.76514H36.0005V10.906H29.2505V9.76514Z" fill="#00A7AC"/>
<path d="M29.2505 12.0474H33.7505V13.1883H29.2505V12.0474Z" fill="#00A7AC"/>
<path d="M29.2505 14.3286H31.5005V15.4695H29.2505V14.3286Z" fill="#00A7AC"/>
<path d="M24.3658 25.9047L22.3775 23.8881L19.1953 27.1147L24.3658 32.3583L33.1161 23.4842L29.9339 20.2578L24.3658 25.9047ZM24.3658 30.7449L20.7861 27.1147L22.3775 25.5014L24.3658 27.5177L29.9344 21.8703L31.5258 23.4836L24.3658 30.7449Z" fill="#00A7AC"/>
</svg>
