<svg width="30" height="31" viewBox="0 0 30 31" fill="none" xmlns="http://www.w3.org/2000/svg">
<path d="M28.1588 7.08057H20.1974C19.7101 7.08319 19.2434 7.27772 18.8986 7.62201C18.5537 7.9663 18.3585 8.43261 18.355 8.91989L18.3489 9.72254L18.2849 9.72321C17.6476 9.72695 17.0376 9.98255 16.588 10.4343C16.1384 10.886 15.8857 11.4971 15.885 12.1344C15.8843 12.7717 16.1356 13.3835 16.5841 13.8362C17.0326 14.289 17.642 14.546 18.2793 14.5512L18.3146 14.5517L18.2902 18.1216H15.1865C15.201 17.9233 15.1914 17.724 15.1578 17.5281C15.0698 17.0092 14.8138 16.5335 14.4291 16.1743C14.0444 15.815 13.5524 15.5921 13.0287 15.5397C12.6957 15.5057 12.3594 15.5425 12.0417 15.6478C11.724 15.753 11.4322 15.9243 11.1854 16.1504C10.936 16.3775 10.7367 16.6543 10.6004 16.9628C10.464 17.2714 10.3935 17.605 10.3934 17.9424C10.3934 18.002 10.3956 18.0618 10.4001 18.1216H8.772C8.28219 18.1235 7.81315 18.3197 7.46777 18.667C7.12239 19.0143 6.92888 19.4844 6.92969 19.9743V28.0731C6.92888 28.5629 7.12239 29.0331 7.46777 29.3804C7.81315 29.7277 8.28219 29.9239 8.772 29.9258H18.2996L28.0828 30.002H28.0975C28.5805 30.003 29.0441 29.8125 29.3869 29.4722C29.5612 29.3012 29.6998 29.0972 29.7946 28.8721C29.8895 28.6471 29.9387 28.4054 29.9394 28.1612L29.9989 18.8848H30.0012V8.93325C30.002 8.44342 29.8085 7.97327 29.4631 7.62595C29.1177 7.27862 28.6487 7.08249 28.1588 7.08057ZM18.2058 29.1941H8.77255C8.47674 29.1924 8.19368 29.0734 7.98548 28.8632C7.77727 28.6531 7.66093 28.3689 7.66197 28.0731V19.9744C7.66093 19.6786 7.77727 19.3945 7.98548 19.1843C8.19368 18.9742 8.47674 18.8552 8.77255 18.8535H10.65C10.7247 18.8536 10.7984 18.8373 10.8661 18.8057C10.9337 18.7741 10.9935 18.7279 11.0413 18.6706C11.0901 18.6123 11.1254 18.544 11.1447 18.4705C11.164 18.3971 11.1668 18.3202 11.1531 18.2455C11.1017 17.9633 11.1229 17.6727 11.2147 17.4009C11.3065 17.1292 11.4659 16.8852 11.6779 16.692C11.8495 16.5351 12.0524 16.4161 12.2732 16.3431C12.494 16.2701 12.7277 16.2445 12.9591 16.2682C13.3229 16.3049 13.6646 16.4601 13.9316 16.7099C14.1986 16.9598 14.3762 17.2904 14.437 17.651C14.4709 17.8474 14.4701 18.0482 14.4347 18.2444C14.421 18.3191 14.4239 18.396 14.4433 18.4695C14.4626 18.543 14.4979 18.6113 14.5466 18.6696C14.5945 18.7272 14.6546 18.7735 14.7224 18.8053C14.7903 18.837 14.8643 18.8535 14.9393 18.8534H18.2854L18.2642 21.6157C17.638 21.5646 17.0167 21.7614 16.5341 22.1637C16.0515 22.566 15.7461 23.1417 15.6836 23.7669C15.6487 24.1034 15.6843 24.4435 15.7882 24.7656C15.8921 25.0876 16.0619 25.3844 16.2869 25.6371C16.5094 25.8855 16.7813 26.0849 17.0851 26.2224C17.3889 26.36 17.7181 26.4326 18.0516 26.4359C18.1099 26.4362 18.1686 26.4346 18.2272 26.4307L18.2058 29.1941ZM29.2076 28.1566C29.2073 28.3046 29.1775 28.4511 29.1201 28.5875C29.0627 28.7239 28.9787 28.8475 28.8731 28.9512C28.6669 29.156 28.3879 29.2708 28.0973 29.2703H28.0885L18.9375 29.1991L18.9606 26.1873C18.9611 26.1119 18.945 26.0374 18.9135 25.969C18.8819 25.9005 18.8357 25.8399 18.7781 25.7914C18.7204 25.7429 18.6528 25.7076 18.58 25.6882C18.5072 25.6688 18.431 25.6657 18.3569 25.679C18.2579 25.6967 18.1576 25.7051 18.0571 25.7041C17.8234 25.7025 17.5926 25.6523 17.3794 25.5566C17.1662 25.461 16.9752 25.3219 16.8188 25.1483C16.6623 24.9748 16.5437 24.7705 16.4705 24.5486C16.3974 24.3266 16.3712 24.0919 16.3938 23.8593C16.4164 23.6267 16.4872 23.4013 16.6017 23.1976C16.7163 22.9939 16.872 22.8163 17.0589 22.6761C17.2459 22.5359 17.46 22.4362 17.6876 22.3833C17.9153 22.3305 18.1514 22.3256 18.381 22.3691C18.4551 22.3835 18.5315 22.3815 18.6048 22.3631C18.678 22.3446 18.7463 22.3103 18.8048 22.2625C18.8633 22.2147 18.9105 22.1547 18.9431 22.0865C18.9757 22.0184 18.9929 21.944 18.9935 21.8685L19.0167 18.8565L22.1136 18.8814C22.0986 19.0808 22.1082 19.2813 22.1419 19.4783C22.23 19.9972 22.486 20.4729 22.8707 20.8321C23.2554 21.1913 23.7474 21.4143 24.2711 21.4666C24.3512 21.4743 24.4309 21.4781 24.5101 21.4781C25.104 21.4795 25.6767 21.2575 26.1144 20.8562C26.3638 20.629 26.5631 20.3523 26.6994 20.0437C26.8358 19.7351 26.9063 19.4015 26.9064 19.0641C26.9064 19.0045 26.9042 18.9447 26.8997 18.885H29.2669L29.2076 28.1566ZM29.2695 18.153H26.6502C26.5756 18.1529 26.5018 18.1693 26.4342 18.2009C26.3665 18.2325 26.3067 18.2786 26.2589 18.336C26.2103 18.3942 26.1751 18.4625 26.1558 18.5358C26.1366 18.6092 26.1337 18.6859 26.1474 18.7606C26.1988 19.0428 26.1776 19.3334 26.0858 19.6052C25.994 19.877 25.8346 20.1209 25.6226 20.3141C25.451 20.4712 25.2482 20.5901 25.0274 20.6631C24.8066 20.7362 24.5728 20.7617 24.3415 20.7379C23.9777 20.7012 23.636 20.5461 23.369 20.2963C23.1019 20.0465 22.9243 19.7159 22.8635 19.3553C22.8295 19.1585 22.8304 18.9572 22.866 18.7607C22.8797 18.6863 22.8769 18.6098 22.8578 18.5365C22.8387 18.4633 22.8038 18.3952 22.7556 18.3369C22.708 18.2794 22.6484 18.233 22.581 18.201C22.5136 18.169 22.4399 18.1521 22.3653 18.1516L19.0219 18.1248L19.0487 14.1941C19.0487 14.1876 19.0482 14.1812 19.0479 14.1746C19.0479 14.1692 19.0479 14.1638 19.0471 14.1584C19.0465 14.1517 19.0454 14.1452 19.0444 14.1386C19.0437 14.133 19.0431 14.1274 19.042 14.122C19.0408 14.1155 19.039 14.1093 19.0374 14.103C19.0359 14.0968 19.0349 14.0921 19.0334 14.0869C19.0315 14.0808 19.0292 14.0747 19.0273 14.0686C19.0254 14.0625 19.0238 14.0581 19.0217 14.053C19.0196 14.0479 19.0165 14.0417 19.0139 14.0361C19.0113 14.0305 19.0093 14.0258 19.0067 14.0208C19.004 14.0158 19.0006 14.0104 18.9974 14.0051C18.9943 13.9999 18.9918 13.9952 18.9887 13.9904C18.9855 13.9857 18.9818 13.9808 18.9782 13.9761C18.9747 13.9713 18.9715 13.9665 18.9679 13.9619C18.9643 13.9574 18.9604 13.9534 18.9566 13.9491C18.9528 13.9449 18.9487 13.94 18.9444 13.9357C18.9401 13.9315 18.9363 13.9282 18.9322 13.9244C18.9281 13.9206 18.9233 13.9158 18.9185 13.9118C18.9138 13.9077 18.9101 13.9052 18.9059 13.902C18.9016 13.8988 18.8959 13.8941 18.8906 13.8904C18.8854 13.8868 18.8816 13.8847 18.8771 13.8819C18.8716 13.8785 18.8663 13.8749 18.8607 13.8718C18.8551 13.8686 18.8509 13.8669 18.846 13.8645C18.8412 13.8621 18.8348 13.8584 18.8288 13.856C18.8229 13.8536 18.8185 13.8521 18.8133 13.8499C18.8081 13.8478 18.8015 13.8452 18.7954 13.8433C18.7893 13.8413 18.7844 13.8402 18.7789 13.8388C18.7734 13.8373 18.7667 13.8352 18.7606 13.8339C18.7545 13.8325 18.7491 13.8319 18.7433 13.831C18.7375 13.83 18.7311 13.8286 18.7244 13.8279C18.7177 13.8272 18.7122 13.8271 18.7061 13.8268C18.7 13.8264 18.6944 13.8257 18.6884 13.8256L18.2848 13.8195C17.8411 13.8152 17.417 13.6358 17.105 13.3204C16.7929 13.0049 16.6181 12.579 16.6186 12.1352C16.6191 11.6915 16.7949 11.2659 17.1077 10.9512C17.4206 10.6365 17.845 10.4581 18.2888 10.4549L18.716 10.4504C18.7212 10.4504 18.7261 10.4497 18.7312 10.4495C18.738 10.4491 18.7448 10.4489 18.7515 10.4482C18.7572 10.4476 18.7627 10.4465 18.7684 10.4456C18.774 10.4448 18.7813 10.4438 18.7876 10.4425C18.7938 10.4412 18.7991 10.4396 18.8049 10.438C18.8107 10.4365 18.8166 10.4352 18.8224 10.4334C18.8281 10.4315 18.834 10.4291 18.8399 10.4273C18.8457 10.4254 18.8505 10.4235 18.8557 10.4212C18.8609 10.4188 18.8673 10.4157 18.8731 10.4129C18.8779 10.4105 18.8828 10.4083 18.8875 10.4057C18.8932 10.4026 18.8987 10.3991 18.9042 10.3957C18.9086 10.3929 18.9132 10.3904 18.9174 10.3874C18.9229 10.3837 18.928 10.3797 18.9332 10.3757C18.9373 10.3726 18.9415 10.3696 18.9454 10.3663C18.9503 10.3623 18.9549 10.3578 18.9597 10.3534C18.9635 10.3499 18.9676 10.3464 18.9713 10.3427C18.975 10.339 18.9798 10.3335 18.984 10.3288C18.9881 10.3242 18.9913 10.3209 18.9948 10.3166C18.9983 10.3124 19.0022 10.3069 19.0059 10.3019C19.0095 10.297 19.0126 10.2931 19.0158 10.2884C19.019 10.2837 19.0219 10.2782 19.0253 10.273C19.0286 10.2678 19.0313 10.2633 19.034 10.2583C19.0366 10.2533 19.0393 10.2475 19.0419 10.2421C19.0445 10.2366 19.047 10.2317 19.0493 10.2263C19.0515 10.221 19.0536 10.215 19.0554 10.2093C19.0571 10.2035 19.0595 10.1984 19.0615 10.1929C19.0635 10.1873 19.0647 10.1807 19.0663 10.1746C19.0679 10.1685 19.0693 10.1634 19.0704 10.1577C19.0715 10.1519 19.0724 10.1452 19.0734 10.139C19.0744 10.1327 19.0753 10.1274 19.0759 10.1215C19.0765 10.1155 19.0767 10.1086 19.077 10.1022C19.077 10.0973 19.0778 10.0924 19.0779 10.0874L19.0864 8.92501C19.0879 8.63073 19.2053 8.34889 19.4132 8.14059C19.6211 7.93228 19.9027 7.81429 20.1969 7.81218H28.1588C28.4547 7.81389 28.7378 7.9329 28.946 8.14311C29.1543 8.35332 29.2706 8.63755 29.2695 8.93343V18.153Z" fill="#AF0289"/>
<path d="M27.4323 15.0786C27.3352 15.0786 27.2422 15.1172 27.1736 15.1858C27.105 15.2544 27.0664 15.3474 27.0664 15.4445V16.2041C27.0664 16.3012 27.105 16.3942 27.1736 16.4628C27.2422 16.5315 27.3352 16.57 27.4323 16.57C27.5293 16.57 27.6224 16.5315 27.691 16.4628C27.7596 16.3942 27.7981 16.3012 27.7981 16.2041V15.4445C27.7981 15.3474 27.7596 15.2544 27.691 15.1858C27.6224 15.1172 27.5293 15.0786 27.4323 15.0786Z" fill="#AF0289"/>
<path d="M27.4323 9.26758C27.3352 9.26758 27.2422 9.30613 27.1736 9.37474C27.105 9.44335 27.0664 9.53641 27.0664 9.63344V13.6112C27.0664 13.7082 27.105 13.8013 27.1736 13.8699C27.2422 13.9385 27.3352 13.9771 27.4323 13.9771C27.5293 13.9771 27.6224 13.9385 27.691 13.8699C27.7596 13.8013 27.7981 13.7082 27.7981 13.6112V9.63344C27.7981 9.53641 27.7596 9.44335 27.691 9.37474C27.6224 9.30613 27.5293 9.26758 27.4323 9.26758Z" fill="#AF0289"/>
<path d="M27.5729 28.111C27.6699 28.111 27.763 28.0725 27.8316 28.0039C27.9002 27.9352 27.9388 27.8422 27.9388 27.7452V26.9855C27.9388 26.8885 27.9002 26.7954 27.8316 26.7268C27.763 26.6582 27.6699 26.6196 27.5729 26.6196C27.4759 26.6196 27.3828 26.6582 27.3142 26.7268C27.2456 26.7954 27.207 26.8885 27.207 26.9855V27.7452C27.207 27.8422 27.2456 27.9352 27.3142 28.0039C27.3828 28.0725 27.4759 28.111 27.5729 28.111Z" fill="#AF0289"/>
<path d="M27.5729 25.5178C27.6699 25.5178 27.763 25.4793 27.8316 25.4107C27.9002 25.3421 27.9388 25.249 27.9388 25.152V21.1745C27.9388 21.0774 27.9002 20.9844 27.8316 20.9158C27.763 20.8471 27.6699 20.8086 27.5729 20.8086C27.4759 20.8086 27.3828 20.8471 27.3142 20.9158C27.2456 20.9844 27.207 21.0774 27.207 21.1745V25.152C27.207 25.249 27.2456 25.3421 27.3142 25.4107C27.3828 25.4793 27.4759 25.5178 27.5729 25.5178Z" fill="#AF0289"/>
<path d="M8.95147 15.1761C9.26632 15.1764 9.57602 15.0961 9.85102 14.9428C10.126 14.7895 10.3572 14.5683 10.5224 14.3003L11.4001 12.875C11.4381 12.8134 11.4627 12.7446 11.4723 12.6729C11.4819 12.6013 11.4762 12.5284 11.4557 12.4591C11.4352 12.3897 11.4003 12.3255 11.3533 12.2706C11.3063 12.2156 11.2483 12.1712 11.1829 12.1402C10.779 11.9505 10.4666 11.6085 10.314 11.189C10.1614 10.7696 10.1811 10.3068 10.3687 9.90184C10.5563 9.49686 10.8966 9.18262 11.3152 9.0278C11.7338 8.87298 12.1967 8.89018 12.6027 9.07563C12.7208 9.13159 12.8322 9.2009 12.9345 9.28222C12.9913 9.32772 13.0571 9.36064 13.1275 9.37881C13.198 9.39698 13.2715 9.39999 13.3432 9.38762C13.4149 9.37526 13.4832 9.34781 13.5434 9.30709C13.6037 9.26637 13.6547 9.21331 13.693 9.15142L14.7609 7.41722C15.0193 6.99768 15.1006 6.49269 14.9868 6.01325C14.873 5.53381 14.5736 5.11916 14.1542 4.86044L12.4616 3.82144C12.8268 3.30913 12.9784 2.6748 12.8841 2.05272C12.7899 1.43064 12.4573 0.869638 11.9568 0.488471C11.6903 0.284273 11.3834 0.139063 11.0565 0.062467C10.7296 -0.0141286 10.3902 -0.0203592 10.0607 0.0441884C9.7309 0.108125 9.41814 0.240456 9.1426 0.432653C8.86705 0.62485 8.63483 0.872648 8.46091 1.16008C8.43054 1.2102 8.40209 1.26148 8.37554 1.31392L6.98708 0.461701C6.78041 0.334925 6.55068 0.250329 6.31115 0.212792C6.07162 0.175255 5.82702 0.185522 5.59148 0.243C5.35593 0.300477 5.1341 0.404028 4.93878 0.547677C4.74346 0.691326 4.57852 0.872231 4.45347 1.07995L0.26785 7.99523C0.014559 8.41479 -0.0630258 8.91733 0.0519371 9.39374C0.1669 9.87016 0.465132 10.282 0.881893 10.5399L2.08181 11.2763C2.13993 11.3119 2.20487 11.3349 2.27244 11.3439C2.34001 11.3529 2.40871 11.3476 2.47411 11.3284C2.5395 11.3091 2.60015 11.2764 2.65213 11.2324C2.70412 11.1883 2.74628 11.1338 2.77592 11.0724C2.8661 10.8855 2.99446 10.7195 3.15273 10.5853C3.311 10.4511 3.49565 10.3515 3.69478 10.293C3.8939 10.2345 4.10307 10.2184 4.30879 10.2458C4.51452 10.2731 4.71223 10.3433 4.88916 10.4518C5.06609 10.5602 5.21832 10.7046 5.33602 10.8755C5.45372 11.0465 5.53428 11.2402 5.57249 11.4441C5.61072 11.6481 5.60575 11.8579 5.55791 12.0598C5.51008 12.2618 5.42044 12.4514 5.29477 12.6166C5.25325 12.6708 5.22356 12.7331 5.20764 12.7995C5.19171 12.8659 5.1899 12.9349 5.20232 13.002C5.21474 13.0692 5.24112 13.1329 5.27974 13.1892C5.31837 13.2456 5.36838 13.2931 5.42655 13.3289L7.9962 14.9059C8.28344 15.0827 8.61417 15.1762 8.95147 15.1761ZM6.32499 11.5739C6.29458 11.1083 6.11801 10.6641 5.82044 10.3047C5.52287 9.94526 5.11948 9.6889 4.66771 9.57212C4.21594 9.45534 3.73884 9.4841 3.30437 9.65429C2.8699 9.82449 2.50022 10.1274 2.24797 10.52L1.26465 9.91633C1.01224 9.75988 0.831734 9.5102 0.76231 9.22147C0.692886 8.93275 0.740151 8.62829 0.893845 8.3742L5.07916 1.45881C5.15426 1.33363 5.25342 1.22458 5.37091 1.13796C5.48841 1.05133 5.6219 0.988851 5.76368 0.954123C5.90547 0.919394 6.05273 0.913108 6.19695 0.935626C6.34118 0.958145 6.47951 1.00902 6.60396 1.08532L8.20767 2.06925C8.27149 2.10861 8.34324 2.13335 8.41776 2.14169C8.49228 2.15003 8.56771 2.14176 8.63866 2.11748C8.71045 2.09305 8.77595 2.05305 8.83047 2.00034C8.88499 1.94763 8.92719 1.88352 8.95403 1.8126C9.05514 1.54615 9.22256 1.30991 9.44047 1.12624C9.65837 0.942564 9.91954 0.817538 10.1993 0.762991C10.4282 0.718289 10.664 0.722784 10.8911 0.776179C11.1182 0.829575 11.3313 0.930649 11.5164 1.0727C11.7011 1.21391 11.8547 1.39172 11.9676 1.595C12.0805 1.79829 12.1502 2.02268 12.1725 2.25414C12.1947 2.4856 12.1689 2.71916 12.0967 2.94021C12.0246 3.16125 11.9076 3.36504 11.7531 3.53881C11.7034 3.59456 11.6667 3.66054 11.6454 3.73207C11.6241 3.80361 11.6187 3.87896 11.6298 3.95279C11.6407 4.02743 11.668 4.09876 11.7095 4.16172C11.7511 4.22468 11.806 4.27773 11.8703 4.31713L13.7718 5.48411C14.0257 5.64118 14.2068 5.89255 14.2755 6.18305C14.3442 6.47355 14.2948 6.77943 14.1382 7.03355L13.193 8.56817C13.1043 8.5111 13.012 8.45979 12.9167 8.41457C12.4208 8.182 11.8604 8.12565 11.3282 8.25485C10.796 8.38404 10.3238 8.69105 9.98974 9.12508C9.78223 9.39485 9.63365 9.70517 9.55363 10.036C9.4736 10.3668 9.4639 10.7107 9.52516 11.0455C9.58641 11.3803 9.71726 11.6985 9.90924 11.9795C10.1012 12.2605 10.35 12.4981 10.6396 12.677C10.6451 12.6804 10.6506 12.6837 10.6561 12.687L9.89925 13.9161C9.74571 14.1657 9.49957 14.3444 9.21467 14.4129C8.92976 14.4815 8.6293 14.4344 8.37902 14.282L6.02565 12.8378C6.2491 12.4557 6.35333 12.0156 6.32499 11.5739Z" fill="#AF0289"/>
</svg>
