<svg width="30" height="25" viewBox="0 0 30 25" fill="none" xmlns="http://www.w3.org/2000/svg">
<path d="M28.4983 11.2009C27.9723 10.6682 27.3519 10.2667 26.676 10.0098C27.532 9.42209 28.0956 8.42856 28.0956 7.30404C28.0956 5.50315 26.65 4.038 24.873 4.038C23.096 4.038 21.6503 5.50315 21.6503 7.30404C21.6503 8.42749 22.213 9.42019 23.0677 10.0081C22.0925 10.3771 21.2466 11.0422 20.6466 11.9314C19.7943 10.7552 18.5936 9.85392 17.1998 9.38527C18.7954 8.56752 19.8926 6.89091 19.8926 4.95843C19.8926 2.22435 17.6978 0 15 0C12.3022 0 10.1074 2.22435 10.1074 4.95843C10.1074 6.89091 11.2046 8.56752 12.8002 9.38527C11.4056 9.85416 10.2045 10.7561 9.35215 11.9331C9.17502 11.6721 8.9751 11.4268 8.75226 11.201C8.22627 10.6683 7.60582 10.2667 6.92994 10.0098C7.78594 9.42209 8.34967 8.42856 8.34967 7.30404C8.34967 5.50315 6.90398 4.038 5.12701 4.038C3.35004 4.038 1.90436 5.50315 1.90436 7.30404C1.90436 8.42904 2.4685 9.42292 3.32514 10.0106C3.04459 10.1172 2.77289 10.2483 2.51379 10.4042C2.30508 10.5298 2.23635 10.803 2.36016 11.0145C2.48408 11.2261 2.75367 11.2957 2.96238 11.1701C3.61494 10.7776 4.36348 10.5701 5.12695 10.5701C6.26121 10.5701 7.32803 11.0179 8.13082 11.8309C8.40674 12.1105 8.64123 12.4252 8.83119 12.7679C8.29992 13.7674 7.99805 14.9097 7.99805 16.1223V16.8052C7.99805 17.0512 8.19481 17.2506 8.4375 17.2506C8.68019 17.2506 8.87695 17.0512 8.87695 16.8052V16.1223C8.87695 12.7007 11.6237 9.91686 15 9.91686C18.3763 9.91686 21.123 12.7007 21.123 16.1223V22.3278H8.87695V18.7154C8.87695 18.4694 8.68019 18.27 8.4375 18.27C8.19481 18.27 7.99805 18.4694 7.99805 18.7154V19.1805H0.878906V14.8753C0.878906 13.9669 1.15465 13.0985 1.67631 12.3638C1.81805 12.1641 1.77328 11.8858 1.57629 11.7421C1.3793 11.5984 1.10467 11.6439 0.962871 11.8435C0.332988 12.7307 0 13.779 0 14.8753V21.4074C0 21.6534 0.196758 21.8527 0.439453 21.8527H7.99805V24.5546C7.99805 24.8007 8.19481 25 8.4375 25H21.5625C21.8052 25 22.002 24.8007 22.002 24.5546V22.7732V21.8527H26.2109C26.4536 21.8527 26.6504 21.6534 26.6504 21.4074C26.6504 21.1613 26.4536 20.962 26.2109 20.962H22.002V20.0713H29.1211V20.962H28.125C27.8823 20.962 27.6855 21.1613 27.6855 21.4074C27.6855 21.6534 27.8823 21.8527 28.125 21.8527H29.5605C29.8032 21.8527 30 21.6534 30 21.4074V14.8753C30 13.488 29.4667 12.1831 28.4983 11.2009ZM5.12695 9.67933C3.83461 9.67933 2.7832 8.61378 2.7832 7.30404C2.7832 5.9943 3.83461 4.92874 5.12695 4.92874C6.4193 4.92874 7.4707 5.9943 7.4707 7.30404C7.4707 8.61378 6.4193 9.67933 5.12695 9.67933ZM10.9863 4.95843C10.9863 2.7155 12.7869 0.890736 15 0.890736C17.2131 0.890736 19.0137 2.7155 19.0137 4.95843C19.0137 7.20137 17.2131 9.02613 15 9.02613C12.7869 9.02613 10.9863 7.20137 10.9863 4.95843ZM7.99805 20.962H0.878906V20.0713H7.99805V20.962ZM21.123 24.1093H8.87695V23.2185H21.123V24.1093ZM22.5293 7.30404C22.5293 5.9943 23.5807 4.92874 24.873 4.92874C26.1654 4.92874 27.2168 5.9943 27.2168 7.30404C27.2168 8.61378 26.1654 9.67933 24.873 9.67933C23.5807 9.67933 22.5293 8.61378 22.5293 7.30404ZM29.1211 19.1805H22.002V16.1223C22.002 14.9097 21.7 13.7672 21.1687 12.7678C21.9212 11.4067 23.3204 10.5701 24.873 10.5701C26.0073 10.5701 27.0741 11.0179 27.8769 11.8308C28.6792 12.6446 29.1211 13.7258 29.1211 14.8753V19.1805Z" fill="#0082AB"/>
<path d="M18.3906 13.2958C17.9308 12.8636 17.4125 12.6686 16.8502 12.7142C16.0567 12.7794 15.3867 13.3199 14.9939 13.7187C14.6006 13.3199 13.9292 12.7785 13.1364 12.714C12.5749 12.6682 12.0571 12.864 11.5977 13.2958C11.0848 13.7778 10.8384 14.3722 10.8653 15.0623C10.9496 17.228 13.8016 19.6754 14.6736 20.3738C14.7679 20.4494 14.881 20.4873 14.9941 20.4873C15.1071 20.4873 15.2201 20.4495 15.3143 20.3741L15.3144 20.374C15.6438 20.1103 16.4983 19.3984 17.3182 18.4865C18.4775 17.1971 19.0848 16.045 19.1231 15.0624C19.15 14.3722 18.9036 13.7779 18.3906 13.2958ZM18.2448 15.0272C18.2153 15.7836 17.6703 16.7724 16.6686 17.8866C16.0378 18.588 15.3845 19.1653 14.9941 19.4912C14.6037 19.1652 13.9502 18.5877 13.3197 17.8864C12.318 16.7722 11.7729 15.7835 11.7435 15.0271C11.727 14.6029 11.8748 14.2502 12.1954 13.9488C12.4457 13.7136 12.7038 13.5984 12.982 13.5984C13.0098 13.5984 13.0379 13.5996 13.066 13.6019C13.8742 13.6677 14.6155 14.6188 14.6481 14.6612C14.7314 14.769 14.8594 14.8316 14.9945 14.8316C14.9947 14.8316 14.9949 14.8316 14.9952 14.8316C15.1305 14.8313 15.2586 14.7675 15.3418 14.6592C15.3728 14.6188 16.1108 13.6686 16.9213 13.602C17.2318 13.5758 17.5173 13.6898 17.793 13.9489C18.1136 14.2502 18.2614 14.603 18.2448 15.0272Z" fill="#0082AB"/>
</svg>
