<svg width="30" height="30" viewBox="0 0 30 30" fill="none" xmlns="http://www.w3.org/2000/svg">
<path d="M24.3673 26.1292L23.2446 22.7682C22.8522 21.5948 21.8512 20.7287 20.631 20.5071L17.3898 19.9187V19.6681C17.9538 19.3414 18.4446 18.9045 18.8355 18.3873H19.8147C20.6169 18.3873 21.2697 17.736 21.2697 16.9356V11.1292C21.2697 7.6608 18.4412 4.83887 14.9648 4.83887C11.4884 4.83887 8.65997 7.6608 8.65997 11.1292V14.5163C8.65997 15.4492 9.32489 16.2297 10.2066 16.4116C10.4787 17.8023 11.3497 18.979 12.5399 19.6681V19.9187L9.29822 20.5071C8.07847 20.7287 7.07697 21.5948 6.6851 22.7682L6.4911 23.3494L4.83923 21.7013C4.65008 21.5126 4.65008 21.2053 4.83923 21.0166L6.75493 19.1058L3.15922 15.5184L0.994229 17.6784C0.353072 18.3181 0 19.1687 0 20.0735C0 20.9784 0.353072 21.8285 0.994229 22.4682L7.54886 29.0077C8.19002 29.6474 9.04263 30.0002 9.94956 30.0002C10.8565 30.0002 11.7086 29.6474 12.3347 29.0223L14.6971 26.8627L13.9604 26.1292H24.3673ZM20.2997 16.9356C20.2997 17.2027 20.082 17.4195 19.8147 17.4195H19.4069C19.5475 17.0997 19.6542 16.7624 19.7231 16.4116C19.9306 16.3685 20.1217 16.2863 20.2997 16.1827V16.9356ZM19.8147 15.3495V13.6831C20.1033 13.851 20.2997 14.1597 20.2997 14.5163C20.2997 14.8729 20.1033 15.1816 19.8147 15.3495ZM10.1149 15.3495C9.82637 15.1816 9.62995 14.8729 9.62995 14.5163C9.62995 14.1597 9.82637 13.851 10.1149 13.6831V15.3495ZM10.1149 12.0969V12.6495C9.94229 12.6945 9.7803 12.7623 9.62995 12.8498V11.1292C9.62995 8.19451 12.0234 5.80661 14.9648 5.80661C17.9063 5.80661 20.2997 8.19451 20.2997 11.1292V12.8498C20.1494 12.7623 19.9874 12.694 19.8147 12.6495V12.0969H19.3297C17.8956 12.0969 16.5474 11.5395 15.5328 10.5277L14.9648 9.96113L14.3969 10.5277C13.3823 11.5395 12.034 12.0969 10.5999 12.0969H10.1149ZM11.0849 15.484V13.0463C12.5413 12.9369 13.8993 12.3374 14.9648 11.3266C16.0304 12.3374 17.3883 12.9374 18.8448 13.0463V15.484C18.8448 16.1895 18.6517 16.8495 18.32 17.4195H14.9648V18.3873H17.5227C16.8388 18.9877 15.945 19.355 14.9648 19.355C12.8255 19.355 11.0849 17.6184 11.0849 15.484ZM16.4198 20.0997V20.1224L14.9648 21.574L13.5099 20.1224V20.0997C13.9696 20.2439 14.458 20.3227 14.9648 20.3227C15.4717 20.3227 15.96 20.2439 16.4198 20.0997ZM7.60464 23.074C7.88447 22.236 8.59983 21.6171 9.47136 21.4584L12.8614 20.8439L14.9648 22.9424L17.0678 20.8444L20.4573 21.4589C21.3289 21.6176 22.0442 22.236 22.3241 23.0745L23.022 25.1614H12.9904L11.1014 23.2768L9.00238 25.1711C8.81954 25.3545 8.49993 25.3545 8.3166 25.1711L7.25738 24.1143L7.60464 23.074ZM3.15874 16.8868L5.3829 19.1058L4.8562 19.6313L2.63204 17.4123L3.15874 16.8868ZM11.663 28.3245C11.2052 28.7803 10.5961 29.0324 9.94859 29.0324C9.30113 29.0324 8.69198 28.7803 8.23367 28.3235L1.67903 21.7845C1.2212 21.3277 0.969009 20.72 0.969009 20.074C0.969009 19.4276 1.2212 18.8198 1.67903 18.3631L1.94578 18.0969L4.16994 20.316L4.15248 20.3334C3.58553 20.8995 3.58553 21.8203 4.15248 22.3864L7.63034 25.8563C7.90533 26.1302 8.27053 26.2816 8.65949 26.2816C9.04845 26.2816 9.41365 26.1306 9.67069 25.8732L9.70707 25.8408L11.9414 28.07L11.663 28.3245ZM12.6573 27.4148L10.4278 25.1905L11.0684 24.6127L13.294 26.8332L12.6573 27.4148Z" fill="#00A7AC"/>
<path d="M28.5446 0H21.7548C20.9526 0 20.2998 0.65129 20.2998 1.45161V5.32258C20.2998 6.1229 20.9526 6.77419 21.7548 6.77419H23.0502L22.5487 9.69242L27.2289 6.77419H28.5446C29.3468 6.77419 29.9996 6.1229 29.9996 5.32258V1.45161C29.9996 0.65129 29.3468 0 28.5446 0ZM29.0296 5.32258C29.0296 5.58919 28.8119 5.80645 28.5446 5.80645H26.9505L23.8703 7.72694L24.2006 5.80645H21.7548C21.4875 5.80645 21.2698 5.58919 21.2698 5.32258V1.45161C21.2698 1.185 21.4875 0.967742 21.7548 0.967742H28.5446C28.8119 0.967742 29.0296 1.185 29.0296 1.45161V5.32258Z" fill="#00A7AC"/>
<path d="M28.0601 1.93506H22.2402V2.9028H28.0601V1.93506Z" fill="#00A7AC"/>
<path d="M26.1202 3.87012H22.2402V4.83786H26.1202V3.87012Z" fill="#00A7AC"/>
<path d="M28.0598 3.87012H27.0898V4.83786H28.0598V3.87012Z" fill="#00A7AC"/>
<path d="M14.9653 1.45166C8.62845 1.45166 3.16989 5.82489 1.75081 11.925L0.831757 10.3965L0 10.8944L1.70474 13.7284L4.54532 12.0276L4.04627 11.1978L2.73195 11.9846C4.10641 6.40408 9.13623 2.4194 14.9653 2.4194C16.2394 2.4194 17.4965 2.60811 18.7017 2.98069L18.9888 2.0565C17.6905 1.65489 16.3369 1.45166 14.9653 1.45166Z" fill="#00A7AC"/>
<path d="M29.7634 10.714L26.9228 9.01318L25.2186 11.8477L26.0503 12.3456L26.8991 10.9342C27.3457 12.2382 27.5742 13.6022 27.5742 15.0001C27.5742 17.8777 26.5751 20.6909 24.7617 22.9211L25.5149 23.5308C27.4684 21.1288 28.5442 18.0988 28.5442 15.0001C28.5442 13.52 28.3051 12.0746 27.839 10.6908L29.2644 11.5438L29.7634 10.714Z" fill="#00A7AC"/>
</svg>
