<svg width="12" height="12" viewBox="0 0 12 12" fill="none" xmlns="http://www.w3.org/2000/svg">
<mask id="mask0_1234_924" style="mask-type:alpha" maskUnits="userSpaceOnUse" x="0" y="0" width="12" height="12">
<rect width="12" height="12" fill="#D9D9D9"/>
</mask>
<g mask="url(#mask0_1234_924)">
<path fill-rule="evenodd" clip-rule="evenodd" d="M6 0.749958C5.15131 0.749958 4.33737 1.06603 3.73726 1.62864C3.13714 2.19125 2.8 2.95432 2.8 3.74997C2.8 4.54562 3.13714 5.30869 3.73726 5.8713C4.33737 6.43391 5.15131 6.74998 6 6.74998C6.84869 6.74998 7.66263 6.43391 8.26274 5.8713C8.86286 5.30869 9.2 4.54562 9.2 3.74997C9.2 2.95432 8.86286 2.19125 8.26274 1.62864C7.66263 1.06603 6.84869 0.749958 6 0.749958V0.749958ZM2 3.74997C2.00001 3.02428 2.22462 2.31418 2.64658 1.70579C3.06855 1.0974 3.66974 0.616865 4.37725 0.32246C5.08476 0.0280551 5.86818 -0.0675698 6.63251 0.0471826C7.39684 0.161935 8.10924 0.482134 8.6833 0.968947C9.25736 1.45576 9.66843 2.08827 9.86664 2.78977C10.0649 3.49127 10.0417 4.23161 9.79998 4.92102C9.55826 5.61042 9.10838 6.21926 8.50487 6.6737C7.90137 7.12815 7.17019 7.40866 6.4 7.48123V8.99999H8C8.10609 8.99999 8.20783 9.0395 8.28284 9.10982C8.35786 9.18015 8.4 9.27553 8.4 9.37499C8.4 9.47445 8.35786 9.56983 8.28284 9.64016C8.20783 9.71048 8.10609 9.74999 8 9.74999H6.4V11.625C6.4 11.7245 6.35786 11.8198 6.28284 11.8902C6.20783 11.9605 6.10609 12 6 12C5.89391 12 5.79217 11.9605 5.71716 11.8902C5.64214 11.8198 5.6 11.7245 5.6 11.625V9.74999H4C3.89391 9.74999 3.79217 9.71048 3.71716 9.64016C3.64214 9.56983 3.6 9.47445 3.6 9.37499C3.6 9.27553 3.64214 9.18015 3.71716 9.10982C3.79217 9.0395 3.89391 8.99999 4 8.99999H5.6V7.48123C4.61335 7.38827 3.6987 6.95504 3.0335 6.26558C2.36831 5.57613 1.99999 4.67962 2 3.74997V3.74997Z" fill="#00A7AC"/>
</g>
</svg>
