<svg width="50" height="50" viewBox="0 0 50 50" fill="none" xmlns="http://www.w3.org/2000/svg">
<path d="M31.9723 25.0122L50 22.1516L31.7887 23.4291L48.6655 16.4914L31.25 21.9254L46.07 11.2836L30.3685 20.5868L42.3359 6.82152L29.2116 19.4866L37.6714 3.33741L27.8281 18.6858L32.3335 1.02078L26.2916 18.2213L26.5977 0L24.6939 18.1235L20.7823 0.323961L23.1207 18.3985L15.1996 1.98044L21.6454 19.0281L10.1494 4.87164L20.3599 19.9817L5.9072 8.85085L19.3315 21.2042L2.69344 13.7042L18.6092 22.6284L0.691724 19.1626L18.2358 24.1809L0 24.9389L18.2297 25.7824L0.661117 30.7152L18.597 27.335L2.63834 36.1797L19.3132 28.7653L5.82762 41.0513L20.3355 29.9939L10.0575 45.0489L21.621 30.9474L15.0894 47.9707L23.0901 31.5831L20.666 49.6516L24.6633 31.8704L26.4753 50L26.261 31.7787L32.2172 49.0037L27.7975 31.3264L37.5673 46.7176L29.1809 30.5257L42.2441 43.2518L30.3501 29.4315L46.0027 38.8081L31.2316 28.099L48.6288 33.6186L31.7826 26.6015L49.9816 27.9645L31.9723 25.0122Z" fill="#878787"/>
</svg>
