<svg width="30" height="28" viewBox="0 0 30 28" fill="none" xmlns="http://www.w3.org/2000/svg">
<path d="M27.4772 27.9996C27.4012 27.9996 27.3251 27.9816 27.2551 27.9476L24.2052 26.4367L21.1563 27.9476C20.9892 28.0276 20.7901 28.0126 20.64 27.9036C20.4899 27.7946 20.4119 27.6106 20.4389 27.4266L20.9692 23.8177C21.0092 23.5447 21.2554 23.3597 21.5366 23.3947C21.8097 23.4357 21.9988 23.6897 21.9588 23.9617L21.5666 26.6267L23.9821 25.4307C24.1232 25.3627 24.2863 25.3627 24.4263 25.4307L26.8428 26.6267L26.4506 23.9617C26.4276 23.8077 26.4786 23.6507 26.5877 23.5397L28.4728 21.6127L25.8142 21.1607C25.6601 21.1347 25.527 21.0377 25.455 20.8997L24.2042 18.5128L22.9544 20.8997C22.8824 21.0387 22.7493 21.1337 22.5962 21.1617L22.2 21.2297C21.9268 21.2747 21.6686 21.0937 21.6216 20.8217C21.5746 20.5497 21.7577 20.2917 22.0299 20.2437L22.182 20.2177L23.7609 17.2048C23.934 16.8748 24.4744 16.8758 24.6475 17.2038L26.2265 20.2177L29.5825 20.7877C29.7656 20.8187 29.9167 20.9497 29.9748 21.1267C30.0328 21.3037 29.9868 21.4977 29.8567 21.6307L27.4772 24.0637L27.9715 27.4276C27.9986 27.6116 27.9215 27.7946 27.7704 27.9046C27.6844 27.9676 27.5803 27.9996 27.4772 27.9996Z" fill="#AF7F04"/>
<path d="M2.52327 27.9997C2.41921 27.9997 2.31615 27.9677 2.22909 27.9037C2.079 27.7947 2.00195 27.6107 2.02797 27.4277L2.52227 24.0637L0.1428 21.6307C0.0127195 21.4977 -0.0333089 21.3037 0.024727 21.1267C0.082763 20.9497 0.232856 20.8187 0.41697 20.7877L3.77305 20.2178L5.35203 17.2038C5.43808 17.0398 5.60918 16.9358 5.7953 16.9358C5.98142 16.9358 6.15152 17.0398 6.23857 17.2048L7.81755 20.2178L7.96965 20.2438C8.24181 20.2917 8.42493 20.5497 8.3779 20.8217C8.33087 21.0937 8.07171 21.2757 7.79954 21.2297L7.4033 21.1617C7.2502 21.1347 7.11712 21.0387 7.04507 20.8997L5.7943 18.5138L4.54353 20.9007C4.47148 21.0387 4.3384 21.1347 4.1843 21.1617L1.52566 21.6137L3.41082 23.5407C3.51989 23.6517 3.57092 23.8087 3.54791 23.9627L3.15567 26.6277L5.57216 25.4317C5.71325 25.3637 5.87635 25.3637 6.01644 25.4317L8.43193 26.6277L8.03969 23.9627C7.99967 23.6907 8.18878 23.4367 8.46195 23.3957C8.74313 23.3617 8.98928 23.5447 9.0293 23.8187L9.55963 27.4277C9.58665 27.6117 9.5096 27.7947 9.35851 27.9047C9.20841 28.0147 9.00829 28.0297 8.84219 27.9487L5.7933 26.4377L2.74341 27.9487C2.67537 27.9817 2.59932 27.9997 2.52327 27.9997Z" fill="#AF7F04"/>
<path d="M20.2267 23.0798C20.1506 23.0798 20.0746 23.0618 20.0046 23.0278L15.0125 20.5558L10.0204 23.0288C9.85327 23.1098 9.65415 23.0938 9.50405 22.9848C9.35396 22.8758 9.27591 22.6918 9.30293 22.5078L10.1124 16.9989L6.21702 13.0179C6.08694 12.8849 6.04091 12.6909 6.09895 12.5139C6.15698 12.3369 6.30707 12.2059 6.49119 12.1749L11.9846 11.2419L12.667 9.93995C12.7951 9.69595 13.0973 9.60195 13.3424 9.72795C13.5876 9.85695 13.6816 10.1589 13.5536 10.4029L12.7571 11.9239C12.685 12.0629 12.5519 12.1589 12.3978 12.1859L7.60188 12.9999L11.002 16.4759C11.111 16.5869 11.1621 16.7439 11.1391 16.8979L10.4316 21.7078L14.7893 19.5498C14.9304 19.4818 15.0935 19.4818 15.2336 19.5498L19.5913 21.7078L18.8839 16.8979C18.8608 16.7439 18.9119 16.5869 19.0209 16.4759L22.4211 12.9999L17.6251 12.1859C17.471 12.1599 17.3379 12.0629 17.2659 11.9239L15.0125 7.61998L14.5342 8.53296C14.4061 8.77796 14.1039 8.87096 13.8588 8.74496C13.6136 8.61696 13.5195 8.31397 13.6476 8.06997L14.5692 6.30999C14.7413 5.98 15.2826 5.981 15.4557 6.30899L18.0403 11.2419L23.5337 12.1749C23.7169 12.2059 23.868 12.3369 23.926 12.5139C23.984 12.6909 23.938 12.8849 23.8079 13.0179L19.9125 16.9989L20.722 22.5078C20.749 22.6918 20.672 22.8748 20.5209 22.9848C20.4338 23.0478 20.3298 23.0798 20.2267 23.0798Z" fill="#AF7F04"/>
<path d="M19.2189 4.83688C19.1549 4.83688 19.0898 4.82488 19.0278 4.79888C18.7726 4.69388 18.6515 4.40088 18.7566 4.14589L19.9043 1.37492C20.0104 1.11992 20.3046 0.997925 20.5577 1.10392C20.8129 1.20892 20.934 1.50192 20.8289 1.75692L19.6812 4.52788C19.6021 4.72088 19.415 4.83688 19.2189 4.83688Z" fill="#AF7F04"/>
<path d="M22.7896 7.22177C22.6615 7.22177 22.5335 7.17278 22.4354 7.07578C22.2403 6.88078 22.2403 6.56378 22.4354 6.36878L24.5577 4.24781C24.7528 4.05281 25.07 4.05281 25.2652 4.24781C25.4603 4.44281 25.4603 4.7598 25.2652 4.9548L23.1428 7.07578C23.0458 7.17278 22.9177 7.22177 22.7896 7.22177Z" fill="#AF7F04"/>
<path d="M25.1759 10.79C24.9798 10.79 24.7937 10.674 24.7136 10.481C24.6086 10.226 24.7296 9.93299 24.9848 9.82799L27.7575 8.681C28.0127 8.574 28.3059 8.697 28.4109 8.952C28.516 9.207 28.3949 9.49999 28.1398 9.60499L25.367 10.752C25.305 10.778 25.24 10.79 25.1759 10.79Z" fill="#AF7F04"/>
<path d="M4.84317 10.79C4.77913 10.79 4.71409 10.778 4.65205 10.752L1.87933 9.60499C1.62418 9.49999 1.5031 9.207 1.60817 8.952C1.71423 8.697 2.00841 8.574 2.26157 8.681L5.03429 9.82799C5.28945 9.93299 5.41052 10.226 5.30546 10.481C5.22541 10.674 5.03929 10.79 4.84317 10.79Z" fill="#AF7F04"/>
<path d="M7.22444 7.2218C7.09636 7.2218 6.96828 7.1728 6.87022 7.0758L4.7479 4.95383C4.55278 4.75883 4.55278 4.44183 4.7479 4.24683C4.94302 4.05184 5.26022 4.05184 5.45534 4.24683L7.57766 6.36781C7.77278 6.56281 7.77278 6.8798 7.57766 7.0748C7.48059 7.1728 7.35252 7.2218 7.22444 7.2218Z" fill="#AF7F04"/>
<path d="M10.8012 4.83705C10.6051 4.83705 10.419 4.72105 10.3389 4.52806L9.1902 1.75709C9.08513 1.50209 9.20621 1.2091 9.46137 1.1041C9.71652 0.9971 10.0097 1.1201 10.1148 1.37509L11.2635 4.14606C11.3685 4.40106 11.2475 4.69405 10.9923 4.79905C10.9293 4.82505 10.8642 4.83705 10.8012 4.83705Z" fill="#AF7F04"/>
<path d="M15.012 3.99995C14.7359 3.99995 14.5117 3.77595 14.5117 3.49996V0.499994C14.5117 0.223997 14.7359 0 15.012 0C15.2882 0 15.5123 0.223997 15.5123 0.499994V3.49996C15.5123 3.77595 15.2882 3.99995 15.012 3.99995Z" fill="#AF7F04"/>
</svg>
