<svg width="45" height="45" viewBox="0 0 45 45" fill="none" xmlns="http://www.w3.org/2000/svg">
<path d="M6.01215 38.3203C5.92105 38.3203 5.73887 38.3203 5.64777 38.2324C0.637652 35.6836 0 32.4316 0 32.2559V32.168V25.8398C0 25.6641 0 25.4883 0.182186 25.4004C0.273279 25.2246 0.455466 25.2246 0.637652 25.2246C4.09919 25.5762 5.55668 24.3457 5.55668 24.3457C5.82996 24.082 6.19433 24.082 6.37652 24.3457C6.46761 24.3457 7.83401 25.5762 11.2955 25.2246C11.4777 25.2246 11.6599 25.2246 11.751 25.4004C11.9332 25.4883 12.0243 25.6641 12.0243 25.8398V32.168V32.2559C11.9332 32.4316 11.2955 35.6836 6.28543 38.2324C6.19433 38.3203 6.10324 38.3203 6.01215 38.3203ZM1.2753 32.0801C1.3664 32.4316 2.09514 34.8926 6.01215 37.002C9.92915 34.8926 10.6579 32.4316 10.749 32.0801V26.4551C8.19838 26.6309 6.6498 25.9277 6.01215 25.5762C5.2834 25.9277 3.82591 26.6309 1.2753 26.4551V32.0801Z" fill="black"/>
<path d="M4.73803 33.75C4.55585 33.75 4.37366 33.6621 4.28257 33.5742L2.82508 32.168C2.5518 31.9043 2.5518 31.5527 2.82508 31.2891C3.00726 31.0254 3.46273 31.0254 3.73601 31.2891L4.73803 32.2559L8.19957 28.916C8.47285 28.6523 8.83722 28.6523 9.1105 28.916C9.29269 29.1797 9.29269 29.5312 9.1105 29.7949L5.1935 33.5742C5.01131 33.6621 4.82913 33.75 4.73803 33.75Z" fill="black"/>
<path d="M44.3623 45H0.637652C0.273279 45 0 44.7363 0 44.3848V41.1328C0 40.7812 0.273279 40.5176 0.637652 40.5176H44.3623C44.7267 40.5176 45 40.7812 45 41.1328V44.3848C45 44.7363 44.7267 45 44.3623 45ZM1.2753 43.7695H43.7247V41.748H1.2753V43.7695Z" fill="black"/>
<path d="M42.175 41.748C41.8106 41.748 41.5374 41.4844 41.5374 41.1328V1.23047H17.9442V41.1328C17.9442 41.4844 17.671 41.748 17.3066 41.748C16.9422 41.748 16.6689 41.4844 16.6689 41.1328V0.615234C16.6689 0.263672 16.9422 0 17.3066 0H42.175C42.5394 0 42.8127 0.263672 42.8127 0.615234V41.1328C42.8127 41.4844 42.5394 41.748 42.175 41.748Z" fill="black"/>
<path d="M36.3463 41.748H22.7734C22.409 41.748 22.1357 41.4844 22.1357 41.1328V27.5098C22.1357 26.6309 22.8645 25.9277 23.7754 25.9277H35.3442C36.2552 25.9277 36.9839 26.6309 36.9839 27.5098V41.1328C36.9839 41.4844 36.6195 41.748 36.3463 41.748ZM23.411 40.5176H35.7086V27.5098C35.7086 27.334 35.5264 27.1582 35.3442 27.1582H23.7754C23.5021 27.1582 23.411 27.334 23.411 27.5098V40.5176Z" fill="black"/>
<path d="M29.5146 41.748C29.1502 41.748 28.877 41.4844 28.877 41.1328V26.543C28.877 26.1914 29.1502 25.9277 29.5146 25.9277C29.879 25.9277 30.1523 26.1914 30.1523 26.543V41.1328C30.1523 41.4844 29.7879 41.748 29.5146 41.748Z" fill="black"/>
<path d="M24.5033 7.4707H20.7685C20.4041 7.4707 20.1309 7.20703 20.1309 6.85547V3.95508C20.1309 3.60352 20.4041 3.33984 20.7685 3.33984H24.5033C24.8677 3.33984 25.141 3.60352 25.141 3.95508V6.85547C25.141 7.20703 24.8677 7.4707 24.5033 7.4707ZM21.4062 6.24023H23.8657V4.57031H21.4062V6.24023Z" fill="black"/>
<path d="M31.6088 7.4707H27.874C27.5096 7.4707 27.2363 7.20703 27.2363 6.85547V3.95508C27.2363 3.60352 27.5096 3.33984 27.874 3.33984H31.6088C31.9732 3.33984 32.2464 3.60352 32.2464 3.95508V6.85547C32.2464 7.20703 31.9732 7.4707 31.6088 7.4707ZM28.5116 6.24023H30.9711V4.57031H28.5116V6.24023Z" fill="black"/>
<path d="M38.7162 7.4707H34.9814C34.617 7.4707 34.3438 7.20703 34.3438 6.85547V3.95508C34.3438 3.60352 34.617 3.33984 34.9814 3.33984H38.7162C39.0806 3.33984 39.3539 3.60352 39.3539 3.95508V6.85547C39.3539 7.20703 39.0806 7.4707 38.7162 7.4707ZM35.6191 6.24023H38.0786V4.57031H35.6191V6.24023Z" fill="black"/>
<path d="M24.5033 12.9199H20.7685C20.4041 12.9199 20.1309 12.6562 20.1309 12.3047V9.4043C20.1309 9.05273 20.4041 8.78906 20.7685 8.78906H24.5033C24.8677 8.78906 25.141 9.05273 25.141 9.4043V12.3047C25.141 12.6562 24.8677 12.9199 24.5033 12.9199ZM21.4062 11.6895H23.8657V10.0195H21.4062V11.6895Z" fill="black"/>
<path d="M31.6088 12.9199H27.874C27.5096 12.9199 27.2363 12.6562 27.2363 12.3047V9.4043C27.2363 9.05273 27.5096 8.78906 27.874 8.78906H31.6088C31.9732 8.78906 32.2464 9.05273 32.2464 9.4043V12.3047C32.2464 12.6562 31.9732 12.9199 31.6088 12.9199ZM28.5116 11.6895H30.9711V10.0195H28.5116V11.6895Z" fill="black"/>
<path d="M38.7162 12.9199H34.9814C34.617 12.9199 34.3438 12.6562 34.3438 12.3047V9.4043C34.3438 9.05273 34.617 8.78906 34.9814 8.78906H38.7162C39.0806 8.78906 39.3539 9.05273 39.3539 9.4043V12.3047C39.3539 12.6562 39.0806 12.9199 38.7162 12.9199ZM35.6191 11.6895H38.0786V10.0195H35.6191V11.6895Z" fill="black"/>
<path d="M24.5033 18.3691H20.7685C20.4041 18.3691 20.1309 18.1055 20.1309 17.7539V14.8535C20.1309 14.502 20.4041 14.2383 20.7685 14.2383H24.5033C24.8677 14.2383 25.141 14.502 25.141 14.8535V17.7539C25.141 18.1055 24.8677 18.3691 24.5033 18.3691ZM21.4062 17.1387H23.8657V15.4688H21.4062V17.1387Z" fill="black"/>
<path d="M31.6088 18.3691H27.874C27.5096 18.3691 27.2363 18.1055 27.2363 17.7539V14.8535C27.2363 14.502 27.5096 14.2383 27.874 14.2383H31.6088C31.9732 14.2383 32.2464 14.502 32.2464 14.8535V17.7539C32.2464 18.1055 31.9732 18.3691 31.6088 18.3691ZM28.5116 17.1387H30.9711V15.4688H28.5116V17.1387Z" fill="black"/>
<path d="M38.7162 18.3691H34.9814C34.617 18.3691 34.3438 18.1055 34.3438 17.7539V14.8535C34.3438 14.502 34.617 14.2383 34.9814 14.2383H38.7162C39.0806 14.2383 39.3539 14.502 39.3539 14.8535V17.7539C39.3539 18.1055 39.0806 18.3691 38.7162 18.3691ZM35.6191 17.1387H38.0786V15.4688H35.6191V17.1387Z" fill="black"/>
<path d="M24.5033 23.8184H20.7685C20.4041 23.8184 20.1309 23.5547 20.1309 23.2031V20.3027C20.1309 19.9512 20.4041 19.6875 20.7685 19.6875H24.5033C24.8677 19.6875 25.141 19.9512 25.141 20.3027V23.2031C25.141 23.5547 24.8677 23.8184 24.5033 23.8184ZM21.4062 22.5879H23.8657V20.918H21.4062V22.5879Z" fill="black"/>
<path d="M31.6088 23.8184H27.874C27.5096 23.8184 27.2363 23.5547 27.2363 23.2031V20.3027C27.2363 19.9512 27.5096 19.6875 27.874 19.6875H31.6088C31.9732 19.6875 32.2464 19.9512 32.2464 20.3027V23.2031C32.2464 23.5547 31.9732 23.8184 31.6088 23.8184ZM28.5116 22.5879H30.9711V20.918H28.5116V22.5879Z" fill="black"/>
<path d="M38.7162 23.8184H34.9814C34.617 23.8184 34.3438 23.5547 34.3438 23.2031V20.3027C34.3438 19.9512 34.617 19.6875 34.9814 19.6875H38.7162C39.0806 19.6875 39.3539 19.9512 39.3539 20.3027V23.2031C39.3539 23.5547 39.0806 23.8184 38.7162 23.8184ZM35.6191 22.5879H38.0786V20.918H35.6191V22.5879Z" fill="black"/>
<path d="M2.82222 41.748C2.45785 41.748 2.18457 41.4844 2.18457 41.1328V35.5957C2.18457 35.2441 2.45785 34.9805 2.82222 34.9805C3.18659 34.9805 3.45987 35.2441 3.45987 35.5957V41.1328C3.45987 41.4844 3.18659 41.748 2.82222 41.748ZM2.82222 26.4551C2.45785 26.4551 2.18457 26.1914 2.18457 25.8398V8.87695C2.18457 8.52539 2.45785 8.26172 2.82222 8.26172H17.306C17.6704 8.26172 17.9437 8.52539 17.9437 8.87695C17.9437 9.22852 17.6704 9.49219 17.306 9.49219H3.45987V25.8398C3.45987 26.1914 3.18659 26.4551 2.82222 26.4551Z" fill="black"/>
<path d="M14.3924 15.3809H5.64742C5.28304 15.3809 5.00977 15.1172 5.00977 14.7656V11.5137C5.00977 11.1621 5.28304 10.8984 5.64742 10.8984H14.3924C14.7567 10.8984 15.03 11.1621 15.03 11.5137V14.7656C15.03 15.1172 14.7567 15.3809 14.3924 15.3809ZM6.28507 14.1504H13.7547V12.1289H6.28507V14.1504Z" fill="black"/>
<path d="M14.3924 21.4453H5.64742C5.28304 21.4453 5.00977 21.1816 5.00977 20.8301V17.5781C5.00977 17.2266 5.28304 16.9629 5.64742 16.9629H14.3924C14.7567 16.9629 15.03 17.2266 15.03 17.5781V20.8301C15.03 21.1816 14.7567 21.4453 14.3924 21.4453ZM6.28507 20.2148H13.7547V18.1934H6.28507V20.2148Z" fill="black"/>
</svg>
