<svg width="17" height="12" viewBox="0 0 17 12" fill="none" xmlns="http://www.w3.org/2000/svg">
<path d="M12.2738 7.83854C11.9039 8.77967 11.3209 9.7095 10.5418 10.6053C10.2951 10.8888 10.2615 11.297 10.4633 11.6145C10.6202 11.8639 10.8781 12 11.1583 12C11.2368 12 11.3153 11.9944 11.3938 11.966C13.0418 11.4784 16.8928 9.74919 16.9993 4.20431C17.0385 2.0669 15.4914 0.229957 13.479 0.0201823C12.3635 -0.0932151 11.2537 0.275286 10.4296 1.02368C9.60564 1.77774 9.13477 2.85498 9.13477 3.97755C9.13477 5.8485 10.4465 7.48703 12.2738 7.83854Z" fill="black"/>
<path d="M4.33869 0.0201823C3.22878 -0.0932152 2.1189 0.275286 1.2949 1.02368C0.470879 1.77774 0 2.85498 0 3.97755C0 5.84851 1.3117 7.48702 3.1391 7.83854C2.76912 8.77967 2.18616 9.7095 1.40699 10.6053C1.16035 10.8888 1.12671 11.297 1.32854 11.6145C1.48548 11.8639 1.74334 12 2.02362 12C2.10206 12 2.18055 11.9944 2.25904 11.966C3.90705 11.4784 7.75804 9.74918 7.86454 4.20431V4.12496C7.86454 2.02153 6.33425 0.229957 4.33869 0.0201823Z" fill="black"/>
</svg>
