<svg width="42" height="55" viewBox="0 0 42 55" fill="none" xmlns="http://www.w3.org/2000/svg">
<path d="M30.9656 9.98102H11.0399C10.548 9.98102 10.1523 9.59092 10.1523 9.10602V4.23883C10.1523 2.79873 11.3395 1.62842 12.8002 1.62842H15.6959C16.1877 1.62842 16.5834 2.01852 16.5834 2.50342C16.5834 2.98831 16.1877 3.37842 15.6959 3.37842H12.8002C12.3195 3.37842 11.9275 3.76488 11.9275 4.23883V8.22738H30.078V4.23883C30.078 3.76488 29.686 3.37842 29.2053 3.37842H26.3096C25.8177 3.37842 25.422 2.98831 25.422 2.50342C25.422 2.01852 25.8177 1.62842 26.3096 1.62842H29.2053C30.666 1.62842 31.8531 2.79873 31.8531 4.23883V9.10238C31.8531 9.58727 31.4574 9.98102 30.9656 9.98102V9.98102Z" fill="#00A7AC"/>
<path d="M39.5074 55H2.49626C1.12054 55 0 53.8953 0 52.5391V7.25781C0 5.90156 1.12054 4.79688 2.49626 4.79688H11.039C11.5309 4.79688 11.9266 5.18698 11.9266 5.67187C11.9266 6.15677 11.5309 6.54687 11.039 6.54687H2.49626C2.09686 6.54687 1.77512 6.86771 1.77512 7.25781V52.5391C1.77512 52.9328 2.10055 53.25 2.49626 53.25H39.5037C39.9031 53.25 40.2249 52.9292 40.2249 52.5391V7.25781C40.2249 6.86406 39.8994 6.54687 39.5037 6.54687H30.961C30.4691 6.54687 30.0734 6.15677 30.0734 5.67187C30.0734 5.18698 30.4691 4.79688 30.961 4.79688H39.5037C40.8794 4.79688 42 5.90156 42 7.25781V52.5391C42.0037 53.8953 40.8831 55 39.5074 55Z" fill="#00A7AC"/>
<path d="M26.3089 5.44948H15.6952C15.2033 5.44948 14.8076 5.05937 14.8076 4.57448V0.604167C14.8076 -0.281771 15.5362 -1 16.4348 -1H25.5693C26.4679 -1 27.1964 -0.281771 27.1964 0.604167V4.57448C27.1964 5.05937 26.797 5.44948 26.3089 5.44948ZM16.5827 3.69948H25.4213V0.75H16.5827V3.69948Z" fill="#00A7AC"/>
<path d="M35.7722 35.5786H14.2674C13.7756 35.5786 13.3799 35.1885 13.3799 34.7036C13.3799 34.2187 13.7756 33.8286 14.2674 33.8286H35.7722C36.2641 33.8286 36.6598 34.2187 36.6598 34.7036C36.6598 35.1885 36.2604 35.5786 35.7722 35.5786Z" fill="#00A7AC"/>
<path d="M7.52654 36.3148C7.30095 36.3148 7.07166 36.231 6.89785 36.0596L5.60349 34.7836C5.25587 34.4409 5.25587 33.8867 5.60349 33.5476C5.95112 33.2086 6.51324 33.2049 6.85717 33.5476L7.52284 34.2039L9.89336 31.8669C10.241 31.5242 10.8031 31.5242 11.147 31.8669C11.4947 32.2096 11.4947 32.7638 11.147 33.1028L8.15153 36.056C7.98141 36.231 7.75212 36.3148 7.52654 36.3148Z" fill="#00A7AC"/>
<path d="M35.7722 42.7314H14.2674C13.7756 42.7314 13.3799 42.3413 13.3799 41.8564C13.3799 41.3715 13.7756 40.9814 14.2674 40.9814H35.7722C36.2641 40.9814 36.6598 41.3715 36.6598 41.8564C36.6598 42.3413 36.2604 42.7314 35.7722 42.7314Z" fill="#00A7AC"/>
<path d="M7.52654 43.4715C7.28985 43.4715 7.06427 43.3804 6.89785 43.2163L5.60349 41.9403C5.25587 41.5976 5.25587 41.0434 5.60349 40.7044C5.95112 40.3653 6.51324 40.3617 6.85717 40.7044L7.52284 41.3606L9.88966 39.0236C10.2373 38.6809 10.7994 38.6809 11.1433 39.0236C11.491 39.3663 11.491 39.9205 11.1433 40.2596L8.14783 43.2127C7.98881 43.3768 7.76322 43.4715 7.52654 43.4715V43.4715Z" fill="#00A7AC"/>
<path d="M35.7722 49.8848H14.2674C13.7756 49.8848 13.3799 49.4947 13.3799 49.0098C13.3799 48.5249 13.7756 48.1348 14.2674 48.1348H35.7722C36.2641 48.1348 36.6598 48.5249 36.6598 49.0098C36.6598 49.4947 36.2604 49.8848 35.7722 49.8848Z" fill="#00A7AC"/>
<path d="M7.52654 50.6246C7.30095 50.6246 7.07166 50.5408 6.89785 50.3694L5.60349 49.0934C5.25587 48.7507 5.25587 48.1965 5.60349 47.8575C5.95112 47.5184 6.51324 47.5147 6.85717 47.8575L7.52284 48.5137L9.88966 46.1804C10.2373 45.8377 10.7994 45.8377 11.1433 46.1804C11.491 46.5231 11.491 47.0772 11.1433 47.4163L8.14783 50.3694C7.98141 50.5408 7.75212 50.6246 7.52654 50.6246V50.6246Z" fill="#00A7AC"/>
<path d="M26.9366 27.3285C26.5705 27.3285 26.2303 27.1061 26.1008 26.7488C25.3686 24.729 23.416 23.3691 21.2377 23.3691H20.7681C18.5899 23.3691 16.6372 24.7254 15.905 26.7488C15.7386 27.2046 15.2319 27.4415 14.7697 27.2775C14.3074 27.1134 14.067 26.6139 14.2334 26.1582C15.2171 23.4421 17.8428 21.6191 20.7681 21.6191H21.2377C24.163 21.6191 26.7887 23.4421 27.7724 26.1582C27.9388 26.6139 27.6947 27.1134 27.2362 27.2775C27.1363 27.3103 27.0365 27.3285 26.9366 27.3285V27.3285Z" fill="#00A7AC"/>
<path d="M21.002 23.3691C18.6759 23.3691 16.7861 21.5025 16.7861 19.2129C16.7861 16.9233 18.6796 15.0566 21.002 15.0566C23.3282 15.0566 25.2216 16.9233 25.2216 19.2129C25.2216 21.5025 23.3282 23.3691 21.002 23.3691ZM21.002 16.803C19.6559 16.803 18.5612 17.8822 18.5612 19.2092C18.5612 20.5363 19.6559 21.6155 21.002 21.6155C22.3482 21.6155 23.4465 20.5363 23.4465 19.2092C23.4465 17.8822 22.3482 16.803 21.002 16.803Z" fill="#00A7AC"/>
<path d="M21.0012 29.8804C18.6011 29.8804 16.3452 28.958 14.6477 27.2845C12.9503 25.6111 12.0146 23.3871 12.0146 21.021C12.0146 18.6548 12.9503 16.4309 14.6477 14.7575C16.3452 13.084 18.6011 12.1616 21.0012 12.1616C23.4013 12.1616 25.6572 13.084 27.3546 14.7575C29.0521 16.4309 29.9877 18.6548 29.9877 21.021C29.9877 23.3871 29.0521 25.6111 27.3546 27.2845C25.6572 28.958 23.4013 29.8804 21.0012 29.8804ZM21.0012 13.9116C17.0257 13.9116 13.7898 17.1017 13.7898 21.021C13.7898 24.9403 17.0257 28.1304 21.0012 28.1304C24.9767 28.1304 28.2126 24.9403 28.2126 21.021C28.2126 17.1017 24.9767 13.9116 21.0012 13.9116Z" fill="#00A7AC"/>
</svg>
