<svg width="13" height="13" viewBox="0 0 13 13" fill="none" xmlns="http://www.w3.org/2000/svg">
<path d="M8.35714 2.78571C8.35714 3.52453 8.06365 4.23309 7.54123 4.75551C7.0188 5.27793 6.31025 5.57143 5.57143 5.57143C4.83261 5.57143 4.12405 5.27793 3.60163 4.75551C3.07921 4.23309 2.78571 3.52453 2.78571 2.78571C2.78571 2.0469 3.07921 1.33834 3.60163 0.815917C4.12405 0.293494 4.83261 0 5.57143 0C6.31025 0 7.0188 0.293494 7.54123 0.815917C8.06365 1.33834 8.35714 2.0469 8.35714 2.78571ZM5.57143 4.64286C6.06397 4.64286 6.53634 4.44719 6.88463 4.09891C7.23291 3.75063 7.42857 3.27826 7.42857 2.78571C7.42857 2.29317 7.23291 1.8208 6.88463 1.47252C6.53634 1.12423 6.06397 0.928571 5.57143 0.928571C5.07888 0.928571 4.60651 1.12423 4.25823 1.47252C3.90995 1.8208 3.71429 2.29317 3.71429 2.78571C3.71429 3.27826 3.90995 3.75063 4.25823 4.09891C4.60651 4.44719 5.07888 4.64286 5.57143 4.64286ZM5.80914 11.1429C5.70261 10.8413 5.63126 10.5285 5.5965 10.2106H0.928571C0.9295 9.98214 1.07157 9.295 1.70114 8.66543C2.30657 8.06 3.44593 7.42857 5.57143 7.42857C5.81286 7.42857 6.04221 7.43693 6.25857 7.45179C6.46843 7.13514 6.71914 6.84821 7.00514 6.59936C6.5715 6.53529 6.09514 6.5 5.57143 6.5C0.928571 6.5 0 9.28571 0 10.2143C0 11.1429 0.928571 11.1429 0.928571 11.1429H5.80914ZM9.17986 6.92714C9.347 6.35793 10.153 6.35793 10.3211 6.92714L10.361 7.06457C10.3859 7.14982 10.4297 7.22839 10.489 7.29451C10.5483 7.36063 10.6217 7.41262 10.7037 7.44665C10.7857 7.48068 10.8744 7.49588 10.9631 7.49115C11.0518 7.48641 11.1383 7.46186 11.2162 7.41929L11.3425 7.35057C11.8634 7.06643 12.4336 7.63657 12.1504 8.1575L12.0807 8.28378C12.0383 8.3617 12.0139 8.44812 12.0093 8.53671C12.0046 8.62529 12.0199 8.71379 12.0539 8.79571C12.0879 8.87764 12.1398 8.95091 12.2058 9.01015C12.2719 9.06939 12.3503 9.1131 12.4354 9.13807L12.5738 9.17986C13.1421 9.347 13.1421 10.153 12.5738 10.3211L12.4345 10.361C12.3494 10.3862 12.271 10.43 12.2051 10.4894C12.1392 10.5488 12.0874 10.6222 12.0536 10.7042C12.0198 10.7863 12.0047 10.8748 12.0096 10.9634C12.0144 11.052 12.039 11.1384 12.0816 11.2162L12.1504 11.3425C12.4336 11.8634 11.8634 12.4336 11.3425 12.1504L11.2162 12.0807C11.1383 12.0383 11.0519 12.0139 10.9633 12.0093C10.8747 12.0046 10.7862 12.0199 10.7043 12.0539C10.6224 12.0879 10.5491 12.1398 10.4899 12.2058C10.4306 12.2719 10.3869 12.3503 10.3619 12.4354L10.3201 12.5738C10.153 13.1421 9.347 13.1421 9.17893 12.5738L9.139 12.4345C9.11385 12.3494 9.06997 12.271 9.01057 12.2051C8.95117 12.1392 8.87777 12.0874 8.79576 12.0536C8.71374 12.0198 8.62518 12.0047 8.53659 12.0096C8.448 12.0144 8.36162 12.039 8.28378 12.0816L8.1575 12.1504C7.63657 12.4336 7.06643 11.8634 7.34964 11.3425L7.41929 11.2162C7.46168 11.1383 7.4861 11.0519 7.49074 10.9633C7.49539 10.8747 7.48014 10.7862 7.44612 10.7043C7.41211 10.6224 7.36018 10.5491 7.29416 10.4899C7.22814 10.4306 7.14969 10.3869 7.06457 10.3619L6.92714 10.3201C6.35793 10.153 6.35793 9.347 6.92714 9.17893L7.06457 9.139C7.14982 9.11406 7.22839 9.07033 7.29451 9.01102C7.36063 8.95172 7.41262 8.87835 7.44665 8.7963C7.48068 8.71426 7.49588 8.62563 7.49115 8.53694C7.48641 8.44824 7.46186 8.36174 7.41929 8.28378L7.35057 8.1575C7.06643 7.63657 7.63657 7.06643 8.1575 7.34964L8.28378 7.41929C8.3617 7.46168 8.44812 7.4861 8.53671 7.49074C8.62529 7.49539 8.71379 7.48014 8.79571 7.44612C8.87764 7.41211 8.95091 7.36018 9.01015 7.29416C9.06939 7.22814 9.1131 7.14969 9.13807 7.06457L9.17986 6.92714ZM11.1429 9.75C11.1429 9.56709 11.1068 9.38597 11.0368 9.21698C10.9668 9.04799 10.8642 8.89444 10.7349 8.7651C10.6056 8.63576 10.452 8.53316 10.283 8.46317C10.114 8.39317 9.93291 8.35714 9.75 8.35714C9.56709 8.35714 9.38597 8.39317 9.21698 8.46317C9.04799 8.53316 8.89444 8.63576 8.7651 8.7651C8.63576 8.89444 8.53316 9.04799 8.46317 9.21698C8.39317 9.38597 8.35714 9.56709 8.35714 9.75C8.35714 10.1194 8.50389 10.4737 8.7651 10.7349C9.02631 10.9961 9.38059 11.1429 9.75 11.1429C10.1194 11.1429 10.4737 10.9961 10.7349 10.7349C10.9961 10.4737 11.1429 10.1194 11.1429 9.75Z" fill="#595959"/>
</svg>
