<svg width="13" height="13" viewBox="0 0 13 13" fill="none" xmlns="http://www.w3.org/2000/svg">
<path d="M8.9375 6.09375C8.9375 5.98601 8.9803 5.88267 9.05649 5.80649C9.13267 5.7303 9.23601 5.6875 9.34375 5.6875H10.1562C10.264 5.6875 10.3673 5.7303 10.4435 5.80649C10.5197 5.88267 10.5625 5.98601 10.5625 6.09375V6.90625C10.5625 7.01399 10.5197 7.11733 10.4435 7.19351C10.3673 7.2697 10.264 7.3125 10.1562 7.3125H9.34375C9.23601 7.3125 9.13267 7.2697 9.05649 7.19351C8.9803 7.11733 8.9375 7.01399 8.9375 6.90625V6.09375Z" fill="#595959"/>
<path d="M2.84375 0C2.95149 0 3.05483 0.0428012 3.13101 0.118988C3.2072 0.195175 3.25 0.298506 3.25 0.40625V0.8125H9.75V0.40625C9.75 0.298506 9.7928 0.195175 9.86899 0.118988C9.94517 0.0428012 10.0485 0 10.1562 0C10.264 0 10.3673 0.0428012 10.4435 0.118988C10.5197 0.195175 10.5625 0.298506 10.5625 0.40625V0.8125H11.375C11.806 0.8125 12.2193 0.983705 12.524 1.28845C12.8288 1.5932 13 2.00652 13 2.4375V11.375C13 11.806 12.8288 12.2193 12.524 12.524C12.2193 12.8288 11.806 13 11.375 13H1.625C1.19402 13 0.780698 12.8288 0.475952 12.524C0.171205 12.2193 0 11.806 0 11.375V2.4375C0 2.00652 0.171205 1.5932 0.475952 1.28845C0.780698 0.983705 1.19402 0.8125 1.625 0.8125H2.4375V0.40625C2.4375 0.298506 2.4803 0.195175 2.55649 0.118988C2.63267 0.0428012 2.73601 0 2.84375 0V0ZM1.625 1.625C1.40951 1.625 1.20285 1.7106 1.05048 1.86298C0.898102 2.01535 0.8125 2.22201 0.8125 2.4375V11.375C0.8125 11.5905 0.898102 11.7972 1.05048 11.9495C1.20285 12.1019 1.40951 12.1875 1.625 12.1875H11.375C11.5905 12.1875 11.7972 12.1019 11.9495 11.9495C12.1019 11.7972 12.1875 11.5905 12.1875 11.375V2.4375C12.1875 2.22201 12.1019 2.01535 11.9495 1.86298C11.7972 1.7106 11.5905 1.625 11.375 1.625H1.625Z" fill="#595959"/>
<path d="M2.03125 3.25C2.03125 3.14226 2.07405 3.03892 2.15024 2.96274C2.22642 2.88655 2.32976 2.84375 2.4375 2.84375H10.5625C10.6702 2.84375 10.7736 2.88655 10.8498 2.96274C10.9259 3.03892 10.9688 3.14226 10.9688 3.25V4.0625C10.9688 4.17024 10.9259 4.27358 10.8498 4.34976C10.7736 4.42595 10.6702 4.46875 10.5625 4.46875H2.4375C2.32976 4.46875 2.22642 4.42595 2.15024 4.34976C2.07405 4.27358 2.03125 4.17024 2.03125 4.0625V3.25Z" fill="#595959"/>
</svg>
