<svg width="55" height="55" viewBox="0 0 55 55" fill="none" xmlns="http://www.w3.org/2000/svg">
<path d="M52.2704 30.1973L44.3548 26.8968V24.5273C45.4444 23.9017 46.3879 23.0505 47.1222 22.0308C47.8565 21.011 48.3648 19.8462 48.6129 18.6142H48.7903C49.4961 18.6238 50.1769 18.3526 50.6828 17.8601C51.1887 17.3676 51.4783 16.6943 51.488 15.9882C51.4976 15.2821 51.2265 14.601 50.7342 14.0949C50.242 13.5888 49.5689 13.2991 48.8631 13.2894L49.7324 11.2731C50.4752 9.55014 50.5132 7.6045 49.8382 5.85384C49.1632 4.10319 47.8289 2.68708 46.1219 1.90951L43.6452 0.78244C42.1796 0.131499 40.5681 -0.120075 38.974 0.0532412C37.3799 0.226557 35.8599 0.818595 34.5684 1.76929L33.1881 2.81117C31.7787 3.1743 30.5682 4.0765 29.8171 5.32357C29.4023 6.01246 29.1435 6.78395 29.0589 7.58371C28.9743 8.38347 29.0659 9.19207 29.3274 9.95256C27.9881 9.68456 26.606 9.71821 25.2814 10.0511C25.6606 8.44088 25.4692 6.74894 24.74 5.26421C24.0108 3.77948 22.789 2.59405 21.2832 1.9104L18.8065 0.78244C17.3409 0.131499 15.7294 -0.120075 14.1352 0.0532412C12.5411 0.226557 11.0212 0.818595 9.72968 1.76929L8.34936 2.81117C7.54989 3.01554 6.80632 3.39641 6.17321 3.92582C5.5401 4.45524 5.03352 5.11976 4.69066 5.87062C4.3478 6.62148 4.17735 7.43961 4.19184 8.26497C4.20632 9.09034 4.40537 9.90199 4.77436 10.6403L6.09968 13.2894C5.39386 13.304 4.72275 13.5985 4.23397 14.1081C3.7452 14.6177 3.47881 15.3007 3.49339 16.0068C3.50798 16.7129 3.80235 17.3843 4.31176 17.8733C4.82116 18.3623 5.50386 18.6288 6.20968 18.6142H6.3871C6.63623 19.8456 7.14486 21.0098 7.87909 22.0291C8.61333 23.0484 9.5563 23.8995 10.6452 24.5255V26.8968L2.7296 30.1973C1.92043 30.5329 1.22906 31.1013 0.743124 31.8304C0.257188 32.5596 -0.00144401 33.4166 6.06436e-06 34.2929V46.1254C6.06436e-06 46.3608 0.0934677 46.5865 0.259831 46.7529C0.426193 46.9194 0.65183 47.0129 0.887103 47.0129H7.09678V54.1125C7.09678 54.3479 7.19024 54.5736 7.3566 54.7401C7.52297 54.9065 7.7486 55 7.98388 55H47.0161C47.2514 55 47.477 54.9065 47.6434 54.7401C47.8098 54.5736 47.9032 54.3479 47.9032 54.1125V47.0129H54.1129C54.3482 47.0129 54.5738 46.9194 54.7402 46.7529C54.9065 46.5865 55 46.3608 55 46.1254V34.2929C55.0014 33.4166 54.7428 32.5596 54.2569 31.8304C53.7709 31.1013 53.0796 30.5329 52.2704 30.1973ZM30.4922 12.1597L32.9681 13.2894C34.2523 13.8747 35.256 14.9403 35.7636 16.2576C36.2713 17.5748 36.2425 19.0387 35.6835 20.3349L35.4173 20.9429L34.5081 19.1049C34.4501 18.9879 34.367 18.8851 34.2647 18.8039C34.1625 18.7227 34.0435 18.665 33.9164 18.6351C33.7893 18.6052 33.6572 18.6037 33.5294 18.6308C33.4017 18.6578 33.2815 18.7128 33.1774 18.7917L31.7581 19.8566C30.5296 20.7783 29.0355 21.2765 27.5 21.2765C25.9645 21.2765 24.4704 20.7783 23.2419 19.8566L21.8226 18.7917C21.719 18.7132 21.5993 18.6587 21.4721 18.6322C21.345 18.6056 21.2135 18.6076 21.0872 18.6381C20.9605 18.6678 20.8419 18.725 20.7398 18.8057C20.6377 18.8864 20.5546 18.9885 20.4964 19.1049L19.5161 21.0733L18.7834 19.6081C18.4975 19.0361 18.3626 18.4005 18.3912 17.7616C18.4199 17.1228 18.6113 16.5018 18.9472 15.9577C19.2831 15.4136 19.7524 14.9644 20.3106 14.6528C20.8688 14.3411 21.4974 14.1773 22.1366 14.1769C22.82 14.1762 23.4929 14.3446 24.0955 14.6672C24.698 14.9897 25.2115 15.4563 25.5901 16.0254L25.8686 16.4443L27.3448 15.4592L27.0662 15.0413C26.2778 13.8594 25.0902 13.0012 23.721 12.6238C24.7272 12.0025 25.8695 11.6356 27.0492 11.5548C28.229 11.4739 29.4106 11.6815 30.4922 12.1597ZM36.371 24.8264H37.2581C37.4933 24.8264 37.719 24.9199 37.8853 25.0863C38.0517 25.2527 38.1452 25.4785 38.1452 25.7138C38.1452 25.9492 38.0517 26.1749 37.8853 26.3414C37.719 26.5078 37.4933 26.6013 37.2581 26.6013H36.371V24.8264ZM24.8387 35.0668C26.571 35.6123 28.429 35.6123 30.1613 35.0668V36.8834L27.5 39.5458L24.8387 36.8834V35.0668ZM27.5 33.701C25.6185 33.6989 23.8146 32.9502 22.4842 31.6192C21.1537 30.2882 20.4053 28.4836 20.4032 26.6013V23.2609L21.6079 20.8497L22.1774 21.2765C23.713 22.4287 25.5806 23.0515 27.5 23.0515C29.4194 23.0515 31.2871 22.4287 32.8226 21.2765L33.3921 20.8497L34.5968 23.2609V26.6013C34.5947 28.4836 33.8463 30.2882 32.5158 31.6192C31.1854 32.9502 29.3815 33.6989 27.5 33.701ZM18.629 26.6013H17.7419C17.5067 26.6013 17.281 26.5078 17.1147 26.3414C16.9483 26.1749 16.8548 25.9492 16.8548 25.7138C16.8548 25.4785 16.9483 25.2527 17.1147 25.0863C17.281 24.9199 17.5067 24.8264 17.7419 24.8264H18.629V26.6013ZM7.09678 44.386V45.2379H1.7742V34.2929C1.77388 33.7675 1.92928 33.2538 2.22076 32.8167C2.51224 32.3796 2.92671 32.0388 3.41178 31.8373L11.8738 28.3105C12.0358 28.2429 12.1741 28.1288 12.2712 27.9825C12.3683 27.8362 12.4199 27.6644 12.4194 27.4888V23.9957C12.4147 23.8276 12.3644 23.6639 12.2739 23.5221C12.1835 23.3803 12.0562 23.2658 11.9057 23.1908C10.8452 22.6631 9.93431 21.8772 9.25663 20.9054C8.57895 19.9336 8.15624 18.807 8.02734 17.6291C8.00332 17.4119 7.90007 17.2113 7.73737 17.0655C7.57467 16.9198 7.36396 16.8392 7.14557 16.8392H6.20968C5.97441 16.8392 5.74877 16.7457 5.58241 16.5793C5.41605 16.4129 5.32259 16.1872 5.32259 15.9518C5.32259 15.7164 5.41605 15.4907 5.58241 15.3243C5.74877 15.1578 5.97441 15.0643 6.20968 15.0643H7.09678C7.2138 15.0643 7.32966 15.0412 7.4377 14.9962C7.54573 14.9512 7.6438 14.8853 7.72626 14.8022C7.80871 14.7191 7.87393 14.6206 7.91814 14.5122C7.96235 14.4038 7.98469 14.2877 7.98388 14.1707L7.97767 13.2832C7.97684 13.1476 7.94497 13.014 7.88452 12.8927L6.36138 9.84606C6.10623 9.33456 5.97129 8.7715 5.96684 8.19987C5.9624 7.62823 6.08857 7.06314 6.33573 6.54773C6.58289 6.03232 6.9445 5.58022 7.39295 5.22594C7.84141 4.87167 8.36485 4.62458 8.92331 4.50356C9.04886 4.47574 9.16708 4.42159 9.27017 4.3447L10.796 3.191C11.8313 2.42971 13.0494 1.9557 14.3268 1.81699C15.6043 1.67829 16.8957 1.87982 18.0702 2.40117L20.5487 3.52735C21.8329 4.11262 22.8366 5.17825 23.3443 6.4955C23.852 7.81276 23.8232 9.27663 23.2641 10.5729L23.1204 10.9057C22.7836 11.0923 22.4596 11.3013 22.1508 11.5313L20.7519 12.5794C19.954 12.7845 19.2122 13.1656 18.5808 13.6949C17.9493 14.2242 17.4444 14.8881 17.1029 15.6381C16.7614 16.388 16.5921 17.205 16.6074 18.0289C16.6226 18.8529 16.8221 19.6629 17.1911 20.3997L18.5181 23.0515H17.7419C17.0361 23.0515 16.3592 23.332 15.8601 23.8313C15.361 24.3305 15.0806 25.0077 15.0806 25.7138C15.0806 26.4199 15.361 27.0971 15.8601 27.5964C16.3592 28.0957 17.0361 28.3762 17.7419 28.3762H18.8065C19.0605 29.6042 19.5712 30.7645 20.3051 31.7811C21.0389 32.7977 21.9793 33.6477 23.0645 34.2752V36.5763L10.3453 40.1111C9.41233 40.3725 8.59016 40.9314 8.0038 41.703C7.41744 42.4747 7.09896 43.4167 7.09678 44.386ZM46.129 53.2251H40.8064V46.1254H39.0323V53.2251H15.9677V46.1254H14.1936V53.2251H8.87097V44.386C8.87227 43.8041 9.06365 43.2385 9.41598 42.7755C9.7683 42.3125 10.2623 41.9774 10.8226 41.8212L23.6935 38.2448L26.8755 41.4281C27.0418 41.5945 27.2674 41.6879 27.5027 41.6879C27.7379 41.6879 27.9635 41.5945 28.1298 41.4281L31.3119 38.2448L44.1774 41.8212C44.7377 41.9774 45.2317 42.3125 45.584 42.7755C45.9363 43.2385 46.1277 43.8041 46.129 44.386V53.2251ZM53.2258 45.2379H47.9032V44.386C47.901 43.4167 47.5826 42.4747 46.9962 41.703C46.4098 40.9314 45.5877 40.3725 44.6547 40.1111L31.9355 36.5763V34.2752C33.0207 33.6477 33.9611 32.7977 34.695 31.7811C35.4288 30.7645 35.9395 29.6042 36.1935 28.3762H37.2581C37.9639 28.3762 38.6408 28.0957 39.1399 27.5964C39.639 27.0971 39.9194 26.4199 39.9194 25.7138C39.9194 25.0077 39.639 24.3305 39.1399 23.8313C38.6408 23.332 37.9639 23.0515 37.2581 23.0515H36.4437L37.3131 21.036C38.0559 19.3131 38.0939 17.3674 37.4188 15.6168C36.7438 13.8661 35.4096 12.45 33.7026 11.6725L31.6445 10.7344L31.201 9.84695C30.9457 9.33547 30.8105 8.77239 30.806 8.2007C30.8014 7.62901 30.9274 7.06383 31.1745 6.54832C31.4216 6.0328 31.7832 5.58059 32.2316 5.22621C32.68 4.87183 33.2035 4.62466 33.762 4.50356C33.8876 4.47574 34.0058 4.42159 34.1089 4.3447L35.6347 3.191C36.67 2.42971 37.8881 1.9557 39.1656 1.81699C40.443 1.67829 41.7344 1.87982 42.9089 2.40117L45.3874 3.52735C46.6716 4.11262 47.6753 5.17825 48.183 6.4955C48.6907 7.81276 48.6619 9.27663 48.1028 10.5729L47.0827 12.9344C47.0343 13.0465 47.0095 13.1673 47.0099 13.2894L47.0161 14.1769C47.0161 14.4122 47.1096 14.638 47.276 14.8044C47.4423 14.9708 47.6679 15.0643 47.9032 15.0643H48.7903C49.0256 15.0643 49.2512 15.1578 49.4176 15.3243C49.584 15.4907 49.6774 15.7164 49.6774 15.9518C49.6774 16.1872 49.584 16.4129 49.4176 16.5793C49.2512 16.7457 49.0256 16.8392 48.7903 16.8392H47.8544C47.636 16.8392 47.4253 16.9198 47.2626 17.0655C47.0999 17.2113 46.9967 17.4119 46.9727 17.6291C46.8433 18.8114 46.4178 19.942 45.7355 20.9161C45.0532 21.8902 44.1362 22.6762 43.0694 23.2014C42.9216 23.2749 42.7973 23.3882 42.7103 23.5285C42.6233 23.6688 42.5772 23.8306 42.5771 23.9957V27.4888C42.5771 27.6639 42.6289 27.8352 42.726 27.9809C42.823 28.1267 42.9611 28.2404 43.1227 28.3079L51.5882 31.8373C52.0733 32.0388 52.4878 32.3796 52.7792 32.8167C53.0707 33.2538 53.2261 33.7675 53.2258 34.2929V45.2379Z" fill="#00A7AC"/>
</svg>
