<svg width="28" height="28" viewBox="0 0 28 28" fill="none" xmlns="http://www.w3.org/2000/svg">
<path d="M22.6412 8.13498C22.9432 8.13498 23.1881 7.89014 23.1881 7.5881V1.64067C23.1881 0.736004 22.4521 0 21.5475 0H1.64067C0.736004 0 0 0.736004 0 1.64067V26.3601C0 27.2648 0.736004 28.0008 1.64067 28.0008H21.5475C22.4521 28.0008 23.1881 27.2648 23.1881 26.3601V22.331C23.1881 22.029 22.9432 21.7842 22.6412 21.7842C22.3392 21.7842 22.0943 22.029 22.0943 22.331V26.3601C22.0943 26.6616 21.849 26.907 21.5475 26.907H1.64067C1.33911 26.907 1.09378 26.6616 1.09378 26.3601V1.64067C1.09378 1.33911 1.33911 1.09378 1.64067 1.09378H21.5475C21.849 1.09378 22.0943 1.33911 22.0943 1.64067V7.5881C22.0943 7.89014 22.3392 8.13498 22.6412 8.13498Z" fill="#00A7AC"/>
<path d="M11.5939 2.95312C8.81957 2.95312 6.5625 5.21019 6.5625 7.98451C6.5625 9.42376 7.17009 10.7236 8.14203 11.6415C8.16024 11.661 8.1796 11.6794 8.20076 11.6962C9.09608 12.5154 10.2876 13.0158 11.5938 13.0158C12.9001 13.0158 14.0916 12.5153 14.9869 11.6962C15.0081 11.6794 15.0274 11.6609 15.0456 11.6415C16.0177 10.7236 16.6253 9.42376 16.6253 7.98451C16.6253 5.21019 14.3682 2.95312 11.5939 2.95312ZM11.5939 11.9221C10.7009 11.9221 9.87671 11.6229 9.21541 11.1199C9.69607 10.2676 10.593 9.73456 11.5939 9.73456C12.5947 9.73456 13.4917 10.2676 13.9724 11.1199C13.311 11.6229 12.4869 11.9221 11.5939 11.9221ZM10.7189 7.76575V7.41028C10.7189 6.92781 11.1114 6.53525 11.5939 6.53525C12.0764 6.53525 12.4689 6.92781 12.4689 7.41028V7.76575C12.4689 8.24822 12.0764 8.64078 11.5939 8.64078C11.1114 8.64078 10.7189 8.24822 10.7189 7.76575ZM14.7626 10.3188C14.3592 9.72061 13.8003 9.25537 13.1513 8.96815C13.4088 8.63525 13.5627 8.21825 13.5627 7.76575V7.41028C13.5627 6.32465 12.6795 5.44147 11.5939 5.44147C10.5083 5.44147 9.62508 6.32465 9.62508 7.41028V7.76575C9.62508 8.21825 9.77892 8.63525 10.0365 8.96815C9.38751 9.25537 8.82854 9.72061 8.42521 10.3188C7.94236 9.6651 7.65628 8.85773 7.65628 7.98451C7.65628 5.8133 9.42268 4.0469 11.5939 4.0469C13.7651 4.0469 15.5315 5.8133 15.5315 7.98451C15.5315 8.85773 15.2454 9.6651 14.7626 10.3188Z" fill="#00A7AC"/>
<path d="M14.547 23.9539H11.5938C11.2918 23.9539 11.0469 24.1987 11.0469 24.5007C11.0469 24.8028 11.2918 25.0476 11.5938 25.0476H14.547C14.849 25.0476 15.0939 24.8028 15.0939 24.5007C15.0939 24.1987 14.849 23.9539 14.547 23.9539Z" fill="#00A7AC"/>
<path d="M14.5471 20.8911H6.78126C6.47927 20.8911 6.23438 21.136 6.23438 21.438C6.23438 21.7401 6.47927 21.9849 6.78126 21.9849H14.5471C14.8491 21.9849 15.094 21.7401 15.094 21.438C15.094 21.136 14.8491 20.8911 14.5471 20.8911Z" fill="#00A7AC"/>
<path d="M14.5471 17.8286H6.78126C6.47927 17.8286 6.23438 18.0735 6.23438 18.3755C6.23438 18.6776 6.47927 18.9224 6.78126 18.9224H14.5471C14.8491 18.9224 15.094 18.6776 15.094 18.3755C15.094 18.0735 14.8491 17.8286 14.5471 17.8286Z" fill="#00A7AC"/>
<path d="M4.83247 14.9261C4.7308 14.8244 4.58971 14.7659 4.44533 14.7659C4.30144 14.7659 4.16034 14.8244 4.05868 14.9261C3.95695 15.0278 3.89844 15.1689 3.89844 15.3128C3.89844 15.4566 3.9569 15.5977 4.05868 15.6994C4.16094 15.8011 4.30144 15.8596 4.44533 15.8596C4.58971 15.8596 4.73026 15.8011 4.83247 15.6994C4.93419 15.5977 4.99276 15.4566 4.99276 15.3128C4.99276 15.1689 4.93425 15.0278 4.83247 14.9261Z" fill="#00A7AC"/>
<path d="M4.83247 17.9889C4.73026 17.8871 4.58971 17.8286 4.44533 17.8286C4.30144 17.8286 4.16094 17.8871 4.05868 17.9889C3.95695 18.0906 3.89844 18.2317 3.89844 18.3755C3.89844 18.5193 3.9569 18.6604 4.05868 18.7622C4.16094 18.8639 4.30144 18.9224 4.44533 18.9224C4.58971 18.9224 4.73026 18.8639 4.83247 18.7622C4.93419 18.6604 4.99276 18.5193 4.99276 18.3755C4.99276 18.2317 4.93425 18.0906 4.83247 17.9889Z" fill="#00A7AC"/>
<path d="M4.83247 21.0514C4.73026 20.9496 4.58971 20.8911 4.44533 20.8911C4.30144 20.8911 4.16094 20.9496 4.05868 21.0514C3.95695 21.1531 3.89844 21.2942 3.89844 21.438C3.89844 21.5818 3.9569 21.7229 4.05868 21.8247C4.16034 21.9264 4.30144 21.9849 4.44533 21.9849C4.58971 21.9849 4.7308 21.9264 4.83247 21.8247C4.93419 21.7229 4.99276 21.5818 4.99276 21.438C4.99276 21.2942 4.93425 21.1531 4.83247 21.0514Z" fill="#00A7AC"/>
<path d="M14.5471 14.7659H6.78126C6.47927 14.7659 6.23438 15.0107 6.23438 15.3128C6.23438 15.6148 6.47927 15.8596 6.78126 15.8596H14.5471C14.8491 15.8596 15.094 15.6148 15.094 15.3128C15.094 15.0107 14.8491 14.7659 14.5471 14.7659Z" fill="#00A7AC"/>
<path d="M26.852 7.12707C26.3207 6.82032 25.7017 6.73883 25.109 6.89759C24.5164 7.05641 24.021 7.4365 23.7143 7.9678L16.8321 19.888C16.7944 19.9533 16.7706 20.0258 16.7622 20.1008L16.2778 24.44C16.2537 24.6559 16.3597 24.8657 16.5478 24.9743C16.6328 25.0233 16.7271 25.0476 16.8212 25.0476C16.9356 25.0476 17.0496 25.0118 17.1456 24.9411L20.6612 22.3519C20.722 22.3071 20.7728 22.2503 20.8105 22.185L27.6926 10.2648C28.3259 9.16795 27.9488 7.76037 26.852 7.12707ZM17.5035 23.3191L17.7565 21.0532L19.3393 21.967L17.5035 23.3191ZM20.1368 21.1644L18.0528 19.9613L23.5756 10.3956L25.6595 11.5988L20.1368 21.1644ZM26.7454 9.71785L26.2064 10.6516L24.1224 9.4484L24.6615 8.51469C24.8222 8.23638 25.0816 8.03731 25.392 7.95413C25.7026 7.87089 26.0268 7.91366 26.305 8.07434C26.5833 8.23501 26.7824 8.49446 26.8656 8.80487C26.9488 9.11529 26.9061 9.43954 26.7454 9.71785Z" fill="#00A7AC"/>
</svg>
