<svg width="55" height="55" viewBox="0 0 55 55" fill="none" xmlns="http://www.w3.org/2000/svg">
<path d="M7.34818 46.8359C7.23684 46.8359 7.01417 46.8359 6.90283 46.7285C0.779352 43.6133 0 39.6387 0 39.4238V39.3164V31.582C0 31.3672 0 31.1523 0.222672 31.0449C0.334008 30.8301 0.55668 30.8301 0.779352 30.8301C5.01012 31.2598 6.7915 29.7559 6.7915 29.7559C7.12551 29.4336 7.57085 29.4336 7.79352 29.7559C7.90486 29.7559 9.5749 31.2598 13.8057 30.8301C14.0283 30.8301 14.251 30.8301 14.3623 31.0449C14.585 31.1523 14.6964 31.3672 14.6964 31.582V39.3164V39.4238C14.585 39.6387 13.8057 43.6133 7.68219 46.7285C7.57085 46.8359 7.45951 46.8359 7.34818 46.8359ZM1.5587 39.209C1.67004 39.6387 2.56073 42.6465 7.34818 45.2246C12.1356 42.6465 13.0263 39.6387 13.1377 39.209V32.334C10.0202 32.5488 8.12753 31.6895 7.34818 31.2598C6.45749 31.6895 4.67611 32.5488 1.5587 32.334V39.209Z" fill="#00A7AC"/>
<path d="M5.79169 41.25C5.56902 41.25 5.34634 41.1426 5.23501 41.0352L3.45363 39.3164C3.11962 38.9941 3.11962 38.5645 3.45363 38.2422C3.6763 37.9199 4.23298 37.9199 4.56699 38.2422L5.79169 39.4238L10.0225 35.3418C10.3565 35.0195 10.8018 35.0195 11.1358 35.3418C11.3585 35.6641 11.3585 36.0938 11.1358 36.416L6.34837 41.0352C6.1257 41.1426 5.90302 41.25 5.79169 41.25Z" fill="#00A7AC"/>
<path d="M54.2206 55H0.779352C0.334008 55 0 54.6777 0 54.248V50.2734C0 49.8438 0.334008 49.5215 0.779352 49.5215H54.2206C54.666 49.5215 55 49.8438 55 50.2734V54.248C55 54.6777 54.666 55 54.2206 55ZM1.5587 53.4961H53.4413V51.0254H1.5587V53.4961Z" fill="#00A7AC"/>
<path d="M51.5471 51.0254C51.1018 51.0254 50.7678 50.7031 50.7678 50.2734V1.50391H21.9318V50.2734C21.9318 50.7031 21.5977 51.0254 21.1524 51.0254C20.7071 51.0254 20.373 50.7031 20.373 50.2734V0.751953C20.373 0.322266 20.7071 0 21.1524 0H51.5471C51.9925 0 52.3265 0.322266 52.3265 0.751953V50.2734C52.3265 50.7031 51.9925 51.0254 51.5471 51.0254Z" fill="#00A7AC"/>
<path d="M44.4231 51.0254H27.834C27.3887 51.0254 27.0547 50.7031 27.0547 50.2734V33.623C27.0547 32.5488 27.9454 31.6895 29.0587 31.6895H43.1984C44.3118 31.6895 45.2025 32.5488 45.2025 33.623V50.2734C45.2025 50.7031 44.7571 51.0254 44.4231 51.0254ZM28.6134 49.5215H43.6438V33.623C43.6438 33.4082 43.4211 33.1934 43.1984 33.1934H29.0587C28.7247 33.1934 28.6134 33.4082 28.6134 33.623V49.5215Z" fill="#00A7AC"/>
<path d="M36.0733 51.0254C35.628 51.0254 35.2939 50.7031 35.2939 50.2734V32.4414C35.2939 32.0117 35.628 31.6895 36.0733 31.6895C36.5186 31.6895 36.8526 32.0117 36.8526 32.4414V50.2734C36.8526 50.7031 36.4073 51.0254 36.0733 51.0254Z" fill="#00A7AC"/>
<path d="M29.9486 9.13086H25.3838C24.9385 9.13086 24.6045 8.80859 24.6045 8.37891V4.83398C24.6045 4.4043 24.9385 4.08203 25.3838 4.08203H29.9486C30.394 4.08203 30.728 4.4043 30.728 4.83398V8.37891C30.728 8.80859 30.394 9.13086 29.9486 9.13086ZM26.1632 7.62695H29.1693V5.58594H26.1632V7.62695Z" fill="#00A7AC"/>
<path d="M38.6332 9.13086H34.0684C33.6231 9.13086 33.2891 8.80859 33.2891 8.37891V4.83398C33.2891 4.4043 33.6231 4.08203 34.0684 4.08203H38.6332C39.0785 4.08203 39.4125 4.4043 39.4125 4.83398V8.37891C39.4125 8.80859 39.0785 9.13086 38.6332 9.13086ZM34.8478 7.62695H37.8538V5.58594H34.8478V7.62695Z" fill="#00A7AC"/>
<path d="M47.3197 9.13086H42.7549C42.3096 9.13086 41.9756 8.80859 41.9756 8.37891V4.83398C41.9756 4.4043 42.3096 4.08203 42.7549 4.08203H47.3197C47.7651 4.08203 48.0991 4.4043 48.0991 4.83398V8.37891C48.0991 8.80859 47.7651 9.13086 47.3197 9.13086ZM43.5343 7.62695H46.5404V5.58594H43.5343V7.62695Z" fill="#00A7AC"/>
<path d="M29.9486 15.791H25.3838C24.9385 15.791 24.6045 15.4688 24.6045 15.0391V11.4941C24.6045 11.0645 24.9385 10.7422 25.3838 10.7422H29.9486C30.394 10.7422 30.728 11.0645 30.728 11.4941V15.0391C30.728 15.4688 30.394 15.791 29.9486 15.791ZM26.1632 14.2871H29.1693V12.2461H26.1632V14.2871Z" fill="#00A7AC"/>
<path d="M38.6332 15.791H34.0684C33.6231 15.791 33.2891 15.4688 33.2891 15.0391V11.4941C33.2891 11.0645 33.6231 10.7422 34.0684 10.7422H38.6332C39.0785 10.7422 39.4125 11.0645 39.4125 11.4941V15.0391C39.4125 15.4688 39.0785 15.791 38.6332 15.791ZM34.8478 14.2871H37.8538V12.2461H34.8478V14.2871Z" fill="#00A7AC"/>
<path d="M47.3197 15.791H42.7549C42.3096 15.791 41.9756 15.4688 41.9756 15.0391V11.4941C41.9756 11.0645 42.3096 10.7422 42.7549 10.7422H47.3197C47.7651 10.7422 48.0991 11.0645 48.0991 11.4941V15.0391C48.0991 15.4688 47.7651 15.791 47.3197 15.791ZM43.5343 14.2871H46.5404V12.2461H43.5343V14.2871Z" fill="#00A7AC"/>
<path d="M29.9486 22.4512H25.3838C24.9385 22.4512 24.6045 22.1289 24.6045 21.6992V18.1543C24.6045 17.7246 24.9385 17.4023 25.3838 17.4023H29.9486C30.394 17.4023 30.728 17.7246 30.728 18.1543V21.6992C30.728 22.1289 30.394 22.4512 29.9486 22.4512ZM26.1632 20.9473H29.1693V18.9062H26.1632V20.9473Z" fill="#00A7AC"/>
<path d="M38.6332 22.4512H34.0684C33.6231 22.4512 33.2891 22.1289 33.2891 21.6992V18.1543C33.2891 17.7246 33.6231 17.4023 34.0684 17.4023H38.6332C39.0785 17.4023 39.4125 17.7246 39.4125 18.1543V21.6992C39.4125 22.1289 39.0785 22.4512 38.6332 22.4512ZM34.8478 20.9473H37.8538V18.9062H34.8478V20.9473Z" fill="#00A7AC"/>
<path d="M47.3197 22.4512H42.7549C42.3096 22.4512 41.9756 22.1289 41.9756 21.6992V18.1543C41.9756 17.7246 42.3096 17.4023 42.7549 17.4023H47.3197C47.7651 17.4023 48.0991 17.7246 48.0991 18.1543V21.6992C48.0991 22.1289 47.7651 22.4512 47.3197 22.4512ZM43.5343 20.9473H46.5404V18.9062H43.5343V20.9473Z" fill="#00A7AC"/>
<path d="M29.9486 29.1113H25.3838C24.9385 29.1113 24.6045 28.7891 24.6045 28.3594V24.8145C24.6045 24.3848 24.9385 24.0625 25.3838 24.0625H29.9486C30.394 24.0625 30.728 24.3848 30.728 24.8145V28.3594C30.728 28.7891 30.394 29.1113 29.9486 29.1113ZM26.1632 27.6074H29.1693V25.5664H26.1632V27.6074Z" fill="#00A7AC"/>
<path d="M38.6332 29.1113H34.0684C33.6231 29.1113 33.2891 28.7891 33.2891 28.3594V24.8145C33.2891 24.3848 33.6231 24.0625 34.0684 24.0625H38.6332C39.0785 24.0625 39.4125 24.3848 39.4125 24.8145V28.3594C39.4125 28.7891 39.0785 29.1113 38.6332 29.1113ZM34.8478 27.6074H37.8538V25.5664H34.8478V27.6074Z" fill="#00A7AC"/>
<path d="M47.3197 29.1113H42.7549C42.3096 29.1113 41.9756 28.7891 41.9756 28.3594V24.8145C41.9756 24.3848 42.3096 24.0625 42.7549 24.0625H47.3197C47.7651 24.0625 48.0991 24.3848 48.0991 24.8145V28.3594C48.0991 28.7891 47.7651 29.1113 47.3197 29.1113ZM43.5343 27.6074H46.5404V25.5664H43.5343V27.6074Z" fill="#00A7AC"/>
<path d="M3.45025 51.0254C3.00491 51.0254 2.6709 50.7031 2.6709 50.2734V43.5059C2.6709 43.0762 3.00491 42.7539 3.45025 42.7539C3.89559 42.7539 4.2296 43.0762 4.2296 43.5059V50.2734C4.2296 50.7031 3.89559 51.0254 3.45025 51.0254ZM3.45025 32.334C3.00491 32.334 2.6709 32.0117 2.6709 31.582V10.8496C2.6709 10.4199 3.00491 10.0977 3.45025 10.0977H21.1527C21.598 10.0977 21.932 10.4199 21.932 10.8496C21.932 11.2793 21.598 11.6016 21.1527 11.6016H4.2296V31.582C4.2296 32.0117 3.89559 32.334 3.45025 32.334Z" fill="#00A7AC"/>
<path d="M17.5907 18.7988H6.9024C6.45705 18.7988 6.12305 18.4766 6.12305 18.0469V14.0723C6.12305 13.6426 6.45705 13.3203 6.9024 13.3203H17.5907C18.036 13.3203 18.37 13.6426 18.37 14.0723V18.0469C18.37 18.4766 18.036 18.7988 17.5907 18.7988ZM7.68175 17.2949H16.8113V14.8242H7.68175V17.2949Z" fill="#00A7AC"/>
<path d="M17.5907 26.2109H6.9024C6.45705 26.2109 6.12305 25.8887 6.12305 25.459V21.4844C6.12305 21.0547 6.45705 20.7324 6.9024 20.7324H17.5907C18.036 20.7324 18.37 21.0547 18.37 21.4844V25.459C18.37 25.8887 18.036 26.2109 17.5907 26.2109ZM7.68175 24.707H16.8113V22.2363H7.68175V24.707Z" fill="#00A7AC"/>
</svg>
