<svg width="36" height="45" viewBox="0 0 36 45" fill="none" xmlns="http://www.w3.org/2000/svg">
<path d="M26.0622 8.16622H9.75939C9.35696 8.16622 9.0332 7.84705 9.0332 7.45032V3.46807C9.0332 2.2898 10.0045 1.33228 11.1997 1.33228H13.5688C13.9713 1.33228 14.295 1.65145 14.295 2.04818C14.295 2.44492 13.9713 2.76409 13.5688 2.76409H11.1997C10.8063 2.76409 10.4856 3.08029 10.4856 3.46807V6.73142H25.336V3.46807C25.336 3.08029 25.0153 2.76409 24.6219 2.76409H22.2528C21.8503 2.76409 21.5266 2.44492 21.5266 2.04818C21.5266 1.65145 21.8503 1.33228 22.2528 1.33228H24.6219C25.8171 1.33228 26.7884 2.2898 26.7884 3.46807V7.44733C26.7884 7.84407 26.4646 8.16622 26.0622 8.16622Z" fill="black"/>
<path d="M33.0508 44.9998H2.76895C1.64337 44.9998 0.726562 44.096 0.726562 42.9864V5.93805C0.726562 4.8284 1.64337 3.92456 2.76895 3.92456H9.75847C10.1609 3.92456 10.4847 4.24374 10.4847 4.64047C10.4847 5.0372 10.1609 5.35638 9.75847 5.35638H2.76895C2.44217 5.35638 2.17893 5.61888 2.17893 5.93805V42.9864C2.17893 43.3085 2.4452 43.568 2.76895 43.568H33.0478C33.3746 43.568 33.6378 43.3055 33.6378 42.9864V5.93805C33.6378 5.6159 33.3716 5.35638 33.0478 5.35638H26.0583C25.6559 5.35638 25.3321 5.0372 25.3321 4.64047C25.3321 4.24374 25.6559 3.92456 26.0583 3.92456H33.0478C34.1734 3.92456 35.0902 4.8284 35.0902 5.93805V42.9864C35.0932 44.096 34.1764 44.9998 33.0508 44.9998Z" fill="black"/>
<path d="M22.2529 4.45849H13.569C13.1665 4.45849 12.8428 4.13931 12.8428 3.74258V0.494141C12.8428 -0.230717 13.4388 -0.818359 14.1741 -0.818359H21.6478C22.383 -0.818359 22.9791 -0.230717 22.9791 0.494141V3.74258C22.9791 4.13931 22.6523 4.45849 22.2529 4.45849ZM14.2951 3.02667H21.5267V0.613459H14.2951V3.02667Z" fill="black"/>
<path d="M29.9958 29.1096H12.401C11.9986 29.1096 11.6748 28.7904 11.6748 28.3936C11.6748 27.9969 11.9986 27.6777 12.401 27.6777H29.9958C30.3982 27.6777 30.722 27.9969 30.722 28.3936C30.722 28.7904 30.3952 29.1096 29.9958 29.1096Z" fill="black"/>
<path d="M6.88535 29.7118C6.70078 29.7118 6.51318 29.6432 6.37097 29.503L5.31195 28.459C5.02753 28.1786 5.02753 27.7252 5.31195 27.4477C5.59637 27.1703 6.05629 27.1673 6.33768 27.4477L6.88232 27.9847L8.82184 26.0726C9.10626 25.7922 9.56618 25.7922 9.84757 26.0726C10.132 26.353 10.132 26.8064 9.84757 27.0838L7.3967 29.5C7.25752 29.6432 7.06992 29.7118 6.88535 29.7118Z" fill="black"/>
<path d="M29.9958 34.9618H12.401C11.9986 34.9618 11.6748 34.6427 11.6748 34.2459C11.6748 33.8492 11.9986 33.53 12.401 33.53H29.9958C30.3982 33.53 30.722 33.8492 30.722 34.2459C30.722 34.6427 30.3952 34.9618 29.9958 34.9618Z" fill="black"/>
<path d="M6.88535 35.5673C6.6917 35.5673 6.50713 35.4927 6.37097 35.3585L5.31195 34.3144C5.02753 34.034 5.02753 33.5806 5.31195 33.3032C5.59637 33.0258 6.05629 33.0228 6.33768 33.3032L6.88232 33.8401L8.81881 31.9281C9.10323 31.6477 9.56315 31.6477 9.84455 31.9281C10.129 32.2085 10.129 32.6619 9.84455 32.9393L7.39368 35.3555C7.26357 35.4897 7.079 35.5673 6.88535 35.5673Z" fill="black"/>
<path d="M29.9958 40.8146H12.401C11.9986 40.8146 11.6748 40.4955 11.6748 40.0987C11.6748 39.702 11.9986 39.3828 12.401 39.3828H29.9958C30.3982 39.3828 30.722 39.702 30.722 40.0987C30.722 40.4955 30.3952 40.8146 29.9958 40.8146Z" fill="black"/>
<path d="M6.88535 41.42C6.70078 41.42 6.51318 41.3514 6.37097 41.2112L5.31195 40.1672C5.02753 39.8868 5.02753 39.4334 5.31195 39.1559C5.59637 38.8785 6.05629 38.8755 6.33768 39.1559L6.88232 39.6929L8.81881 37.7838C9.10323 37.5034 9.56315 37.5034 9.84455 37.7838C10.129 38.0642 10.129 38.5176 9.84455 38.795L7.39368 41.2112C7.25752 41.3514 7.06992 41.42 6.88535 41.42Z" fill="black"/>
<path d="M22.7658 22.3595C22.4662 22.3595 22.1879 22.1776 22.082 21.8852C21.4829 20.2327 19.8853 19.1201 18.1031 19.1201H17.7188C15.9366 19.1201 14.339 20.2297 13.7399 21.8852C13.6038 22.2581 13.1892 22.452 12.811 22.3178C12.4328 22.1835 12.2361 21.7749 12.3723 21.402C13.1771 19.1797 15.3254 17.6882 17.7188 17.6882H18.1031C20.4965 17.6882 22.6447 19.1797 23.4496 21.402C23.5858 21.7749 23.3861 22.1835 23.0109 22.3178C22.9292 22.3446 22.8475 22.3595 22.7658 22.3595Z" fill="black"/>
<path d="M17.9103 19.12C16.0071 19.12 14.4609 17.5927 14.4609 15.7194C14.4609 13.8461 16.0101 12.3188 17.9103 12.3188C19.8135 12.3188 21.3627 13.8461 21.3627 15.7194C21.3627 17.5927 19.8135 19.12 17.9103 19.12ZM17.9103 13.7477C16.8089 13.7477 15.9133 14.6306 15.9133 15.7164C15.9133 16.8022 16.8089 17.6852 17.9103 17.6852C19.0117 17.6852 19.9103 16.8022 19.9103 15.7164C19.9103 14.6306 19.0117 13.7477 17.9103 13.7477Z" fill="black"/>
<path d="M17.9102 24.4474C15.9465 24.4474 14.1008 23.6927 12.712 22.3235C11.3231 20.9543 10.5576 19.1347 10.5576 17.1988C10.5576 15.2628 11.3231 13.4432 12.712 12.0741C14.1008 10.7049 15.9465 9.9502 17.9102 9.9502C19.874 9.9502 21.7197 10.7049 23.1085 12.0741C24.4973 13.4432 25.2628 15.2628 25.2628 17.1988C25.2628 19.1347 24.4973 20.9543 23.1085 22.3235C21.7197 23.6927 19.874 24.4474 17.9102 24.4474ZM17.9102 11.382C14.6575 11.382 12.01 13.9921 12.01 17.1988C12.01 20.4055 14.6575 23.0155 17.9102 23.0155C21.1629 23.0155 23.8105 20.4055 23.8105 17.1988C23.8105 13.9921 21.1629 11.382 17.9102 11.382Z" fill="black"/>
</svg>
