<svg width="86" height="48" viewBox="0 0 86 48" fill="none" xmlns="http://www.w3.org/2000/svg">
<path fill-rule="evenodd" clip-rule="evenodd" d="M83.4894 6.73229C84.9135 6.50022 86 5.27208 86 3.79188C86 2.14614 84.6569 0.812012 83 0.812012C81.3431 0.812012 80 2.14614 80 3.79188C80 5.26465 81.0757 6.48787 82.4892 6.72872C81.9934 28.5134 64.4952 46.0034 43 46.0034C21.8305 46.0034 4.53778 29.0395 3.54501 7.71605C4.94166 7.46144 6 6.2461 6 4.78523C6 3.1395 4.65685 1.80537 3 1.80537C1.34315 1.80537 0 3.1395 0 4.78523C0 6.2772 1.10388 7.51307 2.54463 7.73099C3.5459 29.5846 21.2675 47.0034 43 47.0034C65.0626 47.0034 82.9915 29.0515 83.4894 6.73229Z" fill="#00A7AC"/>
</svg>
