<svg width="40" height="40" viewBox="0 0 40 40" fill="none" xmlns="http://www.w3.org/2000/svg">
<path d="M25.5779 20.0098L40 17.7213L25.431 18.7433L38.9324 13.1932L25 17.5403L36.856 9.02689L24.2948 16.4694L33.8688 5.45721L23.3692 15.5892L30.1371 2.66993L22.2625 14.9487L25.8668 0.816626L21.0333 14.577L21.2782 0L19.7551 14.4988L16.6259 0.259169L18.4966 14.7188L12.1596 1.58435L17.3164 15.2225L8.11949 3.89731L16.288 15.9853L4.72576 7.08068L15.4652 16.9633L2.15475 10.9633L14.8874 18.1027L0.553379 15.3301L14.5886 19.3447L0 19.9511L14.5837 20.6259L0.528893 24.5721L14.8776 21.868L2.11068 28.9438L15.4505 23.0122L4.6621 32.8411L16.2684 23.9951L8.04603 36.0391L17.2968 24.7579L12.0715 38.3765L18.4721 25.2665L16.5328 39.7213L19.7307 25.4963L21.1802 40L21.0088 25.423L25.7738 39.2029L22.238 25.0611L30.0539 37.3741L23.3448 24.4205L33.7953 34.6015L24.2801 23.5452L36.8022 31.0465L24.9853 22.4792L38.903 26.8949L25.4261 21.2812L39.9853 22.3716L25.5779 20.0098Z" fill="black"/>
</svg>
