<svg width="45" height="45" viewBox="0 0 45 45" fill="none" xmlns="http://www.w3.org/2000/svg">
<path d="M41.2499 13.5H28.5V2.25C28.5 1.0074 27.4926 0 26.25 0H18.75C17.5074 0 16.5 1.0074 16.5 2.25V13.5H3.75002C1.67994 13.5024 0.00246093 15.1799 0 17.25V41.25C0.00246093 43.32 1.67994 44.9975 3.75002 44.9999H41.25C43.32 44.9975 44.9975 43.32 45 41.2499V17.25C44.9975 15.1799 43.32 13.5024 41.2499 13.5ZM18 2.25C18 1.83577 18.3357 1.50003 18.7499 1.50003H26.2499C26.6641 1.50003 26.9999 1.83586 26.9999 2.25V16.4999H18V2.25ZM16.4999 15V16.5C16.4999 17.3285 17.1715 18.0001 18 18.0001H27C27.8284 18.0001 28.5 17.3285 28.5 16.5V15H30V18.75C30 19.1643 29.6643 19.5 29.25 19.5H15.75C15.3357 19.5 15 19.1642 15 18.75V15H16.4999ZM43.4999 41.2499C43.4999 42.4925 42.4925 43.4999 41.2499 43.4999H3.75002C2.50743 43.4999 1.50003 42.4925 1.50003 41.2499V17.25C1.50003 16.0074 2.50743 15 3.75002 15H13.5V18.75C13.5 19.9926 14.5074 21 15.75 21H29.2499C30.4925 21 31.4999 19.9926 31.4999 18.75V15H41.2499C42.4925 15 43.4999 16.0074 43.4999 17.25V41.2499Z" fill="black"/>
<path d="M21.7501 22.5H5.25003C4.42157 22.5 3.75 23.1716 3.75 24V39.75C3.75 40.5785 4.42157 41.25 5.25003 41.25H21.75C22.5784 41.25 23.25 40.5785 23.25 39.75V24C23.25 23.1716 22.5784 22.5 21.7501 22.5ZM8.25008 39.75V39C8.25008 37.3432 9.59322 36.0001 11.25 36.0001H15.75C17.4069 36.0001 18.75 37.3432 18.75 39V39.75H8.25008ZM13.5 34.4999C11.429 34.4999 9.75002 32.821 9.75002 30.7499C9.75002 28.6789 11.429 26.9999 13.5 26.9999C15.5711 26.9999 17.2501 28.6789 17.2501 30.7499C17.2475 32.82 15.57 34.4975 13.5 34.4999ZM21.7501 39.75H20.25V39C20.2465 36.9887 18.9103 35.2235 16.9755 34.6741C18.6115 33.2291 19.1827 30.9226 18.4102 28.8812C17.6377 26.8398 15.6827 25.4892 13.5 25.4892C11.3172 25.4892 9.36225 26.8398 8.58969 28.8812C7.81722 30.9226 8.38842 33.2291 10.0244 34.6741C8.08968 35.2235 6.75348 36.9888 6.74988 39V39.75H5.25003V24H21.75L21.7501 39.75Z" fill="black"/>
<path d="M40.4999 24H26.25C25.8357 24 25.5 24.3357 25.5 24.75C25.5 25.1642 25.8357 25.4999 26.25 25.4999H40.4999C40.9141 25.4999 41.2499 25.1641 41.2499 24.75C41.2499 24.3358 40.9141 24 40.4999 24Z" fill="black"/>
<path d="M26.25 30.7499H30C30.4142 30.7499 30.75 30.4141 30.75 30C30.75 29.5858 30.4141 29.25 30 29.25H26.25C25.8357 29.25 25.5 29.5857 25.5 30C25.5 30.4142 25.8357 30.7499 26.25 30.7499Z" fill="black"/>
<path d="M26.25 33.7499H33.7499C34.1642 33.7499 34.4999 33.4141 34.4999 33C34.4999 32.5857 34.1642 32.25 33.7499 32.25H26.25C25.8357 32.25 25.5 32.5858 25.5 33C25.4999 33.4142 25.8357 33.7499 26.25 33.7499Z" fill="black"/>
<path d="M26.25 36.7499H28.5C28.9142 36.7499 29.2499 36.4141 29.2499 36C29.2499 35.5857 28.9142 35.25 28.5 35.25H26.25C25.8357 35.25 25.5 35.5858 25.5 36C25.4999 36.4142 25.8357 36.7499 26.25 36.7499Z" fill="black"/>
<path d="M35.9999 38.25H26.25C25.8357 38.25 25.5 38.5858 25.5 39C25.5 39.4142 25.8357 39.7499 26.25 39.7499H35.9999C36.4142 39.7499 36.7499 39.4141 36.7499 39C36.7499 38.5858 36.4142 38.25 35.9999 38.25Z" fill="black"/>
</svg>
