<svg width="45" height="45" viewBox="0 0 45 45" fill="none" xmlns="http://www.w3.org/2000/svg">
<path d="M42.7667 24.7069L36.2903 22.0065V20.0678C37.1818 19.5559 37.9537 18.8595 38.5545 18.0252C39.1554 17.1909 39.5712 16.2378 39.7742 15.2298H39.9194C40.4968 15.2377 41.0538 15.0157 41.4677 14.6128C41.8817 14.2099 42.1186 13.659 42.1265 13.0812C42.1344 12.5035 41.9126 11.9463 41.5098 11.5322C41.1071 11.1181 40.5564 10.881 39.9789 10.8732L40.6902 9.22344C41.2979 7.81375 41.329 6.22186 40.7767 4.78951C40.2244 3.35715 39.1328 2.19852 37.7361 1.56233L35.7097 0.640178C34.5106 0.10759 33.192 -0.0982428 31.8878 0.043561C30.5835 0.185365 29.3399 0.66976 28.2832 1.4476L27.1539 2.30005C26.0008 2.59715 25.0103 3.33531 24.3958 4.35565C24.0564 4.91929 23.8446 5.5505 23.7754 6.20485C23.7062 6.8592 23.7812 7.52078 23.9952 8.143C22.8994 7.92373 21.7686 7.95127 20.6848 8.2236C20.995 6.90618 20.8385 5.52186 20.2418 4.30708C19.6452 3.0923 18.6455 2.12241 17.4136 1.56306L15.3871 0.640178C14.188 0.10759 12.8695 -0.0982428 11.5652 0.043561C10.2609 0.185365 9.01737 0.66976 7.96065 1.4476L6.83129 2.30005C6.17718 2.46726 5.5688 2.77888 5.0508 3.21204C4.5328 3.6452 4.11833 4.1889 3.83781 4.80323C3.55729 5.41757 3.41784 6.08695 3.42969 6.76225C3.44154 7.43755 3.60439 8.10162 3.90629 8.70573L4.99065 10.8732C4.41316 10.8851 3.86407 11.126 3.46416 11.543C3.06426 11.9599 2.8463 12.5188 2.85823 13.0965C2.87017 13.6742 3.11102 14.2235 3.5278 14.6236C3.94459 15.0237 4.50316 15.2417 5.08065 15.2298H5.22581C5.42964 16.2373 5.84579 17.1898 6.44653 18.0238C7.04727 18.8578 7.81879 19.5541 8.70968 20.0663V22.0065L2.23331 24.7069C1.57126 24.9815 1.00559 25.4465 0.60801 26.0431C0.210426 26.6396 -0.00118147 27.3408 4.96175e-06 28.0578V37.739C4.96175e-06 37.9315 0.0764736 38.1162 0.212589 38.2524C0.348704 38.3886 0.533315 38.4651 0.725811 38.4651H5.80646V44.2739C5.80646 44.4665 5.88292 44.6512 6.01904 44.7873C6.15515 44.9235 6.33977 45 6.53226 45H38.4677C38.6602 45 38.8448 44.9235 38.981 44.7873C39.1171 44.6512 39.1935 44.4665 39.1935 44.2739V38.4651H44.2742C44.4667 38.4651 44.6513 38.3886 44.7874 38.2524C44.9235 38.1162 45 37.9315 45 37.739V28.0578C45.0012 27.3408 44.7896 26.6396 44.392 26.0431C43.9944 25.4465 43.4287 24.9815 42.7667 24.7069ZM24.9481 9.94882L26.9739 10.8732C28.0246 11.352 28.8458 12.2239 29.2612 13.3016C29.6765 14.3794 29.653 15.5771 29.1956 16.6377L28.9778 17.1351L28.2339 15.6313C28.1864 15.5355 28.1185 15.4514 28.0348 15.385C27.9511 15.3185 27.8538 15.2714 27.7498 15.2469C27.6458 15.2224 27.5377 15.2212 27.4332 15.2433C27.3287 15.2655 27.2303 15.3104 27.1452 15.375L25.9839 16.2463C24.9788 17.0004 23.7563 17.4081 22.5 17.4081C21.2437 17.4081 20.0212 17.0004 19.0161 16.2463L17.8548 15.375C17.7701 15.3108 17.6722 15.2662 17.5681 15.2445C17.4641 15.2228 17.3565 15.2244 17.2531 15.2494C17.1495 15.2737 17.0525 15.3205 16.9689 15.3865C16.8854 15.4525 16.8174 15.5361 16.7698 15.6313L15.9677 17.2418L15.3682 16.043C15.1344 15.575 15.0239 15.055 15.0474 14.5322C15.0708 14.0095 15.2274 13.5015 15.5022 13.0563C15.7771 12.6111 16.1611 12.2436 16.6178 11.9886C17.0745 11.7336 17.5888 11.5996 18.1118 11.5993C18.6709 11.5987 19.2215 11.7365 19.7145 12.0004C20.2075 12.2643 20.6276 12.6461 20.9373 13.1117L21.1652 13.4544L22.373 12.6485L22.1451 12.3065C21.5 11.3395 20.5284 10.6374 19.4081 10.3286C20.2314 9.82027 21.166 9.52007 22.1312 9.45391C23.0964 9.38775 24.0632 9.55761 24.9481 9.94882ZM29.7581 20.3125H30.4839C30.6764 20.3125 30.861 20.389 30.9971 20.5252C31.1332 20.6613 31.2097 20.846 31.2097 21.0386C31.2097 21.2312 31.1332 21.4159 30.9971 21.552C30.861 21.6882 30.6764 21.7647 30.4839 21.7647H29.7581V20.3125ZM20.3226 28.691C21.7399 29.1373 23.2601 29.1373 24.6774 28.691V30.1773L22.5 32.3556L20.3226 30.1773V28.691ZM22.5 27.5735C20.9606 27.5718 19.4847 26.9592 18.3961 25.8702C17.3076 24.7813 16.6953 23.3048 16.6936 21.7647V19.0316L17.6792 17.0588L18.1452 17.4081C19.4015 18.3507 20.9296 18.8603 22.5 18.8603C24.0704 18.8603 25.5985 18.3507 26.8548 17.4081L27.3208 17.0588L28.3065 19.0316V21.7647C28.3047 23.3048 27.6924 24.7813 26.6039 25.8702C25.5153 26.9592 24.0394 27.5718 22.5 27.5735ZM15.2419 21.7647H14.5161C14.3236 21.7647 14.139 21.6882 14.0029 21.552C13.8668 21.4159 13.7903 21.2312 13.7903 21.0386C13.7903 20.846 13.8668 20.6613 14.0029 20.5252C14.139 20.389 14.3236 20.3125 14.5161 20.3125H15.2419V21.7647ZM5.80646 36.3158V37.0129H1.45162V28.0578C1.45135 27.6279 1.5785 27.2076 1.81698 26.85C2.05547 26.4924 2.39458 26.2135 2.79146 26.0487L9.71492 23.1632C9.84747 23.1079 9.96064 23.0144 10.0401 22.8948C10.1196 22.7751 10.1617 22.6345 10.1613 22.4908V19.6329C10.1575 19.4953 10.1163 19.3614 10.0423 19.2454C9.9683 19.1294 9.86417 19.0357 9.74105 18.9743C8.87338 18.5425 8.12807 17.8995 7.57361 17.1044C7.01914 16.3093 6.67329 15.3875 6.56783 14.4238C6.54817 14.2461 6.4637 14.082 6.33058 13.9627C6.19746 13.8435 6.02505 13.7776 5.84637 13.7776H5.08065C4.88815 13.7776 4.70354 13.7011 4.56743 13.5649C4.43131 13.4287 4.35484 13.244 4.35484 13.0515C4.35484 12.8589 4.43131 12.6742 4.56743 12.538C4.70354 12.4019 4.88815 12.3254 5.08065 12.3254H5.80646C5.9022 12.3254 5.997 12.3064 6.08539 12.2696C6.17378 12.2328 6.25402 12.1789 6.32148 12.1109C6.38895 12.0429 6.4423 11.9623 6.47848 11.8736C6.51465 11.7849 6.53293 11.69 6.53226 11.5942L6.52718 10.8681C6.5265 10.7571 6.50043 10.6479 6.45097 10.5486L5.20476 8.05587C4.99601 7.63737 4.8856 7.17668 4.88196 6.70898C4.87833 6.24128 4.98156 5.77893 5.18378 5.35723C5.386 4.93553 5.68186 4.56563 6.04878 4.27577C6.4157 3.98591 6.84396 3.78375 7.30089 3.68473C7.40361 3.66197 7.50033 3.61767 7.58468 3.55476L8.83307 2.61082C9.68017 1.98794 10.6768 1.60012 11.722 1.48663C12.7671 1.37315 13.8237 1.53803 14.7847 1.96459L16.8126 2.88602C17.8633 3.36487 18.6845 4.23675 19.0999 5.3145C19.5152 6.39226 19.4917 7.58997 19.0343 8.65055L18.9167 8.92284C18.6411 9.0755 18.3761 9.24652 18.1234 9.43474L16.9788 10.2923C16.326 10.46 15.719 10.7719 15.2024 11.2049C14.6858 11.638 14.2727 12.1812 13.9933 12.7948C13.7139 13.4084 13.5754 14.0768 13.5878 14.7509C13.6003 15.4251 13.7635 16.0879 14.0654 16.6907L15.1512 18.8603H14.5161C13.9386 18.8603 13.3848 19.0898 12.9765 19.4983C12.5681 19.9068 12.3387 20.4609 12.3387 21.0386C12.3387 21.6163 12.5681 22.1704 12.9765 22.5789C13.3848 22.9874 13.9386 23.2169 14.5161 23.2169H15.3871C15.595 24.2216 16.0128 25.171 16.6132 26.0027C17.2136 26.8345 17.983 27.5299 18.871 28.0433V29.9261L8.46436 32.8182C7.701 33.032 7.02831 33.4893 6.54856 34.1207C6.06881 34.752 5.80824 35.5228 5.80646 36.3158ZM37.7419 43.5478H33.3871V37.739H31.9355V43.5478H13.0645V37.739H11.6129V43.5478H7.25807V36.3158C7.25913 35.8397 7.41572 35.377 7.70398 34.9982C7.99225 34.6193 8.39639 34.3451 8.85484 34.2174L19.3856 31.2912L21.989 33.8957C22.1251 34.0318 22.3097 34.1083 22.5022 34.1083C22.6946 34.1083 22.8792 34.0318 23.0153 33.8957L25.6188 31.2912L36.1452 34.2174C36.6036 34.3451 37.0078 34.6193 37.296 34.9982C37.5843 35.377 37.7409 35.8397 37.7419 36.3158V43.5478ZM43.5484 37.0129H39.1935V36.3158C39.1918 35.5228 38.9312 34.752 38.4514 34.1207C37.9717 33.4893 37.299 33.032 36.5356 32.8182L26.129 29.9261V28.0433C27.017 27.5299 27.7864 26.8345 28.3868 26.0027C28.9872 25.171 29.405 24.2216 29.6129 23.2169H30.4839C31.0614 23.2169 31.6152 22.9874 32.0235 22.5789C32.4319 22.1704 32.6613 21.6163 32.6613 21.0386C32.6613 20.4609 32.4319 19.9068 32.0235 19.4983C31.6152 19.0898 31.0614 18.8603 30.4839 18.8603H29.8176L30.5289 17.2113C31.1366 15.8016 31.1677 14.2097 30.6154 12.7774C30.0631 11.345 28.9715 10.1864 27.5748 9.55019L25.891 8.7827L25.5281 8.0566C25.3192 7.63811 25.2086 7.17741 25.2049 6.70966C25.2011 6.24192 25.3043 5.7795 25.5064 5.35771C25.7086 4.93593 26.0044 4.56594 26.3713 4.27599C26.7382 3.98605 27.1665 3.78381 27.6235 3.68473C27.7262 3.66197 27.8229 3.61767 27.9073 3.55476L29.1556 2.61082C30.0027 1.98794 30.9994 1.60012 32.0445 1.48663C33.0897 1.37315 34.1463 1.53803 35.1073 1.96459L37.1352 2.88602C38.1859 3.36487 39.0071 4.23675 39.4224 5.3145C39.8378 6.39226 39.8143 7.58997 39.3568 8.65055L38.5222 10.5827C38.4826 10.6744 38.4623 10.7733 38.4627 10.8732L38.4677 11.5993C38.4677 11.7918 38.5442 11.9765 38.6803 12.1127C38.8164 12.2489 39.001 12.3254 39.1935 12.3254H39.9194C40.1118 12.3254 40.2965 12.4019 40.4326 12.538C40.5687 12.6742 40.6452 12.8589 40.6452 13.0515C40.6452 13.244 40.5687 13.4287 40.4326 13.5649C40.2965 13.7011 40.1118 13.7776 39.9194 13.7776H39.1536C38.9749 13.7776 38.8025 13.8435 38.6694 13.9627C38.5363 14.082 38.4518 14.2461 38.4322 14.4238C38.3263 15.3912 37.9782 16.3162 37.4199 17.1132C36.8617 17.9101 36.1114 18.5533 35.2386 18.983C35.1177 19.0431 35.0159 19.1358 34.9448 19.2506C34.8736 19.3654 34.8359 19.4978 34.8358 19.6329V22.4908C34.8358 22.6341 34.8782 22.7742 34.9576 22.8935C35.037 23.0127 35.15 23.1058 35.2822 23.161L42.2085 26.0487C42.6054 26.2135 42.9445 26.4924 43.183 26.85C43.4215 27.2076 43.5486 27.6279 43.5484 28.0578V37.0129Z" fill="black"/>
</svg>
