<svg width="28" height="28" viewBox="0 0 28 28" fill="none" xmlns="http://www.w3.org/2000/svg">
<path d="M24.5929 15.7577V14.6788C24.5929 13.9677 23.9453 13.3891 23.1492 13.3891H22.8067V6.35884C22.8067 6.1326 22.6013 5.94918 22.3481 5.94918C22.0948 5.94918 21.8895 6.1326 21.8895 6.35884V13.389H20.2353L19.9094 12.4999C19.7146 11.9686 19.1632 11.6116 18.5374 11.6116H12.1323C11.5064 11.6116 10.955 11.9686 10.7603 12.4999L10.6614 12.7696L10.5625 12.4999C10.3677 11.9686 9.81636 11.6116 9.19047 11.6116H2.70343V0.937016C2.70343 0.872156 2.7625 0.819383 2.83517 0.819383H21.7578C21.8304 0.819383 21.8895 0.872156 21.8895 0.937016V4.46152C21.8895 4.68776 22.0948 4.87118 22.3481 4.87118C22.6013 4.87118 22.8067 4.68776 22.8067 4.46152V0.937016C22.8067 0.420383 22.3362 0 21.7578 0H2.83511C2.25673 0 1.78621 0.420383 1.78621 0.937016V11.6116H1.44376C0.647682 11.6116 0 12.1902 0 12.9014V21.3107C0 21.537 0.205324 21.7204 0.458581 21.7204C0.711838 21.7204 0.917162 21.537 0.917162 21.3107V12.9013C0.917162 12.6419 1.15334 12.431 1.44369 12.431H9.19035C9.41863 12.431 9.61973 12.5612 9.6908 12.755L10.1202 13.9263C10.1819 14.0946 10.3577 14.2084 10.556 14.2084H23.1491C23.4395 14.2084 23.6757 14.4195 23.6757 14.6788V15.6661C23.6688 15.6661 23.662 15.6656 23.6551 15.6656C21.2593 15.6656 19.3103 17.4068 19.3103 19.547C19.3103 21.6871 21.2593 23.4283 23.6551 23.4283C23.662 23.4283 23.6688 23.4279 23.6757 23.4278V26.7102C23.6757 26.9696 23.4395 27.1806 23.1491 27.1806H1.44376C1.1534 27.1806 0.917223 26.9696 0.917223 26.7102V23.2386C0.917223 23.0123 0.711899 22.8289 0.458642 22.8289C0.205385 22.8289 6.11839e-05 23.0123 6.11839e-05 23.2386V26.7102C6.11839e-05 27.4214 0.647743 28 1.44382 28H23.1492C23.9453 28 24.593 27.4214 24.593 26.7102V23.3362C26.5393 22.952 28 21.3994 28 19.547C28 17.6945 26.5392 16.1419 24.5929 15.7577ZM11.3994 13.3891L11.6319 12.755C11.703 12.5612 11.904 12.431 12.1323 12.431H18.5373C18.7656 12.431 18.9667 12.5612 19.0377 12.755L19.2702 13.3891H11.3994ZM23.6551 22.6089C21.7652 22.6089 20.2276 21.2353 20.2276 19.547C20.2276 17.8586 21.7652 16.485 23.6551 16.485C25.5451 16.485 27.0827 17.8586 27.0827 19.547C27.0827 21.2353 25.5451 22.6089 23.6551 22.6089Z" fill="#00A7AC"/>
<path d="M26.2611 18.7759C26.1715 18.5293 25.9374 18.3529 25.6501 18.3157L24.7407 18.1976L24.334 17.4614C24.2055 17.229 23.9455 17.0845 23.6552 17.0845C23.365 17.0845 23.105 17.2289 22.9765 17.4614L22.5698 18.1976L21.6603 18.3157C21.3732 18.3529 21.139 18.5293 21.0493 18.7758C20.9596 19.0224 21.033 19.288 21.2409 19.4689L21.899 20.042L21.7436 20.8512C21.6946 21.1067 21.81 21.3602 22.0448 21.5126C22.1774 21.5987 22.3327 21.6424 22.4889 21.6424C22.6092 21.6424 22.7301 21.6165 22.8418 21.564L23.6553 21.1819L24.4687 21.5639C24.7256 21.6846 25.031 21.6649 25.2658 21.5125C25.5006 21.3602 25.616 21.1067 25.5669 20.8512L25.4116 20.042L26.0696 19.469C26.2774 19.2881 26.3508 19.0225 26.2611 18.7759ZM24.7109 19.5079C24.5325 19.6633 24.4512 19.887 24.4933 20.1063L24.608 20.7037L24.0074 20.4217C23.7869 20.3181 23.5236 20.3181 23.3031 20.4217L22.7025 20.7037L22.8172 20.1063C22.8593 19.887 22.778 19.6633 22.5995 19.5078L22.1137 19.0848L22.7852 18.9976C23.0317 18.9656 23.2448 18.8273 23.355 18.6277L23.6553 18.0842L23.9555 18.6277C24.0658 18.8274 24.2788 18.9656 24.5254 18.9977L25.1968 19.0848L24.7109 19.5079Z" fill="#00A7AC"/>
<path d="M19.9362 7.39624H4.65682C4.40357 7.39624 4.19824 7.57966 4.19824 7.8059C4.19824 8.03215 4.40357 8.21557 4.65682 8.21557H19.9362C20.1895 8.21557 20.3948 8.03215 20.3948 7.8059C20.3948 7.57966 20.1895 7.39624 19.9362 7.39624Z" fill="#00A7AC"/>
<path d="M19.9362 9.37964H4.65682C4.40357 9.37964 4.19824 9.56306 4.19824 9.7893C4.19824 10.0155 4.40357 10.199 4.65682 10.199H19.9362C20.1895 10.199 20.3948 10.0155 20.3948 9.7893C20.3948 9.56306 20.1895 9.37964 19.9362 9.37964Z" fill="#00A7AC"/>
<path d="M5.38624 6.12415C5.55214 6.12415 5.72845 6.08893 5.90684 6.0005C6.26918 5.8208 6.49434 5.47566 6.49434 5.0999V2.6592C6.49434 2.43307 6.28914 2.24976 6.03601 2.24976C5.78287 2.24976 5.57767 2.43307 5.57767 2.6592V5.0999C5.57767 5.17838 5.53329 5.24909 5.46191 5.28453C5.27544 5.37706 5.10342 5.13567 4.96464 5.06944C4.78392 4.9832 4.57652 4.99655 4.42715 5.12763C4.24704 5.28568 4.24392 5.5443 4.42047 5.70579C4.68065 5.94368 5.00082 6.12415 5.38624 6.12415Z" fill="#00A7AC"/>
<path d="M13.7824 2.24976H12.7894C12.5363 2.24976 12.3311 2.43307 12.3311 2.6592V5.71301C12.3311 5.93914 12.5363 6.12245 12.7894 6.12245H13.9558C14.7158 6.12245 15.3342 5.56841 15.3342 4.88739C15.3342 4.50917 15.1422 4.17038 14.8409 3.9443C14.9583 3.77466 15.0273 3.5756 15.0273 3.36188C15.0273 2.74867 14.4688 2.24976 13.7824 2.24976ZM13.2478 3.0687H13.7824C13.9634 3.0687 14.1107 3.20028 14.1107 3.36194C14.1107 3.52359 13.9634 3.65517 13.7824 3.65517C13.7089 3.65517 13.2478 3.65599 13.2478 3.65599V3.0687ZM13.9558 5.30356H13.2478V4.47543C13.3056 4.47521 13.9558 4.47488 13.9558 4.47488C14.2104 4.47488 14.4176 4.65994 14.4176 4.88744C14.4176 5.11686 14.2105 5.30356 13.9558 5.30356Z" fill="#00A7AC"/>
<path d="M11.6457 4.18608C11.6457 3.11836 10.6733 2.24976 9.47814 2.24976C8.28293 2.24976 7.31055 3.11841 7.31055 4.18608C7.31055 5.25374 8.28293 6.12245 9.47814 6.12245C10.6733 6.12245 11.6457 5.25379 11.6457 4.18608ZM8.22728 4.18608C8.22728 3.56991 8.7884 3.06865 9.47814 3.06865C10.1679 3.06865 10.729 3.56991 10.729 4.18608C10.729 4.80224 10.1679 5.30356 9.47814 5.30356C8.7884 5.30351 8.22728 4.80224 8.22728 4.18608Z" fill="#00A7AC"/>
</svg>
