<svg width="28" height="28" viewBox="0 0 28 28" fill="none" xmlns="http://www.w3.org/2000/svg">
<path d="M5.1811 24.8071C4.93126 24.8071 4.72949 24.6052 4.72949 24.3555V22.1782C4.72949 21.9286 4.93126 21.7266 5.1811 21.7266C5.43072 21.7266 5.6327 21.9286 5.6327 22.1782V24.3555C5.6327 24.6047 5.43028 24.8071 5.1811 24.8071Z" fill="#00A7AC"/>
<path d="M14.6884 25.4714H0.451606C0.201767 25.4714 0 25.2696 0 25.0198V20.5967C0 16.5227 2.49839 12.8778 6.21642 11.5278C6.37033 11.4714 6.54145 11.5036 6.66427 11.6097C7.68987 12.488 8.98383 12.9722 10.3084 12.9722C11.6392 12.9722 12.9371 12.4853 13.9632 11.6006C14.0869 11.4945 14.2595 11.4624 14.4126 11.5184C15.3727 11.8677 16.2673 12.3757 17.0715 13.0291C17.1818 13.118 17.2437 13.254 17.2382 13.3958C17.2334 13.5372 17.1623 13.6686 17.0464 13.7495L16.9917 13.7879L16.7434 13.4337L16.5026 13.7306C15.8437 13.1954 15.1184 12.7685 14.3429 12.4586C13.1883 13.3742 11.7662 13.8759 10.3084 13.8759C8.85725 13.8759 7.43937 13.3777 6.28632 12.4681C3.05606 13.7557 0.903212 16.9893 0.903212 20.5967V24.5682H14.6884V25.4714Z" fill="#00A7AC"/>
<path d="M10.3081 13.8754C6.63462 13.8754 3.64648 10.7629 3.64648 6.93782C3.64648 3.11256 6.63462 0 10.3081 0C13.9814 0 16.9702 3.11212 16.9702 6.93715C16.9702 10.7624 13.9814 13.8754 10.3081 13.8754ZM10.3081 0.903226C7.13276 0.903226 4.5497 3.61026 4.5497 6.93715C4.5497 10.2647 7.13276 12.9717 10.3081 12.9717C13.4832 12.9717 16.067 10.2647 16.067 6.93715C16.067 3.61026 13.4832 0.903226 10.3081 0.903226Z" fill="#00A7AC"/>
<path d="M20.1447 23.2133C19.9564 23.2133 19.7672 23.1963 19.5789 23.1615C18.7502 23.0075 18.0263 22.5297 17.5394 21.8148C17.0554 21.1016 16.8715 20.2471 17.0218 19.4099C17.1731 18.5708 17.6432 17.8369 18.3456 17.3428C19.0505 16.8475 19.896 16.6609 20.7255 16.8131C21.5547 16.9672 22.2782 17.4453 22.7639 18.1602L22.7677 18.1653C23.2469 18.8905 23.4292 19.7433 23.2821 20.5647C23.1306 21.4033 22.6612 22.1372 21.9584 22.6313C21.4133 23.0142 20.7846 23.2133 20.1447 23.2133ZM20.1606 17.664C19.7044 17.664 19.2556 17.8067 18.8653 18.0817C18.3586 18.4376 18.0199 18.966 17.9116 19.5697C17.8031 20.1731 17.9367 20.7901 18.2874 21.3072C18.6369 21.821 19.1544 22.1639 19.7443 22.2737C20.3313 22.3819 20.9341 22.2474 21.4391 21.8924C21.9458 21.5365 22.2845 21.0081 22.3928 20.4048C22.4989 19.8136 22.3648 19.1957 22.0153 18.6652C21.6667 18.1527 21.15 17.8102 20.5606 17.7011C20.427 17.6766 20.2938 17.664 20.1606 17.664Z" fill="#00A7AC"/>
<path d="M20.2588 28.0001C20.2014 28.0001 20.1432 27.9948 20.0854 27.9842L17.4384 27.4938C16.9328 27.3998 16.6084 26.9266 16.7002 26.4163L16.9114 25.2403C16.8821 25.2209 16.8541 25.2011 16.8281 25.1812L16.7941 25.159L15.8172 25.8459C15.6406 25.981 15.3941 26.0419 15.1548 26.0018C14.9076 25.9614 14.6856 25.8192 14.5447 25.6115L13.0192 23.3679C12.886 23.1869 12.8291 22.9457 12.8692 22.7027C12.9094 22.4574 13.0481 22.2356 13.2503 22.0938L14.2064 21.4038C14.1987 21.3668 14.1923 21.3315 14.1866 21.2986C14.1833 21.2819 14.1806 21.2647 14.178 21.247L13.0236 21.0331C12.787 20.9888 12.5742 20.847 12.4406 20.6433C12.3034 20.4338 12.2595 20.1835 12.316 19.9383L12.7956 17.2694C12.8403 17.02 12.9753 16.8063 13.1766 16.667C13.3768 16.5283 13.6216 16.4771 13.8664 16.5223L15.0122 16.7351C15.03 16.7067 15.0485 16.6795 15.0671 16.6542L15.0955 16.6081L14.4141 15.6061C14.2814 15.4259 14.2245 15.1851 14.2637 14.9421C14.3039 14.6969 14.4426 14.4748 14.6443 14.3324L16.8532 12.7797C17.0303 12.6452 17.2772 12.5857 17.5158 12.6241C17.7628 12.6642 17.9851 12.8064 18.126 13.0141L18.8038 14.0109C18.8164 14.0078 18.829 14.0043 18.8413 14.0009C18.8561 13.9965 18.8715 13.9928 18.8872 13.9901C18.9031 13.9871 18.9194 13.9842 18.9357 13.982L19.1474 12.8038C19.193 12.5535 19.328 12.3405 19.5295 12.2009C19.7291 12.0626 19.9734 12.0121 20.2186 12.0569L22.8529 12.5451C23.3587 12.6388 23.6829 13.1123 23.5911 13.6225L23.3794 14.7985C23.4092 14.8179 23.4372 14.8378 23.4634 14.8576L23.4972 14.8799L24.474 14.193C24.6511 14.0583 24.8981 13.9983 25.1367 14.0371C25.3837 14.0772 25.6059 14.2195 25.7468 14.4274L27.2604 16.67C27.3923 16.8489 27.4492 17.0897 27.4099 17.3325C27.3698 17.5777 27.2311 17.8 27.0293 17.9422L26.043 18.635C26.047 18.6531 26.0511 18.6708 26.0556 18.6873C26.0597 18.7019 26.0633 18.7162 26.0655 18.7316C26.0688 18.7493 26.0719 18.7669 26.0745 18.785L27.2284 18.9989C27.6909 19.0849 28.0148 19.5129 27.9994 20.0157C27.9985 20.0377 27.9963 20.0598 27.9921 20.0816L27.5085 22.7728C27.4633 23.0224 27.3283 23.2361 27.1264 23.3757C26.9259 23.5137 26.682 23.5631 26.4368 23.5192L25.2919 23.3064C25.2738 23.3349 25.2553 23.362 25.2368 23.3873L25.2083 23.433L25.8899 24.4355C26.0231 24.6167 26.08 24.8577 26.0399 25.1007C25.9995 25.346 25.8611 25.5678 25.6586 25.7096L23.4507 27.2618C23.2738 27.3967 23.0277 27.4572 22.7882 27.4179C22.5417 27.3773 22.3194 27.2355 22.1781 27.0283L21.5035 26.0355C21.474 26.0415 21.4451 26.047 21.4171 26.0523C21.401 26.0549 21.3851 26.0582 21.3684 26.0604L21.1567 27.2382C21.1119 27.4876 20.977 27.701 20.7754 27.8406C20.6224 27.9454 20.444 28.0001 20.2588 28.0001ZM16.7976 24.1528C16.9083 24.1528 17.0186 24.1935 17.1048 24.2734C17.1509 24.3159 17.2038 24.3479 17.2565 24.3827L17.3599 24.4513C17.4051 24.4848 17.472 24.5303 17.6029 24.5909C17.7895 24.6771 17.8947 24.8785 17.8581 25.0809L17.5895 26.5762L20.2502 27.096L20.5366 25.5821C20.5681 25.4059 20.7 25.2661 20.874 25.2231C20.9668 25.2006 21.0581 25.1883 21.1463 25.1775C21.1831 25.1726 21.2193 25.1684 21.2542 25.1623C21.3088 25.1521 21.4416 25.1274 21.5269 25.0935C21.7247 25.0145 21.9501 25.0835 22.0689 25.2584L22.9256 26.5189L25.1393 24.9693L24.2853 23.6822C24.1689 23.5106 24.1836 23.2817 24.3223 23.1271C24.3645 23.0802 24.396 23.0259 24.4304 22.9719L24.4981 22.8672C24.5309 22.8215 24.5761 22.7523 24.6372 22.6173C24.7221 22.4277 24.923 22.322 25.1316 22.358L26.602 22.6308L27.0957 19.9628C27.0915 19.9167 27.0721 19.8891 27.0635 19.8873L25.5931 19.6146C25.4176 19.5819 25.2776 19.4487 25.2364 19.2745C25.2139 19.181 25.2026 19.0897 25.1918 19.0022C25.1881 18.97 25.1845 18.938 25.1799 18.9078C25.1678 18.8613 25.157 18.8126 25.147 18.7623C25.1362 18.7109 25.1272 18.6571 25.1087 18.6088C25.0324 18.415 25.0992 18.1947 25.269 18.0745L26.5091 17.203L24.9984 14.9335L23.7534 15.8039C23.5786 15.9263 23.3428 15.9104 23.1865 15.7655C23.1406 15.7229 23.0877 15.691 23.0348 15.6561L22.9314 15.5875C22.8862 15.554 22.8189 15.5079 22.6884 15.448C22.5016 15.3626 22.3962 15.1602 22.4328 14.958L22.702 13.4627L20.0541 12.9451L19.7679 14.459C19.7364 14.6343 19.605 14.7745 19.4323 14.8175C19.3388 14.8404 19.2482 14.8528 19.16 14.8636C19.1293 14.8676 19.0991 14.8713 19.0702 14.8757C19.0237 14.8881 18.975 14.8993 18.9258 14.9097C18.8764 14.92 18.825 14.9291 18.7798 14.9472C18.5829 15.029 18.3562 14.9593 18.236 14.7831L17.3793 13.5226L15.1656 15.0718L16.0197 16.3589C16.1365 16.5309 16.1211 16.7605 15.9817 16.9148C15.9401 16.9613 15.909 17.0147 15.875 17.0683L15.8069 17.1741C15.774 17.2196 15.7288 17.2888 15.6677 17.4238C15.5828 17.6134 15.3833 17.719 15.1734 17.6831L13.7028 17.4103L13.202 20.12L14.6602 20.417C14.8355 20.4497 14.9751 20.5824 15.017 20.7557C15.0395 20.8501 15.0514 20.9418 15.0622 21.0303C15.0666 21.0682 15.0713 21.1052 15.077 21.141C15.0865 21.1948 15.1105 21.3324 15.1453 21.4223C15.2208 21.6142 15.1562 21.8325 14.989 21.9529L13.7747 22.8292L15.2924 25.1029L16.5385 24.2341C16.6166 24.1799 16.7074 24.1528 16.7976 24.1528Z" fill="#00A7AC"/>
</svg>
