<svg width="17" height="12" viewBox="0 0 17 12" fill="none" xmlns="http://www.w3.org/2000/svg">
<path d="M12.7392 8.02146L12.9594 7.46124L12.3683 7.34754C10.7848 7.04293 9.63477 5.61747 9.63477 3.97755C9.63477 2.99414 10.0475 2.05151 10.7665 1.39316C11.4856 0.740419 12.4545 0.418783 13.4278 0.517555C15.1598 0.698452 16.5342 2.29475 16.4994 4.19494C16.4486 6.8391 15.5109 8.53432 14.4204 9.62872C13.3182 10.735 12.0296 11.2564 11.2519 11.4865L11.2377 11.4907L11.2238 11.4958C11.2261 11.4949 11.2156 11.5 11.1583 11.5C11.0471 11.5 10.9504 11.4498 10.8865 11.3482L10.8853 11.3463C10.804 11.2184 10.8154 11.0525 10.919 10.9335L10.919 10.9334C11.729 10.0022 12.345 9.0243 12.7392 8.02146Z" stroke="black"/>
<path d="M3.60444 8.02147L3.82467 7.46125L3.23355 7.34754C1.64999 7.04293 0.5 5.61747 0.5 3.97755C0.5 2.99414 0.912732 2.05152 1.63176 1.39318C2.3511 0.74019 3.3199 0.41891 4.28714 0.517518C6.00656 0.698658 7.36454 2.2557 7.36454 4.12496V4.19945C7.31272 6.84102 6.37548 8.53493 5.28566 9.62872C4.18343 10.735 2.89487 11.2564 2.11718 11.4865L2.10297 11.4907L2.08903 11.4958C2.09132 11.4949 2.08085 11.5 2.02362 11.5C1.91229 11.5 1.81563 11.4498 1.75176 11.3482L1.7505 11.3462C1.66921 11.2184 1.68064 11.0525 1.7842 10.9335L1.78424 10.9334C2.59424 10.0022 3.2102 9.0243 3.60444 8.02147Z" stroke="black"/>
</svg>
