<svg width="21" height="28" viewBox="0 0 21 28" fill="none" xmlns="http://www.w3.org/2000/svg">
<path d="M15.4828 5.49051H5.51995C5.27402 5.49051 5.07617 5.29546 5.07617 5.05301V2.61942C5.07617 1.89937 5.66973 1.31421 6.40011 1.31421H7.84794C8.09387 1.31421 8.29172 1.50926 8.29172 1.75171C8.29172 1.99416 8.09387 2.18921 7.84794 2.18921H6.40011C6.15973 2.18921 5.96373 2.38244 5.96373 2.61942V4.61369H15.039V2.61942C15.039 2.38244 14.843 2.18921 14.6026 2.18921H13.1548C12.9089 2.18921 12.711 1.99416 12.711 1.75171C12.711 1.50926 12.9089 1.31421 13.1548 1.31421H14.6026C15.333 1.31421 15.9266 1.89937 15.9266 2.61942V5.05119C15.9266 5.29364 15.7287 5.49051 15.4828 5.49051Z" fill="#00A7AC"/>
<path d="M19.7537 28H1.24813C0.560271 28 0 27.4477 0 26.7695V4.12891C0 3.45078 0.560271 2.89844 1.24813 2.89844H5.5195C5.76543 2.89844 5.96328 3.09349 5.96328 3.33594C5.96328 3.57839 5.76543 3.77344 5.5195 3.77344H1.24813C1.04843 3.77344 0.887558 3.93385 0.887558 4.12891V26.7695C0.887558 26.9664 1.05028 27.125 1.24813 27.125H19.7519C19.9516 27.125 20.1124 26.9646 20.1124 26.7695V4.12891C20.1124 3.93203 19.9497 3.77344 19.7519 3.77344H15.4805C15.2346 3.77344 15.0367 3.57839 15.0367 3.33594C15.0367 3.09349 15.2346 2.89844 15.4805 2.89844H19.7519C20.4397 2.89844 21 3.45078 21 4.12891V26.7695C21.0018 27.4477 20.4416 28 19.7537 28Z" fill="#00A7AC"/>
<path d="M13.154 3.22474H7.8471C7.60117 3.22474 7.40332 3.02969 7.40332 2.78724V0.802083C7.40332 0.359115 7.76759 0 8.21692 0H12.7841C13.2335 0 13.5977 0.359115 13.5977 0.802083V2.78724C13.5977 3.02969 13.398 3.22474 13.154 3.22474ZM8.29088 2.34974H12.7102V0.875H8.29088V2.34974Z" fill="#00A7AC"/>
<path d="M17.8856 18.2893H7.13323C6.8873 18.2893 6.68945 18.0943 6.68945 17.8518C6.68945 17.6094 6.8873 17.4143 7.13323 17.4143H17.8856C18.1316 17.4143 18.3294 17.6094 18.3294 17.8518C18.3294 18.0943 18.1297 18.2893 17.8856 18.2893Z" fill="#00A7AC"/>
<path d="M3.76278 18.6574C3.64999 18.6574 3.53534 18.6155 3.44844 18.5298L2.80126 17.8918C2.62745 17.7204 2.62745 17.4433 2.80126 17.2738C2.97507 17.1043 3.25613 17.1025 3.4281 17.2738L3.76093 17.6019L4.94619 16.4334C5.12 16.2621 5.40106 16.2621 5.57303 16.4334C5.74684 16.6048 5.74684 16.8819 5.57303 17.0514L4.07527 18.528C3.99022 18.6155 3.87557 18.6574 3.76278 18.6574Z" fill="#00A7AC"/>
<path d="M17.8856 21.8657H7.13323C6.8873 21.8657 6.68945 21.6707 6.68945 21.4282C6.68945 21.1858 6.8873 20.9907 7.13323 20.9907H17.8856C18.1316 20.9907 18.3294 21.1858 18.3294 21.4282C18.3294 21.6707 18.1297 21.8657 17.8856 21.8657Z" fill="#00A7AC"/>
<path d="M3.76278 22.2358C3.64444 22.2358 3.53164 22.1902 3.44844 22.1082L2.80126 21.4701C2.62745 21.2988 2.62745 21.0217 2.80126 20.8522C2.97507 20.6826 3.25613 20.6808 3.4281 20.8522L3.76093 21.1803L4.94434 20.0118C5.11815 19.8405 5.39921 19.8405 5.57118 20.0118C5.74499 20.1832 5.74499 20.4603 5.57118 20.6298L4.07342 22.1063C3.99391 22.1884 3.88112 22.2358 3.76278 22.2358Z" fill="#00A7AC"/>
<path d="M17.8856 25.4424H7.13323C6.8873 25.4424 6.68945 25.2473 6.68945 25.0049C6.68945 24.7624 6.8873 24.5674 7.13323 24.5674H17.8856C18.1316 24.5674 18.3294 24.7624 18.3294 25.0049C18.3294 25.2473 18.1297 25.4424 17.8856 25.4424Z" fill="#00A7AC"/>
<path d="M3.76278 25.8123C3.64999 25.8123 3.53534 25.7704 3.44844 25.6847L2.80126 25.0467C2.62745 24.8753 2.62745 24.5983 2.80126 24.4287C2.97507 24.2592 3.25613 24.2574 3.4281 24.4287L3.76093 24.7569L4.94434 23.5902C5.11815 23.4188 5.39921 23.4188 5.57118 23.5902C5.74499 23.7615 5.74499 24.0386 5.57118 24.2082L4.07342 25.6847C3.99022 25.7704 3.87557 25.8123 3.76278 25.8123Z" fill="#00A7AC"/>
<path d="M13.4678 14.1643C13.2848 14.1643 13.1146 14.0531 13.0499 13.8744C12.6838 12.8645 11.7075 12.1846 10.6184 12.1846H10.3835C9.29444 12.1846 8.31813 12.8627 7.95201 13.8744C7.8688 14.1023 7.61548 14.2208 7.38434 14.1387C7.15321 14.0567 7.03302 13.807 7.11623 13.5791C7.60808 12.221 8.92093 11.3096 10.3835 11.3096H10.6184C12.081 11.3096 13.3939 12.221 13.8857 13.5791C13.9689 13.807 13.8469 14.0567 13.6176 14.1387C13.5677 14.1551 13.5177 14.1643 13.4678 14.1643Z" fill="#00A7AC"/>
<path d="M10.5005 12.1846C9.33746 12.1846 8.39258 11.2512 8.39258 10.1064C8.39258 8.96165 9.33931 8.02832 10.5005 8.02832C11.6636 8.02832 12.6103 8.96165 12.6103 10.1064C12.6103 11.2512 11.6636 12.1846 10.5005 12.1846ZM10.5005 8.9015C9.82746 8.9015 9.28014 9.44108 9.28014 10.1046C9.28014 10.7682 9.82746 11.3077 10.5005 11.3077C11.1736 11.3077 11.7228 10.7682 11.7228 10.1046C11.7228 9.44108 11.1736 8.9015 10.5005 8.9015Z" fill="#00A7AC"/>
<path d="M10.5001 15.4402C9.30005 15.4402 8.17211 14.979 7.32338 14.1423C6.47465 13.3055 6.00684 12.1936 6.00684 11.0105C6.00684 9.82743 6.47465 8.71545 7.32338 7.87873C8.17211 7.04201 9.30005 6.58081 10.5001 6.58081C11.7002 6.58081 12.8281 7.04201 13.6768 7.87873C14.5255 8.71545 14.9934 9.82743 14.9934 11.0105C14.9934 12.1936 14.5255 13.3055 13.6768 14.1423C12.8281 14.979 11.7002 15.4402 10.5001 15.4402ZM10.5001 7.45581C8.51234 7.45581 6.89439 9.05086 6.89439 11.0105C6.89439 12.9701 8.51234 14.5652 10.5001 14.5652C12.4879 14.5652 14.1058 12.9701 14.1058 11.0105C14.1058 9.05086 12.4879 7.45581 10.5001 7.45581Z" fill="#00A7AC"/>
</svg>
