<svg width="55" height="55" viewBox="0 0 55 55" fill="none" xmlns="http://www.w3.org/2000/svg">
<path d="M50.4165 16.5H34.8333V2.74999C34.8333 1.23127 33.602 0 32.0833 0H22.9167C21.398 0 20.1667 1.23127 20.1667 2.74999V16.5H4.58336C2.05326 16.503 0.00300781 18.5532 0 21.0833V50.4166C0.00300781 52.9466 2.05326 54.9969 4.58336 54.9999H50.4166C52.9466 54.9969 54.9969 52.9466 55 50.4165V21.0833C54.9969 18.5532 52.9466 16.503 50.4165 16.5ZM22 2.74999C22 2.24372 22.4103 1.83337 22.9166 1.83337H32.0832C32.5895 1.83337 32.9998 2.24382 32.9998 2.74999V20.1666H22V2.74999ZM20.1666 18.3333V20.1667C20.1666 21.1793 20.9874 22.0001 22 22.0001H32.9999C34.0125 22.0001 34.8333 21.1793 34.8333 20.1667V18.3333H36.6667V22.9167C36.6667 23.423 36.2563 23.8333 35.75 23.8333H19.25C18.7437 23.8333 18.3333 23.4229 18.3333 22.9167V18.3333H20.1666ZM53.1665 50.4165C53.1665 51.9353 51.9353 53.1665 50.4165 53.1665H4.58336C3.06463 53.1665 1.83337 51.9353 1.83337 50.4165V21.0833C1.83337 19.5646 3.06463 18.3333 4.58336 18.3333H16.5V22.9167C16.5 24.4354 17.7312 25.6667 19.25 25.6667H35.7499C37.2687 25.6667 38.4999 24.4354 38.4999 22.9167V18.3333H50.4165C51.9353 18.3333 53.1665 19.5646 53.1665 21.0833V50.4165Z" fill="#00A7AC"/>
<path d="M26.5831 27.5H6.41637C5.40382 27.5 4.58301 28.3208 4.58301 29.3334V48.5833C4.58301 49.5959 5.40382 50.4167 6.41637 50.4167H26.583C27.5955 50.4167 28.4163 49.5959 28.4163 48.5833V29.3334C28.4163 28.3208 27.5955 27.5 26.5831 27.5ZM10.0831 48.5833V47.6667C10.0831 45.6417 11.7247 44.0001 13.7497 44.0001H19.2497C21.2747 44.0001 22.9163 45.6417 22.9163 47.6667V48.5833H10.0831ZM16.4997 42.1666C13.9684 42.1666 11.9164 40.1145 11.9164 37.5832C11.9164 35.052 13.9684 32.9999 16.4997 32.9999C19.031 32.9999 21.0831 35.052 21.0831 37.5832C21.08 40.1133 19.0297 42.1636 16.4997 42.1666ZM26.5831 48.5833H24.7497V47.6667C24.7454 45.2085 23.1123 43.0509 20.7475 42.3794C22.747 40.6134 23.4452 37.7943 22.501 35.2992C21.5569 32.8042 19.1674 31.1535 16.4996 31.1535C13.8318 31.1535 11.4424 32.8042 10.4982 35.2992C9.55405 37.7943 10.2522 40.6134 12.2517 42.3794C9.88706 43.0509 8.25393 45.2086 8.24952 47.6667V48.5833H6.41637V29.3334H26.583L26.5831 48.5833Z" fill="#00A7AC"/>
<path d="M49.5002 29.3333H32.0836C31.5773 29.3333 31.167 29.7436 31.167 30.2499C31.167 30.7562 31.5773 31.1665 32.0836 31.1665H49.5002C50.0065 31.1665 50.4168 30.7561 50.4168 30.2499C50.4168 29.7437 50.0065 29.3333 49.5002 29.3333Z" fill="#00A7AC"/>
<path d="M32.0836 37.5833H36.667C37.1733 37.5833 37.5836 37.1728 37.5836 36.6666C37.5836 36.1605 37.1732 35.75 36.667 35.75H32.0836C31.5773 35.75 31.167 36.1604 31.167 36.6666C31.167 37.1729 31.5773 37.5833 32.0836 37.5833Z" fill="#00A7AC"/>
<path d="M32.0836 41.25H41.2502C41.7565 41.25 42.1669 40.8396 42.1669 40.3334C42.1669 39.8271 41.7565 39.4167 41.2502 39.4167H32.0836C31.5773 39.4167 31.167 39.8272 31.167 40.3334C31.1669 40.8397 31.5773 41.25 32.0836 41.25Z" fill="#00A7AC"/>
<path d="M32.0836 44.9165H34.8336C35.3399 44.9165 35.7502 44.5061 35.7502 43.9999C35.7502 43.4936 35.3399 43.0833 34.8336 43.0833H32.0836C31.5773 43.0833 31.167 43.4937 31.167 43.9999C31.1669 44.5062 31.5773 44.9165 32.0836 44.9165Z" fill="#00A7AC"/>
<path d="M44.0002 46.75H32.0836C31.5773 46.75 31.167 47.1605 31.167 47.6666C31.167 48.1729 31.5773 48.5833 32.0836 48.5833H44.0002C44.5065 48.5833 44.9169 48.1728 44.9169 47.6666C44.9169 47.1605 44.5065 46.75 44.0002 46.75Z" fill="#00A7AC"/>
</svg>
