<svg width="40" height="30" viewBox="0 0 40 30" fill="none" xmlns="http://www.w3.org/2000/svg">
<path d="M39.4374 14.1426C38.4425 13.8754 37.1234 13.252 37.1634 10.6693C37.1869 9.66823 37.2893 8.67061 37.4698 7.68577C37.5764 6.83079 37.7496 5.10748 37.7496 4.12336C37.7496 1.45156 36.4528 0.0533191 33.899 0.00878906C33.6955 0.00989574 33.5004 0.0905308 33.3553 0.233556C33.2101 0.376581 33.1264 0.570719 33.1217 0.774705C33.1206 0.877204 33.1397 0.978917 33.178 1.07395C33.2163 1.16899 33.273 1.25546 33.3449 1.32835C33.4168 1.40125 33.5024 1.45912 33.5967 1.49861C33.6911 1.53811 33.7923 1.55844 33.8945 1.55843C35.6089 1.58961 36.2174 2.25756 36.2174 4.11446C36.2174 4.96943 36.0619 6.59033 35.9553 7.4364C35.7601 8.49894 35.6517 9.57569 35.6311 10.6559C35.5956 12.9091 36.4306 14.1961 37.4698 14.9264C36.2396 15.7902 35.6 17.2597 35.6311 19.2012C35.649 20.2858 35.7559 21.3671 35.9509 22.4341C36.0797 23.5028 36.2174 24.9456 36.2174 25.7917C36.2174 27.6263 35.5601 28.3655 33.8812 28.4234C33.6751 28.4269 33.4788 28.5124 33.3355 28.6611C33.1923 28.8097 33.1138 29.0094 33.1173 29.216C33.1208 29.4227 33.2061 29.6195 33.3544 29.7632C33.5026 29.9068 33.7017 29.9855 33.9079 29.982H33.8945C36.4394 29.8884 37.7319 28.4813 37.7319 25.7917C37.7319 24.8744 37.5853 23.3603 37.4476 22.2293C37.2661 21.2312 37.1651 20.22 37.1456 19.2057C37.1145 17.2553 37.8518 16.1242 39.4018 15.7502C39.5721 15.709 39.7235 15.6114 39.8315 15.4732C39.9395 15.335 39.9978 15.1643 39.997 14.9887C40.0163 14.8044 39.971 14.6192 39.8689 14.4648C39.7668 14.3104 39.6142 14.1965 39.4374 14.1426Z" fill="#061421"/>
<path d="M6.16577 1.55855C6.37191 1.55855 6.56961 1.47645 6.71537 1.33031C6.86113 1.18416 6.94301 0.985952 6.94301 0.779276C6.94301 0.572599 6.86113 0.374387 6.71537 0.228245C6.56961 0.0821023 6.37191 0 6.16577 0C3.58534 0.04453 2.28847 1.45168 2.28847 4.12348C2.28847 5.09424 2.46168 6.79528 2.57271 7.68588C2.75287 8.67068 2.85387 9.66839 2.87472 10.6694C2.9147 13.2343 1.60005 13.8889 0.582981 14.1427C0.414005 14.1956 0.266308 14.3013 0.161435 14.4443C0.0565618 14.5873 0 14.7601 0 14.9376C0 15.1151 0.0565618 15.2879 0.161435 15.4309C0.266308 15.5739 0.414005 15.6796 0.582981 15.7325C2.13302 16.1065 2.87028 17.2376 2.83919 19.2014C2.81828 20.2232 2.71581 21.2417 2.53274 22.2472C2.46612 22.786 2.25293 24.6429 2.25293 25.8096C2.25293 28.4814 3.54537 29.9064 6.09027 29.9999H6.11692C6.21899 30.0016 6.3204 29.9832 6.41537 29.9457C6.51034 29.9081 6.597 29.8522 6.67041 29.7811C6.74382 29.71 6.80254 29.625 6.84322 29.5312C6.8839 29.4373 6.90573 29.3363 6.90748 29.234C6.90923 29.1316 6.89086 29.03 6.85342 28.9347C6.81597 28.8395 6.76019 28.7526 6.68926 28.679C6.61832 28.6054 6.53362 28.5466 6.43999 28.5058C6.34636 28.465 6.24564 28.4431 6.14357 28.4413C4.46029 28.3834 3.80741 27.6442 3.80741 25.8096C3.80741 24.968 3.94509 23.5208 4.06945 22.4877C4.26607 21.4118 4.37451 20.3217 4.39367 19.2281C4.42476 17.2821 3.78076 15.8126 2.55495 14.9443C3.58978 14.214 4.4292 12.9315 4.39367 10.6872C4.3726 9.61312 4.26567 8.54245 4.07389 7.4855C3.94509 6.45686 3.80741 4.93393 3.80741 4.13239C3.84294 2.25767 4.45141 1.58972 6.16577 1.55855Z" fill="#061421"/>
<path d="M17.5243 12.4507C17.6349 12.5099 17.7586 12.5405 17.884 12.5397C18.0241 12.5414 18.1621 12.505 18.2833 12.4344C18.4045 12.3639 18.5044 12.2618 18.5724 12.139L22.654 4.22597C22.7054 4.13464 22.7378 4.03386 22.7494 3.92967C22.761 3.82547 22.7515 3.72 22.7215 3.61957C22.6915 3.51913 22.6416 3.42581 22.5748 3.34517C22.5079 3.26454 22.4255 3.19826 22.3326 3.15029C22.2396 3.10233 22.1379 3.07367 22.0336 3.06603C21.9293 3.0584 21.8245 3.07194 21.7256 3.10585C21.6267 3.13976 21.5355 3.19334 21.4577 3.26339C21.3799 3.33343 21.317 3.41849 21.2728 3.51349L17.1912 11.3998C17.0974 11.5836 17.0798 11.7971 17.1422 11.9939C17.2046 12.1907 17.3419 12.3548 17.5243 12.4507Z" fill="#061421"/>
<path d="M28.3231 7.80181L24.5346 11.1772C24.381 11.3148 24.2881 11.508 24.2765 11.7142C24.2648 11.9205 24.3353 12.1229 24.4725 12.2771C24.545 12.3601 24.6345 12.4265 24.7349 12.4719C24.8353 12.5172 24.9442 12.5404 25.0543 12.5398C25.2438 12.5382 25.4265 12.4687 25.5695 12.3439L30.0108 8.38516C30.0936 8.31242 30.1599 8.22269 30.2051 8.12205C30.2503 8.0214 30.2734 7.91219 30.2729 7.80181C30.2734 7.69209 30.2502 7.58356 30.205 7.48364C30.1598 7.38372 30.0935 7.29479 30.0108 7.22292L25.5695 3.2642C25.4152 3.12662 25.2127 3.05612 25.0065 3.06823C24.8004 3.08034 24.6075 3.17406 24.4702 3.32877C24.333 3.48348 24.2627 3.68652 24.2748 3.8932C24.2868 4.09989 24.3803 4.2933 24.5346 4.43089L28.3231 7.80181Z" fill="#061421"/>
<path d="M14.4573 12.3437C14.5334 12.4135 14.6226 12.4674 14.7197 12.5023C14.8167 12.5371 14.9198 12.5523 15.0228 12.5469C15.1257 12.5414 15.2266 12.5155 15.3195 12.4706C15.4124 12.4257 15.4954 12.3627 15.5638 12.2853C15.6322 12.2079 15.6845 12.1176 15.7177 12.0197C15.7509 11.9218 15.7644 11.8183 15.7573 11.7152C15.7502 11.612 15.7227 11.5113 15.6765 11.4189C15.6302 11.3265 15.566 11.2443 15.4877 11.177L11.6859 7.80161L15.4699 4.43069C15.6204 4.29266 15.7108 4.10086 15.7215 3.89664C15.7322 3.69243 15.6624 3.49218 15.5272 3.33908C15.392 3.18598 15.2022 3.0923 14.9987 3.07826C14.7952 3.06421 14.5944 3.13092 14.4395 3.264L10.0159 7.24053C9.93392 7.31296 9.86816 7.402 9.82299 7.50179C9.77782 7.60158 9.75427 7.70984 9.75391 7.81942C9.75448 7.92962 9.7781 8.03847 9.82324 8.13895C9.86837 8.23943 9.93402 8.3293 10.0159 8.40277L14.4573 12.3437Z" fill="#061421"/>
<path d="M8.83974 17.9636H16.9363C17.1425 17.9636 17.3402 17.8815 17.4859 17.7353C17.6317 17.5892 17.7136 17.391 17.7136 17.1843C17.7136 16.9776 17.6317 16.7794 17.4859 16.6333C17.3402 16.4871 17.1425 16.405 16.9363 16.405H8.83974C8.6336 16.405 8.43591 16.4871 8.29015 16.6333C8.14439 16.7794 8.0625 16.9776 8.0625 17.1843C8.0625 17.391 8.14439 17.5892 8.29015 17.7353C8.43591 17.8815 8.6336 17.9636 8.83974 17.9636Z" fill="#061421"/>
<path d="M21.5767 17.9636C21.7829 17.9636 21.9806 17.8815 22.1263 17.7353C22.2721 17.5892 22.354 17.391 22.354 17.1843C22.354 16.9776 22.2721 16.7794 22.1263 16.6333C21.9806 16.4871 21.7829 16.405 21.5767 16.405H20.0311C19.825 16.405 19.6273 16.4871 19.4816 16.6333C19.3358 16.7794 19.2539 16.9776 19.2539 17.1843C19.2539 17.391 19.3358 17.5892 19.4816 17.7353C19.6273 17.8815 19.825 17.9636 20.0311 17.9636H21.5767Z" fill="#061421"/>
<path d="M31.8042 16.405H25.453C25.2469 16.405 25.0492 16.4871 24.9034 16.6333C24.7577 16.7794 24.6758 16.9776 24.6758 17.1843C24.6758 17.391 24.7577 17.5892 24.9034 17.7353C25.0492 17.8815 25.2469 17.9636 25.453 17.9636H31.8042C32.0103 17.9636 32.208 17.8815 32.3538 17.7353C32.4995 17.5892 32.5814 17.391 32.5814 17.1843C32.5814 16.9776 32.4995 16.7794 32.3538 16.6333C32.208 16.4871 32.0103 16.405 31.8042 16.405Z" fill="#061421"/>
<path d="M8.83974 21.7085H10.3143C10.5204 21.7085 10.7181 21.6264 10.8639 21.4802C11.0096 21.3341 11.0915 21.1359 11.0915 20.9292C11.0915 20.7225 11.0096 20.5243 10.8639 20.3781C10.7181 20.232 10.5204 20.1499 10.3143 20.1499H8.83974C8.6336 20.1499 8.43591 20.232 8.29015 20.3781C8.14439 20.5243 8.0625 20.7225 8.0625 20.9292C8.0625 21.1359 8.14439 21.3341 8.29015 21.4802C8.43591 21.6264 8.6336 21.7085 8.83974 21.7085Z" fill="#061421"/>
<path d="M13.2852 20.9292C13.2852 21.1359 13.367 21.3341 13.5128 21.4802C13.6586 21.6264 13.8563 21.7085 14.0624 21.7085H24.2775C24.4837 21.7085 24.6814 21.6264 24.8271 21.4802C24.9729 21.3341 25.0548 21.1359 25.0548 20.9292C25.0548 20.7225 24.9729 20.5243 24.8271 20.3781C24.6814 20.232 24.4837 20.1499 24.2775 20.1499H14.0624C13.8563 20.1499 13.6586 20.232 13.5128 20.3781C13.367 20.5243 13.2852 20.7225 13.2852 20.9292Z" fill="#061421"/>
<path d="M31.8046 20.1543H27.4921C27.2859 20.1543 27.0883 20.2364 26.9425 20.3825C26.7967 20.5287 26.7148 20.7269 26.7148 20.9336C26.7148 21.1402 26.7967 21.3385 26.9425 21.4846C27.0883 21.6307 27.2859 21.7128 27.4921 21.7128H31.8046C32.0108 21.7128 32.2085 21.6307 32.3542 21.4846C32.5 21.3385 32.5819 21.1402 32.5819 20.9336C32.5819 20.7269 32.5 20.5287 32.3542 20.3825C32.2085 20.2364 32.0108 20.1543 31.8046 20.1543Z" fill="#061421"/>
<path d="M18.4301 24.2197H9.02333C8.8172 24.2197 8.6195 24.3018 8.47374 24.448C8.32798 24.5941 8.24609 24.7923 8.24609 24.999C8.24609 25.2057 8.32798 25.4039 8.47374 25.55C8.6195 25.6962 8.8172 25.7783 9.02333 25.7783H18.4301C18.6363 25.7783 18.834 25.6962 18.9797 25.55C19.1255 25.4039 19.2074 25.2057 19.2074 24.999C19.2074 24.7923 19.1255 24.5941 18.9797 24.448C18.834 24.3018 18.6363 24.2197 18.4301 24.2197Z" fill="#061421"/>
<path d="M24.3221 24.2197H21.5507C21.3445 24.2197 21.1468 24.3018 21.0011 24.448C20.8553 24.5941 20.7734 24.7923 20.7734 24.999C20.7734 25.2057 20.8553 25.4039 21.0011 25.55C21.1468 25.6962 21.3445 25.7783 21.5507 25.7783H24.3221C24.5282 25.7783 24.7259 25.6962 24.8717 25.55C25.0174 25.4039 25.0993 25.2057 25.0993 24.999C25.0993 24.7923 25.0174 24.5941 24.8717 24.448C24.7259 24.3018 24.5282 24.2197 24.3221 24.2197Z" fill="#061421"/>
</svg>
