<svg width="40" height="40" viewBox="0 0 40 40" fill="none" xmlns="http://www.w3.org/2000/svg">
<path d="M24.0323 7.22484H22.0161V5.2182C22.0161 5.0408 21.9453 4.87067 21.8193 4.74523C21.6933 4.61979 21.5223 4.54932 21.3441 4.54932H18.6559C18.4777 4.54932 18.3067 4.61979 18.1807 4.74523C18.0547 4.87067 17.9839 5.0408 17.9839 5.2182V7.22484H15.9677C15.7895 7.22484 15.6186 7.29531 15.4925 7.42075C15.3665 7.54619 15.2957 7.71632 15.2957 7.89372V10.5692C15.2957 10.7466 15.3665 10.9168 15.4925 11.0422C15.6186 11.1677 15.7895 11.2381 15.9677 11.2381H17.9839V13.2448C17.9839 13.4222 18.0547 13.5923 18.1807 13.7177C18.3067 13.8432 18.4777 13.9137 18.6559 13.9137H21.3441C21.5223 13.9137 21.6933 13.8432 21.8193 13.7177C21.9453 13.5923 22.0161 13.4222 22.0161 13.2448V11.2381H24.0323C24.2105 11.2381 24.3814 11.1677 24.5075 11.0422C24.6335 10.9168 24.7043 10.7466 24.7043 10.5692V7.89372C24.7043 7.71632 24.6335 7.54619 24.5075 7.42075C24.3814 7.29531 24.2105 7.22484 24.0323 7.22484ZM23.3602 9.90037H21.3441C21.1658 9.90037 20.9949 9.97084 20.8689 10.0963C20.7428 10.2217 20.672 10.3918 20.672 10.5692V12.5759H19.328V10.5692C19.328 10.3918 19.2572 10.2217 19.1311 10.0963C19.0051 9.97084 18.8342 9.90037 18.6559 9.90037H16.6398V8.5626H18.6559C18.8342 8.5626 19.0051 8.49213 19.1311 8.36669C19.2572 8.24125 19.328 8.07112 19.328 7.89372V5.88708H20.672V7.89372C20.672 8.07112 20.7428 8.24125 20.8689 8.36669C20.9949 8.49213 21.1658 8.5626 21.3441 8.5626H23.3602V9.90037ZM38.6358 10.81C38.6494 10.6924 38.6561 10.574 38.6559 10.4555C38.6527 9.84242 38.439 9.24883 38.0503 8.77316C37.6616 8.29749 37.1212 7.96832 36.5188 7.84021C35.8374 7.71111 35.1321 7.84446 34.5457 8.21327C33.9593 8.58208 33.5356 9.15881 33.3602 9.82679L30.4032 18.2948C30.3594 18.3121 30.3168 18.3322 30.2755 18.355L24.3347 21.8198C23.4256 22.3513 22.6716 23.1097 22.1471 24.02C21.6226 24.9303 21.3458 25.961 21.3441 27.0103V33.3112C21.1658 33.3112 20.9949 33.3817 20.8689 33.5071C20.7428 33.6326 20.672 33.8027 20.672 33.9801V39.3311C20.672 39.5085 20.7428 39.6787 20.8689 39.8041C20.9949 39.9295 21.1658 40 21.3441 40H30.7527C30.9309 40 31.1019 39.9295 31.2279 39.8041C31.3539 39.6787 31.4247 39.5085 31.4247 39.3311V33.9801C31.4247 33.8027 31.3539 33.6326 31.2279 33.5071C31.1019 33.3817 30.9309 33.3112 30.7527 33.3112V31.8397C30.7539 31.5572 30.8144 31.278 30.9301 31.02C31.0458 30.7621 31.2143 30.5309 31.4247 30.3414L35.9677 26.3214C36.4647 25.8886 36.8204 25.318 36.9892 24.6826L39.9059 13.8267C39.9682 13.6 39.9998 13.3661 40 13.1311C39.9974 12.659 39.8699 12.196 39.6304 11.7886C39.3909 11.3811 39.0479 11.0436 38.6358 10.81ZM34.6438 10.2214C34.7263 9.87552 34.9368 9.57326 35.2332 9.3749C35.5296 9.17655 35.8903 9.09668 36.2433 9.15122C36.5445 9.21401 36.815 9.37779 37.0094 9.61519C37.2039 9.85259 37.3107 10.1492 37.3118 10.4555V10.4689C36.7115 10.48 36.1313 10.6859 35.6594 11.0554C35.1875 11.4249 34.8498 11.9376 34.6976 12.5157L32.8226 18.2748C32.5387 18.1407 32.2343 18.0548 31.922 18.0206L34.6438 10.2214ZM30.0806 38.6623H22.0161V34.649H30.0806V38.6623ZM38.6089 13.4789L35.6855 24.3415C35.5843 24.719 35.374 25.0586 35.0806 25.3181L30.5309 29.3381C30.1789 29.654 29.8971 30.0398 29.7038 30.4707C29.5106 30.9015 29.41 31.3678 29.4086 31.8397V33.3112H22.6882V27.0103C22.6915 26.1943 22.9075 25.393 23.3151 24.6849C23.7226 23.9767 24.3078 23.386 25.0134 22.9703L30.9476 19.5122C31.1006 19.4235 31.2697 19.3657 31.4452 19.3422C31.6207 19.3188 31.7991 19.33 31.9702 19.3754C32.1414 19.4208 32.3018 19.4994 32.4423 19.6066C32.5828 19.7139 32.7006 19.8477 32.789 20.0005C32.9635 20.3095 33.0117 20.6737 32.9234 21.0172C32.8767 21.1868 32.7969 21.3456 32.6885 21.4844C32.5801 21.6233 32.4452 21.7396 32.2917 21.8265L28.4409 24.0405C28.2946 24.1331 28.1899 24.2783 28.1486 24.4459C28.1074 24.6134 28.1328 24.7904 28.2196 24.9397C28.3063 25.0891 28.4477 25.1993 28.6141 25.2474C28.7806 25.2955 28.9593 25.2776 29.1129 25.1977L32.9637 22.9837C33.2715 22.8099 33.5413 22.5765 33.7571 22.2974C33.9729 22.0182 34.1305 21.6989 34.2204 21.3583C34.4034 20.6739 34.3067 19.9453 33.9516 19.3316L33.9113 19.2714L35.9879 12.897C36.0704 12.551 36.2808 12.2488 36.5773 12.0504C36.8737 11.8521 37.2344 11.7722 37.5874 11.8267C37.8886 11.8895 38.159 12.0533 38.3535 12.2907C38.548 12.5281 38.6548 12.8247 38.6559 13.1311C38.6582 13.2487 38.6423 13.366 38.6089 13.4789ZM18.6559 33.3112V27.0103C18.6542 25.961 18.3774 24.9303 17.8529 24.02C17.3284 23.1097 16.5744 22.3513 15.6653 21.8198L9.72446 18.3483C9.68414 18.3283 9.6371 18.3149 9.59678 18.2948L6.65995 9.87361C6.48926 9.19589 6.06553 8.60838 5.47499 8.23062C4.88445 7.85286 4.17148 7.71326 3.48118 7.84021C2.87876 7.96832 2.33841 8.29749 1.94972 8.77316C1.56103 9.24883 1.34735 9.84242 1.34409 10.4555C1.34391 10.574 1.35064 10.6924 1.36425 10.81C0.952127 11.0436 0.609074 11.3811 0.369591 11.7886C0.130107 12.196 0.00263709 12.659 0 13.1311C0.00130528 13.3656 0.0306331 13.5991 0.0873655 13.8267L3.01075 24.6759C3.17781 25.314 3.53371 25.8872 4.03226 26.3214L8.56855 30.3414C8.78114 30.5296 8.95146 30.7603 9.06842 31.0185C9.18538 31.2767 9.24633 31.5565 9.24731 31.8397V33.3112C9.06908 33.3112 8.89814 33.3817 8.77211 33.5071C8.64607 33.6326 8.57527 33.8027 8.57527 33.9801V39.3311C8.57527 39.5085 8.64607 39.6787 8.77211 39.8041C8.89814 39.9295 9.06908 40 9.24731 40H18.6559C18.8342 40 19.0051 39.9295 19.1311 39.8041C19.2572 39.6787 19.328 39.5085 19.328 39.3311V33.9801C19.328 33.8027 19.2572 33.6326 19.1311 33.5071C19.0051 33.3817 18.8342 33.3112 18.6559 33.3112ZM2.68817 10.4555C2.689 10.1502 2.79478 9.85425 2.98794 9.61697C3.1811 9.3797 3.45001 9.21535 3.75 9.15122C4.11267 9.09882 4.48184 9.18483 4.78347 9.392C5.0851 9.59917 5.29688 9.91218 5.37634 10.2682L8.07796 18.0206C7.76566 18.0548 7.46129 18.1407 7.17742 18.2748L5.31586 12.5491C5.16436 11.9654 4.82597 11.4466 4.35187 11.0713C3.87777 10.6959 3.29375 10.4845 2.68817 10.4689V10.4555ZM9.46237 29.3381L4.91936 25.3181C4.62436 25.0572 4.41385 24.715 4.31452 24.3348L1.38441 13.4789C1.35659 13.365 1.34305 13.2482 1.34409 13.1311C1.34492 12.8257 1.4507 12.5298 1.64386 12.2925C1.83702 12.0552 2.10593 11.8909 2.40591 11.8267C2.76604 11.7729 3.13327 11.8569 3.43375 12.0616C3.73423 12.2664 3.94567 12.5768 4.02554 12.9304L6.08871 19.2714L6.04839 19.3316C5.69328 19.9453 5.59663 20.6739 5.77957 21.3583C5.86955 21.6989 6.02709 22.0182 6.24291 22.2974C6.45874 22.5765 6.72849 22.8099 7.03629 22.9837L10.8871 25.1977C11.0407 25.2776 11.2194 25.2955 11.3859 25.2474C11.5523 25.1993 11.6937 25.0891 11.7804 24.9397C11.8672 24.7904 11.8926 24.6134 11.8514 24.4459C11.8101 24.2783 11.7054 24.1331 11.5591 24.0405L7.70833 21.8265C7.55476 21.7396 7.41991 21.6233 7.31151 21.4844C7.20312 21.3456 7.12329 21.1868 7.07661 21.0172C6.98832 20.6737 7.03646 20.3095 7.21102 20.0005C7.29883 19.8481 7.41594 19.7144 7.55567 19.607C7.69539 19.4997 7.85499 19.4207 8.02536 19.3748C8.19573 19.3288 8.37352 19.3167 8.54859 19.3391C8.72366 19.3616 8.89258 19.4181 9.0457 19.5055L14.9866 22.9703C15.6922 23.386 16.2774 23.9767 16.6849 24.6849C17.0925 25.393 17.3085 26.1943 17.3118 27.0103V33.3112H10.5914V31.8397C10.5903 31.3672 10.4891 30.9002 10.2946 30.4692C10.1001 30.0381 9.8165 29.6527 9.46237 29.3381ZM17.9839 38.6623H9.91936V34.649H17.9839V38.6623Z" fill="#00A7AC"/>
<path d="M29.5096 1.96207C28.8857 1.34003 28.1447 0.846554 27.329 0.509878C26.5133 0.173203 25.6389 -6.21112e-05 24.7558 1.6702e-08C23.8727 6.21446e-05 22.9983 0.17345 22.1826 0.51024C21.367 0.847031 20.626 1.34061 20.0022 1.96274C19.3785 1.3406 18.6376 0.847011 17.8219 0.510237C17.0063 0.173463 16.1319 0.000113562 15.2489 0.000113562C14.3658 0.000113562 13.4914 0.173463 12.6758 0.510237C11.8601 0.847011 11.1192 1.3406 10.4955 1.96274C9.23767 3.21734 8.53125 4.91734 8.53125 6.68972C8.53125 8.4621 9.23767 10.1621 10.4955 11.4167L19.5278 20.4065C19.6538 20.5319 19.8247 20.6023 20.0029 20.6023C20.1811 20.6023 20.352 20.5319 20.478 20.4065L29.5103 11.4167C30.7681 10.1619 31.4744 8.46173 31.4743 6.68925C31.4741 4.91676 30.7676 3.2167 29.5096 1.96207ZM20.0022 18.9878L11.4451 10.4709C10.6938 9.72216 10.1825 8.76854 9.97568 7.7306C9.76888 6.69265 9.87591 5.61698 10.2832 4.63957C10.6906 3.66215 11.3799 2.82688 12.2641 2.23934C13.1483 1.6518 14.1877 1.33837 15.2509 1.33867C15.9571 1.33626 16.6568 1.47383 17.309 1.74335C17.9613 2.01288 18.5531 2.40898 19.0499 2.90853L19.5271 3.38344C19.6531 3.50883 19.824 3.57928 20.0022 3.57928C20.1804 3.57928 20.3513 3.50883 20.4774 3.38344L20.9558 2.9072C21.4548 2.40972 22.0474 2.01504 22.6997 1.74576C23.3521 1.47648 24.0514 1.33787 24.7576 1.33787C25.4638 1.33787 26.1631 1.47648 26.8155 1.74576C27.4678 2.01504 28.0604 2.40972 28.5593 2.9072C29.566 3.9105 30.1315 5.27046 30.1315 6.68838C30.1315 8.1063 29.566 9.46626 28.5593 10.4696L20.0022 18.9878Z" fill="#00A7AC"/>
</svg>
