<svg width="30" height="40" viewBox="0 0 30 40" fill="none" xmlns="http://www.w3.org/2000/svg">
<path d="M22.1176 7.84359H7.88495C7.53362 7.84359 7.25098 7.56494 7.25098 7.21859V3.74202C7.25098 2.71338 8.09891 1.87744 9.14232 1.87744H11.2106C11.562 1.87744 11.8446 2.15609 11.8446 2.50244C11.8446 2.8488 11.562 3.12744 11.2106 3.12744H9.14232C8.79892 3.12744 8.51892 3.40348 8.51892 3.74202V6.59098H21.4836V3.74202C21.4836 3.40348 21.2036 3.12744 20.8602 3.12744H18.7919C18.4405 3.12744 18.1579 2.8488 18.1579 2.50244C18.1579 2.15609 18.4405 1.87744 18.7919 1.87744H20.8602C21.9036 1.87744 22.7515 2.71338 22.7515 3.74202V7.21598C22.7515 7.56234 22.4689 7.84359 22.1176 7.84359Z" fill="#00A7AC"/>
<path d="M28.2196 40H1.78304C0.800387 40 0 39.2109 0 38.2422V5.89844C0 4.92969 0.800387 4.14062 1.78304 4.14062H7.885C8.23633 4.14062 8.51897 4.41927 8.51897 4.76562C8.51897 5.11198 8.23633 5.39062 7.885 5.39062H1.78304C1.49775 5.39062 1.26794 5.61979 1.26794 5.89844V38.2422C1.26794 38.5234 1.5004 38.75 1.78304 38.75H28.217C28.5022 38.75 28.7321 38.5208 28.7321 38.2422V5.89844C28.7321 5.61719 28.4996 5.39062 28.217 5.39062H22.115C21.7637 5.39062 21.481 5.11198 21.481 4.76562C21.481 4.41927 21.7637 4.14062 22.115 4.14062H28.217C29.1996 4.14062 30 4.92969 30 5.89844V38.2422C30.0026 39.2109 29.2022 40 28.2196 40Z" fill="#00A7AC"/>
<path d="M18.7914 4.60677H11.2101C10.8588 4.60677 10.5762 4.32812 10.5762 3.98177V1.14583C10.5762 0.513021 11.0966 0 11.7385 0H18.2631C18.905 0 19.4253 0.513021 19.4253 1.14583V3.98177C19.4253 4.32812 19.14 4.60677 18.7914 4.60677ZM11.8441 3.35677H18.1574V1.25H11.8441V3.35677Z" fill="#00A7AC"/>
<path d="M25.5512 26.1274H10.1906C9.83929 26.1274 9.55664 25.8488 9.55664 25.5024C9.55664 25.1561 9.83929 24.8774 10.1906 24.8774H25.5512C25.9025 24.8774 26.1851 25.1561 26.1851 25.5024C26.1851 25.8488 25.8999 26.1274 25.5512 26.1274Z" fill="#00A7AC"/>
<path d="M5.37526 26.6534C5.21413 26.6534 5.05035 26.5935 4.9262 26.4711L4.00166 25.5597C3.75335 25.3149 3.75335 24.919 4.00166 24.6768C4.24996 24.4347 4.65148 24.432 4.89714 24.6768L5.37262 25.1456L7.06585 23.4763C7.31415 23.2315 7.71567 23.2315 7.96133 23.4763C8.20963 23.7211 8.20963 24.1169 7.96133 24.3591L5.82168 26.4685C5.70017 26.5935 5.53639 26.6534 5.37526 26.6534Z" fill="#00A7AC"/>
<path d="M25.5512 31.2368H10.1906C9.83929 31.2368 9.55664 30.9582 9.55664 30.6118C9.55664 30.2655 9.83929 29.9868 10.1906 29.9868H25.5512C25.9025 29.9868 26.1851 30.2655 26.1851 30.6118C26.1851 30.9582 25.8999 31.2368 25.5512 31.2368Z" fill="#00A7AC"/>
<path d="M5.37526 31.7655C5.2062 31.7655 5.04507 31.7004 4.9262 31.5832L4.00166 30.6717C3.75335 30.4269 3.75335 30.0311 4.00166 29.7889C4.24996 29.5467 4.65148 29.5441 4.89714 29.7889L5.37262 30.2576L7.06321 28.5884C7.31151 28.3436 7.71302 28.3436 7.95869 28.5884C8.20699 28.8332 8.20699 29.229 7.95869 29.4712L5.81904 31.5806C5.70545 31.6978 5.54432 31.7655 5.37526 31.7655Z" fill="#00A7AC"/>
<path d="M25.5512 36.3462H10.1906C9.83929 36.3462 9.55664 36.0675 9.55664 35.7212C9.55664 35.3748 9.83929 35.0962 10.1906 35.0962H25.5512C25.9025 35.0962 26.1851 35.3748 26.1851 35.7212C26.1851 36.0675 25.8999 36.3462 25.5512 36.3462Z" fill="#00A7AC"/>
<path d="M5.37526 36.8747C5.21413 36.8747 5.05035 36.8148 4.9262 36.6924L4.00166 35.7809C3.75335 35.5361 3.75335 35.1403 4.00166 34.8981C4.24996 34.6559 4.65148 34.6533 4.89714 34.8981L5.37262 35.3669L7.06321 33.7002C7.31151 33.4554 7.71302 33.4554 7.95869 33.7002C8.20699 33.945 8.20699 34.3408 7.95869 34.583L5.81904 36.6924C5.70017 36.8148 5.53639 36.8747 5.37526 36.8747Z" fill="#00A7AC"/>
<path d="M19.2403 20.2344C18.9788 20.2344 18.7358 20.0755 18.6433 19.8203C18.1203 18.3776 16.7255 17.4062 15.1697 17.4062H14.8342C13.2783 17.4062 11.8836 18.375 11.3606 19.8203C11.2417 20.1458 10.8798 20.3151 10.5496 20.1979C10.2194 20.0807 10.0477 19.724 10.1666 19.3984C10.8692 17.4583 12.7447 16.1562 14.8342 16.1562H15.1697C17.2591 16.1562 19.1346 17.4583 19.8373 19.3984C19.9561 19.724 19.7818 20.0807 19.4543 20.1979C19.3829 20.2214 19.3116 20.2344 19.2403 20.2344Z" fill="#00A7AC"/>
<path d="M15.0006 17.4063C13.3391 17.4063 11.9893 16.0729 11.9893 14.4375C11.9893 12.8021 13.3417 11.4688 15.0006 11.4688C16.6621 11.4688 18.0146 12.8021 18.0146 14.4375C18.0146 16.0729 16.6621 17.4063 15.0006 17.4063ZM15.0006 12.7161C14.0391 12.7161 13.2572 13.487 13.2572 14.4349C13.2572 15.3828 14.0391 16.1536 15.0006 16.1536C15.9621 16.1536 16.7467 15.3828 16.7467 14.4349C16.7467 13.487 15.9621 12.7161 15.0006 12.7161Z" fill="#00A7AC"/>
<path d="M15.001 22.0574C13.2866 22.0574 11.6753 21.3985 10.4628 20.2032C9.25034 19.0079 8.58203 17.4194 8.58203 15.7292C8.58203 14.0391 9.25034 12.4506 10.4628 11.2553C11.6753 10.06 13.2866 9.40112 15.001 9.40112C16.7153 9.40112 18.3267 10.06 19.5391 11.2553C20.7516 12.4506 21.4199 14.0391 21.4199 15.7292C21.4199 17.4194 20.7516 19.0079 19.5391 20.2032C18.3267 21.3985 16.7153 22.0574 15.001 22.0574ZM15.001 10.6511C12.1613 10.6511 9.84997 12.9298 9.84997 15.7292C9.84997 18.5287 12.1613 20.8074 15.001 20.8074C17.8406 20.8074 20.152 18.5287 20.152 15.7292C20.152 12.9298 17.8406 10.6511 15.001 10.6511Z" fill="#00A7AC"/>
</svg>
