<svg width="40" height="40" viewBox="0 0 40 40" fill="none" xmlns="http://www.w3.org/2000/svg">
<path d="M35.1328 22.511V20.9698C35.1328 19.9538 34.2075 19.1273 33.0703 19.1273H32.581V9.08406C32.581 8.76086 32.2876 8.49883 31.9258 8.49883C31.564 8.49883 31.2707 8.76086 31.2707 9.08406V19.1272H28.9076L28.442 17.857C28.1638 17.098 27.3761 16.588 26.4819 16.588H17.3318C16.4377 16.588 15.65 17.098 15.3718 17.857L15.2306 18.2423L15.0893 17.857C14.8111 17.098 14.0234 16.588 13.1292 16.588H3.86204V1.33859C3.86204 1.24594 3.94643 1.17055 4.05024 1.17055H31.0826C31.1863 1.17055 31.2707 1.24594 31.2707 1.33859V6.37359C31.2707 6.6968 31.564 6.95883 31.9258 6.95883C32.2876 6.95883 32.581 6.6968 32.581 6.37359V1.33859C32.581 0.600547 31.9088 0 31.0825 0H4.05016C3.22389 0 2.55172 0.600547 2.55172 1.33859V16.588H2.06251C0.92526 16.588 0 17.4145 0 18.4305V30.4439C0 30.7671 0.29332 31.0291 0.655115 31.0291C1.01691 31.0291 1.31023 30.7671 1.31023 30.4439V18.4305C1.31023 18.0599 1.64763 17.7585 2.06242 17.7585H13.1291C13.4552 17.7585 13.7425 17.9445 13.844 18.2214L14.4574 19.8947C14.5456 20.1352 14.7967 20.2977 15.08 20.2977H33.0702C33.485 20.2977 33.8224 20.5992 33.8224 20.9698V22.3802C33.8126 22.3802 33.8029 22.3795 33.793 22.3795C30.3705 22.3795 27.5861 24.8668 27.5861 27.9242C27.5861 30.9816 30.3705 33.469 33.793 33.469C33.8029 33.469 33.8126 33.4684 33.8224 33.4683V38.1575C33.8224 38.528 33.485 38.8295 33.0702 38.8295H2.06251C1.64771 38.8295 1.31032 38.528 1.31032 38.1575V33.198C1.31032 32.8748 1.017 32.6127 0.655203 32.6127C0.293407 32.6127 8.74056e-05 32.8748 8.74056e-05 33.198V38.1575C8.74056e-05 39.1734 0.925348 40 2.0626 40H33.0703C34.2076 40 35.1329 39.1734 35.1329 38.1575V33.3374C37.9133 32.7886 40 30.5706 40 27.9242C40 25.2778 37.9132 23.0598 35.1328 22.511ZM16.2849 19.1273L16.617 18.2214C16.7185 17.9446 17.0057 17.7586 17.3318 17.7586H26.4818C26.808 17.7586 27.0952 17.9446 27.1968 18.2214L27.5288 19.1273H16.2849ZM33.7931 32.2984C31.0931 32.2984 28.8965 30.3362 28.8965 27.9242C28.8965 25.5123 31.0931 23.55 33.7931 23.55C36.493 23.55 38.6896 25.5123 38.6896 27.9242C38.6896 30.3362 36.493 32.2984 33.7931 32.2984Z" fill="#00A7AC"/>
<path d="M37.5158 26.8226C37.3877 26.4703 37.0532 26.2184 36.6429 26.1651L35.3437 25.9965L34.7627 24.9447C34.5792 24.6127 34.2077 24.4062 33.7931 24.4062C33.3784 24.4062 33.0069 24.6126 32.8235 24.9447L32.2424 25.9965L30.9432 26.1651C30.533 26.2184 30.1984 26.4702 30.0703 26.8225C29.9422 27.1748 30.0471 27.5541 30.344 27.8126L31.2841 28.6313L31.0621 29.7873C30.9921 30.1523 31.1569 30.5144 31.4924 30.7321C31.6819 30.8551 31.9037 30.9176 32.1269 30.9176C32.2987 30.9176 32.4715 30.8805 32.6311 30.8055L33.7931 30.2598L34.9551 30.8055C35.3221 30.9779 35.7585 30.9498 36.0939 30.732C36.4293 30.5144 36.5941 30.1523 36.5241 29.7873L36.3021 28.6313L37.2421 27.8127C37.539 27.5542 37.6439 27.1748 37.5158 26.8226ZM35.3012 27.8683C35.0464 28.0902 34.9301 28.4098 34.9903 28.7232L35.1541 29.5766L34.2962 29.1737C33.9812 29.0257 33.605 29.0257 33.2899 29.1737L32.432 29.5766L32.5959 28.7232C32.6561 28.4099 32.5398 28.0903 32.2849 27.8682L31.5909 27.2638L32.5501 27.1393C32.9023 27.0936 33.2067 26.896 33.3642 26.6109L33.7931 25.8345L34.222 26.6109C34.3795 26.8961 34.6839 27.0936 35.0361 27.1394L35.9952 27.2639L35.3012 27.8683Z" fill="#00A7AC"/>
<path d="M28.4799 10.5662H6.65219C6.29039 10.5662 5.99707 10.8282 5.99707 11.1514C5.99707 11.4746 6.29039 11.7366 6.65219 11.7366H28.4799C28.8417 11.7366 29.135 11.4746 29.135 11.1514C29.135 10.8282 28.8417 10.5662 28.4799 10.5662Z" fill="#00A7AC"/>
<path d="M28.4799 13.3994H6.65219C6.29039 13.3994 5.99707 13.6614 5.99707 13.9846C5.99707 14.3079 6.29039 14.5699 6.65219 14.5699H28.4799C28.8417 14.5699 29.135 14.3079 29.135 13.9846C29.135 13.6614 28.8417 13.3994 28.4799 13.3994Z" fill="#00A7AC"/>
<path d="M7.69491 8.74871C7.93191 8.74871 8.18378 8.6984 8.43862 8.57207C8.95625 8.31535 9.27791 7.8223 9.27791 7.28551V3.79879C9.27791 3.47574 8.98476 3.21387 8.62314 3.21387C8.26152 3.21387 7.96838 3.47574 7.96838 3.79879V7.28551C7.96838 7.39762 7.90497 7.49863 7.803 7.54926C7.53662 7.68145 7.29087 7.3366 7.09262 7.24199C6.83445 7.11879 6.53816 7.13785 6.32477 7.32512C6.06748 7.5509 6.06302 7.92035 6.31524 8.15105C6.68692 8.4909 7.1443 8.74871 7.69491 8.74871Z" fill="#00A7AC"/>
<path d="M19.6896 3.21387H18.271C17.9094 3.21387 17.6162 3.47574 17.6162 3.79879V8.16137C17.6162 8.48441 17.9094 8.74629 18.271 8.74629H19.9372C21.0231 8.74629 21.9064 7.9548 21.9064 6.98191C21.9064 6.4416 21.6322 5.95762 21.2016 5.63465C21.3694 5.3923 21.4679 5.10793 21.4679 4.80262C21.468 3.9266 20.6702 3.21387 19.6896 3.21387ZM18.9258 4.38379H19.6896C19.9481 4.38379 20.1585 4.57176 20.1585 4.8027C20.1585 5.03363 19.9481 5.2216 19.6896 5.2216C19.5845 5.2216 18.9258 5.22277 18.9258 5.22277V4.38379ZM19.9373 7.57645H18.9258V6.3934C19.0084 6.39309 19.9373 6.39262 19.9373 6.39262C20.301 6.39262 20.597 6.65699 20.597 6.98199C20.597 7.30973 20.3011 7.57645 19.9373 7.57645Z" fill="#00A7AC"/>
<path d="M16.6374 5.98004C16.6374 4.45473 15.2483 3.21387 13.5409 3.21387C11.8334 3.21387 10.4443 4.4548 10.4443 5.98004C10.4443 7.50527 11.8334 8.74629 13.5409 8.74629C15.2483 8.74629 16.6374 7.50535 16.6374 5.98004ZM11.754 5.98004C11.754 5.0998 12.5556 4.38371 13.5409 4.38371C14.5262 4.38371 15.3278 5.0998 15.3278 5.98004C15.3278 6.86027 14.5262 7.57645 13.5409 7.57645C12.5556 7.57637 11.754 6.86027 11.754 5.98004Z" fill="#00A7AC"/>
</svg>
