<svg width="35" height="34" viewBox="0 0 35 34" fill="none" xmlns="http://www.w3.org/2000/svg">
<path d="M33.9148 26.8161L32.6393 25.5131L32.8962 23.718C32.9465 23.3669 32.7059 23.0397 32.3525 22.9784L30.5456 22.6651L30.5126 22.6036V8.55407C30.5126 7.41702 29.5765 6.49193 28.4259 6.49193H23.2278V3.16945C23.2278 1.51604 21.8667 0.170835 20.1936 0.170835H10.362C8.68886 0.170835 7.32765 1.51597 7.32765 3.16945V6.49199H2.12967C0.979075 6.49199 0.0429688 7.41708 0.0429688 8.55414V28.2198C0.0429022 29.3568 0.979009 30.2819 2.12967 30.2819H12.2839C12.6514 30.2819 12.9492 29.9876 12.9492 29.6245C12.9492 29.2614 12.6514 28.967 12.2839 28.967H2.12967C1.71267 28.967 1.37352 28.6318 1.37352 28.2198V14.5501C2.75582 16.5521 5.08235 17.8691 7.71451 17.8691H11.5327V20.8704C11.5327 21.2335 11.8306 21.5278 12.198 21.5278H18.3574C18.7249 21.5278 19.0227 21.2335 19.0227 20.8704V17.8691H22.8409C25.4731 17.8691 27.7996 16.5521 29.1819 14.5501V20.7195C29.0572 20.7037 28.9268 20.7226 28.8058 20.7811L27.1577 21.5773L25.5095 20.7811C25.1871 20.6253 24.7979 20.7504 24.6297 21.0636L23.7699 22.6651L21.9629 22.9784C21.6095 23.0397 21.3689 23.3669 21.4192 23.718L21.6761 25.5131L20.4006 26.8161C20.1511 27.071 20.1511 27.4755 20.4006 27.7304L21.6111 28.967H18.2714C17.904 28.967 17.6061 29.2614 17.6061 29.6245C17.6061 29.9876 17.904 30.2819 18.2714 30.2819H21.4974L21.4191 30.8284C21.3689 31.1796 21.6095 31.5068 21.9629 31.5681L23.7699 31.8813L24.6297 33.4828C24.7978 33.796 25.1872 33.921 25.5095 33.7653L27.1577 32.9692L28.8058 33.7653C28.8997 33.8107 28.9993 33.8323 29.0975 33.8323C29.3362 33.8323 29.5665 33.7048 29.6856 33.4828L30.5454 31.8813L32.3524 31.5681C32.7058 31.5068 32.9464 31.1796 32.8962 30.8284L32.6393 29.0333L33.9148 27.7304C34.1643 27.4755 34.1643 27.071 33.9148 26.8161ZM8.6582 3.16945C8.6582 2.24107 9.42253 1.48573 10.362 1.48573H20.1934C21.1329 1.48573 21.8971 2.24107 21.8971 3.16945V6.49199H20.5666V3.45807C20.5666 3.09496 20.2688 2.80062 19.9013 2.80062H10.654C10.2866 2.80062 9.98874 3.09496 9.98874 3.45807V6.49193H8.6582V3.16945ZM19.236 6.49193H11.3193V4.11552H19.236V6.49193ZM17.6921 20.2129H12.8633V17.8691H17.6921V20.2129ZM22.841 16.5542H7.71451C4.21803 16.5542 1.37352 13.7431 1.37352 10.2878V8.55407C1.37352 8.14205 1.71274 7.80682 2.12967 7.80682H28.4258C28.8427 7.80682 29.182 8.14205 29.182 8.55407V10.2878C29.1819 13.7431 26.3374 16.5542 22.841 16.5542ZM31.4569 28.3501C31.3142 28.4958 31.2476 28.6984 31.2763 28.8993L31.4886 30.3828L29.9953 30.6417C29.7931 30.6768 29.6186 30.802 29.5225 30.9812L28.8119 32.3047L27.4497 31.6467C27.3576 31.6022 27.2575 31.5799 27.1575 31.5799C27.0575 31.5799 26.9575 31.6022 26.8653 31.6467L25.5032 32.3047L24.7925 30.9812C24.6964 30.802 24.5219 30.6768 24.3198 30.6417L22.8265 30.3828L23.0388 28.8993C23.0675 28.6985 23.0009 28.4958 22.8582 28.3501L21.804 27.2732L22.8582 26.1964C23.0009 26.0506 23.0675 25.848 23.0388 25.6472L22.8265 24.1636L24.32 23.9047C24.5221 23.8696 24.6965 23.7444 24.7927 23.5652L25.5033 22.2417L26.8655 22.8996C27.0498 22.9887 27.2654 22.9887 27.4498 22.8996L28.8119 22.2417L29.5226 23.5652C29.6187 23.7444 29.7931 23.8696 29.9953 23.9047L31.4886 24.1636L31.2763 25.6471C31.2476 25.8479 31.3142 26.0506 31.4569 26.1963L32.5111 27.2732L31.4569 28.3501Z" fill="#00A7AC"/>
<path d="M28.6274 25.6545L26.7626 27.4973L25.9755 26.7196C25.7157 26.4628 25.2945 26.4628 25.0347 26.7196C24.7749 26.9763 24.7749 27.3926 25.0347 27.6493L26.2921 28.892C26.4221 29.0204 26.5923 29.0845 26.7625 29.0845C26.9328 29.0845 27.1031 29.0203 27.233 28.892L29.5681 26.5843C29.8279 26.3275 29.8279 25.9112 29.5681 25.6544C29.3085 25.3977 28.8872 25.3977 28.6274 25.6545Z" fill="#00A7AC"/>
<path d="M15.2776 30.2822C15.645 30.2822 15.9429 29.9879 15.9429 29.6248C15.9429 29.2617 15.645 28.9673 15.2776 28.9673C14.9102 28.9673 14.6123 29.2617 14.6123 29.6248C14.6123 29.9879 14.9102 30.2822 15.2776 30.2822Z" fill="#00A7AC"/>
</svg>
