<svg width="12" height="12" viewBox="0 0 12 12" fill="none" xmlns="http://www.w3.org/2000/svg">
<path d="M3.40875 5.0355L3.0825 6H2.25L3.6465 2.25H4.6095L6 6H5.12475L4.7985 5.0355H3.40875ZM4.63425 4.4835L4.125 2.967H4.08825L3.579 4.4835H4.635H4.63425Z" fill="#00A7AC"/>
<path d="M0 1.5C0 1.10218 0.158035 0.720644 0.43934 0.43934C0.720644 0.158035 1.10218 0 1.5 0L6.75 0C7.14782 0 7.52936 0.158035 7.81066 0.43934C8.09196 0.720644 8.25 1.10218 8.25 1.5V3.75H10.5C10.8978 3.75 11.2794 3.90804 11.5607 4.18934C11.842 4.47064 12 4.85218 12 5.25V10.5C12 10.8978 11.842 11.2794 11.5607 11.5607C11.2794 11.842 10.8978 12 10.5 12H5.25C4.85218 12 4.47064 11.842 4.18934 11.5607C3.90804 11.2794 3.75 10.8978 3.75 10.5V8.25H1.5C1.10218 8.25 0.720644 8.09196 0.43934 7.81066C0.158035 7.52936 0 7.14782 0 6.75V1.5ZM1.5 0.75C1.30109 0.75 1.11032 0.829018 0.96967 0.96967C0.829018 1.11032 0.75 1.30109 0.75 1.5V6.75C0.75 6.94891 0.829018 7.13968 0.96967 7.28033C1.11032 7.42098 1.30109 7.5 1.5 7.5H6.75C6.94891 7.5 7.13968 7.42098 7.28033 7.28033C7.42098 7.13968 7.5 6.94891 7.5 6.75V1.5C7.5 1.30109 7.42098 1.11032 7.28033 0.96967C7.13968 0.829018 6.94891 0.75 6.75 0.75H1.5ZM6.8535 8.24625C6.99825 8.472 7.155 8.6835 7.326 8.88075C6.765 9.312 6.07125 9.6315 5.25 9.84975C5.3835 10.0125 5.58825 10.326 5.66625 10.5C6.51 10.2308 7.22625 9.867 7.83075 9.3795C8.4135 9.87825 9.135 10.2533 10.0282 10.4835C10.128 10.293 10.3387 9.97875 10.5 9.816C9.65625 9.62625 8.95725 9.2955 8.385 8.853C8.89575 8.29275 9.3015 7.61475 9.60075 6.78525H10.5V6H8.25V6.78525H8.82375C8.58525 7.41825 8.26875 7.94475 7.86975 8.38275C7.75954 8.26534 7.65565 8.14217 7.5585 8.01375C7.34686 8.14945 7.10434 8.22943 6.8535 8.24625Z" fill="#00A7AC"/>
</svg>
