<svg width="12" height="12" viewBox="0 0 12 12" fill="none" xmlns="http://www.w3.org/2000/svg">
<path d="M11.9971 12.0001V11.9996H12.0001V7.59861C12.0001 5.44561 11.5366 3.78711 9.01963 3.78711C7.80963 3.78711 6.99763 4.45111 6.66613 5.08061H6.63113V3.98811H4.24463V11.9996H6.72963V8.03261C6.72963 6.98811 6.92763 5.97811 8.22113 5.97811C9.49563 5.97811 9.51463 7.17011 9.51463 8.09961V12.0001H11.9971Z" fill="#0077B5"/>
<path d="M0.197754 3.98853H2.68575V12H0.197754V3.98853Z" fill="#0077B5"/>
<path d="M1.441 0C0.6455 0 0 0.6455 0 1.441C0 2.2365 0.6455 2.8955 1.441 2.8955C2.2365 2.8955 2.882 2.2365 2.882 1.441C2.8815 0.6455 2.236 0 1.441 0V0Z" fill="#0077B5"/>
</svg>
