<svg width="11" height="14" viewBox="0 0 11 14" fill="none" xmlns="http://www.w3.org/2000/svg">
<path d="M9.31883 7.8225C8.8385 8.75175 8.18767 9.6775 7.52217 10.5087C6.89086 11.2924 6.21583 12.0431 5.5 12.7575C4.78416 12.0431 4.10913 11.2924 3.47783 10.5087C2.81233 9.6775 2.1615 8.75175 1.68117 7.8225C1.19533 6.88362 0.916667 6.00425 0.916667 5.25C0.916667 4.08968 1.39955 2.97688 2.25909 2.15641C3.11864 1.33594 4.28442 0.875 5.5 0.875C6.71558 0.875 7.88136 1.33594 8.74091 2.15641C9.60045 2.97688 10.0833 4.08968 10.0833 5.25C10.0833 6.00425 9.80375 6.88362 9.31883 7.8225ZM5.5 14C5.5 14 11 9.02475 11 5.25C11 3.85761 10.4205 2.52226 9.38909 1.53769C8.35764 0.553123 6.95869 0 5.5 0C4.04131 0 2.64236 0.553123 1.61091 1.53769C0.579463 2.52226 2.17362e-08 3.85761 0 5.25C0 9.02475 5.5 14 5.5 14Z" fill="#00A7AC"/>
<path d="M5.5 7C5.01377 7 4.54745 6.81563 4.20364 6.48744C3.85982 6.15925 3.66667 5.71413 3.66667 5.25C3.66667 4.78587 3.85982 4.34075 4.20364 4.01256C4.54745 3.68437 5.01377 3.5 5.5 3.5C5.98623 3.5 6.45255 3.68437 6.79636 4.01256C7.14018 4.34075 7.33333 4.78587 7.33333 5.25C7.33333 5.71413 7.14018 6.15925 6.79636 6.48744C6.45255 6.81563 5.98623 7 5.5 7ZM5.5 7.875C6.22935 7.875 6.92882 7.59844 7.44454 7.10616C7.96027 6.61387 8.25 5.94619 8.25 5.25C8.25 4.55381 7.96027 3.88613 7.44454 3.39384C6.92882 2.90156 6.22935 2.625 5.5 2.625C4.77065 2.625 4.07118 2.90156 3.55546 3.39384C3.03973 3.88613 2.75 4.55381 2.75 5.25C2.75 5.94619 3.03973 6.61387 3.55546 7.10616C4.07118 7.59844 4.77065 7.875 5.5 7.875Z" fill="#00A7AC"/>
</svg>
