<svg width="9" height="12" viewBox="0 0 9 12" fill="none" xmlns="http://www.w3.org/2000/svg">
<path d="M0.84375 12C0.609375 12 0.410156 11.9167 0.246094 11.75C0.0820313 11.5833 0 11.381 0 11.1429V4.94286C0 4.70476 0.0820313 4.50238 0.246094 4.33571C0.410156 4.16905 0.609375 4.08571 0.84375 4.08571H1.82812V2.71429C1.82812 1.9619 2.08828 1.32143 2.60859 0.792857C3.12891 0.264286 3.75937 0 4.5 0C5.24062 0 5.87109 0.264286 6.39141 0.792857C6.91172 1.32143 7.17188 1.9619 7.17188 2.71429V4.08571H8.15625C8.39062 4.08571 8.58984 4.16905 8.75391 4.33571C8.91797 4.50238 9 4.70476 9 4.94286V11.1429C9 11.381 8.91797 11.5833 8.75391 11.75C8.58984 11.9167 8.39062 12 8.15625 12H0.84375ZM0.84375 11.1429H8.15625V4.94286H0.84375V11.1429ZM4.5 9.14286C4.8 9.14286 5.05547 9.0381 5.26641 8.82857C5.47734 8.61905 5.58281 8.36667 5.58281 8.07143C5.58281 7.78571 5.47734 7.52619 5.26641 7.29286C5.05547 7.05952 4.8 6.94286 4.5 6.94286C4.2 6.94286 3.94453 7.05952 3.73359 7.29286C3.52266 7.52619 3.41719 7.78571 3.41719 8.07143C3.41719 8.36667 3.52266 8.61905 3.73359 8.82857C3.94453 9.0381 4.2 9.14286 4.5 9.14286ZM2.67188 4.08571H6.32812V2.71429C6.32812 2.2 6.15 1.7619 5.79375 1.4C5.4375 1.0381 5.00625 0.857143 4.5 0.857143C3.99375 0.857143 3.5625 1.0381 3.20625 1.4C2.85 1.7619 2.67188 2.2 2.67188 2.71429V4.08571ZM0.84375 11.1429V4.94286V11.1429Z" fill="#00A7AC"/>
</svg>
