<svg width="12" height="10" viewBox="0 0 12 10" fill="none" xmlns="http://www.w3.org/2000/svg">
<path d="M7.635 4.875L10.035 3.4375L7.635 2L5.235 3.4375L7.635 4.875ZM7.635 6.78125L9.285 5.78125V4.46875L7.635 5.46875L5.985 4.46875V5.78125L7.635 6.78125ZM0.9 0H11.1C11.33 0 11.5375 0.0963542 11.7225 0.289063C11.9075 0.481771 12 0.697917 12 0.9375V9.0625C12 9.30208 11.9075 9.51823 11.7225 9.71094C11.5375 9.90365 11.33 10 11.1 10H6V9.0625H11.1V0.9375H0.9V3.6875H0V0.9375C0 0.697917 0.0899999 0.481771 0.27 0.289063C0.45 0.0963542 0.66 0 0.9 0ZM0 10H1.5C1.5 9.55208 1.355 9.16927 1.065 8.85156C0.775 8.53385 0.42 8.375 0 8.375V10ZM2.4 10H3.3C3.3 9.03125 2.98 8.20573 2.34 7.52344C1.7 6.84115 0.92 6.5 0 6.5V7.4375C0.67 7.4375 1.2375 7.6875 1.7025 8.1875C2.1675 8.6875 2.4 9.29167 2.4 10ZM0 4.625V5.5625C0.59 5.5625 1.14 5.67969 1.65 5.91406C2.16 6.14844 2.6025 6.46615 2.9775 6.86719C3.3525 7.26823 3.65 7.73698 3.87 8.27344C4.09 8.8099 4.2 9.38542 4.2 10H5.1C5.1 9.26042 4.9675 8.5651 4.7025 7.91406C4.4375 7.26302 4.075 6.69271 3.615 6.20312C3.155 5.71354 2.615 5.32812 1.995 5.04688C1.375 4.76562 0.71 4.625 0 4.625Z" fill="#00A7AC"/>
</svg>
