<svg width="9" height="12" viewBox="0 0 9 12" fill="none" xmlns="http://www.w3.org/2000/svg">
<path d="M7.6245 6.705C7.2315 7.5015 6.699 8.295 6.1545 9.0075C5.63797 9.67921 5.08567 10.3226 4.5 10.935C3.91431 10.3227 3.36201 9.67922 2.8455 9.0075C2.301 8.295 1.7685 7.5015 1.3755 6.705C0.978 5.90025 0.75 5.1465 0.75 4.5C0.75 3.50544 1.14509 2.55161 1.84835 1.84835C2.55161 1.14509 3.50544 0.75 4.5 0.75C5.49456 0.75 6.44839 1.14509 7.15165 1.84835C7.85491 2.55161 8.25 3.50544 8.25 4.5C8.25 5.1465 8.02125 5.90025 7.6245 6.705ZM4.5 12C4.5 12 9 7.7355 9 4.5C9 3.30653 8.52589 2.16193 7.68198 1.31802C6.83807 0.474106 5.69347 0 4.5 0C3.30653 0 2.16193 0.474106 1.31802 1.31802C0.474106 2.16193 1.77842e-08 3.30653 0 4.5C0 7.7355 4.5 12 4.5 12Z" fill="#00A7AC"/>
<path d="M4.5 6C4.10218 6 3.72064 5.84196 3.43934 5.56066C3.15804 5.27936 3 4.89782 3 4.5C3 4.10218 3.15804 3.72064 3.43934 3.43934C3.72064 3.15804 4.10218 3 4.5 3C4.89782 3 5.27936 3.15804 5.56066 3.43934C5.84196 3.72064 6 4.10218 6 4.5C6 4.89782 5.84196 5.27936 5.56066 5.56066C5.27936 5.84196 4.89782 6 4.5 6ZM4.5 6.75C5.09674 6.75 5.66903 6.51295 6.09099 6.09099C6.51295 5.66903 6.75 5.09674 6.75 4.5C6.75 3.90326 6.51295 3.33097 6.09099 2.90901C5.66903 2.48705 5.09674 2.25 4.5 2.25C3.90326 2.25 3.33097 2.48705 2.90901 2.90901C2.48705 3.33097 2.25 3.90326 2.25 4.5C2.25 5.09674 2.48705 5.66903 2.90901 6.09099C3.33097 6.51295 3.90326 6.75 4.5 6.75Z" fill="#00A7AC"/>
</svg>
