<svg width="12" height="12" viewBox="0 0 12 12" fill="none" xmlns="http://www.w3.org/2000/svg">
<path fill-rule="evenodd" clip-rule="evenodd" d="M7.28582 0.857123C7.17216 0.857123 7.06315 0.811971 6.98278 0.731601C6.90241 0.65123 6.85726 0.542223 6.85726 0.428562C6.85726 0.3149 6.90241 0.205894 6.98278 0.125523C7.06315 0.0451519 7.17216 0 7.28582 0H11.5714C11.6851 0 11.7941 0.0451519 11.8745 0.125523C11.9548 0.205894 12 0.3149 12 0.428562V4.71418C12 4.82784 11.9548 4.93685 11.8745 5.01722C11.7941 5.09759 11.6851 5.14274 11.5714 5.14274C11.4578 5.14274 11.3488 5.09759 11.2684 5.01722C11.188 4.93685 11.1429 4.82784 11.1429 4.71418V1.46311L7.60381 5.00217C8.29963 5.85346 8.64166 6.93961 8.55915 8.03599C8.47664 9.13237 7.97591 10.1551 7.16052 10.8927C6.34513 11.6302 5.27746 12.0262 4.17833 11.9987C3.07919 11.9711 2.03268 11.5222 1.25523 10.7448C0.477781 9.96732 0.0288706 8.92081 0.00134467 7.82167C-0.0261813 6.72254 0.369782 5.65487 1.10734 4.83948C1.8449 4.02409 2.86763 3.52336 3.96401 3.44085C5.06039 3.35834 6.14654 3.70037 6.99783 4.39619L10.5369 0.857123H7.28582ZM4.28589 4.28562C3.3766 4.28562 2.50455 4.64683 1.86158 5.2898C1.21861 5.93277 0.857397 6.80482 0.857397 7.71411C0.857397 8.6234 1.21861 9.49545 1.86158 10.1384C2.50455 10.7814 3.3766 11.1426 4.28589 11.1426C5.19518 11.1426 6.06723 10.7814 6.7102 10.1384C7.35317 9.49545 7.71438 8.6234 7.71438 7.71411C7.71438 6.80482 7.35317 5.93277 6.7102 5.2898C6.06723 4.64683 5.19518 4.28562 4.28589 4.28562Z" fill="#00A7AC"/>
</svg>
