<svg width="40" height="40" viewBox="0 0 40 40" fill="none" xmlns="http://www.w3.org/2000/svg">
<g opacity="0.85">
<path d="M39.073 20.8972C37.0401 19.0673 34.69 20.78 34.69 20.78V11.147C34.69 10.8235 34.4001 10.5611 34.0424 10.5611C33.6843 10.5611 33.3943 10.8235 33.3943 11.147V21.6043C33.3943 21.6043 30.3044 23.8067 28.9763 24.3451V7.00057C28.9763 6.19429 29.7016 5.53846 30.5933 5.53846H31.7773C32.669 5.53846 33.3943 6.19429 33.3943 7.00057V8.74832C33.3943 9.07212 33.6843 9.33427 34.0424 9.33427C34.4001 9.33427 34.69 9.07212 34.69 8.74832V7.00057C34.69 5.54823 33.3835 4.36688 31.7773 4.36688H30.5933C28.9871 4.36688 27.6802 5.54823 27.6802 7.00057V24.8095C27.2938 24.9075 26.8972 24.974 26.4942 25.0091V12.6564C26.4942 11.1968 25.1809 10.0093 23.567 10.0093H22.4117C20.7977 10.0093 19.4844 11.1968 19.4844 12.6564V18.6263L18.298 19.1958V17.2091C18.298 15.895 17.1157 14.8259 15.6627 14.8259H13.9239C12.4705 14.8259 11.2886 15.895 11.2886 17.2091V22.5601L9.1727 23.5754L3.23111 25.1108C2.19731 25.3778 1.33395 25.99 0.800682 26.8341C0.267074 27.6785 0.122281 28.6618 0.392966 29.6027L1.05753 31.9147C1.14731 32.2278 1.50102 32.4155 1.84765 32.3343C2.19394 32.2528 2.40184 31.933 2.31173 31.6196L1.64717 29.3079C1.26173 27.9669 2.11395 26.618 3.58753 26.2375L9.0198 24.8337L13.1027 34.6866C13.3761 35.3464 13.3329 37.2288 11.1731 37.9224L7.06797 38.7656C5.63725 39.0592 4.22745 38.2838 3.85821 36.9996L3.02489 34.1001C2.93478 33.787 2.58106 33.599 2.23478 33.6802C1.88815 33.7616 1.68058 34.0815 1.77036 34.3949L2.60402 37.2947C3.07248 38.9237 4.67297 40.0001 6.4547 40.0001C7.76392 40.0001 11.4604 39.065 11.4604 39.065C12.5853 38.8343 13.5445 38.1751 14.0916 37.2571C14.5432 36.4997 14.6772 35.6281 14.4835 34.7977L28.686 31.6538C29.8606 31.3935 30.9757 30.889 31.9099 30.1947L38.8215 25.0598C40.9286 23.37 39.6927 21.4547 39.073 20.8972ZM22.4117 11.1812H23.567C24.4664 11.1812 25.1982 11.8431 25.1982 12.6564V25.0384L21.1092 25.0369C20.7335 25.0338 20.9934 24.8095 21.014 24.7943L22.1916 23.9318C23.2902 23.1271 24.0078 22.0083 24.324 20.606C24.5248 19.7164 24.1495 18.8259 23.3452 18.2821C22.5939 17.7743 21.6276 17.6766 20.7805 18.0123V12.6564C20.7805 11.8431 21.5122 11.1812 22.4117 11.1812ZM12.5846 17.2091C12.5846 16.5414 13.1854 15.9978 13.9239 15.9978H15.6627C16.4012 15.9978 17.0023 16.5414 17.0023 17.2091V19.8177L12.5843 21.9381V17.2091H12.5846ZM37.999 24.1546L31.0871 29.2896C30.302 29.8731 29.3651 30.2969 28.3779 30.5155L14.0707 33.6829L10.223 24.3985L21.2091 19.1256C21.6556 18.9111 22.1643 18.9468 22.5689 19.2205C22.9736 19.4943 23.1552 19.9246 23.0543 20.3719C22.7995 21.5008 22.2348 22.3922 21.3758 23.0212L20.1982 23.8839C19.7156 24.2373 19.5377 24.8077 19.745 25.3372C19.9522 25.8664 20.4875 26.2088 21.1085 26.2088L25.83 26.2106H25.8334C27.5142 26.2106 29.1295 25.7486 30.5045 24.8742L35.7812 21.5191C36.52 21.0491 37.5147 21.1321 38.1458 21.7163C38.5093 22.052 39.2208 23.0496 37.999 24.1546Z" fill="#00A7AC"/>
<path d="M10.6195 35.0619C10.6195 33.789 9.47437 32.7532 8.06661 32.7532C6.65885 32.7532 5.51367 33.789 5.51367 35.0619C5.51367 36.3345 6.65885 37.3702 8.06661 37.3702C9.47437 37.3702 10.6195 36.3345 10.6195 35.0619ZM6.80971 35.0619C6.80971 34.4351 7.37336 33.9251 8.06661 33.9251C8.75952 33.9251 9.3235 34.4351 9.3235 35.0619C9.3235 35.6884 8.75985 36.1984 8.06661 36.1984C7.37336 36.1984 6.80971 35.6884 6.80971 35.0619Z" fill="#00A7AC"/>
<path d="M3.40729 18.3971L12.8273 9.81392L14.9462 10.8048C15.7053 11.1598 16.629 11.0383 17.2447 10.5024L22.3722 6.03947C22.3722 6.03947 22.2311 8.33167 24.3659 8.33167C25.4648 8.33167 26.3592 7.52294 26.3592 6.52898V1.80238C26.3592 1.79689 26.3589 1.79109 26.3589 1.78529C26.3518 0.552067 25.3544 0 24.3659 0H19.184C18.0847 0 17.1907 0.808722 17.1907 1.80238C17.1907 3.7836 19.4206 3.60476 19.4206 3.60476L15.5088 7.00933L13.3592 6.00407C12.5819 5.6403 11.6453 5.77366 11.0283 6.33519L0.577584 15.8577C-0.196671 16.5632 -0.191946 17.7067 0.588384 18.4068C0.964374 18.744 2.24827 19.445 3.40729 18.3971ZM1.49731 16.6832L11.9481 7.1607C12.0831 7.03802 12.2998 6.82317 12.7638 7.04504L15.3259 8.24317C15.5726 8.35852 15.873 8.31915 16.0732 8.1449L21.4774 3.44119C21.6678 3.27548 21.7278 3.02157 21.629 2.80001C21.5301 2.57814 21.2925 2.43318 21.0278 2.43318H19.184C18.7996 2.43318 18.4867 2.15028 18.4867 1.80238C18.4867 1.45478 18.7996 1.17188 19.184 1.17188H24.3659C24.5565 1.17188 25.0628 1.17188 25.0628 1.79872C25.0628 1.80391 25.0632 1.8091 25.0632 1.81459V6.52898C25.0632 6.87658 24.7503 7.15948 24.3659 7.15948C23.9811 7.15948 23.6682 6.87658 23.6682 6.52898V4.66221C23.6682 4.42722 23.513 4.21481 23.274 4.12296C23.035 4.03079 22.7583 4.07718 22.571 4.24014L16.3459 9.65828C16.1305 9.84566 15.8072 9.88838 15.5419 9.76417L13.0004 8.5755C12.749 8.45801 12.4422 8.50165 12.2427 8.68323L2.48757 17.5715C2.0623 17.9561 1.63265 17.693 1.50102 17.5749C1.22831 17.3298 1.22662 16.9298 1.49731 16.6832Z" fill="#00A7AC"/>
</g>
</svg>
