<svg width="26" height="26" viewBox="0 0 26 26" fill="none" xmlns="http://www.w3.org/2000/svg">
<g opacity="0.85">
<path d="M25.3971 13.5829C24.0758 12.3936 22.5483 13.5068 22.5483 13.5068V7.24546C22.5483 7.03519 22.3598 6.8646 22.1273 6.8646C21.8945 6.8646 21.7061 7.03519 21.7061 7.24546V14.0425C21.7061 14.0425 19.6976 15.4741 18.8344 15.824V4.55031C18.8344 4.02623 19.3058 3.59995 19.8854 3.59995H20.655C21.2346 3.59995 21.7061 4.02623 21.7061 4.55031V5.68633C21.7061 5.89679 21.8945 6.06718 22.1273 6.06718C22.3598 6.06718 22.5483 5.89679 22.5483 5.68633V4.55031C22.5483 3.6063 21.699 2.83844 20.655 2.83844H19.8854C18.8414 2.83844 17.9919 3.6063 17.9919 4.55031V16.1259C17.7408 16.1896 17.483 16.2329 17.221 16.2557V8.22656C17.221 7.27779 16.3674 6.50596 15.3184 6.50596H14.5674C13.5184 6.50596 12.6647 7.27779 12.6647 8.22656V12.1069L11.8936 12.4771V11.1857C11.8936 10.3316 11.1251 9.63672 10.1807 9.63672H9.05046C8.10581 9.63672 7.33755 10.3316 7.33755 11.1857V14.6638L5.96225 15.3238L2.10029 16.3217C1.42833 16.4953 0.867155 16.8932 0.520535 17.4419C0.173696 17.9907 0.0795817 18.6299 0.255524 19.2414L0.687483 20.7442C0.745838 20.9477 0.975748 21.0697 1.20105 21.017C1.42614 20.964 1.56127 20.7561 1.5027 20.5524L1.07074 19.0498C0.820208 18.1782 1.37414 17.3014 2.33195 17.0541L5.86287 16.1416L8.51671 22.5459C8.69441 22.9748 8.66633 24.1983 7.26252 24.6492L4.5942 25.1973C3.66425 25.3881 2.7479 24.884 2.5079 24.0493L1.96625 22.1647C1.90767 21.9612 1.67776 21.839 1.45268 21.8917C1.22738 21.9447 1.09246 22.1526 1.15081 22.3563L1.69268 24.2411C1.99718 25.3 3.03748 25.9996 4.19559 25.9996C5.04656 25.9996 7.44921 25.3918 7.44921 25.3918C8.1804 25.2419 8.80388 24.8134 9.1595 24.2167C9.45302 23.7244 9.54012 23.1579 9.4142 22.6181L18.6457 20.5746C19.4091 20.4054 20.134 20.0775 20.7412 19.6262L25.2337 16.2886C26.6033 15.1903 25.7999 13.9453 25.3971 13.5829ZM14.5674 7.26767H15.3184C15.903 7.26767 16.3786 7.69792 16.3786 8.22656V16.2747L13.7208 16.2737C13.4767 16.2717 13.6456 16.1259 13.659 16.116L14.4244 15.5555C15.1385 15.0324 15.6049 14.3052 15.8104 13.3937C15.941 12.8155 15.697 12.2367 15.1742 11.8832C14.6859 11.5531 14.0578 11.4896 13.5072 11.7078V8.22656C13.5072 7.69792 13.9828 7.26767 14.5674 7.26767ZM8.17996 11.1857C8.17996 10.7517 8.57046 10.3984 9.05046 10.3984H10.1807C10.6607 10.3984 11.0514 10.7517 11.0514 11.1857V12.8813L8.17974 14.2596V11.1857H8.17996ZM24.699 15.7003L20.2064 19.0379C19.6961 19.4172 19.0871 19.6927 18.4454 19.8347L9.14589 21.8935L6.64496 15.8587L13.7858 12.4314C14.076 12.292 14.4066 12.3152 14.6697 12.4931C14.9327 12.6711 15.0507 12.9508 14.9851 13.2416C14.8195 13.9753 14.4525 14.5547 13.8942 14.9635L13.1287 15.5243C12.815 15.754 12.6994 16.1248 12.8341 16.4689C12.9688 16.8129 13.3167 17.0354 13.7204 17.0354L16.7893 17.0366H16.7915C17.884 17.0366 18.934 16.7363 19.8277 16.168L23.2575 13.9872C23.7377 13.6817 24.3842 13.7357 24.7945 14.1153C25.0308 14.3335 25.4932 14.982 24.699 15.7003Z" fill="#00A7AC"/>
<path d="M6.90274 22.7898C6.90274 21.9625 6.15839 21.2892 5.24336 21.2892C4.32834 21.2892 3.58398 21.9625 3.58398 22.7898C3.58398 23.617 4.32834 24.2903 5.24336 24.2903C6.15839 24.2903 6.90274 23.617 6.90274 22.7898ZM4.4264 22.7898C4.4264 22.3824 4.79276 22.051 5.24336 22.051C5.69375 22.051 6.06033 22.3824 6.06033 22.7898C6.06033 23.1971 5.69397 23.5285 5.24336 23.5285C4.79276 23.5285 4.4264 23.1971 4.4264 22.7898Z" fill="#00A7AC"/>
<path d="M2.2147 11.9579L8.33759 6.37894L9.71486 7.02302C10.2082 7.25372 10.8087 7.17477 11.2088 6.82644L14.5417 3.92559C14.5417 3.92559 14.45 5.41549 15.8375 5.41549C16.5518 5.41549 17.1332 4.88983 17.1332 4.24377V1.17153C17.1332 1.16796 17.133 1.16419 17.133 1.16042C17.1284 0.358838 16.4801 0 15.8375 0H12.4694C11.7549 0 11.1737 0.52566 11.1737 1.17153C11.1737 2.4593 12.6232 2.34306 12.6232 2.34306L10.0806 4.55599L8.68334 3.90258C8.17811 3.66613 7.56933 3.75282 7.1683 4.11781L0.375423 10.3073C-0.127834 10.7659 -0.124763 11.5092 0.382443 11.9642C0.626832 12.1834 1.46135 12.6391 2.2147 11.9579ZM0.973233 10.8439L7.76611 4.65438C7.85386 4.57463 7.9947 4.43499 8.29635 4.5792L9.96166 5.35797C10.122 5.43295 10.3173 5.40736 10.4474 5.29409L13.9601 2.23673C14.0838 2.12902 14.1229 1.96399 14.0586 1.81998C13.9943 1.67577 13.8399 1.58154 13.6679 1.58154H12.4694C12.2195 1.58154 12.0162 1.39766 12.0162 1.17153C12.0162 0.945594 12.2195 0.761712 12.4694 0.761712H15.8375C15.9615 0.761712 16.2906 0.761712 16.2906 1.16915C16.2906 1.17252 16.2908 1.17589 16.2908 1.17946V4.24377C16.2908 4.4697 16.0874 4.65358 15.8375 4.65358C15.5874 4.65358 15.3841 4.4697 15.3841 4.24377V3.03038C15.3841 2.87764 15.2832 2.73958 15.1278 2.67988C14.9725 2.61997 14.7926 2.65012 14.6709 2.75605L10.6246 6.27777C10.4847 6.39957 10.2745 6.42734 10.1021 6.34661L8.45014 5.57398C8.2867 5.49761 8.08728 5.52598 7.95763 5.64401L1.61689 11.4213C1.34048 11.6712 1.0612 11.5003 0.975646 11.4235C0.798388 11.2642 0.797291 11.0042 0.973233 10.8439Z" fill="#00A7AC"/>
</g>
</svg>
