<svg width="30" height="22" viewBox="0 0 30 22" fill="none" xmlns="http://www.w3.org/2000/svg">
<path d="M27.2728 0H2.72725C1.22104 0 0 1.23121 0 2.75003V19.25C0 20.7688 1.22104 22 2.72725 22H27.2727C28.779 22 30 20.7688 30 19.25V2.75003C30.0001 1.23121 28.779 0 27.2728 0ZM2.72725 1.37501H27.2727C27.4286 1.37602 27.5831 1.40391 27.7295 1.45749L15.9273 13.3581C15.4204 13.8726 14.5958 13.8753 14.0856 13.3642C14.0836 13.3622 14.0816 13.3601 14.0796 13.3581L2.27045 1.45749C2.41694 1.40391 2.57145 1.37596 2.72725 1.37501ZM1.36366 19.25V2.75003C1.35668 2.66997 1.35668 2.58944 1.36366 2.50939L9.80457 11L1.36366 19.4906C1.35668 19.4106 1.35668 19.33 1.36366 19.25ZM27.2728 20.625H2.72725C2.57145 20.624 2.41694 20.5961 2.27045 20.5425L10.7727 11.9694L13.1114 14.3276C14.1505 15.3793 15.8384 15.3825 16.8815 14.3347C16.8839 14.3323 16.8863 14.3299 16.8886 14.3276L19.2273 11.9694L27.7295 20.5425C27.5831 20.5961 27.4286 20.624 27.2728 20.625ZM28.6364 19.4906L20.1955 11L28.6364 2.50939C28.6434 2.58944 28.6434 2.66997 28.6364 2.75003V19.25C28.6434 19.33 28.6434 19.4106 28.6364 19.4906Z" fill="#DFA100"/>
</svg>
