<svg width="40" height="40" viewBox="0 0 40 40" fill="none" xmlns="http://www.w3.org/2000/svg">
<path d="M39.3333 23.3333C39.5101 23.3333 39.6797 23.2631 39.8047 23.1381C39.9298 23.013 40 22.8435 40 22.6667V17.3333C40 17.1565 39.9298 16.987 39.8047 16.8619C39.6797 16.7369 39.5101 16.6667 39.3333 16.6667H35.6447C35.2394 14.7547 34.4853 12.9339 33.42 11.2953L36.0253 8.684C36.1501 8.55901 36.2202 8.38961 36.2202 8.213C36.2202 8.03639 36.1501 7.86699 36.0253 7.742L32.2587 3.97533C32.1337 3.85056 31.9643 3.78048 31.7877 3.78048C31.6111 3.78048 31.4417 3.85056 31.3167 3.97533L28.7047 6.58C27.0661 5.51471 25.2453 4.76056 23.3333 4.35533V0.666667C23.3333 0.489856 23.2631 0.320286 23.1381 0.195262C23.013 0.0702379 22.8435 0 22.6667 0H17.3333C17.1565 0 16.987 0.0702379 16.8619 0.195262C16.7369 0.320286 16.6667 0.489856 16.6667 0.666667V4.35533C14.7547 4.76056 12.9339 5.51471 11.2953 6.58L8.684 3.97467C8.55901 3.84989 8.38961 3.77981 8.213 3.77981C8.03639 3.77981 7.86699 3.84989 7.742 3.97467L3.97533 7.74133C3.85056 7.86632 3.78048 8.03572 3.78048 8.21233C3.78048 8.38895 3.85056 8.55834 3.97533 8.68333L6.58067 11.2947C5.51507 12.9334 4.76068 14.7545 4.35533 16.6667H0.666667C0.489856 16.6667 0.320286 16.7369 0.195262 16.8619C0.0702379 16.987 0 17.1565 0 17.3333V22.6667C0 22.8435 0.0702379 23.013 0.195262 23.1381C0.320286 23.2631 0.489856 23.3333 0.666667 23.3333H4.35533C4.76056 25.2453 5.51471 27.0661 6.58 28.7047L3.97467 31.316C3.84989 31.441 3.77981 31.6104 3.77981 31.787C3.77981 31.9636 3.84989 32.133 3.97467 32.258L7.74133 36.0247C7.86632 36.1494 8.03572 36.2195 8.21233 36.2195C8.38895 36.2195 8.55834 36.1494 8.68333 36.0247L11.2947 33.4193C12.9334 34.4849 14.7545 35.2393 16.6667 35.6447V39.3333C16.6667 39.5101 16.7369 39.6797 16.8619 39.8047C16.987 39.9298 17.1565 40 17.3333 40H22.6667C22.8435 40 23.013 39.9298 23.1381 39.8047C23.2631 39.6797 23.3333 39.5101 23.3333 39.3333V35.6447C25.2447 35.2378 27.0648 34.4826 28.7027 33.4167L34.142 38.856C34.7681 39.4766 35.6145 39.8239 36.496 39.822C37.3775 39.8201 38.2224 39.469 38.8457 38.8457C39.469 38.2224 39.8201 37.3775 39.822 36.496C39.8239 35.6145 39.4766 34.7681 38.856 34.142L33.4167 28.7027C34.4826 27.0648 35.2378 25.2447 35.6447 23.3333H39.3333ZM37.9133 37.9133C37.7276 38.0991 37.5071 38.2464 37.2644 38.347C37.0218 38.4475 36.7617 38.4992 36.499 38.4992C36.2363 38.4992 35.9762 38.4475 35.7336 38.347C35.4909 38.2464 35.2704 38.0991 35.0847 37.9133L22.3193 25.1487C22.0093 24.839 21.641 24.5938 21.2357 24.4272C20.8304 24.2606 20.3962 24.1759 19.958 24.178C19.819 24.1779 19.6801 24.1862 19.542 24.2027C18.6771 24.3066 17.7999 24.1968 16.9872 23.883C16.1745 23.5692 15.4512 23.061 14.8805 22.4028C14.3098 21.7446 13.9092 20.9566 13.7138 20.1076C13.5183 19.2587 13.5339 18.3748 13.7593 17.5333L16.7 20.4747C16.825 20.5997 16.9945 20.67 17.1713 20.67H20C20.1768 20.67 20.3464 20.5998 20.4714 20.4747C20.5964 20.3497 20.6667 20.1801 20.6667 20.0033V17.1713C20.6666 16.9945 20.5964 16.825 20.4713 16.7L17.5333 13.7593C18.3746 13.5345 19.2582 13.5192 20.1068 13.7149C20.9554 13.9106 21.743 14.3113 22.4009 14.8819C23.0587 15.4526 23.5667 16.1757 23.8803 16.9881C24.194 17.8005 24.3037 18.6774 24.2 19.542C24.1357 20.0464 24.1875 20.5589 24.3514 21.0402C24.5154 21.5215 24.7872 21.9591 25.146 22.3193L37.9133 35.0847C38.0991 35.2704 38.2464 35.4909 38.347 35.7336C38.4475 35.9762 38.4992 36.2363 38.4992 36.499C38.4992 36.7617 38.4475 37.0218 38.347 37.2644C38.2464 37.5071 38.0991 37.7276 37.9133 37.9133ZM26.0913 21.38C25.8757 21.1621 25.7127 20.8977 25.615 20.607C25.5172 20.3164 25.4872 20.0073 25.5273 19.7033C25.6702 18.5183 25.4921 17.3167 25.0116 16.2241C24.5311 15.1315 23.7659 14.1881 22.796 13.4924C21.8261 12.7968 20.6872 12.3745 19.4982 12.2697C18.3093 12.1649 17.114 12.3814 16.0373 12.8967C15.9413 12.9428 15.8576 13.0113 15.7935 13.0964C15.7293 13.1815 15.6865 13.2807 15.6686 13.3858C15.6507 13.4908 15.6583 13.5986 15.6907 13.7002C15.723 13.8017 15.7793 13.894 15.8547 13.9693L19.3333 17.4473V19.3333H17.4473L13.9693 15.8547C13.894 15.7793 13.8017 15.723 13.7002 15.6907C13.5986 15.6583 13.4908 15.6507 13.3858 15.6686C13.2807 15.6865 13.1815 15.7293 13.0964 15.7935C13.0113 15.8576 12.9428 15.9413 12.8967 16.0373C12.3816 17.1137 12.165 18.3086 12.2697 19.4972C12.3744 20.6858 12.7964 21.8245 13.4916 22.7942C14.1869 23.764 15.1299 24.5292 16.222 25.0098C17.3141 25.4905 18.5153 25.669 19.7 25.5267C20.004 25.4867 20.3132 25.5168 20.6038 25.6147C20.8944 25.7125 21.1588 25.8756 21.3767 26.0913L24.806 29.52C22.5405 30.6645 19.9413 30.9642 17.4748 30.3652C15.0083 29.7663 12.8359 28.308 11.3476 26.252C9.85921 24.196 9.15227 21.6769 9.3536 19.1467C9.55493 16.6165 10.6513 14.2409 12.4461 12.4461C14.2409 10.6513 16.6165 9.55493 19.1467 9.3536C21.6769 9.15227 24.196 9.85921 26.252 11.3476C28.308 12.8359 29.7663 15.0083 30.3652 17.4748C30.9642 19.9413 30.6645 22.5405 29.52 24.806L26.0913 21.38ZM34.4367 22.5573C34.1152 24.3973 33.442 26.1581 32.454 27.7433L30.5047 25.794C31.9033 23.2596 32.3398 20.3054 31.7339 17.4749C31.1281 14.6443 29.5206 12.1276 27.2072 10.3877C24.8937 8.64783 22.0298 7.80172 19.1423 8.005C16.2548 8.20829 13.5377 9.4473 11.4908 11.4942C9.44397 13.541 8.20496 16.2581 8.00167 19.1456C7.79839 22.0332 8.6445 24.897 10.3844 27.2105C12.1243 29.5239 14.6409 31.1314 17.4715 31.7373C20.3021 32.3431 23.2563 31.9066 25.7907 30.508L27.74 32.4573C26.1548 33.4453 24.394 34.1185 22.554 34.44C22.3996 34.4665 22.2595 34.5465 22.1582 34.6659C22.0569 34.7854 22.0009 34.9367 22 35.0933V38.6667H18V35.0933C17.9999 34.9361 17.9443 34.784 17.8429 34.6639C17.7415 34.5437 17.6009 34.4632 17.446 34.4367C15.343 34.0685 13.3469 33.2414 11.6 32.014C11.4716 31.9238 11.3155 31.8817 11.1592 31.8953C11.0029 31.9088 10.8563 31.9771 10.7453 32.088L8.21733 34.6113L5.392 31.786L7.91533 29.258C8.02628 29.147 8.09453 29.0005 8.10806 28.8442C8.1216 28.6878 8.07956 28.5317 7.98933 28.4033C6.76152 26.6554 5.93432 24.6582 5.56667 22.554C5.54 22.3985 5.45905 22.2575 5.3382 22.156C5.21735 22.0546 5.06444 21.9993 4.90667 22H1.33333V18H4.90667C5.06387 17.9999 5.21599 17.9443 5.33614 17.8429C5.4563 17.7415 5.53677 17.6009 5.56333 17.446C5.93146 15.343 6.75864 13.3469 7.986 11.6C8.07622 11.4716 8.11827 11.3155 8.10473 11.1592C8.09119 11.0029 8.02295 10.8563 7.912 10.7453L5.38867 8.21733L8.214 5.392L10.742 7.91533C10.853 8.02628 10.9995 8.09453 11.1558 8.10806C11.3122 8.1216 11.4683 8.07956 11.5967 7.98933C13.3446 6.76152 15.3418 5.93432 17.446 5.56667C17.6015 5.54 17.7425 5.45905 17.844 5.3382C17.9454 5.21735 18.0007 5.06444 18 4.90667V1.33333H22V4.90667C22.0001 5.06387 22.0557 5.21599 22.1571 5.33614C22.2585 5.4563 22.3991 5.53677 22.554 5.56333C24.6582 5.93099 26.6554 6.75819 28.4033 7.986C28.5317 8.07622 28.6878 8.11827 28.8442 8.10473C29.0005 8.09119 29.147 8.02295 29.258 7.912L31.786 5.38867L34.6113 8.214L32.088 10.742C31.9771 10.853 31.9088 10.9995 31.8953 11.1558C31.8817 11.3122 31.9238 11.4683 32.014 11.5967C33.2418 13.3446 34.069 15.3418 34.4367 17.446C34.4632 17.6009 34.5437 17.7415 34.6639 17.8429C34.784 17.9443 34.9361 17.9999 35.0933 18H38.6667V22H35.0933C34.9361 22.0001 34.784 22.0557 34.6639 22.1571C34.5437 22.2585 34.4632 22.3991 34.4367 22.554V22.5573Z" fill="#00A7AC"/>
<path d="M24.2399 23.3C24.1784 23.2363 24.1049 23.1855 24.0235 23.1506C23.9422 23.1156 23.8547 23.0972 23.7662 23.0965C23.6777 23.0957 23.5899 23.1126 23.508 23.1461C23.426 23.1796 23.3516 23.2291 23.289 23.2917C23.2264 23.3543 23.1769 23.4287 23.1434 23.5107C23.1099 23.5926 23.093 23.6804 23.0938 23.7689C23.0945 23.8574 23.1129 23.9449 23.1479 24.0262C23.1828 24.1076 23.2336 24.1811 23.2973 24.2426L23.7686 24.714C23.8943 24.8354 24.0627 24.9026 24.2375 24.9011C24.4123 24.8996 24.5795 24.8294 24.7032 24.7058C24.8268 24.5822 24.8969 24.415 24.8984 24.2402C24.8999 24.0654 24.8327 23.897 24.7113 23.7713L24.2399 23.3ZM33.6679 34.6133C33.7937 34.7347 33.9621 34.8019 34.1369 34.8004C34.3117 34.7989 34.4789 34.7288 34.6025 34.6052C34.7261 34.4816 34.7962 34.3144 34.7977 34.1396C34.7992 33.9648 34.732 33.7964 34.6106 33.6706L26.5973 25.6566C26.4722 25.5315 26.3025 25.4613 26.1256 25.4613C25.9487 25.4613 25.779 25.5315 25.6539 25.6566C25.5288 25.7817 25.4586 25.9514 25.4586 26.1283C25.4586 26.3052 25.5288 26.4749 25.6539 26.6L33.6679 34.6133ZM36.0253 36.9706C36.151 37.0921 36.3194 37.1593 36.4942 37.1577C36.669 37.1562 36.8362 37.0861 36.9598 36.9625C37.0834 36.8389 37.1535 36.6717 37.1551 36.4969C37.1566 36.3221 37.0894 36.1537 36.9679 36.028L36.4966 35.556C36.3715 35.4309 36.2019 35.3606 36.0249 35.3606C35.848 35.3606 35.6784 35.4309 35.5533 35.556C35.4282 35.6811 35.3579 35.8507 35.3579 36.0276C35.3579 36.2045 35.4282 36.3742 35.5533 36.4993L36.0253 36.9706Z" fill="#00A7AC"/>
</svg>
