<svg width="26" height="28" viewBox="0 0 26 28" fill="none" xmlns="http://www.w3.org/2000/svg">
<path d="M20.6573 11.323C20.6526 11.323 20.6479 11.323 20.6429 11.3228C20.0673 11.3046 19.4726 11.1214 18.8432 10.9273C17.6821 10.5692 16.3661 10.1633 14.8806 10.7549C14.5919 10.8693 14.2646 10.652 14.2646 10.3443V6.20231C14.2646 6.08501 14.3117 5.97258 14.3956 5.88959C16.6889 3.62172 18.7616 4.9253 20.766 6.18571C22.2324 7.10795 23.7488 8.06207 25.4876 7.81087C25.8379 7.76085 26.1139 8.13355 25.9525 8.44871C25.5927 9.15052 25.0664 9.7638 23.8174 9.74609C24.0398 10.0179 24.3168 10.5015 23.7943 10.6714C23.0057 10.9277 22.2781 10.7037 21.5795 10.3667C21.6474 10.507 21.7048 10.661 21.7048 10.8317C21.705 11.3429 21.0171 11.323 20.6573 11.323ZM16.4477 9.56793C17.4434 9.56793 18.336 9.84325 19.1104 10.0821C19.6549 10.25 20.1704 10.4089 20.6111 10.4351C20.4777 10.1471 20.3654 9.75428 20.6237 9.33466C20.7846 9.07328 21.089 9.09121 21.3228 9.23086C21.8377 9.51061 22.308 9.76579 22.7569 9.85852L22.4066 9.43049C22.1434 9.10891 22.4548 8.62488 22.8603 8.72182C23.7399 8.93119 24.2498 8.88626 24.5728 8.72448C22.9544 8.61138 21.5496 7.72787 20.2845 6.93201C18.1887 5.61404 16.8012 4.87395 15.1613 6.38933V9.73082C15.6069 9.61507 16.0361 9.56793 16.4477 9.56793Z" fill="#00A7AC"/>
<path d="M5.32788 11.3132C5.05777 11.3132 4.65205 11.2997 4.44113 11.1101C4.21944 10.9109 4.29229 10.5953 4.40123 10.358C3.71666 10.6995 2.97516 10.9155 2.18457 10.6154C1.68762 10.4269 1.96221 9.96585 2.1821 9.69739C0.932895 9.71465 0.406806 9.10203 0.0470398 8.40001C-0.113678 8.0864 0.161134 7.70993 0.512607 7.76238C2.22312 8.01159 3.72518 7.06434 5.17882 6.14852C7.19194 4.87991 9.27388 3.56792 11.6019 5.83889C11.6871 5.9221 11.7351 6.03542 11.7351 6.15383V10.2958C11.7351 10.6046 11.4047 10.8228 11.1155 10.7051C9.67915 10.1188 8.43913 10.5149 7.24036 10.8985C6.57798 11.1099 5.94139 11.3132 5.32788 11.3132ZM5.37585 9.28617C5.6789 9.70469 5.51011 10.1363 5.36912 10.4273C5.83155 10.418 6.3684 10.2465 6.9642 10.0559C8.04283 9.71111 9.35323 9.29215 10.8385 9.67968V6.34261C9.16741 4.81904 7.77026 5.56578 5.66097 6.89459C4.40885 7.68359 3.01865 8.55936 1.42536 8.67511C1.74814 8.83733 2.25809 8.88293 3.13924 8.67312C3.54384 8.5764 3.8572 9.05888 3.59293 9.38178L3.21007 9.84921C3.66152 9.77153 4.15354 9.49864 4.76077 9.13678C4.83339 9.09362 5.1824 9.01882 5.37585 9.28617Z" fill="#00A7AC"/>
<path d="M17.8391 17.9778C17.4242 16.5656 15.7367 16.0457 14.7285 15.735L14.5366 15.6754C14.16 15.5568 13.8039 15.4851 13.4623 15.4395V5.1395C14.7099 4.93035 15.6632 3.86801 15.6632 2.58967C15.6632 1.16171 14.4748 0 13.0139 0C11.5531 0 10.3644 1.16171 10.3644 2.58967C10.3644 3.86801 11.3178 4.93035 12.5654 5.1395V15.3753C12.1698 15.3709 11.7961 15.3922 11.4424 15.4134C10.4631 15.4725 9.68974 15.5192 8.95071 14.9588C8.59789 14.6915 8.00388 14.1242 7.98864 13.3299C7.97138 12.4169 8.7539 11.7678 8.91081 11.647C9.10605 11.4967 9.14079 11.2185 8.98859 11.0257C8.83639 10.833 8.55463 10.7987 8.35939 10.9489C8.05589 11.1826 7.06759 12.0462 7.09225 13.3465C7.11444 14.5117 7.92386 15.2968 8.40445 15.6611C9.40955 16.4231 10.4236 16.3622 11.4969 16.2971C11.845 16.2761 12.1987 16.2564 12.5654 16.2608V19.9007C12.2772 19.8969 12.0055 19.9122 11.7486 19.9277C11.0595 19.9693 10.5615 19.9994 10.0789 19.6335C9.84889 19.4589 9.46133 19.0906 9.45169 18.5851C9.44071 18.0028 9.94954 17.5812 10.0515 17.5027C10.2468 17.3524 10.2817 17.0742 10.1295 16.8814C9.97756 16.6887 9.69557 16.6539 9.50033 16.8044C9.27394 16.9786 8.53692 17.6231 8.5553 18.6013C8.57189 19.4775 9.17464 20.0638 9.53284 20.3353C10.2813 20.9026 11.0548 20.8561 11.8033 20.811C12.0517 20.7959 12.304 20.782 12.5654 20.7862V23.8951C12.3587 23.8913 12.1673 23.9019 11.9943 23.9123C11.5121 23.9409 11.2481 23.9471 10.9838 23.7468C10.8778 23.6667 10.6307 23.4493 10.6254 23.164C10.6193 22.8402 10.9309 22.5913 10.9663 22.5638C11.1618 22.4135 11.1967 22.1353 11.0448 21.9426C10.8926 21.7494 10.611 21.7151 10.4156 21.8651C10.251 21.9917 9.71507 22.4602 9.72897 23.1804C9.74107 23.8262 10.1786 24.2525 10.438 24.449C10.9804 24.8602 11.5238 24.8275 12.0492 24.7958C12.2175 24.7857 12.3886 24.7761 12.5656 24.7801V27.0011C12.5656 27.2454 12.7665 27.4437 13.0139 27.4437C13.2614 27.4437 13.4623 27.2454 13.4623 27.0011V24.9521C13.8106 25.0619 14.2923 25.2358 14.3793 25.5322C14.4447 25.7555 14.2925 26.0281 14.1961 26.1709C13.8776 26.6414 14.6198 27.1387 14.9414 26.6629C15.2624 26.1886 15.3658 25.7125 15.2405 25.2856C15.01 24.5013 14.1074 24.2233 13.6223 24.0737L13.5338 24.0462C13.5093 24.0385 13.486 24.0334 13.462 24.0265V20.8942C13.5427 20.9137 13.6243 20.9356 13.7077 20.9619L13.8476 21.0053C14.4124 21.1792 15.3575 21.4705 15.5357 22.0774C15.6536 22.4784 15.435 22.9217 15.231 23.2231C14.9128 23.6939 15.6545 24.1907 15.9766 23.7151C16.4209 23.0587 16.5661 22.4071 16.3969 21.8308C16.0844 20.7671 14.8513 20.3871 14.1145 20.1603L13.9798 20.1187C13.8007 20.0622 13.6292 20.0222 13.4618 19.9899V16.3325C13.7198 16.3728 13.9859 16.4315 14.264 16.5189L14.4613 16.5802C15.2974 16.8378 16.6972 17.269 16.9779 18.2246C17.1648 18.8609 16.8331 19.5428 16.5219 20.0027C16.2034 20.4732 16.9456 20.9701 17.2675 20.4945C17.8655 19.6105 18.063 18.7405 17.8391 17.9778C18.063 18.7405 17.4244 16.5656 17.8391 17.9778ZM11.2611 2.58967C11.2611 1.64994 12.0474 0.885281 13.0139 0.885281C13.9805 0.885281 14.7666 1.64994 14.7666 2.58967C14.7666 3.52939 13.9803 4.29428 13.0139 4.29428C12.0476 4.29428 11.2611 3.52961 11.2611 2.58967Z" fill="#00A7AC"/>
<path d="M17.1335 15.6097C16.6449 15.6097 16.5216 14.9147 16.9811 14.7507C17.6697 14.5051 18.1218 13.935 18.133 13.2984C18.1436 12.6949 17.743 12.1263 17.1125 11.8499C16.8861 11.7507 16.7841 11.4891 16.8845 11.2656C16.9852 11.0423 17.2503 10.942 17.4763 11.0405C18.4366 11.4615 19.046 12.3536 19.0294 13.3137C19.0117 14.3207 18.3274 15.2115 17.286 15.5831C17.2358 15.6011 17.1842 15.6097 17.1335 15.6097Z" fill="#00A7AC"/>
<path d="M11.5801 27.1049C11.3225 27.1049 11.0699 27.0161 10.8697 26.8521C10.6404 26.664 10.4999 26.3929 10.4839 26.1083C10.453 25.5521 10.898 25.0546 11.4754 24.9995C11.7208 24.976 11.9409 25.1542 11.9647 25.3974C11.9885 25.6406 11.808 25.8571 11.5617 25.8805C11.3765 25.8982 11.3236 26.1005 11.4792 26.195C11.6457 26.2964 11.8316 26.184 11.9936 26.3575C12.3139 26.7005 11.9714 27.1049 11.5801 27.1049Z" fill="#00A7AC"/>
</svg>
