<svg width="40" height="40" viewBox="0 0 40 40" fill="none" xmlns="http://www.w3.org/2000/svg">
<g opacity="0.85">
<path d="M31.7804 16.5035C31.7732 16.5035 31.7659 16.5035 31.7583 16.5032C30.8727 16.4768 29.9578 16.2097 28.9894 15.9268C27.2031 15.4048 25.1784 14.8132 22.893 15.6755C22.4488 15.8422 21.9453 15.5255 21.9453 15.0771V9.03998C21.9453 8.86902 22.0177 8.70515 22.1467 8.58418C25.675 5.27869 28.8639 7.17869 31.9477 9.01579C34.2037 10.36 36.5367 11.7506 39.2118 11.3845C39.7508 11.3116 40.1754 11.8548 39.9271 12.3142C39.3736 13.3371 38.5638 14.231 36.6423 14.2051C36.9844 14.6013 37.4106 15.3061 36.6067 15.5539C35.3935 15.9274 34.2741 15.601 33.1992 15.1097C33.3037 15.3142 33.3919 15.5387 33.3919 15.7874C33.3923 16.5326 32.3339 16.5035 31.7804 16.5035ZM25.3039 13.9455C26.8358 13.9455 28.209 14.3468 29.4005 14.6948C30.2382 14.9397 31.0314 15.1713 31.7094 15.2093C31.5042 14.7897 31.3314 14.2171 31.7287 13.6055C31.9763 13.2245 32.4446 13.2506 32.8043 13.4542C33.5964 13.8619 34.32 14.2339 35.0107 14.369L34.4717 13.7451C34.0668 13.2764 34.5459 12.571 35.1697 12.7122C36.5229 13.0174 37.3075 12.9519 37.8044 12.7161C35.3145 12.5513 33.1533 11.2635 31.2069 10.1035C27.9825 8.18257 25.8478 7.10386 23.3248 9.31257V14.1829C24.0103 14.0142 24.6707 13.9455 25.3039 13.9455Z" fill="#00A7AC"/>
<path d="M8.19695 16.4894C7.7814 16.4894 7.1572 16.4697 6.83268 16.1933C6.49162 15.903 6.6037 15.443 6.7713 15.0971C5.71809 15.5949 4.57729 15.9097 3.36097 15.4723C2.59641 15.1975 3.01886 14.5255 3.35717 14.1342C1.43526 14.1594 0.625873 13.2665 0.0723708 12.2433C-0.174895 11.7862 0.247905 11.2375 0.788647 11.3139C3.42028 11.6771 5.7312 10.2965 7.96762 8.96166C11.0648 7.11263 14.2679 5.20037 17.8496 8.51037C17.9807 8.63166 18.0545 8.79682 18.0545 8.9694V15.0065C18.0545 15.4565 17.5461 15.7746 17.1013 15.603C14.8914 14.7484 12.9836 15.3259 11.1393 15.8849C10.1202 16.193 9.14084 16.4894 8.19695 16.4894ZM8.27076 13.5349C8.73701 14.1449 8.47733 14.7739 8.26041 15.1981C8.97186 15.1846 9.7978 14.9346 10.7144 14.6568C12.3739 14.1542 14.39 13.5436 16.675 14.1084V9.24456C14.1041 7.02392 11.9546 8.11231 8.70942 10.0491C6.78302 11.1991 4.6442 12.4755 2.19292 12.6442C2.68952 12.8807 3.47408 12.9471 4.82973 12.6413C5.45221 12.5004 5.93432 13.2036 5.52773 13.6742L4.93871 14.3555C5.63326 14.2423 6.39023 13.8446 7.32446 13.3171C7.43619 13.2542 7.97314 13.1452 8.27076 13.5349Z" fill="#00A7AC"/>
<path d="M27.4449 26.2032C26.8065 24.1448 24.2104 23.3871 22.6592 22.9342L22.364 22.8474C21.7847 22.6745 21.2367 22.57 20.7111 22.5035V7.49097C22.6306 7.18613 24.0973 5.63774 24.0973 3.77452C24.0973 1.69323 22.2689 0 20.0214 0C17.7739 0 15.9451 1.69323 15.9451 3.77452C15.9451 5.63774 17.4118 7.18613 19.3313 7.49097V22.41C18.7226 22.4035 18.1478 22.4345 17.6036 22.4655C16.0969 22.5516 14.9071 22.6197 13.7701 21.8029C13.2273 21.4132 12.3134 20.5865 12.29 19.4287C12.2634 18.0981 13.4673 17.1519 13.7087 16.9758C14.0091 16.7568 14.0625 16.3513 13.8284 16.0703C13.5942 15.7894 13.1607 15.7394 12.8604 15.9584C12.3934 16.299 10.8729 17.5577 10.9109 19.4529C10.945 21.1513 12.1903 22.2955 12.9297 22.8265C14.476 23.9371 16.0362 23.8484 17.6874 23.7535C18.2229 23.7229 18.7671 23.6942 19.3313 23.7006V29.0058C18.8878 29.0003 18.4699 29.0226 18.0747 29.0452C17.0146 29.1058 16.2483 29.1497 15.5058 28.6164C15.152 28.3619 14.5557 27.8252 14.5409 27.0884C14.524 26.2397 15.3068 25.6252 15.4637 25.5106C15.7641 25.2916 15.8179 24.8861 15.5837 24.6052C15.3499 24.3242 14.9161 24.2735 14.6157 24.4929C14.2674 24.7468 13.1335 25.6861 13.1618 27.1119C13.1873 28.389 14.1146 29.2435 14.6657 29.6394C15.8172 30.4661 17.0073 30.3984 18.1588 30.3326C18.5409 30.3106 18.9292 30.2903 19.3313 30.2964V34.8277C19.0134 34.8223 18.7189 34.8377 18.4526 34.8529C17.7108 34.8945 17.3046 34.9035 16.898 34.6116C16.7349 34.4948 16.3548 34.1781 16.3466 33.7623C16.3372 33.2903 16.8166 32.9274 16.8711 32.8874C17.1718 32.6684 17.2256 32.2629 16.9918 31.9819C16.7576 31.7003 16.3245 31.6503 16.0238 31.869C15.7706 32.0535 14.9461 32.7365 14.9675 33.7861C14.9861 34.7274 15.6592 35.3487 16.0583 35.6352C16.8928 36.2345 17.7288 36.1868 18.5371 36.1406C18.7961 36.1258 19.0592 36.1119 19.3317 36.1177V39.3548C19.3317 39.711 19.6407 40 20.0214 40C20.4021 40 20.7111 39.711 20.7111 39.3548V36.3684C21.247 36.5284 21.9881 36.7819 22.1219 37.2139C22.2226 37.5394 21.9885 37.9368 21.8402 38.1448C21.3501 38.8306 22.492 39.5555 22.9869 38.8619C23.4807 38.1706 23.6397 37.4768 23.4469 36.8545C23.0924 35.7113 21.7036 35.3061 20.9573 35.0881L20.8211 35.0481C20.7835 35.0368 20.7477 35.0294 20.7108 35.0194V30.4539C20.8349 30.4823 20.9605 30.5142 21.0887 30.5526L21.3039 30.6158C22.173 30.8694 23.6269 31.2939 23.9011 32.1784C24.0825 32.7629 23.7462 33.409 23.4324 33.8484C22.9427 34.5345 24.0839 35.2587 24.5794 34.5655C25.2629 33.6087 25.4864 32.659 25.226 31.819C24.7453 30.2687 22.8482 29.7148 21.7147 29.3842L21.5074 29.3235C21.2319 29.2413 20.968 29.1829 20.7104 29.1358V23.8052C21.1074 23.8639 21.5167 23.9494 21.9447 24.0768L22.2482 24.1661C23.5345 24.5416 25.6882 25.17 26.1199 26.5629C26.4075 27.4903 25.8971 28.4842 25.4185 29.1545C24.9284 29.8403 26.0703 30.5645 26.5655 29.8713C27.4856 28.5829 27.7894 27.3148 27.4449 26.2032C27.7894 27.3148 26.8069 24.1448 27.4449 26.2032ZM17.3246 3.77452C17.3246 2.40484 18.5344 1.29032 20.0214 1.29032C21.5084 1.29032 22.7179 2.40484 22.7179 3.77452C22.7179 5.14419 21.5081 6.25903 20.0214 6.25903C18.5347 6.25903 17.3246 5.14452 17.3246 3.77452Z" fill="#00A7AC"/>
<path d="M26.3613 22.7516C25.6095 22.7516 25.4198 21.7387 26.1268 21.4997C27.1862 21.1416 27.8818 20.3107 27.899 19.3829C27.9152 18.5033 27.299 17.6745 26.3289 17.2716C25.9805 17.1271 25.8236 16.7458 25.9781 16.42C26.133 16.0945 26.5409 15.9484 26.8886 16.092C28.366 16.7055 29.3036 18.0058 29.2781 19.4052C29.2509 20.8729 28.198 22.1713 26.5958 22.7129C26.5185 22.7391 26.4392 22.7516 26.3613 22.7516Z" fill="#00A7AC"/>
<path d="M17.8157 39.5062C17.4194 39.5062 17.0308 39.3768 16.7228 39.1378C16.37 38.8636 16.1538 38.4684 16.1293 38.0536C16.0817 37.243 16.7663 36.5178 17.6546 36.4375C18.0322 36.4033 18.3709 36.663 18.4074 37.0175C18.444 37.372 18.1664 37.6875 17.7874 37.7217C17.5025 37.7475 17.4211 38.0423 17.6605 38.1801C17.9167 38.3278 18.2026 38.1639 18.4519 38.4168C18.9447 38.9168 18.4178 39.5062 17.8157 39.5062Z" fill="#00A7AC"/>
</g>
</svg>
