<svg width="34" height="34" viewBox="0 0 34 34" fill="none" xmlns="http://www.w3.org/2000/svg">
<path d="M27.2101 19.6369H6.79023L4.59668 23.9724H6.58083V33.7273H27.4195V23.9724H29.4037L27.2101 19.6369ZM26.5322 20.7208L27.6289 22.8885H18.9843L17.8876 20.7208H26.5322ZM7.46821 20.7208H16.1128L15.016 22.8885H6.37144L7.46821 20.7208ZM26.3228 32.6434H17.5486V28.8498H16.4518V32.6434H7.67761V23.9724H15.694L16.4518 22.4744V27.224H17.5486V22.4744L18.3064 23.9724H26.3228V32.6434Z" fill="#00A7AC"/>
<path d="M8.77441 28.3079H12.0647V29.3918H8.77441V28.3079Z" fill="#00A7AC"/>
<path d="M8.77441 30.4757H12.0647V31.5595H8.77441V30.4757Z" fill="#00A7AC"/>
<path d="M13.1611 30.4757H14.2579V31.5595H13.1611V30.4757Z" fill="#00A7AC"/>
<path d="M14.4671 8.9414L16.9996 8.30341L19.5321 8.94087L19.7306 6.25342L21.0758 3.98248L18.6964 2.96476L16.9996 0.891487L15.3022 2.96476L12.9229 3.98248L14.2681 6.25342L14.4671 8.9414ZM15.9856 3.85308L16.9996 2.61467L18.0136 3.85361L19.504 4.4916L18.6557 5.92371L18.5339 7.57174L16.9996 7.1854L15.4653 7.57121L15.3435 5.92318L14.4952 4.49081L15.9856 3.85308Z" fill="#00A7AC"/>
<path d="M6.0213 10.0475L6.81817 8.70298L5.4065 8.09859L4.38711 6.85278L3.36772 8.09806L1.95605 8.70245L2.75293 10.047L2.87075 11.6505L4.38711 11.2695L5.90401 11.6511L6.0213 10.0475ZM4.94648 9.71672L4.90471 10.2809L4.38711 10.151L3.87005 10.2809L3.82775 9.71672L3.52785 9.20998L4.05053 8.98638L4.38711 8.57596L4.72316 8.98691L5.24584 9.21078L4.94648 9.71672Z" fill="#00A7AC"/>
<path d="M31.2469 10.0475L32.0438 8.70298L30.6321 8.09859L29.6127 6.85278L28.5933 8.09806L27.1816 8.70245L27.9785 10.047L28.0963 11.6505L29.6127 11.2695L31.1296 11.6511L31.2469 10.0475ZM30.1721 9.71672L30.1303 10.2809L29.6127 10.151L29.0956 10.2809L29.0539 9.71672L28.754 9.20998L29.2767 8.98638L29.6127 8.57596L29.9487 8.98691L30.4714 9.21078L30.1721 9.71672Z" fill="#00A7AC"/>
<path d="M6.82486 13.0427C7.86916 13.731 8.79697 14.5709 9.58072 15.5399L11.7529 18.222L11.3035 14.6711C11.069 12.8172 10.067 11.1107 8.55464 9.99008L8.02928 9.60082L6.42188 12.777L6.82486 13.0427ZM8.40549 11.2814C9.33277 12.1486 9.96176 13.3028 10.1773 14.5515C9.4846 13.7476 8.6987 13.0313 7.83247 12.414L8.40549 11.2814Z" fill="#00A7AC"/>
<path d="M22.6964 14.6711L22.2471 18.222L24.4192 15.5394C25.2035 14.5703 26.1308 13.7304 27.1751 13.0422L27.5775 12.7765L25.9701 9.60029L25.4447 9.9906C23.9329 11.1113 22.9304 12.8172 22.6964 14.6711ZM26.1674 12.414C25.3012 13.0313 24.5148 13.7471 23.8226 14.5515C24.0387 13.3028 24.6671 12.1486 25.5944 11.2814L26.1674 12.414Z" fill="#00A7AC"/>
<path d="M19.1934 18.5531H20.2901V16.2824C20.2901 13.6794 21.2185 11.1454 22.9054 9.14515L22.0625 8.45133C20.2122 10.6458 19.1934 13.4269 19.1934 16.2824V18.5531Z" fill="#00A7AC"/>
<path d="M23.0322 6.63049H24.129V7.71436H23.0322V6.63049Z" fill="#00A7AC"/>
<path d="M24.6777 4.46276H25.7745V5.54663H24.6777V4.46276Z" fill="#00A7AC"/>
<path d="M13.7095 18.5531H14.8062V16.2824C14.8062 13.4264 13.7874 10.6458 11.9377 8.45133L11.0947 9.14515C12.7811 11.1454 13.7095 13.6794 13.7095 16.2824V18.5531Z" fill="#00A7AC"/>
<path d="M9.87109 6.63049H10.9679V7.71436H9.87109V6.63049Z" fill="#00A7AC"/>
<path d="M8.22559 4.46276H9.32236V5.54663H8.22559V4.46276Z" fill="#00A7AC"/>
<path d="M16.4512 9.34018H17.5479V10.4241H16.4512V9.34018Z" fill="#00A7AC"/>
<path d="M16.4512 11.5079H17.5479V18.5531H16.4512V11.5079Z" fill="#00A7AC"/>
<path d="M31.8066 14.7595H32.9034V15.8434H31.8066V14.7595Z" fill="#00A7AC"/>
<path d="M31.8066 16.9273H32.9034V18.0111H31.8066V16.9273Z" fill="#00A7AC"/>
<path d="M32.9033 15.8434H34.0001V16.9273H32.9033V15.8434Z" fill="#00A7AC"/>
<path d="M30.71 15.8434H31.8067V16.9273H30.71V15.8434Z" fill="#00A7AC"/>
<path d="M30.1611 0.127274H31.2579V1.21114H30.1611V0.127274Z" fill="#00A7AC"/>
<path d="M30.1611 2.29501H31.2579V3.37888H30.1611V2.29501Z" fill="#00A7AC"/>
<path d="M31.2578 1.21114H32.3546V2.29501H31.2578V1.21114Z" fill="#00A7AC"/>
<path d="M29.0645 1.21114H30.1612V2.29501H29.0645V1.21114Z" fill="#00A7AC"/>
<path d="M1.09668 16.9273H2.19345V18.0111H1.09668V16.9273Z" fill="#00A7AC"/>
<path d="M1.09668 19.095H2.19345V20.1789H1.09668V19.095Z" fill="#00A7AC"/>
<path d="M2.19336 18.0111H3.29013V19.095H2.19336V18.0111Z" fill="#00A7AC"/>
<path d="M0 18.0111H1.09677V19.095H0V18.0111Z" fill="#00A7AC"/>
<path d="M1.09668 0.127274H2.19345V1.21114H1.09668V0.127274Z" fill="#00A7AC"/>
<path d="M1.09668 2.29501H2.19345V3.37888H1.09668V2.29501Z" fill="#00A7AC"/>
<path d="M2.19336 1.21114H3.29013V2.29501H2.19336V1.21114Z" fill="#00A7AC"/>
<path d="M0 1.21114H1.09677V2.29501H0V1.21114Z" fill="#00A7AC"/>
</svg>
