<svg width="12" height="12" viewBox="0 0 12 12" fill="none" xmlns="http://www.w3.org/2000/svg">
<g clip-path="url(#clip0_2548_192)">
<mask id="mask0_2548_192" style="mask-type:alpha" maskUnits="userSpaceOnUse" x="0" y="0" width="12" height="12">
<path d="M12 0H0V12H12V0Z" fill="#D9D9D9"/>
</mask>
<g mask="url(#mask0_2548_192)">
<path d="M10.1036 2.4831L9.09475 2.33329V0.25936C9.09475 0.179298 9.05313 0.105048 8.98045 0.0557353C8.90776 0.00642283 8.8146 -0.0106397 8.72617 0.00886033L3.72698 1.09073C3.64028 1.10948 3.58766 1.18579 3.60923 1.26117C3.63058 1.33654 3.71814 1.38248 3.80527 1.36354L8.77168 0.288985V2.28548L8.5297 2.24948V0.969422C8.5297 0.88936 8.48807 0.81511 8.41561 0.765797C8.34315 0.716672 8.25062 0.699235 8.16069 0.718735L4.11669 1.59379L2.53973 1.35961C2.4925 1.35267 2.4444 1.36392 2.40817 1.39073C2.37172 1.41736 2.35059 1.45673 2.35059 1.49817V10.7415C2.35059 10.8099 2.40752 10.8684 2.48516 10.8802L10.004 11.9972C10.0206 11.9994 10.0372 12.0009 10.0534 12.0009C10.1231 12.0009 10.191 11.9794 10.2453 11.9398C10.3122 11.8903 10.3506 11.8185 10.3506 11.7424V2.73773C10.3508 2.61154 10.2471 2.50448 10.1036 2.4831ZM10.0275 11.7152L2.6743 10.623V1.66485L7.56243 2.39067C7.64848 2.40304 7.73388 2.35242 7.74898 2.27573C7.76408 2.19923 7.70477 2.12648 7.61656 2.11354L4.91078 1.71173L8.2062 0.998672V2.36779L8.20922 2.36704C8.209 2.43454 8.26162 2.49473 8.34077 2.50635L10.0275 2.75704V11.7152ZM6.3728 3.43017C5.68784 3.32817 5.04428 3.46823 4.56032 3.82317C4.08521 4.17154 3.8236 4.68548 3.8236 5.27029C3.8236 6.07091 4.32546 6.8781 5.13335 7.37685C5.20603 7.42223 5.30697 7.40666 5.35894 7.34366C5.4107 7.28029 5.39367 7.19254 5.32055 7.14754C4.9289 6.90566 4.62136 6.58298 4.41798 6.22598L5.33457 6.3621C5.48231 7.10404 5.81638 7.73704 6.31845 7.81166C6.46446 7.83323 6.60852 7.84391 6.74957 7.84391C7.27041 7.84391 7.75027 7.69785 8.13114 7.41848C8.60604 7.0701 8.86765 6.55598 8.86765 5.97154C8.86765 4.77454 7.74855 3.63435 6.3728 3.43017ZM8.54436 5.97135C8.54436 6.17216 8.50727 6.3621 8.43869 6.5376L7.39744 6.38291C7.42656 6.18585 7.44338 5.97735 7.44338 5.75966C7.44338 5.56673 7.43044 5.36985 7.40563 5.17616L8.4223 5.3271C8.50015 5.53541 8.54436 5.75216 8.54436 5.97135ZM5.57116 5.48179C5.57116 5.27385 5.58647 5.08429 5.61084 4.90973L7.07458 5.12723C7.10348 5.32485 7.12009 5.53673 7.12009 5.76004C7.12009 5.96948 7.10478 6.16054 7.07998 6.33604L5.61731 6.11891C5.58798 5.91979 5.57116 5.7066 5.57116 5.48179ZM8.2806 5.02092L7.35733 4.88367C7.28292 4.50773 7.16064 4.16067 6.99285 3.89854C7.54798 4.13498 8.00908 4.54129 8.2806 5.02092ZM6.10063 3.77198C6.16209 3.72679 6.22183 3.70467 6.28179 3.70467C6.29408 3.70467 6.30616 3.7056 6.31845 3.70748C6.58502 3.74704 6.87229 4.18317 7.02002 4.83379L5.66109 4.63185C5.76095 4.19367 5.93068 3.89648 6.10063 3.77198ZM4.76887 4.03804C5.04299 3.83723 5.38051 3.72023 5.7493 3.68948C5.56944 3.8931 5.42968 4.20679 5.34363 4.58479L4.38585 4.44248C4.48506 4.28929 4.61295 4.1526 4.76887 4.03804ZM4.27413 5.91923C4.19433 5.70735 4.1471 5.48891 4.1471 5.27029C4.1471 5.07079 4.18355 4.88217 4.25127 4.70779L5.29187 4.86229C5.26319 5.05804 5.24766 5.26598 5.24766 5.48179C5.24766 5.67604 5.2606 5.87441 5.28583 6.06941L4.27413 5.91923ZM6.59062 7.46966C6.51687 7.52385 6.44526 7.54448 6.3728 7.53416C6.10688 7.4946 5.82004 7.06054 5.67231 6.41216L7.02951 6.61373C6.92922 7.04985 6.75992 7.34535 6.59062 7.46966ZM7.92238 7.20341C7.64848 7.40479 7.31096 7.52198 6.94152 7.55254C7.12074 7.34985 7.2592 7.03635 7.34525 6.6606L8.30325 6.80291C8.20447 6.9546 8.07723 7.08998 7.92238 7.20341ZM8.71151 9.57285C8.70223 9.57285 8.69339 9.57247 8.68412 9.57097L3.96335 8.86972C3.87536 8.85641 3.81605 8.78385 3.83115 8.70754C3.84625 8.63104 3.92842 8.5791 4.0177 8.59241L8.73825 9.29366C8.82646 9.30697 8.88577 9.37954 8.87067 9.45585C8.85708 9.52466 8.78893 9.57285 8.71151 9.57285ZM8.11281 10.2086C8.10354 10.2086 8.0947 10.2082 8.08542 10.2067L4.56183 9.68329C4.47384 9.66997 4.41453 9.59741 4.42963 9.5211C4.44472 9.4446 4.52776 9.39266 4.61618 9.40597L8.13955 9.92947C8.22776 9.94279 8.28707 10.0153 8.27197 10.0916C8.25839 10.1604 8.19024 10.2086 8.11281 10.2086Z" fill="#00A7AC"/>
</g>
</g>
<defs>
<clipPath id="clip0_2548_192">
<rect width="12" height="12" fill="white"/>
</clipPath>
</defs>
</svg>
