<svg width="27" height="26" viewBox="0 0 27 26" fill="none" xmlns="http://www.w3.org/2000/svg">
<path d="M22.2873 19.8752C22.4763 19.5574 22.5269 19.1646 22.3909 18.7922C22.1429 18.1169 21.3649 17.7651 20.6564 18.0079C20.6543 18.0086 20.6523 18.0093 20.6502 18.0101L19.354 18.4781C19.3634 18.3119 19.3412 18.1426 19.2819 17.9793C19.1612 17.6505 18.9148 17.3881 18.5881 17.2406C18.262 17.0932 17.8921 17.0776 17.5468 17.1966C17.5449 17.1973 17.5431 17.198 17.5412 17.1986L15.1257 18.071C15.1315 17.9173 15.1076 17.7625 15.053 17.6135C14.9393 17.3033 14.7073 17.0545 14.3997 16.9129C14.0862 16.7685 13.7305 16.7523 13.3937 16.8686L8.97923 18.4529C8.8089 18.3921 8.65125 18.3288 8.49837 18.2671C7.50682 17.8668 6.76965 17.6453 4.88155 18.2557C4.78896 17.7817 4.35885 17.4218 3.84292 17.4218H1.7687C1.18545 17.4218 0.710938 17.8814 0.710938 18.4463V20.3875C0.710938 20.5994 0.888298 20.7713 1.10713 20.7713C1.32596 20.7713 1.50332 20.5994 1.50332 20.3875V18.4463C1.50332 18.3047 1.62238 18.1893 1.7687 18.1893H3.84287C3.98667 18.1893 4.1082 18.307 4.1082 18.4463V24.3203C4.1082 24.4596 3.98667 24.5773 3.84287 24.5773H1.7687C1.62243 24.5773 1.50332 24.462 1.50332 24.3203V22.1535C1.50332 21.9416 1.32596 21.7697 1.10713 21.7697C0.888298 21.7697 0.710938 21.9416 0.710938 22.1535V24.3203C0.710938 24.8852 1.18545 25.3449 1.7687 25.3449H3.84287C4.33426 25.3449 4.74718 25.0181 4.86545 24.5776C6.0049 24.6115 6.64141 24.7284 7.99418 25.1205L10.3721 25.8092C10.8141 25.9365 11.4037 25.9998 11.9963 25.9998C12.6173 25.9998 13.2416 25.9303 13.702 25.7921C14.92 25.4276 16.8586 24.7119 17.6259 24.4097L22.3675 22.5407C22.7175 22.4022 22.9788 22.1221 23.1031 21.7519C23.2481 21.3202 23.1839 20.8104 22.9358 20.4221C22.7763 20.171 22.5524 19.9871 22.2873 19.8752ZM18.6283 19.5594C18.6462 19.5543 18.6638 19.548 18.681 19.5404L20.9235 18.7306C21.2249 18.6288 21.541 18.7684 21.644 19.0488C21.745 19.3253 21.5947 19.6298 21.3091 19.7277C21.3071 19.7284 21.305 19.7291 21.3031 19.7298L15.5967 21.7861C15.5965 21.6666 15.5838 21.5455 15.5561 21.4251C15.5002 21.1811 15.3917 20.963 15.2424 20.7821L18.6283 19.5594ZM17.8149 17.919C17.9621 17.869 18.1177 17.8751 18.2532 17.9363C18.3861 17.9963 18.4862 18.1029 18.5349 18.2354C18.6156 18.4573 18.5331 18.7074 18.3389 18.8447L14.4026 20.2662L12.799 19.7306L17.8149 17.919ZM13.6643 17.59C13.7969 17.5443 13.9372 17.5499 14.0595 17.6062C14.1757 17.6598 14.2634 17.7535 14.3062 17.8704C14.3494 17.9882 14.342 18.1161 14.2856 18.2306C14.2289 18.3453 14.1304 18.4317 14.008 18.4738C13.9991 18.4769 13.9906 18.4806 13.982 18.4842L11.6207 19.337L10.1578 18.8485L13.6643 17.59ZM22.3495 21.5145C22.3134 21.6219 22.2353 21.7639 22.0683 21.83L17.3273 23.6988C16.5712 23.9966 14.6629 24.7013 13.4678 25.0589C12.7058 25.2876 11.3648 25.2943 10.5984 25.0737L8.22124 24.3852C6.80724 23.9754 6.10509 23.8475 4.90053 23.8108V19.0611C6.79298 18.4115 7.35793 18.6384 8.19341 18.9757C8.39619 19.0576 14.2786 21.0368 14.2786 21.0368C14.2828 21.0382 14.2871 21.0395 14.2913 21.0408C14.6448 21.1461 14.7525 21.461 14.7824 21.5915C14.8325 21.8102 14.7981 22.0296 14.6932 22.2039C14.6922 22.2055 14.6913 22.2073 14.6904 22.2089C14.6527 22.2704 14.6064 22.3262 14.5517 22.3742C14.2545 22.6344 13.7306 22.6625 13.0759 22.4531L9.73098 21.3842C9.52327 21.3177 9.29914 21.4271 9.23057 21.6284C9.16204 21.8297 9.27492 22.0466 9.48274 22.1131L12.8276 23.182C13.2253 23.3092 13.5663 23.3587 13.8563 23.3587C14.488 23.3587 14.8777 23.1235 15.0832 22.9435C15.1626 22.874 15.2334 22.7968 15.2954 22.7137L21.1104 20.6182C21.1158 20.6165 21.1213 20.6151 21.1267 20.6131C21.5181 20.4686 22.0217 20.4482 22.2614 20.8252C22.3887 21.0244 22.4232 21.2949 22.3495 21.5145Z" fill="#00A7AC"/>
<path d="M26.5868 5.71116L23.7499 0.543457C23.6179 0.302401 23.3963 0.125532 23.1259 0.0453997C22.8559 -0.0346308 22.5703 -0.0082248 22.3224 0.119641L20.4957 1.06C19.9923 1.31984 19.7959 1.92083 20.0461 2.41275C19.8503 2.51497 19.6707 2.60993 19.5054 2.69727C18.0491 3.46706 17.6096 3.69938 15.6431 3.92637C15.4258 3.95145 15.2707 4.14239 15.2966 4.35288C15.3206 4.54793 15.4916 4.69128 15.6895 4.69128C15.7052 4.69128 15.721 4.69037 15.7369 4.68854C17.8551 4.44403 18.4078 4.15184 19.885 3.37103C20.0478 3.28501 20.2245 3.19162 20.4166 3.09128L22.299 6.52106C21.5379 6.95696 21.0466 7.41099 20.651 8.03169C19.9897 9.07086 19.1748 9.47102 18.3868 9.85802C18.0354 10.0306 17.6722 10.209 17.3337 10.4384L14.1264 12.6163C14.0407 12.6674 13.9573 12.7067 13.878 12.7341C13.8713 12.7361 13.8645 12.7381 13.8579 12.7404C13.7308 12.7814 13.615 12.7912 13.5192 12.7663C13.3899 12.7327 13.2777 12.6311 13.1862 12.4643C12.9578 12.0488 13.2999 10.8236 13.9223 10.2305L15.9308 8.31403C15.939 8.30616 15.947 8.29788 15.9545 8.28935C16.299 7.89712 16.2827 7.57954 16.2084 7.38215C16.0839 7.05177 15.7236 6.836 15.1371 6.74074C13.4675 6.47033 12.8209 6.87744 12.4229 7.41211C12.0609 7.20706 11.6708 7.04918 11.2587 6.94127C11.0267 6.88028 10.791 6.83692 10.5533 6.81056L10.5959 6.73419C11.3105 5.44873 12.3878 5.07183 13.8944 4.88029C14.1114 4.85271 14.2642 4.66 14.2357 4.44987C14.2072 4.23969 14.0081 4.09171 13.7913 4.11929C12.3149 4.30697 10.8214 4.70956 9.89836 6.36999L9.66197 6.79421C8.73984 6.86282 7.83956 7.19711 7.10459 7.74869C6.28049 8.36709 5.70128 9.21031 5.42945 10.187C4.74632 12.6384 6.24956 15.1712 8.78047 15.8328C9.19401 15.9408 9.61112 15.9928 10.0227 15.9927C11.8098 15.9927 13.4901 15.0132 14.2973 13.3963C14.3827 13.3585 14.4684 13.3143 14.5542 13.2625C14.5603 13.2589 14.5662 13.255 14.5721 13.2511L17.7884 11.0671C18.0806 10.869 18.4034 10.7104 18.7452 10.5426C19.5898 10.1278 20.5472 9.65764 21.3254 8.43463C21.6428 7.93678 22.0465 7.56374 22.6717 7.20005L22.8979 7.61209C23.0873 7.95643 23.4532 8.153 23.8313 8.15295C23.9983 8.15295 24.1676 8.11456 24.3251 8.03372L26.1495 7.09377C26.3983 6.96595 26.5809 6.7513 26.6636 6.48937C26.7462 6.22785 26.7189 5.95145 26.5868 5.71116ZM15.0063 7.49783C15.2982 7.54526 15.4148 7.61305 15.4533 7.6422C15.4436 7.66627 15.4197 7.71167 15.3613 7.78002L14.0839 8.99891C13.8128 8.566 13.4688 8.17799 13.0686 7.85319C13.31 7.53246 13.7216 7.28973 15.0063 7.49783ZM8.98687 15.0918C6.87789 14.5405 5.62521 12.4299 6.19456 10.3869C6.64722 8.76034 8.17735 7.59345 9.91509 7.54927C10.2983 7.53998 10.6803 7.58456 11.0515 7.68216C11.5103 7.80231 11.9356 7.99599 12.3155 8.25792C12.8059 8.59601 13.2128 9.04263 13.5005 9.55577L13.3665 9.68364C12.5916 10.4218 12.0264 11.9876 12.4867 12.8251C12.7346 13.2761 13.0733 13.4452 13.3139 13.5077C13.3164 13.5084 13.319 13.5088 13.3214 13.5094C12.3934 14.8687 10.6543 15.5274 8.98687 15.0918ZM25.9058 6.26503C25.8851 6.33063 25.8397 6.38416 25.7777 6.41605L23.9534 7.356C23.825 7.42196 23.6652 7.37499 23.5973 7.25164L20.76 2.08176C20.693 1.95999 20.7427 1.80226 20.868 1.73757L22.6946 0.797259C22.7324 0.77781 22.7737 0.767908 22.8158 0.767908C22.8419 0.767908 22.8682 0.771717 22.8941 0.779385C22.9619 0.799443 23.0171 0.843368 23.05 0.903391L25.8872 6.0715C25.8873 6.0716 25.8874 6.07165 25.8874 6.07175C25.9199 6.13096 25.9264 6.19957 25.9058 6.26503Z" fill="#00A7AC"/>
</svg>
