<svg width="37" height="40" viewBox="0 0 37 40" fill="none" xmlns="http://www.w3.org/2000/svg">
<path d="M30.7047 30.5775C30.9737 30.0885 31.0457 29.4842 30.8521 28.9113C30.4992 27.8724 29.3921 27.3312 28.3839 27.7047C28.3809 27.7058 28.378 27.7069 28.375 27.708L26.5304 28.4281C26.5438 28.1724 26.5123 27.9119 26.4278 27.6606C26.2561 27.1548 25.9054 26.7512 25.4405 26.5241C24.9764 26.2975 24.4501 26.2734 23.9587 26.4566C23.956 26.4576 23.9533 26.4586 23.9507 26.4596L20.5133 27.8018C20.5216 27.5652 20.4875 27.3271 20.4098 27.0979C20.248 26.6207 19.9178 26.2379 19.4801 26.0201C19.034 25.798 18.5278 25.773 18.0485 25.9519L11.7664 28.3894C11.524 28.2958 11.2996 28.1984 11.0821 28.1035C9.67104 27.4876 8.62199 27.1469 5.93508 28.0859C5.80333 27.3566 5.19125 26.803 4.45704 26.803H1.50528C0.675271 26.803 0 27.5101 0 28.3792V31.3656C0 31.6917 0.252396 31.9561 0.563807 31.9561C0.875218 31.9561 1.12761 31.6917 1.12761 31.3656V28.3792C1.12761 28.1612 1.29705 27.9838 1.50528 27.9838H4.45696C4.66161 27.9838 4.83455 28.1648 4.83455 28.3792V37.4162C4.83455 37.6305 4.66161 37.8116 4.45696 37.8116H1.50528C1.29712 37.8116 1.12761 37.6342 1.12761 37.4162V34.0826C1.12761 33.7566 0.875218 33.4922 0.563807 33.4922C0.252396 33.4922 0 33.7566 0 34.0826V37.4162C0 38.2853 0.675271 38.9924 1.50528 38.9924H4.45696C5.15626 38.9924 5.74387 38.4898 5.91218 37.8119C7.5337 37.8642 8.4395 38.0441 10.3646 38.6473L13.7485 39.7068C14.3775 39.9026 15.2166 40 16.0599 40C16.9436 40 17.832 39.893 18.4872 39.6805C20.2206 39.1198 22.9793 38.0186 24.0712 37.5537L30.8189 34.6783C31.3169 34.4651 31.6888 34.0342 31.8657 33.4648C32.072 32.8006 31.9806 32.0162 31.6277 31.4188C31.4006 31.0326 31.082 30.7496 30.7047 30.5775ZM25.4978 30.0916C25.5232 30.0838 25.5482 30.0741 25.5728 30.0623L28.764 28.8165C29.1929 28.6599 29.6427 28.8748 29.7893 29.306C29.933 29.7314 29.7191 30.2 29.3127 30.3505C29.3098 30.3516 29.3069 30.3527 29.3041 30.3538L21.1835 33.5174C21.1832 33.3334 21.1651 33.1473 21.1258 32.9619C21.0463 32.5866 20.8918 32.251 20.6793 31.9727L25.4978 30.0916ZM24.3402 27.568C24.5497 27.491 24.771 27.5004 24.964 27.5945C25.153 27.6868 25.2955 27.8509 25.3648 28.0546C25.4796 28.3961 25.3622 28.7808 25.086 28.9921L19.4842 31.179L17.2022 30.355L24.3402 27.568ZM18.4335 27.0618C18.6223 26.9914 18.822 27.0001 18.996 27.0867C19.1614 27.1691 19.2861 27.3133 19.3471 27.4931C19.4085 27.6744 19.398 27.8712 19.3177 28.0473C19.2371 28.2238 19.0969 28.3567 18.9226 28.4214C18.91 28.4262 18.8979 28.4319 18.8856 28.4374L15.5253 29.7495L13.4436 28.9979L18.4335 27.0618ZM30.7933 33.0994C30.7419 33.2648 30.6307 33.4832 30.3931 33.5848L23.6463 36.4599C22.5703 36.9181 19.8547 38.0023 18.1539 38.5524C17.0695 38.9043 15.1612 38.9147 14.0706 38.5752L10.6877 37.516C8.67548 36.8855 7.67627 36.6888 5.96209 36.6323V29.325C8.65519 28.3255 9.45916 28.6748 10.6481 29.1937C10.9367 29.3196 19.3078 32.3645 19.3078 32.3645C19.3138 32.3667 19.3199 32.3687 19.3259 32.3707C19.8289 32.5326 19.9822 33.0172 20.0247 33.218C20.0961 33.5544 20.0471 33.8919 19.8978 34.1601C19.8964 34.1626 19.8951 34.1653 19.8937 34.1678C19.8402 34.2624 19.7743 34.3483 19.6964 34.4222C19.2735 34.8225 18.5279 34.8656 17.5963 34.5435L12.8362 32.899C12.5406 32.7967 12.2216 32.9651 12.1241 33.2747C12.0265 33.5844 12.1872 33.9182 12.4829 34.0204L17.2429 35.6648C17.8088 35.8605 18.2941 35.9368 18.7068 35.9368C19.6058 35.9368 20.1603 35.5749 20.4528 35.298C20.5658 35.191 20.6666 35.0723 20.7547 34.9444L29.0299 31.7206C29.0377 31.7179 29.0455 31.7158 29.0532 31.7127C29.6101 31.4904 30.3268 31.4591 30.6678 32.0391C30.849 32.3455 30.8982 32.7617 30.7933 33.0994Z" fill="#00A7AC"/>
<path d="M36.8235 8.78649L32.7863 0.836096C32.5986 0.465237 32.2832 0.193128 31.8984 0.0698463C31.5141 -0.0532787 31.1076 -0.0126537 30.7549 0.184065L28.1554 1.63078C27.439 2.03055 27.1595 2.95516 27.5155 3.71196C27.2369 3.86922 26.9813 4.01532 26.7461 4.14969C24.6737 5.33399 24.0483 5.69141 21.2498 6.04063C20.9406 6.07922 20.7198 6.37297 20.7567 6.6968C20.7908 6.99688 21.0342 7.21742 21.3159 7.21742C21.3382 7.21742 21.3606 7.21602 21.3833 7.2132C24.3976 6.83703 25.1842 6.3875 27.2863 5.18625C27.518 5.05391 27.7694 4.91024 28.0427 4.75586L30.7216 10.0325C29.6384 10.7031 28.9393 11.4016 28.3763 12.3566C27.4353 13.9553 26.2757 14.5709 25.1543 15.1663C24.6542 15.4318 24.1373 15.7063 23.6556 16.0593L19.0914 19.4099C18.9694 19.4885 18.8507 19.549 18.738 19.5912C18.7283 19.5941 18.7187 19.5973 18.7092 19.6009C18.5284 19.6639 18.3636 19.6789 18.2273 19.6406C18.0433 19.589 17.8837 19.4326 17.7534 19.176C17.4284 18.5368 17.9153 16.6518 18.801 15.7395L21.6591 12.7909C21.6709 12.7788 21.6822 12.7661 21.6928 12.753C22.1832 12.1495 22.16 11.6609 22.0542 11.3573C21.8771 10.849 21.3644 10.517 20.5297 10.3705C18.1538 9.95446 17.2336 10.5808 16.6672 11.4034C16.152 11.0879 15.5969 10.845 15.0105 10.679C14.6804 10.5852 14.3449 10.5184 14.0067 10.4779L14.0672 10.3604C15.0841 8.38274 16.6172 7.80289 18.7613 7.5082C19.0701 7.46578 19.2875 7.1693 19.247 6.84602C19.2064 6.52266 18.9231 6.295 18.6146 6.33742C16.5135 6.62617 14.3881 7.24555 13.0746 9.80008L12.7382 10.4527C11.4259 10.5583 10.1448 11.0726 9.09884 11.9212C7.92609 12.8726 7.10183 14.1698 6.71499 15.6724C5.74285 19.4439 7.88207 23.3405 11.4837 24.3584C12.0722 24.5246 12.6658 24.6045 13.2515 24.6045C15.7948 24.6044 18.1859 23.0975 19.3347 20.6098C19.4561 20.5517 19.5781 20.4837 19.7002 20.4041C19.7088 20.3984 19.7172 20.3926 19.7256 20.3865L24.3027 17.0265C24.7185 16.7216 25.1779 16.4777 25.6643 16.2195C26.8663 15.5813 28.2287 14.858 29.3361 12.9765C29.7877 12.2105 30.3622 11.6366 31.2521 11.0771L31.5739 11.711C31.8435 12.2408 32.3642 12.5432 32.9021 12.5431C33.1398 12.5431 33.3808 12.4841 33.6049 12.3597L36.2011 10.9136C36.5552 10.717 36.8151 10.3867 36.9328 9.98375C37.0503 9.58141 37.0115 9.15617 36.8235 8.78649ZM20.3435 11.5352C20.759 11.6082 20.9248 11.7125 20.9797 11.7573C20.9659 11.7944 20.9319 11.8642 20.8487 11.9694L19.0309 13.8446C18.6451 13.1786 18.1556 12.5816 17.5861 12.082C17.9296 11.5885 18.5154 11.2151 20.3435 11.5352ZM11.7775 23.2184C8.77624 22.3702 6.99357 19.123 7.80381 15.98C8.44797 13.4776 10.6255 11.6823 13.0984 11.6144C13.6438 11.6001 14.1873 11.6687 14.7156 11.8188C15.3685 12.0037 15.9737 12.3016 16.5143 12.7046C17.2122 13.2248 17.7913 13.9119 18.2006 14.7013L18.0099 14.898C16.9073 16.0337 16.1029 18.4427 16.7579 19.7311C17.1107 20.4249 17.5928 20.6852 17.9352 20.7813C17.9387 20.7823 17.9423 20.783 17.9458 20.7839C16.6252 22.8751 14.1503 23.8886 11.7775 23.2184ZM35.8544 9.6386C35.8249 9.73953 35.7603 9.82188 35.6721 9.87094L33.0759 11.317C32.8933 11.4185 32.6659 11.3463 32.5692 11.1565L28.5314 3.20274C28.4362 3.01539 28.5068 2.77274 28.6852 2.67321L31.2846 1.22657C31.3383 1.19664 31.3972 1.18141 31.4571 1.18141C31.4942 1.18141 31.5317 1.18727 31.5685 1.19906C31.6649 1.22992 31.7436 1.2975 31.7903 1.38985L35.8279 9.34086C35.828 9.34102 35.8281 9.34109 35.8282 9.34125C35.8743 9.43235 35.8837 9.53789 35.8544 9.6386Z" fill="#00A7AC"/>
</svg>
