<svg width="20" height="20" viewBox="0 0 20 20" fill="none" xmlns="http://www.w3.org/2000/svg">
<path fill-rule="evenodd" clip-rule="evenodd" d="M5.43619 0H11.6927L16.9953 5.90705V17.3963C16.9953 18.8356 15.9058 20 14.5638 20H5.43619C4.08951 20 3 18.8356 3 17.3963V2.60369C2.99998 1.16441 4.08948 0 5.43619 0Z" fill="white"/>
<path opacity="0.302" fill-rule="evenodd" clip-rule="evenodd" d="M11.6929 0V5.86207H17.0001L11.6929 0Z" fill="#DDDDDD"/>
<path d="M5.70557 14.9227V11.2695H7.15981C7.51987 11.2695 7.80511 11.3745 8.0202 11.5894C8.2353 11.7993 8.34285 12.0841 8.34285 12.4389C8.34285 12.7938 8.2353 13.0786 8.0202 13.2885C7.80511 13.5034 7.51987 13.6084 7.15981 13.6084H6.57998V14.9227H5.70557ZM6.57998 12.8138H7.06162C7.19253 12.8138 7.29541 12.7838 7.36556 12.7138C7.43569 12.6489 7.47312 12.5589 7.47312 12.439C7.47312 12.319 7.43572 12.2291 7.36556 12.1641C7.29543 12.0941 7.19256 12.0642 7.06162 12.0642H6.57998V12.8138ZM8.70289 14.9227V11.2695H9.91397C10.1524 11.2695 10.3769 11.3045 10.5873 11.3795C10.7977 11.4544 10.9895 11.5594 11.1578 11.7043C11.3261 11.8442 11.4617 12.0341 11.5599 12.274C11.6534 12.5139 11.7049 12.7888 11.7049 13.0986C11.7049 13.4035 11.6535 13.6783 11.5599 13.9182C11.4617 14.1581 11.3261 14.348 11.1578 14.4879C10.9894 14.6328 10.7977 14.7378 10.5873 14.8128C10.3769 14.8877 10.1524 14.9227 9.91397 14.9227H8.70289ZM9.5586 14.1281H9.8111C9.9467 14.1281 10.073 14.1131 10.1899 14.0781C10.3021 14.0432 10.4096 13.9882 10.5125 13.9132C10.6107 13.8383 10.6902 13.7333 10.7463 13.5934C10.8024 13.4535 10.8305 13.2885 10.8305 13.0986C10.8305 12.9037 10.8024 12.7388 10.7463 12.5989C10.6902 12.459 10.6107 12.354 10.5125 12.279C10.4096 12.2041 10.3021 12.1491 10.1899 12.1141C10.073 12.0792 9.9467 12.0641 9.8111 12.0641H9.5586V14.1281ZM12.1444 14.9227V11.2695H14.576V12.0641H13.0189V12.6488H14.2627V13.4385H13.0189V14.9227H12.1444Z" fill="#00A7AC"/>
</svg>
