<svg width="30" height="30" viewBox="0 0 30 30" fill="none" xmlns="http://www.w3.org/2000/svg">
<path d="M25.3139 19.5899C27.1441 18.2024 28.402 15.7465 28.52 13.3847H28.614C29.3782 13.3847 29.9999 12.7629 29.9999 11.9988V11.0816C29.9999 10.8227 29.7901 10.6129 29.5312 10.6129H21.2683V6.48322C21.2683 6.36234 21.2216 6.24621 21.138 6.15896L15.3756 0.144492C15.2872 0.052207 15.1649 0 15.0372 0H0.46875C0.209883 0 0 0.209883 0 0.46875V29.5314C0 29.7902 0.209883 30.0001 0.46875 30.0001H15.4073H29.5312C29.7901 30.0001 30 29.7902 30 29.5314V28.6142C30 27.85 29.3783 27.2283 28.6141 27.2283H28.52C28.402 24.8665 27.1441 22.4106 25.314 21.0231C25.0913 20.8543 24.9636 20.5931 24.9636 20.3065C24.9636 20.02 25.0913 19.7587 25.3139 19.5899ZM29.0625 11.9987C29.0625 12.246 28.8613 12.4471 28.6141 12.4471H16.3245C16.0772 12.4471 15.8761 12.2459 15.8761 11.9987V11.5503H29.0625V11.9987ZM19.7013 6.01447H15.2538V1.37238L19.7013 6.01447ZM0.9375 0.9375H14.3163V6.48316C14.3163 6.74203 14.5262 6.95191 14.7851 6.95191H20.3307V10.6128H15.4073C15.1485 10.6128 14.9386 10.8227 14.9386 11.0815V11.9987C14.9386 12.7629 15.5603 13.3846 16.3245 13.3846H16.4186C16.5366 15.7464 17.7945 18.2023 19.6246 19.5898C19.8473 19.7586 19.975 20.0198 19.975 20.3064C19.975 20.5931 19.8472 20.8543 19.6246 21.023C17.7945 22.4104 16.5366 24.8663 16.4186 27.2281H16.3245C15.5603 27.2281 14.9386 27.8498 14.9386 28.614V29.0624H0.9375V0.9375ZM29.0625 28.6142V29.0626H15.8761V28.6142C15.8761 28.3669 16.0773 28.1658 16.3245 28.1658H28.614C28.8613 28.1657 29.0625 28.3669 29.0625 28.6142ZM22.111 25.9068C22.2348 25.8551 22.3546 25.7948 22.4693 25.7265C22.584 25.7948 22.7038 25.855 22.8277 25.9068C23.4195 26.1537 23.9762 26.6122 24.4425 27.2283H20.4962C20.9626 26.6122 21.5193 26.1537 22.111 25.9068ZM24.7475 21.7702C26.3296 22.9696 27.4605 25.1708 27.5812 27.2282H25.5725C24.9478 26.1973 24.1093 25.4258 23.1889 25.0416C23.1018 25.0052 23.0181 24.9619 22.938 24.9135V23.6252C22.938 23.3664 22.7281 23.1565 22.4692 23.1565C22.2104 23.1565 22.0005 23.3664 22.0005 23.6252V24.9136C21.9203 24.9621 21.8368 25.0053 21.7498 25.0416C20.8293 25.4258 19.9909 26.1973 19.3661 27.2282H17.3573C17.478 25.1707 18.6089 22.9696 20.191 21.7702C20.6495 21.4226 20.9125 20.8891 20.9125 20.3065C20.9125 19.7239 20.6495 19.1904 20.191 18.8428C18.6089 17.6434 17.478 15.4423 17.3573 13.3847H27.5812C27.4605 15.4423 26.3297 17.6434 24.7476 18.8429C24.2892 19.1905 24.0261 19.7239 24.0261 20.3065C24.0261 20.889 24.289 21.4225 24.7475 21.7702ZM22.938 20.8393V21.2435C22.938 21.5023 22.7282 21.7122 22.4693 21.7122C22.2104 21.7122 22.0005 21.5023 22.0005 21.2435V20.8393C22.0005 20.5805 22.2104 20.3706 22.4693 20.3706C22.7282 20.3706 22.938 20.5805 22.938 20.8393ZM25.9614 15.6504C26.0534 15.4481 25.9908 15.2091 25.8114 15.0779C24.3225 13.9889 23.1837 14.5351 22.1791 15.0169C21.4257 15.3783 20.7141 15.7195 19.7689 15.5343C19.5889 15.499 19.405 15.5719 19.2981 15.7208C19.1912 15.8696 19.1808 16.0672 19.2716 16.2265C19.9046 17.3366 20.7847 18.1698 21.7497 18.5726C21.8368 18.6089 21.9203 18.6521 22.0005 18.7006V19.3526C22.0005 19.6115 22.2104 19.8214 22.4692 19.8214C22.7281 19.8214 22.938 19.6115 22.938 19.3526V18.7008C23.0182 18.6523 23.1018 18.609 23.1888 18.5728C24.3207 18.1003 25.3313 17.0351 25.9614 15.6504ZM22.8278 17.7075C22.704 17.7591 22.5843 17.8194 22.4694 17.8877C22.3546 17.8194 22.2348 17.7591 22.1109 17.7074C21.562 17.4783 21.041 17.0647 20.5951 16.512C21.3649 16.4472 22.0024 16.1415 22.5846 15.8623C23.4311 15.4562 24.0685 15.1506 24.9295 15.6236C24.3984 16.6164 23.647 17.3655 22.8278 17.7075ZM3.69914 7.39225C3.69914 7.13338 3.90902 6.9235 4.16789 6.9235H11.6913C11.9502 6.9235 12.1601 7.13338 12.1601 7.39225C12.1601 7.65111 11.9502 7.861 11.6913 7.861H4.16789C3.90902 7.861 3.69914 7.65111 3.69914 7.39225ZM3.69914 12.4642C3.69914 12.2053 3.90902 11.9954 4.16789 11.9954H11.6913C11.9502 11.9954 12.1601 12.2053 12.1601 12.4642C12.1601 12.723 11.9502 12.9329 11.6913 12.9329H4.16789C3.90902 12.9329 3.69914 12.723 3.69914 12.4642ZM3.69914 17.536C3.69914 17.2771 3.90902 17.0672 4.16789 17.0672H14.6658C14.9246 17.0672 15.1345 17.2771 15.1345 17.536C15.1345 17.7949 14.9246 18.0047 14.6658 18.0047H4.16789C3.90902 18.0047 3.69914 17.7949 3.69914 17.536ZM14.6658 23.0766H4.16789C3.90902 23.0766 3.69914 22.8667 3.69914 22.6079C3.69914 22.349 3.90902 22.1391 4.16789 22.1391H14.6658C14.9246 22.1391 15.1345 22.349 15.1345 22.6079C15.1345 22.8667 14.9246 23.0766 14.6658 23.0766Z" fill="#DFA100"/>
</svg>
