<svg width="12" height="10" viewBox="0 0 12 10" fill="none" xmlns="http://www.w3.org/2000/svg">
<path d="M11.25 10C11.25 10 12 10 12 9.16667C12 8.33333 11.25 5.83333 8.25 5.83333C5.25 5.83333 4.5 8.33333 4.5 9.16667C4.5 10 5.25 10 5.25 10H11.25ZM5.2665 9.16667C5.26096 9.16582 5.25545 9.16471 5.25 9.16333C5.25075 8.94333 5.37525 8.305 5.82 7.73C6.234 7.19083 6.9615 6.66667 8.25 6.66667C9.53775 6.66667 10.2653 7.19167 10.68 7.73C11.1248 8.305 11.2485 8.94417 11.25 9.16333L11.244 9.165C11.2405 9.16566 11.237 9.16621 11.2335 9.16667H5.2665ZM8.25 4.16667C8.64782 4.16667 9.02936 3.99107 9.31066 3.67851C9.59196 3.36595 9.75 2.94203 9.75 2.5C9.75 2.05797 9.59196 1.63405 9.31066 1.32149C9.02936 1.00893 8.64782 0.833333 8.25 0.833333C7.85218 0.833333 7.47064 1.00893 7.18934 1.32149C6.90804 1.63405 6.75 2.05797 6.75 2.5C6.75 2.94203 6.90804 3.36595 7.18934 3.67851C7.47064 3.99107 7.85218 4.16667 8.25 4.16667ZM10.5 2.5C10.5 2.8283 10.4418 3.15339 10.3287 3.45671C10.2157 3.76002 10.0499 4.03562 9.84099 4.26777C9.63206 4.49991 9.38402 4.68406 9.11104 4.8097C8.83806 4.93534 8.54547 5 8.25 5C7.95453 5 7.66194 4.93534 7.38896 4.8097C7.11598 4.68406 6.86794 4.49991 6.65901 4.26777C6.45008 4.03562 6.28434 3.76002 6.17127 3.45671C6.0582 3.15339 6 2.8283 6 2.5C6 1.83696 6.23705 1.20107 6.65901 0.732233C7.08097 0.263392 7.65326 0 8.25 0C8.84674 0 9.41903 0.263392 9.84099 0.732233C10.2629 1.20107 10.5 1.83696 10.5 2.5ZM5.202 6.06667C4.90199 5.9617 4.59273 5.89269 4.2795 5.86083C4.1035 5.84224 3.92679 5.83306 3.75 5.83333C0.75 5.83333 0 8.33333 0 9.16667C0 9.7225 0.24975 10 0.75 10H3.912C3.80082 9.73985 3.74537 9.45462 3.75 9.16667C3.75 8.325 4.03275 7.465 4.5675 6.74667C4.74975 6.50167 4.962 6.2725 5.202 6.06667ZM3.69 6.66667C3.24612 7.40773 3.00633 8.27651 3 9.16667H0.75C0.75 8.95 0.873 8.30833 1.32 7.73C1.72875 7.2 2.439 6.68333 3.69 6.6675V6.66667ZM1.125 2.91667C1.125 2.25363 1.36205 1.61774 1.78401 1.1489C2.20597 0.680059 2.77826 0.416667 3.375 0.416667C3.97174 0.416667 4.54403 0.680059 4.96599 1.1489C5.38795 1.61774 5.625 2.25363 5.625 2.91667C5.625 3.57971 5.38795 4.21559 4.96599 4.68443C4.54403 5.15327 3.97174 5.41667 3.375 5.41667C2.77826 5.41667 2.20597 5.15327 1.78401 4.68443C1.36205 4.21559 1.125 3.57971 1.125 2.91667ZM3.375 1.25C2.97718 1.25 2.59564 1.42559 2.31434 1.73816C2.03304 2.05072 1.875 2.47464 1.875 2.91667C1.875 3.35869 2.03304 3.78262 2.31434 4.09518C2.59564 4.40774 2.97718 4.58333 3.375 4.58333C3.77282 4.58333 4.15436 4.40774 4.43566 4.09518C4.71696 3.78262 4.875 3.35869 4.875 2.91667C4.875 2.47464 4.71696 2.05072 4.43566 1.73816C4.15436 1.42559 3.77282 1.25 3.375 1.25Z" fill="#00A7AC"/>
</svg>
