<svg width="14" height="11" viewBox="0 0 14 11" fill="none" xmlns="http://www.w3.org/2000/svg">
<path d="M13.125 11C13.125 11 14 11 14 10.0833C14 9.16667 13.125 6.41667 9.625 6.41667C6.125 6.41667 5.25 9.16667 5.25 10.0833C5.25 11 6.125 11 6.125 11H13.125ZM6.14425 10.0833C6.13779 10.0824 6.13136 10.0812 6.125 10.0797C6.12587 9.83767 6.27113 9.1355 6.79 8.503C7.273 7.90992 8.12175 7.33333 9.625 7.33333C11.1274 7.33333 11.9761 7.91083 12.46 8.503C12.9789 9.1355 13.1233 9.83858 13.125 10.0797L13.118 10.0815C13.1139 10.0822 13.1098 10.0828 13.1058 10.0833H6.14425ZM9.625 4.58333C10.0891 4.58333 10.5342 4.39018 10.8624 4.04636C11.1906 3.70255 11.375 3.23623 11.375 2.75C11.375 2.26377 11.1906 1.79745 10.8624 1.45364C10.5342 1.10982 10.0891 0.916667 9.625 0.916667C9.16087 0.916667 8.71575 1.10982 8.38756 1.45364C8.05937 1.79745 7.875 2.26377 7.875 2.75C7.875 3.23623 8.05937 3.70255 8.38756 4.04636C8.71575 4.39018 9.16087 4.58333 9.625 4.58333ZM12.25 2.75C12.25 3.11114 12.1821 3.46873 12.0502 3.80238C11.9183 4.13602 11.7249 4.43918 11.4812 4.69454C11.2374 4.9499 10.948 5.15247 10.6295 5.29067C10.3111 5.42887 9.96972 5.5 9.625 5.5C9.28028 5.5 8.93894 5.42887 8.62046 5.29067C8.30198 5.15247 8.0126 4.9499 7.76884 4.69454C7.52509 4.43918 7.33173 4.13602 7.19982 3.80238C7.0679 3.46873 7 3.11114 7 2.75C7 2.02065 7.27656 1.32118 7.76884 0.805456C8.26113 0.289731 8.92881 0 9.625 0C10.3212 0 10.9889 0.289731 11.4812 0.805456C11.9734 1.32118 12.25 2.02065 12.25 2.75ZM6.069 6.67333C5.71898 6.55787 5.35818 6.48196 4.99275 6.44692C4.78742 6.42646 4.58126 6.41637 4.375 6.41667C0.875 6.41667 0 9.16667 0 10.0833C0 10.6947 0.291375 11 0.875 11H4.564C4.43429 10.7138 4.3696 10.4001 4.375 10.0833C4.375 9.1575 4.70487 8.2115 5.32875 7.42133C5.54138 7.15183 5.789 6.89975 6.069 6.67333ZM4.305 7.33333C3.78713 8.1485 3.50739 9.10417 3.5 10.0833H0.875C0.875 9.845 1.0185 9.13917 1.54 8.503C2.01688 7.92 2.8455 7.35167 4.305 7.33425V7.33333ZM1.3125 3.20833C1.3125 2.47899 1.58906 1.77951 2.08134 1.26379C2.57363 0.748065 3.24131 0.458333 3.9375 0.458333C4.63369 0.458333 5.30137 0.748065 5.79366 1.26379C6.28594 1.77951 6.5625 2.47899 6.5625 3.20833C6.5625 3.93768 6.28594 4.63715 5.79366 5.15288C5.30137 5.6686 4.63369 5.95833 3.9375 5.95833C3.24131 5.95833 2.57363 5.6686 2.08134 5.15288C1.58906 4.63715 1.3125 3.93768 1.3125 3.20833ZM3.9375 1.375C3.47337 1.375 3.02825 1.56815 2.70006 1.91197C2.37187 2.25579 2.1875 2.7221 2.1875 3.20833C2.1875 3.69456 2.37187 4.16088 2.70006 4.5047C3.02825 4.84851 3.47337 5.04167 3.9375 5.04167C4.40163 5.04167 4.84675 4.84851 5.17494 4.5047C5.50313 4.16088 5.6875 3.69456 5.6875 3.20833C5.6875 2.7221 5.50313 2.25579 5.17494 1.91197C4.84675 1.56815 4.40163 1.375 3.9375 1.375Z" fill="#595959"/>
</svg>
