<svg width="40" height="34" viewBox="0 0 40 34" fill="none" xmlns="http://www.w3.org/2000/svg">
<path d="M32.656 2.39868e-06C30.7581 -0.00154471 28.9333 0.745358 27.5642 2.08412C26.1951 3.42288 25.388 5.24954 25.312 7.18114C23.8956 5.98563 22.0929 5.37002 20.2552 5.45425C18.4174 5.53847 16.6763 6.3165 15.371 7.63676L2.09841 21.1694C0.741976 22.5857 -0.011899 24.4894 0.000142054 26.4679C0.0121831 28.4465 0.789171 30.3405 2.16273 31.7396C3.5363 33.1386 5.39579 33.9301 7.33826 33.9423C9.28074 33.9546 11.1497 33.1867 12.5402 31.8051L13.782 30.5402C14.3727 31.4842 15.1638 32.281 16.0971 32.8721C17.0303 33.4632 18.0819 33.8334 19.1743 33.9554C20.2667 34.0774 21.3721 33.9482 22.4089 33.5772C23.4458 33.2062 24.3877 32.603 25.1652 31.8119C25.6105 31.3539 25.9964 30.8397 26.3135 30.2818C27.1265 31.7006 28.3755 32.8072 29.8675 33.431C31.3595 34.0548 33.0116 34.1609 34.5687 33.7331C36.1259 33.3052 37.5014 32.3672 38.4831 31.0637C39.4647 29.7603 39.9978 28.164 40 26.5212V7.48035C40 5.49644 39.2263 3.59378 37.849 2.19095C36.4717 0.788109 34.6038 2.39868e-06 32.656 2.39868e-06ZM15.2975 30.343C14.4091 29.1651 13.9715 27.6982 14.0665 26.2159C14.1614 24.7336 14.7824 23.3371 15.8136 22.2867C16.8448 21.2363 18.2159 20.6038 19.6712 20.5071C21.1265 20.4104 22.5666 20.8561 23.7231 21.761L15.2975 30.343ZM25.1852 21.2306C24.8067 20.8473 24.388 20.5075 23.9367 20.2173L25.312 18.7893V21.4006C25.2586 21.3462 25.2186 21.285 25.1652 21.2306H25.1852ZM16.3324 8.6024C17.4681 7.45294 19.0042 6.8078 20.6052 6.8078C22.2063 6.8078 23.7423 7.45294 24.8781 8.6024C25.0337 8.7552 25.1787 8.9188 25.312 9.09203V16.8172C25.1769 16.9889 25.032 17.1524 24.8781 17.3068L22.6415 19.5645C21.4915 19.1046 20.2462 18.9476 19.0209 19.1081C17.7955 19.2685 16.6297 19.7413 15.6313 20.4826L10.1567 14.8859L16.3324 8.6024ZM11.5922 30.8394C11.031 31.411 10.3649 31.8644 9.63176 32.1737C8.89862 32.483 8.11285 32.6422 7.3193 32.6422C6.52576 32.6422 5.73999 32.483 5.00685 32.1737C4.27371 31.8644 3.60757 31.411 3.04645 30.8394C2.48533 30.2679 2.04022 29.5894 1.73655 28.8426C1.43287 28.0959 1.27657 27.2955 1.27657 26.4872C1.27657 25.679 1.43287 24.8786 1.73655 24.1318C2.04022 23.3851 2.48533 22.7066 3.04645 22.135L9.21539 15.8447L14.6299 21.3802C13.676 22.4122 13.0296 23.6991 12.7661 25.0908C12.5025 26.4826 12.6325 27.922 13.1411 29.2414L11.5922 30.8394ZM24.2171 30.8394C23.1715 31.9076 21.7755 32.5449 20.2969 32.629C18.8183 32.7131 17.3613 32.2381 16.2055 31.2951L24.6444 22.6995C25.569 23.8734 26.0366 25.3531 25.9578 26.8559C25.879 28.3588 25.2593 29.7794 24.2171 30.8462V30.8394ZM32.656 32.6415C31.4247 32.6411 30.2232 32.2554 29.2142 31.5366C28.2051 30.8177 27.4373 29.8005 27.0145 28.6225C27.5036 26.9015 27.3734 25.0591 26.6473 23.4271V17.6808H38.6647V26.5212C38.6647 28.1444 38.0317 29.7012 36.9048 30.8489C35.778 31.9967 34.2496 32.6415 32.656 32.6415ZM38.6647 16.3208H26.6473V7.48035C26.6473 5.85715 27.2804 4.30043 28.4072 3.15266C29.5341 2.00488 31.0624 1.36007 32.656 1.36007C34.2496 1.36007 35.778 2.00488 36.9048 3.15266C38.0317 4.30043 38.6647 5.85715 38.6647 7.48035V16.3208Z" fill="#00A7AC"/>
</svg>
