<svg width="14" height="14" viewBox="0 0 14 14" fill="none" xmlns="http://www.w3.org/2000/svg">
<path d="M11.0696 8.67191C10.7826 8.37349 10.4364 8.21394 10.0695 8.21394C9.70558 8.21394 9.35643 8.37054 9.05758 8.66896L8.12256 9.59968C8.04563 9.55831 7.9687 9.5199 7.89472 9.48149C7.7882 9.4283 7.6876 9.37807 7.60179 9.32489C6.72595 8.76942 5.93 8.04553 5.1666 7.1089C4.79674 6.64206 4.54819 6.24909 4.3677 5.85021C4.61033 5.62862 4.83521 5.39815 5.05416 5.17655C5.13701 5.09382 5.21986 5.00814 5.30271 4.92541C5.92409 4.30493 5.92409 3.50126 5.30271 2.88078L4.49493 2.07416C4.4032 1.98257 4.30852 1.88802 4.21975 1.79347C4.04222 1.61028 3.8558 1.42118 3.66348 1.2439C3.37646 0.960258 3.03323 0.80957 2.67224 0.80957C2.31125 0.80957 1.9621 0.960258 1.66621 1.2439C1.66325 1.24686 1.66325 1.24686 1.66029 1.24981L0.65426 2.26326C0.275519 2.64146 0.0595181 3.10238 0.0121755 3.63718C-0.0588384 4.49994 0.195628 5.3036 0.390916 5.82953C0.870261 7.12072 1.58632 8.31735 2.65449 9.59968C3.95049 11.145 5.50984 12.3652 7.2911 13.225C7.97165 13.5471 8.88004 13.9282 9.89495 13.9932C9.95709 13.9962 10.0222 13.9992 10.0814 13.9992C10.7649 13.9992 11.3389 13.7539 11.7887 13.2664C11.7916 13.2605 11.7975 13.2575 11.8005 13.2516C11.9544 13.0655 12.1319 12.8971 12.3183 12.7168C12.4455 12.5957 12.5757 12.4686 12.703 12.3357C12.9959 12.0314 13.1498 11.6768 13.1498 11.3134C13.1498 10.947 12.9929 10.5954 12.6941 10.2999L11.0696 8.67191ZM12.1289 11.7832C12.126 11.7832 12.126 11.7861 12.1289 11.7832C12.0135 11.9073 11.8952 12.0195 11.7679 12.1436C11.5756 12.3268 11.3803 12.5189 11.1969 12.7346C10.898 13.0537 10.5459 13.2044 10.0843 13.2044C10.0399 13.2044 9.99259 13.2044 9.94821 13.2014C9.06941 13.1453 8.25275 12.8025 7.64026 12.51C5.96551 11.7004 4.49493 10.5511 3.2729 9.09443C2.26391 7.88006 1.58928 6.75729 1.14248 5.5518C0.867302 4.81609 0.766699 4.24288 0.811082 3.70218C0.840671 3.35648 0.973823 3.06988 1.21941 2.82465L2.2284 1.81711C2.37339 1.68119 2.52725 1.60733 2.67816 1.60733C2.86457 1.60733 3.01547 1.7196 3.11016 1.81415C3.11312 1.81711 3.11608 1.82006 3.11904 1.82302C3.29953 1.99143 3.47115 2.16576 3.65164 2.3519C3.74337 2.44645 3.83805 2.541 3.93274 2.6385L4.74052 3.44512C5.05416 3.75832 5.05416 4.04787 4.74052 4.36107C4.65471 4.44675 4.57186 4.53244 4.48605 4.61517C4.2375 4.86927 4.00079 5.10564 3.74337 5.3361C3.73745 5.34201 3.73153 5.34497 3.72857 5.35088C3.4741 5.60498 3.52145 5.85317 3.57471 6.02158C3.57767 6.03045 3.58063 6.03931 3.58358 6.04818C3.79367 6.55638 4.08956 7.03503 4.53931 7.60528L4.54227 7.60824C5.35893 8.61282 6.21998 9.3958 7.16979 9.9956C7.2911 10.0724 7.41538 10.1345 7.53373 10.1936C7.64026 10.2467 7.74086 10.297 7.82667 10.3502C7.8385 10.3561 7.85034 10.3649 7.86217 10.3708C7.96278 10.4211 8.05746 10.4447 8.15511 10.4447C8.4007 10.4447 8.55456 10.2911 8.60486 10.2408L9.61681 9.23034C9.71741 9.12988 9.87719 9.00874 10.0636 9.00874C10.2471 9.00874 10.398 9.12397 10.4897 9.22443C10.4926 9.22739 10.4926 9.22739 10.4956 9.23034L12.126 10.8584C12.4307 11.1597 12.4307 11.47 12.1289 11.7832Z" fill="#00A7AC"/>
<path d="M7.56513 3.33034C8.34036 3.46035 9.04459 3.82672 9.60678 4.38811C10.169 4.94949 10.5329 5.6527 10.6661 6.42682C10.6986 6.62183 10.8673 6.75774 11.0596 6.75774C11.0833 6.75774 11.104 6.75479 11.1277 6.75183C11.3466 6.71638 11.4916 6.50955 11.4561 6.29091C11.2963 5.35428 10.8525 4.50039 10.1749 3.82377C9.4973 3.14715 8.64217 2.70395 7.7042 2.5444C7.48524 2.50895 7.28107 2.65372 7.24261 2.86941C7.20414 3.08511 7.34617 3.29489 7.56513 3.33034Z" fill="#00A7AC"/>
<path d="M13.9938 6.1754C13.7304 4.63307 13.0025 3.22961 11.884 2.11275C10.7656 0.995891 9.36009 0.269046 7.81554 0.00608112C7.59954 -0.0323294 7.39537 0.115403 7.35691 0.331093C7.3214 0.549738 7.46639 0.753609 7.68535 0.79202C9.0642 1.02544 10.3217 1.67842 11.3219 2.67414C12.322 3.67281 12.9729 4.92854 13.2067 6.30541C13.2392 6.50042 13.4079 6.63633 13.6002 6.63633C13.6239 6.63633 13.6446 6.63338 13.6683 6.63042C13.8843 6.59792 14.0322 6.39109 13.9938 6.1754Z" fill="#00A7AC"/>
</svg>
