<svg width="12" height="12" viewBox="0 0 12 12" fill="none" xmlns="http://www.w3.org/2000/svg">
<path d="M9.48884 7.43365C9.24281 7.17785 8.94606 7.04108 8.63155 7.04108C8.31957 7.04108 8.02028 7.17532 7.76411 7.43112L6.96262 8.22893C6.89667 8.19347 6.83073 8.16054 6.76732 8.12762C6.67601 8.08203 6.58977 8.03897 6.51622 7.99338C5.76545 7.51723 5.08317 6.89672 4.42879 6.09385C4.11174 5.69368 3.89869 5.35682 3.74397 5.01491C3.95195 4.82495 4.14471 4.6274 4.33241 4.43745C4.40342 4.36653 4.47444 4.29308 4.54546 4.22217C5.0781 3.6903 5.0781 3.0014 4.54546 2.46953L3.85303 1.7781C3.77441 1.69958 3.69324 1.61853 3.61715 1.53749C3.46497 1.38046 3.30518 1.21836 3.14031 1.0664C2.89429 0.82326 2.60007 0.694092 2.29063 0.694092C1.98119 0.694092 1.6819 0.82326 1.42827 1.0664C1.42573 1.06893 1.42573 1.06893 1.42319 1.07147L0.560828 1.94019C0.236173 2.26438 0.0510186 2.65948 0.0104368 3.1179C-0.050436 3.85746 0.167691 4.54636 0.335092 4.99718C0.745983 6.10398 1.35978 7.12973 2.27541 8.22893C3.38634 9.55354 4.72301 10.5996 6.2499 11.3366C6.83326 11.6126 7.61193 11.9394 8.4819 11.9951C8.53517 11.9976 8.59097 12.0001 8.64169 12.0001C9.22759 12.0001 9.71965 11.7899 10.1052 11.372C10.1077 11.367 10.1128 11.3644 10.1153 11.3594C10.2472 11.1998 10.3994 11.0554 10.5592 10.9009C10.6683 10.7971 10.7799 10.6882 10.8889 10.5742C11.14 10.3134 11.2719 10.0094 11.2719 9.6979C11.2719 9.38385 11.1375 9.08245 10.8813 8.82918L9.48884 7.43365ZM10.3969 10.1006C10.3943 10.1006 10.3943 10.1031 10.3969 10.1006C10.2979 10.207 10.1965 10.3032 10.0874 10.4096C9.92256 10.5666 9.75516 10.7313 9.5979 10.9161C9.34173 11.1897 9.0399 11.3188 8.64423 11.3188C8.60618 11.3188 8.5656 11.3188 8.52756 11.3163C7.77426 11.2682 7.07422 10.9744 6.54919 10.7237C5.11361 10.0297 3.85303 9.04446 2.80551 7.79583C1.94061 6.75488 1.36232 5.79245 0.979329 4.7591C0.743447 4.12846 0.65721 3.63711 0.695256 3.17362C0.720619 2.87729 0.834756 2.63162 1.04527 2.42141L1.91018 1.55775C2.03446 1.44124 2.16635 1.37793 2.2957 1.37793C2.45549 1.37793 2.58485 1.47417 2.66601 1.55522C2.66855 1.55775 2.67109 1.56028 2.67362 1.56281C2.82834 1.70718 2.97545 1.85661 3.13017 2.01617C3.2088 2.09722 3.28996 2.17826 3.37112 2.26184L4.06355 2.95328C4.33241 3.22174 4.33241 3.46995 4.06355 3.73842C3.99 3.81187 3.91898 3.88532 3.84542 3.95623C3.63237 4.17405 3.42946 4.37666 3.2088 4.57422C3.20372 4.57928 3.19865 4.58181 3.19611 4.58688C2.97799 4.80469 3.01857 5.01744 3.06422 5.16181C3.06676 5.1694 3.0693 5.177 3.07183 5.1846C3.25191 5.62023 3.50555 6.03053 3.89108 6.51934L3.89361 6.52187C4.59365 7.383 5.33173 8.05417 6.14591 8.56831C6.2499 8.63416 6.35643 8.68735 6.45788 8.738C6.54919 8.78359 6.63543 8.82665 6.70898 8.87224C6.71913 8.8773 6.72927 8.8849 6.73942 8.88997C6.82565 8.93302 6.90682 8.95328 6.99052 8.95328C7.20104 8.95328 7.33293 8.82158 7.37605 8.77853L8.24348 7.91234C8.32972 7.82622 8.46668 7.72238 8.62647 7.72238C8.78373 7.72238 8.91308 7.82116 8.99171 7.90727C8.99425 7.9098 8.99425 7.9098 8.99678 7.91234L10.3943 9.30786C10.6556 9.5662 10.6556 9.83214 10.3969 10.1006Z" fill="#00A7AC"/>
<path d="M6.48595 2.85479C7.15048 2.96623 7.75413 3.28029 8.23604 3.76151C8.71795 4.24272 9.02992 4.84551 9.14406 5.50908C9.17196 5.67624 9.31653 5.79275 9.4814 5.79275C9.50169 5.79275 9.51944 5.79021 9.53973 5.78768C9.72742 5.75729 9.85171 5.58 9.82127 5.39258C9.68431 4.58971 9.30385 3.85775 8.72302 3.27776C8.1422 2.69777 7.40919 2.31786 6.60516 2.18109C6.41747 2.1507 6.24246 2.2748 6.20948 2.45969C6.17651 2.64458 6.29826 2.8244 6.48595 2.85479Z" fill="#00A7AC"/>
<path d="M11.9944 5.29353C11.7687 3.97145 11.1448 2.76841 10.186 1.81104C9.22726 0.853673 8.02248 0.230625 6.6985 0.00521271C6.51334 -0.0277126 6.33834 0.0989233 6.30536 0.283812C6.27493 0.471233 6.39921 0.64599 6.5869 0.678916C7.76885 0.879 8.8468 1.43873 9.70409 2.29226C10.5614 3.14831 11.1194 4.22472 11.3198 5.40497C11.3477 5.57213 11.4922 5.68863 11.6571 5.68863C11.6774 5.68863 11.6951 5.6861 11.7154 5.68356C11.9006 5.6557 12.0274 5.47841 11.9944 5.29353Z" fill="#00A7AC"/>
</svg>
