<svg width="32" height="39" viewBox="0 0 32 39" fill="none" xmlns="http://www.w3.org/2000/svg">
<circle cx="16" cy="23" r="16" fill="white"/>
<path d="M13.9891 31.7999C13.8811 32.0667 13.2871 32.0667 12.5852 31.7999C11.9372 31.533 11.5052 31.1061 11.5592 30.8926C11.6672 30.6257 12.2612 30.6791 12.9632 30.8926C13.6111 31.1594 14.0971 31.5864 13.9891 31.7999Z" fill="#BFC0C1"/>
<path d="M15.5565 26.3558C15.5565 26.249 15.1245 26.0355 14.5845 25.8754C14.0445 25.7153 13.5586 25.662 13.5046 25.7153L11.7227 31.1057C11.9386 31.3725 12.4246 31.586 12.9106 31.6927C13.2346 31.7995 13.6126 31.8529 13.8285 31.7461L15.5565 26.3558Z" fill="url(#paint0_linear_1028_6170)"/>
<path d="M26.5643 18.0311C24.6204 14.4553 22.2985 12.6941 19.2207 11.7868C19.1667 11.7868 19.1127 11.7335 19.0587 11.7335C19.0047 11.7335 18.9507 11.6801 18.8967 11.6801C15.8189 10.7728 12.903 10.9329 9.28521 12.8542C6.53135 14.2952 5.50541 17.6041 4.96544 19.312C4.96544 19.312 4.85744 22.6209 7.5573 25.0759C10.1492 27.5309 13.173 28.545 13.875 28.7051C14.5769 28.9185 17.6548 29.8258 21.1646 29.1854C25.1604 28.4382 26.5643 25.7697 26.5643 25.7697C27.1043 24.0085 28.0762 20.753 26.5643 18.0311Z" fill="url(#paint1_radial_1028_6170)"/>
<path opacity="0.0909" d="M15.811 22.1398C11.3833 20.8589 8.46741 17.55 9.33137 14.7747C10.1413 12.0529 14.4071 10.9321 18.8349 12.213C23.2626 13.5472 26.1785 16.8561 25.3685 19.578C24.5046 22.2999 20.2388 23.474 15.811 22.1398Z" fill="#BAC5C0"/>
<path opacity="0.1818" d="M15.8747 21.9796C11.555 20.6987 8.74712 17.4431 9.55708 14.828C10.367 12.1595 14.5248 11.0921 18.8446 12.373C23.1644 13.6539 26.0262 16.8561 25.2162 19.5246C24.4063 22.1397 20.1945 23.2604 15.8747 21.9796Z" fill="#ADC3BA"/>
<path opacity="0.2727" d="M15.8808 21.8195C11.723 20.5386 9.02316 17.3898 9.77911 14.828C10.5891 12.2663 14.6389 11.1989 18.7966 12.4798C23.0624 13.7073 25.8163 16.8027 25.0603 19.3645C24.2503 21.9262 20.0926 23.047 15.8808 21.8195Z" fill="#A0C0B3"/>
<path opacity="0.3636" d="M15.9299 21.6593C11.8261 20.4318 9.23421 17.3364 9.99017 14.8814C10.7461 12.4264 14.6879 11.4123 18.7917 12.6398C22.8955 13.8674 25.6493 16.8561 24.8934 19.3644C24.1374 21.7661 20.0336 22.8869 15.9299 21.6593Z" fill="#93BEAC"/>
<path opacity="0.4545" d="M15.9742 21.4457C11.9784 20.2716 9.49451 17.2295 10.1965 14.8279C10.9524 12.4262 14.7862 11.4656 18.782 12.6397C22.7778 13.8139 25.4777 16.7492 24.7217 19.1508C24.0197 21.5525 19.9699 22.6732 15.9742 21.4457Z" fill="#86BCA5"/>
<path opacity="0.5455" d="M16.0358 21.2866C12.148 20.1125 9.7721 17.1771 10.4741 14.8822C11.176 12.5873 14.9018 11.68 18.7896 12.8008C22.6774 13.9749 25.3233 16.7502 24.5673 19.0451C23.8654 21.34 19.9236 22.4607 16.0358 21.2866Z" fill="#79BA9F"/>
<path opacity="0.6364" d="M16.087 21.1264C12.3072 20.0056 9.98532 17.1236 10.6873 14.8821C11.3892 12.6939 15.0071 11.7866 18.7869 12.9074C22.5667 14.0282 25.1045 16.75 24.4565 18.9382C23.7546 21.1797 19.8668 22.2471 16.087 21.1264Z" fill="#6CB898"/>
<path opacity="0.7273" d="M16.1468 20.9124C12.475 19.845 10.2611 17.0164 10.909 14.8816C11.557 12.7469 15.0668 11.9463 18.7386 13.0137C22.4104 14.1345 24.8943 16.7496 24.2463 18.831C23.6524 20.9658 19.8186 22.0332 16.1468 20.9124Z" fill="#5FB691"/>
<path opacity="0.8182" d="M16.2008 20.7527C12.637 19.6853 10.5311 16.9101 11.179 14.882C11.773 12.854 15.1748 12.0534 18.7386 13.1208C22.3025 14.1882 24.7323 16.6966 24.1384 18.7247C23.4904 20.8061 19.7646 21.8201 16.2008 20.7527Z" fill="#52B38A"/>
<path opacity="0.9091" d="M16.2449 20.592C12.789 19.5779 10.7911 16.8561 11.3851 14.9348C11.9791 12.9601 15.2729 12.2663 18.7827 13.2803C22.2925 14.2943 24.6144 16.7493 24.0204 18.6707C23.3725 20.592 19.7007 21.606 16.2449 20.592Z" fill="#45B184"/>
<path d="M23.8039 18.5644C23.2099 20.4323 19.6461 21.4463 16.2443 20.4323C12.8965 19.4183 11.0066 16.8032 11.6005 14.9352C12.1945 13.0673 15.3803 12.3735 18.7282 13.3875C22.13 14.3482 24.3979 16.6964 23.8039 18.5644Z" fill="#38AF7D"/>
<path opacity="0.51" d="M25.8627 17.7632C26.0787 18.5638 26.0787 19.311 25.8627 20.0581C24.8367 23.2603 20.193 24.7013 15.4412 23.3137C10.6355 21.8727 7.55764 18.1368 8.58359 14.9346C8.79957 14.1875 9.23155 13.547 9.82552 12.96C8.63758 13.6538 7.77363 14.6144 7.39565 15.8419C6.3697 19.2576 9.71753 23.3137 14.9552 24.8614C20.139 26.4092 25.2687 24.8614 26.2946 21.4458C26.6186 20.2183 26.4566 18.9908 25.8627 17.7632Z" fill="#02D179"/>
<path d="M16.0418 5.22144L11.9381 15.1482C11.9381 15.1482 11.8841 15.3083 11.9381 15.4151C12.0461 16.1089 12.64 18.5639 16.5278 19.8981C20.0376 21.0723 22.5755 19.0442 22.7375 18.2437C22.8995 17.1763 25.1674 6.76916 25.1674 6.76916L16.0418 5.22144Z" fill="url(#paint2_linear_1028_6170)"/>
<path d="M16.2033 5.48853C15.0693 7.99691 12.0995 15.0951 11.9375 15.5221C11.9915 15.8423 12.3155 18.0304 15.3933 19.4714L19.6591 6.07559L16.2033 5.48853Z" fill="url(#paint3_linear_1028_6170)"/>
<path d="M22.5796 18.5636C22.6876 18.0299 23.0656 16.0019 23.5516 13.6002C23.8756 12.0525 24.9015 8.04978 25.1175 6.82227L21.7697 6.28857L17.5039 20.1647C20.2578 20.7518 22.4716 18.9906 22.5796 18.5636Z" fill="url(#paint4_linear_1028_6170)"/>
<path d="M28.8448 7.30031C28.1011 9.71665 23.639 11.0284 19.3797 9.71665C15.1879 8.40492 12.8217 5.02204 13.5653 2.6057C14.309 0.189351 18.2979 -0.708148 22.4896 0.603581C26.7489 1.84627 29.5885 4.88396 28.8448 7.30031Z" fill="#00AB62"/>
<defs>
<linearGradient id="paint0_linear_1028_6170" x1="11.9706" y1="28.2403" x2="14.5517" y2="29.0594" gradientUnits="userSpaceOnUse">
<stop stop-color="#C7C7C7"/>
<stop offset="0.0275" stop-color="#ABABAB"/>
<stop offset="0.2143" stop-color="#929593"/>
<stop offset="0.3571" stop-color="#EDEDED"/>
<stop offset="0.4231" stop-color="#EDEDED"/>
<stop offset="0.6044" stop-color="#949AA1"/>
<stop offset="0.6209" stop-color="#8A8E97"/>
<stop offset="0.6777" stop-color="#6A6978"/>
<stop offset="0.7237" stop-color="#565265"/>
<stop offset="0.7527" stop-color="#4F4A5E"/>
<stop offset="0.8571" stop-color="#8799A6"/>
<stop offset="0.9341" stop-color="#A8A8A8"/>
<stop offset="0.9719" stop-color="#A6A6A6"/>
<stop offset="0.9901" stop-color="#9E9E9E"/>
<stop offset="1" stop-color="#969696"/>
</linearGradient>
<radialGradient id="paint1_radial_1028_6170" cx="0" cy="0" r="1" gradientUnits="userSpaceOnUse" gradientTransform="translate(16.6375 15.9552) rotate(16.5784) scale(21.9463 21.7331)">
<stop offset="0.1813" stop-color="#00974E"/>
<stop offset="0.4847" stop-color="#00B773"/>
<stop offset="0.6758" stop-color="#00C786"/>
<stop offset="0.7986" stop-color="#22C797"/>
<stop offset="0.9268" stop-color="#3FC7A6"/>
<stop offset="1" stop-color="#4AC7AC"/>
</radialGradient>
<linearGradient id="paint2_linear_1028_6170" x1="13.191" y1="11.0418" x2="23.9092" y2="14.3074" gradientUnits="userSpaceOnUse">
<stop offset="0.0275" stop-color="#18C795"/>
<stop offset="0.1056" stop-color="#12BB85"/>
<stop offset="0.2644" stop-color="#08A66A"/>
<stop offset="0.4048" stop-color="#029959"/>
<stop offset="0.511" stop-color="#009553"/>
<stop offset="0.8139" stop-color="#00B779"/>
<stop offset="1" stop-color="#00C78C"/>
</linearGradient>
<linearGradient id="paint3_linear_1028_6170" x1="19.6421" y1="13.5997" x2="12.2653" y2="11.8857" gradientUnits="userSpaceOnUse">
<stop stop-color="#868686"/>
<stop offset="0.280436" stop-color="#06A05F"/>
<stop offset="0.703682" stop-color="#13C478"/>
</linearGradient>
<linearGradient id="paint4_linear_1028_6170" x1="25.1007" y1="14.4067" x2="17.8161" y2="12.7391" gradientUnits="userSpaceOnUse">
<stop stop-color="#C7C7C7"/>
<stop offset="0.2677" stop-color="#06A05F"/>
<stop offset="0.4176" stop-color="#13C478"/>
</linearGradient>
</defs>
</svg>
