<svg width="10" height="12" viewBox="0 0 10 12" fill="none" xmlns="http://www.w3.org/2000/svg">
<path d="M5.16732 0C1.79398 0 0 2.1076 0 4.4057C0 5.4715 0.610816 6.80056 1.58858 7.22208C1.73706 7.28733 1.81783 7.25958 1.85091 7.12532C1.88014 7.02332 2.00862 6.53205 2.07093 6.30028C2.09016 6.22603 2.08016 6.16153 2.01862 6.09178C1.69398 5.72576 1.43626 5.05898 1.43626 4.43345C1.43626 2.83063 2.74329 1.27431 4.96731 1.27431C6.89053 1.27431 8.23602 2.49236 8.23602 4.23469C8.23602 6.20353 7.16747 7.56559 5.77891 7.56559C5.01039 7.56559 4.43803 6.97757 4.61959 6.25003C4.83883 5.38374 5.26887 4.4522 5.26887 3.82742C5.26887 3.26715 4.94423 2.80363 4.2811 2.80363C3.49873 2.80363 2.86407 3.55891 2.86407 4.57296C2.86407 5.21724 3.09793 5.65226 3.09793 5.65226C3.09793 5.65226 2.32403 8.70039 2.18017 9.26967C1.93707 10.2335 2.21325 11.7943 2.2371 11.9285C2.25171 12.0028 2.3371 12.026 2.3848 11.9653C2.46096 11.8678 3.39642 10.5665 3.65874 9.62594C3.75414 9.28317 4.1457 7.89336 4.1457 7.89336C4.40342 8.34713 5.14732 8.7274 5.93969 8.7274C8.29679 8.7274 10 6.70755 10 4.20094C9.99154 1.79783 7.88214 0 5.16732 0Z" fill="#D32F2F"/>
</svg>
