<svg width="20" height="19" viewBox="0 0 20 19" fill="none" xmlns="http://www.w3.org/2000/svg">
<path d="M17.6854 5.69805L12.4613 5.21714L10.3862 0.434281C10.2409 0.0993803 9.76251 0.0993803 9.61724 0.434281L7.54209 5.2171L2.31804 5.69805C1.95223 5.73171 1.80443 6.18331 2.08039 6.42396L6.02196 9.86082L4.86845 14.9409C4.78767 15.2966 5.17472 15.5757 5.49057 15.3896L10.0017 12.7308L14.5129 15.3896C14.8288 15.5757 15.2157 15.2966 15.135 14.9409L13.9814 9.86082L17.923 6.42396C18.199 6.18331 18.0512 5.73171 17.6854 5.69805Z" fill="#FFAC27"/>
<path d="M4.65964 0.26952C4.92595 0.636678 5.67764 2.21348 6.10739 3.13242C6.17497 3.27688 5.99236 3.40738 5.87576 3.29793C5.13411 2.60192 3.866 1.39414 3.59968 1.02694C3.38895 0.736434 3.45539 0.331359 3.74811 0.122191C4.04079 -0.0869764 4.4489 -0.0209888 4.65964 0.26952Z" fill="#FFAC27"/>
<path d="M15.3373 0.26952C15.071 0.636678 14.3193 2.21348 13.8896 3.13242C13.822 3.27688 14.0046 3.40738 14.1212 3.29793C14.8629 2.60192 16.1309 1.3941 16.3973 1.02694C16.608 0.736434 16.5416 0.331359 16.2489 0.122191C15.9562 -0.0869764 15.5481 -0.0209888 15.3373 0.26952Z" fill="#FFAC27"/>
<path d="M19.5473 11.0366C19.114 10.8964 17.3721 10.6646 16.3595 10.5375C16.2003 10.5174 16.1306 10.7298 16.271 10.8068C17.1644 11.2967 18.709 12.1288 19.1424 12.2691C19.4852 12.3801 19.8539 12.1942 19.9657 11.8538C20.0775 11.5135 19.8902 11.1476 19.5473 11.0366Z" fill="#FFAC27"/>
<path d="M0.450706 11.0366C0.884049 10.8964 2.62597 10.6646 3.63855 10.5375C3.79772 10.5174 3.86748 10.7298 3.72706 10.8068C2.83362 11.2967 1.28903 12.1288 0.85569 12.2691C0.512813 12.3801 0.144195 12.1942 0.0323638 11.8538C-0.0794677 11.5135 0.10783 11.1476 0.450706 11.0366Z" fill="#FFAC27"/>
<path d="M9.36719 18.3518C9.36719 17.8994 9.68534 16.1838 9.87752 15.1888C9.90771 15.0324 10.1327 15.0324 10.1629 15.1888C10.3551 16.1838 10.6733 17.8994 10.6733 18.3518C10.6733 18.7098 10.3809 19 10.0202 19C9.65956 19 9.36719 18.7098 9.36719 18.3518Z" fill="#FFAC27"/>
<path d="M11.1408 2.17353L10.3862 0.434281C10.2408 0.0993803 9.76247 0.0993803 9.6172 0.434281L7.54205 5.2171L2.31804 5.69805C1.95223 5.73171 1.80443 6.18331 2.08039 6.42396L6.02196 9.86082L4.86845 14.9409C4.78767 15.2966 5.17472 15.5757 5.49057 15.3896L6.09098 15.0357C7.07527 8.71143 9.84243 4.06895 11.1408 2.17353Z" fill="#FFAC27"/>
</svg>
