<svg width="24" height="17" viewBox="0 0 24 17" fill="none" xmlns="http://www.w3.org/2000/svg">
<path d="M16.634 10.869C16.1326 12.174 15.3426 13.4633 14.2866 14.7054C13.9524 15.0985 13.9068 15.6645 14.1803 16.1047C14.393 16.4507 14.7424 16.6393 15.1223 16.6393C15.2286 16.6393 15.335 16.6315 15.4414 16.5922C17.6747 15.9161 22.8937 13.5183 23.038 5.82974C23.0911 2.86598 20.9945 0.318861 18.2673 0.027985C16.7556 -0.129253 15.2514 0.381714 14.1347 1.41944C13.018 2.46504 12.3799 3.95874 12.3799 5.5153C12.3799 8.1096 14.1575 10.3816 16.634 10.869Z" fill="#00A7AC"/>
<path d="M5.87984 0.027985C4.37568 -0.129253 2.87156 0.381714 1.75487 1.41944C0.63814 2.46504 0 3.95874 0 5.51531C0 8.1096 1.77764 10.3816 4.25415 10.869C3.75275 12.174 2.96272 13.4633 1.90677 14.7054C1.57251 15.0985 1.52693 15.6645 1.80045 16.1047C2.01313 16.4506 2.3626 16.6393 2.74243 16.6393C2.84874 16.6393 2.95511 16.6315 3.06147 16.5921C5.29489 15.9161 10.5138 13.5183 10.6581 5.82974V5.71971C10.6581 2.80308 8.58425 0.318861 5.87984 0.027985Z" fill="#00A7AC"/>
</svg>
