<svg width="35" height="40" viewBox="0 0 35 40" fill="none" xmlns="http://www.w3.org/2000/svg">
<path d="M17.4905 40C14.1033 40 11.1751 35.6561 9.85156 28.6563L11.4877 28.3438C12.6238 34.3228 15.0309 38.3334 17.4905 38.3334C20.648 38.3334 24.16 30.802 24.16 20C24.16 9.198 20.648 1.66656 17.4905 1.66656C15.0309 1.66656 12.6238 5.67719 11.4877 11.6562L9.85156 11.3437C11.1751 4.34387 14.1033 0 17.4905 0C22.1697 0 25.8273 8.78113 25.8273 20C25.8273 31.2189 22.1697 40 17.4905 40Z" fill="#061421"/>
<path d="M6.08037 32.4999C2.59951 32.4999 1.13004 31.177 0.504761 30.0625C-1.77745 26 3.88151 18.3853 13.3959 12.7395C20.2847 8.64588 27.3814 6.70832 31.4667 7.80207C32.884 8.17713 33.8949 8.89582 34.4783 9.93738C34.8328 10.5624 34.9995 11.2811 34.9995 12.0623C34.9891 14.0936 34.1553 16.0626 32.5399 17.9165L31.2894 16.8228C32.6547 15.2603 33.3319 13.6978 33.3426 12.0519C33.3426 11.5521 33.2382 11.1144 33.0403 10.7501C32.6859 10.1144 32.0191 9.66669 31.0497 9.40607C27.4232 8.43744 20.6807 10.3543 14.2505 14.1665C4.93392 19.6978 0.379888 26.4269 1.95347 29.2498C2.69324 30.5728 4.62128 30.8123 6.13227 30.8334C6.75755 30.8334 7.35169 30.823 8.1229 30.7604L8.26884 32.4166C7.43504 32.4896 6.77861 32.4999 6.14296 32.4999C6.12189 32.4999 6.10113 32.4999 6.08037 32.4999Z" fill="#061421"/>
<path d="M28.9031 32.5C24.7554 32.5 19.0027 30.5939 13.3856 27.2604C3.88154 21.6147 -1.77741 13.9999 0.504795 9.93744C1.13007 8.82294 2.60992 7.5 6.0804 7.5H6.19489C6.90352 7.5 7.51842 7.53113 8.24812 7.58331L8.13332 9.24988C7.43507 9.198 6.85162 9.17694 6.18451 9.17694C4.6839 9.198 2.71434 9.42719 1.96388 10.7605C0.379923 13.573 4.93395 20.3021 14.2402 25.8334C20.6597 29.6457 27.4128 31.5625 31.0393 30.5939C31.998 30.3333 32.6755 29.8856 33.0193 29.2499C33.2278 28.8751 33.3319 28.4167 33.3215 27.9062C33.3008 26.6458 32.7485 23.2916 28.1111 19.3439L29.195 18.0728C32.8214 21.1563 34.937 24.7293 34.9995 27.8751C35.0099 28.6874 34.8432 29.4272 34.4784 30.0626C33.8949 31.0938 32.884 31.8124 31.4668 32.1979C30.7163 32.3959 29.8514 32.5 28.9031 32.5Z" fill="#061421"/>
<path d="M17.4929 24.1666C15.1897 24.1666 13.3242 22.302 13.3242 20.0001C13.3242 17.6981 15.1897 15.8335 17.4929 15.8335C19.7959 15.8335 21.6614 17.6981 21.6614 20.0001C21.6614 22.302 19.7959 24.1666 17.4929 24.1666ZM17.4929 17.5001C16.1172 17.5001 14.9918 18.6249 14.9918 20.0001C14.9918 21.3752 16.1172 22.5001 17.4929 22.5001C18.8684 22.5001 19.9941 21.3752 19.9941 20.0001C19.9941 18.6249 18.8684 17.5001 17.4929 17.5001Z" fill="#061421"/>
</svg>
