<svg width="27" height="26" viewBox="0 0 27 26" fill="none" xmlns="http://www.w3.org/2000/svg">
<g opacity="0.85">
<path d="M26.3408 6.82567C26.3407 6.82567 26.3407 6.82567 26.3407 6.82567L26.3398 6.82481L24.6616 6.5853C24.4257 6.55169 24.2617 6.33317 24.2953 6.09723C24.3114 5.98384 24.372 5.88156 24.4636 5.81284L25.8199 4.79526C26.0106 4.65226 26.0492 4.38179 25.9062 4.1911L24.3531 2.1197C24.2102 1.92901 23.9398 1.89039 23.7491 2.03339L22.3932 3.05097C22.2034 3.19505 21.9327 3.15794 21.7887 2.96806C21.7188 2.87587 21.6888 2.75941 21.7055 2.64489L21.9454 0.96619C21.9792 0.730245 21.8154 0.511615 21.5796 0.477739C21.5794 0.477739 21.5793 0.477685 21.5791 0.477685L19.0182 0.111737C18.7824 0.0778608 18.5637 0.241631 18.5298 0.477577C18.5298 0.477631 18.5298 0.477631 18.5298 0.477685L18.29 2.15638C18.2564 2.39233 18.0379 2.55637 17.802 2.52276C17.6887 2.50663 17.5864 2.44606 17.5177 2.35446L16.5009 0.997693C16.3579 0.807005 16.0875 0.768382 15.8969 0.911384L14.6005 1.88451C14.0139 1.82215 13.4225 1.82215 12.836 1.88451C8.99493 2.32366 5.98282 5.38772 5.6084 9.2367C5.59675 9.35882 5.59244 9.48009 5.5864 9.60135H5.45697C5.25227 9.60173 5.07598 9.74597 5.03505 9.94658L4.73694 11.3646L3.54277 10.5408C3.37139 10.4225 3.13993 10.4436 2.99271 10.5909L1.69846 11.8855C1.55145 12.0327 1.53042 12.2639 1.64841 12.4353L2.46811 13.6276L1.05003 13.9258C0.851689 13.9693 0.710507 14.1452 0.710938 14.3483V16.0745C0.710831 16.2786 0.853792 16.4549 1.05348 16.497L2.47156 16.7952L1.65186 17.9875C1.53387 18.1589 1.5549 18.3901 1.70191 18.5373L2.99616 19.8319C3.14338 19.9792 3.37484 20.0003 3.54622 19.882L4.73823 19.0599L5.03634 20.4784C5.07727 20.679 5.25356 20.8232 5.45827 20.8236H7.18394C7.388 20.8237 7.56424 20.6807 7.6063 20.481L7.90441 19.0625L9.09642 19.8824C9.26775 20.0004 9.49888 19.9794 9.64605 19.8323L10.316 19.16V20.3899C10.318 21.0038 10.6468 21.5702 11.1789 21.8761V24.2738C11.1789 25.2271 11.9515 26 12.9046 26H14.6302C15.5833 26 16.3559 25.2271 16.3559 24.2738V21.8761C16.888 21.5702 17.2168 21.0038 17.2187 20.3899V18.6819C17.2304 17.9632 17.6063 17.2997 18.2166 16.9203C18.5746 16.688 18.9142 16.4282 19.2322 16.1435L18.6567 15.5005C18.3722 15.7556 18.0683 15.988 17.7477 16.1957C16.891 16.7336 16.3666 17.6702 16.3559 18.6819V20.3899C16.3559 20.8666 15.9696 21.253 15.4931 21.253H12.0417C11.5652 21.253 11.1789 20.8666 11.1789 20.3899V18.646C11.1689 17.6535 10.6528 16.735 9.81042 16.2104C6.39105 14.0612 5.36082 9.54627 7.5094 6.12592C8.84248 4.00376 11.169 2.7121 13.6746 2.70315C13.6682 2.71852 13.6626 2.73422 13.6578 2.75019C13.6418 2.86347 13.6715 2.97853 13.7402 3.06996L14.7571 4.4263C14.8643 4.56509 14.8746 4.75572 14.783 4.90531C14.6947 5.05581 14.5242 5.13791 14.3515 5.11288L12.6733 4.87294C12.4374 4.83912 12.2189 5.00294 12.185 5.23883C12.185 5.239 12.1849 5.23916 12.1849 5.23932L11.8187 7.80225C11.7849 8.03814 11.9486 8.25682 12.1845 8.2907C12.1846 8.2907 12.1848 8.29076 12.1849 8.29076L13.8632 8.53069C14.099 8.5643 14.263 8.78282 14.2294 9.01877C14.2133 9.13215 14.1528 9.23443 14.0612 9.30315L12.7052 10.3203C12.5146 10.4633 12.476 10.7338 12.619 10.9245L14.1721 12.9959C14.315 13.1865 14.5854 13.2252 14.7761 13.0822L16.1324 12.065C16.3232 11.9223 16.5936 11.9613 16.7363 12.1522C16.8046 12.2435 16.834 12.3582 16.818 12.4711L16.5785 14.1498C16.5447 14.3857 16.7084 14.6044 16.9443 14.6383C16.9443 14.6383 16.9443 14.6383 16.9444 14.6383L19.507 15.0047C19.5272 15.0073 19.5475 15.0086 19.5678 15.0086C19.7826 15.0088 19.9648 14.851 19.9954 14.6383L20.2348 12.9596C20.2684 12.7237 20.4868 12.5596 20.7227 12.5932C20.8361 12.6094 20.9383 12.6699 21.007 12.7615L22.0243 14.1179C22.1673 14.3086 22.4377 14.3472 22.6283 14.2042L24.6991 12.6506C24.8897 12.5076 24.9284 12.2372 24.7854 12.0465L23.7685 10.6901C23.6618 10.5511 23.6515 10.3608 23.7427 10.2111C23.829 10.0586 24.0011 9.97598 24.1741 10.004L25.8523 10.2435C26.0881 10.2774 26.3068 10.1135 26.3407 9.87764C26.3407 9.87759 26.3407 9.87759 26.3407 9.87754L26.7065 7.31418C26.7404 7.07823 26.5766 6.85955 26.3408 6.82567ZM12.0417 22.1161H15.4931V22.9792H12.0417V22.1161ZM12.0417 23.8422H15.4931V24.2738C15.4931 24.7505 15.1068 25.1369 14.6302 25.1369H12.9046C12.428 25.1369 12.0417 24.7505 12.0417 24.2738V23.8422ZM8.60719 16.4003C8.84275 16.593 9.08887 16.7724 9.34449 16.9376C9.75212 17.1952 10.059 17.5851 10.2138 18.0419L9.2884 18.9658L8.39235 18.3478C7.99997 18.0774 7.46269 18.1763 7.19225 18.5688C7.12743 18.6629 7.08191 18.769 7.0584 18.8808L6.83234 19.9584H5.80686L5.58079 18.8825C5.48264 18.4161 5.02507 18.1175 4.55876 18.2157C4.44697 18.2392 4.34095 18.2847 4.24685 18.3496L3.35036 18.9658L2.56431 18.1813L3.18167 17.2854C3.45233 16.8931 3.35376 16.3556 2.96154 16.0848C2.86738 16.0198 2.76126 15.9742 2.6493 15.9506L1.57378 15.7241V14.6987L2.6493 14.4722C3.11545 14.3733 3.41324 13.9152 3.31439 13.4488C3.29093 13.3382 3.24601 13.2333 3.1821 13.14L2.56431 12.2415L3.35036 11.457L4.24728 12.0749C4.63981 12.3451 5.17709 12.2459 5.44721 11.8532C5.51193 11.7592 5.55733 11.6533 5.58079 11.5416L5.65629 11.1825C5.72543 11.6798 5.83991 12.1696 5.9984 12.6459C4.57888 12.8152 3.56531 14.1035 3.73454 15.5235C3.90376 16.9434 5.19176 17.9572 6.61129 17.788C7.46582 17.686 8.21385 17.166 8.60719 16.4003ZM7.9372 15.7923C7.61504 16.688 6.62801 17.1529 5.73254 16.8307C4.83708 16.5084 4.37233 15.5211 4.69444 14.6254C4.94089 13.9401 5.59131 13.4837 6.31933 13.4852C6.32494 13.4852 6.33011 13.4852 6.33572 13.4852C6.73246 14.3409 7.27427 15.1214 7.9372 15.7923ZM25.5451 9.32689L24.294 9.14823C23.5864 9.04714 22.9308 9.53904 22.8298 10.2468C22.7812 10.5867 22.8697 10.932 23.0757 11.2067L23.8337 12.2178L22.4531 13.2535L21.6947 12.2428C21.2659 11.6708 20.4547 11.5547 19.8828 11.9837C19.6082 12.1896 19.4266 12.4963 19.378 12.8362L19.2033 14.0894L17.4953 13.8451L17.6739 12.5937C17.7752 11.8859 17.2837 11.2299 16.5761 11.1286C16.2361 11.0799 15.8908 11.1684 15.616 11.3746L14.6052 12.1328L13.5698 10.7518L14.5802 9.99319C15.1521 9.56424 15.2681 8.75278 14.8393 8.18077C14.6334 7.90609 14.3268 7.72446 13.987 7.67581L12.7359 7.49715L12.9801 5.78867L14.2312 5.96733C14.9387 6.06869 15.5945 5.57706 15.6958 4.86927C15.7445 4.52916 15.656 4.18371 15.4499 3.90888L14.6893 2.89691L16.0699 1.86121L16.8283 2.87231C17.2571 3.44438 18.0684 3.56041 18.6402 3.13145C18.9148 2.9255 19.0964 2.61883 19.145 2.27894L19.3236 1.02747L21.0316 1.27129L20.853 2.52276C20.752 3.2306 21.2437 3.88633 21.9513 3.98742C22.2911 4.03597 22.6363 3.9475 22.9109 3.74144L23.9217 2.98322L24.9571 4.36415L23.9463 5.1228C23.3744 5.55176 23.2584 6.36322 23.6872 6.93523C23.8931 7.2099 24.1997 7.39153 24.5395 7.44019L25.7906 7.61884L25.5451 9.32689Z" fill="#00A7AC"/>
<path d="M19.2629 4.10535C17.3568 4.10535 15.8115 5.65102 15.8115 7.55768C15.8115 9.46434 17.3568 11.01 19.2629 11.01C21.169 11.01 22.7142 9.46434 22.7142 7.55768C22.7121 5.65189 21.1681 4.10745 19.2629 4.10535ZM19.2629 10.1469C17.8333 10.1469 16.6744 8.98771 16.6744 7.55768C16.6744 6.12766 17.8333 4.96843 19.2629 4.96843C20.6925 4.96843 21.8514 6.12766 21.8514 7.55768C21.8497 8.98701 20.6918 10.1453 19.2629 10.1469Z" fill="#00A7AC"/>
<path d="M14.1988 19.0953H13.3359V20.3895H14.1988V19.0953Z" fill="#00A7AC"/>
<path d="M11.8811 14.8572C9.21789 13.8165 7.90233 10.8133 8.94275 8.14932C9.34591 7.11707 10.0695 6.24142 11.007 5.65107L10.5459 4.9209C7.72351 6.69945 6.87691 10.4299 8.65494 13.253C9.34354 14.3464 10.3645 15.1901 11.5679 15.6603C12.6331 16.0685 13.3364 17.0912 13.3367 18.2322H14.1995C14.2009 16.7352 13.2786 15.3926 11.8811 14.8572Z" fill="#00A7AC"/>
<path d="M24.9838 16.0745H21.9639V16.9375H24.9838V16.0745Z" fill="#00A7AC"/>
<path d="M21.8102 18.3317L21.2578 18.9949L23.8469 21.1527L24.3993 20.4895L21.8102 18.3317Z" fill="#00A7AC"/>
<path d="M20.241 19.5269H19.3779V22.5477H20.241V19.5269Z" fill="#00A7AC"/>
<path d="M4.6015 6.59324L1.15039 7.45618L1.35952 8.29304L4.81063 7.4301L4.6015 6.59324Z" fill="#00A7AC"/>
<path d="M2.36856 2.34597L1.86719 3.04791L4.88774 5.2054L5.38912 4.50346L2.36856 2.34597Z" fill="#00A7AC"/>
<path d="M6.40159 2.0177e-05L5.56543 0.213806L6.44805 3.66588L7.2842 3.45209L6.40159 2.0177e-05Z" fill="#00A7AC"/>
</g>
</svg>
