<svg width="14" height="14" viewBox="0 0 14 14" fill="none" xmlns="http://www.w3.org/2000/svg">
<path d="M7 13.125C5.37555 13.125 3.81763 12.4797 2.66897 11.331C1.52031 10.1824 0.875 8.62445 0.875 7C0.875 5.37555 1.52031 3.81763 2.66897 2.66897C3.81763 1.52031 5.37555 0.875 7 0.875C8.62445 0.875 10.1824 1.52031 11.331 2.66897C12.4797 3.81763 13.125 5.37555 13.125 7C13.125 8.62445 12.4797 10.1824 11.331 11.331C10.1824 12.4797 8.62445 13.125 7 13.125ZM7 14C8.85652 14 10.637 13.2625 11.9497 11.9497C13.2625 10.637 14 8.85652 14 7C14 5.14348 13.2625 3.36301 11.9497 2.05025C10.637 0.737498 8.85652 0 7 0C5.14348 0 3.36301 0.737498 2.05025 2.05025C0.737498 3.36301 0 5.14348 0 7C0 8.85652 0.737498 10.637 2.05025 11.9497C3.36301 13.2625 5.14348 14 7 14Z" fill="white"/>
<path d="M4.06603 4.0653C4.10667 4.02456 4.15495 3.99223 4.2081 3.97018C4.26125 3.94812 4.31824 3.93677 4.37578 3.93677C4.43333 3.93677 4.49031 3.94812 4.54346 3.97018C4.59661 3.99223 4.64489 4.02456 4.68553 4.0653L7.00078 6.38142L9.31603 4.0653C9.35671 4.02462 9.405 3.99236 9.45815 3.97034C9.51129 3.94833 9.56826 3.937 9.62578 3.937C9.68331 3.937 9.74027 3.94833 9.79342 3.97034C9.84656 3.99236 9.89486 4.02462 9.93553 4.0653C9.97621 4.10598 10.0085 4.15427 10.0305 4.20741C10.0525 4.26056 10.0638 4.31752 10.0638 4.37505C10.0638 4.43258 10.0525 4.48954 10.0305 4.54269C10.0085 4.59583 9.97621 4.64412 9.93553 4.6848L7.61941 7.00005L9.93553 9.3153C9.97621 9.35598 10.0085 9.40427 10.0305 9.45741C10.0525 9.51056 10.0638 9.56752 10.0638 9.62505C10.0638 9.68258 10.0525 9.73954 10.0305 9.79269C10.0085 9.84583 9.97621 9.89412 9.93553 9.9348C9.89486 9.97548 9.84656 10.0077 9.79342 10.0298C9.74027 10.0518 9.68331 10.0631 9.62578 10.0631C9.56826 10.0631 9.51129 10.0518 9.45815 10.0298C9.405 10.0077 9.35671 9.97548 9.31603 9.9348L7.00078 7.61867L4.68553 9.9348C4.64486 9.97548 4.59656 10.0077 4.54342 10.0298C4.49027 10.0518 4.43331 10.0631 4.37578 10.0631C4.31826 10.0631 4.26129 10.0518 4.20815 10.0298C4.155 10.0077 4.10671 9.97548 4.06603 9.9348C4.02535 9.89412 3.99309 9.84583 3.97107 9.79269C3.94906 9.73954 3.93773 9.68258 3.93773 9.62505C3.93773 9.56752 3.94906 9.51056 3.97107 9.45741C3.99309 9.40427 4.02535 9.35598 4.06603 9.3153L6.38216 7.00005L4.06603 4.6848C4.02529 4.64416 3.99296 4.59588 3.97091 4.54273C3.94885 4.48958 3.9375 4.4326 3.9375 4.37505C3.9375 4.3175 3.94885 4.26052 3.97091 4.20737C3.99296 4.15422 4.02529 4.10594 4.06603 4.0653Z" fill="white"/>
</svg>
