<svg width="12" height="10" viewBox="0 0 12 10" fill="none" xmlns="http://www.w3.org/2000/svg">
<path d="M0.5 10V3.6375C0.35 3.54583 0.229167 3.43333 0.1375 3.3C0.0458333 3.16667 0 3.01667 0 2.85C0 2.68333 0.0854167 2.47917 0.25625 2.2375C0.427083 1.99583 0.633333 1.75833 0.875 1.525C1.11667 1.75833 1.32292 1.99583 1.49375 2.2375C1.66458 2.47917 1.75 2.68333 1.75 2.85C1.75 3.01667 1.70417 3.16667 1.6125 3.3C1.52083 3.43333 1.4 3.54583 1.25 3.6375V6H2.625V4.725C2.625 4.525 2.70208 4.34583 2.85625 4.1875C3.01042 4.02917 3.20833 3.95 3.45 3.95C3.34167 3.76667 3.26042 3.5875 3.20625 3.4125C3.15208 3.2375 3.125 3.06667 3.125 2.9C3.125 2.59167 3.19792 2.30208 3.34375 2.03125C3.48958 1.76042 3.69167 1.54167 3.95 1.375L6 0L8.05 1.375C8.30833 1.54167 8.51042 1.76042 8.65625 2.03125C8.80208 2.30208 8.875 2.59167 8.875 2.9C8.875 3.06667 8.84792 3.2375 8.79375 3.4125C8.73958 3.5875 8.65833 3.76667 8.55 3.95C8.79167 3.95 8.98958 4.02917 9.14375 4.1875C9.29792 4.34583 9.375 4.525 9.375 4.725V6H10.75V3.6375C10.6 3.54583 10.4792 3.43333 10.3875 3.3C10.2958 3.16667 10.25 3.01667 10.25 2.85C10.25 2.68333 10.3354 2.47917 10.5063 2.2375C10.6771 1.99583 10.8833 1.75833 11.125 1.525C11.3667 1.75833 11.5729 1.99583 11.7437 2.2375C11.9146 2.47917 12 2.68333 12 2.85C12 3.01667 11.9542 3.16667 11.8625 3.3C11.7708 3.43333 11.65 3.54583 11.5 3.6375V10H6.625V8C6.625 7.825 6.56458 7.67708 6.44375 7.55625C6.32292 7.43542 6.175 7.375 6 7.375C5.825 7.375 5.67708 7.43542 5.55625 7.55625C5.43542 7.67708 5.375 7.825 5.375 8V10H0.5ZM4.95 3.975H7.05C7.35 3.975 7.60417 3.87083 7.8125 3.6625C8.02083 3.45417 8.125 3.2 8.125 2.9C8.125 2.71667 8.08125 2.54583 7.99375 2.3875C7.90625 2.22917 7.79167 2.1 7.65 2L6 0.9L4.35 2C4.20833 2.1 4.09375 2.22917 4.00625 2.3875C3.91875 2.54583 3.875 2.71667 3.875 2.9C3.875 3.2 3.97917 3.45417 4.1875 3.6625C4.39583 3.87083 4.65 3.975 4.95 3.975ZM1.25 9.25H4.625V8C4.625 7.61667 4.75833 7.29167 5.025 7.025C5.29167 6.75833 5.61667 6.625 6 6.625C6.38333 6.625 6.70833 6.75833 6.975 7.025C7.24167 7.29167 7.375 7.61667 7.375 8V9.25H10.75V6.75H8.625V4.725H3.375V6.75H1.25V9.25Z" fill="#00A7AC"/>
</svg>
