<svg width="14" height="14" viewBox="0 0 14 14" fill="none" xmlns="http://www.w3.org/2000/svg">
<path d="M1.3125 0C0.964403 0 0.630564 0.138281 0.384422 0.384422C0.138281 0.630564 0 0.964403 0 1.3125L0 11.375C0 11.6071 0.0921872 11.8296 0.256282 11.9937C0.420376 12.1578 0.642936 12.25 0.875 12.25V1.3125C0.875 1.19647 0.921094 1.08519 1.00314 1.00314C1.08519 0.921094 1.19647 0.875 1.3125 0.875H12.25C12.25 0.642936 12.1578 0.420376 11.9937 0.256282C11.8296 0.0921872 11.6071 0 11.375 0L1.3125 0Z" fill="white"/>
<path d="M3.0625 1.75C2.7144 1.75 2.38056 1.88828 2.13442 2.13442C1.88828 2.38056 1.75 2.7144 1.75 3.0625V12.6875C1.75 13.0356 1.88828 13.3694 2.13442 13.6156C2.38056 13.8617 2.7144 14 3.0625 14H8.38775C8.73573 13.9997 9.06934 13.8612 9.31525 13.615L13.6159 9.31525C13.8618 9.0692 13.9999 8.7356 14 8.38775V3.0625C14 2.7144 13.8617 2.38056 13.6156 2.13442C13.3694 1.88828 13.0356 1.75 12.6875 1.75H3.0625ZM2.625 3.0625C2.625 2.94647 2.67109 2.83519 2.75314 2.75314C2.83519 2.67109 2.94647 2.625 3.0625 2.625H12.6875C12.8035 2.625 12.9148 2.67109 12.9969 2.75314C13.0789 2.83519 13.125 2.94647 13.125 3.0625V7.875H9.1875C8.8394 7.875 8.50556 8.01328 8.25942 8.25942C8.01328 8.50556 7.875 8.8394 7.875 9.1875V13.125H3.0625C2.94647 13.125 2.83519 13.0789 2.75314 12.9969C2.67109 12.9148 2.625 12.8035 2.625 12.6875V3.0625ZM8.75 12.9439V9.1875C8.75 9.07147 8.79609 8.96019 8.87814 8.87814C8.96019 8.79609 9.07147 8.75 9.1875 8.75H12.9439L8.75 12.9439Z" fill="white"/>
</svg>
