<svg width="14" height="14" viewBox="0 0 14 14" fill="none" xmlns="http://www.w3.org/2000/svg">
<path d="M4.8125 8.32212C4.879 9.15687 5.53875 9.807 6.72175 9.884V10.5H7.24675V9.87963C8.47175 9.79388 9.1875 9.13938 9.1875 8.18913C9.1875 7.3255 8.63975 6.88013 7.66062 6.64913L7.24675 6.55113V4.87375C7.77175 4.93325 8.106 5.22025 8.1865 5.6175H9.107C9.0405 4.81337 8.351 4.18425 7.24675 4.116V3.5H6.72175V4.12912C5.67613 4.2315 4.963 4.86063 4.963 5.7505C4.963 6.538 5.49325 7.0385 6.37437 7.24413L6.72175 7.32987V9.10963C6.18363 9.02825 5.8275 8.73337 5.747 8.32212H4.8125ZM6.71738 6.42687C6.20113 6.307 5.92113 6.06287 5.92113 5.69537C5.92113 5.28412 6.223 4.97613 6.72175 4.886V6.426H6.71738V6.42687ZM7.32288 7.47075C7.95025 7.616 8.23987 7.85138 8.23987 8.267C8.23987 8.74125 7.87937 9.06675 7.24675 9.12625V7.45325L7.32288 7.47075Z" fill="#00A7AC"/>
<path d="M7 13.125C5.37555 13.125 3.81763 12.4797 2.66897 11.331C1.52031 10.1824 0.875 8.62445 0.875 7C0.875 5.37555 1.52031 3.81763 2.66897 2.66897C3.81763 1.52031 5.37555 0.875 7 0.875C8.62445 0.875 10.1824 1.52031 11.331 2.66897C12.4797 3.81763 13.125 5.37555 13.125 7C13.125 8.62445 12.4797 10.1824 11.331 11.331C10.1824 12.4797 8.62445 13.125 7 13.125ZM7 14C8.85652 14 10.637 13.2625 11.9497 11.9497C13.2625 10.637 14 8.85652 14 7C14 5.14348 13.2625 3.36301 11.9497 2.05025C10.637 0.737498 8.85652 0 7 0C5.14348 0 3.36301 0.737498 2.05025 2.05025C0.737498 3.36301 0 5.14348 0 7C0 8.85652 0.737498 10.637 2.05025 11.9497C3.36301 13.2625 5.14348 14 7 14Z" fill="#00A7AC"/>
<path d="M7 11.8125C5.72365 11.8125 4.49957 11.3055 3.59705 10.403C2.69453 9.50043 2.1875 8.27635 2.1875 7C2.1875 5.72365 2.69453 4.49957 3.59705 3.59705C4.49957 2.69453 5.72365 2.1875 7 2.1875C8.27635 2.1875 9.50043 2.69453 10.403 3.59705C11.3055 4.49957 11.8125 5.72365 11.8125 7C11.8125 8.27635 11.3055 9.50043 10.403 10.403C9.50043 11.3055 8.27635 11.8125 7 11.8125ZM7 12.25C7.68944 12.25 8.37213 12.1142 9.00909 11.8504C9.64605 11.5865 10.2248 11.1998 10.7123 10.7123C11.1998 10.2248 11.5865 9.64605 11.8504 9.00909C12.1142 8.37213 12.25 7.68944 12.25 7C12.25 6.31056 12.1142 5.62787 11.8504 4.99091C11.5865 4.35395 11.1998 3.7752 10.7123 3.28769C10.2248 2.80018 9.64605 2.41347 9.00909 2.14963C8.37213 1.8858 7.68944 1.75 7 1.75C5.60761 1.75 4.27226 2.30312 3.28769 3.28769C2.30312 4.27226 1.75 5.60761 1.75 7C1.75 8.39239 2.30312 9.72774 3.28769 10.7123C4.27226 11.6969 5.60761 12.25 7 12.25Z" fill="#00A7AC"/>
</svg>
