<svg width="30" height="30" viewBox="0 0 30 30" fill="none" xmlns="http://www.w3.org/2000/svg">
<path d="M27 0H3C1.34385 0.00164063 0.00164063 1.34385 0 3V25C0.00164063 26.6562 1.34385 27.9984 3 28H21.3235L22.7685 29.4455C23.1411 29.8182 23.6523 30.0187 24.179 29.9987C24.7057 29.9786 25.2002 29.74 25.5435 29.34C25.8594 28.9681 26.0155 28.4865 25.9779 28H27C28.6562 27.9984 29.9984 26.6562 30 25V3C29.9984 1.34385 28.6562 0.00164063 27 0V0ZM3 1.00002H27C28.1045 1.00002 29 1.89545 29 3V6H1.00002V3C1.00002 1.89545 1.89545 1.00002 3 1.00002ZM19.3145 23.8575C19.5105 23.691 19.702 23.519 19.8835 23.3365L20.9335 24.3865C20.7171 24.5288 20.5321 24.7139 20.39 24.9305L19.3145 23.8575ZM13.5 25C9.08174 25 5.50002 21.4183 5.50002 17C5.50002 12.5818 9.08174 9 13.5 9C17.9183 9 21.5 12.5817 21.5 17C21.4948 21.4161 17.9161 24.9947 13.5 25ZM24.7855 28.6875C24.6199 28.8701 24.3877 28.9784 24.1413 28.9878C23.8949 28.9972 23.6551 28.907 23.476 28.7375L21.3385 26.6C21.0094 26.2485 21.0185 25.6995 21.3589 25.359C21.6994 25.0185 22.2485 25.0095 22.6 25.3385L24.684 27.4225C25.0358 27.7564 25.0796 28.3018 24.7855 28.6875ZM27 27H25.6285C25.5584 26.8982 25.4793 26.803 25.392 26.7155L23.308 24.6315C22.9706 24.2953 22.5181 24.0997 22.042 24.0846L20.545 22.5846C23.4425 18.9077 23.0229 13.6204 19.5817 10.4465C16.1406 7.27266 10.8367 7.28092 7.40555 10.4656C3.97441 13.6503 3.57135 18.9388 6.48029 22.6066C9.38924 26.2744 14.6307 27.0864 18.513 24.4706L20.0835 26.0411C20.0944 26.3823 20.1981 26.714 20.3835 27.0006H3C1.89545 27.0006 1.00002 26.1052 1.00002 25.0006V7.00002H29V25C29 26.1046 28.1045 27 27 27Z" fill="#045DAF"/>
<path d="M3.5 5C4.3284 5 5 4.3284 5 3.5C5 2.6716 4.3284 2 3.5 2C2.6716 2 2 2.6716 2 3.5C2 4.3284 2.6716 5 3.5 5ZM3.5 3.00002C3.77615 3.00002 3.99998 3.22391 3.99998 3.5C3.99998 3.77609 3.77609 3.99998 3.5 3.99998C3.22391 3.99998 3.00002 3.77615 3.00002 3.5C3.00002 3.22385 3.22391 3.00002 3.5 3.00002Z" fill="#045DAF"/>
<path d="M7.5 5C8.32846 5 9 4.3284 9 3.5C9 2.6716 8.3284 2 7.5 2C6.6716 2 6 2.6716 6 3.5C6 4.3284 6.6716 5 7.5 5ZM7.5 3.00002C7.77615 3.00002 7.99998 3.22391 7.99998 3.5C7.99998 3.77609 7.77609 3.99998 7.5 3.99998C7.22385 3.99998 7.00002 3.77609 7.00002 3.5C7.00002 3.22391 7.22385 3.00002 7.5 3.00002Z" fill="#045DAF"/>
<path d="M11.5 5C12.3284 5 13 4.3284 13 3.5C13 2.6716 12.3284 2 11.5 2C10.6716 2 10 2.6716 10 3.5C10 4.3284 10.6715 5 11.5 5ZM11.5 3.00002C11.7762 3.00002 12 3.22391 12 3.5C12 3.77609 11.7762 3.99998 11.5 3.99998C11.2238 3.99998 11 3.77609 11 3.5C11 3.22391 11.2238 3.00002 11.5 3.00002Z" fill="#045DAF"/>
<path d="M21.5 5H26.5C27.3284 5 28 4.3284 28 3.5C28 2.6716 27.3284 2 26.5 2H21.5C20.6716 2 20 2.6716 20 3.5C20 4.3284 20.6716 5 21.5 5ZM21.5 3.00002H26.5C26.7761 3.00002 27 3.22391 27 3.5C27 3.77609 26.7761 3.99998 26.5 3.99998H21.5C21.2238 3.99998 21 3.77609 21 3.5C21 3.22391 21.2239 3.00002 21.5 3.00002Z" fill="#045DAF"/>
<path d="M13.4999 11C13.7761 11 13.9999 10.7761 13.9999 10.5C13.9999 10.2238 13.776 10 13.4999 10C11.3445 9.99545 9.30858 10.9893 7.98642 12.6915C7.81603 12.9088 7.85411 13.2231 8.07144 13.3935C8.28876 13.5639 8.60306 13.5258 8.77345 13.3085C9.90677 11.8491 11.6521 10.9966 13.4999 11Z" fill="#045DAF"/>
<path d="M9.99994 14.5C9.72379 14.5 9.49996 14.7239 9.49996 15V18C9.49996 18.2761 9.27607 18.5 8.99998 18.5C8.72389 18.5 8.5 18.7238 8.5 18.9999C8.5 19.276 8.72389 19.4999 8.99998 19.4999C9.82838 19.4999 10.5 18.8283 10.5 17.9999V15C10.4999 14.7238 10.2761 14.5 9.99994 14.5Z" fill="#045DAF"/>
<path d="M13 14.5C12.1715 14.5 11.5 15.1716 11.5 16V18C11.5 18.8284 12.1716 19.5 13 19.5C13.8284 19.5 14.5 18.8284 14.5 18V16C14.5 15.1715 13.8284 14.5 13 14.5ZM13.5 18C13.5 18.2761 13.2761 18.5 13 18.5C12.7238 18.5 12.5 18.2761 12.5 18V16C12.5 15.7238 12.7239 15.5 13 15.5C13.2762 15.5 13.5 15.7238 13.5 16V18Z" fill="#045DAF"/>
<path d="M17 14.5H16C15.7238 14.5 15.5 14.7239 15.5 15V19C15.5 19.2762 15.7238 19.5 16 19.5H17C17.5928 19.5026 18.131 19.1544 18.3716 18.6126C18.6122 18.0708 18.5096 17.438 18.11 17C18.5095 16.562 18.6121 15.9293 18.3716 15.3875C18.1311 14.8456 17.5929 14.4974 17 14.5ZM16.5 15.5H17C17.2762 15.5 17.5 15.7238 17.5 16C17.5 16.2761 17.2761 16.4999 17 16.4999H16.5V15.5ZM17 18.5H16.5V17.5H17C17.2762 17.5 17.5 17.7238 17.5 17.9999C17.5 18.2761 17.2762 18.5 17 18.5Z" fill="#045DAF"/>
<path d="M7.49998 15C7.77611 15 7.99996 14.7761 7.99996 14.5C7.99996 14.2238 7.77611 14 7.49998 14C7.22385 14 7 14.2238 7 14.5C7 14.7761 7.22385 15 7.49998 15Z" fill="#045DAF"/>
</svg>
