<svg width="12" height="12" viewBox="0 0 12 12" fill="none" xmlns="http://www.w3.org/2000/svg">
<path d="M8.80684 7.75632C9.53304 6.76537 9.85829 5.53677 9.71754 4.31631C9.57678 3.09585 8.9804 1.97354 8.04769 1.17391C7.11499 0.374287 5.91476 -0.0436852 4.68712 0.00361793C3.45949 0.050921 2.29498 0.560011 1.42657 1.42904C0.558166 2.29806 0.0499094 3.46294 0.00348477 4.69061C-0.0429399 5.91828 0.375891 7.11821 1.17619 8.05034C1.97648 8.98247 3.09922 9.57805 4.31978 9.71793C5.54034 9.85782 6.76871 9.53168 7.75913 8.80478H7.75838C7.78088 8.83478 7.80488 8.86328 7.83188 8.89103L10.7193 11.7784C10.8599 11.9191 11.0507 11.9982 11.2496 11.9983C11.4486 11.9984 11.6394 11.9194 11.7801 11.7788C11.9208 11.6382 11.9999 11.4474 12 11.2485C12.0001 11.0495 11.9211 10.8587 11.7805 10.718L8.89309 7.83057C8.86628 7.80342 8.83744 7.77835 8.80684 7.75557V7.75632ZM9.00034 4.87343C9.00034 5.41511 8.89364 5.95149 8.68635 6.45194C8.47906 6.95239 8.17522 7.40711 7.7922 7.79013C7.40917 8.17316 6.95445 8.47699 6.454 8.68429C5.95355 8.89158 5.41717 8.99827 4.87549 8.99827C4.33381 8.99827 3.79743 8.89158 3.29698 8.68429C2.79653 8.47699 2.34181 8.17316 1.95878 7.79013C1.57576 7.40711 1.27192 6.95239 1.06463 6.45194C0.857338 5.95149 0.750645 5.41511 0.750645 4.87343C0.750645 3.77945 1.18523 2.73028 1.95878 1.95672C2.73234 1.18316 3.78151 0.748582 4.87549 0.748582C5.96947 0.748582 7.01864 1.18316 7.7922 1.95672C8.56575 2.73028 9.00034 3.77945 9.00034 4.87343Z" fill="#00AB62"/>
</svg>
