<svg width="14" height="15" viewBox="0 0 14 15" fill="none" xmlns="http://www.w3.org/2000/svg">
<path d="M11.8125 0.87526C11.4644 0.87526 11.1306 1.01354 10.8845 1.25968C10.6383 1.50581 10.5001 1.83965 10.5001 2.18774C10.5001 2.53583 10.6383 2.86966 10.8845 3.1158C11.1306 3.36194 11.4644 3.50022 11.8125 3.50022C12.1606 3.50022 12.4945 3.36194 12.7406 3.1158C12.9867 2.86966 13.125 2.53583 13.125 2.18774C13.125 1.83965 12.9867 1.50581 12.7406 1.25968C12.4945 1.01354 12.1606 0.87526 11.8125 0.87526ZM9.62507 2.18774C9.62501 1.6745 9.80541 1.17758 10.1347 0.783921C10.464 0.390261 10.9213 0.124928 11.4265 0.0343442C11.9316 -0.0562399 12.4526 0.0336934 12.8982 0.28841C13.3437 0.543126 13.6855 0.946405 13.8638 1.42769C14.0421 1.90897 14.0454 2.43762 13.8733 2.92113C13.7012 3.40464 13.3645 3.81223 12.9222 4.07258C12.4799 4.33294 11.9601 4.42948 11.4538 4.34532C10.9476 4.26116 10.487 4.00166 10.1527 3.61222L4.27454 6.34217C4.40967 6.77042 4.40967 7.2299 4.27454 7.65815L10.1527 10.3881C10.506 9.97715 10.9994 9.71201 11.5371 9.64406C12.0748 9.57611 12.6186 9.7102 13.063 10.0203C13.5075 10.3305 13.821 10.7946 13.9428 11.3227C14.0646 11.8508 13.986 12.4053 13.7223 12.8788C13.4585 13.3523 13.0284 13.711 12.5152 13.8854C12.0021 14.0598 11.4424 14.0375 10.9448 13.8228C10.4472 13.6081 10.0469 13.2163 9.82169 12.7233C9.59646 12.2304 9.56225 11.6713 9.7257 11.1546L3.84754 8.42463C3.55655 8.76375 3.16869 9.00562 2.73612 9.1177C2.30355 9.22978 1.84703 9.20669 1.42798 9.05154C1.00893 8.8964 0.647438 8.61663 0.392144 8.24989C0.136851 7.88314 0 7.44701 0 7.00016C0 6.55331 0.136851 6.11717 0.392144 5.75043C0.647438 5.38368 1.00893 5.10392 1.42798 4.94877C1.84703 4.79363 2.30355 4.77054 2.73612 4.88262C3.16869 4.9947 3.55655 5.23656 3.84754 5.57568L9.7257 2.84573C9.65878 2.63282 9.62485 2.41092 9.62507 2.18774ZM2.1877 5.68768C1.83961 5.68768 1.50577 5.82596 1.25963 6.0721C1.0135 6.31823 0.875218 6.65207 0.875218 7.00016C0.875218 7.34825 1.0135 7.68208 1.25963 7.92822C1.50577 8.17436 1.83961 8.31264 2.1877 8.31264C2.53579 8.31264 2.86962 8.17436 3.11576 7.92822C3.3619 7.68208 3.50017 7.34825 3.50017 7.00016C3.50017 6.65207 3.3619 6.31823 3.11576 6.0721C2.86962 5.82596 2.53579 5.68768 2.1877 5.68768ZM11.8125 10.5001C11.4644 10.5001 11.1306 10.6384 10.8845 10.8845C10.6383 11.1307 10.5001 11.4645 10.5001 11.8126C10.5001 12.1607 10.6383 12.4945 10.8845 12.7406C11.1306 12.9868 11.4644 13.1251 11.8125 13.1251C12.1606 13.1251 12.4945 12.9868 12.7406 12.7406C12.9867 12.4945 13.125 12.1607 13.125 11.8126C13.125 11.4645 12.9867 11.1307 12.7406 10.8845C12.4945 10.6384 12.1606 10.5001 11.8125 10.5001Z" fill="#00A7AC"/>
</svg>
