<svg width="14" height="11" viewBox="0 0 14 11" fill="none" xmlns="http://www.w3.org/2000/svg">
<path fill-rule="evenodd" clip-rule="evenodd" d="M4 9.4991C4 9.36645 4.05268 9.23924 4.14645 9.14544C4.24021 9.05164 4.36739 8.99895 4.5 8.99895H13.5C13.6326 8.99895 13.7598 9.05164 13.8536 9.14544C13.9473 9.23924 14 9.36645 14 9.4991C14 9.63175 13.9473 9.75896 13.8536 9.85276C13.7598 9.94655 13.6326 9.99925 13.5 9.99925H4.5C4.36739 9.99925 4.24021 9.94655 4.14645 9.85276C4.05268 9.75896 4 9.63175 4 9.4991ZM4 5.49791C4 5.36527 4.05268 5.23805 4.14645 5.14426C4.24021 5.05046 4.36739 4.99777 4.5 4.99777H13.5C13.6326 4.99777 13.7598 5.05046 13.8536 5.14426C13.9473 5.23805 14 5.36527 14 5.49791C14 5.63056 13.9473 5.75778 13.8536 5.85157C13.7598 5.94537 13.6326 5.99806 13.5 5.99806H4.5C4.36739 5.99806 4.24021 5.94537 4.14645 5.85157C4.05268 5.75778 4 5.63056 4 5.49791ZM4 1.49673C4 1.36408 4.05268 1.23687 4.14645 1.14307C4.24021 1.04928 4.36739 0.996582 4.5 0.996582H13.5C13.6326 0.996582 13.7598 1.04928 13.8536 1.14307C13.9473 1.23687 14 1.36408 14 1.49673C14 1.62938 13.9473 1.75659 13.8536 1.85039C13.7598 1.94418 13.6326 1.99688 13.5 1.99688H4.5C4.36739 1.99688 4.24021 1.94418 4.14645 1.85039C4.05268 1.75659 4 1.62938 4 1.49673Z" fill="white"/>
<path d="M1.24212 0.190457C1.25913 0.1353 1.29336 0.0870453 1.33979 0.0527695C1.38622 0.0184938 1.44241 0 1.50012 0C1.55782 0 1.61401 0.0184938 1.66044 0.0527695C1.70687 0.0870453 1.7411 0.1353 1.75812 0.190457L1.92012 0.720614C1.95512 0.835648 2.06012 0.914672 2.17812 0.914672H2.72912C2.98812 0.914672 3.09912 1.24777 2.89312 1.40782L2.42512 1.77093C2.38089 1.80552 2.34822 1.85275 2.33143 1.90634C2.31465 1.95993 2.31454 2.01736 2.33112 2.07101L2.50412 2.64018C2.58212 2.89626 2.29112 3.10232 2.08112 2.94027L1.66412 2.61618C1.61724 2.57967 1.55952 2.55986 1.50012 2.55986C1.44071 2.55986 1.383 2.57967 1.33612 2.61618L0.919116 2.93927C0.709116 3.10232 0.419116 2.89626 0.496116 2.64018L0.669116 2.07001C0.685475 2.0165 0.685251 1.95928 0.668472 1.90589C0.651693 1.8525 0.619146 1.80545 0.575116 1.77093L0.107116 1.40782C-0.0988844 1.24777 0.0121156 0.914672 0.271116 0.914672H0.821116C0.87941 0.914493 0.936093 0.895516 0.98275 0.860557C1.02941 0.825599 1.06355 0.776523 1.08012 0.720614L1.24212 0.190457ZM1.24212 4.19164C1.25913 4.13648 1.29336 4.08823 1.33979 4.05395C1.38622 4.01968 1.44241 4.00118 1.50012 4.00118C1.55782 4.00118 1.61401 4.01968 1.66044 4.05395C1.70687 4.08823 1.7411 4.13648 1.75812 4.19164L1.92012 4.7218C1.95512 4.83683 2.06012 4.91586 2.17812 4.91586H2.72912C2.98812 4.91586 3.09912 5.24895 2.89312 5.409L2.42512 5.77211C2.38089 5.80671 2.34822 5.85393 2.33143 5.90752C2.31465 5.96111 2.31454 6.01854 2.33112 6.0722L2.50412 6.64137C2.58212 6.89644 2.29112 7.1035 2.08112 6.94146L1.66412 6.61736C1.61724 6.58086 1.55952 6.56104 1.50012 6.56104C1.44071 6.56104 1.383 6.58086 1.33612 6.61736L0.919116 6.94046C0.709116 7.1035 0.419116 6.89744 0.496116 6.64137L0.669116 6.0712C0.685475 6.01768 0.685251 5.96046 0.668472 5.90708C0.651693 5.85369 0.619146 5.80664 0.575116 5.77211L0.107116 5.409C-0.0988844 5.24895 0.0121156 4.91586 0.271116 4.91586H0.821116C0.87941 4.91568 0.936093 4.8967 0.98275 4.86174C1.02941 4.82678 1.06355 4.77771 1.08012 4.7218L1.24212 4.19164ZM1.24212 8.19283C1.25913 8.13767 1.29336 8.08941 1.33979 8.05514C1.38622 8.02086 1.44241 8.00237 1.50012 8.00237C1.55782 8.00237 1.61401 8.02086 1.66044 8.05514C1.70687 8.08941 1.7411 8.13767 1.75812 8.19283L1.92012 8.72298C1.95512 8.83802 2.06012 8.91704 2.17812 8.91704H2.72912C2.98812 8.91704 3.09912 9.25014 2.89312 9.41019L2.42512 9.77329C2.38089 9.80789 2.34822 9.85511 2.33143 9.90871C2.31465 9.9623 2.31454 10.0197 2.33112 10.0734L2.50412 10.6426C2.58212 10.8976 2.29112 11.1047 2.08112 10.9426L1.66412 10.6185C1.61724 10.582 1.55952 10.5622 1.50012 10.5622C1.44071 10.5622 1.383 10.582 1.33612 10.6185L0.919116 10.9416C0.709116 11.1047 0.419116 10.8986 0.496116 10.6426L0.669116 10.0724C0.685475 10.0189 0.685251 9.96165 0.668472 9.90826C0.651693 9.85487 0.619146 9.80782 0.575116 9.77329L0.107116 9.41019C-0.0988844 9.25014 0.0121156 8.91704 0.271116 8.91704H0.821116C0.87941 8.91686 0.936093 8.89789 0.98275 8.86293C1.02941 8.82797 1.06355 8.77889 1.08012 8.72298L1.24212 8.19283Z" fill="white"/>
</svg>
