<svg width="20" height="20" viewBox="0 0 20 20" fill="none" xmlns="http://www.w3.org/2000/svg">
<g clip-path="url(#clip0_946_32)">
<path fill-rule="evenodd" clip-rule="evenodd" d="M5.71436 14.9537C5.71436 14.7728 5.78961 14.5994 5.92357 14.4715C6.05751 14.3435 6.2392 14.2717 6.42864 14.2717H19.2858C19.4752 14.2717 19.6569 14.3435 19.7909 14.4715C19.9248 14.5994 20.0001 14.7728 20.0001 14.9537C20.0001 15.1346 19.9248 15.3081 19.7909 15.436C19.6569 15.5639 19.4752 15.6357 19.2858 15.6357H6.42864C6.2392 15.6357 6.05751 15.5639 5.92357 15.436C5.78961 15.3081 5.71436 15.1346 5.71436 14.9537ZM5.71436 9.49755C5.71436 9.31668 5.78961 9.14319 5.92357 9.0153C6.05751 8.88739 6.2392 8.81554 6.42864 8.81554H19.2858C19.4752 8.81554 19.6569 8.88739 19.7909 9.0153C19.9248 9.14319 20.0001 9.31668 20.0001 9.49755C20.0001 9.67844 19.9248 9.85192 19.7909 9.97981C19.6569 10.1077 19.4752 10.1796 19.2858 10.1796H6.42864C6.2392 10.1796 6.05751 10.1077 5.92357 9.97981C5.78961 9.85192 5.71436 9.67844 5.71436 9.49755ZM5.71436 4.0414C5.71436 3.86051 5.78961 3.68704 5.92357 3.55913C6.05751 3.43124 6.2392 3.35938 6.42864 3.35938H19.2858C19.4752 3.35938 19.6569 3.43124 19.7909 3.55913C19.9248 3.68704 20.0001 3.86051 20.0001 4.0414C20.0001 4.22228 19.9248 4.39575 19.7909 4.52366C19.6569 4.65155 19.4752 4.72342 19.2858 4.72342H6.42864C6.2392 4.72342 6.05751 4.65155 5.92357 4.52366C5.78961 4.39575 5.71436 4.22228 5.71436 4.0414Z" fill="white"/>
<path d="M1.77446 2.25971C1.79876 2.1845 1.84766 2.1187 1.91399 2.07196C1.98031 2.02522 2.06059 2 2.14303 2C2.22546 2 2.30573 2.02522 2.37206 2.07196C2.43839 2.1187 2.48729 2.1845 2.5116 2.25971L2.74303 2.98266C2.79303 3.13952 2.94303 3.24728 3.1116 3.24728H3.89874C4.26874 3.24728 4.42731 3.7015 4.13303 3.91975L3.46446 4.4149C3.40127 4.46207 3.3546 4.52648 3.33061 4.59955C3.30664 4.67263 3.30649 4.75095 3.33017 4.8241L3.57731 5.60025C3.68874 5.94945 3.27303 6.23044 2.97303 6.00946L2.37731 5.56752C2.31034 5.51773 2.22789 5.49072 2.14303 5.49072C2.05816 5.49072 1.97571 5.51773 1.90874 5.56752L1.31302 6.0081C1.01302 6.23044 0.598737 5.94945 0.708737 5.60025L0.95588 4.82274C0.97925 4.74977 0.97893 4.67175 0.95496 4.59894C0.93099 4.52614 0.884494 4.46198 0.821594 4.4149L0.153023 3.91975C-0.141264 3.7015 0.0173078 3.24728 0.387308 3.24728H1.17302C1.2563 3.24704 1.33728 3.22116 1.40393 3.17349C1.47059 3.12582 1.51936 3.0589 1.54303 2.98266L1.77446 2.25971ZM1.77446 7.71587C1.79876 7.64065 1.84766 7.57486 1.91399 7.52811C1.98031 7.48138 2.06059 7.45615 2.14303 7.45615C2.22546 7.45615 2.30573 7.48138 2.37206 7.52811C2.43839 7.57486 2.48729 7.64065 2.5116 7.71587L2.74303 8.43882C2.79303 8.59568 2.94303 8.70345 3.1116 8.70345H3.89874C4.26874 8.70345 4.42731 9.15766 4.13303 9.37591L3.46446 9.87106C3.40127 9.91824 3.3546 9.98263 3.33061 10.0557C3.30664 10.1288 3.30649 10.2071 3.33017 10.2803L3.57731 11.0564C3.68874 11.4042 3.27303 11.6866 2.97303 11.4656L2.37731 11.0237C2.31034 10.9739 2.22789 10.9469 2.14303 10.9469C2.05816 10.9469 1.97571 10.9739 1.90874 11.0237L1.31302 11.4643C1.01302 11.6866 0.598737 11.4056 0.708737 11.0564L0.95588 10.2789C0.97925 10.2059 0.97893 10.1279 0.95496 10.0551C0.93099 9.9823 0.884494 9.91815 0.821594 9.87106L0.153023 9.37591C-0.141264 9.15766 0.0173078 8.70345 0.387308 8.70345H1.17302C1.2563 8.7032 1.33728 8.67732 1.40393 8.62965C1.47059 8.58197 1.51936 8.51506 1.54303 8.43882L1.77446 7.71587ZM1.77446 13.172C1.79876 13.0968 1.84766 13.031 1.91399 12.9843C1.98031 12.9375 2.06059 12.9123 2.14303 12.9123C2.22546 12.9123 2.30573 12.9375 2.37206 12.9843C2.43839 13.031 2.48729 13.0968 2.5116 13.172L2.74303 13.895C2.79303 14.0518 2.94303 14.1596 3.1116 14.1596H3.89874C4.26874 14.1596 4.42731 14.6138 4.13303 14.8321L3.46446 15.3272C3.40127 15.3744 3.3546 15.4388 3.33061 15.5119C3.30664 15.585 3.30649 15.6632 3.33017 15.7365L3.57731 16.5126C3.68874 16.8604 3.27303 17.1428 2.97303 16.9217L2.37731 16.4798C2.31034 16.43 2.22789 16.403 2.14303 16.403C2.05816 16.403 1.97571 16.43 1.90874 16.4798L1.31302 16.9204C1.01302 17.1428 0.598737 16.8617 0.708737 16.5126L0.95588 15.7351C0.97925 15.6621 0.97893 15.5841 0.95496 15.5113C0.93099 15.4385 0.884494 15.3743 0.821594 15.3272L0.153023 14.8321C-0.141264 14.6138 0.0173078 14.1596 0.387308 14.1596H1.17302C1.2563 14.1594 1.33728 14.1335 1.40393 14.0858C1.47059 14.0381 1.51936 13.9712 1.54303 13.895L1.77446 13.172Z" fill="white"/>
</g>
<defs>
<clipPath id="clip0_946_32">
<rect width="20" height="15" fill="white" transform="translate(0 2)"/>
</clipPath>
</defs>
</svg>
