<svg width="102" height="102" viewBox="0 0 102 102" fill="none" xmlns="http://www.w3.org/2000/svg">
<path d="M65.2236 51.0249L102 45.1892L64.8489 47.7954L99.2777 33.6425L63.75 44.7279L93.9829 23.0186L61.9518 41.9971L86.3653 13.9159L59.5916 39.7526L76.8497 6.80831L56.7693 38.1191L65.9603 2.0824L53.6349 37.1714L54.2593 0L50.3756 36.9719L42.3959 0.66088L47.1663 37.533L31.0071 4.0401L44.1567 38.8174L20.7047 9.93814L41.5343 40.7626L12.0507 18.0557L39.4363 43.2565L5.49461 27.9565L37.9628 46.1619L1.41112 39.0917L37.201 49.3291L0 50.8753L37.1885 52.5961L1.34868 62.6589L37.9378 55.7633L5.38222 73.8066L39.3989 58.6812L11.8883 83.7447L41.4843 61.1875L20.5174 91.8997L44.1068 63.1328L30.7823 97.8601L47.1038 64.4296L42.1587 101.289L50.3132 65.0156L54.0095 102L53.5725 64.8286L65.7231 99.9675L56.7069 63.9059L76.6374 95.3039L59.5291 62.2724L86.178 88.2337L61.9143 60.0403L93.8455 79.1685L63.7125 57.322L99.2027 68.5819L64.8364 54.267L101.963 57.0477L65.2236 51.0249Z" fill="#00A7AC"/>
</svg>
