<svg width="40" height="40" viewBox="0 0 40 40" fill="none" xmlns="http://www.w3.org/2000/svg">
<g opacity="0.85">
<path d="M39.4305 10.5011C39.4304 10.5011 39.4304 10.5011 39.4303 10.5011L39.429 10.4997L36.8471 10.1313C36.4842 10.0796 36.232 9.74336 36.2836 9.38037C36.3084 9.20593 36.4016 9.04858 36.5425 8.94285L38.6292 7.37735C38.9225 7.15735 38.9819 6.74124 38.762 6.44788L36.3726 3.2611C36.1526 2.96774 35.7367 2.90832 35.4434 3.12832L33.3573 4.69382C33.0653 4.91549 32.6489 4.85839 32.4273 4.56627C32.3197 4.42444 32.2736 4.24527 32.2993 4.06908L32.6684 1.48647C32.7204 1.12348 32.4684 0.787123 32.1056 0.735006C32.1054 0.735006 32.1051 0.734923 32.1049 0.734923L28.165 0.171926C27.8022 0.119809 27.4658 0.371764 27.4137 0.734757C27.4137 0.73484 27.4137 0.73484 27.4137 0.734923L27.0446 3.31754C26.993 3.68053 26.6569 3.9329 26.294 3.8812C26.1196 3.85638 25.9623 3.76319 25.8566 3.62227L24.2922 1.53494C24.0723 1.24157 23.6563 1.18215 23.363 1.40215L21.3685 2.89927C20.4662 2.80334 19.5562 2.80334 18.6539 2.89927C12.7446 3.57489 8.11059 8.28882 7.53456 14.2103C7.51664 14.3982 7.51 14.5848 7.50071 14.7713H7.3016C6.98666 14.7719 6.71545 14.9938 6.65248 15.3025L6.19385 17.4841L4.35667 16.2167C4.093 16.0347 3.73692 16.0671 3.51042 16.2937L1.51926 18.2854C1.2931 18.5119 1.26074 18.8676 1.44227 19.1312L2.70334 20.9656L0.521686 21.4244C0.216541 21.4913 -0.000662204 21.7619 1.51696e-06 22.0744V24.73C-0.000164413 25.044 0.219776 25.3152 0.526996 25.38L2.70865 25.8387L1.44758 27.6731C1.26605 27.9368 1.29841 28.2925 1.52457 28.5189L3.51573 30.5107C3.74223 30.7372 4.09831 30.7697 4.36198 30.5877L6.19584 29.3229L6.65447 31.5052C6.71744 31.8138 6.98865 32.0358 7.30359 32.0363H9.95847C10.2724 32.0365 10.5435 31.8165 10.6083 31.5092L11.0669 29.3269L12.9007 30.5883C13.1643 30.7699 13.5199 30.7376 13.7463 30.5113L14.7771 29.477V31.3691C14.7801 32.3136 15.2859 33.1849 16.1045 33.6556V37.3443C16.1045 38.811 17.2932 39.9999 18.7594 39.9999H21.4143C22.8805 39.9999 24.0692 38.811 24.0692 37.3443V33.6556C24.8878 33.1849 25.3936 32.3136 25.3966 31.3691V28.7413C25.4146 27.6357 25.9929 26.6149 26.9318 26.0313C27.4826 25.6738 28.005 25.2742 28.4942 24.8362L27.6088 23.847C27.1712 24.2394 26.7036 24.597 26.2103 24.9166C24.8924 25.744 24.0857 27.185 24.0692 28.7413V31.3691C24.0692 32.1025 23.4749 32.6969 22.7417 32.6969H17.432C16.6988 32.6969 16.1045 32.1025 16.1045 31.3691V28.6862C16.0892 27.1593 15.2951 25.7461 13.9992 24.9391C8.73863 21.6327 7.15367 14.6866 10.4592 9.42452C12.5101 6.15966 16.0893 4.17249 19.9442 4.15871C19.9343 4.18236 19.9256 4.20651 19.9183 4.23108C19.8936 4.40535 19.9393 4.58237 20.045 4.72304L21.6094 6.80971C21.7744 7.02324 21.7902 7.31652 21.6493 7.54665C21.5135 7.77819 21.2511 7.9045 20.9855 7.86599L18.4037 7.49686C18.0408 7.44482 17.7045 7.69686 17.6524 8.05977C17.6524 8.06002 17.6523 8.06027 17.6523 8.06052L17.0888 12.0035C17.0368 12.3664 17.2888 12.7028 17.6516 12.7549C17.6518 12.7549 17.6521 12.755 17.6523 12.755L20.2342 13.1242C20.5971 13.1759 20.8494 13.5121 20.7977 13.875C20.7729 14.0495 20.6797 14.2068 20.5388 14.3126L18.4528 15.8774C18.1595 16.0974 18.1001 16.5135 18.32 16.8069L20.7094 19.9937C20.9294 20.287 21.3454 20.3464 21.6386 20.1264L23.7254 18.5616C24.0189 18.342 24.4349 18.402 24.6544 18.6957C24.7595 18.8362 24.8047 19.0126 24.78 19.1863L24.4117 21.769C24.3596 22.1319 24.6114 22.4684 24.9743 22.5205C24.9744 22.5205 24.9744 22.5205 24.9745 22.5205L28.917 23.0842C28.948 23.0881 28.9793 23.0901 29.0106 23.0901C29.341 23.0906 29.6214 22.8477 29.6683 22.5205L30.0367 19.9379C30.0884 19.5749 30.4245 19.3225 30.7874 19.3742C30.9618 19.399 31.1191 19.4922 31.2248 19.6332L32.7898 21.7198C33.0098 22.0132 33.4257 22.0726 33.719 21.8526L36.9049 19.4625C37.1982 19.2425 37.2576 18.8264 37.0376 18.533L35.4732 16.4464C35.309 16.2325 35.2932 15.9397 35.4334 15.7094C35.5662 15.4748 35.8311 15.3477 36.0971 15.3908L38.679 15.7592C39.0418 15.8113 39.3782 15.5593 39.4303 15.1964C39.4303 15.1963 39.4303 15.1963 39.4303 15.1962L39.9932 11.2526C40.0453 10.8896 39.7934 10.5532 39.4305 10.5011ZM17.432 34.0247H22.7417V35.3526H17.432V34.0247ZM17.432 36.6804H22.7417V37.3443C22.7417 38.0777 22.1475 38.6721 21.4143 38.6721H18.7594C18.0262 38.6721 17.432 38.0777 17.432 37.3443V36.6804ZM12.1481 25.2312C12.5105 25.5277 12.8891 25.8037 13.2824 26.0578C13.9095 26.4543 14.3816 27.054 14.6198 27.7568L13.1961 29.1782L11.8176 28.2275C11.2139 27.8114 10.3873 27.9636 9.97125 28.5674C9.87152 28.7122 9.8015 28.8754 9.76533 29.0474L9.41754 30.7052H7.83987L7.49208 29.0501C7.34109 28.3325 6.63713 27.8731 5.91973 28.0242C5.74774 28.0603 5.58463 28.1304 5.43986 28.2301L4.06065 29.1782L2.85135 27.9712L3.80113 26.5929C4.21753 25.9893 4.06587 25.1625 3.46247 24.7459C3.31761 24.6459 3.15434 24.5757 2.9821 24.5395L1.32744 24.1909V22.6134L2.9821 22.2649C3.69925 22.1128 4.15738 21.4079 4.00531 20.6905C3.96922 20.5203 3.90011 20.3589 3.8018 20.2154L2.85135 18.8331L4.06065 17.6261L5.44052 18.5769C6.04443 18.9926 6.87101 18.8399 7.28658 18.2358C7.38614 18.0911 7.45599 17.9281 7.49208 17.7563L7.60824 17.2039C7.7146 17.9689 7.89073 18.7224 8.13457 19.4552C5.95068 19.7156 4.39135 21.6977 4.65169 23.8823C4.91203 26.0668 6.89357 27.6266 9.07747 27.3661C10.3921 27.2093 11.5429 26.4092 12.1481 25.2312ZM11.1173 24.2958C10.6217 25.6738 9.10318 26.389 7.72555 25.8933C6.34791 25.3976 5.63292 23.8786 6.12847 22.5006C6.50762 21.4464 7.50826 20.7442 8.62829 20.7465C8.63692 20.7465 8.64489 20.7465 8.65351 20.7465C9.26389 22.063 10.0974 23.2637 11.1173 24.2958ZM38.2064 14.3491L36.2817 14.0742C35.193 13.9187 34.1845 14.6755 34.029 15.7644C33.9543 16.2873 34.0904 16.8185 34.4073 17.2411L35.5735 18.7966L33.4496 20.39L32.2827 18.8351C31.623 17.955 30.3749 17.7765 29.4952 18.4364C29.0727 18.7533 28.7934 19.2251 28.7185 19.748L28.4497 21.676L25.8221 21.3002L26.0968 19.3749C26.2527 18.286 25.4966 17.2768 24.408 17.121C23.8849 17.0461 23.3536 17.1822 22.9309 17.4993L21.3758 18.6658L19.7829 16.5413L21.3373 15.3742C22.2171 14.7142 22.3956 13.4658 21.7359 12.5858C21.4191 12.1632 20.9475 11.8838 20.4247 11.809L18.4999 11.5341L18.8756 8.90567L20.8004 9.18053C21.8889 9.33647 22.8978 8.58011 23.0536 7.49121C23.1285 6.96797 22.9925 6.43651 22.6754 6.01368L21.5052 4.45681L23.6291 2.86342L24.796 4.41896C25.4557 5.29906 26.7037 5.47757 27.5835 4.81764C28.006 4.50079 28.2853 4.029 28.3601 3.50609L28.6349 1.58075L31.2626 1.95586L30.9878 3.8812C30.8323 4.97018 31.5888 5.97899 32.6775 6.13451C33.2002 6.2092 33.7313 6.0731 34.1538 5.75608L35.7089 4.58959L37.3018 6.71411L35.7467 7.88126C34.8668 8.54119 34.6884 9.78959 35.3481 10.6696C35.6649 11.0922 36.1365 11.3716 36.6593 11.4465L38.5841 11.7213L38.2064 14.3491Z" fill="#00A7AC"/>
<path d="M28.5402 6.31592C25.6078 6.31592 23.2305 8.69388 23.2305 11.6272C23.2305 14.5605 25.6078 16.9385 28.5402 16.9385C31.4727 16.9385 33.85 14.5605 33.85 11.6272C33.8467 8.69521 31.4714 6.31915 28.5402 6.31592ZM28.5402 15.6107C26.3408 15.6107 24.5579 13.8272 24.5579 11.6272C24.5579 9.42717 26.3408 7.64374 28.5402 7.64374C30.7396 7.64374 32.5226 9.42717 32.5226 11.6272C32.52 13.8262 30.7386 15.6081 28.5402 15.6107Z" fill="#00A7AC"/>
<path d="M20.7503 29.3773H19.4229V31.3685H20.7503V29.3773Z" fill="#00A7AC"/>
<path d="M17.1837 22.8572C13.0864 21.2562 11.0625 16.6359 12.6631 12.5375C13.2834 10.9494 14.3965 9.60225 15.839 8.69402L15.1294 7.57068C10.7874 10.3069 9.4849 16.046 12.2203 20.3893C13.2797 22.0714 14.8504 23.3694 16.7018 24.0928C18.3405 24.7208 19.4226 26.2943 19.423 28.0497H20.7505C20.7526 25.7466 19.3337 23.6811 17.1837 22.8572Z" fill="#00A7AC"/>
<path d="M37.3433 24.73H32.6973V26.0578H37.3433V24.73Z" fill="#00A7AC"/>
<path d="M32.4592 28.2028L31.6094 29.2231L35.5927 32.5427L36.4425 31.5224L32.4592 28.2028Z" fill="#00A7AC"/>
<path d="M30.0436 30.0414H28.7158V34.6888H30.0436V30.0414Z" fill="#00A7AC"/>
<path d="M5.98713 10.1436L0.677734 11.4712L0.999478 12.7587L6.30888 11.4311L5.98713 10.1436Z" fill="#00A7AC"/>
<path d="M2.55162 3.60912L1.78027 4.68903L6.42728 8.00824L7.19863 6.92833L2.55162 3.60912Z" fill="#00A7AC"/>
<path d="M8.75319 -0.000105123L7.4668 0.328796L8.82467 5.63967L10.1111 5.31077L8.75319 -0.000105123Z" fill="#00A7AC"/>
</g>
</svg>
