<svg width="26" height="26" viewBox="0 0 26 26" fill="none" xmlns="http://www.w3.org/2000/svg">
<g opacity="0.85">
<path d="M25.6298 6.82567C25.6298 6.82567 25.6298 6.82567 25.6297 6.82567L25.6289 6.82481L23.9506 6.5853C23.7148 6.55169 23.5508 6.33317 23.5844 6.09723C23.6005 5.98384 23.661 5.88156 23.7526 5.81284L25.109 4.79526C25.2996 4.65226 25.3382 4.38179 25.1953 4.1911L23.6422 2.1197C23.4992 1.92901 23.2288 1.89039 23.0382 2.03339L21.6822 3.05097C21.4924 3.19505 21.2218 3.15794 21.0778 2.96806C21.0078 2.87587 20.9778 2.75941 20.9946 2.64489L21.2344 0.96619C21.2682 0.730245 21.1045 0.511615 20.8686 0.477739C20.8685 0.477739 20.8683 0.477685 20.8682 0.477685L18.3073 0.111737C18.0714 0.0778608 17.8528 0.241631 17.8189 0.477577C17.8189 0.477631 17.8189 0.477631 17.8189 0.477685L17.579 2.15638C17.5454 2.39233 17.327 2.55637 17.0911 2.52276C16.9777 2.50663 16.8755 2.44606 16.8068 2.35446L15.7899 0.997693C15.647 0.807005 15.3766 0.768382 15.1859 0.911384L13.8895 1.88451C13.303 1.82215 12.7115 1.82215 12.125 1.88451C8.28399 2.32366 5.27188 5.38772 4.89747 9.2367C4.88582 9.35882 4.8815 9.48009 4.87546 9.60135H4.74604C4.54133 9.60173 4.36504 9.74597 4.32411 9.94658L4.026 11.3646L2.83183 10.5408C2.66045 10.4225 2.429 10.4436 2.28177 10.5909L0.987518 11.8855C0.840512 12.0327 0.819481 12.2639 0.937474 12.4353L1.75717 13.6276L0.339096 13.9258C0.140751 13.9693 -0.000430433 14.1452 9.86023e-07 14.3483V16.0745C-0.000106869 16.2786 0.142854 16.4549 0.342547 16.497L1.76062 16.7952L0.940925 17.9875C0.822932 18.1589 0.843964 18.3901 0.99097 18.5373L2.28523 19.8319C2.43245 19.9792 2.6639 20.0003 2.83528 19.882L4.02729 19.0599L4.3254 20.4784C4.36634 20.679 4.54262 20.8232 4.74733 20.8236H6.47301C6.67707 20.8237 6.8533 20.6807 6.89537 20.481L7.19348 19.0625L8.38549 19.8824C8.55681 20.0004 8.78795 19.9794 8.93511 19.8324L9.60511 19.16V20.3899C9.60705 21.0038 9.93584 21.5702 10.4679 21.8761V24.2738C10.4679 25.2271 11.2406 26 12.1936 26H13.9193C14.8724 26 15.645 25.2271 15.645 24.2738V21.8761C16.1771 21.5702 16.5059 21.0038 16.5078 20.3899V18.6819C16.5195 17.9632 16.8954 17.2997 17.5057 16.9203C17.8637 16.688 18.2032 16.4282 18.5212 16.1435L17.9457 15.5005C17.6613 15.7556 17.3573 15.988 17.0367 16.1957C16.1801 16.7336 15.6557 17.6702 15.645 18.6819V20.3899C15.645 20.8666 15.2587 21.253 14.7821 21.253H11.3308C10.8542 21.253 10.4679 20.8666 10.4679 20.3899V18.646C10.458 17.6535 9.94183 16.735 9.09948 16.2104C5.68011 14.0612 4.64989 9.54627 6.79846 6.12592C8.13154 4.00376 10.4581 2.7121 12.9637 2.70315C12.9573 2.71852 12.9516 2.73422 12.9469 2.75019C12.9309 2.86347 12.9605 2.97853 13.0293 3.06996L14.0461 4.4263C14.1533 4.56509 14.1636 4.75572 14.072 4.90531C13.9838 5.05581 13.8132 5.13791 13.6406 5.11288L11.9624 4.87294C11.7265 4.83912 11.5079 5.00294 11.4741 5.23884C11.4741 5.239 11.474 5.23916 11.474 5.23932L11.1077 7.80225C11.0739 8.03814 11.2377 8.25682 11.4735 8.2907C11.4737 8.2907 11.4738 8.29076 11.474 8.29076L13.1522 8.53069C13.3881 8.5643 13.5521 8.78282 13.5185 9.01877C13.5024 9.13215 13.4418 9.23443 13.3503 9.30315L11.9943 10.3203C11.8037 10.4633 11.7651 10.7338 11.908 10.9245L13.4611 12.9959C13.6041 13.1865 13.8745 13.2252 14.0651 13.0822L15.4215 12.065C15.6123 11.9223 15.8827 11.9613 16.0254 12.1522C16.0936 12.2435 16.123 12.3582 16.107 12.4711L15.8676 14.1498C15.8337 14.3857 15.9974 14.6044 16.2333 14.6383C16.2334 14.6383 16.2334 14.6383 16.2334 14.6383L18.7961 15.0047C18.8162 15.0073 18.8365 15.0086 18.8569 15.0086C19.0717 15.0088 19.2539 14.851 19.2844 14.6383L19.5239 12.9596C19.5575 12.7237 19.7759 12.5596 20.0118 12.5932C20.1251 12.6094 20.2274 12.6699 20.2961 12.7615L21.3134 14.1179C21.4563 14.3086 21.7267 14.3472 21.9174 14.2042L23.9882 12.6506C24.1788 12.5076 24.2174 12.2372 24.0745 12.0465L23.0576 10.6901C22.9509 10.5511 22.9406 10.3608 23.0317 10.2111C23.1181 10.0586 23.2902 9.97598 23.4631 10.004L25.1414 10.2435C25.3772 10.2774 25.5959 10.1135 25.6297 9.87764C25.6297 9.87759 25.6297 9.87759 25.6297 9.87754L25.9956 7.31418C26.0294 7.07823 25.8657 6.85955 25.6298 6.82567ZM11.3308 22.1161H14.7821V22.9792H11.3308V22.1161V22.1161ZM11.3308 23.8422H14.7821V24.2738C14.7821 24.7505 14.3958 25.1369 13.9193 25.1369H12.1936C11.7171 25.1369 11.3308 24.7505 11.3308 24.2738V23.8422V23.8422ZM7.89626 16.4003C8.13181 16.593 8.37794 16.7724 8.63355 16.9376C9.04119 17.1953 9.34803 17.5851 9.50286 18.0419L8.57747 18.9658L7.68141 18.3478C7.28903 18.0774 6.75176 18.1763 6.48131 18.5688C6.41649 18.6629 6.37098 18.769 6.34746 18.8808L6.1214 19.9584H5.09592L4.86985 18.8825C4.77171 18.4161 4.31413 18.1175 3.84782 18.2157C3.73603 18.2392 3.63001 18.2847 3.53591 18.3496L2.63942 18.9658L1.85338 18.1813L2.47074 17.2854C2.7414 16.8931 2.64282 16.3556 2.2506 16.0848C2.15645 16.0198 2.05032 15.9742 1.93837 15.9506L0.862838 15.7241V14.6987L1.93837 14.4722C2.40451 14.3733 2.7023 13.9152 2.60345 13.4488C2.57999 13.3382 2.53507 13.2333 2.47117 13.14L1.85338 12.2415L2.63942 11.457L3.53634 12.0749C3.92888 12.3451 4.46615 12.2459 4.73628 11.8532C4.80099 11.7592 4.8464 11.6533 4.86985 11.5416L4.94535 11.1825C5.01449 11.6798 5.12898 12.1696 5.28747 12.6459C3.86794 12.8152 2.85437 14.1035 3.0236 15.5235C3.19282 16.9434 4.48082 17.9572 5.90035 17.788C6.75488 17.686 7.50291 17.166 7.89626 16.4003ZM7.22626 15.7923C6.9041 16.688 5.91707 17.1529 5.02161 16.8307C4.12614 16.5084 3.6614 15.5211 3.9835 14.6254C4.22995 13.9401 4.88037 13.4837 5.60839 13.4852C5.614 13.4852 5.61917 13.4852 5.62478 13.4852C6.02153 14.3409 6.56333 15.1214 7.22626 15.7923ZM24.8342 9.32689L23.5831 9.14823C22.8754 9.04714 22.2199 9.53904 22.1188 10.2468C22.0703 10.5867 22.1587 10.932 22.3647 11.2067L23.1227 12.2178L21.7422 13.2535L20.9838 12.2428C20.5549 11.6708 19.7437 11.5547 19.1719 11.9837C18.8973 12.1896 18.7157 12.4963 18.6671 12.8362L18.4923 14.0894L16.7843 13.8451L16.963 12.5937C17.0643 11.8859 16.5728 11.2299 15.8652 11.1286C15.5252 11.0799 15.1798 11.1684 14.9051 11.3746L13.8943 12.1328L12.8589 10.7518L13.8692 9.99319C14.4411 9.56424 14.5571 8.75278 14.1283 8.18077C13.9224 7.90609 13.6158 7.72446 13.276 7.67581L12.0249 7.49715L12.2691 5.78867L13.5202 5.96733C14.2278 6.06869 14.8836 5.57706 14.9848 4.86927C15.0335 4.52916 14.9451 4.18371 14.739 3.90888L13.9784 2.89691L15.3589 1.86121L16.1174 2.87231C16.5462 3.44438 17.3574 3.56041 17.9293 3.13145C18.2039 2.9255 18.3854 2.61883 18.4341 2.27894L18.6127 1.02747L20.3207 1.27129L20.1421 2.52276C20.041 3.2306 20.5327 3.88633 21.2404 3.98742C21.5802 4.03597 21.9253 3.9475 22.1999 3.74144L23.2108 2.98322L24.2462 4.36415L23.2353 5.1228C22.6634 5.55176 22.5475 6.36322 22.9763 6.93523C23.1822 7.2099 23.4888 7.39153 23.8285 7.44019L25.0797 7.61884L24.8342 9.32689Z" fill="#00A7AC"/>
<path d="M18.5519 4.10535C16.6458 4.10535 15.1006 5.65102 15.1006 7.55768C15.1006 9.46434 16.6458 11.01 18.5519 11.01C20.4581 11.01 22.0033 9.46434 22.0033 7.55768C22.0011 5.65189 20.4572 4.10745 18.5519 4.10535ZM18.5519 10.1469C17.1223 10.1469 15.9634 8.98771 15.9634 7.55768C15.9634 6.12766 17.1223 4.96843 18.5519 4.96843C19.9815 4.96843 21.1404 6.12766 21.1404 7.55768C21.1388 8.98701 19.9808 10.1453 18.5519 10.1469Z" fill="#00A7AC"/>
<path d="M13.4878 19.0953H12.625V20.3895H13.4878V19.0953Z" fill="#00A7AC"/>
<path d="M11.1702 14.8572C8.50695 13.8165 7.1914 10.8133 8.23182 8.14932C8.63498 7.11707 9.35852 6.24142 10.2961 5.65107L9.83491 4.9209C7.01257 6.69945 6.16597 10.4299 7.94401 13.253C8.6326 14.3464 9.65356 15.1901 10.8569 15.6603C11.9221 16.0685 12.6255 17.0912 12.6258 18.2322H13.4886C13.4899 16.7352 12.5677 15.3926 11.1702 14.8572Z" fill="#00A7AC"/>
<path d="M24.2729 16.0745H21.2529V16.9375H24.2729V16.0745Z" fill="#00A7AC"/>
<path d="M21.0992 18.3317L20.5469 18.9949L23.136 21.1527L23.6884 20.4895L21.0992 18.3317Z" fill="#00A7AC"/>
<path d="M19.5301 19.5269H18.667V22.5477H19.5301V19.5269Z" fill="#00A7AC"/>
<path d="M3.89056 6.59324L0.439453 7.45618L0.648587 8.29304L4.0997 7.4301L3.89056 6.59324Z" fill="#00A7AC"/>
<path d="M1.65762 2.34597L1.15625 3.04791L4.17681 5.2054L4.67818 4.50346L1.65762 2.34597Z" fill="#00A7AC"/>
<path d="M5.69065 2.0177e-05L4.85449 0.213806L5.73711 3.66588L6.57326 3.45209L5.69065 2.0177e-05Z" fill="#00A7AC"/>
</g>
</svg>
