<svg width="30" height="30" viewBox="0 0 30 30" fill="none" xmlns="http://www.w3.org/2000/svg">
<mask id="mask0_909_118" style="mask-type:luminance" maskUnits="userSpaceOnUse" x="0" y="0" width="30" height="30">
<path d="M30 0H0V30H30V0Z" fill="white"/>
</mask>
<g mask="url(#mask0_909_118)">
<path d="M14.9999 22.2401C17.5664 22.2401 19.655 20.1514 19.655 17.5849C19.655 17.1876 19.6024 16.7821 19.4989 16.3797C19.4765 16.2929 19.432 16.2133 19.3697 16.1488C19.3074 16.0844 19.2292 16.0372 19.1432 16.012C19.0572 15.9869 18.966 15.9845 18.8787 16.0051C18.7914 16.0258 18.711 16.0688 18.6454 16.1299C18.3585 16.3995 17.9797 16.5498 17.586 16.5504C16.7305 16.5504 16.0344 15.8542 16.0344 14.9987C16.0344 14.6066 16.1839 14.2301 16.4544 13.9389C16.5155 13.8732 16.5585 13.7928 16.5792 13.7056C16.5998 13.6183 16.5974 13.5272 16.5722 13.4411C16.547 13.355 16.4999 13.277 16.4354 13.2146C16.371 13.1523 16.2914 13.1077 16.2046 13.0854C15.8111 12.9834 15.4064 12.9311 14.9999 12.9297C12.4333 12.9297 10.3447 15.0184 10.3447 17.5849C10.3447 20.1514 12.4333 22.2401 14.9999 22.2401ZM14.9999 13.9642C15.0708 13.9642 15.1421 13.9663 15.214 13.9709C15.0727 14.2952 14.9998 14.645 14.9999 14.9987C14.9999 16.4247 16.1601 17.5849 17.586 17.5849C17.943 17.5849 18.2922 17.5109 18.6139 17.3708C18.6424 17.8633 18.5702 18.3564 18.4015 18.8199C18.2329 19.2836 17.9714 19.7078 17.633 20.0668C17.2947 20.4258 16.8867 20.7119 16.434 20.9078C15.9812 21.1036 15.4932 21.2049 14.9999 21.2056C13.0033 21.2056 11.3792 19.5814 11.3792 17.5849C11.3792 15.5884 13.0033 13.9642 14.9999 13.9642Z" fill="#00A7AC"/>
<path d="M29.9039 17.2843C29.6861 16.9798 24.4677 9.82617 15.0001 9.82617C5.53247 9.82617 0.314016 16.9798 0.0962567 17.2843C0.0336522 17.3721 0 17.4771 0 17.5849C0 17.6926 0.0336522 17.7976 0.0962567 17.8854C0.141257 17.9489 1.2285 19.4563 3.29695 21.1124C3.35 21.1549 3.41088 21.1864 3.47615 21.2054C3.5414 21.2243 3.60975 21.2303 3.67728 21.2228C3.7448 21.2153 3.8102 21.1944 3.86972 21.1618C3.92925 21.1289 3.98173 21.0848 4.02418 21.0318C4.06663 20.9788 4.09823 20.9178 4.11715 20.8526C4.13607 20.7873 4.14195 20.7189 4.13447 20.6514C4.12697 20.5839 4.10625 20.5184 4.07348 20.4589C4.04072 20.3994 3.99655 20.3469 3.9435 20.3044C2.52315 19.1676 1.58177 18.0908 1.17212 17.5849C2.01367 16.5504 5.09953 13.1205 10.0676 11.5993C8.34264 13.0238 7.24143 15.1781 7.24143 17.5849C7.24143 21.8629 10.722 25.3434 15.0001 25.3434C19.2782 25.3434 22.7587 21.8629 22.7587 17.5849C22.7587 15.1802 21.6591 13.0274 19.9361 11.6035C24.8939 13.1267 27.9844 16.5524 28.8274 17.5859C28.4172 18.0923 27.4759 19.1681 26.0561 20.3051C25.9489 20.3908 25.8802 20.5156 25.8651 20.6519C25.8501 20.7883 25.8897 20.9251 25.9754 21.0323C26.0611 21.1394 26.1859 21.2081 26.3224 21.2233C26.4587 21.2384 26.5956 21.1988 26.7027 21.1129C28.7716 19.4568 29.8584 17.9489 29.9034 17.8859C29.9661 17.7983 29.9999 17.6931 30.0001 17.5853C30.0001 17.4773 29.9666 17.3721 29.9039 17.2843ZM21.7242 17.5849C21.7242 21.2924 18.7077 24.3089 15.0001 24.3089C11.2925 24.3089 8.27592 21.2924 8.27592 17.5849C8.27592 13.8773 11.2925 10.8607 15.0001 10.8607C18.7077 10.8607 21.7242 13.8767 21.7242 17.5849Z" fill="#00A7AC"/>
<path d="M4.49277 12.372C6.68587 10.7391 10.289 8.79224 15 8.79224C19.711 8.79224 23.3142 10.7391 25.5072 12.372C25.6172 12.4539 25.7554 12.4888 25.891 12.4689C26.0267 12.449 26.149 12.376 26.2309 12.266C26.3127 12.156 26.3475 12.0179 26.3277 11.8822C26.3079 11.7465 26.2349 11.6243 26.1249 11.5424C25.669 11.2032 25.1989 10.8836 24.7159 10.5844L25.5549 9.12844C25.5887 9.06959 25.6107 9.00462 25.6195 8.93725C25.6284 8.8699 25.6239 8.80145 25.6062 8.73585C25.5887 8.67024 25.5582 8.60874 25.5169 8.55487C25.4755 8.501 25.4239 8.45582 25.365 8.42189C25.3062 8.38795 25.2412 8.36595 25.1739 8.35714C25.1065 8.3483 25.038 8.35284 24.9724 8.37047C24.9069 8.3881 24.8454 8.41847 24.7914 8.45987C24.7375 8.50125 24.6924 8.55285 24.6585 8.61172L23.8215 10.0641C22.704 9.44769 21.527 8.94582 20.3085 8.5662L20.8215 6.65602C20.8392 6.5904 20.8437 6.52197 20.8349 6.45462C20.8259 6.38727 20.8039 6.32232 20.7699 6.26347C20.736 6.20464 20.6907 6.15307 20.6369 6.1117C20.583 6.07034 20.5215 6.04 20.4559 6.0224C20.3902 6.0048 20.3219 6.00032 20.2545 6.00917C20.187 6.01804 20.1222 6.04007 20.0634 6.07402C20.0045 6.10799 19.9529 6.15319 19.9115 6.20709C19.8702 6.26097 19.8399 6.32249 19.8222 6.38809L19.3127 8.28534C18.0695 7.9786 16.7969 7.80624 15.5167 7.7712V5.17154C15.5167 5.03435 15.4622 4.9028 15.3652 4.8058C15.2682 4.7088 15.1367 4.6543 14.9995 4.6543C14.8623 4.6543 14.7308 4.7088 14.6338 4.8058C14.5368 4.9028 14.4823 5.03435 14.4823 5.17154V7.7712C13.1245 7.8105 11.8547 7.99465 10.6862 8.28534L10.1767 6.38809C10.1368 6.26065 10.0491 6.1536 9.93206 6.08927C9.81501 6.02495 9.67762 6.00835 9.54862 6.04295C9.41962 6.07754 9.30899 6.16064 9.23981 6.27489C9.17064 6.38914 9.14829 6.52569 9.17742 6.65602L9.69054 8.5662C8.47187 8.94547 7.29482 9.44735 6.17742 10.0641L5.34054 8.61172C5.30661 8.55285 5.26142 8.50125 5.20754 8.45987C5.15367 8.41847 5.09219 8.3881 5.02657 8.37047C4.96096 8.35284 4.89252 8.3483 4.82516 8.35714C4.75781 8.36595 4.69284 8.38795 4.63399 8.42189C4.57512 8.45582 4.52352 8.501 4.48214 8.55487C4.44074 8.60874 4.41036 8.67024 4.39274 8.73585C4.37511 8.80145 4.37057 8.8699 4.37941 8.93725C4.38822 9.00462 4.41022 9.06959 4.44416 9.12844L5.28312 10.5844C4.76587 10.9051 4.29467 11.2294 3.87416 11.5424C3.81967 11.583 3.77374 11.6339 3.73896 11.6923C3.70417 11.7507 3.68122 11.8153 3.67142 11.8826C3.66162 11.9498 3.66517 12.0183 3.68184 12.0842C3.69852 12.1501 3.72802 12.212 3.76864 12.2665C3.80926 12.321 3.86021 12.3669 3.91859 12.4017C3.97696 12.4365 4.04161 12.4594 4.10886 12.4692C4.17609 12.479 4.24461 12.4755 4.31049 12.4588C4.37636 12.4421 4.43831 12.4126 4.49277 12.372Z" fill="#00A7AC"/>
</g>
</svg>
