<svg width="27" height="26" viewBox="0 0 27 26" fill="none" xmlns="http://www.w3.org/2000/svg">
<path d="M6.34466 17.3333C6.00184 17.3333 5.66672 17.435 5.38167 17.6254C5.09663 17.8159 4.87446 18.0866 4.74327 18.4033C4.61208 18.7201 4.57775 19.0686 4.64463 19.4048C4.71152 19.741 4.8766 20.0499 5.11901 20.2923C5.36142 20.5347 5.67027 20.6998 6.00651 20.7667C6.34274 20.8336 6.69125 20.7992 7.00798 20.668C7.32471 20.5368 7.59542 20.3147 7.78588 20.0296C7.97634 19.7446 8.078 19.4095 8.078 19.0666C8.07748 18.6071 7.8947 18.1665 7.56974 17.8416C7.24479 17.5166 6.80421 17.3338 6.34466 17.3333ZM6.34466 19.9333C6.17325 19.9333 6.00569 19.8825 5.86317 19.7873C5.72065 19.692 5.60956 19.5567 5.54397 19.3983C5.47837 19.2399 5.46121 19.0657 5.49465 18.8976C5.52809 18.7295 5.61063 18.575 5.73184 18.4538C5.85304 18.3326 6.00747 18.2501 6.17558 18.2166C6.3437 18.1832 6.51796 18.2004 6.67632 18.266C6.83468 18.3315 6.97004 18.4426 7.06527 18.5852C7.1605 18.7277 7.21133 18.8952 7.21133 19.0666C7.21106 19.2964 7.11966 19.5167 6.95719 19.6792C6.79471 19.8416 6.57443 19.933 6.34466 19.9333Z" fill="#00A7AC"/>
<path d="M21.0781 17.3334C20.7352 17.3334 20.4001 17.435 20.1151 17.6255C19.83 17.816 19.6079 18.0867 19.4767 18.4034C19.3455 18.7201 19.3112 19.0686 19.378 19.4049C19.4449 19.7411 19.61 20.0499 19.8524 20.2924C20.0948 20.5348 20.4037 20.6999 20.7399 20.7667C21.0761 20.8336 21.4247 20.7993 21.7414 20.6681C22.0581 20.5369 22.3288 20.3147 22.5193 20.0297C22.7097 19.7447 22.8114 19.4095 22.8114 19.0667C22.8109 18.6072 22.6281 18.1666 22.3031 17.8416C21.9782 17.5167 21.5376 17.3339 21.0781 17.3334ZM21.0781 19.9334C20.9067 19.9334 20.7391 19.8825 20.5966 19.7873C20.454 19.6921 20.343 19.5567 20.2774 19.3984C20.2118 19.24 20.1946 19.0657 20.228 18.8976C20.2615 18.7295 20.344 18.5751 20.4652 18.4539C20.5864 18.3327 20.7409 18.2501 20.909 18.2167C21.0771 18.1833 21.2514 18.2004 21.4097 18.266C21.5681 18.3316 21.7034 18.4427 21.7987 18.5852C21.8939 18.7277 21.9447 18.8953 21.9447 19.0667C21.9445 19.2965 21.8531 19.5168 21.6906 19.6792C21.5281 19.8417 21.3078 19.9331 21.0781 19.9334Z" fill="#00A7AC"/>
<path d="M8.94434 17.7666H18.4777V18.6333H8.94434V17.7666Z" fill="#00A7AC"/>
<path d="M8.94434 19.5H18.4777V20.3667H8.94434V19.5Z" fill="#00A7AC"/>
<path d="M25.8443 7.8H24.5443V3.03333C24.5434 2.22912 24.2235 1.4581 23.6548 0.88944C23.0862 0.320776 22.3152 0.000903216 21.5109 0H5.91094C5.10672 0.000903216 4.33571 0.320776 3.76704 0.88944C3.19838 1.4581 2.87851 2.22912 2.8776 3.03333V4.76667H13.2776V15.1667H9.8306L11.5443 13.2625V14.3H12.4109V9.96667H11.5443V11.967L8.66461 15.1667H3.74427V5.63333H2.8776V7.8H1.5776C1.34783 7.80027 1.12755 7.89167 0.965079 8.05414C0.802607 8.21661 0.71121 8.4369 0.710938 8.66667V13C0.71121 13.2298 0.802607 13.4501 0.965079 13.6125C1.12755 13.775 1.34783 13.8664 1.5776 13.8667H2.8776V21.2333C2.87795 21.5021 2.96143 21.7641 3.1166 21.9835C3.27176 22.2029 3.49101 22.3689 3.74427 22.4588V25.1333C3.74454 25.3631 3.83594 25.5834 3.99841 25.7459C4.16089 25.9083 4.38117 25.9997 4.61094 26H7.21094C7.44071 25.9997 7.66099 25.9083 7.82346 25.7459C7.98593 25.5834 8.07733 25.3631 8.0776 25.1333V22.5333H22.8109V25.1333H20.2109V23.4H19.3443V25.1333C19.3445 25.3631 19.4359 25.5834 19.5984 25.7459C19.7609 25.9083 19.9812 25.9997 20.2109 26H22.8109C23.0407 25.9997 23.261 25.9083 23.4235 25.7459C23.5859 25.5834 23.6773 25.3631 23.6776 25.1333V22.4588C23.9309 22.3689 24.1501 22.2029 24.3053 21.9835C24.4604 21.7641 24.5439 21.5021 24.5443 21.2333V13.8667H25.8443C26.074 13.8664 26.2943 13.775 26.4568 13.6125C26.6193 13.4501 26.7107 13.2298 26.7109 13V8.66667C26.7107 8.4369 26.6193 8.21661 26.4568 8.05414C26.2943 7.89167 26.074 7.80027 25.8443 7.8ZM3.74427 3.03333C3.74492 2.4589 3.9734 1.90817 4.37959 1.50198C4.78577 1.09579 5.3365 0.867312 5.91094 0.866667H21.5109C22.0854 0.867312 22.6361 1.09579 23.0423 1.50198C23.4485 1.90817 23.677 2.4589 23.6776 3.03333V3.9H3.74427V3.03333ZM14.1443 4.76667H23.6776V15.1667H18.7573L15.8776 11.967V9.96667H15.0109V14.3H15.8776V13.2625L17.5913 15.1667H14.1443V4.76667ZM1.5776 13V8.66667H2.8776V13H1.5776ZM7.21094 25.1333H4.61094V22.5333H7.21094V25.1333ZM23.2443 21.6667H4.1776C4.06272 21.6665 3.95257 21.6208 3.87133 21.5396C3.7901 21.4584 3.7444 21.3482 3.74427 21.2333V16.0333H7.88461L7.75553 16.1768L8.39968 16.7563L9.0506 16.0333H18.3713L19.0222 16.7566L19.6663 16.177L19.5373 16.0333H23.6776V21.2333C23.6775 21.3482 23.6318 21.4584 23.5505 21.5396C23.4693 21.6208 23.3592 21.6665 23.2443 21.6667ZM25.8443 13H24.5443V8.66667H25.8443L25.8448 13H25.8443Z" fill="#00A7AC"/>
<path d="M13.2773 1.7334H14.144V2.60007H13.2773V1.7334Z" fill="#00A7AC"/>
<path d="M15.0107 1.73334H15.8774V2.6H15.0107V1.73334Z" fill="#00A7AC"/>
<path d="M11.5439 1.7334H12.4106V2.60007H11.5439V1.7334Z" fill="#00A7AC"/>
<path d="M5.47754 1.7334H6.34421V2.60007H5.47754V1.7334Z" fill="#00A7AC"/>
<path d="M21.0771 1.7334H21.9438V2.60007H21.0771V1.7334Z" fill="#00A7AC"/>
</svg>
