<svg width="40" height="40" viewBox="0 0 40 40" fill="none" xmlns="http://www.w3.org/2000/svg">
<path d="M8.66667 26.6667C8.13925 26.6667 7.62368 26.8231 7.18515 27.1161C6.74662 27.4091 6.40482 27.8256 6.20299 28.3129C6.00116 28.8001 5.94835 29.3363 6.05124 29.8536C6.15413 30.3709 6.40811 30.846 6.78105 31.219C7.15399 31.5919 7.62914 31.8459 8.14643 31.9488C8.66371 32.0517 9.19989 31.9989 9.68716 31.797C10.1744 31.5952 10.5909 31.2534 10.8839 30.8149C11.1769 30.3763 11.3333 29.8608 11.3333 29.3334C11.3325 28.6264 11.0513 27.9485 10.5514 27.4486C10.0515 26.9487 9.37367 26.6675 8.66667 26.6667ZM8.66667 30.6667C8.40296 30.6667 8.14517 30.5885 7.92591 30.442C7.70664 30.2955 7.53575 30.0872 7.43483 29.8436C7.33391 29.6 7.30751 29.3319 7.35895 29.0732C7.4104 28.8146 7.53739 28.577 7.72386 28.3905C7.91033 28.2041 8.14791 28.0771 8.40655 28.0256C8.66519 27.9742 8.93328 28.0006 9.17691 28.1015C9.42055 28.2024 9.62879 28.3733 9.77529 28.5926C9.9218 28.8119 10 29.0696 10 29.3334C9.99958 29.6868 9.85897 30.0257 9.60901 30.2757C9.35906 30.5257 9.02016 30.6663 8.66667 30.6667Z" fill="#00A7AC"/>
<path d="M31.3337 26.6667C30.8062 26.6667 30.2907 26.8231 29.8521 27.1161C29.4136 27.4091 29.0718 27.8256 28.87 28.3129C28.6681 28.8001 28.6153 29.3363 28.7182 29.8536C28.8211 30.3709 29.0751 30.846 29.448 31.219C29.821 31.5919 30.2961 31.8459 30.8134 31.9488C31.3307 32.0517 31.8669 31.9989 32.3542 31.797C32.8414 31.5952 33.2579 31.2534 33.5509 30.8149C33.8439 30.3763 34.0003 29.8608 34.0003 29.3334C33.9995 28.6264 33.7183 27.9485 33.2184 27.4486C32.7185 26.9487 32.0407 26.6675 31.3337 26.6667ZM31.3337 30.6667C31.07 30.6667 30.8122 30.5885 30.5929 30.442C30.3736 30.2955 30.2027 30.0872 30.1018 29.8436C30.0009 29.6 29.9745 29.3319 30.0259 29.0732C30.0774 28.8146 30.2044 28.577 30.3909 28.3905C30.5773 28.2041 30.8149 28.0771 31.0735 28.0256C31.3322 27.9742 31.6003 28.0006 31.8439 28.1015C32.0875 28.2024 32.2958 28.3733 32.4423 28.5926C32.5888 28.8119 32.667 29.0696 32.667 29.3334C32.6666 29.6868 32.526 30.0257 32.276 30.2757C32.026 30.5257 31.6872 30.6663 31.3337 30.6667Z" fill="#00A7AC"/>
<path d="M12.667 27.3333H27.3337V28.6666H12.667V27.3333Z" fill="#00A7AC"/>
<path d="M12.667 30H27.3337V31.3333H12.667V30Z" fill="#00A7AC"/>
<path d="M38.6667 12H36.6667V4.66667C36.6653 3.42942 36.1732 2.24324 35.2983 1.36837C34.4234 0.493501 33.2373 0.00138956 32 0H8C6.76275 0.00138956 5.57657 0.493501 4.7017 1.36837C3.82683 2.24324 3.33472 3.42942 3.33333 4.66667V7.33333H19.3333V23.3333H14.0303L16.6667 20.4039V22H18V15.3333H16.6667V18.4108L12.2364 23.3333H4.66667V8.66667H3.33333V12H1.33333C0.97984 12.0004 0.640945 12.141 0.390987 12.391C0.141029 12.6409 0.000419027 12.9798 0 13.3333V20C0.000419027 20.3535 0.141029 20.6924 0.390987 20.9423C0.640945 21.1923 0.97984 21.3329 1.33333 21.3333H3.33333V32.6667C3.33387 33.0801 3.4623 33.4832 3.70102 33.8208C3.93973 34.1583 4.27704 34.4137 4.66667 34.552V38.6667C4.66709 39.0202 4.8077 39.3591 5.05765 39.609C5.30761 39.859 5.64651 39.9996 6 40H10C10.3535 39.9996 10.6924 39.859 10.9423 39.609C11.1923 39.3591 11.3329 39.0202 11.3333 38.6667V34.6667H34V38.6667H30V36H28.6667V38.6667C28.6671 39.0202 28.8077 39.3591 29.0577 39.609C29.3076 39.859 29.6465 39.9996 30 40H34C34.3535 39.9996 34.6924 39.859 34.9423 39.609C35.1923 39.3591 35.3329 39.0202 35.3333 38.6667V34.552C35.723 34.4137 36.0603 34.1583 36.299 33.8208C36.5377 33.4832 36.6661 33.0801 36.6667 32.6667V21.3333H38.6667C39.0202 21.3329 39.3591 21.1923 39.609 20.9423C39.859 20.6924 39.9996 20.3535 40 20V13.3333C39.9996 12.9798 39.859 12.6409 39.609 12.391C39.3591 12.141 39.0202 12.0004 38.6667 12ZM4.66667 4.66667C4.66766 3.78292 5.01917 2.93565 5.64407 2.31074C6.26898 1.68583 7.11625 1.33433 8 1.33333H32C32.8838 1.33433 33.731 1.68583 34.3559 2.31074C34.9808 2.93565 35.3323 3.78292 35.3333 4.66667V6H4.66667V4.66667ZM20.6667 7.33333H35.3333V23.3333H27.7636L23.3333 18.4108V15.3333H22V22H23.3333V20.4039L25.9697 23.3333H20.6667V7.33333ZM1.33333 20V13.3333H3.33333V20H1.33333ZM10 38.6667H6V34.6667H10V38.6667ZM34.6667 33.3333H5.33333C5.15658 33.3331 4.98713 33.2628 4.86215 33.1379C4.73717 33.0129 4.66687 32.8434 4.66667 32.6667V24.6667H11.0364L10.8378 24.8873L11.8288 25.779L12.8302 24.6667H27.1698L28.1712 25.7793L29.1622 24.8877L28.9636 24.6667H35.3333V32.6667C35.3331 32.8434 35.2628 33.0129 35.1379 33.1379C35.0129 33.2628 34.8434 33.3331 34.6667 33.3333ZM38.6667 20H36.6667V13.3333H38.6667L38.6675 20H38.6667Z" fill="#00A7AC"/>
<path d="M19.333 2.66669H20.6663V4.00002H19.333V2.66669Z" fill="#00A7AC"/>
<path d="M22 2.66669H23.3333V4.00002H22V2.66669Z" fill="#00A7AC"/>
<path d="M16.667 2.66669H18.0003V4.00002H16.667V2.66669Z" fill="#00A7AC"/>
<path d="M7.33301 2.66669H8.66634V4.00002H7.33301V2.66669Z" fill="#00A7AC"/>
<path d="M31.333 2.66669H32.6663V4.00002H31.333V2.66669Z" fill="#00A7AC"/>
</svg>
