<svg width="30" height="27" viewBox="0 0 30 27" fill="none" xmlns="http://www.w3.org/2000/svg">
<path d="M28.5 4.5H22V2.5C21.9983 1.11987 20.8801 0.00170899 19.5 0H10.5C9.11987 0.00170899 8.00171 1.11987 8 2.5V4.5H1.5C0.671631 4.5 0 5.17163 0 6V17.1299C0.00317383 17.7642 0.402832 18.3284 1 18.5415V25.5C1 26.3284 1.67163 27 2.5 27H27.5C28.3284 27 29 26.3284 29 25.5V18.542C29.5972 18.3286 29.9971 17.7642 30 17.1299V6C30 5.17163 29.3284 4.5 28.5 4.5ZM9 2.5C9 1.67163 9.67163 1 10.5 1H19.5C20.3284 1 21 1.67163 21 2.5V4.5H20V2.5C20 2.22388 19.7761 2 19.5 2H10.5C10.2239 2 10 2.22388 10 2.5V4.5H9V2.5ZM19 4.5H11V3H19V4.5ZM28 25.5C28 25.7761 27.7761 26 27.5 26H2.5C2.22388 26 2 25.7761 2 25.5V18.7134L13 20.2305V21.5C13 22.3284 13.6716 23 14.5 23H15.5C16.3284 23 17 22.3284 17 21.5V20.2305L28 18.7134V25.5ZM16 21.5C16 21.7761 15.7761 22 15.5 22H14.5C14.2239 22 14 21.7761 14 21.5V18.5C14 18.2239 14.2239 18 14.5 18H15.5C15.7761 18 16 18.2239 16 18.5V21.5ZM29 17.1299C29.0002 17.3792 28.8169 17.5906 28.5701 17.6255L28.4314 17.6445L17 19.2209V18.5C17 17.6716 16.3284 17 15.5 17H14.5C13.6716 17 13 17.6716 13 18.5V19.2209L1.43042 17.6255C1.18359 17.5908 0.999756 17.3794 1 17.1299V6C1 5.72388 1.22388 5.5 1.5 5.5H28.5C28.7761 5.5 29 5.72388 29 6V17.1299Z" fill="#00A7AC"/>
</svg>
