<svg width="12" height="10" viewBox="0 0 12 10" fill="none" xmlns="http://www.w3.org/2000/svg">
<path d="M12 1.18385C11.5538 1.38462 11.0782 1.51769 10.5825 1.58231C11.0925 1.27 11.4818 0.779231 11.6648 0.187692C11.1892 0.478462 10.6642 0.683846 10.1047 0.798462C9.65325 0.305385 9.00975 0 8.30775 0C6.94575 0 5.84925 1.13385 5.84925 2.52385C5.84925 2.72385 5.86575 2.91615 5.90625 3.09923C3.861 2.99692 2.05125 1.99154 0.8355 0.46C0.62325 0.837692 0.49875 1.27 0.49875 1.73538C0.49875 2.60923 0.9375 3.38385 1.5915 3.83231C1.19625 3.82462 0.8085 3.70692 0.48 3.52154C0.48 3.52923 0.48 3.53923 0.48 3.54923C0.48 4.77538 1.33275 5.79385 2.451 6.02846C2.25075 6.08462 2.0325 6.11154 1.806 6.11154C1.6485 6.11154 1.4895 6.10231 1.34025 6.06846C1.659 7.06769 2.5635 7.80231 3.639 7.82615C2.802 8.49769 1.73925 8.90231 0.58875 8.90231C0.387 8.90231 0.1935 8.89308 0 8.86769C1.08975 9.58846 2.38125 10 3.774 10C8.301 10 10.776 6.15385 10.776 2.82C10.776 2.70846 10.7723 2.60077 10.767 2.49385C11.2552 2.13846 11.6655 1.69462 12 1.18385Z" fill="#03A9F4"/>
</svg>
