<svg width="13" height="13" viewBox="0 0 13 13" fill="none" xmlns="http://www.w3.org/2000/svg">
<g clip-path="url(#clip0_2548_190)">
<path d="M10.3529 10.9135H11.2603C11.2823 10.9137 11.304 10.9094 11.3243 10.9009C11.3446 10.8924 11.363 10.8799 11.3785 10.8641C11.394 10.8483 11.4063 10.8294 11.4146 10.8087C11.4229 10.788 11.4271 10.7658 11.4269 10.7434V8.62775C11.4271 8.60537 11.4229 8.58317 11.4146 8.56246C11.4063 8.54174 11.394 8.52292 11.3785 8.50709C11.363 8.49126 11.3446 8.47874 11.3243 8.47026C11.304 8.46178 11.2823 8.4575 11.2603 8.45769H10.3529C10.3087 8.45769 10.2663 8.4756 10.2351 8.5075C10.2038 8.53939 10.1863 8.58265 10.1863 8.62775V10.7434C10.1863 10.7885 10.2038 10.8318 10.2351 10.8637C10.2663 10.8956 10.3087 10.9135 10.3529 10.9135ZM10.5194 8.79782H11.0991V10.5666H10.5194V8.79782ZM2.8397 8.45769H1.93221C1.90984 8.45676 1.88752 8.46049 1.86661 8.46864C1.8457 8.47679 1.82662 8.48919 1.81055 8.5051C1.79447 8.521 1.78173 8.54007 1.77309 8.56116C1.76445 8.58224 1.7601 8.6049 1.7603 8.62775V10.7434C1.7601 10.7663 1.76445 10.7889 1.77309 10.81C1.78173 10.8311 1.79447 10.8502 1.81055 10.8661C1.82662 10.882 1.8457 10.8944 1.86661 10.9025C1.88752 10.9107 1.90984 10.9144 1.93221 10.9135H2.84503C2.88921 10.9135 2.93158 10.8956 2.96282 10.8637C2.99406 10.8318 3.01161 10.7885 3.01161 10.7434V8.62775C3.01162 8.60495 3.00714 8.58239 2.99844 8.56139C2.98973 8.54039 2.97699 8.5214 2.96095 8.50553C2.94491 8.48967 2.92591 8.47725 2.90508 8.46903C2.88426 8.46082 2.86202 8.45696 2.8397 8.45769ZM2.67313 10.5734H2.09345V8.80462H2.67313V10.5734ZM12.433 2.923H7.75163C7.74232 2.92223 7.73296 2.92223 7.72365 2.923L6.76951 2.4577V2.04953H7.92887C7.97305 2.04953 8.01542 2.03162 8.04666 1.99972C8.07789 1.96783 8.09544 1.92457 8.09544 1.87947V0.962457C8.09544 0.917352 8.07789 0.874095 8.04666 0.842201C8.01542 0.810307 7.97305 0.792389 7.92887 0.792389H6.76951V0.763818C6.76951 0.718713 6.75197 0.675456 6.72073 0.643562C6.68949 0.611668 6.64712 0.59375 6.60294 0.59375C6.55876 0.59375 6.51639 0.611668 6.48516 0.643562C6.45392 0.675456 6.43637 0.718713 6.43637 0.763818V2.45498L5.51821 2.94341C5.49439 2.93046 5.4679 2.92347 5.44092 2.923H0.766189C0.744264 2.92282 0.722524 2.9271 0.702234 2.93558C0.681944 2.94406 0.663511 2.95658 0.648007 2.97241C0.632504 2.98824 0.620241 3.00706 0.611933 3.02777C0.603625 3.04849 0.599437 3.07069 0.599615 3.09307V4.00191C0.599615 4.04702 0.617164 4.09027 0.648403 4.12217C0.679642 4.15406 0.722011 4.17198 0.766189 4.17198H0.934095V11.538H0.768854C0.746756 11.5376 0.724808 11.5418 0.70429 11.5501C0.683772 11.5585 0.665093 11.571 0.649342 11.5868C0.63359 11.6027 0.621082 11.6215 0.612545 11.6423C0.604007 11.6632 0.599612 11.6855 0.599615 11.7081V12.4237C0.599615 12.4688 0.617164 12.5121 0.648403 12.544C0.679642 12.5759 0.722011 12.5938 0.766189 12.5938H12.4237C12.4458 12.5941 12.4677 12.59 12.4883 12.5816C12.5088 12.5732 12.5275 12.5608 12.5432 12.5449C12.559 12.5291 12.5715 12.5102 12.58 12.4894C12.5885 12.4686 12.5929 12.4463 12.5929 12.4237V11.7081C12.5929 11.663 12.5754 11.6197 12.5442 11.5878C12.5129 11.5559 12.4705 11.538 12.4264 11.538H12.2585V4.17062H12.433C12.477 4.17062 12.5191 4.15289 12.5503 4.12129C12.5815 4.08969 12.5993 4.04678 12.5996 4.00191V3.09307C12.5998 3.07069 12.5956 3.04849 12.5873 3.02777C12.579 3.00706 12.5667 2.98824 12.5512 2.97241C12.5357 2.95658 12.5173 2.94406 12.497 2.93558C12.4767 2.9271 12.455 2.92282 12.433 2.923ZM5.69145 11.538V8.69442H6.54031V11.538H5.69145ZM6.87346 8.69442H7.72232V11.538H6.87346V8.69442ZM7.88889 8.35564H5.5302C5.48603 8.35564 5.44366 8.37356 5.41242 8.40546C5.38118 8.43735 5.36363 8.48061 5.36363 8.52571V11.538H4.01105V5.12164H9.40272V11.538H8.06213V8.52435C8.06197 8.50155 8.05732 8.47901 8.04845 8.45808C8.03959 8.43715 8.02669 8.41825 8.01053 8.40251C7.99437 8.38677 7.97527 8.37451 7.95437 8.36646C7.93348 8.35841 7.91121 8.35473 7.88889 8.35564ZM9.32942 4.09715C9.34722 4.12498 9.37274 4.14677 9.40272 4.15973V4.78286H4.01105V4.1298L6.59628 2.75157L9.32942 4.09715ZM7.76763 1.13253V1.7094H6.76951V1.13253H7.76763ZM0.932763 3.26314H4.91854L3.80716 3.85361C3.78339 3.83901 3.75628 3.83104 3.72854 3.83048H0.932763V3.26314ZM1.26591 4.17062H3.6779V11.538H1.26591V4.17062ZM12.2571 12.2536H0.930098V11.8781H12.2571V12.2536ZM11.9266 11.538H9.73586V4.17062H11.9266V11.538ZM12.2678 3.83048H9.55596L8.40327 3.26314H12.2678V3.83048ZM10.3529 7.53932H11.2603C11.2823 7.5395 11.304 7.53523 11.3243 7.52674C11.3446 7.51826 11.363 7.50574 11.3785 7.48991C11.394 7.47408 11.4063 7.45526 11.4146 7.43455C11.4229 7.41383 11.4271 7.39164 11.4269 7.36925V5.25633C11.4262 5.21182 11.4083 5.1694 11.3771 5.13831C11.3459 5.10722 11.3039 5.08998 11.2603 5.09034H10.3529C10.3087 5.09034 10.2663 5.10826 10.2351 5.14016C10.2038 5.17205 10.1863 5.21531 10.1863 5.26041V7.37197C10.187 7.4166 10.2048 7.45917 10.236 7.49047C10.2672 7.52178 10.3091 7.53933 10.3529 7.53932ZM10.5194 5.42368H11.0991V7.20191H10.5194V5.42368ZM2.8397 5.09034H1.93221C1.91028 5.09016 1.88854 5.09444 1.86825 5.10292C1.84796 5.1114 1.82953 5.12392 1.81403 5.13975C1.79852 5.15558 1.78626 5.1744 1.77795 5.19512C1.76964 5.21583 1.76546 5.23803 1.76563 5.26041V7.37197C1.76581 7.39413 1.77025 7.41603 1.77872 7.43643C1.78719 7.45683 1.7995 7.47533 1.81497 7.49087C1.83044 7.50641 1.84875 7.51869 1.86887 7.527C1.88898 7.53531 1.91051 7.5395 1.93221 7.53932H2.84503C2.88921 7.53932 2.93158 7.5214 2.96282 7.48951C2.99406 7.45761 3.01161 7.41436 3.01161 7.36925V5.25633C3.01109 5.23388 3.00622 5.21175 2.99728 5.19123C2.98835 5.17071 2.97552 5.15219 2.95953 5.13676C2.94355 5.12133 2.92473 5.10928 2.90417 5.10132C2.8836 5.09335 2.86169 5.08962 2.8397 5.09034ZM2.67313 7.20191H2.09345V5.4264H2.67313V7.20191ZM5.902 3.8196C5.902 3.96114 5.94311 4.0995 6.02013 4.21719C6.09715 4.33488 6.20662 4.4266 6.3347 4.48077C6.46278 4.53493 6.60372 4.54911 6.73969 4.52149C6.87566 4.49388 7.00055 4.42572 7.09858 4.32564C7.19661 4.22555 7.26337 4.09804 7.29042 3.95921C7.31746 3.82039 7.30358 3.6765 7.25053 3.54573C7.19748 3.41497 7.10763 3.3032 6.99236 3.22456C6.87709 3.14593 6.74157 3.10395 6.60294 3.10395C6.41715 3.10431 6.23906 3.17983 6.10769 3.31396C5.97631 3.44809 5.90235 3.62991 5.902 3.8196ZM6.60294 3.44409C6.67568 3.44409 6.74679 3.46611 6.80728 3.50737C6.86776 3.54864 6.9149 3.60728 6.94274 3.6759C6.97058 3.74451 6.97786 3.82002 6.96367 3.89286C6.94948 3.9657 6.91445 4.03261 6.86301 4.08512C6.81157 4.13764 6.74604 4.1734 6.67469 4.18789C6.60335 4.20238 6.5294 4.19495 6.46219 4.16652C6.39499 4.1381 6.33754 4.08997 6.29713 4.02822C6.25672 3.96647 6.23515 3.89387 6.23515 3.8196C6.2355 3.72012 6.27436 3.62481 6.34326 3.55447C6.41216 3.48413 6.5055 3.44445 6.60294 3.44409ZM7.6317 5.79783H5.83137C5.80938 5.79765 5.78758 5.80191 5.76722 5.81038C5.74685 5.81885 5.72833 5.83134 5.71272 5.84715C5.69711 5.86296 5.68472 5.88177 5.67627 5.9025C5.66782 5.92322 5.66346 5.94545 5.66346 5.96789V7.81143C5.66346 7.85653 5.68101 7.89979 5.71225 7.93168C5.74349 7.96358 5.78586 7.9815 5.83004 7.9815H7.6317C7.67542 7.98078 7.7171 7.96255 7.74777 7.93073C7.77843 7.89892 7.79562 7.85607 7.79561 7.81143V5.96789C7.79562 5.92326 7.77843 5.88041 7.74777 5.84859C7.7171 5.81677 7.67542 5.79854 7.6317 5.79783ZM5.99794 6.13796H6.54031V7.63456H5.99794V6.13796ZM7.46379 7.63456H6.87346V6.13796H7.46513L7.46379 7.63456ZM8.44858 7.81143V5.96789C8.44858 5.92279 8.46613 5.87953 8.49737 5.84764C8.52861 5.81574 8.57098 5.79783 8.61515 5.79783C8.65933 5.79783 8.7017 5.81574 8.73294 5.84764C8.76418 5.87953 8.78173 5.92279 8.78173 5.96789V7.81143C8.78173 7.85653 8.76418 7.89979 8.73294 7.93168C8.7017 7.96358 8.65933 7.9815 8.61515 7.9815C8.57098 7.9815 8.52861 7.96358 8.49737 7.93168C8.46613 7.89979 8.44858 7.85653 8.44858 7.81143ZM4.96519 5.96789V7.81143C4.96519 7.85653 4.94764 7.89979 4.9164 7.93168C4.88516 7.96358 4.84279 7.9815 4.79861 7.9815C4.75443 7.9815 4.71206 7.96358 4.68083 7.93168C4.64959 7.89979 4.63204 7.85653 4.63204 7.81143V5.96789C4.63204 5.92279 4.64959 5.87953 4.68083 5.84764C4.71206 5.81574 4.75443 5.79783 4.79861 5.79783C4.84279 5.79783 4.88516 5.81574 4.9164 5.84764C4.94764 5.87953 4.96519 5.92279 4.96519 5.96789Z" fill="#00A7AC"/>
</g>
<defs>
<clipPath id="clip0_2548_190">
<rect width="13" height="13" fill="white"/>
</clipPath>
</defs>
</svg>
