<svg width="12" height="12" viewBox="0 0 12 12" fill="none" xmlns="http://www.w3.org/2000/svg">
<path d="M6 0C4.41498 0.0202135 2.90058 0.658844 1.77971 1.77971C0.658844 2.90058 0.0202135 4.41498 0 6C0.00740933 6.92335 0.227832 7.83253 0.644107 8.65675C1.06038 9.48098 1.66127 10.198 2.4 10.752V10.8H2.46C3.47591 11.5785 4.72011 12.0004 6 12.0004C7.27989 12.0004 8.52409 11.5785 9.54 10.8H9.6V10.752C10.3387 10.198 10.9396 9.48098 11.3559 8.65675C11.7722 7.83253 11.9926 6.92335 12 6C11.9798 4.41498 11.3412 2.90058 10.2203 1.77971C9.09942 0.658844 7.58502 0.0202135 6 0ZM3.642 10.158C3.72959 9.75687 3.95169 9.39773 4.27145 9.14018C4.59121 8.88262 4.98941 8.74213 5.4 8.742H6.6C7.01059 8.74213 7.40879 8.88262 7.72855 9.14018C8.04831 9.39773 8.27041 9.75687 8.358 10.158C7.64332 10.5785 6.8292 10.8002 6 10.8002C5.1708 10.8002 4.35668 10.5785 3.642 10.158ZM9.366 9.384C9.13778 8.83857 8.75347 8.37274 8.26135 8.04502C7.76924 7.71729 7.19125 7.54229 6.6 7.542H5.4C4.80875 7.54229 4.23076 7.71729 3.73865 8.04502C3.24653 8.37274 2.86222 8.83857 2.634 9.384C2.1844 8.94179 1.82634 8.41533 1.58029 7.83468C1.33424 7.25404 1.20501 6.63061 1.2 6C1.21556 4.7318 1.72627 3.51992 2.6231 2.6231C3.51992 1.72627 4.7318 1.21556 6 1.2C7.2682 1.21556 8.48008 1.72627 9.3769 2.6231C10.2737 3.51992 10.7844 4.7318 10.8 6C10.795 6.63061 10.6658 7.25404 10.4197 7.83468C10.1737 8.41533 9.8156 8.94179 9.366 9.384Z" fill="#00A7AC"/>
<path d="M6.00025 2.40005C5.68305 2.39266 5.36766 2.44969 5.07314 2.56768C4.77861 2.68568 4.51109 2.86219 4.28674 3.08654C4.06239 3.31089 3.88588 3.57842 3.76788 3.87294C3.64988 4.16746 3.59286 4.48286 3.60025 4.80005C3.59286 5.11724 3.64988 5.43264 3.76788 5.72716C3.88588 6.02168 4.06239 6.28921 4.28674 6.51356C4.51109 6.73791 4.77861 6.91442 5.07314 7.03242C5.36766 7.15041 5.68305 7.20744 6.00025 7.20005C6.31744 7.20744 6.63283 7.15041 6.92736 7.03242C7.22188 6.91442 7.4894 6.73791 7.71375 6.51356C7.93811 6.28921 8.11462 6.02168 8.23261 5.72716C8.35061 5.43264 8.40764 5.11724 8.40025 4.80005C8.40764 4.48286 8.35061 4.16746 8.23261 3.87294C8.11462 3.57842 7.93811 3.31089 7.71375 3.08654C7.4894 2.86219 7.22188 2.68568 6.92736 2.56768C6.63283 2.44969 6.31744 2.39266 6.00025 2.40005ZM6.00025 6.00005C5.84062 6.00777 5.68114 5.98201 5.53205 5.92444C5.38297 5.86686 5.24757 5.77874 5.13456 5.66573C5.02156 5.55272 4.93344 5.41733 4.87586 5.26824C4.81828 5.11916 4.79253 4.95968 4.80025 4.80005C4.79253 4.64042 4.81828 4.48094 4.87586 4.33186C4.93344 4.18277 5.02156 4.04738 5.13456 3.93437C5.24757 3.82136 5.38297 3.73324 5.53205 3.67566C5.68114 3.61809 5.84062 3.59233 6.00025 3.60005C6.15988 3.59233 6.31936 3.61809 6.46844 3.67566C6.61753 3.73324 6.75292 3.82136 6.86593 3.93437C6.97893 4.04738 7.06706 4.18277 7.12463 4.33186C7.18221 4.48094 7.20796 4.64042 7.20025 4.80005C7.20796 4.95968 7.18221 5.11916 7.12463 5.26824C7.06706 5.41733 6.97893 5.55272 6.86593 5.66573C6.75292 5.77874 6.61753 5.86686 6.46844 5.92444C6.31936 5.98201 6.15988 6.00777 6.00025 6.00005Z" fill="#00A7AC"/>
</svg>
