<svg width="15" height="14" viewBox="0 0 15 14" fill="none" xmlns="http://www.w3.org/2000/svg">
<path d="M5.21591 14L3.92045 11.8333L1.34659 11.3167L1.63636 8.86667L0 7L1.63636 5.15L1.34659 2.7L3.92045 2.18333L5.21591 0L7.5 1.03333L9.78409 0L11.0966 2.18333L13.6534 2.7L13.3636 5.15L15 7L13.3636 8.86667L13.6534 11.3167L11.0966 11.8333L9.78409 14L7.5 12.9667L5.21591 14ZM5.67614 12.6833L7.5 11.9333L9.375 12.6833L10.517 11.0167L12.5114 10.5167L12.3068 8.53333L13.6875 7L12.3068 5.43333L12.5114 3.45L10.517 2.98333L9.34091 1.31667L7.5 2.06667L5.625 1.31667L4.48295 2.98333L2.48864 3.45L2.69318 5.43333L1.3125 7L2.69318 8.53333L2.48864 10.55L4.48295 11.0167L5.67614 12.6833ZM6.76705 9.21667L10.6364 5.46667L9.86932 4.78333L6.76705 7.78333L5.14773 6.13333L4.36364 6.88333L6.76705 9.21667Z" fill="#00A7AC"/>
</svg>
