<svg width="14" height="14" viewBox="0 0 14 14" fill="none" xmlns="http://www.w3.org/2000/svg">
<path d="M0 7C0 5.14348 0.737498 3.36301 2.05025 2.05025C3.36301 0.737498 5.14348 0 7 0C8.85652 0 10.637 0.737498 11.9497 2.05025C13.2625 3.36301 14 5.14348 14 7C14 8.85652 13.2625 10.637 11.9497 11.9497C10.637 13.2625 8.85652 14 7 14C5.14348 14 3.36301 13.2625 2.05025 11.9497C0.737498 10.637 0 8.85652 0 7ZM6.5625 0.942375C5.97625 1.12088 5.39437 1.65987 4.91138 2.5655C4.75224 2.86658 4.61537 3.17892 4.50187 3.5H6.5625V0.942375ZM3.57875 3.5C3.72459 3.03522 3.91201 2.58452 4.13875 2.15337C4.29004 1.8673 4.46477 1.59424 4.66113 1.337C3.577 1.7866 2.64426 2.53717 1.97313 3.5H3.57875ZM3.0695 6.5625C3.09575 5.79513 3.19025 5.05925 3.3425 4.375H1.46475C1.13848 5.06192 0.943787 5.80388 0.89075 6.5625H3.0695ZM4.24113 4.375C4.06903 5.09233 3.96994 5.82523 3.94537 6.5625H6.5625V4.375H4.24113ZM7.4375 4.375V6.5625H10.0538C10.0295 5.82525 9.93071 5.09235 9.75887 4.375H7.4375ZM3.94625 7.4375C3.97053 8.17474 4.06932 8.90764 4.24113 9.625H6.5625V7.4375H3.94625ZM7.4375 7.4375V9.625H9.75887C9.9225 8.95562 10.0266 8.218 10.0546 7.4375H7.4375ZM4.50187 10.5C4.62262 10.8378 4.76 11.151 4.91138 11.4345C5.39437 12.3401 5.97713 12.8783 6.5625 13.0576V10.5H4.50187ZM4.66113 12.663C4.46475 12.4058 4.29003 12.1327 4.13875 11.8466C3.91202 11.4155 3.72459 10.9648 3.57875 10.5H1.97313C2.64422 11.4629 3.57698 12.2134 4.66113 12.663ZM3.3425 9.625C3.18427 8.90581 3.09288 8.17352 3.0695 7.4375H0.89075C0.945 8.21625 1.14538 8.95387 1.46475 9.625H3.3425ZM9.33887 12.663C10.423 12.2134 11.3558 11.4629 12.0269 10.5H10.4212C10.2754 10.9648 10.088 11.4155 9.86125 11.8466C9.71 12.1327 9.53527 12.4058 9.33887 12.663ZM7.4375 10.5V13.0576C8.02375 12.8791 8.60563 12.3401 9.08862 11.4345C9.24 11.151 9.37737 10.8378 9.49813 10.5H7.4375ZM10.6575 9.625H12.5352C12.8546 8.95387 13.055 8.21625 13.1093 7.4375H10.9305C10.9071 8.17352 10.8157 8.90581 10.6575 9.625ZM13.1093 6.5625C13.0562 5.80389 12.8615 5.06193 12.5352 4.375H10.6575C10.8098 5.05925 10.9043 5.79513 10.9305 6.5625H13.1093ZM9.86125 2.15337C10.0774 2.55938 10.2655 3.01087 10.4212 3.5H12.0269C11.3558 2.53714 10.423 1.78656 9.33887 1.337C9.52962 1.5855 9.70463 1.86025 9.86125 2.15337ZM9.49813 3.5C9.38464 3.17891 9.24777 2.86658 9.08862 2.5655C8.60563 1.65987 8.02375 1.12175 7.4375 0.942375V3.5H9.49813Z" fill="#00A7AC"/>
</svg>
