<svg width="12" height="12" viewBox="0 0 12 12" fill="none" xmlns="http://www.w3.org/2000/svg">
<path d="M0 6C0 4.4087 0.632141 2.88258 1.75736 1.75736C2.88258 0.632141 4.4087 0 6 0C7.5913 0 9.11742 0.632141 10.2426 1.75736C11.3679 2.88258 12 4.4087 12 6C12 7.5913 11.3679 9.11742 10.2426 10.2426C9.11742 11.3679 7.5913 12 6 12C4.4087 12 2.88258 11.3679 1.75736 10.2426C0.632141 9.11742 0 7.5913 0 6ZM5.625 0.80775C5.1225 0.96075 4.62375 1.42275 4.20975 2.199C4.07335 2.45707 3.95604 2.72479 3.85875 3H5.625V0.80775ZM3.0675 3C3.1925 2.60161 3.35315 2.2153 3.5475 1.84575C3.67718 1.60054 3.82694 1.36649 3.99525 1.146C3.066 1.53137 2.2665 2.17472 1.69125 3H3.0675ZM2.631 5.625C2.6535 4.96725 2.7345 4.3365 2.865 3.75H1.2555C0.975839 4.33879 0.80896 4.97476 0.7635 5.625H2.631ZM3.63525 3.75C3.48774 4.36485 3.4028 4.99305 3.38175 5.625H5.625V3.75H3.63525ZM6.375 3.75V5.625H8.6175C8.59672 4.99307 8.51204 4.36487 8.36475 3.75H6.375ZM3.3825 6.375C3.40331 7.00692 3.48799 7.63512 3.63525 8.25H5.625V6.375H3.3825ZM6.375 6.375V8.25H8.36475C8.505 7.67625 8.59425 7.044 8.61825 6.375H6.375ZM3.85875 9C3.96225 9.2895 4.08 9.558 4.20975 9.801C4.62375 10.5772 5.12325 11.0385 5.625 11.1923V9H3.85875ZM3.99525 10.854C3.82693 10.6335 3.67717 10.3995 3.5475 10.1542C3.35316 9.7847 3.19251 9.39839 3.0675 9H1.69125C2.26647 9.82531 3.06598 10.4687 3.99525 10.854ZM2.865 8.25C2.72937 7.63355 2.65104 7.00588 2.631 6.375H0.7635C0.81 7.0425 0.98175 7.67475 1.2555 8.25H2.865ZM8.00475 10.854C8.93402 10.4687 9.73353 9.82531 10.3088 9H8.9325C8.80748 9.39838 8.64684 9.78469 8.4525 10.1542C8.32286 10.3995 8.17309 10.6335 8.00475 10.854ZM6.375 9V11.1923C6.8775 11.0393 7.37625 10.5772 7.79025 9.801C7.92 9.558 8.03775 9.2895 8.14125 9H6.375ZM9.135 8.25H10.7445C11.0183 7.67475 11.19 7.0425 11.2365 6.375H9.369C9.34897 7.00588 9.27064 7.63355 9.135 8.25ZM11.2365 5.625C11.191 4.97476 11.0241 4.33879 10.7445 3.75H9.135C9.2655 4.3365 9.3465 4.96725 9.369 5.625H11.2365ZM8.4525 1.84575C8.63775 2.19375 8.799 2.58075 8.9325 3H10.3088C9.73353 2.17469 8.93402 1.53133 8.00475 1.146C8.16825 1.359 8.31825 1.5945 8.4525 1.84575ZM8.14125 3C8.04397 2.72478 7.92666 2.45707 7.79025 2.199C7.37625 1.42275 6.8775 0.9615 6.375 0.80775V3H8.14125Z" fill="#00A7AC"/>
</svg>
