<svg width="10" height="12" viewBox="0 0 10 12" fill="none" xmlns="http://www.w3.org/2000/svg">
<path d="M0.925566 11.027H9.07443L8.09843 3.89189H1.90157L0.925566 11.027ZM5 2.91892C5.26853 2.91892 5.49058 2.82432 5.66616 2.63513C5.84174 2.44595 5.92953 2.21622 5.92953 1.94595C5.92953 1.66486 5.84174 1.43243 5.66616 1.24865C5.49058 1.06486 5.26853 0.972973 5 0.972973C4.7418 0.972973 4.52233 1.06486 4.34158 1.24865C4.16084 1.43243 4.07047 1.66486 4.07047 1.94595C4.07047 2.21622 4.16084 2.44595 4.34158 2.63513C4.52233 2.82432 4.7418 2.91892 5 2.91892ZM6.61118 2.91892H8.09843C8.33598 2.91892 8.54254 2.9973 8.71811 3.15405C8.89369 3.31081 8.99697 3.51351 9.02796 3.76216L9.98847 10.8973C10.0298 11.1892 9.96007 11.4459 9.77933 11.6676C9.59859 11.8892 9.36362 12 9.07443 12H0.925566C0.636379 12 0.401415 11.8892 0.220673 11.6676C0.0399312 11.4459 -0.0297833 11.1892 0.011529 10.8973L0.972042 3.76216C1.00303 3.51351 1.10631 3.31081 1.28189 3.15405C1.45746 2.9973 1.66402 2.91892 1.90157 2.91892H3.38882C3.30619 2.76757 3.24422 2.61351 3.20291 2.45676C3.1616 2.3 3.14094 2.12973 3.14094 1.94595C3.14094 1.40541 3.32168 0.945946 3.68317 0.567568C4.04465 0.189189 4.48359 0 5 0C5.5164 0 5.95535 0.189189 6.31683 0.567568C6.67832 0.945946 6.85906 1.40541 6.85906 1.94595C6.85906 2.12973 6.8384 2.3 6.79709 2.45676C6.75578 2.61351 6.69381 2.76757 6.61118 2.91892ZM0.925566 11.027H9.07443H0.925566Z" fill="#00A7AC"/>
</svg>
