<svg width="40" height="34" viewBox="0 0 40 34" fill="none" xmlns="http://www.w3.org/2000/svg">
<path d="M39.4286 3.16945C38.5 0.792361 37.5 0 33.5 0C31.0714 0 29.2143 1.87285 29.2143 4.32202C29.2143 5.61862 29.9286 6.84321 30.6429 8.1398C30.8572 8.64404 31.2143 9.14828 31.4286 9.65252L31.7143 10.2288C32.3572 11.5254 32.7857 12.4618 32.7857 14.4068C32.7857 15.1991 32.6428 16.0636 32.2857 17.2881V17.3601L29.9286 24.4914L23.807 7.00015C24.0141 6.97321 24.2213 6.94508 24.4286 6.91522C25.5715 6.91522 26.5 5.90674 26.5 4.75417C26.5 3.52958 25.5714 2.59312 24.3571 2.59312C24.2857 2.59312 24.2857 2.59312 24.2142 2.59312C21.4285 3.02534 18.6428 3.02534 15.8571 2.59312C15.7857 2.59312 15.7857 2.59312 15.7142 2.59312C14.4999 2.59312 13.5713 3.52958 13.5713 4.75417C13.5714 5.90674 14.5 6.91522 15.6429 6.91522C15.8822 6.95138 16.124 6.98471 16.3666 7.01654L19.2857 14.4788L15.7143 25.0678L9.28516 6.92751C9.30914 6.92333 9.33313 6.91955 9.35711 6.91522C10.5 6.84321 11.4285 5.90674 11.4285 4.75417C11.4285 3.52958 10.4999 2.59312 9.28563 2.59312C9.21422 2.59312 9.21422 2.59312 9.14273 2.59312C6.85703 3.02534 4.57133 3.02534 2.28562 2.59312C2.21422 2.59312 2.21422 2.59312 2.14273 2.59312C0.928594 2.5932 0 3.52966 0 4.75417C0 5.88657 0.896563 6.80972 2.01188 6.91002L10.7857 31.1186C11.2857 32.4872 12.3571 33.4957 13.7857 33.8559C14.1428 33.9279 14.4286 34 14.7857 34C16.5714 34 18.2857 32.7754 18.8571 31.0466L22.9285 18.8008L27.2142 31.0466C27.5713 32.0551 28.2856 32.7754 29.0713 33.0635C29.7856 33.3517 30.5713 33.2797 31.2856 32.9194C32.2142 32.5593 32.9285 31.7669 33.2142 30.8305L38.5 14.8389C39.7143 11.7415 40 9.00418 40 7.27535V6.12278C40 5.11438 39.8571 4.10591 39.4286 3.16945ZM15.7143 5.47452C15.2857 5.47452 15 5.18639 15 4.75417C15 4.39403 15.2857 4.03382 15.6429 4.03382C18.5715 4.53806 21.4286 4.53806 24.4286 4.03382C24.7857 4.03382 25.0715 4.39395 25.0715 4.75417C25.0715 5.18639 24.7858 5.47452 24.3572 5.47452C24.2858 5.47452 24.2858 5.47452 24.2143 5.47452C23.7893 5.54046 23.3644 5.59506 22.9394 5.64092C22.8683 5.6261 22.7931 5.61862 22.7143 5.61862C20.7857 5.83473 18.8572 5.83473 16.9286 5.61862C16.9273 5.61862 16.9259 5.61878 16.9245 5.61878C16.5688 5.57765 16.213 5.52975 15.8572 5.47452C15.7857 5.47452 15.7857 5.47452 15.7143 5.47452ZM1.42859 4.75417C1.42859 4.39403 1.7143 4.03382 2.07148 4.03382C4.50008 4.53806 6.92859 4.53806 9.35719 4.03382C9.7143 4.03382 10.0001 4.39395 10.0001 4.75417C10.0001 5.18639 9.71438 5.47452 9.28578 5.47452C9.21438 5.47452 9.21437 5.47452 9.14289 5.47452C8.84734 5.53038 8.5518 5.57875 8.25625 5.6202C8.24234 5.61957 8.22844 5.61862 8.2143 5.61862C8.095 5.63784 7.97531 5.65557 7.85539 5.67227C6.1882 5.86916 4.52109 5.83497 2.85391 5.57198C2.80734 5.56339 2.76078 5.55559 2.7143 5.54661C2.70805 5.54661 2.7018 5.54716 2.69555 5.54724C2.55891 5.52447 2.42234 5.50044 2.2857 5.4746C2.2143 5.4746 2.2143 5.4746 2.14281 5.4746C1.7143 5.47452 1.42859 5.18639 1.42859 4.75417ZM38.5 7.34744C38.5 8.93217 38.2857 11.5254 37.1429 14.4068L31.7858 30.3983C31.5715 30.9745 31.1429 31.4067 30.5715 31.6228C30.2144 31.7669 29.8572 31.839 29.5001 31.6948C29.0715 31.5507 28.643 31.1186 28.4287 30.5423L23.4287 16.4236C23.3573 16.1355 23.0716 15.9194 22.7858 15.9194C22.5001 15.9194 22.2144 16.1355 22.1429 16.4236L17.5 30.5424C17.0714 31.911 15.5714 32.7754 14.1429 32.4152C13.2143 32.1991 12.5 31.5508 12.1429 30.6144L3.64906 7.14843C4.3375 7.22792 5.02586 7.27543 5.7143 7.27543C6.42953 7.27543 7.14477 7.22446 7.85992 7.13921L15.1428 27.5169C15.2142 27.8051 15.4999 28.0212 15.7857 28.0212C16.0714 28.0212 16.3571 27.8051 16.4286 27.5169L20.7143 14.6949C20.7857 14.5508 20.7857 14.3348 20.7143 14.1907L18.0233 7.19184C18.688 7.24447 19.3514 7.27543 20 7.27543C20.7718 7.27543 21.5648 7.23234 22.3671 7.15954L29.3571 26.9407C29.4285 27.2288 29.7142 27.4449 30 27.4449C30.2858 27.4449 30.5714 27.2288 30.6429 26.9407L33.6429 17.9364C33.7143 17.8644 33.7143 17.8644 33.7143 17.7923C34.1429 16.4237 34.2857 15.3431 34.2857 14.4788C34.2857 12.1737 33.7143 11.0211 33.0714 9.65252L32.7857 9.07627C32.5 8.57203 32.2143 7.99578 31.9286 7.49155C31.2857 6.41098 30.7143 5.3305 30.7143 4.39403C30.7143 2.52119 32.2143 1.51271 33.5714 1.51271C37.2857 1.51271 37.5714 2.23306 38.0714 3.74577C38.3571 4.46612 38.5 5.25848 38.5 6.12286V7.34744Z" fill="#061421"/>
</svg>
