<svg width="275" height="93" viewBox="0 0 275 93" fill="none" xmlns="http://www.w3.org/2000/svg">
<g opacity="0.15">
<path d="M249.313 82.639L250.585 79.3969L266.554 85.7068L271.674 69.2871L275 70.3329L268.766 90.3259L249.313 82.639Z" fill="#00A7AC"/>
<path d="M1.74451 92.0688C1.51812 92.0688 1.2917 92.0165 1.06531 91.9294C0.177151 91.5633 -0.240803 90.5349 0.142323 89.6459C7.5262 72.163 18.097 56.4754 31.5586 43.0015C45.0203 29.5276 60.711 18.9471 78.1606 11.5391C96.2546 3.88704 115.463 0 135.264 0C155.064 0 174.255 3.88704 192.349 11.5391C209.816 18.9297 225.49 29.5101 238.951 43.0015C251.49 55.5515 261.538 70.0713 268.835 86.1424C269.236 87.0139 268.853 88.0597 267.965 88.4432C267.076 88.8441 266.049 88.4606 265.666 87.5717C258.543 71.8667 248.721 57.6955 236.479 45.4418C223.33 32.2816 208.023 21.9452 190.974 14.7289C173.315 7.25116 154.577 3.4687 135.246 3.4687C115.916 3.4687 97.1776 7.25116 79.5189 14.7289C62.4699 21.9452 47.1623 32.2816 34.0141 45.4418C20.866 58.6019 10.5389 73.9235 3.32921 90.9881C3.06799 91.6679 2.42368 92.0688 1.74451 92.0688Z" fill="#00A7AC"/>
</g>
</svg>
