<svg width="275" height="93" viewBox="0 0 275 93" fill="none" xmlns="http://www.w3.org/2000/svg">
<g opacity="0.15">
<path d="M249.313 10.361L250.585 13.6031L266.554 7.2932L271.674 23.7129L275 22.6671L268.766 2.67407L249.313 10.361Z" fill="#00A7AC"/>
<path d="M1.74451 0.931206C1.51812 0.931206 1.2917 0.983498 1.06531 1.07065C0.177151 1.43669 -0.240803 2.4651 0.142323 3.35406C7.5262 20.837 18.097 36.5246 31.5586 49.9985C45.0203 63.4724 60.711 74.0529 78.1606 81.4609C96.2546 89.113 115.463 93 135.264 93C155.064 93 174.255 89.113 192.349 81.4609C209.816 74.0703 225.49 63.4899 238.951 49.9985C251.49 37.4485 261.538 22.9287 268.835 6.85763C269.236 5.9861 268.853 4.94025 267.965 4.55678C267.076 4.15588 266.049 4.53935 265.666 5.42831C258.543 21.1333 248.721 35.3045 236.479 47.5582C223.33 60.7184 208.023 71.0548 190.974 78.2711C173.315 85.7488 154.577 89.5313 135.246 89.5313C115.916 89.5313 97.1776 85.7488 79.5189 78.2711C62.4699 71.0548 47.1623 60.7184 34.0141 47.5582C20.866 34.3981 10.5389 19.0765 3.32921 2.0119C3.06799 1.33211 2.42368 0.931206 1.74451 0.931206Z" fill="#00A7AC"/>
</g>
</svg>
