<svg width="146" height="53" viewBox="0 0 146 53" fill="none" xmlns="http://www.w3.org/2000/svg">
<path d="M22.81 52.492C22.762 52.504 22.72 52.474 22.684 52.402C22.648 52.342 22.648 52.3 22.684 52.276C23.212 51.952 23.59 51.46 23.818 50.8C24.046 50.152 24.154 49.312 24.142 48.28V39.208C24.142 38.848 24.106 38.584 24.034 38.416C23.962 38.248 23.83 38.134 23.638 38.074C23.446 38.002 23.152 37.966 22.756 37.966C22.72 37.966 22.702 37.93 22.702 37.858C22.702 37.786 22.72 37.75 22.756 37.75L23.62 37.768C24.1 37.792 24.496 37.804 24.808 37.804C25.156 37.804 25.594 37.792 26.122 37.768L26.932 37.75C26.968 37.75 26.986 37.786 26.986 37.858C26.986 37.93 26.968 37.966 26.932 37.966C26.536 37.966 26.242 38.002 26.05 38.074C25.858 38.146 25.726 38.272 25.654 38.452C25.594 38.62 25.558 38.884 25.546 39.244V47.794C25.546 48.73 25.456 49.486 25.276 50.062C25.096 50.65 24.814 51.13 24.43 51.502C24.046 51.874 23.506 52.204 22.81 52.492ZM31.0333 49.252C30.3853 49.252 29.8213 49.096 29.3413 48.784C28.8733 48.472 28.5133 48.046 28.2613 47.506C28.0093 46.966 27.8833 46.366 27.8833 45.706C27.8833 44.962 28.0333 44.296 28.3333 43.708C28.6453 43.12 29.0713 42.658 29.6113 42.322C30.1513 41.986 30.7633 41.818 31.4473 41.818C32.4073 41.818 33.1753 42.136 33.7513 42.772C34.3273 43.396 34.6153 44.242 34.6153 45.31C34.6153 46.126 34.4473 46.834 34.1113 47.434C33.7873 48.022 33.3493 48.472 32.7973 48.784C32.2573 49.096 31.6693 49.252 31.0333 49.252ZM31.5913 48.802C32.1313 48.802 32.5633 48.562 32.8873 48.082C33.2233 47.59 33.3913 46.924 33.3913 46.084C33.3913 45.424 33.2833 44.8 33.0673 44.212C32.8513 43.624 32.5573 43.15 32.1853 42.79C31.8133 42.43 31.3933 42.25 30.9253 42.25C30.3973 42.25 29.9593 42.484 29.6113 42.952C29.2753 43.408 29.1073 44.056 29.1073 44.896C29.1073 45.556 29.2153 46.186 29.4313 46.786C29.6473 47.386 29.9413 47.872 30.3133 48.244C30.6973 48.616 31.1233 48.802 31.5913 48.802ZM41.0177 41.818C41.6297 41.818 42.1217 42.07 42.4937 42.574C42.8777 43.066 43.0697 43.702 43.0697 44.482C43.0697 45.454 42.8357 46.3 42.3677 47.02C41.9117 47.74 41.3417 48.292 40.6577 48.676C39.9737 49.048 39.3137 49.234 38.6777 49.234C37.9577 49.234 37.3817 49.084 36.9497 48.784C36.5297 48.484 36.3257 48.076 36.3377 47.56L36.4457 38.02C36.4697 37.408 36.2777 37.102 35.8697 37.102C35.6417 37.102 35.3477 37.192 34.9877 37.372H34.9697C34.9097 37.372 34.8737 37.342 34.8617 37.282C34.8377 37.21 34.8497 37.168 34.8977 37.156L37.3817 35.95H37.4177C37.4657 35.95 37.5137 35.968 37.5617 36.004C37.6097 36.04 37.6337 36.07 37.6337 36.094L37.5977 45.004C37.8617 44.056 38.2997 43.288 38.9117 42.7C39.5357 42.112 40.2377 41.818 41.0177 41.818ZM39.3617 48.766C39.7817 48.766 40.1717 48.616 40.5317 48.316C40.8917 48.016 41.1797 47.584 41.3957 47.02C41.6117 46.456 41.7137 45.796 41.7017 45.04C41.7137 44.356 41.5997 43.804 41.3597 43.384C41.1317 42.964 40.7717 42.754 40.2797 42.754C39.7637 42.754 39.3017 42.94 38.8937 43.312C38.4977 43.684 38.1797 44.212 37.9397 44.896C37.7117 45.568 37.5977 46.342 37.5977 47.218V47.272C37.5977 47.704 37.7657 48.064 38.1017 48.352C38.4377 48.628 38.8577 48.766 39.3617 48.766ZM48.6143 49C48.5783 49 48.5543 48.964 48.5423 48.892C48.5423 48.82 48.5663 48.784 48.6143 48.784C49.0223 48.784 49.3163 48.754 49.4963 48.694C49.6883 48.634 49.8203 48.52 49.8923 48.352C49.9643 48.172 50.0003 47.902 50.0003 47.542V39.208C49.9883 38.848 49.9463 38.584 49.8743 38.416C49.8023 38.248 49.6703 38.134 49.4783 38.074C49.2983 38.002 49.0103 37.966 48.6143 37.966C48.5783 37.966 48.5543 37.93 48.5423 37.858C48.5423 37.786 48.5663 37.75 48.6143 37.75L49.4423 37.768C49.9223 37.792 50.3183 37.804 50.6303 37.804C50.9063 37.804 51.1403 37.798 51.3323 37.786C51.5363 37.774 51.7043 37.762 51.8363 37.75C52.2563 37.714 52.6583 37.696 53.0423 37.696C54.2063 37.696 55.1663 37.948 55.9223 38.452C56.6783 38.956 57.0563 39.694 57.0563 40.666C57.0563 41.458 56.8403 42.13 56.4083 42.682C55.9763 43.222 55.4363 43.624 54.7883 43.888C54.1403 44.152 53.4923 44.284 52.8443 44.284C52.4843 44.284 52.2023 44.254 51.9983 44.194C51.9743 44.194 51.9623 44.158 51.9623 44.086C51.9623 44.05 51.9683 44.008 51.9803 43.96C52.0043 43.912 52.0283 43.894 52.0523 43.906C52.2083 43.954 52.4003 43.978 52.6283 43.978C53.4203 43.978 54.0923 43.726 54.6443 43.222C55.2083 42.718 55.4903 41.986 55.4903 41.026C55.4903 40.414 55.3583 39.88 55.0943 39.424C54.8303 38.956 54.4823 38.602 54.0503 38.362C53.6303 38.122 53.1803 38.002 52.7003 38.002C52.3163 38.002 52.0343 38.032 51.8543 38.092C51.6863 38.14 51.5663 38.248 51.4943 38.416C51.4343 38.584 51.3983 38.86 51.3863 39.244L51.4043 47.542C51.4043 47.902 51.4343 48.172 51.4943 48.352C51.5663 48.52 51.6923 48.634 51.8723 48.694C52.0643 48.754 52.3583 48.784 52.7543 48.784C52.7903 48.784 52.8083 48.82 52.8083 48.892C52.8083 48.964 52.7903 49 52.7543 49C52.3943 49 52.1123 48.994 51.9083 48.982L50.6663 48.964L49.4603 48.982C49.2563 48.994 48.9743 49 48.6143 49ZM61.004 49.252C60.356 49.252 59.792 49.096 59.312 48.784C58.844 48.472 58.484 48.046 58.232 47.506C57.98 46.966 57.854 46.366 57.854 45.706C57.854 44.962 58.004 44.296 58.304 43.708C58.616 43.12 59.042 42.658 59.582 42.322C60.122 41.986 60.734 41.818 61.418 41.818C62.378 41.818 63.146 42.136 63.722 42.772C64.298 43.396 64.586 44.242 64.586 45.31C64.586 46.126 64.418 46.834 64.082 47.434C63.758 48.022 63.32 48.472 62.768 48.784C62.228 49.096 61.64 49.252 61.004 49.252ZM61.562 48.802C62.102 48.802 62.534 48.562 62.858 48.082C63.194 47.59 63.362 46.924 63.362 46.084C63.362 45.424 63.254 44.8 63.038 44.212C62.822 43.624 62.528 43.15 62.156 42.79C61.784 42.43 61.364 42.25 60.896 42.25C60.368 42.25 59.93 42.484 59.582 42.952C59.246 43.408 59.078 44.056 59.078 44.896C59.078 45.556 59.186 46.186 59.402 46.786C59.618 47.386 59.912 47.872 60.284 48.244C60.668 48.616 61.094 48.802 61.562 48.802ZM70.0164 41.872C70.3044 41.872 70.5804 41.962 70.8444 42.142C71.1204 42.322 71.2644 42.526 71.2764 42.754C71.2764 42.934 71.2044 43.102 71.0604 43.258C70.9164 43.414 70.7544 43.492 70.5744 43.492C70.4424 43.492 70.3344 43.474 70.2504 43.438C70.1784 43.39 70.0824 43.318 69.9624 43.222C69.8064 43.09 69.6624 43.024 69.5304 43.024C69.2664 43.024 69.0144 43.354 68.7744 44.014C68.5344 44.674 68.3364 45.466 68.1804 46.39C68.0244 47.314 67.9404 48.13 67.9284 48.838C67.9284 48.934 67.8684 49.006 67.7484 49.054C67.6284 49.114 67.4484 49.144 67.2084 49.144C66.9684 49.144 66.8184 49.126 66.7584 49.09C66.7104 49.066 66.6864 49.018 66.6864 48.946C66.6864 48.802 66.6924 48.676 66.7044 48.568L66.7224 47.668L66.7404 44.122C66.7524 43.138 66.5484 42.646 66.1284 42.646C65.9604 42.646 65.7804 42.706 65.5884 42.826C65.4084 42.946 65.2284 43.114 65.0484 43.33C65.0364 43.342 65.0184 43.348 64.9944 43.348C64.9584 43.348 64.9284 43.33 64.9044 43.294C64.8684 43.258 64.8564 43.222 64.8684 43.186C65.1924 42.766 65.5284 42.448 65.8764 42.232C66.2244 42.004 66.5604 41.89 66.8844 41.89C67.2564 41.89 67.5264 42.046 67.6944 42.358C67.8744 42.658 67.9644 43.216 67.9644 44.032L67.9464 46.066C68.1264 44.854 68.3904 43.852 68.7384 43.06C69.0864 42.268 69.5124 41.872 70.0164 41.872ZM77.6874 42.07C77.7354 42.07 77.7714 42.088 77.7954 42.124C77.8314 42.16 77.8494 42.196 77.8494 42.232C77.8374 42.388 77.7594 42.562 77.6154 42.754C77.4834 42.946 77.3454 43.03 77.2014 43.006L76.8234 42.952C75.7914 42.796 74.9514 42.706 74.3034 42.682L74.2854 47.092C74.2854 47.56 74.3814 47.902 74.5734 48.118C74.7654 48.334 75.0714 48.442 75.4914 48.442C76.0194 48.442 76.5414 48.238 77.0574 47.83H77.0754C77.1234 47.83 77.1654 47.854 77.2014 47.902C77.2374 47.938 77.2374 47.962 77.2014 47.974C76.7574 48.418 76.3374 48.736 75.9414 48.928C75.5454 49.12 75.1434 49.216 74.7354 49.216C74.2434 49.216 73.8354 49.09 73.5114 48.838C73.1994 48.586 73.0494 48.16 73.0614 47.56L73.0794 43.492C73.0794 43.192 73.0554 42.982 73.0074 42.862C72.9714 42.73 72.8934 42.64 72.7734 42.592C72.6534 42.544 72.4554 42.52 72.1794 42.52C72.1434 42.52 72.1254 42.478 72.1254 42.394C72.1254 42.31 72.1374 42.268 72.1614 42.268C72.6654 42.268 73.0674 42.136 73.3674 41.872C73.6794 41.596 73.8774 41.248 73.9614 40.828C73.9614 40.792 74.0094 40.774 74.1054 40.774C74.1534 40.774 74.1954 40.786 74.2314 40.81C74.2794 40.822 74.3034 40.834 74.3034 40.846V42.232C74.4954 42.232 75.3174 42.196 76.7694 42.124L77.6874 42.07ZM85.6725 47.614C85.6845 47.602 85.7025 47.596 85.7265 47.596C85.7625 47.596 85.7985 47.62 85.8345 47.668C85.8705 47.704 85.8825 47.734 85.8705 47.758C85.5225 48.226 85.1985 48.58 84.8985 48.82C84.5985 49.048 84.2925 49.162 83.9805 49.162C83.2485 49.162 82.8885 48.652 82.9005 47.632L82.9185 45.724C82.5585 46.792 82.0605 47.644 81.4245 48.28C80.8005 48.916 80.1345 49.234 79.4265 49.234C78.9585 49.234 78.5805 49.072 78.2925 48.748C78.0045 48.424 77.8605 47.92 77.8605 47.236C77.8605 46.408 78.0645 45.574 78.4725 44.734C78.8925 43.894 79.4265 43.198 80.0745 42.646C80.7345 42.094 81.4065 41.818 82.0905 41.818C82.3425 41.818 82.5945 41.86 82.8465 41.944C83.1105 42.016 83.3385 42.136 83.5305 42.304C83.7225 42.136 83.8545 41.932 83.9265 41.692C83.9265 41.668 83.9565 41.656 84.0165 41.656C84.1365 41.656 84.1845 41.674 84.1605 41.71L84.1245 47.398C84.1125 48.058 84.2685 48.388 84.5925 48.388C84.8805 48.388 85.2405 48.13 85.6725 47.614ZM82.8645 44.05C82.8645 43.594 82.7385 43.228 82.4865 42.952C82.2345 42.676 81.9045 42.538 81.4965 42.538C81.0405 42.538 80.6205 42.7 80.2365 43.024C79.8645 43.336 79.5705 43.78 79.3545 44.356C79.1385 44.92 79.0305 45.562 79.0305 46.282C79.0425 47.566 79.4145 48.208 80.1465 48.208C80.6145 48.208 81.0585 47.986 81.4785 47.542C81.8985 47.086 82.2345 46.534 82.4865 45.886C82.7385 45.226 82.8645 44.614 82.8645 44.05ZM88.152 49.162C87.408 49.162 87.048 48.652 87.072 47.632L87.162 38.02C87.186 37.408 87.006 37.102 86.622 37.102C86.418 37.102 86.124 37.192 85.74 37.372H85.722C85.674 37.372 85.638 37.342 85.614 37.282C85.59 37.222 85.602 37.18 85.65 37.156L88.134 35.95H88.17C88.218 35.95 88.26 35.968 88.296 36.004C88.344 36.04 88.368 36.07 88.368 36.094L88.314 47.398C88.302 48.058 88.464 48.388 88.8 48.388C89.052 48.388 89.406 48.13 89.862 47.614C89.874 47.602 89.892 47.596 89.916 47.596C89.964 47.596 90.006 47.62 90.042 47.668C90.09 47.704 90.102 47.734 90.078 47.758C89.706 48.238 89.376 48.592 89.088 48.82C88.8 49.048 88.488 49.162 88.152 49.162Z" fill="black"/>
<path d="M10.1641 48.2463L10.9467 47.4134" stroke="black" stroke-width="0.5" stroke-miterlimit="10" stroke-linecap="round" stroke-linejoin="round"/>
<path d="M10.2602 46.6825L9.47754 47.5154" stroke="black" stroke-width="0.5" stroke-miterlimit="10" stroke-linecap="round" stroke-linejoin="round"/>
<path d="M10.4932 49.6023H14.3071C15.0979 49.6023 15.739 48.92 15.739 48.0784V47.2318" stroke="black" stroke-width="0.5" stroke-miterlimit="10" stroke-linecap="round" stroke-linejoin="round"/>
<path d="M15.7388 41.2522V40.1515C15.7388 39.3099 15.0977 38.6277 14.3069 38.6277H2.43189C1.64109 38.6277 1 39.3099 1 40.1515V48.0784C1 48.92 1.64109 49.6023 2.43189 49.6023H5.92555" stroke="black" stroke-width="0.5" stroke-miterlimit="10" stroke-linecap="round" stroke-linejoin="round"/>
<path d="M1 41.2114C1 42.7364 2.16166 43.9727 3.59467 43.9727H3.62448" stroke="black" stroke-width="0.5" stroke-miterlimit="10" stroke-linecap="round" stroke-linejoin="round"/>
<path d="M4.96289 43.9727H9.48921" stroke="black" stroke-width="0.5" stroke-miterlimit="10" stroke-linecap="round" stroke-linejoin="round"/>
<path d="M8.18491 50.7637L10.1539 48.6682C10.2667 48.5481 10.2667 48.3534 10.1539 48.2333L9.49028 47.5271C9.37744 47.407 9.19452 47.407 9.08168 47.5271L7.11269 49.6226C6.8166 49.9377 6.8166 50.4486 7.11269 50.7637C7.4088 51.0788 7.88883 51.0788 8.18491 50.7637Z" stroke="black" stroke-width="0.5" stroke-miterlimit="10" stroke-linecap="round" stroke-linejoin="round"/>
<path d="M8.64746 47.9892L9.71969 49.1303" stroke="black" stroke-width="0.5" stroke-miterlimit="10" stroke-linecap="round" stroke-linejoin="round"/>
<path d="M15.8988 47.0714C14.4305 48.634 12.05 48.634 10.5817 47.0714C9.11339 45.5088 9.11339 42.9753 10.5817 41.4127C12.05 39.8501 14.4305 39.8501 15.8988 41.4127C17.3671 42.9753 17.3671 45.5088 15.8988 47.0714Z" stroke="black" stroke-width="0.5" stroke-miterlimit="10" stroke-linecap="round" stroke-linejoin="round"/>
<path d="M15.8382 44.846C15.7336 45.3578 15.4944 45.8447 15.1205 46.2427C14.0823 47.3476 12.3989 47.3476 11.3607 46.2427C10.3225 45.1378 10.3225 43.3463 11.3607 42.2414C12.3989 41.1364 14.0823 41.1364 15.1205 42.2414C15.494 42.6389 15.7332 43.1253 15.8379 43.6366" stroke="black" stroke-width="0.5" stroke-miterlimit="10" stroke-linecap="round" stroke-linejoin="round"/>
<path d="M4.29316 45.869C3.92361 45.869 3.62402 45.5502 3.62402 45.1569V43.502C3.62402 43.1087 3.92361 42.7898 4.29316 42.7898C4.6627 42.7898 4.96229 43.1087 4.96229 43.502V45.1569C4.96229 45.5502 4.6627 45.869 4.29316 45.869Z" stroke="black" stroke-width="0.5" stroke-miterlimit="10" stroke-linecap="round" stroke-linejoin="round"/>
<path d="M4.96229 44.624H3.62402" stroke="black" stroke-width="0.5" stroke-miterlimit="10" stroke-linecap="round" stroke-linejoin="round"/>
<path d="M11.1301 38.6277V37.4758C11.1301 36.662 10.508 36 9.74338 36H6.99512C6.23047 36 5.6084 36.662 5.6084 37.4758V38.6277" stroke="black" stroke-width="0.5" stroke-miterlimit="10" stroke-linecap="round" stroke-linejoin="round"/>
<path d="M6.60645 38.6277V37.4758C6.60645 37.2477 6.78084 37.0621 6.99518 37.0621H9.74344C9.95778 37.0621 10.1322 37.2477 10.1322 37.4758V38.6277" stroke="black" stroke-width="0.5" stroke-miterlimit="10" stroke-linecap="round" stroke-linejoin="round"/>
<path d="M14.28 2.88V17.92C14.28 20.16 13.5973 21.8133 12.232 22.88C10.888 23.9467 9.07467 24.48 6.792 24.48C5.49067 24.48 4.25333 24.1387 3.08 23.456C1.90667 22.7733 1.32 21.9627 1.32 21.024C1.32 20.6613 1.43733 20.2453 1.672 19.776L3.592 16.064L4.744 16.416L4.456 18.4C4.37067 19.1467 4.328 19.8507 4.328 20.512C4.328 21.1733 4.552 21.7493 5 22.24C5.46933 22.7307 6.088 22.976 6.856 22.976C7.64533 22.976 8.27467 22.7093 8.744 22.176C9.23467 21.6427 9.48 20.8427 9.48 19.776V2.88H6.44V1.6H16.2V2.88H14.28ZM19.725 12.832C19.725 9.44 20.6423 6.64533 22.477 4.448C24.333 2.22933 26.9677 1.12 30.381 1.12C33.8157 1.12 36.461 2.21867 38.317 4.416C40.173 6.61333 41.101 9.41867 41.101 12.832C41.101 16.224 40.173 19.0187 38.317 21.216C36.461 23.392 33.8157 24.48 30.381 24.48C26.9677 24.48 24.333 23.392 22.477 21.216C20.6423 19.0187 19.725 16.224 19.725 12.832ZM30.413 2.624C29.1543 2.624 28.0877 3.11467 27.213 4.096C25.5277 5.93067 24.685 8.84267 24.685 12.832C24.685 16.8 25.5277 19.6907 27.213 21.504C28.109 22.4853 29.1757 22.976 30.413 22.976C32.2477 22.976 33.6557 21.9947 34.637 20.032C35.6397 18.0693 36.141 15.6693 36.141 12.832C36.141 9.97333 35.6397 7.56267 34.637 5.6C33.6557 3.616 32.2477 2.624 30.413 2.624ZM44.9275 2.88V1.6H52.6075C59.2848 1.6 62.6235 3.62667 62.6235 7.68C62.6235 10.496 60.9702 12.3307 57.6635 13.184V13.408C61.6102 14.0053 63.5835 15.6267 63.5835 18.272C63.5835 20.192 62.7088 21.632 60.9595 22.592C59.2102 23.5307 56.7462 24 53.5675 24H44.9275V22.72H46.8475V2.88H44.9275ZM53.2475 13.984H51.6475V22.72H53.2475C54.7835 22.72 56.0635 22.336 57.0875 21.568C58.1115 20.8 58.6235 19.7333 58.6235 18.368C58.6235 16.9813 58.1115 15.904 57.0875 15.136C56.0635 14.368 54.7835 13.984 53.2475 13.984ZM52.5755 2.88H51.6475V12.768H52.5755C54.0902 12.768 55.3382 12.32 56.3195 11.424C57.3222 10.528 57.8235 9.30133 57.8235 7.744C57.8235 6.18667 57.3222 4.992 56.3195 4.16C55.3382 3.30667 54.0902 2.88 52.5755 2.88ZM81.9518 24H67.5838V22.72H69.5038V2.88H67.5838V1.6H81.3118C81.7811 1.6 82.1224 1.62133 82.3358 1.664C82.5704 1.68533 82.7838 1.80267 82.9757 2.016C83.1678 2.208 83.2638 2.51733 83.2638 2.944L82.3998 8.32H81.1518L80.5118 5.152C80.3198 4.192 79.9571 3.57333 79.4238 3.296C78.9118 3.01867 77.9518 2.88 76.5438 2.88H74.3038V13.824H81.6638V15.264H74.3038V22.72H77.1838C78.5704 22.72 79.5198 22.5813 80.0318 22.304C80.5651 22.0267 80.9384 21.408 81.1518 20.448L81.7917 17.6H83.0398L83.9038 22.656C83.9038 23.0827 83.8078 23.4027 83.6158 23.616C83.4238 23.808 83.2104 23.9253 82.9757 23.968C82.7624 23.9893 82.4211 24 81.9518 24ZM89.948 19.872C89.948 20.704 90.3533 21.4293 91.164 22.048C91.9747 22.6667 93.02 22.976 94.3 22.976C95.58 22.976 96.5933 22.6667 97.34 22.048C98.0867 21.4293 98.46 20.608 98.46 19.584C98.46 18.2827 97.6813 17.2053 96.124 16.352L91.388 13.824C88.6573 12.352 87.292 10.2507 87.292 7.52C87.292 5.77067 87.932 4.26667 89.212 3.008C90.492 1.74933 92.4013 1.12 94.94 1.12C96.6467 1.12 98.268 1.46133 99.804 2.144C101.34 2.82667 102.108 3.63733 102.108 4.576C102.108 4.93867 101.991 5.35467 101.756 5.824L100.22 8.768L99.1 8.416V5.728C99.1 4.768 98.6733 4.01067 97.82 3.456C96.988 2.90133 95.9853 2.624 94.812 2.624C93.66 2.624 92.7747 2.96533 92.156 3.648C91.5373 4.33067 91.228 5.10933 91.228 5.984C91.228 7.73333 92.0173 9.024 93.596 9.856L97.66 12C100.753 13.6213 102.3 15.7547 102.3 18.4C102.3 20.4053 101.543 21.92 100.028 22.944C98.5347 23.968 96.636 24.48 94.332 24.48C92.604 24.48 90.94 24.1387 89.34 23.456C87.74 22.7733 86.94 21.9627 86.94 21.024C86.94 20.6613 87.0573 20.2453 87.292 19.776L88.828 16.832L89.948 17.184V19.872Z" fill="black"/>
</svg>
