<svg width="22" height="22" viewBox="0 0 22 22" fill="none" xmlns="http://www.w3.org/2000/svg">
<path d="M12.4556 17.3281L13.4338 16.2176" stroke="#00A7AC" stroke-width="0.5" stroke-miterlimit="10" stroke-linecap="round" stroke-linejoin="round"/>
<path d="M12.5749 15.244L11.5967 16.3545" stroke="#00A7AC" stroke-width="0.5" stroke-miterlimit="10" stroke-linecap="round" stroke-linejoin="round"/>
<path d="M12.8662 19.1367H17.6336C18.6221 19.1367 19.4235 18.227 19.4235 17.1049V15.9761" stroke="#00A7AC" stroke-width="0.5" stroke-miterlimit="10" stroke-linecap="round" stroke-linejoin="round"/>
<path d="M19.4234 8.00328V6.53576C19.4234 5.41363 18.6221 4.50392 17.6336 4.50392H2.78986C1.80137 4.50392 1 5.41363 1 6.53576V17.1049C1 18.227 1.80137 19.1367 2.78986 19.1367H7.15694" stroke="#00A7AC" stroke-width="0.5" stroke-miterlimit="10" stroke-linecap="round" stroke-linejoin="round"/>
<path d="M1 7.94807C1 9.98145 2.45207 11.6299 4.24334 11.6299H4.2806" stroke="#00A7AC" stroke-width="0.5" stroke-miterlimit="10" stroke-linecap="round" stroke-linejoin="round"/>
<path d="M5.95361 11.6299H11.6115" stroke="#00A7AC" stroke-width="0.5" stroke-miterlimit="10" stroke-linecap="round" stroke-linejoin="round"/>
<path d="M9.98065 20.6849L12.4419 17.8909C12.5829 17.7308 12.5829 17.4712 12.4419 17.3111L11.6124 16.3694C11.4713 16.2093 11.2427 16.2093 11.1016 16.3694L8.64037 19.1634C8.27027 19.5836 8.27027 20.2648 8.64037 20.6849C9.01051 21.105 9.61055 21.105 9.98065 20.6849Z" stroke="#00A7AC" stroke-width="0.5" stroke-miterlimit="10" stroke-linecap="round" stroke-linejoin="round"/>
<path d="M10.5586 16.9854L11.8989 18.5068" stroke="#00A7AC" stroke-width="0.5" stroke-miterlimit="10" stroke-linecap="round" stroke-linejoin="round"/>
<path d="M19.6235 15.7616C17.7882 17.8451 14.8124 17.8451 12.9771 15.7616C11.1417 13.6782 11.1417 10.3001 12.9771 8.21668C14.8124 6.13318 17.7882 6.13318 19.6235 8.21668C21.4589 10.3001 21.4589 13.6782 19.6235 15.7616Z" stroke="#00A7AC" stroke-width="0.5" stroke-miterlimit="10" stroke-linecap="round" stroke-linejoin="round"/>
<path d="M19.5473 12.7945C19.4165 13.477 19.1175 14.1262 18.6501 14.6568C17.3524 16.13 15.2482 16.13 13.9504 14.6568C12.6526 13.1836 12.6526 10.7949 13.9504 9.3217C15.2482 7.84846 17.3524 7.84846 18.6501 9.3217C19.1171 9.85175 19.416 10.5002 19.5469 11.182" stroke="#00A7AC" stroke-width="0.5" stroke-miterlimit="10" stroke-linecap="round" stroke-linejoin="round"/>
<path d="M5.11718 14.1592C4.65525 14.1592 4.28076 13.7341 4.28076 13.2097V11.0031C4.28076 10.4787 4.65525 10.0536 5.11718 10.0536C5.57911 10.0536 5.9536 10.4787 5.9536 11.0031V13.2097C5.9536 13.7341 5.57911 14.1592 5.11718 14.1592Z" stroke="#00A7AC" stroke-width="0.5" stroke-miterlimit="10" stroke-linecap="round" stroke-linejoin="round"/>
<path d="M5.9536 12.499H4.28076" stroke="#00A7AC" stroke-width="0.5" stroke-miterlimit="10" stroke-linecap="round" stroke-linejoin="round"/>
<path d="M13.6629 4.50391V2.96799C13.6629 1.883 12.8853 1.00029 11.9295 1.00029H8.49414C7.53833 1.00029 6.76074 1.883 6.76074 2.96799V4.50391" stroke="#00A7AC" stroke-width="0.5" stroke-miterlimit="10" stroke-linecap="round" stroke-linejoin="round"/>
<path d="M8.00781 4.50391V2.96799C8.00781 2.66384 8.2258 2.41643 8.49373 2.41643H11.9291C12.197 2.41643 12.415 2.66384 12.415 2.96799V4.50391" stroke="#00A7AC" stroke-width="0.5" stroke-miterlimit="10" stroke-linecap="round" stroke-linejoin="round"/>
</svg>
